%TF.GenerationSoftware,KiCad,Pcbnew,8.0.4*%
%TF.CreationDate,2024-08-14T00:32:59+03:00*%
%TF.ProjectId,purrChesh,70757272-4368-4657-9368-2e6b69636164,rev?*%
%TF.SameCoordinates,Original*%
%TF.FileFunction,Soldermask,Top*%
%TF.FilePolarity,Negative*%
%FSLAX46Y46*%
G04 Gerber Fmt 4.6, Leading zero omitted, Abs format (unit mm)*
G04 Created by KiCad (PCBNEW 8.0.4) date 2024-08-14 00:32:59*
%MOMM*%
%LPD*%
G01*
G04 APERTURE LIST*
%ADD10C,0.000000*%
%ADD11C,2.000000*%
%ADD12C,0.600000*%
G04 APERTURE END LIST*
D10*
G36*
X30675964Y-24572016D02*
G01*
X30702289Y-24577688D01*
X30729727Y-24586370D01*
X30758271Y-24598066D01*
X30787909Y-24612782D01*
X30818631Y-24630524D01*
X30850429Y-24651296D01*
X30883292Y-24675104D01*
X30917211Y-24701954D01*
X30952175Y-24731850D01*
X30988176Y-24764797D01*
X31025202Y-24800802D01*
X31081227Y-24860300D01*
X31131767Y-24921157D01*
X31176860Y-24983266D01*
X31216545Y-25046518D01*
X31250861Y-25110806D01*
X31279847Y-25176022D01*
X31303541Y-25242058D01*
X31321982Y-25308807D01*
X31335209Y-25376161D01*
X31343260Y-25444012D01*
X31346176Y-25512251D01*
X31343993Y-25580772D01*
X31336752Y-25649467D01*
X31324491Y-25718228D01*
X31307248Y-25786947D01*
X31285063Y-25855516D01*
X31257975Y-25923827D01*
X31226021Y-25991774D01*
X31189241Y-26059247D01*
X31147674Y-26126140D01*
X31101358Y-26192344D01*
X31050333Y-26257751D01*
X30994637Y-26322255D01*
X30934308Y-26385746D01*
X30869387Y-26448118D01*
X30799910Y-26509263D01*
X30725918Y-26569072D01*
X30647449Y-26627438D01*
X30564542Y-26684254D01*
X30477235Y-26739411D01*
X30385568Y-26792801D01*
X30289579Y-26844318D01*
X30220813Y-26879160D01*
X30157491Y-26910014D01*
X30099475Y-26936903D01*
X30046626Y-26959853D01*
X29998805Y-26978888D01*
X29955872Y-26994033D01*
X29917688Y-27005312D01*
X29884115Y-27012750D01*
X29855012Y-27016372D01*
X29830242Y-27016201D01*
X29819437Y-27014701D01*
X29809664Y-27012263D01*
X29800903Y-27008889D01*
X29793139Y-27004582D01*
X29786353Y-26999346D01*
X29780529Y-26993183D01*
X29775648Y-26986096D01*
X29771694Y-26978090D01*
X29768649Y-26969166D01*
X29766495Y-26959328D01*
X29764793Y-26936925D01*
X29766435Y-26925006D01*
X29771254Y-26907102D01*
X29779087Y-26883578D01*
X29789772Y-26854796D01*
X29819047Y-26782905D01*
X29857782Y-26694323D01*
X29904678Y-26591948D01*
X29958437Y-26478674D01*
X30017759Y-26357398D01*
X30081347Y-26231014D01*
X30113591Y-26165360D01*
X30144931Y-26096745D01*
X30175205Y-26025728D01*
X30204250Y-25952870D01*
X30231904Y-25878730D01*
X30258005Y-25803868D01*
X30282390Y-25728845D01*
X30304898Y-25654220D01*
X30325366Y-25580554D01*
X30343631Y-25508406D01*
X30359531Y-25438336D01*
X30372904Y-25370905D01*
X30383588Y-25306672D01*
X30391421Y-25246197D01*
X30396239Y-25190041D01*
X30397881Y-25138763D01*
X30400528Y-25029044D01*
X30403821Y-24978537D01*
X30408414Y-24930940D01*
X30414298Y-24886257D01*
X30421463Y-24844494D01*
X30429899Y-24805657D01*
X30439596Y-24769749D01*
X30450544Y-24736777D01*
X30462734Y-24706746D01*
X30476156Y-24679662D01*
X30490799Y-24655528D01*
X30506655Y-24634352D01*
X30523713Y-24616137D01*
X30541964Y-24600890D01*
X30561397Y-24588616D01*
X30582004Y-24579319D01*
X30603774Y-24573005D01*
X30626697Y-24569680D01*
X30650763Y-24569349D01*
X30675964Y-24572016D01*
G37*
G36*
X21670603Y-24563786D02*
G01*
X21691528Y-24569510D01*
X21711480Y-24579166D01*
X21730504Y-24592761D01*
X21748643Y-24610304D01*
X21765942Y-24631802D01*
X21782445Y-24657262D01*
X21798195Y-24686693D01*
X21813238Y-24720102D01*
X21827616Y-24757497D01*
X21841374Y-24798886D01*
X21854556Y-24844276D01*
X21867206Y-24893675D01*
X21879368Y-24947091D01*
X21891086Y-25004532D01*
X21913367Y-25131518D01*
X21925654Y-25201321D01*
X21940808Y-25275464D01*
X21978859Y-25434157D01*
X22025795Y-25602381D01*
X22079895Y-25774917D01*
X22139435Y-25946546D01*
X22202693Y-26112050D01*
X22267944Y-26266210D01*
X22300779Y-26337406D01*
X22333467Y-26403809D01*
X22397936Y-26535434D01*
X22448796Y-26651116D01*
X22469079Y-26702993D01*
X22485907Y-26750902D01*
X22499262Y-26794848D01*
X22509126Y-26834837D01*
X22515481Y-26870875D01*
X22518310Y-26902967D01*
X22517596Y-26931120D01*
X22513319Y-26955338D01*
X22505463Y-26975627D01*
X22494010Y-26991994D01*
X22478942Y-27004443D01*
X22460241Y-27012982D01*
X22437889Y-27017614D01*
X22411870Y-27018346D01*
X22382164Y-27015184D01*
X22348755Y-27008134D01*
X22311624Y-26997200D01*
X22270754Y-26982389D01*
X22226127Y-26963707D01*
X22177725Y-26941158D01*
X22125531Y-26914750D01*
X22069527Y-26884487D01*
X21946017Y-26812420D01*
X21807052Y-26725004D01*
X21652492Y-26622284D01*
X21585111Y-26575193D01*
X21521069Y-26527763D01*
X21460367Y-26480007D01*
X21403009Y-26431934D01*
X21348999Y-26383556D01*
X21298339Y-26334882D01*
X21251033Y-26285923D01*
X21207083Y-26236691D01*
X21166494Y-26187195D01*
X21129268Y-26137447D01*
X21095408Y-26087456D01*
X21064917Y-26037235D01*
X21037800Y-25986792D01*
X21014058Y-25936140D01*
X20993695Y-25885288D01*
X20976715Y-25834247D01*
X20963120Y-25783029D01*
X20952913Y-25731642D01*
X20946099Y-25680099D01*
X20942679Y-25628410D01*
X20942658Y-25576585D01*
X20946037Y-25524636D01*
X20952822Y-25472572D01*
X20963014Y-25420405D01*
X20976616Y-25368144D01*
X20993633Y-25315802D01*
X21014067Y-25263387D01*
X21037921Y-25210912D01*
X21065199Y-25158386D01*
X21095904Y-25105821D01*
X21130038Y-25053226D01*
X21167606Y-25000613D01*
X21250879Y-24892156D01*
X21327619Y-24798961D01*
X21363650Y-24758107D01*
X21398179Y-24721092D01*
X21431251Y-24687923D01*
X21462911Y-24658609D01*
X21493201Y-24633158D01*
X21522166Y-24611576D01*
X21549851Y-24593871D01*
X21576299Y-24580053D01*
X21601554Y-24570127D01*
X21625660Y-24564102D01*
X21648662Y-24561986D01*
X21670603Y-24563786D01*
G37*
G36*
X23979826Y-22898715D02*
G01*
X24003414Y-22907323D01*
X24010660Y-22912420D01*
X24017679Y-22919514D01*
X24024465Y-22928548D01*
X24031013Y-22939467D01*
X24037317Y-22952213D01*
X24043371Y-22966732D01*
X24054705Y-23000862D01*
X24064969Y-23041408D01*
X24074117Y-23087920D01*
X24082102Y-23139950D01*
X24088877Y-23197050D01*
X24094396Y-23258771D01*
X24098612Y-23324664D01*
X24101479Y-23394280D01*
X24102950Y-23467170D01*
X24102978Y-23542887D01*
X24101517Y-23620980D01*
X24098521Y-23701003D01*
X24093942Y-23782505D01*
X24090091Y-23919339D01*
X24094571Y-24079902D01*
X24106955Y-24261904D01*
X24126818Y-24463053D01*
X24187269Y-24913634D01*
X24272512Y-25413325D01*
X24379131Y-25943803D01*
X24503714Y-26486748D01*
X24642846Y-27023837D01*
X24793114Y-27536749D01*
X24804861Y-27576924D01*
X24813960Y-27613761D01*
X24820457Y-27647278D01*
X24824399Y-27677493D01*
X24825831Y-27704424D01*
X24824801Y-27728090D01*
X24821356Y-27748509D01*
X24815541Y-27765700D01*
X24811760Y-27773091D01*
X24807404Y-27779681D01*
X24802479Y-27785474D01*
X24796991Y-27790471D01*
X24790945Y-27794675D01*
X24784348Y-27798087D01*
X24777206Y-27800711D01*
X24769523Y-27802549D01*
X24752562Y-27803875D01*
X24733511Y-27802082D01*
X24712418Y-27797190D01*
X24689328Y-27789217D01*
X24664288Y-27778182D01*
X24637345Y-27764102D01*
X24608546Y-27746996D01*
X24577937Y-27726883D01*
X24545564Y-27703780D01*
X24511475Y-27677707D01*
X24475716Y-27648682D01*
X24438333Y-27616723D01*
X24399373Y-27581848D01*
X24358883Y-27544077D01*
X24316909Y-27503427D01*
X24273498Y-27459916D01*
X24228697Y-27413564D01*
X24182552Y-27364388D01*
X24135109Y-27312407D01*
X24086416Y-27257640D01*
X24086398Y-27257639D01*
X23944093Y-27091912D01*
X23814904Y-26933434D01*
X23698416Y-26781150D01*
X23594212Y-26634004D01*
X23501876Y-26490943D01*
X23420992Y-26350911D01*
X23351144Y-26212853D01*
X23291915Y-26075715D01*
X23242890Y-25938441D01*
X23203652Y-25799977D01*
X23173785Y-25659267D01*
X23152873Y-25515258D01*
X23140500Y-25366893D01*
X23136250Y-25213118D01*
X23139707Y-25052879D01*
X23150454Y-24885119D01*
X23169163Y-24719220D01*
X23197704Y-24546858D01*
X23234960Y-24370627D01*
X23279810Y-24193119D01*
X23331138Y-24016927D01*
X23387825Y-23844645D01*
X23448752Y-23678866D01*
X23512802Y-23522182D01*
X23578856Y-23377187D01*
X23645795Y-23246473D01*
X23712503Y-23132635D01*
X23777860Y-23038264D01*
X23840747Y-22965955D01*
X23870916Y-22938883D01*
X23900048Y-22918299D01*
X23928003Y-22904527D01*
X23954643Y-22897891D01*
X23979826Y-22898715D01*
G37*
G36*
X28396059Y-22752820D02*
G01*
X28418809Y-22763905D01*
X28443147Y-22781973D01*
X28468936Y-22806692D01*
X28496042Y-22837729D01*
X28524328Y-22874751D01*
X28583901Y-22965421D01*
X28646572Y-23076040D01*
X28711255Y-23203946D01*
X28776867Y-23346479D01*
X28842323Y-23500977D01*
X28906539Y-23664779D01*
X28968431Y-23835223D01*
X29026915Y-24009647D01*
X29080907Y-24185392D01*
X29129322Y-24359794D01*
X29171076Y-24530193D01*
X29205085Y-24693927D01*
X29230264Y-24848335D01*
X29246707Y-25002072D01*
X29253534Y-25153984D01*
X29250624Y-25304374D01*
X29237856Y-25453547D01*
X29215109Y-25601807D01*
X29182263Y-25749458D01*
X29139196Y-25896803D01*
X29085788Y-26044147D01*
X29021918Y-26191794D01*
X28947463Y-26340049D01*
X28862305Y-26489214D01*
X28766322Y-26639594D01*
X28659392Y-26791494D01*
X28541395Y-26945216D01*
X28412210Y-27101066D01*
X28271717Y-27259348D01*
X28180625Y-27357482D01*
X28096101Y-27445784D01*
X28018050Y-27524309D01*
X27946375Y-27593114D01*
X27880983Y-27652253D01*
X27821777Y-27701783D01*
X27768663Y-27741758D01*
X27721544Y-27772235D01*
X27680326Y-27793269D01*
X27661900Y-27800262D01*
X27644913Y-27804916D01*
X27629353Y-27807236D01*
X27615209Y-27807230D01*
X27602469Y-27804905D01*
X27591120Y-27800268D01*
X27581152Y-27793326D01*
X27572550Y-27784086D01*
X27565305Y-27772554D01*
X27559404Y-27758738D01*
X27554835Y-27742645D01*
X27551587Y-27724281D01*
X27549002Y-27680771D01*
X27550702Y-27660733D01*
X27555692Y-27628512D01*
X27574866Y-27530365D01*
X27605180Y-27392008D01*
X27645289Y-27219123D01*
X27693848Y-27017389D01*
X27749515Y-26792487D01*
X27876789Y-26295897D01*
X27942933Y-26020993D01*
X28005213Y-25719259D01*
X28062223Y-25400535D01*
X28112561Y-25074663D01*
X28154822Y-24751484D01*
X28187604Y-24440839D01*
X28209501Y-24152569D01*
X28219110Y-23896515D01*
X28225000Y-23666014D01*
X28236037Y-23450976D01*
X28251591Y-23256109D01*
X28271030Y-23086119D01*
X28293726Y-22945711D01*
X28306097Y-22888072D01*
X28319045Y-22839593D01*
X28332491Y-22800863D01*
X28346357Y-22772471D01*
X28360564Y-22755004D01*
X28367770Y-22750552D01*
X28375032Y-22749051D01*
X28396059Y-22752820D01*
G37*
G36*
X26998261Y-21759858D02*
G01*
X27028254Y-22007043D01*
X27052363Y-22246916D01*
X27070382Y-22482247D01*
X27082108Y-22715808D01*
X27087338Y-22950370D01*
X27085867Y-23188705D01*
X27077492Y-23433584D01*
X27062008Y-23687779D01*
X27039211Y-23954061D01*
X27008899Y-24235202D01*
X26970867Y-24533974D01*
X26924910Y-24853147D01*
X26808411Y-25563784D01*
X26657769Y-26389287D01*
X26409132Y-27682780D01*
X26325030Y-28085739D01*
X26260071Y-28353981D01*
X26232974Y-28444101D01*
X26208507Y-28508363D01*
X26185952Y-28549374D01*
X26164589Y-28569740D01*
X26143699Y-28572070D01*
X26122565Y-28558969D01*
X26100467Y-28533046D01*
X26076687Y-28496906D01*
X26076689Y-28496906D01*
X26068009Y-28479636D01*
X26058458Y-28454794D01*
X26048132Y-28422853D01*
X26037128Y-28384284D01*
X26013474Y-28289153D01*
X25988270Y-28173175D01*
X25962293Y-28040127D01*
X25936317Y-27893784D01*
X25911118Y-27737923D01*
X25887472Y-27576318D01*
X25861061Y-27399585D01*
X25827975Y-27200363D01*
X25747089Y-26761717D01*
X25655432Y-26314911D01*
X25608883Y-26105487D01*
X25563622Y-25914472D01*
X25501660Y-25647112D01*
X25445552Y-25373285D01*
X25395388Y-25094589D01*
X25351259Y-24812623D01*
X25281477Y-24245276D01*
X25236936Y-23684032D01*
X25224360Y-23409695D01*
X25218369Y-23141680D01*
X25219054Y-22881585D01*
X25226506Y-22631009D01*
X25240818Y-22391551D01*
X25262080Y-22164808D01*
X25290384Y-21952380D01*
X25325822Y-21755866D01*
X25512277Y-20887721D01*
X26877796Y-20887721D01*
X26998261Y-21759858D01*
G37*
G36*
X19071671Y-27754619D02*
G01*
X19537844Y-27761773D01*
X19954525Y-27770780D01*
X20331620Y-27782308D01*
X20672174Y-27797068D01*
X20979234Y-27815768D01*
X21255846Y-27839121D01*
X21505056Y-27867836D01*
X21729909Y-27902623D01*
X21834154Y-27922515D01*
X21933452Y-27944192D01*
X22028184Y-27967742D01*
X22118731Y-27993254D01*
X22205473Y-28020817D01*
X22288792Y-28050519D01*
X22369067Y-28082449D01*
X22446680Y-28116697D01*
X22522012Y-28153350D01*
X22595443Y-28192498D01*
X22667353Y-28234229D01*
X22738125Y-28278633D01*
X22877773Y-28375811D01*
X23017433Y-28484744D01*
X23160151Y-28606141D01*
X23250258Y-28689716D01*
X23338170Y-28779600D01*
X23423717Y-28875240D01*
X23506728Y-28976083D01*
X23587031Y-29081576D01*
X23664456Y-29191164D01*
X23809985Y-29420418D01*
X23941947Y-29659418D01*
X24058972Y-29903739D01*
X24159692Y-30148956D01*
X24242736Y-30390644D01*
X24306737Y-30624375D01*
X24331169Y-30736875D01*
X24350326Y-30845726D01*
X24364037Y-30950376D01*
X24372133Y-31050270D01*
X24374440Y-31144857D01*
X24370789Y-31233583D01*
X24361007Y-31315894D01*
X24344925Y-31391237D01*
X24322371Y-31459060D01*
X24293173Y-31518808D01*
X24257161Y-31569930D01*
X24214163Y-31611871D01*
X24164009Y-31644078D01*
X24106527Y-31665999D01*
X23802861Y-31737154D01*
X23495004Y-31787501D01*
X23184094Y-31817329D01*
X22871273Y-31826927D01*
X22557680Y-31816583D01*
X22244454Y-31786586D01*
X21932736Y-31737224D01*
X21623666Y-31668788D01*
X21318383Y-31581564D01*
X21018028Y-31475842D01*
X20723739Y-31351912D01*
X20436658Y-31210061D01*
X20157924Y-31050578D01*
X19888676Y-30873752D01*
X19630056Y-30679872D01*
X19383201Y-30469227D01*
X19272831Y-30361063D01*
X19159776Y-30235808D01*
X19045388Y-30095914D01*
X18931021Y-29943830D01*
X18818028Y-29782005D01*
X18707760Y-29612889D01*
X18601572Y-29438932D01*
X18500816Y-29262584D01*
X18406845Y-29086295D01*
X18321011Y-28912514D01*
X18244668Y-28743691D01*
X18179168Y-28582276D01*
X18125865Y-28430718D01*
X18086111Y-28291468D01*
X18061259Y-28166976D01*
X18054844Y-28111029D01*
X18052661Y-28059690D01*
X18053336Y-28018442D01*
X18055880Y-27980861D01*
X18061054Y-27946797D01*
X18069621Y-27916095D01*
X18075415Y-27901957D01*
X18082344Y-27888603D01*
X18090502Y-27876013D01*
X18099984Y-27864168D01*
X18110887Y-27853050D01*
X18123305Y-27842638D01*
X18137333Y-27832914D01*
X18153067Y-27823859D01*
X18170603Y-27815454D01*
X18190035Y-27807679D01*
X18234969Y-27793945D01*
X18288633Y-27782504D01*
X18351789Y-27773204D01*
X18425198Y-27765891D01*
X18509624Y-27760414D01*
X18605828Y-27756618D01*
X18714573Y-27754352D01*
X18714573Y-27754413D01*
X18880392Y-27753466D01*
X19071671Y-27754619D01*
G37*
G36*
X33367067Y-27765930D02*
G01*
X33637956Y-27770018D01*
X33876257Y-27777751D01*
X33980864Y-27783018D01*
X34074536Y-27789238D01*
X34156344Y-27796423D01*
X34225358Y-27804588D01*
X34280650Y-27813745D01*
X34321289Y-27823909D01*
X34335824Y-27829373D01*
X34346346Y-27835093D01*
X34352742Y-27841072D01*
X34354893Y-27847311D01*
X34346287Y-27959603D01*
X34321565Y-28088445D01*
X34281956Y-28231591D01*
X34228689Y-28386797D01*
X34162994Y-28551818D01*
X34086101Y-28724408D01*
X33999239Y-28902323D01*
X33903637Y-29083318D01*
X33800524Y-29265149D01*
X33691131Y-29445569D01*
X33576686Y-29622335D01*
X33458419Y-29793201D01*
X33337559Y-29955923D01*
X33215337Y-30108255D01*
X33092980Y-30247954D01*
X32971719Y-30372773D01*
X32807465Y-30528900D01*
X32648942Y-30672989D01*
X32495260Y-30805522D01*
X32345529Y-30926983D01*
X32198862Y-31037855D01*
X32054366Y-31138622D01*
X31911154Y-31229767D01*
X31768336Y-31311773D01*
X31625021Y-31385124D01*
X31480321Y-31450302D01*
X31333345Y-31507792D01*
X31183205Y-31558076D01*
X31029011Y-31601638D01*
X30869872Y-31638961D01*
X30704900Y-31670528D01*
X30533205Y-31696824D01*
X29527470Y-31834769D01*
X29492349Y-31838796D01*
X29452573Y-31841752D01*
X29360839Y-31844558D01*
X29255840Y-31843393D01*
X29141148Y-31838460D01*
X29020337Y-31829967D01*
X28896977Y-31818116D01*
X28774641Y-31803113D01*
X28656902Y-31785164D01*
X28569468Y-31769573D01*
X28491407Y-31753668D01*
X28422126Y-31736830D01*
X28361034Y-31718441D01*
X28333375Y-31708471D01*
X28307542Y-31697882D01*
X28283460Y-31686596D01*
X28261057Y-31674536D01*
X28240257Y-31661624D01*
X28220988Y-31647784D01*
X28203175Y-31632938D01*
X28186744Y-31617008D01*
X28171622Y-31599919D01*
X28157734Y-31581591D01*
X28145007Y-31561948D01*
X28133367Y-31540913D01*
X28122740Y-31518409D01*
X28113052Y-31494357D01*
X28104229Y-31468682D01*
X28096197Y-31441305D01*
X28082212Y-31381139D01*
X28070505Y-31313239D01*
X28060485Y-31236989D01*
X28051560Y-31151770D01*
X28044123Y-31028978D01*
X28044824Y-30903950D01*
X28053389Y-30777046D01*
X28069548Y-30648628D01*
X28093028Y-30519055D01*
X28123558Y-30388689D01*
X28160866Y-30257890D01*
X28204679Y-30127019D01*
X28254726Y-29996437D01*
X28310735Y-29866504D01*
X28372434Y-29737580D01*
X28439552Y-29610028D01*
X28511815Y-29484206D01*
X28588953Y-29360477D01*
X28670694Y-29239201D01*
X28756765Y-29120737D01*
X28846894Y-29005448D01*
X28940810Y-28893694D01*
X29038241Y-28785835D01*
X29138915Y-28682232D01*
X29242560Y-28583246D01*
X29348905Y-28489238D01*
X29457676Y-28400568D01*
X29568602Y-28317596D01*
X29681412Y-28240684D01*
X29795834Y-28170193D01*
X29911595Y-28106482D01*
X30028424Y-28049913D01*
X30146048Y-28000846D01*
X30264196Y-27959643D01*
X30382597Y-27926663D01*
X30500977Y-27902267D01*
X30688996Y-27875706D01*
X30918737Y-27851738D01*
X31182769Y-27830469D01*
X31473662Y-27812003D01*
X32106318Y-27783898D01*
X32757268Y-27768263D01*
X32757267Y-27768255D01*
X33071026Y-27765379D01*
X33367067Y-27765930D01*
G37*
G36*
X36436792Y-27978609D02*
G01*
X36450012Y-27993319D01*
X36482476Y-28049772D01*
X36521843Y-28138394D01*
X36566757Y-28254531D01*
X36667808Y-28550747D01*
X36774790Y-28901204D01*
X36876866Y-29268686D01*
X36963197Y-29615976D01*
X36997071Y-29770419D01*
X37022944Y-29905858D01*
X37039461Y-30017641D01*
X37045268Y-30101117D01*
X37035295Y-30154372D01*
X37006197Y-30215680D01*
X36959202Y-30284328D01*
X36895538Y-30359601D01*
X36723119Y-30527168D01*
X36498770Y-30712669D01*
X36232320Y-30910391D01*
X35933598Y-31114621D01*
X35612433Y-31319647D01*
X35278654Y-31519757D01*
X34942092Y-31709237D01*
X34612574Y-31882375D01*
X34299930Y-32033460D01*
X34013989Y-32156777D01*
X33764581Y-32246616D01*
X33656648Y-32277195D01*
X33561534Y-32297262D01*
X33480468Y-32306104D01*
X33414678Y-32303005D01*
X33365393Y-32287251D01*
X33333842Y-32258130D01*
X33331665Y-32250984D01*
X33332097Y-32240939D01*
X33335079Y-32228076D01*
X33340552Y-32212475D01*
X33358731Y-32173387D01*
X33386157Y-32124323D01*
X33422354Y-32065931D01*
X33466845Y-31998860D01*
X33519155Y-31923758D01*
X33578807Y-31841273D01*
X33645324Y-31752055D01*
X33718231Y-31656750D01*
X33797050Y-31556009D01*
X33881306Y-31450478D01*
X34064223Y-31227645D01*
X34161931Y-31111638D01*
X34263171Y-30993436D01*
X34474446Y-30742457D01*
X34692709Y-30471558D01*
X34911668Y-30189295D01*
X35125033Y-29904226D01*
X35326514Y-29624909D01*
X35509820Y-29359902D01*
X35668660Y-29117761D01*
X35796745Y-28907045D01*
X35906371Y-28719863D01*
X36012301Y-28545171D01*
X36111956Y-28386797D01*
X36202755Y-28248569D01*
X36282120Y-28134316D01*
X36347469Y-28047866D01*
X36374082Y-28016263D01*
X36396224Y-27993046D01*
X36413572Y-27978695D01*
X36425805Y-27973686D01*
X36436792Y-27978609D01*
G37*
G36*
X16538194Y-28940079D02*
G01*
X16680414Y-29164554D01*
X16849592Y-29415588D01*
X17039416Y-29684713D01*
X17243574Y-29963457D01*
X17455752Y-30243350D01*
X17669638Y-30515922D01*
X17878918Y-30772702D01*
X18077280Y-31005220D01*
X18368351Y-31344223D01*
X18493259Y-31495559D01*
X18604465Y-31634869D01*
X18702006Y-31762217D01*
X18785918Y-31877668D01*
X18856239Y-31981285D01*
X18913007Y-32073132D01*
X18956258Y-32153272D01*
X18986029Y-32221769D01*
X19002358Y-32278688D01*
X19005492Y-32302826D01*
X19005281Y-32324092D01*
X19001727Y-32342496D01*
X18994835Y-32358045D01*
X18984611Y-32370748D01*
X18971059Y-32380611D01*
X18954183Y-32387644D01*
X18933988Y-32391853D01*
X18883660Y-32391836D01*
X18866271Y-32388207D01*
X18838989Y-32379901D01*
X18757077Y-32350241D01*
X18642593Y-32304830D01*
X18500208Y-32245644D01*
X18334590Y-32174654D01*
X18150408Y-32093836D01*
X17952332Y-32005164D01*
X17745032Y-31910612D01*
X17525099Y-31804821D01*
X17290826Y-31683940D01*
X17049421Y-31552200D01*
X16808092Y-31413833D01*
X16574047Y-31273072D01*
X16354494Y-31134149D01*
X16156640Y-31001297D01*
X15987694Y-30878748D01*
X15746414Y-30692959D01*
X15649109Y-30614862D01*
X15566199Y-30544271D01*
X15496813Y-30479416D01*
X15466920Y-30448587D01*
X15440080Y-30418528D01*
X15416185Y-30389019D01*
X15395127Y-30359838D01*
X15376796Y-30330763D01*
X15361083Y-30301575D01*
X15347880Y-30272051D01*
X15337077Y-30241971D01*
X15328566Y-30211113D01*
X15322238Y-30179256D01*
X15317983Y-30146179D01*
X15315693Y-30111660D01*
X15315260Y-30075479D01*
X15316573Y-30037415D01*
X15324004Y-29954751D01*
X15337116Y-29861897D01*
X15376897Y-29638547D01*
X15406626Y-29491864D01*
X15442661Y-29334685D01*
X15483619Y-29171902D01*
X15528117Y-29008412D01*
X15574773Y-28849108D01*
X15622205Y-28698885D01*
X15669029Y-28562637D01*
X15713865Y-28445258D01*
X15924186Y-27929800D01*
X16538194Y-28940079D01*
G37*
G36*
X15510000Y-32090000D02*
G01*
X15536782Y-32098658D01*
X15572091Y-32112734D01*
X15615380Y-32131933D01*
X15723716Y-32184539D01*
X15857418Y-32254144D01*
X16012116Y-32338414D01*
X16183438Y-32435016D01*
X16367013Y-32541618D01*
X16558471Y-32655885D01*
X16759476Y-32775046D01*
X16970412Y-32895669D01*
X17184989Y-33014440D01*
X17396916Y-33128041D01*
X17599902Y-33233156D01*
X17787656Y-33326470D01*
X17953887Y-33404665D01*
X18092304Y-33464425D01*
X18210148Y-33513661D01*
X18314156Y-33560738D01*
X18404441Y-33605916D01*
X18481112Y-33649457D01*
X18514377Y-33670695D01*
X18544280Y-33691621D01*
X18570836Y-33712268D01*
X18594057Y-33732668D01*
X18613958Y-33752854D01*
X18630553Y-33772858D01*
X18643855Y-33792714D01*
X18653879Y-33812453D01*
X18660638Y-33832108D01*
X18664146Y-33851711D01*
X18664418Y-33871296D01*
X18661466Y-33890895D01*
X18655304Y-33910540D01*
X18645948Y-33930263D01*
X18633410Y-33950098D01*
X18617704Y-33970078D01*
X18598844Y-33990233D01*
X18576845Y-34010598D01*
X18551719Y-34031204D01*
X18523481Y-34052085D01*
X18457724Y-34094798D01*
X18379685Y-34138999D01*
X18315901Y-34169828D01*
X18246967Y-34196738D01*
X18172708Y-34219730D01*
X18092952Y-34238808D01*
X18007522Y-34253975D01*
X17916246Y-34265231D01*
X17818949Y-34272581D01*
X17715457Y-34276026D01*
X17605596Y-34275569D01*
X17489191Y-34271212D01*
X17366069Y-34262958D01*
X17236055Y-34250809D01*
X17098975Y-34234768D01*
X16954655Y-34214837D01*
X16802921Y-34191019D01*
X16643599Y-34163315D01*
X16643599Y-34163302D01*
X16556353Y-34146309D01*
X16477696Y-34127936D01*
X16441286Y-34117871D01*
X16406659Y-34107025D01*
X16373696Y-34095255D01*
X16342274Y-34082415D01*
X16312272Y-34068361D01*
X16283570Y-34052946D01*
X16256045Y-34036027D01*
X16229578Y-34017457D01*
X16204047Y-33997093D01*
X16179331Y-33974789D01*
X16155308Y-33950399D01*
X16131858Y-33923780D01*
X16108859Y-33894786D01*
X16086191Y-33863271D01*
X16063731Y-33829091D01*
X16041360Y-33792102D01*
X16018956Y-33752157D01*
X15996397Y-33709112D01*
X15950332Y-33613140D01*
X15902197Y-33503028D01*
X15851023Y-33377614D01*
X15795839Y-33235739D01*
X15735678Y-33076242D01*
X15664072Y-32877533D01*
X15602236Y-32692155D01*
X15551169Y-32524166D01*
X15511869Y-32377623D01*
X15485333Y-32256582D01*
X15477163Y-32206893D01*
X15472559Y-32165102D01*
X15471645Y-32131714D01*
X15474546Y-32107238D01*
X15481387Y-32092180D01*
X15486324Y-32088342D01*
X15492292Y-32087048D01*
X15510000Y-32090000D01*
G37*
G36*
X36846588Y-32248466D02*
G01*
X36852911Y-32253639D01*
X36855160Y-32261082D01*
X36853236Y-32270836D01*
X36801770Y-32417030D01*
X36719628Y-32658465D01*
X36618116Y-32961604D01*
X36508539Y-33292911D01*
X36420301Y-33555222D01*
X36381123Y-33662401D01*
X36343433Y-33755248D01*
X36305875Y-33835004D01*
X36286721Y-33870361D01*
X36267093Y-33902910D01*
X36246819Y-33932806D01*
X36225731Y-33960204D01*
X36203660Y-33985260D01*
X36180435Y-34008127D01*
X36155888Y-34028963D01*
X36129849Y-34047920D01*
X36102149Y-34065155D01*
X36072618Y-34080822D01*
X36041086Y-34095076D01*
X36007385Y-34108073D01*
X35971344Y-34119967D01*
X35932796Y-34130913D01*
X35847494Y-34150583D01*
X35750126Y-34168322D01*
X35513764Y-34202969D01*
X35242628Y-34237961D01*
X35009441Y-34262715D01*
X34806905Y-34277185D01*
X34714850Y-34280551D01*
X34627721Y-34281329D01*
X34544605Y-34279514D01*
X34464592Y-34275102D01*
X34386767Y-34268085D01*
X34310219Y-34258459D01*
X34234035Y-34246218D01*
X34157304Y-34231356D01*
X33998550Y-34193750D01*
X33998550Y-34193717D01*
X33948556Y-34179456D01*
X33903837Y-34164130D01*
X33864456Y-34147676D01*
X33830477Y-34130034D01*
X33801964Y-34111141D01*
X33789776Y-34101207D01*
X33778979Y-34090938D01*
X33769580Y-34080325D01*
X33761586Y-34069361D01*
X33755007Y-34058038D01*
X33749850Y-34046350D01*
X33746122Y-34034287D01*
X33743832Y-34021842D01*
X33742988Y-34009009D01*
X33743597Y-33995778D01*
X33745668Y-33982142D01*
X33749208Y-33968094D01*
X33754226Y-33953627D01*
X33760729Y-33938731D01*
X33778222Y-33907625D01*
X33801752Y-33874716D01*
X33831382Y-33839943D01*
X33867175Y-33803243D01*
X33909194Y-33764556D01*
X33957504Y-33723819D01*
X34012168Y-33680972D01*
X34073248Y-33635953D01*
X34140809Y-33588700D01*
X34214914Y-33539152D01*
X34295626Y-33487248D01*
X34383009Y-33432926D01*
X34477127Y-33376124D01*
X34578042Y-33316781D01*
X34800519Y-33190228D01*
X35050948Y-33052773D01*
X35329837Y-32903925D01*
X35650002Y-32738517D01*
X35945595Y-32592565D01*
X36210368Y-32468666D01*
X36438071Y-32369415D01*
X36622459Y-32297411D01*
X36696456Y-32272437D01*
X36757281Y-32255248D01*
X36804152Y-32246169D01*
X36836289Y-32245525D01*
X36846588Y-32248466D01*
G37*
G36*
X32236081Y-33634800D02*
G01*
X32125791Y-33824640D01*
X31991254Y-34015770D01*
X31834002Y-34207144D01*
X31655567Y-34397715D01*
X31457479Y-34586438D01*
X31241271Y-34772266D01*
X31008474Y-34954153D01*
X30760619Y-35131053D01*
X30499238Y-35301919D01*
X30225863Y-35465707D01*
X29942025Y-35621368D01*
X29649256Y-35767858D01*
X29349087Y-35904130D01*
X29043050Y-36029138D01*
X28732676Y-36141835D01*
X28419497Y-36241176D01*
X28241644Y-36287217D01*
X28039231Y-36328562D01*
X27815398Y-36365117D01*
X27573280Y-36396788D01*
X27046739Y-36445102D01*
X26484707Y-36472754D01*
X25912279Y-36478994D01*
X25354551Y-36463070D01*
X25089043Y-36446563D01*
X24836622Y-36424233D01*
X24600424Y-36395987D01*
X24383586Y-36361731D01*
X24091059Y-36299531D01*
X23791409Y-36218204D01*
X23487186Y-36119265D01*
X23180942Y-36004233D01*
X22875228Y-35874624D01*
X22572595Y-35731955D01*
X22275593Y-35577743D01*
X21986775Y-35413504D01*
X21708691Y-35240755D01*
X21443892Y-35061014D01*
X21194930Y-34875797D01*
X20964356Y-34686621D01*
X20754720Y-34495002D01*
X20568574Y-34302458D01*
X20408468Y-34110506D01*
X20338978Y-34015225D01*
X20276955Y-33920662D01*
X20198115Y-33791703D01*
X20130991Y-33678344D01*
X20075875Y-33580195D01*
X20033061Y-33496869D01*
X20002841Y-33427976D01*
X19992546Y-33398821D01*
X19985508Y-33373129D01*
X19981765Y-33350851D01*
X19981354Y-33331938D01*
X19984311Y-33316343D01*
X19990672Y-33304016D01*
X20000474Y-33294909D01*
X20013754Y-33288974D01*
X20030548Y-33286162D01*
X20050893Y-33286424D01*
X20074825Y-33289712D01*
X20102382Y-33295977D01*
X20133599Y-33305170D01*
X20168513Y-33317244D01*
X20249579Y-33349838D01*
X20345872Y-33393370D01*
X20457685Y-33447451D01*
X20585311Y-33511693D01*
X20902934Y-33662299D01*
X21231234Y-33796203D01*
X21567804Y-33913253D01*
X21910236Y-34013294D01*
X22256122Y-34096173D01*
X22603055Y-34161738D01*
X22948628Y-34209836D01*
X23290432Y-34240313D01*
X23626060Y-34253016D01*
X23953104Y-34247792D01*
X24269157Y-34224488D01*
X24571811Y-34182950D01*
X24858659Y-34123026D01*
X25127292Y-34044563D01*
X25375303Y-33947407D01*
X25490823Y-33891771D01*
X25600285Y-33831405D01*
X25776020Y-33729128D01*
X25849591Y-33689011D01*
X25915882Y-33656269D01*
X25976581Y-33630926D01*
X26005361Y-33621036D01*
X26033375Y-33613003D01*
X26060836Y-33606831D01*
X26087953Y-33602522D01*
X26114938Y-33600080D01*
X26142001Y-33599506D01*
X26169355Y-33600803D01*
X26197209Y-33603975D01*
X26225774Y-33609023D01*
X26255263Y-33615951D01*
X26285885Y-33624762D01*
X26317851Y-33635458D01*
X26386662Y-33662516D01*
X26463383Y-33697148D01*
X26549702Y-33739375D01*
X26757885Y-33846704D01*
X27003456Y-33959910D01*
X27268348Y-34054406D01*
X27550515Y-34130332D01*
X27847912Y-34187832D01*
X28158495Y-34227047D01*
X28480217Y-34248119D01*
X28811035Y-34251190D01*
X29148904Y-34236403D01*
X29491778Y-34203898D01*
X29837612Y-34153819D01*
X30184362Y-34086306D01*
X30529982Y-34001503D01*
X30872428Y-33899550D01*
X31209655Y-33780591D01*
X31539616Y-33644766D01*
X31860269Y-33492218D01*
X32470937Y-33180623D01*
X32236081Y-33634800D01*
G37*
G36*
X44984259Y-47168221D02*
G01*
X44998342Y-47170886D01*
X45011918Y-47175647D01*
X45025079Y-47182467D01*
X45037917Y-47191306D01*
X45050525Y-47202128D01*
X45062994Y-47214893D01*
X45075417Y-47229565D01*
X45087885Y-47246104D01*
X45113328Y-47284632D01*
X45140060Y-47330175D01*
X45158886Y-47362052D01*
X45181827Y-47398320D01*
X45238784Y-47482378D01*
X45308395Y-47579044D01*
X45388128Y-47685014D01*
X45475446Y-47796983D01*
X45567816Y-47911646D01*
X45662703Y-48025699D01*
X45757572Y-48135836D01*
X45831419Y-48220844D01*
X45896350Y-48298074D01*
X45952686Y-48368753D01*
X46000748Y-48434110D01*
X46021777Y-48465176D01*
X46040858Y-48495373D01*
X46058031Y-48524852D01*
X46073336Y-48553769D01*
X46086814Y-48582276D01*
X46098504Y-48610527D01*
X46108448Y-48638675D01*
X46116684Y-48666875D01*
X46123253Y-48695279D01*
X46128195Y-48724040D01*
X46131551Y-48753313D01*
X46133360Y-48783252D01*
X46133663Y-48814008D01*
X46132500Y-48845737D01*
X46129910Y-48878591D01*
X46125935Y-48912724D01*
X46113987Y-48985441D01*
X46096977Y-49065115D01*
X46075227Y-49152976D01*
X46049057Y-49250250D01*
X46006137Y-49387736D01*
X45954036Y-49523335D01*
X45893136Y-49656823D01*
X45823821Y-49787977D01*
X45746472Y-49916574D01*
X45661473Y-50042389D01*
X45569206Y-50165199D01*
X45470054Y-50284781D01*
X45364399Y-50400911D01*
X45252625Y-50513364D01*
X45135114Y-50621918D01*
X45012249Y-50726349D01*
X44884412Y-50826434D01*
X44751985Y-50921948D01*
X44615353Y-51012668D01*
X44474897Y-51098370D01*
X44331000Y-51178832D01*
X44184045Y-51253828D01*
X44034414Y-51323136D01*
X43882490Y-51386532D01*
X43728657Y-51443792D01*
X43573295Y-51494693D01*
X43416789Y-51539010D01*
X43259521Y-51576522D01*
X43101874Y-51607002D01*
X42944229Y-51630229D01*
X42786971Y-51645979D01*
X42630481Y-51654027D01*
X42475143Y-51654151D01*
X42321338Y-51646127D01*
X42169451Y-51629730D01*
X42019862Y-51604738D01*
X42019865Y-51604735D01*
X41988562Y-51594930D01*
X41953703Y-51577403D01*
X41915519Y-51552500D01*
X41874239Y-51520562D01*
X41783306Y-51436960D01*
X41682737Y-51329345D01*
X41574368Y-51200466D01*
X41460033Y-51053072D01*
X41341564Y-50889909D01*
X41220797Y-50713728D01*
X41099566Y-50527276D01*
X40979704Y-50333302D01*
X40863045Y-50134553D01*
X40751424Y-49933779D01*
X40646675Y-49733728D01*
X40550632Y-49537148D01*
X40465128Y-49346787D01*
X40391999Y-49165394D01*
X40237235Y-48754774D01*
X41380363Y-48828136D01*
X41712992Y-48846146D01*
X41858931Y-48850862D01*
X41993227Y-48852419D01*
X42117338Y-48850591D01*
X42232718Y-48845155D01*
X42340826Y-48835883D01*
X42443116Y-48822553D01*
X42541044Y-48804937D01*
X42636068Y-48782811D01*
X42729643Y-48755951D01*
X42823226Y-48724130D01*
X42918273Y-48687124D01*
X43016239Y-48644707D01*
X43118582Y-48596655D01*
X43226757Y-48542743D01*
X43301120Y-48503239D01*
X43378733Y-48459039D01*
X43458968Y-48410620D01*
X43541194Y-48358456D01*
X43624784Y-48303025D01*
X43709106Y-48244803D01*
X43877435Y-48121890D01*
X44041145Y-47993527D01*
X44119695Y-47928492D01*
X44195202Y-47863524D01*
X44267038Y-47799098D01*
X44334572Y-47735691D01*
X44397176Y-47673778D01*
X44454220Y-47613837D01*
X44539017Y-47522167D01*
X44614784Y-47441779D01*
X44682256Y-47372367D01*
X44742172Y-47313627D01*
X44795269Y-47265254D01*
X44842283Y-47226943D01*
X44863740Y-47211465D01*
X44883952Y-47198389D01*
X44903013Y-47187675D01*
X44921013Y-47179287D01*
X44938046Y-47173185D01*
X44954203Y-47169333D01*
X44969576Y-47167691D01*
X44984259Y-47168221D01*
G37*
G36*
X38543540Y-47387816D02*
G01*
X38576674Y-47390325D01*
X38607684Y-47394140D01*
X38636706Y-47399387D01*
X38663880Y-47406189D01*
X38689344Y-47414673D01*
X38713237Y-47424963D01*
X38735697Y-47437185D01*
X38756862Y-47451462D01*
X38776871Y-47467922D01*
X38795862Y-47486688D01*
X38813974Y-47507885D01*
X38831345Y-47531639D01*
X38848113Y-47558075D01*
X38864418Y-47587317D01*
X38880398Y-47619491D01*
X38896190Y-47654722D01*
X38911934Y-47693135D01*
X38943830Y-47780007D01*
X38977194Y-47881106D01*
X39013132Y-47997434D01*
X39052753Y-48129992D01*
X39102150Y-48303156D01*
X39142415Y-48459952D01*
X39173273Y-48601104D01*
X39194449Y-48727337D01*
X39205668Y-48839376D01*
X39207459Y-48890300D01*
X39206657Y-48937947D01*
X39203228Y-48982408D01*
X39197139Y-49023773D01*
X39188354Y-49062134D01*
X39176840Y-49097581D01*
X39162562Y-49130204D01*
X39145486Y-49160095D01*
X39125577Y-49187343D01*
X39102802Y-49212040D01*
X39077125Y-49234276D01*
X39048513Y-49254142D01*
X39016930Y-49271727D01*
X38982344Y-49287124D01*
X38944719Y-49300422D01*
X38904021Y-49311713D01*
X38813268Y-49328633D01*
X38709813Y-49338609D01*
X38593378Y-49342367D01*
X38472930Y-49347413D01*
X38346726Y-49360674D01*
X38078839Y-49410708D01*
X37793290Y-49490216D01*
X37493652Y-49596939D01*
X37183499Y-49728622D01*
X36866403Y-49883010D01*
X36545938Y-50057846D01*
X36225676Y-50250874D01*
X35909191Y-50459839D01*
X35600056Y-50682484D01*
X35301845Y-50916553D01*
X35018129Y-51159790D01*
X34752484Y-51409940D01*
X34508480Y-51664746D01*
X34289693Y-51921952D01*
X34099694Y-52179303D01*
X33721565Y-52735780D01*
X33721567Y-52173290D01*
X33726773Y-51997115D01*
X33742316Y-51819377D01*
X33768081Y-51640338D01*
X33803953Y-51460256D01*
X33849818Y-51279393D01*
X33905561Y-51098009D01*
X33971068Y-50916363D01*
X34046223Y-50734717D01*
X34130913Y-50553330D01*
X34225023Y-50372463D01*
X34328437Y-50192376D01*
X34441042Y-50013329D01*
X34562723Y-49835583D01*
X34693365Y-49659398D01*
X34832854Y-49485033D01*
X34981075Y-49312750D01*
X35151851Y-49130367D01*
X35335496Y-48951348D01*
X35530194Y-48776759D01*
X35734126Y-48607669D01*
X35945478Y-48445147D01*
X36162432Y-48290260D01*
X36383172Y-48144077D01*
X36605881Y-48007665D01*
X36828742Y-47882093D01*
X37049940Y-47768429D01*
X37267657Y-47667741D01*
X37480078Y-47581096D01*
X37685385Y-47509564D01*
X37881761Y-47454212D01*
X38067391Y-47416107D01*
X38240458Y-47396320D01*
X38341141Y-47390486D01*
X38429999Y-47386875D01*
X38508141Y-47386488D01*
X38543540Y-47387816D01*
G37*
G36*
X40052103Y-51920949D02*
G01*
X40360893Y-51948978D01*
X40477767Y-51965962D01*
X40583681Y-51983573D01*
X40679601Y-52002415D01*
X40766494Y-52023093D01*
X40845326Y-52046212D01*
X40917063Y-52072375D01*
X40982673Y-52102188D01*
X41043122Y-52136255D01*
X41099377Y-52175181D01*
X41152404Y-52219570D01*
X41203169Y-52270027D01*
X41252640Y-52327157D01*
X41301783Y-52391563D01*
X41351564Y-52463852D01*
X41402950Y-52544626D01*
X41456908Y-52634491D01*
X41538941Y-52766703D01*
X41641378Y-52919718D01*
X41760124Y-53088065D01*
X41891085Y-53266273D01*
X42030166Y-53448872D01*
X42173272Y-53630390D01*
X42316309Y-53805357D01*
X42455182Y-53968302D01*
X42585671Y-54120785D01*
X42704671Y-54265772D01*
X42809774Y-54399895D01*
X42898572Y-54519784D01*
X42968655Y-54622071D01*
X42995925Y-54665561D01*
X43017614Y-54703386D01*
X43033420Y-54735127D01*
X43043042Y-54760362D01*
X43046178Y-54778669D01*
X43045220Y-54785093D01*
X43042528Y-54789628D01*
X43037741Y-54792674D01*
X43030566Y-54794683D01*
X43021066Y-54795677D01*
X43009307Y-54795675D01*
X42979273Y-54792765D01*
X42940985Y-54786116D01*
X42894964Y-54775888D01*
X42841729Y-54762245D01*
X42781801Y-54745347D01*
X42715702Y-54725357D01*
X42643951Y-54702438D01*
X42567070Y-54676750D01*
X42399999Y-54617718D01*
X42218653Y-54549557D01*
X42027196Y-54473563D01*
X41828009Y-54396160D01*
X41632533Y-54327983D01*
X41439738Y-54268984D01*
X41248588Y-54219114D01*
X41058051Y-54178322D01*
X40867095Y-54146559D01*
X40674684Y-54123776D01*
X40479787Y-54109923D01*
X40281370Y-54104952D01*
X40078400Y-54108811D01*
X39869843Y-54121453D01*
X39654667Y-54142827D01*
X39431838Y-54172884D01*
X39200323Y-54211575D01*
X38959088Y-54258850D01*
X38707101Y-54314659D01*
X38334690Y-54406604D01*
X37967370Y-54507489D01*
X37606236Y-54616793D01*
X37252386Y-54733995D01*
X36906913Y-54858573D01*
X36570914Y-54990007D01*
X36245484Y-55127775D01*
X35931718Y-55271357D01*
X35630712Y-55420231D01*
X35343562Y-55573876D01*
X35071363Y-55731771D01*
X34815210Y-55893394D01*
X34576200Y-56058226D01*
X34355427Y-56225744D01*
X34153987Y-56395427D01*
X33972975Y-56566754D01*
X33793466Y-56746144D01*
X33719614Y-56818065D01*
X33655716Y-56878418D01*
X33601283Y-56927416D01*
X33555829Y-56965268D01*
X33518867Y-56992188D01*
X33503419Y-57001614D01*
X33489911Y-57008386D01*
X33478283Y-57012530D01*
X33468473Y-57014073D01*
X33460422Y-57013042D01*
X33454067Y-57009462D01*
X33449348Y-57003360D01*
X33446205Y-56994763D01*
X33444576Y-56983697D01*
X33444401Y-56970188D01*
X33448168Y-56935949D01*
X33457019Y-56892256D01*
X33470467Y-56839322D01*
X33488025Y-56777357D01*
X33488024Y-56777355D01*
X33535276Y-56626733D01*
X33588828Y-56475920D01*
X33648601Y-56325045D01*
X33714515Y-56174235D01*
X33786490Y-56023617D01*
X33864448Y-55873321D01*
X33948309Y-55723473D01*
X34037994Y-55574202D01*
X34133422Y-55425636D01*
X34234515Y-55277901D01*
X34341193Y-55131126D01*
X34453377Y-54985439D01*
X34570987Y-54840968D01*
X34693944Y-54697840D01*
X34822168Y-54556184D01*
X34955580Y-54416127D01*
X35277697Y-54100133D01*
X35607876Y-53802987D01*
X35944840Y-53525275D01*
X36287310Y-53267579D01*
X36634006Y-53030484D01*
X36983650Y-52814572D01*
X37334964Y-52620428D01*
X37686667Y-52448635D01*
X38037482Y-52299777D01*
X38386130Y-52174437D01*
X38731332Y-52073200D01*
X39071809Y-51996649D01*
X39406283Y-51945368D01*
X39733473Y-51919939D01*
X40052103Y-51920949D01*
G37*
G36*
X48610027Y-51509207D02*
G01*
X48657912Y-51524930D01*
X48710618Y-51553289D01*
X48767777Y-51593773D01*
X48829020Y-51645870D01*
X48893979Y-51709072D01*
X48962285Y-51782866D01*
X49033572Y-51866744D01*
X49107469Y-51960195D01*
X49183608Y-52062708D01*
X49341142Y-52292879D01*
X49503225Y-52553175D01*
X49666911Y-52839512D01*
X49829254Y-53147809D01*
X49987306Y-53473981D01*
X50138120Y-53813947D01*
X50278749Y-54163622D01*
X50344323Y-54340825D01*
X50406247Y-54518925D01*
X50814250Y-55732418D01*
X50406027Y-56321486D01*
X50310755Y-56451392D01*
X50206896Y-56578847D01*
X50095051Y-56703431D01*
X49975824Y-56824722D01*
X49849819Y-56942298D01*
X49717639Y-57055739D01*
X49579886Y-57164622D01*
X49437165Y-57268528D01*
X49290078Y-57367034D01*
X49139228Y-57459719D01*
X48985220Y-57546162D01*
X48828655Y-57625941D01*
X48670137Y-57698636D01*
X48510270Y-57763825D01*
X48349657Y-57821086D01*
X48188901Y-57869999D01*
X48068536Y-57900050D01*
X47936483Y-57926913D01*
X47794573Y-57950533D01*
X47644642Y-57970858D01*
X47488521Y-57987832D01*
X47328046Y-58001401D01*
X47001362Y-58018110D01*
X46838822Y-58021142D01*
X46679260Y-58020552D01*
X46524510Y-58016287D01*
X46376406Y-58008293D01*
X46236781Y-57996515D01*
X46107469Y-57980900D01*
X45990302Y-57961393D01*
X45887116Y-57937941D01*
X45887111Y-57937941D01*
X45872937Y-57933061D01*
X45858127Y-57925827D01*
X45842713Y-57916293D01*
X45826728Y-57904514D01*
X45810204Y-57890546D01*
X45793173Y-57874445D01*
X45775666Y-57856265D01*
X45757716Y-57836062D01*
X45720616Y-57789807D01*
X45682128Y-57736123D01*
X45642510Y-57675451D01*
X45602018Y-57608235D01*
X45560909Y-57534916D01*
X45519440Y-57455937D01*
X45477867Y-57371741D01*
X45436448Y-57282768D01*
X45395439Y-57189462D01*
X45355096Y-57092265D01*
X45315677Y-56991620D01*
X45277438Y-56887968D01*
X45199302Y-56677582D01*
X45111652Y-56455592D01*
X45017462Y-56228697D01*
X44919706Y-56003593D01*
X44821357Y-55786979D01*
X44725388Y-55585551D01*
X44634773Y-55406008D01*
X44552487Y-55255048D01*
X44514912Y-55188131D01*
X44479408Y-55122072D01*
X44415174Y-54994073D01*
X44386726Y-54932903D01*
X44360911Y-54874134D01*
X44337870Y-54818151D01*
X44317743Y-54765339D01*
X44300671Y-54716084D01*
X44286794Y-54670771D01*
X44276252Y-54629785D01*
X44269188Y-54593513D01*
X44265740Y-54562339D01*
X44266049Y-54536649D01*
X44270257Y-54516829D01*
X44273866Y-54509240D01*
X44278503Y-54503263D01*
X44284681Y-54498139D01*
X44292861Y-54493080D01*
X44314997Y-54483182D01*
X44344447Y-54473621D01*
X44380747Y-54464448D01*
X44423436Y-54455714D01*
X44472048Y-54447470D01*
X44526123Y-54439768D01*
X44585195Y-54432658D01*
X44648803Y-54426194D01*
X44716482Y-54420424D01*
X44787771Y-54415402D01*
X44862205Y-54411177D01*
X44939321Y-54407802D01*
X45018658Y-54405328D01*
X45099750Y-54403806D01*
X45182135Y-54403287D01*
X45305412Y-54402028D01*
X45420430Y-54397898D01*
X45528612Y-54390370D01*
X45631378Y-54378915D01*
X45730150Y-54363006D01*
X45826349Y-54342113D01*
X45921397Y-54315710D01*
X46016716Y-54283268D01*
X46113726Y-54244259D01*
X46213849Y-54198155D01*
X46318506Y-54144427D01*
X46429119Y-54082549D01*
X46547109Y-54011992D01*
X46673898Y-53932227D01*
X46810907Y-53842726D01*
X46959557Y-53742963D01*
X47126313Y-53625663D01*
X47284747Y-53505714D01*
X47434524Y-53383558D01*
X47575306Y-53259637D01*
X47706759Y-53134392D01*
X47828545Y-53008267D01*
X47940328Y-52881702D01*
X48041772Y-52755140D01*
X48132540Y-52629023D01*
X48212298Y-52503793D01*
X48280707Y-52379892D01*
X48337432Y-52257762D01*
X48382137Y-52137844D01*
X48414486Y-52020581D01*
X48425921Y-51963083D01*
X48434142Y-51906415D01*
X48439105Y-51850631D01*
X48440768Y-51795787D01*
X48444591Y-51708777D01*
X48455813Y-51637973D01*
X48474067Y-51582867D01*
X48498983Y-51542948D01*
X48513825Y-51528524D01*
X48530195Y-51517705D01*
X48548046Y-51510427D01*
X48567332Y-51506628D01*
X48610027Y-51509207D01*
G37*
G36*
X40509980Y-56807170D02*
G01*
X40754653Y-56816422D01*
X40995839Y-56834291D01*
X41463266Y-56883549D01*
X41669121Y-56911043D01*
X41859961Y-56941752D01*
X42038454Y-56976652D01*
X42207269Y-57016720D01*
X42369072Y-57062936D01*
X42526532Y-57116276D01*
X42682317Y-57177718D01*
X42839095Y-57248239D01*
X42999534Y-57328817D01*
X43166301Y-57420430D01*
X43342064Y-57524056D01*
X43529492Y-57640671D01*
X43950014Y-57916781D01*
X44250273Y-58122026D01*
X44375043Y-58211386D01*
X44484635Y-58294117D01*
X44580343Y-58371880D01*
X44663464Y-58446336D01*
X44735294Y-58519145D01*
X44797128Y-58591967D01*
X44824702Y-58628902D01*
X44850262Y-58666464D01*
X44873972Y-58704859D01*
X44895993Y-58744295D01*
X44935615Y-58827120D01*
X44970425Y-58916601D01*
X45001718Y-59014398D01*
X45030790Y-59122172D01*
X45058937Y-59241581D01*
X45087455Y-59374288D01*
X45155333Y-59768663D01*
X45224785Y-60286713D01*
X45290993Y-60874112D01*
X45349136Y-61476534D01*
X45394396Y-62039652D01*
X45421953Y-62509141D01*
X45426987Y-62830673D01*
X45419552Y-62918979D01*
X45413083Y-62942046D01*
X45404679Y-62949923D01*
X45401337Y-62949153D01*
X45397226Y-62946867D01*
X45392370Y-62943103D01*
X45386793Y-62937899D01*
X45373570Y-62923323D01*
X45357747Y-62903439D01*
X45339515Y-62878550D01*
X45319064Y-62848958D01*
X45296584Y-62814965D01*
X45272266Y-62776873D01*
X45246299Y-62734983D01*
X45218873Y-62689599D01*
X45160409Y-62589554D01*
X45098395Y-62479153D01*
X45034352Y-62360812D01*
X45034355Y-62360812D01*
X44997335Y-62295333D01*
X44951270Y-62220962D01*
X44896828Y-62138543D01*
X44834678Y-62048917D01*
X44689926Y-61851414D01*
X44522359Y-61635191D01*
X44337324Y-61406989D01*
X44140166Y-61173545D01*
X43936233Y-60941598D01*
X43730871Y-60717887D01*
X43529411Y-60508740D01*
X43332549Y-60315477D01*
X43138528Y-60137149D01*
X42945587Y-59972809D01*
X42751969Y-59821507D01*
X42555914Y-59682295D01*
X42355664Y-59554227D01*
X42149461Y-59436352D01*
X41935545Y-59327724D01*
X41712159Y-59227393D01*
X41477542Y-59134412D01*
X41229937Y-59047833D01*
X40967585Y-58966707D01*
X40688727Y-58890086D01*
X40391605Y-58817022D01*
X40074460Y-58746566D01*
X39790369Y-58689488D01*
X39517190Y-58641208D01*
X39253680Y-58601782D01*
X38998597Y-58571263D01*
X38750696Y-58549708D01*
X38508737Y-58537170D01*
X38271476Y-58533705D01*
X38037670Y-58539366D01*
X37806077Y-58554210D01*
X37575455Y-58578290D01*
X37344560Y-58611662D01*
X37112151Y-58654380D01*
X36876983Y-58706498D01*
X36637816Y-58768073D01*
X36393405Y-58839158D01*
X36142509Y-58919808D01*
X35900924Y-58999113D01*
X35672953Y-59070504D01*
X35463771Y-59132604D01*
X35278552Y-59184035D01*
X35122473Y-59223421D01*
X35000706Y-59249384D01*
X34918428Y-59260548D01*
X34893715Y-59260150D01*
X34880813Y-59255536D01*
X34875566Y-59241793D01*
X34880310Y-59221631D01*
X34894548Y-59195425D01*
X34917783Y-59163552D01*
X34989257Y-59084311D01*
X35090756Y-58986915D01*
X35218305Y-58874373D01*
X35367927Y-58749697D01*
X35535647Y-58615893D01*
X35717489Y-58475972D01*
X35909477Y-58332944D01*
X36107635Y-58189816D01*
X36307988Y-58049599D01*
X36506560Y-57915301D01*
X36699374Y-57789933D01*
X36882456Y-57676503D01*
X37051829Y-57578020D01*
X37203517Y-57497494D01*
X37406055Y-57402027D01*
X37617233Y-57313055D01*
X37836185Y-57230730D01*
X38062044Y-57155204D01*
X38293944Y-57086627D01*
X38531019Y-57025151D01*
X38772403Y-56970929D01*
X39017229Y-56924110D01*
X39264632Y-56884847D01*
X39513746Y-56853291D01*
X39763704Y-56829594D01*
X40013639Y-56813907D01*
X40262687Y-56806382D01*
X40509980Y-56807170D01*
G37*
G36*
X50970693Y-60545834D02*
G01*
X50957175Y-60822224D01*
X50929275Y-61143648D01*
X50907064Y-61315531D01*
X50877818Y-61491813D01*
X50840389Y-61670206D01*
X50793630Y-61848425D01*
X50736395Y-62024183D01*
X50667537Y-62195193D01*
X50585909Y-62359169D01*
X50539948Y-62437804D01*
X50490365Y-62513824D01*
X50437016Y-62586941D01*
X50379758Y-62656871D01*
X50318447Y-62723327D01*
X50252940Y-62786024D01*
X50183094Y-62844676D01*
X50108766Y-62898997D01*
X50029812Y-62948701D01*
X49946088Y-62993502D01*
X49763376Y-63080483D01*
X49586714Y-63159150D01*
X49415682Y-63229578D01*
X49249859Y-63291843D01*
X49088825Y-63346021D01*
X48932157Y-63392187D01*
X48779437Y-63430416D01*
X48630244Y-63460784D01*
X48484156Y-63483366D01*
X48340753Y-63498238D01*
X48199614Y-63505475D01*
X48060319Y-63505152D01*
X47922448Y-63497346D01*
X47785579Y-63482130D01*
X47649292Y-63459582D01*
X47513166Y-63429777D01*
X47513193Y-63429777D01*
X47364499Y-63390416D01*
X47295841Y-63369704D01*
X47230815Y-63348027D01*
X47169300Y-63325177D01*
X47111175Y-63300947D01*
X47056319Y-63275129D01*
X47004611Y-63247514D01*
X46955931Y-63217896D01*
X46910157Y-63186067D01*
X46867170Y-63151819D01*
X46826847Y-63114943D01*
X46789067Y-63075233D01*
X46753711Y-63032481D01*
X46720658Y-62986478D01*
X46689786Y-62937018D01*
X46660974Y-62883892D01*
X46634102Y-62826893D01*
X46609049Y-62765812D01*
X46585694Y-62700443D01*
X46563916Y-62630577D01*
X46543594Y-62556007D01*
X46524608Y-62476525D01*
X46506836Y-62391923D01*
X46474453Y-62206529D01*
X46445478Y-61998162D01*
X46418943Y-61765162D01*
X46393883Y-61505866D01*
X46348746Y-60988911D01*
X46314263Y-60561355D01*
X46293831Y-60267617D01*
X46289945Y-60184811D01*
X46290844Y-60152116D01*
X46292837Y-60151075D01*
X46297054Y-60150837D01*
X46311932Y-60152697D01*
X46335025Y-60157553D01*
X46365878Y-60165263D01*
X46449052Y-60188678D01*
X46557822Y-60221808D01*
X46688561Y-60263518D01*
X46837637Y-60312674D01*
X47001420Y-60368140D01*
X47176281Y-60428783D01*
X47292803Y-60468443D01*
X47405541Y-60504285D01*
X47514941Y-60536366D01*
X47621450Y-60564740D01*
X47725513Y-60589464D01*
X47827578Y-60610593D01*
X47928089Y-60628184D01*
X48027494Y-60642292D01*
X48126239Y-60652973D01*
X48224769Y-60660283D01*
X48323531Y-60664277D01*
X48422972Y-60665011D01*
X48523537Y-60662542D01*
X48625672Y-60656924D01*
X48729824Y-60648215D01*
X48836440Y-60636469D01*
X49002295Y-60614805D01*
X49155721Y-60591744D01*
X49297997Y-60566721D01*
X49430407Y-60539168D01*
X49554233Y-60508517D01*
X49670755Y-60474202D01*
X49781255Y-60435655D01*
X49887016Y-60392309D01*
X49989320Y-60343598D01*
X50089448Y-60288953D01*
X50188681Y-60227808D01*
X50288303Y-60159597D01*
X50389594Y-60083751D01*
X50493836Y-59999703D01*
X50602312Y-59906887D01*
X50716303Y-59804735D01*
X51008505Y-59547382D01*
X50970693Y-60545834D01*
G37*
G36*
X19906321Y-61209702D02*
G01*
X19913427Y-61211922D01*
X19932163Y-61220631D01*
X19956621Y-61234787D01*
X19986430Y-61254098D01*
X20021216Y-61278269D01*
X20060609Y-61307008D01*
X20104236Y-61340021D01*
X20151724Y-61377015D01*
X20256798Y-61461773D01*
X20372854Y-61558934D01*
X20496914Y-61666153D01*
X20626003Y-61781083D01*
X20867784Y-61988092D01*
X21116536Y-62178724D01*
X21371843Y-62352859D01*
X21633286Y-62510378D01*
X21900451Y-62651162D01*
X22172919Y-62775090D01*
X22450274Y-62882045D01*
X22732099Y-62971905D01*
X23017977Y-63044553D01*
X23307492Y-63099869D01*
X23600227Y-63137733D01*
X23895764Y-63158026D01*
X24193688Y-63160630D01*
X24493581Y-63145423D01*
X24795026Y-63112288D01*
X25097607Y-63061105D01*
X25732516Y-62934865D01*
X25928522Y-63777960D01*
X26017466Y-64166827D01*
X26050507Y-64324726D01*
X26074925Y-64460978D01*
X26089967Y-64577614D01*
X26093737Y-64629211D01*
X26094880Y-64676666D01*
X26093304Y-64720232D01*
X26088912Y-64760164D01*
X26081613Y-64796715D01*
X26071311Y-64830140D01*
X26057912Y-64860693D01*
X26041323Y-64888627D01*
X26021448Y-64914196D01*
X25998195Y-64937654D01*
X25971470Y-64959255D01*
X25941177Y-64979254D01*
X25907223Y-64997903D01*
X25869514Y-65015457D01*
X25782455Y-65048297D01*
X25679247Y-65079802D01*
X25421372Y-65146940D01*
X25275932Y-65181539D01*
X25131790Y-65211742D01*
X24988818Y-65237551D01*
X24846888Y-65258966D01*
X24705870Y-65275991D01*
X24565637Y-65288625D01*
X24426059Y-65296872D01*
X24287008Y-65300732D01*
X24148355Y-65300208D01*
X24009972Y-65295300D01*
X23871729Y-65286011D01*
X23733498Y-65272342D01*
X23595150Y-65254294D01*
X23456556Y-65231870D01*
X23317589Y-65205071D01*
X23178119Y-65173898D01*
X23178119Y-65173844D01*
X23122928Y-65158842D01*
X23059570Y-65138360D01*
X22988790Y-65112756D01*
X22911328Y-65082388D01*
X22739329Y-65008789D01*
X22549510Y-64920422D01*
X22347806Y-64820148D01*
X22140155Y-64710825D01*
X21932493Y-64595315D01*
X21730757Y-64476476D01*
X21595237Y-64392861D01*
X21470632Y-64313115D01*
X21356280Y-64236565D01*
X21251518Y-64162535D01*
X21155685Y-64090353D01*
X21068118Y-64019345D01*
X20988155Y-63948836D01*
X20915133Y-63878154D01*
X20848390Y-63806623D01*
X20787264Y-63733571D01*
X20731094Y-63658323D01*
X20679215Y-63580205D01*
X20630967Y-63498544D01*
X20585686Y-63412666D01*
X20542711Y-63321897D01*
X20501380Y-63225563D01*
X20358193Y-62863371D01*
X20226410Y-62505591D01*
X20110060Y-62165749D01*
X20013171Y-61857368D01*
X19939771Y-61593974D01*
X19893888Y-61389090D01*
X19882524Y-61312816D01*
X19879550Y-61256242D01*
X19885469Y-61221058D01*
X19891921Y-61212015D01*
X19900785Y-61208954D01*
X19906321Y-61209702D01*
G37*
G36*
X27681702Y-62747579D02*
G01*
X28411943Y-63345587D01*
X29919290Y-63345587D01*
X30385498Y-63342714D01*
X30585204Y-63338272D01*
X30766422Y-63331070D01*
X30931985Y-63320541D01*
X31084726Y-63306119D01*
X31227478Y-63287235D01*
X31363075Y-63263325D01*
X31494351Y-63233819D01*
X31624137Y-63198152D01*
X31755267Y-63155756D01*
X31890574Y-63106064D01*
X32032892Y-63048509D01*
X32185054Y-62982525D01*
X32530241Y-62822999D01*
X32862517Y-62666852D01*
X33114213Y-62552383D01*
X33211833Y-62510372D01*
X33291694Y-62478292D01*
X33354591Y-62455981D01*
X33401321Y-62443277D01*
X33432679Y-62440017D01*
X33442842Y-62441877D01*
X33449460Y-62446037D01*
X33452632Y-62452477D01*
X33452459Y-62461177D01*
X33442473Y-62485272D01*
X33420296Y-62518161D01*
X33386725Y-62559680D01*
X33288578Y-62667960D01*
X33250941Y-62710834D01*
X33209526Y-62763167D01*
X33164751Y-62824234D01*
X33117039Y-62893310D01*
X33066810Y-62969670D01*
X33014484Y-63052587D01*
X32905222Y-63235194D01*
X32792619Y-63435327D01*
X32680039Y-63647183D01*
X32570844Y-63864960D01*
X32468399Y-64082853D01*
X32332491Y-64373500D01*
X32270021Y-64499016D01*
X32210378Y-64612364D01*
X32152939Y-64714320D01*
X32097082Y-64805661D01*
X32042185Y-64887165D01*
X31987624Y-64959608D01*
X31932779Y-65023768D01*
X31877026Y-65080421D01*
X31819743Y-65130345D01*
X31760308Y-65174317D01*
X31698098Y-65213114D01*
X31632492Y-65247512D01*
X31562866Y-65278289D01*
X31488599Y-65306222D01*
X31328658Y-65354956D01*
X31153879Y-65395421D01*
X30966537Y-65427729D01*
X30768911Y-65451992D01*
X30563277Y-65468320D01*
X30351915Y-65476825D01*
X30137099Y-65477620D01*
X29921109Y-65470814D01*
X29706221Y-65456521D01*
X29494713Y-65434851D01*
X29288862Y-65405916D01*
X29090945Y-65369827D01*
X28903240Y-65326697D01*
X28728025Y-65276636D01*
X28567575Y-65219756D01*
X28424170Y-65156168D01*
X28424169Y-65156178D01*
X28268016Y-65077550D01*
X28130049Y-65005446D01*
X28008664Y-64937460D01*
X27902259Y-64871186D01*
X27854174Y-64837938D01*
X27809233Y-64804215D01*
X27767235Y-64769717D01*
X27727982Y-64734143D01*
X27691272Y-64697191D01*
X27656905Y-64658561D01*
X27624681Y-64617951D01*
X27594400Y-64575062D01*
X27565860Y-64529592D01*
X27538863Y-64481241D01*
X27513208Y-64429707D01*
X27488694Y-64374690D01*
X27465121Y-64315888D01*
X27442289Y-64253002D01*
X27398046Y-64113771D01*
X27354363Y-63954589D01*
X27309638Y-63773050D01*
X27210652Y-63333273D01*
X26951462Y-62149581D01*
X27681702Y-62747579D01*
G37*
G36*
X28181142Y-66747711D02*
G01*
X28267525Y-66805430D01*
X28358390Y-66858924D01*
X28453402Y-66908210D01*
X28552229Y-66953306D01*
X28759992Y-67030989D01*
X28979010Y-67092108D01*
X29206617Y-67136794D01*
X29440144Y-67165181D01*
X29676924Y-67177401D01*
X29914289Y-67173587D01*
X30149572Y-67153872D01*
X30380105Y-67118388D01*
X30603220Y-67067269D01*
X30816250Y-67000647D01*
X31016527Y-66918656D01*
X31111049Y-66871937D01*
X31201383Y-66821427D01*
X31287195Y-66767140D01*
X31368151Y-66709093D01*
X31443918Y-66647304D01*
X31514163Y-66581788D01*
X31567955Y-66528325D01*
X31615093Y-66483082D01*
X31636304Y-66463833D01*
X31656016Y-66446986D01*
X31674285Y-66432656D01*
X31691165Y-66420960D01*
X31706711Y-66412013D01*
X31720978Y-66405931D01*
X31727649Y-66404000D01*
X31734020Y-66402829D01*
X31740100Y-66402432D01*
X31745894Y-66402823D01*
X31751409Y-66404017D01*
X31756653Y-66406029D01*
X31761631Y-66408872D01*
X31766352Y-66412562D01*
X31770822Y-66417112D01*
X31775047Y-66422538D01*
X31779035Y-66428853D01*
X31782792Y-66436072D01*
X31789643Y-66453281D01*
X31795654Y-66474280D01*
X31800879Y-66499184D01*
X31805375Y-66528109D01*
X31809195Y-66561171D01*
X31812396Y-66598486D01*
X31815031Y-66640169D01*
X31817155Y-66686335D01*
X31820092Y-66792582D01*
X31821646Y-66918151D01*
X31822362Y-67230958D01*
X31822362Y-68188322D01*
X31149705Y-68493654D01*
X30987138Y-68561136D01*
X30816640Y-68619990D01*
X30639537Y-68670200D01*
X30457158Y-68711748D01*
X30270831Y-68744618D01*
X30081884Y-68768793D01*
X29891644Y-68784258D01*
X29701439Y-68790995D01*
X29512597Y-68788988D01*
X29326445Y-68778220D01*
X29144313Y-68758674D01*
X28967526Y-68730335D01*
X28797414Y-68693185D01*
X28635304Y-68647208D01*
X28482524Y-68592388D01*
X28340402Y-68528707D01*
X28340357Y-68528712D01*
X28247153Y-68481461D01*
X28164888Y-68437533D01*
X28092805Y-68395418D01*
X28060347Y-68374567D01*
X28030150Y-68353604D01*
X28002121Y-68332337D01*
X27976166Y-68310579D01*
X27952189Y-68288141D01*
X27930097Y-68264833D01*
X27909794Y-68240467D01*
X27891187Y-68214854D01*
X27874181Y-68187805D01*
X27858681Y-68159130D01*
X27844593Y-68128642D01*
X27831822Y-68096151D01*
X27820274Y-68061467D01*
X27809855Y-68024404D01*
X27800469Y-67984770D01*
X27792023Y-67942378D01*
X27784422Y-67897038D01*
X27777572Y-67848562D01*
X27765744Y-67741444D01*
X27755785Y-67619513D01*
X27746937Y-67481258D01*
X27738446Y-67325167D01*
X27690514Y-66398351D01*
X28181142Y-66747711D01*
G37*
G36*
X21625492Y-66153906D02*
G01*
X21636804Y-66155702D01*
X21649553Y-66158769D01*
X21679170Y-66168607D01*
X21713966Y-66183199D01*
X21753563Y-66202321D01*
X21797585Y-66225751D01*
X21845655Y-66253267D01*
X21897395Y-66284647D01*
X21952430Y-66319669D01*
X22010381Y-66358109D01*
X22070872Y-66399746D01*
X22133527Y-66444358D01*
X22197967Y-66491721D01*
X22263816Y-66541614D01*
X22330697Y-66593815D01*
X22555684Y-66763907D01*
X22779170Y-66916625D01*
X23001106Y-67051962D01*
X23221448Y-67169908D01*
X23440148Y-67270454D01*
X23657159Y-67353592D01*
X23872436Y-67419313D01*
X24085932Y-67467609D01*
X24297599Y-67498470D01*
X24507393Y-67511889D01*
X24715266Y-67507856D01*
X24921171Y-67486363D01*
X25125063Y-67447401D01*
X25326894Y-67390962D01*
X25526619Y-67317037D01*
X25724190Y-67225617D01*
X25848631Y-67163269D01*
X25966005Y-67106572D01*
X26073651Y-67056660D01*
X26168910Y-67014670D01*
X26249120Y-66981737D01*
X26311621Y-66958998D01*
X26335399Y-66951806D01*
X26353753Y-66947588D01*
X26366349Y-66946487D01*
X26370384Y-66947149D01*
X26372854Y-66948644D01*
X26376725Y-66956624D01*
X26381594Y-66972617D01*
X26394042Y-67026905D01*
X26409619Y-67108035D01*
X26427746Y-67212537D01*
X26447845Y-67336937D01*
X26469337Y-67477766D01*
X26491643Y-67631551D01*
X26514185Y-67794821D01*
X26623048Y-68603824D01*
X25974927Y-68863156D01*
X25846086Y-68910739D01*
X25710955Y-68953052D01*
X25570167Y-68990065D01*
X25424355Y-69021750D01*
X25274151Y-69048076D01*
X25120189Y-69069017D01*
X24963102Y-69084542D01*
X24803522Y-69094622D01*
X24642082Y-69099229D01*
X24479415Y-69098334D01*
X24316154Y-69091908D01*
X24152932Y-69079922D01*
X23990382Y-69062347D01*
X23829137Y-69039153D01*
X23669829Y-69010313D01*
X23513091Y-68975797D01*
X23461713Y-68962184D01*
X23405871Y-68945077D01*
X23346106Y-68924730D01*
X23282958Y-68901397D01*
X23148680Y-68846788D01*
X23007361Y-68783281D01*
X22863328Y-68712905D01*
X22720908Y-68637692D01*
X22584426Y-68559672D01*
X22519764Y-68520244D01*
X22458209Y-68480875D01*
X22368473Y-68420616D01*
X22287485Y-68362868D01*
X22214571Y-68306476D01*
X22180932Y-68278428D01*
X22149060Y-68250286D01*
X22118869Y-68221906D01*
X22090277Y-68193144D01*
X22063199Y-68163855D01*
X22037551Y-68133895D01*
X22013249Y-68103119D01*
X21990210Y-68071384D01*
X21968347Y-68038545D01*
X21947579Y-68004457D01*
X21927821Y-67968977D01*
X21908988Y-67931960D01*
X21890997Y-67893262D01*
X21873763Y-67852738D01*
X21857202Y-67810245D01*
X21841231Y-67765637D01*
X21810721Y-67669501D01*
X21781559Y-67563177D01*
X21753072Y-67445510D01*
X21724589Y-67315346D01*
X21695437Y-67171530D01*
X21660424Y-66983282D01*
X21631027Y-66804395D01*
X21607656Y-66639018D01*
X21590722Y-66491300D01*
X21580633Y-66365390D01*
X21577800Y-66265436D01*
X21579233Y-66226490D01*
X21582634Y-66195589D01*
X21588054Y-66173251D01*
X21595544Y-66159996D01*
X21600641Y-66156427D01*
X21607363Y-66154241D01*
X21615662Y-66153410D01*
X21625492Y-66153906D01*
G37*
G36*
X16378652Y-66330879D02*
G01*
X16508256Y-66348609D01*
X16633627Y-66376143D01*
X16754928Y-66413553D01*
X16872324Y-66460916D01*
X16985981Y-66518304D01*
X17096062Y-66585794D01*
X17202734Y-66663460D01*
X17306160Y-66751377D01*
X17406505Y-66849619D01*
X17503935Y-66958260D01*
X17598613Y-67077377D01*
X17690706Y-67207042D01*
X17771787Y-67337519D01*
X17842398Y-67471994D01*
X17902528Y-67609689D01*
X17952162Y-67749826D01*
X17991289Y-67891626D01*
X18019897Y-68034310D01*
X18037972Y-68177100D01*
X18045503Y-68319218D01*
X18042477Y-68459885D01*
X18028882Y-68598322D01*
X18004705Y-68733751D01*
X17969933Y-68865394D01*
X17924555Y-68992471D01*
X17868557Y-69114204D01*
X17801927Y-69229816D01*
X17764622Y-69285083D01*
X17724654Y-69338527D01*
X17690593Y-69379604D01*
X17654669Y-69418699D01*
X17617008Y-69455791D01*
X17577737Y-69490858D01*
X17536986Y-69523880D01*
X17494881Y-69554836D01*
X17451550Y-69583705D01*
X17407121Y-69610465D01*
X17361721Y-69635096D01*
X17315478Y-69657576D01*
X17268521Y-69677885D01*
X17220976Y-69696002D01*
X17172971Y-69711906D01*
X17124634Y-69725575D01*
X17076093Y-69736989D01*
X17027475Y-69746127D01*
X16978909Y-69752967D01*
X16930521Y-69757489D01*
X16882439Y-69759672D01*
X16834792Y-69759495D01*
X16787706Y-69756936D01*
X16741310Y-69751975D01*
X16695731Y-69744591D01*
X16651097Y-69734762D01*
X16607536Y-69722469D01*
X16565175Y-69707689D01*
X16524142Y-69690401D01*
X16484565Y-69670586D01*
X16446571Y-69648221D01*
X16410288Y-69623286D01*
X16375844Y-69595760D01*
X16343366Y-69565621D01*
X16343412Y-69565636D01*
X16312898Y-69533972D01*
X16285054Y-69502726D01*
X16259861Y-69471945D01*
X16237297Y-69441678D01*
X16217342Y-69411972D01*
X16199974Y-69382875D01*
X16185174Y-69354437D01*
X16172920Y-69326703D01*
X16163191Y-69299724D01*
X16155967Y-69273547D01*
X16151227Y-69248219D01*
X16148951Y-69223789D01*
X16149116Y-69200306D01*
X16151704Y-69177816D01*
X16156692Y-69156369D01*
X16164061Y-69136011D01*
X16173789Y-69116792D01*
X16185856Y-69098760D01*
X16200241Y-69081962D01*
X16216923Y-69066446D01*
X16235881Y-69052261D01*
X16257095Y-69039454D01*
X16280544Y-69028074D01*
X16306207Y-69018169D01*
X16334064Y-69009786D01*
X16364093Y-69002975D01*
X16396274Y-68997782D01*
X16430586Y-68994256D01*
X16467008Y-68992446D01*
X16505520Y-68992398D01*
X16546101Y-68994162D01*
X16588730Y-68997784D01*
X16651824Y-69003509D01*
X16709139Y-69006714D01*
X16760981Y-69007192D01*
X16807657Y-69004741D01*
X16829154Y-69002353D01*
X16849474Y-68999155D01*
X16868656Y-68995122D01*
X16886738Y-68990228D01*
X16903760Y-68984449D01*
X16919758Y-68977757D01*
X16934771Y-68970129D01*
X16948838Y-68961537D01*
X16961998Y-68951957D01*
X16974287Y-68941362D01*
X16985746Y-68929728D01*
X16996411Y-68917028D01*
X17006322Y-68903237D01*
X17015517Y-68888330D01*
X17024034Y-68872280D01*
X17031911Y-68855062D01*
X17039188Y-68836652D01*
X17045902Y-68817022D01*
X17057794Y-68774002D01*
X17067896Y-68725799D01*
X17076514Y-68672208D01*
X17086464Y-68583718D01*
X17091193Y-68496637D01*
X17090880Y-68411135D01*
X17085705Y-68327378D01*
X17075847Y-68245536D01*
X17061483Y-68165776D01*
X17042794Y-68088267D01*
X17019959Y-68013176D01*
X16993155Y-67940672D01*
X16962564Y-67870922D01*
X16928363Y-67804095D01*
X16890731Y-67740360D01*
X16849848Y-67679883D01*
X16805893Y-67622833D01*
X16759044Y-67569379D01*
X16709481Y-67519688D01*
X16657382Y-67473928D01*
X16602928Y-67432268D01*
X16546296Y-67394875D01*
X16487666Y-67361918D01*
X16427217Y-67333565D01*
X16365127Y-67309984D01*
X16301577Y-67291343D01*
X16236744Y-67277810D01*
X16170809Y-67269553D01*
X16103949Y-67266740D01*
X16036345Y-67269540D01*
X15968174Y-67278121D01*
X15899617Y-67292650D01*
X15830851Y-67313296D01*
X15762057Y-67340226D01*
X15693413Y-67373610D01*
X15647457Y-67397646D01*
X15605580Y-67418316D01*
X15567626Y-67435610D01*
X15533438Y-67449513D01*
X15502860Y-67460015D01*
X15475735Y-67467102D01*
X15463418Y-67469361D01*
X15451906Y-67470762D01*
X15441179Y-67471304D01*
X15431218Y-67470984D01*
X15422002Y-67469801D01*
X15413513Y-67467754D01*
X15405730Y-67464842D01*
X15398634Y-67461061D01*
X15392206Y-67456412D01*
X15386426Y-67450892D01*
X15381275Y-67444501D01*
X15376732Y-67437236D01*
X15372778Y-67429095D01*
X15369394Y-67420078D01*
X15366561Y-67410183D01*
X15364258Y-67399409D01*
X15361165Y-67375214D01*
X15359959Y-67347482D01*
X15359310Y-67324999D01*
X15357739Y-67299687D01*
X15352032Y-67241691D01*
X15343232Y-67175722D01*
X15331733Y-67104008D01*
X15317928Y-67028777D01*
X15302213Y-66952258D01*
X15284980Y-66876679D01*
X15266625Y-66804269D01*
X15253574Y-66751526D01*
X15248518Y-66727119D01*
X15244523Y-66703955D01*
X15241652Y-66681985D01*
X15239966Y-66661157D01*
X15239528Y-66641422D01*
X15240398Y-66622729D01*
X15242640Y-66605029D01*
X15246313Y-66588271D01*
X15251481Y-66572405D01*
X15258206Y-66557381D01*
X15266548Y-66543149D01*
X15276569Y-66529658D01*
X15288332Y-66516859D01*
X15301898Y-66504702D01*
X15317329Y-66493135D01*
X15334687Y-66482110D01*
X15354033Y-66471575D01*
X15375430Y-66461482D01*
X15398938Y-66451779D01*
X15424621Y-66442416D01*
X15452539Y-66433344D01*
X15482754Y-66424512D01*
X15515329Y-66415870D01*
X15550324Y-66407368D01*
X15627825Y-66390583D01*
X15715751Y-66373756D01*
X15814596Y-66356486D01*
X15962785Y-66335754D01*
X16106081Y-66324525D01*
X16244648Y-66322875D01*
X16378652Y-66330879D01*
G37*
G36*
X27934448Y-70058854D02*
G01*
X27967359Y-70064315D01*
X28002924Y-70073729D01*
X28041212Y-70087037D01*
X28082290Y-70104177D01*
X28126226Y-70125090D01*
X28222944Y-70177993D01*
X28331909Y-70245261D01*
X28453665Y-70326412D01*
X28549192Y-70390723D01*
X28638120Y-70447749D01*
X28721969Y-70497809D01*
X28802260Y-70541222D01*
X28880513Y-70578309D01*
X28958250Y-70609388D01*
X28997399Y-70622775D01*
X29036990Y-70634779D01*
X29077212Y-70645442D01*
X29118255Y-70654802D01*
X29203564Y-70669777D01*
X29294440Y-70680021D01*
X29392402Y-70685857D01*
X29498971Y-70687602D01*
X29615668Y-70685576D01*
X29744014Y-70680099D01*
X29885528Y-70671490D01*
X30041733Y-70660070D01*
X30248792Y-70639175D01*
X30458115Y-70609103D01*
X30663965Y-70571267D01*
X30860605Y-70527080D01*
X31042299Y-70477957D01*
X31125749Y-70451985D01*
X31203312Y-70425310D01*
X31274269Y-70398107D01*
X31337905Y-70370553D01*
X31393502Y-70342825D01*
X31440343Y-70315099D01*
X31525744Y-70259307D01*
X31600638Y-70211517D01*
X31665937Y-70172315D01*
X31695274Y-70156118D01*
X31722554Y-70142286D01*
X31747891Y-70130893D01*
X31771400Y-70122013D01*
X31793195Y-70115718D01*
X31813389Y-70112082D01*
X31832096Y-70111177D01*
X31849431Y-70113076D01*
X31865508Y-70117854D01*
X31880440Y-70125582D01*
X31894341Y-70136334D01*
X31907326Y-70150182D01*
X31919509Y-70167201D01*
X31931003Y-70187462D01*
X31941922Y-70211040D01*
X31952382Y-70238007D01*
X31962494Y-70268436D01*
X31972375Y-70302401D01*
X31991895Y-70381228D01*
X32011853Y-70475074D01*
X32056734Y-70710158D01*
X32067027Y-70770909D01*
X32074845Y-70829894D01*
X32080141Y-70887169D01*
X32082867Y-70942791D01*
X32082976Y-70996816D01*
X32080420Y-71049300D01*
X32075152Y-71100301D01*
X32067123Y-71149875D01*
X32056287Y-71198078D01*
X32042595Y-71244967D01*
X32026001Y-71290598D01*
X32006457Y-71335029D01*
X31983914Y-71378315D01*
X31958327Y-71420514D01*
X31929646Y-71461682D01*
X31897824Y-71501875D01*
X31862814Y-71541150D01*
X31824569Y-71579564D01*
X31783040Y-71617173D01*
X31738181Y-71654034D01*
X31689943Y-71690203D01*
X31638279Y-71725737D01*
X31583141Y-71760692D01*
X31524482Y-71795126D01*
X31462255Y-71829094D01*
X31396411Y-71862654D01*
X31253684Y-71928773D01*
X31095921Y-71993936D01*
X30922742Y-72058595D01*
X30801635Y-72100522D01*
X30687227Y-72137315D01*
X30578485Y-72169024D01*
X30474377Y-72195699D01*
X30373872Y-72217390D01*
X30275936Y-72234147D01*
X30179539Y-72246019D01*
X30083647Y-72253057D01*
X29987228Y-72255311D01*
X29889251Y-72252829D01*
X29788682Y-72245663D01*
X29684491Y-72233862D01*
X29575645Y-72217476D01*
X29461111Y-72196554D01*
X29339858Y-72171147D01*
X29210852Y-72141305D01*
X29210852Y-72141285D01*
X29016648Y-72092290D01*
X28839158Y-72042502D01*
X28677716Y-71991388D01*
X28531657Y-71938417D01*
X28400315Y-71883057D01*
X28283022Y-71824778D01*
X28179113Y-71763046D01*
X28087922Y-71697331D01*
X28008783Y-71627100D01*
X27973524Y-71590126D01*
X27941029Y-71551823D01*
X27911213Y-71512125D01*
X27883994Y-71470967D01*
X27859288Y-71428280D01*
X27837012Y-71384000D01*
X27799418Y-71290391D01*
X27770544Y-71189609D01*
X27749725Y-71081121D01*
X27736294Y-70964396D01*
X27723217Y-70786593D01*
X27715326Y-70629435D01*
X27713167Y-70492438D01*
X27717281Y-70375120D01*
X27721861Y-70323689D01*
X27728212Y-70276996D01*
X27736404Y-70234982D01*
X27746503Y-70197586D01*
X27758578Y-70164746D01*
X27772696Y-70136404D01*
X27788926Y-70112499D01*
X27807336Y-70092969D01*
X27827992Y-70077756D01*
X27850964Y-70066798D01*
X27876318Y-70060036D01*
X27904124Y-70057408D01*
X27934448Y-70058854D01*
G37*
G36*
X15866284Y-62657177D02*
G01*
X15963751Y-62666513D01*
X16202597Y-62702013D01*
X16353651Y-62729560D01*
X16510958Y-62764737D01*
X16673655Y-62807174D01*
X16840881Y-62856503D01*
X17011771Y-62912352D01*
X17185464Y-62974354D01*
X17361096Y-63042138D01*
X17537804Y-63115335D01*
X17714727Y-63193575D01*
X17891000Y-63276490D01*
X18065761Y-63363708D01*
X18238147Y-63454861D01*
X18407296Y-63549580D01*
X18572344Y-63647494D01*
X18732429Y-63748235D01*
X18886688Y-63851432D01*
X18963572Y-63907199D01*
X19039146Y-63967480D01*
X19113544Y-64032455D01*
X19186904Y-64102308D01*
X19259362Y-64177220D01*
X19331053Y-64257373D01*
X19402113Y-64342948D01*
X19472680Y-64434129D01*
X19542888Y-64531096D01*
X19612875Y-64634032D01*
X19682776Y-64743119D01*
X19752727Y-64858538D01*
X19822865Y-64980472D01*
X19893325Y-65109102D01*
X19964244Y-65244610D01*
X20035758Y-65387179D01*
X20195370Y-65721248D01*
X20262813Y-65871668D01*
X20322665Y-66013643D01*
X20375413Y-66149147D01*
X20421545Y-66280155D01*
X20461548Y-66408640D01*
X20495910Y-66536577D01*
X20525119Y-66665938D01*
X20549662Y-66798699D01*
X20570028Y-66936834D01*
X20586702Y-67082315D01*
X20600174Y-67237118D01*
X20610931Y-67403216D01*
X20626250Y-67777194D01*
X20634311Y-68155842D01*
X20634498Y-68320679D01*
X20631636Y-68471818D01*
X20625359Y-68611229D01*
X20615303Y-68740883D01*
X20601102Y-68862751D01*
X20582391Y-68978803D01*
X20558804Y-69091008D01*
X20529978Y-69201338D01*
X20495546Y-69311763D01*
X20455143Y-69424253D01*
X20408404Y-69540779D01*
X20354964Y-69663311D01*
X20226520Y-69934274D01*
X20127404Y-70129570D01*
X20027098Y-70314125D01*
X19925231Y-70488332D01*
X19821432Y-70652584D01*
X19715330Y-70807276D01*
X19606554Y-70952802D01*
X19494734Y-71089555D01*
X19379498Y-71217929D01*
X19260475Y-71338318D01*
X19137295Y-71451116D01*
X19009587Y-71556717D01*
X18876980Y-71655515D01*
X18739102Y-71747903D01*
X18595584Y-71834275D01*
X18446054Y-71915026D01*
X18290141Y-71990548D01*
X18141520Y-72058058D01*
X18009319Y-72116119D01*
X17892066Y-72164538D01*
X17788288Y-72203120D01*
X17696514Y-72231672D01*
X17654667Y-72242125D01*
X17615269Y-72249999D01*
X17578136Y-72255268D01*
X17543084Y-72257908D01*
X17509928Y-72257895D01*
X17478484Y-72255205D01*
X17448569Y-72249813D01*
X17419998Y-72241695D01*
X17392588Y-72230827D01*
X17366154Y-72217185D01*
X17340512Y-72200744D01*
X17315478Y-72181480D01*
X17290869Y-72159369D01*
X17266499Y-72134387D01*
X17217745Y-72075712D01*
X17167743Y-72005261D01*
X17115020Y-71922839D01*
X17058105Y-71828253D01*
X17058105Y-71828239D01*
X16995810Y-71721876D01*
X16942216Y-71627760D01*
X16897472Y-71545149D01*
X16861730Y-71473298D01*
X16835143Y-71411466D01*
X16825329Y-71384075D01*
X16817860Y-71358910D01*
X16812755Y-71335877D01*
X16810034Y-71314885D01*
X16809714Y-71295840D01*
X16811815Y-71278649D01*
X16816356Y-71263219D01*
X16823355Y-71249459D01*
X16832832Y-71237274D01*
X16844806Y-71226572D01*
X16859295Y-71217259D01*
X16876319Y-71209244D01*
X16895896Y-71202433D01*
X16918045Y-71196733D01*
X16942785Y-71192052D01*
X16970135Y-71188296D01*
X17032741Y-71183190D01*
X17106014Y-71180671D01*
X17190106Y-71179996D01*
X17265279Y-71178020D01*
X17340824Y-71172131D01*
X17416661Y-71162393D01*
X17492708Y-71148869D01*
X17568885Y-71131620D01*
X17645111Y-71110709D01*
X17721306Y-71086198D01*
X17797387Y-71058151D01*
X17948890Y-70991696D01*
X18098974Y-70911844D01*
X18246991Y-70819094D01*
X18392296Y-70713947D01*
X18534243Y-70596901D01*
X18672184Y-70468458D01*
X18805474Y-70329117D01*
X18933466Y-70179378D01*
X19055515Y-70019741D01*
X19170973Y-69850706D01*
X19279194Y-69672773D01*
X19379532Y-69486442D01*
X19453766Y-69323841D01*
X19515800Y-69154856D01*
X19565925Y-68980146D01*
X19604428Y-68800367D01*
X19631600Y-68616180D01*
X19647728Y-68428240D01*
X19653102Y-68237208D01*
X19648011Y-68043740D01*
X19632744Y-67848496D01*
X19607590Y-67652133D01*
X19528777Y-67258685D01*
X19413884Y-66868660D01*
X19265224Y-66487324D01*
X19085107Y-66119944D01*
X18875848Y-65771783D01*
X18639757Y-65448108D01*
X18512372Y-65297099D01*
X18379147Y-65154185D01*
X18240370Y-65020026D01*
X18096330Y-64895279D01*
X17947316Y-64780602D01*
X17793618Y-64676654D01*
X17635524Y-64584094D01*
X17473323Y-64503578D01*
X17307305Y-64435766D01*
X17137758Y-64381315D01*
X16998941Y-64344375D01*
X16866239Y-64312415D01*
X16739371Y-64285438D01*
X16618058Y-64263444D01*
X16502019Y-64246435D01*
X16390975Y-64234411D01*
X16284646Y-64227374D01*
X16182751Y-64225326D01*
X16085012Y-64228267D01*
X15991148Y-64236200D01*
X15900879Y-64249124D01*
X15813925Y-64267042D01*
X15730006Y-64289954D01*
X15648843Y-64317863D01*
X15570156Y-64350769D01*
X15493663Y-64388673D01*
X15439423Y-64417231D01*
X15391890Y-64440727D01*
X15370553Y-64450373D01*
X15350790Y-64458510D01*
X15332568Y-64465057D01*
X15315853Y-64469932D01*
X15300610Y-64473054D01*
X15286806Y-64474343D01*
X15274407Y-64473716D01*
X15263377Y-64471092D01*
X15253685Y-64466391D01*
X15245295Y-64459531D01*
X15238173Y-64450430D01*
X15232286Y-64439009D01*
X15227599Y-64425185D01*
X15224079Y-64408877D01*
X15221691Y-64390004D01*
X15220401Y-64368485D01*
X15220176Y-64344238D01*
X15220982Y-64317183D01*
X15222784Y-64287239D01*
X15225548Y-64254323D01*
X15233828Y-64179253D01*
X15245549Y-64091325D01*
X15260439Y-63989888D01*
X15278227Y-63874293D01*
X15345816Y-63450173D01*
X15376004Y-63278945D01*
X15405581Y-63132663D01*
X15435893Y-63009621D01*
X15468285Y-62908113D01*
X15485681Y-62864901D01*
X15504102Y-62826432D01*
X15523715Y-62792494D01*
X15544690Y-62762873D01*
X15567194Y-62737356D01*
X15591395Y-62715729D01*
X15617461Y-62697779D01*
X15645561Y-62683293D01*
X15675862Y-62672058D01*
X15708534Y-62663860D01*
X15743744Y-62658486D01*
X15781660Y-62655723D01*
X15866284Y-62657177D01*
G37*
G36*
X22547945Y-70189884D02*
G01*
X22591295Y-70221456D01*
X22642509Y-70254320D01*
X22700935Y-70288214D01*
X22765920Y-70322874D01*
X22836812Y-70358038D01*
X22912960Y-70393443D01*
X22993710Y-70428825D01*
X23078412Y-70463922D01*
X23166411Y-70498471D01*
X23257057Y-70532209D01*
X23349698Y-70564873D01*
X23443680Y-70596200D01*
X23538351Y-70625926D01*
X23633061Y-70653790D01*
X23727156Y-70679528D01*
X23819983Y-70702877D01*
X24100361Y-70767513D01*
X24220627Y-70792146D01*
X24330260Y-70811456D01*
X24431248Y-70825294D01*
X24525580Y-70833510D01*
X24615241Y-70835955D01*
X24702219Y-70832480D01*
X24788503Y-70822935D01*
X24876079Y-70807170D01*
X24966935Y-70785037D01*
X25063059Y-70756385D01*
X25166438Y-70721066D01*
X25279058Y-70678930D01*
X25539977Y-70573610D01*
X25708865Y-70504663D01*
X25871327Y-70440342D01*
X26023457Y-70382054D01*
X26161348Y-70331208D01*
X26281095Y-70289210D01*
X26378791Y-70257469D01*
X26450530Y-70237392D01*
X26475446Y-70232168D01*
X26492408Y-70230387D01*
X26498715Y-70231351D01*
X26504818Y-70234212D01*
X26510711Y-70238922D01*
X26516390Y-70245434D01*
X26521849Y-70253700D01*
X26527084Y-70263675D01*
X26532090Y-70275309D01*
X26536862Y-70288557D01*
X26545684Y-70319703D01*
X26553511Y-70356735D01*
X26560305Y-70399273D01*
X26566026Y-70446942D01*
X26570635Y-70499361D01*
X26574094Y-70556155D01*
X26576362Y-70616944D01*
X26577402Y-70681350D01*
X26577174Y-70748997D01*
X26575639Y-70819505D01*
X26572758Y-70892496D01*
X26568492Y-70967594D01*
X26560044Y-71085487D01*
X26550576Y-71191306D01*
X26539473Y-71286095D01*
X26526117Y-71370898D01*
X26509896Y-71446759D01*
X26490192Y-71514721D01*
X26478843Y-71546067D01*
X26466392Y-71575829D01*
X26452763Y-71604139D01*
X26437879Y-71631127D01*
X26421663Y-71656923D01*
X26404039Y-71681657D01*
X26384928Y-71705461D01*
X26364255Y-71728464D01*
X26341943Y-71750798D01*
X26317913Y-71772592D01*
X26264398Y-71815085D01*
X26203094Y-71856986D01*
X26133386Y-71899339D01*
X26054659Y-71943188D01*
X25966297Y-71989576D01*
X25848826Y-72045799D01*
X25721868Y-72098955D01*
X25587138Y-72148740D01*
X25446352Y-72194853D01*
X25301224Y-72236993D01*
X25153469Y-72274856D01*
X25004803Y-72308141D01*
X24856941Y-72336547D01*
X24711597Y-72359770D01*
X24570488Y-72377509D01*
X24435327Y-72389462D01*
X24307830Y-72395326D01*
X24189712Y-72394801D01*
X24082688Y-72387583D01*
X23988473Y-72373370D01*
X23908783Y-72351862D01*
X23908773Y-72351857D01*
X23845738Y-72328277D01*
X23757270Y-72293109D01*
X23520264Y-72194852D01*
X23230214Y-72070774D01*
X22919580Y-71934562D01*
X22167784Y-71600704D01*
X22167784Y-69890856D01*
X22547945Y-70189884D01*
G37*
G36*
X39902284Y-63745592D02*
G01*
X40053973Y-63757927D01*
X40436388Y-63803389D01*
X40893020Y-63871037D01*
X41386468Y-63954224D01*
X41879334Y-64046303D01*
X42334217Y-64140628D01*
X42713720Y-64230553D01*
X42863515Y-64271788D01*
X42980441Y-64309430D01*
X43116414Y-64366092D01*
X43271045Y-64443949D01*
X43440548Y-64540044D01*
X43621138Y-64651419D01*
X43809030Y-64775115D01*
X44000441Y-64908176D01*
X44191585Y-65047642D01*
X44378677Y-65190556D01*
X44557933Y-65333960D01*
X44725567Y-65474896D01*
X44877796Y-65610405D01*
X45010833Y-65737531D01*
X45120895Y-65853315D01*
X45204197Y-65954798D01*
X45256953Y-66039024D01*
X45270695Y-66073741D01*
X45275380Y-66103033D01*
X45267048Y-66206545D01*
X45243304Y-66360394D01*
X45157103Y-66789903D01*
X45031821Y-67333166D01*
X44882502Y-67931785D01*
X44724188Y-68527365D01*
X44571923Y-69061508D01*
X44440750Y-69475819D01*
X44387774Y-69619788D01*
X44345712Y-69711901D01*
X44333198Y-69733445D01*
X44320989Y-69753092D01*
X44309031Y-69770790D01*
X44297273Y-69786488D01*
X44285664Y-69800132D01*
X44274152Y-69811671D01*
X44262684Y-69821052D01*
X44251209Y-69828223D01*
X44245453Y-69830964D01*
X44239675Y-69833132D01*
X44233870Y-69834722D01*
X44228030Y-69835727D01*
X44222150Y-69836141D01*
X44216223Y-69835956D01*
X44210242Y-69835166D01*
X44204201Y-69833765D01*
X44198093Y-69831747D01*
X44191912Y-69829104D01*
X44185652Y-69825830D01*
X44179305Y-69821919D01*
X44166328Y-69812159D01*
X44152929Y-69799772D01*
X44139056Y-69784704D01*
X44124658Y-69766905D01*
X44109681Y-69746322D01*
X44094076Y-69722902D01*
X44077789Y-69696593D01*
X44060769Y-69667343D01*
X44042964Y-69635101D01*
X44024322Y-69599813D01*
X44004791Y-69561427D01*
X43984320Y-69519892D01*
X43940348Y-69427164D01*
X43891992Y-69321210D01*
X43838837Y-69201613D01*
X43723081Y-68948277D01*
X43602492Y-68703186D01*
X43477335Y-68466674D01*
X43347878Y-68239079D01*
X43214386Y-68020735D01*
X43077128Y-67811979D01*
X42936368Y-67613146D01*
X42792375Y-67424573D01*
X42645414Y-67246596D01*
X42495753Y-67079549D01*
X42343658Y-66923770D01*
X42189395Y-66779593D01*
X42033232Y-66647356D01*
X41875435Y-66527393D01*
X41716270Y-66420041D01*
X41556005Y-66325636D01*
X41437905Y-66262654D01*
X41324194Y-66205451D01*
X41213490Y-66153709D01*
X41104412Y-66107108D01*
X40995578Y-66065330D01*
X40885606Y-66028057D01*
X40773115Y-65994970D01*
X40656723Y-65965751D01*
X40535048Y-65940081D01*
X40406709Y-65917641D01*
X40270323Y-65898113D01*
X40124509Y-65881179D01*
X39967886Y-65866519D01*
X39799072Y-65853816D01*
X39616685Y-65842750D01*
X39419342Y-65833004D01*
X38986404Y-65815366D01*
X38806606Y-65810515D01*
X38647753Y-65809059D01*
X38507220Y-65811562D01*
X38382377Y-65818586D01*
X38270600Y-65830693D01*
X38169261Y-65848447D01*
X38075734Y-65872409D01*
X37987390Y-65903142D01*
X37901605Y-65941209D01*
X37815751Y-65987173D01*
X37727200Y-66041596D01*
X37633327Y-66105041D01*
X37419106Y-66261246D01*
X37266833Y-66380822D01*
X37125301Y-66504624D01*
X36994249Y-66633203D01*
X36873417Y-66767107D01*
X36816753Y-66836228D01*
X36762545Y-66906886D01*
X36710763Y-66979150D01*
X36661373Y-67053089D01*
X36614342Y-67128772D01*
X36569639Y-67206266D01*
X36527230Y-67285642D01*
X36487083Y-67366967D01*
X36449166Y-67450309D01*
X36413445Y-67535739D01*
X36348465Y-67713133D01*
X36291882Y-67899699D01*
X36243435Y-68095985D01*
X36202865Y-68302541D01*
X36169911Y-68519917D01*
X36144311Y-68748661D01*
X36125807Y-68989323D01*
X36115404Y-69209949D01*
X36111773Y-69421299D01*
X36115038Y-69623836D01*
X36125323Y-69818024D01*
X36142752Y-70004326D01*
X36167449Y-70183206D01*
X36199537Y-70355127D01*
X36239140Y-70520554D01*
X36286383Y-70679949D01*
X36341388Y-70833777D01*
X36404280Y-70982501D01*
X36475182Y-71126584D01*
X36554219Y-71266491D01*
X36641514Y-71402685D01*
X36737191Y-71535629D01*
X36841374Y-71665787D01*
X36930772Y-71766542D01*
X37025606Y-71863040D01*
X37125479Y-71955202D01*
X37229999Y-72042948D01*
X37338771Y-72126201D01*
X37451400Y-72204881D01*
X37686657Y-72348206D01*
X37932615Y-72472293D01*
X38186121Y-72576510D01*
X38444022Y-72660225D01*
X38703164Y-72722807D01*
X38960396Y-72763625D01*
X39212562Y-72782047D01*
X39335760Y-72782663D01*
X39456510Y-72777442D01*
X39574417Y-72766307D01*
X39689086Y-72749179D01*
X39800125Y-72725978D01*
X39907138Y-72696625D01*
X40009732Y-72661042D01*
X40107512Y-72619150D01*
X40200084Y-72570870D01*
X40287054Y-72516123D01*
X40368028Y-72454829D01*
X40442611Y-72386910D01*
X40501571Y-72323260D01*
X40557199Y-72253778D01*
X40609479Y-72178808D01*
X40658394Y-72098694D01*
X40703929Y-72013779D01*
X40746067Y-71924407D01*
X40820087Y-71733672D01*
X40880323Y-71529237D01*
X40926645Y-71313856D01*
X40958921Y-71090279D01*
X40977021Y-70861257D01*
X40980814Y-70629543D01*
X40970170Y-70397887D01*
X40944958Y-70169041D01*
X40905047Y-69945757D01*
X40850306Y-69730785D01*
X40780605Y-69526877D01*
X40740104Y-69429931D01*
X40695813Y-69336784D01*
X40647718Y-69247778D01*
X40595800Y-69163258D01*
X40534676Y-69075924D01*
X40470713Y-68995792D01*
X40404224Y-68922791D01*
X40335522Y-68856846D01*
X40264921Y-68797887D01*
X40192735Y-68745841D01*
X40119276Y-68700634D01*
X40044859Y-68662196D01*
X39969797Y-68630452D01*
X39894403Y-68605331D01*
X39818991Y-68586761D01*
X39743874Y-68574668D01*
X39669366Y-68568981D01*
X39595779Y-68569626D01*
X39523429Y-68576532D01*
X39452627Y-68589626D01*
X39383688Y-68608835D01*
X39316925Y-68634088D01*
X39252651Y-68665311D01*
X39191180Y-68702432D01*
X39132825Y-68745379D01*
X39077900Y-68794079D01*
X39026719Y-68848460D01*
X38979594Y-68908449D01*
X38936839Y-68973974D01*
X38898768Y-69044962D01*
X38865694Y-69121341D01*
X38837931Y-69203039D01*
X38815791Y-69289982D01*
X38799589Y-69382099D01*
X38789638Y-69479317D01*
X38786252Y-69581564D01*
X38790295Y-69720451D01*
X38802201Y-69849289D01*
X38810997Y-69909833D01*
X38821632Y-69967738D01*
X38834065Y-70022960D01*
X38848253Y-70075458D01*
X38864154Y-70125189D01*
X38881726Y-70172110D01*
X38900927Y-70216180D01*
X38921714Y-70257355D01*
X38944047Y-70295594D01*
X38967882Y-70330854D01*
X38993177Y-70363092D01*
X39019891Y-70392266D01*
X39047981Y-70418333D01*
X39077406Y-70441252D01*
X39108123Y-70460979D01*
X39140090Y-70477473D01*
X39173265Y-70490691D01*
X39207606Y-70500590D01*
X39243070Y-70507128D01*
X39279617Y-70510263D01*
X39317203Y-70509952D01*
X39355786Y-70506152D01*
X39395326Y-70498822D01*
X39435778Y-70487919D01*
X39477102Y-70473400D01*
X39519255Y-70455223D01*
X39562195Y-70433346D01*
X39605881Y-70407726D01*
X39644198Y-70384449D01*
X39680785Y-70363552D01*
X39715641Y-70345033D01*
X39748762Y-70328887D01*
X39780145Y-70315111D01*
X39809788Y-70303703D01*
X39837687Y-70294658D01*
X39863840Y-70287974D01*
X39888244Y-70283647D01*
X39910897Y-70281673D01*
X39931795Y-70282050D01*
X39950935Y-70284774D01*
X39968315Y-70289841D01*
X39983932Y-70297249D01*
X39997783Y-70306994D01*
X40009865Y-70319073D01*
X40020176Y-70333482D01*
X40028712Y-70350218D01*
X40035471Y-70369278D01*
X40040450Y-70390658D01*
X40043647Y-70414355D01*
X40045057Y-70440365D01*
X40044679Y-70468686D01*
X40042510Y-70499314D01*
X40038546Y-70532246D01*
X40032786Y-70567478D01*
X40025226Y-70605006D01*
X40015863Y-70644829D01*
X40004695Y-70686942D01*
X39991718Y-70731342D01*
X39960329Y-70826989D01*
X39938513Y-70883363D01*
X39913709Y-70936398D01*
X39886029Y-70986085D01*
X39855583Y-71032417D01*
X39822483Y-71075386D01*
X39786842Y-71114985D01*
X39748770Y-71151206D01*
X39708380Y-71184042D01*
X39665782Y-71213485D01*
X39621089Y-71239527D01*
X39574412Y-71262162D01*
X39525863Y-71281381D01*
X39475552Y-71297178D01*
X39423593Y-71309544D01*
X39370096Y-71318471D01*
X39315173Y-71323953D01*
X39258936Y-71325982D01*
X39201496Y-71324550D01*
X39142964Y-71319650D01*
X39083454Y-71311275D01*
X39023075Y-71299416D01*
X38961940Y-71284066D01*
X38900160Y-71265217D01*
X38837847Y-71242863D01*
X38775112Y-71216995D01*
X38712067Y-71187606D01*
X38648824Y-71154689D01*
X38585494Y-71118236D01*
X38522189Y-71078239D01*
X38459021Y-71034691D01*
X38396100Y-70987584D01*
X38333539Y-70936910D01*
X38256830Y-70871064D01*
X38188266Y-70809017D01*
X38127405Y-70749715D01*
X38099726Y-70720765D01*
X38073808Y-70692105D01*
X38049595Y-70663605D01*
X38027032Y-70635132D01*
X38006065Y-70606554D01*
X37986638Y-70577741D01*
X37968696Y-70548560D01*
X37952183Y-70518879D01*
X37937046Y-70488566D01*
X37923228Y-70457491D01*
X37910674Y-70425520D01*
X37899330Y-70392523D01*
X37889140Y-70358367D01*
X37880049Y-70322921D01*
X37872003Y-70286052D01*
X37864945Y-70247630D01*
X37858821Y-70207522D01*
X37853576Y-70165597D01*
X37845500Y-70075766D01*
X37840278Y-69977085D01*
X37837469Y-69868498D01*
X37836630Y-69748951D01*
X37843616Y-69496271D01*
X37864645Y-69260728D01*
X37880458Y-69149348D01*
X37899820Y-69042209D01*
X37922745Y-68939297D01*
X37949247Y-68840598D01*
X37979337Y-68746097D01*
X38013029Y-68655779D01*
X38050335Y-68569631D01*
X38091270Y-68487637D01*
X38135847Y-68409784D01*
X38184077Y-68336057D01*
X38235974Y-68266441D01*
X38291552Y-68200922D01*
X38350823Y-68139486D01*
X38413801Y-68082118D01*
X38480498Y-68028804D01*
X38550927Y-67979529D01*
X38625102Y-67934280D01*
X38703036Y-67893040D01*
X38784741Y-67855797D01*
X38870231Y-67822535D01*
X38959519Y-67793241D01*
X39052617Y-67767899D01*
X39149540Y-67746496D01*
X39250299Y-67729016D01*
X39354908Y-67715446D01*
X39463381Y-67705771D01*
X39691967Y-67698048D01*
X39900591Y-67710263D01*
X40100211Y-67746036D01*
X40290588Y-67804056D01*
X40471481Y-67883015D01*
X40642651Y-67981602D01*
X40803858Y-68098508D01*
X40954863Y-68232423D01*
X41095426Y-68382038D01*
X41225308Y-68546044D01*
X41344267Y-68723130D01*
X41452066Y-68911987D01*
X41548464Y-69111305D01*
X41633222Y-69319775D01*
X41706099Y-69536087D01*
X41766857Y-69758932D01*
X41815255Y-69987000D01*
X41851054Y-70218981D01*
X41874014Y-70453567D01*
X41883896Y-70689446D01*
X41880459Y-70925310D01*
X41863465Y-71159849D01*
X41832673Y-71391753D01*
X41787844Y-71619714D01*
X41728737Y-71842420D01*
X41655115Y-72058563D01*
X41566736Y-72266833D01*
X41463361Y-72465921D01*
X41344750Y-72654516D01*
X41210664Y-72831310D01*
X41060864Y-72994992D01*
X40895108Y-73144254D01*
X40713158Y-73277784D01*
X40578664Y-73363832D01*
X40449407Y-73441096D01*
X40324511Y-73509761D01*
X40203098Y-73570014D01*
X40084291Y-73622040D01*
X39967211Y-73666027D01*
X39850981Y-73702158D01*
X39734724Y-73730621D01*
X39617561Y-73751602D01*
X39498615Y-73765286D01*
X39377008Y-73771859D01*
X39251864Y-73771507D01*
X39122303Y-73764417D01*
X38987449Y-73750773D01*
X38846423Y-73730763D01*
X38698349Y-73704572D01*
X38698344Y-73704572D01*
X38483722Y-73658444D01*
X38274612Y-73603766D01*
X38071099Y-73540657D01*
X37873270Y-73469235D01*
X37681209Y-73389617D01*
X37495002Y-73301922D01*
X37314733Y-73206267D01*
X37140489Y-73102770D01*
X36972355Y-72991551D01*
X36810415Y-72872725D01*
X36654756Y-72746412D01*
X36505462Y-72612730D01*
X36362619Y-72471796D01*
X36226313Y-72323729D01*
X36096628Y-72168646D01*
X35973649Y-72006665D01*
X35857463Y-71837905D01*
X35748155Y-71662483D01*
X35645809Y-71480518D01*
X35550512Y-71292127D01*
X35462348Y-71097429D01*
X35381403Y-70896541D01*
X35307761Y-70689581D01*
X35241510Y-70476668D01*
X35182733Y-70257919D01*
X35131516Y-70033452D01*
X35087945Y-69803386D01*
X35052104Y-69567838D01*
X35024080Y-69326926D01*
X35003956Y-69080769D01*
X34991820Y-68829484D01*
X34987756Y-68573190D01*
X34991904Y-68243178D01*
X34997603Y-68095551D01*
X35006175Y-67957494D01*
X35017962Y-67827495D01*
X35033308Y-67704040D01*
X35052554Y-67585618D01*
X35076043Y-67470716D01*
X35104118Y-67357821D01*
X35137121Y-67245421D01*
X35175394Y-67132004D01*
X35219280Y-67016057D01*
X35269121Y-66896067D01*
X35325260Y-66770523D01*
X35457802Y-66496720D01*
X35538897Y-66342090D01*
X35624941Y-66190951D01*
X35715789Y-66043395D01*
X35811293Y-65899516D01*
X35911308Y-65759406D01*
X36015688Y-65623159D01*
X36124288Y-65490867D01*
X36236959Y-65362624D01*
X36353558Y-65238522D01*
X36473937Y-65118656D01*
X36597951Y-65003117D01*
X36725453Y-64891998D01*
X36856298Y-64785394D01*
X36990339Y-64683396D01*
X37127431Y-64586099D01*
X37267427Y-64493594D01*
X37410181Y-64405976D01*
X37555548Y-64323337D01*
X37703381Y-64245769D01*
X37853534Y-64173367D01*
X38005861Y-64106223D01*
X38160215Y-64044431D01*
X38316452Y-63988082D01*
X38474425Y-63937272D01*
X38633988Y-63892091D01*
X38794994Y-63852634D01*
X38957298Y-63818994D01*
X39120754Y-63791263D01*
X39285216Y-63769534D01*
X39450537Y-63753902D01*
X39616571Y-63744458D01*
X39783173Y-63741295D01*
X39902284Y-63745592D01*
G37*
D11*
%TO.C,REF\u002A\u002A*%
X11350000Y-82200000D03*
%TD*%
D12*
%TO.C,REF\u002A\u002A*%
X52350000Y-9150000D03*
%TD*%
D11*
%TO.C,REF\u002A\u002A*%
X17300000Y-16700000D03*
%TD*%
D12*
%TO.C,REF\u002A\u002A*%
X22640000Y-78290000D03*
%TD*%
%TO.C,*%
X52500000Y-80300000D03*
%TD*%
%TO.C,REF\u002A\u002A*%
X24880000Y-20410000D03*
%TD*%
%TO.C,*%
X52500000Y-81150000D03*
%TD*%
%TO.C,REF\u002A\u002A*%
X25680000Y-20420000D03*
%TD*%
D11*
%TO.C,REF\u002A\u002A*%
X54350000Y-82250000D03*
%TD*%
D12*
%TO.C,REF\u002A\u002A*%
X21840000Y-78240000D03*
%TD*%
%TO.C,REF\u002A\u002A*%
X20240000Y-78040000D03*
%TD*%
%TO.C,*%
X13450000Y-8300000D03*
%TD*%
%TO.C,REF\u002A\u002A*%
X21040000Y-78140000D03*
%TD*%
%TO.C,*%
X13400000Y-82800000D03*
%TD*%
D11*
%TO.C,REF\u002A\u002A*%
X11550000Y-9750000D03*
%TD*%
D12*
%TO.C,*%
X13450000Y-10000000D03*
%TD*%
%TO.C,REF\u002A\u002A*%
X52350000Y-11700000D03*
%TD*%
%TO.C,REF\u002A\u002A*%
X26480000Y-20420000D03*
%TD*%
%TO.C,*%
X13400000Y-80250000D03*
%TD*%
%TO.C,*%
X52500000Y-83700000D03*
%TD*%
%TO.C,*%
X52500000Y-82000000D03*
%TD*%
%TO.C,*%
X13400000Y-81100000D03*
%TD*%
%TO.C,REF\u002A\u002A*%
X27280000Y-20420000D03*
%TD*%
%TO.C,*%
X13400000Y-81950000D03*
%TD*%
%TO.C,REF\u002A\u002A*%
X52350000Y-10000000D03*
%TD*%
D11*
%TO.C,REF\u002A\u002A*%
X54250000Y-9600000D03*
%TD*%
D12*
%TO.C,REF\u002A\u002A*%
X52350000Y-10850000D03*
%TD*%
%TO.C,*%
X52500000Y-82850000D03*
%TD*%
%TO.C,*%
X13400000Y-83650000D03*
%TD*%
%TO.C,*%
X13450000Y-10850000D03*
%TD*%
%TO.C,REF\u002A\u002A*%
X52350000Y-8300000D03*
%TD*%
%TO.C,*%
X13450000Y-11700000D03*
%TD*%
%TO.C,*%
X13450000Y-9150000D03*
%TD*%
M02*
