%TF.GenerationSoftware,KiCad,Pcbnew,8.0.4*%
%TF.CreationDate,2024-08-14T00:32:59+03:00*%
%TF.ProjectId,purrChesh,70757272-4368-4657-9368-2e6b69636164,rev?*%
%TF.SameCoordinates,Original*%
%TF.FileFunction,Legend,Top*%
%TF.FilePolarity,Positive*%
%FSLAX46Y46*%
G04 Gerber Fmt 4.6, Leading zero omitted, Abs format (unit mm)*
G04 Created by KiCad (PCBNEW 8.0.4) date 2024-08-14 00:32:59*
%MOMM*%
%LPD*%
G01*
G04 APERTURE LIST*
%ADD10C,0.000000*%
G04 APERTURE END LIST*
D10*
G36*
X35110928Y-16926691D02*
G01*
X35168759Y-16943058D01*
X35221766Y-16969539D01*
X35270394Y-17006868D01*
X35315091Y-17055778D01*
X35356304Y-17117006D01*
X35394479Y-17191284D01*
X35430064Y-17279348D01*
X35463505Y-17381931D01*
X35495249Y-17499769D01*
X35525743Y-17633596D01*
X35555435Y-17784147D01*
X35584770Y-17952155D01*
X35644161Y-18343482D01*
X35689718Y-18728450D01*
X35720917Y-19131800D01*
X35738313Y-19548867D01*
X35742459Y-19974985D01*
X35733912Y-20405489D01*
X35713224Y-20835714D01*
X35680952Y-21260993D01*
X35637649Y-21676662D01*
X35583870Y-22078055D01*
X35520170Y-22460507D01*
X35447103Y-22819352D01*
X35365225Y-23149925D01*
X35275089Y-23447560D01*
X35177250Y-23707592D01*
X35072264Y-23925356D01*
X35017263Y-24016929D01*
X34960684Y-24096186D01*
X34927367Y-24137146D01*
X34892830Y-24176957D01*
X34857343Y-24215410D01*
X34821175Y-24252302D01*
X34784598Y-24287425D01*
X34747882Y-24320574D01*
X34711297Y-24351544D01*
X34675113Y-24380128D01*
X34639602Y-24406119D01*
X34605033Y-24429314D01*
X34571676Y-24449505D01*
X34539803Y-24466486D01*
X34509683Y-24480052D01*
X34481588Y-24489998D01*
X34468383Y-24493548D01*
X34455786Y-24496116D01*
X34443830Y-24497675D01*
X34432549Y-24498201D01*
X34406157Y-24494475D01*
X34371099Y-24483544D01*
X34327957Y-24465776D01*
X34277313Y-24441539D01*
X34155852Y-24375131D01*
X34011375Y-24287268D01*
X33848544Y-24180895D01*
X33672018Y-24058959D01*
X33486458Y-23924407D01*
X33296524Y-23780184D01*
X32891469Y-23470859D01*
X32471622Y-23159349D01*
X32086555Y-22881901D01*
X31922554Y-22767278D01*
X31785838Y-22674762D01*
X31597667Y-22542189D01*
X31432277Y-22407768D01*
X31358101Y-22339658D01*
X31289591Y-22270838D01*
X31226737Y-22201227D01*
X31169530Y-22130742D01*
X31117959Y-22059300D01*
X31072016Y-21986818D01*
X31031690Y-21913215D01*
X30996972Y-21838408D01*
X30967852Y-21762314D01*
X30944319Y-21684852D01*
X30926366Y-21605938D01*
X30913980Y-21525490D01*
X30907154Y-21443425D01*
X30905877Y-21359662D01*
X30910139Y-21274118D01*
X30919931Y-21186710D01*
X30935243Y-21097356D01*
X30956065Y-21005973D01*
X30982387Y-20912480D01*
X31014200Y-20816792D01*
X31051494Y-20718829D01*
X31094259Y-20618508D01*
X31196164Y-20410460D01*
X31319837Y-20191989D01*
X31465199Y-19962436D01*
X31586041Y-19796067D01*
X31742780Y-19604920D01*
X31930223Y-19393686D01*
X32143176Y-19167055D01*
X32376444Y-18929716D01*
X32624834Y-18686360D01*
X32883151Y-18441676D01*
X33146201Y-18200354D01*
X33408790Y-17967084D01*
X33665724Y-17746555D01*
X33911808Y-17543457D01*
X34141850Y-17362481D01*
X34350653Y-17208316D01*
X34533025Y-17085651D01*
X34683772Y-16999178D01*
X34745662Y-16970978D01*
X34797698Y-16953584D01*
X34822296Y-16947593D01*
X34846325Y-16942145D01*
X34869792Y-16937248D01*
X34892707Y-16932912D01*
X34915078Y-16929147D01*
X34936912Y-16925963D01*
X34958217Y-16923369D01*
X34979002Y-16921375D01*
X34979002Y-16921357D01*
X35047824Y-16919702D01*
X35110928Y-16926691D01*
G37*
G36*
X38761235Y-42990433D02*
G01*
X38852246Y-42995423D01*
X38940960Y-43003383D01*
X39027074Y-43013883D01*
X39110287Y-43026496D01*
X39190299Y-43040795D01*
X39339513Y-43072738D01*
X39325851Y-43247369D01*
X39313215Y-43434410D01*
X39301492Y-43638434D01*
X39290570Y-43864013D01*
X39274288Y-44319047D01*
X39269478Y-44721256D01*
X39271753Y-44906833D01*
X39277350Y-45084344D01*
X39286420Y-45255501D01*
X39299115Y-45422017D01*
X39315585Y-45585605D01*
X39335983Y-45747979D01*
X39360459Y-45910851D01*
X39389165Y-46075935D01*
X39422251Y-46244943D01*
X39459870Y-46419590D01*
X39549311Y-46792648D01*
X39644950Y-47144708D01*
X39755158Y-47503472D01*
X39878884Y-47866880D01*
X40015080Y-48232873D01*
X40162697Y-48599392D01*
X40320687Y-48964380D01*
X40488000Y-49325776D01*
X40663587Y-49681523D01*
X40846400Y-50029560D01*
X41035390Y-50367830D01*
X41229507Y-50694273D01*
X41427704Y-51006831D01*
X41628931Y-51303445D01*
X41832138Y-51582056D01*
X42036278Y-51840604D01*
X42240302Y-52077033D01*
X42489740Y-52358382D01*
X42731858Y-52643843D01*
X42966590Y-52933308D01*
X43193868Y-53226668D01*
X43413624Y-53523817D01*
X43625791Y-53824645D01*
X43830302Y-54129046D01*
X44027089Y-54436910D01*
X44216084Y-54748130D01*
X44397221Y-55062598D01*
X44570431Y-55380206D01*
X44735648Y-55700846D01*
X44892803Y-56024410D01*
X45041829Y-56350790D01*
X45182660Y-56679878D01*
X45315226Y-57011566D01*
X45601698Y-57758280D01*
X45820169Y-58349276D01*
X45907719Y-58602232D01*
X45982847Y-58835280D01*
X46047077Y-59054761D01*
X46101937Y-59267014D01*
X46148952Y-59478381D01*
X46189648Y-59695202D01*
X46225551Y-59923817D01*
X46258187Y-60170567D01*
X46319761Y-60743832D01*
X46386576Y-61465721D01*
X46434650Y-62079180D01*
X46465942Y-62674023D01*
X46480127Y-63252235D01*
X46476876Y-63815804D01*
X46455865Y-64366714D01*
X46416766Y-64906953D01*
X46359252Y-65438506D01*
X46282998Y-65963360D01*
X46187676Y-66483501D01*
X46072961Y-67000914D01*
X45938525Y-67517587D01*
X45784043Y-68035505D01*
X45609187Y-68556655D01*
X45413631Y-69083022D01*
X45197048Y-69616593D01*
X44959113Y-70159354D01*
X44878985Y-70329085D01*
X44795390Y-70493390D01*
X44709210Y-70651199D01*
X44621327Y-70801439D01*
X44532623Y-70943038D01*
X44443980Y-71074924D01*
X44356280Y-71196024D01*
X44270405Y-71305267D01*
X44228428Y-71355106D01*
X44187237Y-71401579D01*
X44146944Y-71444552D01*
X44107658Y-71483890D01*
X44069490Y-71519460D01*
X44032549Y-71551127D01*
X43996947Y-71578757D01*
X43962793Y-71602217D01*
X43930198Y-71621372D01*
X43899272Y-71636089D01*
X43870125Y-71646232D01*
X43842868Y-71651670D01*
X43817610Y-71652266D01*
X43794461Y-71647888D01*
X43773533Y-71638401D01*
X43754936Y-71623671D01*
X43748603Y-71606813D01*
X43748046Y-71575377D01*
X43753029Y-71530167D01*
X43763316Y-71471988D01*
X43798860Y-71319937D01*
X43852792Y-71125662D01*
X43923225Y-70895597D01*
X44008273Y-70636178D01*
X44106050Y-70353842D01*
X44214670Y-70055023D01*
X44538705Y-69151540D01*
X44675473Y-68739038D01*
X44796565Y-68345659D01*
X44902848Y-67966125D01*
X44995189Y-67595157D01*
X45074455Y-67227478D01*
X45141514Y-66857810D01*
X45197233Y-66480875D01*
X45242479Y-66091395D01*
X45278119Y-65684092D01*
X45305021Y-65253687D01*
X45336079Y-64302464D01*
X45342590Y-63195502D01*
X45337122Y-62434683D01*
X45324746Y-61774607D01*
X45304464Y-61201522D01*
X45275278Y-60701674D01*
X45257035Y-60474915D01*
X45236191Y-60261309D01*
X45212622Y-60059135D01*
X45186204Y-59866675D01*
X45156812Y-59682208D01*
X45124321Y-59504017D01*
X45088606Y-59330382D01*
X45049543Y-59159584D01*
X44972378Y-58864540D01*
X44879439Y-58554962D01*
X44772074Y-58233633D01*
X44651627Y-57903334D01*
X44519445Y-57566850D01*
X44376874Y-57226962D01*
X44225261Y-56886454D01*
X44065951Y-56548108D01*
X43900291Y-56214706D01*
X43729626Y-55889032D01*
X43555304Y-55573869D01*
X43378670Y-55271998D01*
X43201071Y-54986204D01*
X43023852Y-54719268D01*
X42848360Y-54473973D01*
X42675942Y-54253102D01*
X42275360Y-53739788D01*
X41804925Y-53097543D01*
X41299143Y-52377965D01*
X40792521Y-51632647D01*
X40319566Y-50913187D01*
X39914783Y-50271181D01*
X39612680Y-49758224D01*
X39510916Y-49566262D01*
X39447763Y-49425912D01*
X39314574Y-49037905D01*
X39160473Y-48530827D01*
X38993201Y-47934855D01*
X38820495Y-47280166D01*
X38650096Y-46596937D01*
X38489741Y-45915345D01*
X38347171Y-45265568D01*
X38230124Y-44677782D01*
X38191451Y-44475395D01*
X38151525Y-44276882D01*
X38068107Y-43890234D01*
X37980264Y-43515341D01*
X37888390Y-43149706D01*
X37888417Y-43149706D01*
X37986557Y-43108725D01*
X38085110Y-43074563D01*
X38183774Y-43046793D01*
X38282249Y-43024986D01*
X38380233Y-43008715D01*
X38477424Y-42997552D01*
X38573523Y-42991069D01*
X38668227Y-42988839D01*
X38761235Y-42990433D01*
G37*
G36*
X18921735Y-59698218D02*
G01*
X18930595Y-59699036D01*
X18939514Y-59700374D01*
X18948493Y-59702239D01*
X18957534Y-59704638D01*
X18957534Y-59704628D01*
X19022955Y-59736876D01*
X19092766Y-59797822D01*
X19167938Y-59889697D01*
X19249442Y-60014736D01*
X19435331Y-60373236D01*
X19658204Y-60891188D01*
X19925832Y-61586457D01*
X20245985Y-62476910D01*
X21074950Y-64914828D01*
X21190125Y-65276847D01*
X21301100Y-65658150D01*
X21508670Y-66467821D01*
X21694092Y-67322261D01*
X21853800Y-68199892D01*
X21984227Y-69079135D01*
X22081805Y-69938410D01*
X22142968Y-70756138D01*
X22158778Y-71142679D01*
X22164148Y-71510741D01*
X22164148Y-73068265D01*
X21530985Y-73799721D01*
X21433784Y-73913327D01*
X21346821Y-74018151D01*
X21269550Y-74115474D01*
X21201422Y-74206578D01*
X21141890Y-74292745D01*
X21090407Y-74375255D01*
X21046426Y-74455391D01*
X21009398Y-74534434D01*
X20978777Y-74613664D01*
X20954015Y-74694365D01*
X20934564Y-74777817D01*
X20919877Y-74865301D01*
X20909407Y-74958100D01*
X20902607Y-75057494D01*
X20898928Y-75164765D01*
X20897823Y-75281195D01*
X20898810Y-75358590D01*
X20901707Y-75435750D01*
X20906416Y-75512194D01*
X20912838Y-75587440D01*
X20920876Y-75661004D01*
X20930432Y-75732405D01*
X20941408Y-75801160D01*
X20953706Y-75866787D01*
X20967228Y-75928803D01*
X20981876Y-75986727D01*
X20997553Y-76040076D01*
X21014160Y-76088368D01*
X21031599Y-76131121D01*
X21049773Y-76167851D01*
X21068583Y-76198077D01*
X21078196Y-76210601D01*
X21087932Y-76221317D01*
X21108363Y-76245975D01*
X21118902Y-76268876D01*
X21120029Y-76290029D01*
X21112225Y-76309444D01*
X21095972Y-76327130D01*
X21071750Y-76343097D01*
X21001322Y-76369907D01*
X20904788Y-76389951D01*
X20785996Y-76403303D01*
X20648793Y-76410037D01*
X20497026Y-76410228D01*
X20334541Y-76403951D01*
X20165186Y-76391280D01*
X19992808Y-76372289D01*
X19821253Y-76347054D01*
X19654369Y-76315649D01*
X19496003Y-76278149D01*
X19350002Y-76234627D01*
X19220212Y-76185160D01*
X19104921Y-76128265D01*
X19000612Y-76063231D01*
X18907088Y-75990709D01*
X18824154Y-75911351D01*
X18751615Y-75825810D01*
X18689274Y-75734738D01*
X18636936Y-75638788D01*
X18594405Y-75538611D01*
X18561485Y-75434860D01*
X18537982Y-75328187D01*
X18523699Y-75219245D01*
X18518440Y-75108685D01*
X18522011Y-74997160D01*
X18534214Y-74885323D01*
X18554855Y-74773824D01*
X18583738Y-74663318D01*
X18620666Y-74554455D01*
X18665446Y-74447889D01*
X18717880Y-74344271D01*
X18777773Y-74244254D01*
X18844930Y-74148490D01*
X18919155Y-74057631D01*
X19000251Y-73972330D01*
X19088024Y-73893239D01*
X19182278Y-73821010D01*
X19282817Y-73756295D01*
X19389445Y-73699746D01*
X19501967Y-73652017D01*
X19620187Y-73613758D01*
X19743910Y-73585623D01*
X19872939Y-73568264D01*
X20007079Y-73562333D01*
X20089642Y-73561033D01*
X20166421Y-73556874D01*
X20238085Y-73549467D01*
X20305304Y-73538423D01*
X20337455Y-73531416D01*
X20368746Y-73523353D01*
X20399260Y-73514187D01*
X20429080Y-73503869D01*
X20458291Y-73492349D01*
X20486975Y-73479580D01*
X20515217Y-73465513D01*
X20543101Y-73450099D01*
X20570708Y-73433289D01*
X20598125Y-73415036D01*
X20625433Y-73395290D01*
X20652716Y-73374002D01*
X20707544Y-73326609D01*
X20763278Y-73272467D01*
X20820586Y-73211187D01*
X20880138Y-73142381D01*
X20942601Y-73065660D01*
X21008646Y-72980634D01*
X21144736Y-72794888D01*
X21200893Y-72709971D01*
X21249769Y-72627481D01*
X21291847Y-72545261D01*
X21327611Y-72461155D01*
X21357543Y-72373004D01*
X21382128Y-72278652D01*
X21401848Y-72175942D01*
X21417187Y-72062716D01*
X21428627Y-71936818D01*
X21436653Y-71796089D01*
X21441748Y-71638373D01*
X21444394Y-71461514D01*
X21444275Y-71041732D01*
X21437333Y-70702090D01*
X21420248Y-70373605D01*
X21392869Y-70055201D01*
X21355046Y-69745804D01*
X21306626Y-69444339D01*
X21247459Y-69149731D01*
X21177392Y-68860905D01*
X21096276Y-68576786D01*
X20918794Y-67984236D01*
X20687202Y-67189861D01*
X20181658Y-65411215D01*
X19922151Y-64502362D01*
X19640109Y-63548733D01*
X19369584Y-62663544D01*
X19144625Y-61960009D01*
X19060368Y-61701771D01*
X18984891Y-61461125D01*
X18918138Y-61237690D01*
X18860054Y-61031086D01*
X18810584Y-60840936D01*
X18769672Y-60666859D01*
X18737264Y-60508476D01*
X18713304Y-60365407D01*
X18704474Y-60299497D01*
X18697736Y-60237274D01*
X18693082Y-60178689D01*
X18690506Y-60123697D01*
X18690000Y-60072248D01*
X18691558Y-60024296D01*
X18695173Y-59979793D01*
X18700838Y-59938692D01*
X18708545Y-59900946D01*
X18718289Y-59866507D01*
X18730061Y-59835327D01*
X18743856Y-59807360D01*
X18759667Y-59782557D01*
X18777485Y-59760872D01*
X18797305Y-59742257D01*
X18819120Y-59726664D01*
X18827460Y-59721736D01*
X18835830Y-59717251D01*
X18844234Y-59713217D01*
X18852673Y-59709639D01*
X18861150Y-59706524D01*
X18869667Y-59703879D01*
X18878226Y-59701709D01*
X18886830Y-59700021D01*
X18895480Y-59698821D01*
X18904180Y-59698117D01*
X18912931Y-59697913D01*
X18921735Y-59698218D01*
G37*
G36*
X29282868Y-73912660D02*
G01*
X29282867Y-73912694D01*
X29395416Y-73917560D01*
X29506849Y-73926740D01*
X29617011Y-73940136D01*
X29725748Y-73957651D01*
X29832903Y-73979186D01*
X29938323Y-74004644D01*
X30041851Y-74033926D01*
X30143334Y-74066934D01*
X30242617Y-74103571D01*
X30339543Y-74143738D01*
X30433960Y-74187337D01*
X30525710Y-74234271D01*
X30614640Y-74284441D01*
X30700595Y-74337749D01*
X30783420Y-74394098D01*
X30862959Y-74453389D01*
X30939057Y-74515525D01*
X31011561Y-74580406D01*
X31080314Y-74647936D01*
X31145163Y-74718017D01*
X31205951Y-74790549D01*
X31262524Y-74865436D01*
X31314727Y-74942579D01*
X31362406Y-75021880D01*
X31405404Y-75103241D01*
X31443568Y-75186565D01*
X31476742Y-75271753D01*
X31504771Y-75358707D01*
X31527500Y-75447329D01*
X31544775Y-75537522D01*
X31556441Y-75629187D01*
X31562342Y-75722225D01*
X31564544Y-75818222D01*
X31564318Y-75904702D01*
X31561015Y-75982660D01*
X31553988Y-76053092D01*
X31548875Y-76085797D01*
X31542589Y-76116995D01*
X31535048Y-76146808D01*
X31526172Y-76175363D01*
X31515879Y-76202783D01*
X31504089Y-76229192D01*
X31490720Y-76254716D01*
X31475692Y-76279479D01*
X31458924Y-76303605D01*
X31440334Y-76327218D01*
X31419843Y-76350444D01*
X31397369Y-76373406D01*
X31372830Y-76396229D01*
X31346147Y-76419038D01*
X31286023Y-76465110D01*
X31216349Y-76512617D01*
X31136477Y-76562556D01*
X31045760Y-76615922D01*
X30943550Y-76673710D01*
X30748241Y-76775045D01*
X30548503Y-76863790D01*
X30344727Y-76939935D01*
X30137303Y-77003466D01*
X29926623Y-77054374D01*
X29713075Y-77092645D01*
X29497051Y-77118268D01*
X29278941Y-77131232D01*
X29059135Y-77131525D01*
X28838023Y-77119136D01*
X28615996Y-77094051D01*
X28393444Y-77056261D01*
X28170758Y-77005753D01*
X27948328Y-76942516D01*
X27726543Y-76866538D01*
X27505795Y-76777806D01*
X27411996Y-76736452D01*
X27328488Y-76697529D01*
X27254688Y-76660223D01*
X27190013Y-76623721D01*
X27160915Y-76605517D01*
X27133878Y-76587208D01*
X27108831Y-76568693D01*
X27085701Y-76549870D01*
X27064414Y-76530637D01*
X27044897Y-76510893D01*
X27027078Y-76490535D01*
X27010884Y-76469462D01*
X26996241Y-76447572D01*
X26983077Y-76424764D01*
X26971319Y-76400935D01*
X26960894Y-76375984D01*
X26951729Y-76349808D01*
X26943750Y-76322307D01*
X26936886Y-76293379D01*
X26931063Y-76262920D01*
X26922248Y-76197009D01*
X26916723Y-76123759D01*
X26913903Y-76042356D01*
X26913205Y-75951986D01*
X26915557Y-75857435D01*
X26922216Y-75764142D01*
X26933108Y-75672188D01*
X26948160Y-75581652D01*
X26967297Y-75492615D01*
X26990445Y-75405156D01*
X27017531Y-75319357D01*
X27048481Y-75235298D01*
X27083221Y-75153058D01*
X27121677Y-75072718D01*
X27163775Y-74994357D01*
X27209442Y-74918057D01*
X27258604Y-74843897D01*
X27311186Y-74771958D01*
X27367115Y-74702319D01*
X27426318Y-74635061D01*
X27488719Y-74570264D01*
X27554246Y-74508009D01*
X27622825Y-74448375D01*
X27694381Y-74391443D01*
X27768841Y-74337292D01*
X27846132Y-74286003D01*
X27926178Y-74237657D01*
X28008907Y-74192333D01*
X28094244Y-74150112D01*
X28182116Y-74111074D01*
X28272449Y-74075298D01*
X28365169Y-74042866D01*
X28460201Y-74013857D01*
X28557474Y-73988352D01*
X28656911Y-73966430D01*
X28758440Y-73948173D01*
X28824584Y-73938412D01*
X28890617Y-73930228D01*
X28956512Y-73923593D01*
X29022238Y-73918478D01*
X29087766Y-73914855D01*
X29153067Y-73912696D01*
X29218110Y-73911974D01*
X29282868Y-73912660D01*
G37*
G36*
X24209372Y-73886247D02*
G01*
X24302990Y-73889318D01*
X24395250Y-73893976D01*
X24485805Y-73900231D01*
X24574307Y-73908090D01*
X24660408Y-73917563D01*
X24743760Y-73928658D01*
X24824015Y-73941384D01*
X24900826Y-73955749D01*
X24973843Y-73971762D01*
X25042719Y-73989432D01*
X25107106Y-74008768D01*
X25166656Y-74029777D01*
X25221022Y-74052470D01*
X25258693Y-74071485D01*
X25296853Y-74094330D01*
X25374194Y-74150741D01*
X25452162Y-74220173D01*
X25529872Y-74301095D01*
X25606442Y-74391975D01*
X25680988Y-74491284D01*
X25752627Y-74597491D01*
X25820476Y-74709064D01*
X25883650Y-74824473D01*
X25941268Y-74942186D01*
X25992444Y-75060675D01*
X26036297Y-75178406D01*
X26071942Y-75293850D01*
X26098497Y-75405476D01*
X26115077Y-75511754D01*
X26120801Y-75611151D01*
X26118236Y-75656423D01*
X26110676Y-75702484D01*
X26098324Y-75749188D01*
X26081382Y-75796391D01*
X26060052Y-75843947D01*
X26034538Y-75891711D01*
X26005041Y-75939536D01*
X25971765Y-75987278D01*
X25894682Y-76081929D01*
X25804908Y-76174501D01*
X25704065Y-76263828D01*
X25593771Y-76348749D01*
X25475647Y-76428098D01*
X25351313Y-76500712D01*
X25222388Y-76565428D01*
X25090491Y-76621080D01*
X24957244Y-76666507D01*
X24824266Y-76700543D01*
X24758384Y-76712926D01*
X24693176Y-76722025D01*
X24628846Y-76727694D01*
X24565596Y-76729789D01*
X24442349Y-76731540D01*
X24314882Y-76735716D01*
X24186876Y-76742043D01*
X24062015Y-76750245D01*
X23943982Y-76760047D01*
X23836459Y-76771174D01*
X23743129Y-76783351D01*
X23667676Y-76796303D01*
X23620731Y-76804527D01*
X23571586Y-76810663D01*
X23467483Y-76816903D01*
X23356945Y-76815493D01*
X23241553Y-76806903D01*
X23122885Y-76791606D01*
X23002522Y-76770071D01*
X22882042Y-76742768D01*
X22763026Y-76710170D01*
X22647052Y-76672747D01*
X22535702Y-76630969D01*
X22430553Y-76585308D01*
X22333185Y-76536233D01*
X22245179Y-76484217D01*
X22168113Y-76429729D01*
X22134177Y-76401706D01*
X22103568Y-76373241D01*
X22076484Y-76344394D01*
X22053122Y-76315223D01*
X22030687Y-76282053D01*
X22009566Y-76245808D01*
X21971280Y-76164849D01*
X21938304Y-76073849D01*
X21910677Y-75974314D01*
X21888436Y-75867746D01*
X21871621Y-75755650D01*
X21860270Y-75639530D01*
X21854424Y-75520889D01*
X21854119Y-75401231D01*
X21859396Y-75282061D01*
X21870292Y-75164882D01*
X21886848Y-75051198D01*
X21909101Y-74942514D01*
X21937090Y-74840332D01*
X21970855Y-74746157D01*
X22010434Y-74661493D01*
X22029433Y-74629233D01*
X22052606Y-74595441D01*
X22079633Y-74560397D01*
X22110192Y-74524379D01*
X22143963Y-74487667D01*
X22180626Y-74450540D01*
X22219859Y-74413277D01*
X22261342Y-74376157D01*
X22304754Y-74339458D01*
X22349775Y-74303461D01*
X22396083Y-74268443D01*
X22443358Y-74234684D01*
X22491279Y-74202464D01*
X22539526Y-74172060D01*
X22587777Y-74143753D01*
X22635712Y-74117821D01*
X22688968Y-74092408D01*
X22747483Y-74068415D01*
X22810909Y-74045850D01*
X22878897Y-74024722D01*
X22951100Y-74005040D01*
X23027169Y-73986813D01*
X23106755Y-73970048D01*
X23189510Y-73954755D01*
X23363134Y-73928620D01*
X23545254Y-73908476D01*
X23733082Y-73894393D01*
X23923832Y-73886439D01*
X23923858Y-73886473D01*
X24114746Y-73884755D01*
X24209372Y-73886247D01*
G37*
G36*
X17489969Y-16928551D02*
G01*
X17489922Y-16928554D01*
X17506821Y-16930820D01*
X17523909Y-16933533D01*
X17558653Y-16940300D01*
X17594157Y-16948844D01*
X17630425Y-16959153D01*
X17667460Y-16971215D01*
X17705267Y-16985020D01*
X17743849Y-17000557D01*
X17783209Y-17017813D01*
X17911171Y-17089144D01*
X18071977Y-17199748D01*
X18260612Y-17344725D01*
X18472063Y-17519172D01*
X18701314Y-17718188D01*
X18943353Y-17936871D01*
X19445732Y-18413633D01*
X19939085Y-18910245D01*
X20169842Y-19153740D01*
X20383300Y-19387493D01*
X20574444Y-19606602D01*
X20738260Y-19806165D01*
X20869734Y-19981281D01*
X20963851Y-20127048D01*
X21077170Y-20329961D01*
X21175638Y-20515884D01*
X21259293Y-20686316D01*
X21295578Y-20766190D01*
X21328175Y-20842754D01*
X21357087Y-20916194D01*
X21382320Y-20986697D01*
X21403878Y-21054452D01*
X21421767Y-21119645D01*
X21435991Y-21182463D01*
X21446555Y-21243094D01*
X21453464Y-21301726D01*
X21456722Y-21358545D01*
X21456335Y-21413738D01*
X21452306Y-21467494D01*
X21444642Y-21519999D01*
X21433346Y-21571441D01*
X21418423Y-21622007D01*
X21399879Y-21671884D01*
X21377718Y-21721260D01*
X21351944Y-21770322D01*
X21322563Y-21819257D01*
X21289580Y-21868253D01*
X21252998Y-21917497D01*
X21212824Y-21967175D01*
X21169061Y-22017477D01*
X21121715Y-22068588D01*
X21016291Y-22173989D01*
X20728285Y-22442142D01*
X20417454Y-22717288D01*
X20092185Y-22992754D01*
X19760863Y-23261869D01*
X19431875Y-23517963D01*
X19113606Y-23754364D01*
X18814442Y-23964400D01*
X18542770Y-24141401D01*
X18483412Y-24177599D01*
X18423737Y-24212790D01*
X18364139Y-24246792D01*
X18305013Y-24279422D01*
X18246752Y-24310498D01*
X18189750Y-24339837D01*
X18134401Y-24367255D01*
X18081098Y-24392572D01*
X18030235Y-24415604D01*
X17982206Y-24436168D01*
X17937406Y-24454082D01*
X17896226Y-24469164D01*
X17859062Y-24481230D01*
X17826307Y-24490098D01*
X17798356Y-24495586D01*
X17775601Y-24497511D01*
X17718592Y-24491541D01*
X17662116Y-24473373D01*
X17606256Y-24443340D01*
X17551094Y-24401777D01*
X17443200Y-24285387D01*
X17339099Y-24126869D01*
X17239459Y-23928886D01*
X17144944Y-23694102D01*
X17056221Y-23425183D01*
X16973955Y-23124793D01*
X16898813Y-22795595D01*
X16831460Y-22440255D01*
X16772563Y-22061437D01*
X16722787Y-21661804D01*
X16682798Y-21244023D01*
X16653262Y-20810756D01*
X16634845Y-20364669D01*
X16628213Y-19908425D01*
X16630594Y-19513428D01*
X16638805Y-19148847D01*
X16645166Y-18977791D01*
X16653067Y-18814131D01*
X16662537Y-18657799D01*
X16673603Y-18508725D01*
X16686292Y-18366841D01*
X16700633Y-18232076D01*
X16716653Y-18104362D01*
X16734380Y-17983630D01*
X16753841Y-17869810D01*
X16775064Y-17762834D01*
X16798077Y-17662631D01*
X16822907Y-17569133D01*
X16849583Y-17482271D01*
X16878132Y-17401975D01*
X16908581Y-17328176D01*
X16940958Y-17260805D01*
X16975291Y-17199794D01*
X17011608Y-17145071D01*
X17049936Y-17096569D01*
X17090304Y-17054218D01*
X17132738Y-17017950D01*
X17177266Y-16987694D01*
X17223916Y-16963381D01*
X17272716Y-16944943D01*
X17323694Y-16932310D01*
X17376877Y-16925414D01*
X17432293Y-16924184D01*
X17489969Y-16928551D01*
G37*
G36*
X38878159Y-60449522D02*
G01*
X39010474Y-60456737D01*
X39147286Y-60468522D01*
X39290737Y-60484805D01*
X39442964Y-60505513D01*
X39606109Y-60530574D01*
X39782311Y-60559916D01*
X39899548Y-60581004D01*
X40017497Y-60604119D01*
X40252405Y-60655503D01*
X40480786Y-60712219D01*
X40696387Y-60772420D01*
X40797442Y-60803248D01*
X40892958Y-60834254D01*
X40982153Y-60865207D01*
X41064247Y-60895875D01*
X41138458Y-60926027D01*
X41204004Y-60955432D01*
X41260105Y-60983860D01*
X41305978Y-61011078D01*
X41371783Y-61054445D01*
X41429015Y-61092969D01*
X41477779Y-61127125D01*
X41518178Y-61157387D01*
X41535273Y-61171207D01*
X41550315Y-61184232D01*
X41563317Y-61196522D01*
X41574292Y-61208135D01*
X41583254Y-61219132D01*
X41590214Y-61229571D01*
X41595187Y-61239513D01*
X41598184Y-61249016D01*
X41599219Y-61258139D01*
X41598304Y-61266944D01*
X41595453Y-61275488D01*
X41590678Y-61283831D01*
X41583993Y-61292032D01*
X41575410Y-61300152D01*
X41564942Y-61308249D01*
X41552602Y-61316383D01*
X41538403Y-61324613D01*
X41522358Y-61332999D01*
X41484781Y-61350476D01*
X41439975Y-61369288D01*
X41388041Y-61389911D01*
X41352866Y-61402342D01*
X41311745Y-61414531D01*
X41213699Y-61437917D01*
X41097972Y-61459538D01*
X40968630Y-61478859D01*
X40829740Y-61495350D01*
X40685368Y-61508479D01*
X40539581Y-61517712D01*
X40396447Y-61522518D01*
X40236401Y-61529992D01*
X40042141Y-61547093D01*
X39821134Y-61572721D01*
X39580849Y-61605778D01*
X39328750Y-61645163D01*
X39072307Y-61689778D01*
X38818986Y-61738524D01*
X38576254Y-61790302D01*
X38108372Y-61906192D01*
X37654556Y-62039619D01*
X37215723Y-62189954D01*
X36792794Y-62356569D01*
X36386689Y-62538838D01*
X35998326Y-62736130D01*
X35628624Y-62947820D01*
X35278504Y-63173279D01*
X34948885Y-63411880D01*
X34640686Y-63662994D01*
X34354826Y-63925994D01*
X34220560Y-64061755D01*
X34092225Y-64200252D01*
X33969933Y-64341407D01*
X33853802Y-64485140D01*
X33743944Y-64631375D01*
X33640476Y-64780031D01*
X33543513Y-64931031D01*
X33453168Y-65084296D01*
X33369557Y-65239748D01*
X33292796Y-65397308D01*
X33155036Y-65705097D01*
X33098272Y-65843482D01*
X33048905Y-65976029D01*
X33006423Y-66106110D01*
X32970315Y-66237100D01*
X32940070Y-66372374D01*
X32915178Y-66515306D01*
X32895128Y-66669270D01*
X32879409Y-66837642D01*
X32867510Y-67023794D01*
X32858920Y-67231103D01*
X32849624Y-67722685D01*
X32847433Y-68339384D01*
X32850671Y-68907191D01*
X32861818Y-69386941D01*
X32871030Y-69599428D01*
X32883028Y-69796660D01*
X32898079Y-69980890D01*
X32916453Y-70154373D01*
X32938419Y-70319359D01*
X32964246Y-70478104D01*
X32994203Y-70632860D01*
X33028559Y-70785880D01*
X33067584Y-70939417D01*
X33111546Y-71095724D01*
X33160715Y-71257055D01*
X33215359Y-71425663D01*
X33333150Y-71775142D01*
X33443487Y-72091002D01*
X33547454Y-72374950D01*
X33646134Y-72628687D01*
X33740611Y-72853919D01*
X33786612Y-72956378D01*
X33831968Y-73052349D01*
X33876815Y-73142046D01*
X33921289Y-73225682D01*
X33965524Y-73303469D01*
X34009657Y-73375621D01*
X34053822Y-73442350D01*
X34098155Y-73503870D01*
X34142791Y-73560394D01*
X34187866Y-73612134D01*
X34233516Y-73659304D01*
X34279875Y-73702116D01*
X34327080Y-73740784D01*
X34375265Y-73775521D01*
X34424566Y-73806539D01*
X34475118Y-73834052D01*
X34527057Y-73858273D01*
X34580519Y-73879414D01*
X34635638Y-73897689D01*
X34692550Y-73913310D01*
X34751391Y-73926491D01*
X34812295Y-73937445D01*
X34933164Y-73961603D01*
X35051325Y-73995156D01*
X35167097Y-74038403D01*
X35280799Y-74091646D01*
X35392750Y-74155186D01*
X35503268Y-74229322D01*
X35612673Y-74314357D01*
X35721283Y-74410590D01*
X35829417Y-74518323D01*
X35937393Y-74637855D01*
X36045531Y-74769489D01*
X36154150Y-74913523D01*
X36263567Y-75070260D01*
X36374102Y-75240000D01*
X36486073Y-75423044D01*
X36599800Y-75619691D01*
X36719301Y-75833727D01*
X36823209Y-76024986D01*
X36911615Y-76195012D01*
X36950033Y-76272544D01*
X36984610Y-76345346D01*
X37015356Y-76413610D01*
X37042285Y-76477530D01*
X37065405Y-76537297D01*
X37084730Y-76593106D01*
X37100271Y-76645148D01*
X37112038Y-76693616D01*
X37120044Y-76738703D01*
X37124299Y-76780602D01*
X37124816Y-76819505D01*
X37121604Y-76855606D01*
X37114677Y-76889097D01*
X37104044Y-76920170D01*
X37089719Y-76949019D01*
X37071711Y-76975836D01*
X37050032Y-77000814D01*
X37024694Y-77024146D01*
X36995708Y-77046025D01*
X36963085Y-77066642D01*
X36926837Y-77086192D01*
X36886975Y-77104867D01*
X36843511Y-77122859D01*
X36796455Y-77140361D01*
X36745820Y-77157566D01*
X36691617Y-77174667D01*
X36432902Y-77245970D01*
X36167573Y-77304308D01*
X35897810Y-77349863D01*
X35625797Y-77382820D01*
X35353715Y-77403362D01*
X35083749Y-77411672D01*
X34818079Y-77407933D01*
X34558889Y-77392329D01*
X34308360Y-77365044D01*
X34068676Y-77326260D01*
X33842018Y-77276162D01*
X33630570Y-77214933D01*
X33436514Y-77142756D01*
X33262032Y-77059814D01*
X33182813Y-77014364D01*
X33109307Y-76966292D01*
X33041785Y-76915620D01*
X32980520Y-76862372D01*
X32903327Y-76782909D01*
X32835363Y-76698327D01*
X32776640Y-76608784D01*
X32727167Y-76514434D01*
X32686954Y-76415435D01*
X32656013Y-76311942D01*
X32634353Y-76204111D01*
X32621986Y-76092099D01*
X32618921Y-75976061D01*
X32625168Y-75856154D01*
X32640739Y-75732533D01*
X32665643Y-75605355D01*
X32699892Y-75474776D01*
X32743494Y-75340952D01*
X32796462Y-75204039D01*
X32858804Y-75064193D01*
X32935166Y-74894108D01*
X32964289Y-74817348D01*
X32987115Y-74743157D01*
X33003448Y-74669321D01*
X33013094Y-74593626D01*
X33015860Y-74513857D01*
X33011551Y-74427800D01*
X32999973Y-74333240D01*
X32980931Y-74227964D01*
X32954231Y-74109756D01*
X32919679Y-73976403D01*
X32826242Y-73655403D01*
X32699065Y-73247250D01*
X32545642Y-72736461D01*
X32406641Y-72221833D01*
X32282191Y-71704894D01*
X32172421Y-71187172D01*
X32077456Y-70670194D01*
X31997426Y-70155490D01*
X31932459Y-69644586D01*
X31882681Y-69139011D01*
X31848222Y-68640294D01*
X31829209Y-68149962D01*
X31825770Y-67669543D01*
X31838032Y-67200566D01*
X31866124Y-66744558D01*
X31910174Y-66303048D01*
X31970309Y-65877563D01*
X32046657Y-65469633D01*
X32167874Y-64965655D01*
X32311746Y-64493441D01*
X32479395Y-64051968D01*
X32671941Y-63640214D01*
X32890503Y-63257156D01*
X33009891Y-63076068D01*
X33136203Y-62901771D01*
X33269579Y-62734137D01*
X33410160Y-62573037D01*
X33558085Y-62418345D01*
X33713494Y-62269932D01*
X33876528Y-62127670D01*
X34047327Y-61991432D01*
X34412778Y-61736515D01*
X34810968Y-61504158D01*
X35243016Y-61293339D01*
X35710044Y-61103036D01*
X36213170Y-60932224D01*
X36753517Y-60779883D01*
X37332204Y-60644989D01*
X37537074Y-60602417D01*
X37725074Y-60565163D01*
X37898339Y-60533152D01*
X38059009Y-60506307D01*
X38209219Y-60484554D01*
X38351107Y-60467817D01*
X38486810Y-60456019D01*
X38618466Y-60449086D01*
X38618466Y-60449095D01*
X38748203Y-60446951D01*
X38878159Y-60449522D01*
G37*
G36*
X21775998Y-38117802D02*
G01*
X22253025Y-38335161D01*
X22729100Y-38527217D01*
X23204492Y-38693985D01*
X23679468Y-38835482D01*
X24154297Y-38951723D01*
X24629247Y-39042724D01*
X25104586Y-39108501D01*
X25580583Y-39149070D01*
X26057506Y-39164446D01*
X26535623Y-39154647D01*
X27015202Y-39119687D01*
X27496511Y-39059583D01*
X27979819Y-38974350D01*
X28465394Y-38864005D01*
X28953505Y-38728563D01*
X29444418Y-38568041D01*
X30123200Y-38330093D01*
X30397680Y-38236213D01*
X30634271Y-38158787D01*
X30739621Y-38126181D01*
X30837013Y-38097610D01*
X30926952Y-38073051D01*
X31009943Y-38052477D01*
X31086491Y-38035862D01*
X31157101Y-38023180D01*
X31222278Y-38014406D01*
X31282526Y-38009515D01*
X31338350Y-38008479D01*
X31390256Y-38011275D01*
X31438748Y-38017875D01*
X31484331Y-38028254D01*
X31527510Y-38042387D01*
X31568789Y-38060247D01*
X31608674Y-38081809D01*
X31647670Y-38107048D01*
X31686280Y-38135936D01*
X31725011Y-38168450D01*
X31764367Y-38204563D01*
X31804853Y-38244248D01*
X31891233Y-38334237D01*
X31988191Y-38438209D01*
X32133413Y-38600336D01*
X32270563Y-38767008D01*
X32399464Y-38937810D01*
X32519936Y-39112324D01*
X32631800Y-39290137D01*
X32734877Y-39470831D01*
X32828987Y-39653992D01*
X32913951Y-39839203D01*
X32989591Y-40026049D01*
X33055727Y-40214113D01*
X33112179Y-40402981D01*
X33158770Y-40592236D01*
X33195318Y-40781463D01*
X33221647Y-40970246D01*
X33237575Y-41158169D01*
X33242924Y-41344816D01*
X33242424Y-41487785D01*
X33240568Y-41615071D01*
X33236821Y-41727940D01*
X33230648Y-41827658D01*
X33226485Y-41872982D01*
X33221515Y-41915493D01*
X33215672Y-41955350D01*
X33208888Y-41992712D01*
X33201096Y-42027736D01*
X33192230Y-42060582D01*
X33182223Y-42091406D01*
X33171008Y-42120369D01*
X33158518Y-42147628D01*
X33144687Y-42173341D01*
X33129447Y-42197667D01*
X33112732Y-42220765D01*
X33094474Y-42242792D01*
X33074608Y-42263908D01*
X33053066Y-42284269D01*
X33029781Y-42304036D01*
X33004687Y-42323365D01*
X32977717Y-42342417D01*
X32948803Y-42361348D01*
X32917879Y-42380317D01*
X32849735Y-42419004D01*
X32772748Y-42459745D01*
X32302574Y-42702716D01*
X32774838Y-43447394D01*
X32923686Y-43696229D01*
X33057066Y-43948678D01*
X33174926Y-44204282D01*
X33277209Y-44462580D01*
X33363862Y-44723113D01*
X33434830Y-44985421D01*
X33490058Y-45249045D01*
X33529491Y-45513525D01*
X33553076Y-45778402D01*
X33560757Y-46043215D01*
X33552481Y-46307505D01*
X33528191Y-46570812D01*
X33487835Y-46832677D01*
X33431357Y-47092640D01*
X33358702Y-47350241D01*
X33269816Y-47605021D01*
X33229139Y-47708558D01*
X33189926Y-47802523D01*
X33151698Y-47887429D01*
X33113978Y-47963786D01*
X33076284Y-48032108D01*
X33057298Y-48063415D01*
X33038140Y-48092906D01*
X33018749Y-48120644D01*
X32999066Y-48146693D01*
X32979030Y-48171117D01*
X32958582Y-48193981D01*
X32937663Y-48215348D01*
X32916211Y-48235282D01*
X32894168Y-48253847D01*
X32871473Y-48271108D01*
X32848067Y-48287128D01*
X32823890Y-48301972D01*
X32798882Y-48315703D01*
X32772982Y-48328385D01*
X32746132Y-48340083D01*
X32718271Y-48350860D01*
X32689340Y-48360781D01*
X32659278Y-48369909D01*
X32595524Y-48386044D01*
X32526530Y-48399777D01*
X32357215Y-48431064D01*
X32289823Y-48449314D01*
X32233314Y-48473566D01*
X32187216Y-48507020D01*
X32167925Y-48528197D01*
X32151061Y-48552874D01*
X32124377Y-48614327D01*
X32106693Y-48694576D01*
X32097540Y-48796821D01*
X32096447Y-48924260D01*
X32102943Y-49080093D01*
X32116557Y-49267517D01*
X32163260Y-49749934D01*
X32232792Y-50397101D01*
X32244163Y-50514268D01*
X32252237Y-50626240D01*
X32256852Y-50733968D01*
X32257846Y-50838402D01*
X32255057Y-50940493D01*
X32248324Y-51041191D01*
X32237483Y-51141446D01*
X32222374Y-51242209D01*
X32202834Y-51344431D01*
X32178700Y-51449062D01*
X32149812Y-51557052D01*
X32116006Y-51669352D01*
X32077122Y-51786913D01*
X32032996Y-51910685D01*
X31928373Y-52180663D01*
X31855956Y-52350071D01*
X31768631Y-52537801D01*
X31668591Y-52740205D01*
X31558025Y-52953634D01*
X31314079Y-53398972D01*
X31054318Y-53844630D01*
X30796269Y-54261418D01*
X30673363Y-54449866D01*
X30557456Y-54620151D01*
X30450741Y-54768625D01*
X30355406Y-54891640D01*
X30273643Y-54985547D01*
X30207642Y-55046698D01*
X30139493Y-55111063D01*
X30043021Y-55220623D01*
X29779122Y-55555180D01*
X29443975Y-56010073D01*
X29065610Y-56545006D01*
X28672056Y-57119682D01*
X28291343Y-57693805D01*
X27951501Y-58227079D01*
X27680560Y-58679208D01*
X27528432Y-58956121D01*
X27393895Y-59224125D01*
X27276711Y-59485698D01*
X27176644Y-59743318D01*
X27093454Y-59999460D01*
X27026904Y-60256602D01*
X26976756Y-60517222D01*
X26942773Y-60783797D01*
X26924716Y-61058804D01*
X26922349Y-61344720D01*
X26935432Y-61644022D01*
X26963729Y-61959188D01*
X27007002Y-62292694D01*
X27065012Y-62647019D01*
X27137522Y-63024639D01*
X27224295Y-63428031D01*
X27367888Y-64168987D01*
X27497667Y-65034016D01*
X27609884Y-65976848D01*
X27700790Y-66951213D01*
X27766634Y-67910844D01*
X27803669Y-68809471D01*
X27808145Y-69600825D01*
X27797001Y-69941815D01*
X27776313Y-70238637D01*
X27751175Y-70479108D01*
X27721188Y-70717614D01*
X27686531Y-70953495D01*
X27647384Y-71186088D01*
X27603928Y-71414732D01*
X27556342Y-71638765D01*
X27504808Y-71857527D01*
X27449504Y-72070356D01*
X27390611Y-72276590D01*
X27328309Y-72475569D01*
X27262778Y-72666630D01*
X27194198Y-72849112D01*
X27122750Y-73022355D01*
X27048613Y-73185696D01*
X26971967Y-73338474D01*
X26892994Y-73480028D01*
X26826277Y-73591927D01*
X26762684Y-73696325D01*
X26703705Y-73790938D01*
X26650830Y-73873476D01*
X26605547Y-73941654D01*
X26586219Y-73969643D01*
X26569348Y-73993184D01*
X26555119Y-74011991D01*
X26543720Y-74025779D01*
X26535337Y-74034261D01*
X26532334Y-74036423D01*
X26530155Y-74037152D01*
X26524697Y-73983040D01*
X26522305Y-73827955D01*
X26526142Y-73258366D01*
X26540518Y-72415391D01*
X26564287Y-71386034D01*
X26578390Y-69956871D01*
X26567336Y-69272831D01*
X26543941Y-68607141D01*
X26508000Y-67958292D01*
X26459309Y-67324774D01*
X26397664Y-66705080D01*
X26322862Y-66097701D01*
X26234699Y-65501129D01*
X26132971Y-64913854D01*
X26017474Y-64334367D01*
X25888005Y-63761161D01*
X25744358Y-63192727D01*
X25586332Y-62627555D01*
X25413721Y-62064137D01*
X25226322Y-61500966D01*
X25164964Y-61326035D01*
X25107136Y-61166751D01*
X25052348Y-61022309D01*
X25000113Y-60891904D01*
X24949940Y-60774732D01*
X24901343Y-60669987D01*
X24877482Y-60622023D01*
X24853831Y-60576864D01*
X24830330Y-60534409D01*
X24806917Y-60494558D01*
X24783531Y-60457209D01*
X24760111Y-60422263D01*
X24736596Y-60389619D01*
X24712926Y-60359176D01*
X24689038Y-60330834D01*
X24664871Y-60304491D01*
X24640366Y-60280048D01*
X24615460Y-60257403D01*
X24590092Y-60236456D01*
X24564202Y-60217107D01*
X24537728Y-60199254D01*
X24510610Y-60182798D01*
X24482786Y-60167637D01*
X24454194Y-60153670D01*
X24424775Y-60140798D01*
X24394467Y-60128920D01*
X24201959Y-60052093D01*
X24011833Y-59965552D01*
X23824813Y-59869918D01*
X23641624Y-59765812D01*
X23462989Y-59653855D01*
X23289633Y-59534668D01*
X23122281Y-59408872D01*
X22961657Y-59277087D01*
X22808486Y-59139936D01*
X22663491Y-58998038D01*
X22527397Y-58852015D01*
X22400928Y-58702488D01*
X22284810Y-58550077D01*
X22179766Y-58395405D01*
X22086520Y-58239091D01*
X22005797Y-58081757D01*
X21950836Y-57967377D01*
X21897904Y-57862221D01*
X21846683Y-57765926D01*
X21796853Y-57678129D01*
X21748092Y-57598465D01*
X21700082Y-57526572D01*
X21652503Y-57462087D01*
X21628774Y-57432508D01*
X21605034Y-57404645D01*
X21581241Y-57378452D01*
X21557355Y-57353884D01*
X21533338Y-57330895D01*
X21509148Y-57309440D01*
X21484745Y-57289473D01*
X21460091Y-57270949D01*
X21435144Y-57253822D01*
X21409865Y-57238048D01*
X21384213Y-57223581D01*
X21358150Y-57210374D01*
X21331634Y-57198384D01*
X21304625Y-57187564D01*
X21277085Y-57177869D01*
X21248972Y-57169253D01*
X21220247Y-57161672D01*
X21190870Y-57155079D01*
X21074492Y-57124182D01*
X20952444Y-57078650D01*
X20825707Y-57019347D01*
X20695257Y-56947141D01*
X20562074Y-56862896D01*
X20427134Y-56767477D01*
X20291416Y-56661750D01*
X20155898Y-56546581D01*
X20021559Y-56422834D01*
X19889375Y-56291375D01*
X19760327Y-56153070D01*
X19635390Y-56008783D01*
X19515544Y-55859381D01*
X19401766Y-55705728D01*
X19295035Y-55548690D01*
X19196329Y-55389132D01*
X19128764Y-55272202D01*
X19068555Y-55163024D01*
X19015329Y-55059835D01*
X18968713Y-54960875D01*
X18928334Y-54864381D01*
X18893820Y-54768592D01*
X18864797Y-54671745D01*
X18840893Y-54572079D01*
X18821736Y-54467831D01*
X18806952Y-54357241D01*
X18796168Y-54238545D01*
X18789012Y-54109983D01*
X18785111Y-53969792D01*
X18784092Y-53816210D01*
X18789210Y-53461827D01*
X18793402Y-53264716D01*
X18795833Y-53089249D01*
X18795988Y-52933447D01*
X18793356Y-52795329D01*
X18787424Y-52672915D01*
X18783060Y-52616979D01*
X18777679Y-52564226D01*
X18771216Y-52514409D01*
X18763609Y-52467280D01*
X18754791Y-52422592D01*
X18744701Y-52380098D01*
X18733272Y-52339549D01*
X18720442Y-52300699D01*
X18706146Y-52263299D01*
X18690321Y-52227103D01*
X18672901Y-52191863D01*
X18653823Y-52157330D01*
X18633023Y-52123259D01*
X18610437Y-52089400D01*
X18586001Y-52055507D01*
X18559651Y-52021333D01*
X18500950Y-51951147D01*
X18433824Y-51876864D01*
X18357758Y-51796503D01*
X18252411Y-51675934D01*
X18148452Y-51536003D01*
X18046636Y-51378825D01*
X17947718Y-51206515D01*
X17852456Y-51021189D01*
X17761603Y-50824963D01*
X17675915Y-50619951D01*
X17596149Y-50408269D01*
X17523059Y-50192032D01*
X17457401Y-49973356D01*
X17399930Y-49754356D01*
X17351403Y-49537147D01*
X17312574Y-49323845D01*
X17284200Y-49116565D01*
X17267035Y-48917422D01*
X17261836Y-48728532D01*
X17264190Y-48648782D01*
X17270281Y-48560104D01*
X17292895Y-48359699D01*
X17328131Y-48134797D01*
X17374443Y-47892878D01*
X17430284Y-47641422D01*
X17494108Y-47387909D01*
X17564366Y-47139818D01*
X17639514Y-46904630D01*
X18013236Y-45807550D01*
X17699323Y-45084432D01*
X17656006Y-44981073D01*
X17616996Y-44880813D01*
X17582180Y-44782812D01*
X17551447Y-44686231D01*
X17524683Y-44590230D01*
X17501778Y-44493969D01*
X17482620Y-44396610D01*
X17467096Y-44297312D01*
X17455094Y-44195237D01*
X17446502Y-44089543D01*
X17441209Y-43979393D01*
X17439102Y-43863946D01*
X17440070Y-43742362D01*
X17443999Y-43613803D01*
X17460298Y-43332399D01*
X17494132Y-42976199D01*
X17543723Y-42625979D01*
X17609383Y-42281101D01*
X17691422Y-41940927D01*
X17790153Y-41604821D01*
X17905886Y-41272145D01*
X18038934Y-40942260D01*
X18189607Y-40614531D01*
X18358218Y-40288318D01*
X18545077Y-39962986D01*
X18750497Y-39637895D01*
X18974788Y-39312409D01*
X19218262Y-38985891D01*
X19481230Y-38657702D01*
X19764005Y-38327205D01*
X20066897Y-37993763D01*
X20517366Y-37511532D01*
X21775998Y-38117802D01*
G37*
M02*
