%TF.GenerationSoftware,KiCad,Pcbnew,8.0.4*%
%TF.CreationDate,2024-08-14T00:32:59+03:00*%
%TF.ProjectId,purrChesh,70757272-4368-4657-9368-2e6b69636164,rev?*%
%TF.SameCoordinates,Original*%
%TF.FileFunction,Profile,NP*%
%FSLAX46Y46*%
G04 Gerber Fmt 4.6, Leading zero omitted, Abs format (unit mm)*
G04 Created by KiCad (PCBNEW 8.0.4) date 2024-08-14 00:32:59*
%MOMM*%
%LPD*%
G01*
G04 APERTURE LIST*
%TA.AperFunction,Profile*%
%ADD10C,0.009199*%
%TD*%
G04 APERTURE END LIST*
D10*
X13150000Y-12250000D02*
X24153489Y-12250000D01*
X13150000Y-79644657D02*
X13150000Y-12250000D01*
X19508898Y-79644657D02*
X13150000Y-79644657D01*
X23199257Y-77760408D02*
X23199257Y-79644657D01*
X27920569Y-20930982D02*
X27891990Y-12250000D01*
X24182069Y-20930982D02*
X24153489Y-12250000D01*
X27983572Y-20930982D02*
X27920569Y-20930982D01*
X28048426Y-20916615D02*
X27983572Y-20930982D01*
X28108990Y-20895811D02*
X28048426Y-20916615D01*
X28165535Y-20868933D02*
X28108990Y-20895811D01*
X28218331Y-20836347D02*
X28165535Y-20868933D01*
X28267648Y-20798418D02*
X28218331Y-20836347D01*
X28313756Y-20755509D02*
X28267648Y-20798418D01*
X28356925Y-20707986D02*
X28313756Y-20755509D01*
X28397425Y-20656213D02*
X28356925Y-20707986D01*
X28435526Y-20600555D02*
X28397425Y-20656213D01*
X28471498Y-20541376D02*
X28435526Y-20600555D01*
X28538134Y-20413916D02*
X28471498Y-20541376D01*
X28599495Y-20276749D02*
X28538134Y-20413916D01*
X28657739Y-20132793D02*
X28599495Y-20276749D01*
X28773518Y-19836180D02*
X28657739Y-20132793D01*
X28835373Y-19689358D02*
X28773518Y-19836180D01*
X28902752Y-19547415D02*
X28835373Y-19689358D01*
X28977815Y-19413268D02*
X28902752Y-19547415D01*
X29018903Y-19350030D02*
X28977815Y-19413268D01*
X29062722Y-19289834D02*
X29018903Y-19350030D01*
X29109542Y-19233046D02*
X29062722Y-19289834D01*
X29159633Y-19180031D02*
X29109542Y-19233046D01*
X29213265Y-19131152D02*
X29159633Y-19180031D01*
X29270707Y-19086774D02*
X29213265Y-19131152D01*
X30696059Y-17483491D02*
X29270707Y-19086774D01*
X31064846Y-17085422D02*
X30696059Y-17483491D01*
X31440997Y-16694053D02*
X31064846Y-17085422D01*
X31825706Y-16312185D02*
X31440997Y-16694053D01*
X32220164Y-15942618D02*
X31825706Y-16312185D01*
X32625564Y-15588150D02*
X32220164Y-15942618D01*
X33043099Y-15251584D02*
X32625564Y-15588150D01*
X33473961Y-14935717D02*
X33043099Y-15251584D01*
X33919344Y-14643350D02*
X33473961Y-14935717D01*
X34380438Y-14377283D02*
X33919344Y-14643350D01*
X34858438Y-14140317D02*
X34380438Y-14377283D01*
X35104150Y-14033621D02*
X34858438Y-14140317D01*
X35354535Y-13935250D02*
X35104150Y-14033621D01*
X35609743Y-13845554D02*
X35354535Y-13935250D01*
X35869922Y-13764882D02*
X35609743Y-13845554D01*
X35949504Y-13789736D02*
X35869922Y-13764882D01*
X36025539Y-13819547D02*
X35949504Y-13789736D01*
X36098155Y-13854081D02*
X36025539Y-13819547D01*
X36167481Y-13893110D02*
X36098155Y-13854081D01*
X36233645Y-13936399D02*
X36167481Y-13893110D01*
X36296778Y-13983719D02*
X36233645Y-13936399D01*
X36357006Y-14034838D02*
X36296778Y-13983719D01*
X36414459Y-14089523D02*
X36357006Y-14034838D01*
X36469266Y-14147544D02*
X36414459Y-14089523D01*
X36521555Y-14208670D02*
X36469266Y-14147544D01*
X36619094Y-14339305D02*
X36521555Y-14208670D01*
X36708106Y-14479579D02*
X36619094Y-14339305D01*
X36789621Y-14627637D02*
X36708106Y-14479579D01*
X36864668Y-14781629D02*
X36789621Y-14627637D01*
X36934276Y-14939701D02*
X36864668Y-14781629D01*
X37061295Y-15260678D02*
X36934276Y-14939701D01*
X37178914Y-15575751D02*
X37061295Y-15260678D01*
X37295369Y-15870100D02*
X37178914Y-15575751D01*
X37377051Y-16283071D02*
X37295369Y-15870100D01*
X37444075Y-16698196D02*
X37377051Y-16283071D01*
X37497460Y-17115216D02*
X37444075Y-16698196D01*
X37538225Y-17533873D02*
X37497460Y-17115216D01*
X37567389Y-17953906D02*
X37538225Y-17533873D01*
X37585973Y-18375059D02*
X37567389Y-17953906D01*
X37595477Y-19219687D02*
X37585973Y-18375059D01*
X37574891Y-20065686D02*
X37595477Y-19219687D01*
X37532371Y-20910987D02*
X37574891Y-20065686D01*
X37414151Y-22591219D02*
X37532371Y-20910987D01*
X37392236Y-22899841D02*
X37414151Y-22591219D01*
X37348333Y-23203815D02*
X37392236Y-22899841D01*
X37285718Y-23503781D02*
X37348333Y-23203815D01*
X37207666Y-23800381D02*
X37285718Y-23503781D01*
X37117453Y-24094256D02*
X37207666Y-23800381D01*
X37018356Y-24386047D02*
X37117453Y-24094256D01*
X36806608Y-24965946D02*
X37018356Y-24386047D01*
X36598629Y-25545207D02*
X36806608Y-24965946D01*
X36504242Y-25836201D02*
X36598629Y-25545207D01*
X36420624Y-26128961D02*
X36504242Y-25836201D01*
X36351051Y-26424127D02*
X36420624Y-26128961D01*
X36298798Y-26722340D02*
X36351051Y-26424127D01*
X36267142Y-27024242D02*
X36298798Y-26722340D01*
X36260062Y-27176777D02*
X36267142Y-27024242D01*
X36259358Y-27330474D02*
X36260062Y-27176777D01*
X36628892Y-28574509D02*
X36259358Y-27330474D01*
X36796266Y-29206461D02*
X36628892Y-28574509D01*
X36868223Y-29524288D02*
X36796266Y-29206461D01*
X36929547Y-29843108D02*
X36868223Y-29524288D01*
X36978129Y-30162741D02*
X36929547Y-29843108D01*
X37011861Y-30483005D02*
X36978129Y-30162741D01*
X37028633Y-30803721D02*
X37011861Y-30483005D01*
X37026336Y-31124706D02*
X37028633Y-30803721D01*
X37002860Y-31445782D02*
X37026336Y-31124706D01*
X36956097Y-31766767D02*
X37002860Y-31445782D01*
X36883938Y-32087480D02*
X36956097Y-31766767D01*
X36784273Y-32407740D02*
X36883938Y-32087480D01*
X36715288Y-32707386D02*
X36784273Y-32407740D01*
X36630552Y-32999400D02*
X36715288Y-32707386D01*
X36531336Y-33284364D02*
X36630552Y-32999400D01*
X36418913Y-33562863D02*
X36531336Y-33284364D01*
X36294555Y-33835480D02*
X36418913Y-33562863D01*
X36159534Y-34102796D02*
X36294555Y-33835480D01*
X36015122Y-34365397D02*
X36159534Y-34102796D01*
X35862591Y-34623865D02*
X36015122Y-34365397D01*
X35703213Y-34878783D02*
X35862591Y-34623865D01*
X35538261Y-35130735D02*
X35703213Y-34878783D01*
X35196719Y-35628073D02*
X35538261Y-35130735D01*
X34502710Y-36612813D02*
X35196719Y-35628073D01*
X35045910Y-37362432D02*
X34502710Y-36612813D01*
X35571689Y-38129289D02*
X35045910Y-37362432D01*
X36071633Y-38914856D02*
X35571689Y-38129289D01*
X36309287Y-39315117D02*
X36071633Y-38914856D01*
X36537327Y-39720607D02*
X36309287Y-39315117D01*
X36754702Y-40131511D02*
X36537327Y-39720607D01*
X36960358Y-40548014D02*
X36754702Y-40131511D01*
X37153245Y-40970298D02*
X36960358Y-40548014D01*
X37332310Y-41398549D02*
X37153245Y-40970298D01*
X37496503Y-41832950D02*
X37332310Y-41398549D01*
X37644770Y-42273686D02*
X37496503Y-41832950D01*
X37776060Y-42720941D02*
X37644770Y-42273686D01*
X37889119Y-43174086D02*
X37776060Y-42720941D01*
X19511175Y-77384077D02*
X19623181Y-77394283D01*
X19397262Y-77368053D02*
X19511175Y-77384077D01*
X19283978Y-77346550D02*
X19397262Y-77368053D01*
X19171628Y-77319704D02*
X19283978Y-77346550D01*
X19060518Y-77287649D02*
X19171628Y-77319704D01*
X18950952Y-77250520D02*
X19060518Y-77287649D01*
X18843237Y-77208454D02*
X18950952Y-77250520D01*
X18737678Y-77161584D02*
X18843237Y-77208454D01*
X18634580Y-77110047D02*
X18737678Y-77161584D01*
X18534249Y-77053978D02*
X18634580Y-77110047D01*
X18436991Y-76993512D02*
X18534249Y-77053978D01*
X18343110Y-76928784D02*
X18436991Y-76993512D01*
X18252913Y-76859930D02*
X18343110Y-76928784D01*
X18166705Y-76787085D02*
X18252913Y-76859930D01*
X18084792Y-76710383D02*
X18166705Y-76787085D01*
X18007478Y-76629962D02*
X18084792Y-76710383D01*
X17935070Y-76545955D02*
X18007478Y-76629962D01*
X17867872Y-76458497D02*
X17935070Y-76545955D01*
X17806191Y-76367725D02*
X17867872Y-76458497D01*
X17750333Y-76273774D02*
X17806191Y-76367725D01*
X17700601Y-76176778D02*
X17750333Y-76273774D01*
X17657302Y-76076874D02*
X17700601Y-76176778D01*
X17620742Y-75974195D02*
X17657302Y-76076874D01*
X17591226Y-75868879D02*
X17620742Y-75974195D01*
X17569059Y-75761059D02*
X17591226Y-75868879D01*
X17554548Y-75650871D02*
X17569059Y-75761059D01*
X17547996Y-75538451D02*
X17554548Y-75650871D01*
X17549711Y-75423934D02*
X17547996Y-75538451D01*
X17559997Y-75307454D02*
X17549711Y-75423934D01*
X17579159Y-75189148D02*
X17559997Y-75307454D01*
X17607505Y-75069150D02*
X17579159Y-75189148D01*
X17645338Y-74947596D02*
X17607505Y-75069150D01*
X17654645Y-74873252D02*
X17645338Y-74947596D01*
X17669699Y-74798828D02*
X17654645Y-74873252D01*
X17689898Y-74724378D02*
X17669699Y-74798828D01*
X17714640Y-74649955D02*
X17689898Y-74724378D01*
X17743325Y-74575614D02*
X17714640Y-74649955D01*
X17775350Y-74501408D02*
X17743325Y-74575614D01*
X17847017Y-74353615D02*
X17775350Y-74501408D01*
X18003973Y-74062014D02*
X17847017Y-74353615D01*
X18079639Y-73919064D02*
X18003973Y-74062014D01*
X18147014Y-73778588D02*
X18079639Y-73919064D01*
X18176089Y-73709412D02*
X18147014Y-73778588D01*
X18201286Y-73641016D02*
X18176089Y-73709412D01*
X18222005Y-73573453D02*
X18201286Y-73641016D01*
X18237644Y-73506777D02*
X18222005Y-73573453D01*
X18247601Y-73441042D02*
X18237644Y-73506777D01*
X18251276Y-73376301D02*
X18247601Y-73441042D01*
X18248065Y-73312608D02*
X18251276Y-73376301D01*
X18237369Y-73250017D02*
X18248065Y-73312608D01*
X18218584Y-73188582D02*
X18237369Y-73250017D01*
X18191111Y-73128356D02*
X18218584Y-73188582D01*
X18154348Y-73069393D02*
X18191111Y-73128356D01*
X18107692Y-73011747D02*
X18154348Y-73069393D01*
X18050543Y-72955471D02*
X18107692Y-73011747D01*
X17982299Y-72900620D02*
X18050543Y-72955471D01*
X17902358Y-72847246D02*
X17982299Y-72900620D01*
X17810119Y-72795404D02*
X17902358Y-72847246D01*
X17526590Y-72414135D02*
X17810119Y-72795404D01*
X17255396Y-72021145D02*
X17526590Y-72414135D01*
X16997489Y-71617173D02*
X17255396Y-72021145D01*
X16753816Y-71202956D02*
X16997489Y-71617173D01*
X16525329Y-70779231D02*
X16753816Y-71202956D01*
X16312977Y-70346736D02*
X16525329Y-70779231D01*
X16117709Y-69906209D02*
X16312977Y-70346736D01*
X15940476Y-69458388D02*
X16117709Y-69906209D01*
X15782228Y-69004009D02*
X15940476Y-69458388D01*
X15643913Y-68543811D02*
X15782228Y-69004009D01*
X15526483Y-68078532D02*
X15643913Y-68543811D01*
X15430886Y-67608908D02*
X15526483Y-68078532D01*
X15358073Y-67135679D02*
X15430886Y-67608908D01*
X15308994Y-66659580D02*
X15358073Y-67135679D01*
X15284597Y-66181350D02*
X15308994Y-66659580D01*
X15285833Y-65701727D02*
X15284597Y-66181350D01*
X15255306Y-65320466D02*
X15285833Y-65701727D01*
X15244179Y-64940672D02*
X15255306Y-65320466D01*
X15251801Y-64562658D02*
X15244179Y-64940672D01*
X15277523Y-64186738D02*
X15251801Y-64562658D01*
X15320695Y-63813225D02*
X15277523Y-64186738D01*
X15380668Y-63442434D02*
X15320695Y-63813225D01*
X15456791Y-63074677D02*
X15380668Y-63442434D01*
X15548416Y-62710269D02*
X15456791Y-63074677D01*
X15654892Y-62349524D02*
X15548416Y-62710269D01*
X15775570Y-61992754D02*
X15654892Y-62349524D01*
X15909800Y-61640275D02*
X15775570Y-61992754D01*
X16056932Y-61292398D02*
X15909800Y-61640275D01*
X16216318Y-60949439D02*
X16056932Y-61292398D01*
X16387307Y-60611711D02*
X16216318Y-60949439D01*
X16569249Y-60279527D02*
X16387307Y-60611711D01*
X16761495Y-59953201D02*
X16569249Y-60279527D01*
X17064687Y-59556730D02*
X16761495Y-59953201D01*
X17210858Y-59350487D02*
X17064687Y-59556730D01*
X17350960Y-59139191D02*
X17210858Y-59350487D01*
X17483154Y-58923052D02*
X17350960Y-59139191D01*
X17605603Y-58702284D02*
X17483154Y-58923052D01*
X17716467Y-58477099D02*
X17605603Y-58702284D01*
X17813908Y-58247709D02*
X17716467Y-58477099D01*
X17896087Y-58014328D02*
X17813908Y-58247709D01*
X17961166Y-57777168D02*
X17896087Y-58014328D01*
X18007306Y-57536441D02*
X17961166Y-57777168D01*
X18022699Y-57414806D02*
X18007306Y-57536441D01*
X18032669Y-57292359D02*
X18022699Y-57414806D01*
X18036984Y-57169127D02*
X18032669Y-57292359D01*
X18035415Y-57045136D02*
X18036984Y-57169127D01*
X18027732Y-56920413D02*
X18035415Y-57045136D01*
X18013706Y-56794984D02*
X18027732Y-56920413D01*
X17993107Y-56668876D02*
X18013706Y-56794984D01*
X17965705Y-56542115D02*
X17993107Y-56668876D01*
X17931269Y-56414728D02*
X17965705Y-56542115D01*
X17889571Y-56286741D02*
X17931269Y-56414728D01*
X17544065Y-55407407D02*
X17889571Y-56286741D01*
X17381728Y-54964715D02*
X17544065Y-55407407D01*
X17230992Y-54518730D02*
X17381728Y-54964715D01*
X17095354Y-54068496D02*
X17230992Y-54518730D01*
X17034288Y-53841486D02*
X17095354Y-54068496D01*
X16978307Y-53613055D02*
X17034288Y-53841486D01*
X16927846Y-53383083D02*
X16978307Y-53613055D01*
X16883345Y-53151451D02*
X16927846Y-53383083D01*
X16845238Y-52918039D02*
X16883345Y-53151451D01*
X16813962Y-52682728D02*
X16845238Y-52918039D01*
X16525054Y-52292442D02*
X16813962Y-52682728D01*
X16240171Y-51894249D02*
X16525054Y-52292442D01*
X16101871Y-51691530D02*
X16240171Y-51894249D01*
X15967737Y-51486046D02*
X16101871Y-51691530D01*
X15838821Y-51277532D02*
X15967737Y-51486046D01*
X15716176Y-51065728D02*
X15838821Y-51277532D01*
X15600855Y-50850368D02*
X15716176Y-51065728D01*
X15493912Y-50631191D02*
X15600855Y-50850368D01*
X15396399Y-50407934D02*
X15493912Y-50631191D01*
X15309369Y-50180333D02*
X15396399Y-50407934D01*
X15233875Y-49948125D02*
X15309369Y-50180333D01*
X15170970Y-49711048D02*
X15233875Y-49948125D01*
X15121708Y-49468839D02*
X15170970Y-49711048D01*
X15087141Y-49221234D02*
X15121708Y-49468839D01*
X15057187Y-49075032D02*
X15087141Y-49221234D01*
X15037764Y-48929388D02*
X15057187Y-49075032D01*
X15028102Y-48784276D02*
X15037764Y-48929388D01*
X15027433Y-48639670D02*
X15028102Y-48784276D01*
X15034987Y-48495546D02*
X15027433Y-48639670D01*
X15049996Y-48351877D02*
X15034987Y-48495546D01*
X15099301Y-48065805D02*
X15049996Y-48351877D01*
X15169196Y-47781249D02*
X15099301Y-48065805D01*
X15253529Y-47498006D02*
X15169196Y-47781249D01*
X15440901Y-46934644D02*
X15253529Y-47498006D01*
X15531635Y-46654117D02*
X15440901Y-46934644D01*
X15612199Y-46374088D02*
X15531635Y-46654117D01*
X15676440Y-46094352D02*
X15612199Y-46374088D01*
X15700518Y-45954531D02*
X15676440Y-46094352D01*
X15718208Y-45814706D02*
X15700518Y-45954531D01*
X15728741Y-45674853D02*
X15718208Y-45814706D01*
X15731348Y-45534947D02*
X15728741Y-45674853D01*
X15725261Y-45394960D02*
X15731348Y-45534947D01*
X15709710Y-45254869D02*
X15725261Y-45394960D01*
X15683927Y-45114647D02*
X15709710Y-45254869D01*
X15647141Y-44974270D02*
X15683927Y-45114647D01*
X15598586Y-44833711D02*
X15647141Y-44974270D01*
X15537490Y-44692945D02*
X15598586Y-44833711D01*
X15485326Y-44426149D02*
X15537490Y-44692945D01*
X15445221Y-44159191D02*
X15485326Y-44426149D01*
X15416868Y-43892241D02*
X15445221Y-44159191D01*
X15399958Y-43625469D02*
X15416868Y-43892241D01*
X15394182Y-43359044D02*
X15399958Y-43625469D01*
X15399234Y-43093136D02*
X15394182Y-43359044D01*
X15414803Y-42827915D02*
X15399234Y-43093136D01*
X15440584Y-42563551D02*
X15414803Y-42827915D01*
X15521543Y-42038074D02*
X15440584Y-42563551D01*
X15639645Y-41518063D02*
X15521543Y-42038074D01*
X15792426Y-41004876D02*
X15639645Y-41518063D01*
X15977420Y-40499874D02*
X15792426Y-41004876D01*
X16192161Y-40004414D02*
X15977420Y-40499874D01*
X16434185Y-39519855D02*
X16192161Y-40004414D01*
X16701026Y-39047556D02*
X16434185Y-39519855D01*
X16990219Y-38588875D02*
X16701026Y-39047556D01*
X17299297Y-38145173D02*
X16990219Y-38588875D01*
X17625797Y-37717806D02*
X17299297Y-38145173D01*
X17967253Y-37308135D02*
X17625797Y-37717806D01*
X18321199Y-36917518D02*
X17967253Y-37308135D01*
X17924631Y-36508158D02*
X18321199Y-36917518D01*
X17540514Y-36085509D02*
X17924631Y-36508158D01*
X17354620Y-35868730D02*
X17540514Y-36085509D01*
X17173634Y-35648064D02*
X17354620Y-35868730D01*
X16998155Y-35423320D02*
X17173634Y-35648064D01*
X16828780Y-35194312D02*
X16998155Y-35423320D01*
X16666108Y-34960850D02*
X16828780Y-35194312D01*
X16510737Y-34722746D02*
X16666108Y-34960850D01*
X16363267Y-34479811D02*
X16510737Y-34722746D01*
X16224294Y-34231857D02*
X16363267Y-34479811D01*
X16094419Y-33978695D02*
X16224294Y-34231857D01*
X15974238Y-33720136D02*
X16094419Y-33978695D01*
X15864351Y-33455992D02*
X15974238Y-33720136D01*
X15765355Y-33186075D02*
X15864351Y-33455992D01*
X15676924Y-32996105D02*
X15765355Y-33186075D01*
X15597863Y-32804818D02*
X15676924Y-32996105D01*
X15527900Y-32612316D02*
X15597863Y-32804818D01*
X15466765Y-32418700D02*
X15527900Y-32612316D01*
X15369900Y-32028531D02*
X15466765Y-32418700D01*
X15305106Y-31635120D02*
X15369900Y-32028531D01*
X15270221Y-31239277D02*
X15305106Y-31635120D01*
X15263082Y-30841811D02*
X15270221Y-31239277D01*
X15281529Y-30443532D02*
X15263082Y-30841811D01*
X15323400Y-30045250D02*
X15281529Y-30443532D01*
X15386532Y-29647775D02*
X15323400Y-30045250D01*
X15468763Y-29251915D02*
X15386532Y-29647775D01*
X15567932Y-28858481D02*
X15468763Y-29251915D01*
X15681876Y-28468283D02*
X15567932Y-28858481D01*
X15808434Y-28082129D02*
X15681876Y-28468283D01*
X15945444Y-27700830D02*
X15808434Y-28082129D01*
X16242173Y-26956035D02*
X15945444Y-27700830D01*
X16032803Y-26497825D02*
X16242173Y-26956035D01*
X15840591Y-26033389D02*
X16032803Y-26497825D01*
X15665022Y-25563206D02*
X15840591Y-26033389D01*
X15505582Y-25087758D02*
X15665022Y-25563206D01*
X15361755Y-24607523D02*
X15505582Y-25087758D01*
X15233029Y-24122983D02*
X15361755Y-24607523D01*
X15118888Y-23634617D02*
X15233029Y-24122983D01*
X15018819Y-23142905D02*
X15118888Y-23634617D01*
X14932307Y-22648328D02*
X15018819Y-23142905D01*
X14858837Y-22151365D02*
X14932307Y-22648328D01*
X14797896Y-21652497D02*
X14858837Y-22151365D01*
X14748968Y-21152203D02*
X14797896Y-21652497D01*
X14711541Y-20650964D02*
X14748968Y-21152203D01*
X14685098Y-20149260D02*
X14711541Y-20650964D01*
X14663113Y-19146376D02*
X14685098Y-20149260D01*
X14695245Y-18435264D02*
X14663113Y-19146376D01*
X14736235Y-17697980D02*
X14695245Y-18435264D01*
X14766599Y-17325328D02*
X14736235Y-17697980D01*
X14807036Y-16953098D02*
X14766599Y-17325328D01*
X14860165Y-16583612D02*
X14807036Y-16953098D01*
X14928606Y-16219192D02*
X14860165Y-16583612D01*
X15014978Y-15862159D02*
X14928606Y-16219192D01*
X15121900Y-15514835D02*
X15014978Y-15862159D01*
X15251992Y-15179542D02*
X15121900Y-15514835D01*
X15326545Y-15017133D02*
X15251992Y-15179542D01*
X15407873Y-14858602D02*
X15326545Y-15017133D01*
X15496303Y-14704239D02*
X15407873Y-14858602D01*
X15592163Y-14554335D02*
X15496303Y-14704239D01*
X15695780Y-14409180D02*
X15592163Y-14554335D01*
X15807481Y-14269064D02*
X15695780Y-14409180D01*
X15927594Y-14134278D02*
X15807481Y-14269064D01*
X16056447Y-14005111D02*
X15927594Y-14134278D01*
X16194366Y-13881854D02*
X16056447Y-14005111D01*
X16341680Y-13764797D02*
X16194366Y-13881854D01*
X16432737Y-13765671D02*
X16341680Y-13764797D01*
X16522736Y-13771337D02*
X16432737Y-13765671D01*
X16611717Y-13781571D02*
X16522736Y-13771337D01*
X16699716Y-13796147D02*
X16611717Y-13781571D01*
X16786772Y-13814842D02*
X16699716Y-13796147D01*
X16872922Y-13837430D02*
X16786772Y-13814842D01*
X16958204Y-13863687D02*
X16872922Y-13837430D01*
X17042656Y-13893387D02*
X16958204Y-13863687D01*
X17209220Y-13962223D02*
X17042656Y-13893387D01*
X17372917Y-14042138D02*
X17209220Y-13962223D01*
X17534049Y-14131337D02*
X17372917Y-14042138D01*
X17692917Y-14228020D02*
X17534049Y-14131337D01*
X17849825Y-14330392D02*
X17692917Y-14228020D01*
X18005074Y-14436654D02*
X17849825Y-14330392D01*
X18311806Y-14653659D02*
X18005074Y-14436654D01*
X18615530Y-14864656D02*
X18311806Y-14653659D01*
X18767020Y-14963408D02*
X18615530Y-14864656D01*
X18918664Y-15055266D02*
X18767020Y-14963408D01*
X19684669Y-15667235D02*
X18918664Y-15055266D01*
X20062308Y-15984516D02*
X19684669Y-15667235D01*
X20434787Y-16309703D02*
X20062308Y-15984516D01*
X20800919Y-16643077D02*
X20434787Y-16309703D01*
X21159514Y-16984919D02*
X20800919Y-16643077D01*
X21509384Y-17335511D02*
X21159514Y-16984919D01*
X21849342Y-17695134D02*
X21509384Y-17335511D01*
X22178199Y-18064069D02*
X21849342Y-17695134D01*
X22494766Y-18442598D02*
X22178199Y-18064069D01*
X22797855Y-18831001D02*
X22494766Y-18442598D01*
X23086278Y-19229561D02*
X22797855Y-18831001D01*
X23358846Y-19638557D02*
X23086278Y-19229561D01*
X23614372Y-20058272D02*
X23358846Y-19638557D01*
X23851667Y-20488987D02*
X23614372Y-20058272D01*
X24069543Y-20930982D02*
X23851667Y-20488987D01*
X24182069Y-20930982D02*
X24069543Y-20930982D01*
X37924847Y-43150215D02*
X37889119Y-43174086D01*
X37961877Y-43128207D02*
X37924847Y-43150215D01*
X38039610Y-43089536D02*
X37961877Y-43128207D01*
X38121764Y-43057639D02*
X38039610Y-43089536D01*
X38207771Y-43032093D02*
X38121764Y-43057639D01*
X38297060Y-43012474D02*
X38207771Y-43032093D01*
X38389062Y-42998358D02*
X38297060Y-43012474D01*
X38483208Y-42989323D02*
X38389062Y-42998358D01*
X38578927Y-42984943D02*
X38483208Y-42989323D01*
X38675650Y-42984797D02*
X38578927Y-42984943D01*
X38772808Y-42988460D02*
X38675650Y-42984797D01*
X38869831Y-42995508D02*
X38772808Y-42988460D01*
X38966149Y-43005519D02*
X38869831Y-42995508D01*
X39061193Y-43018068D02*
X38966149Y-43005519D01*
X39154393Y-43032733D02*
X39061193Y-43018068D01*
X39332984Y-43066712D02*
X39154393Y-43032733D01*
X39358847Y-42814400D02*
X39332984Y-43066712D01*
X39397894Y-42564417D02*
X39358847Y-42814400D01*
X39449743Y-42317177D02*
X39397894Y-42564417D01*
X39514015Y-42073094D02*
X39449743Y-42317177D01*
X39590328Y-41832583D02*
X39514015Y-42073094D01*
X39678301Y-41596056D02*
X39590328Y-41832583D01*
X39777555Y-41363929D02*
X39678301Y-41596056D01*
X39887709Y-41136615D02*
X39777555Y-41363929D01*
X40008382Y-40914527D02*
X39887709Y-41136615D01*
X40139194Y-40698081D02*
X40008382Y-40914527D01*
X40279764Y-40487690D02*
X40139194Y-40698081D01*
X40429711Y-40283767D02*
X40279764Y-40487690D01*
X40588655Y-40086728D02*
X40429711Y-40283767D01*
X40756215Y-39896985D02*
X40588655Y-40086728D01*
X40932011Y-39714954D02*
X40756215Y-39896985D01*
X41115663Y-39541047D02*
X40932011Y-39714954D01*
X41306789Y-39375679D02*
X41115663Y-39541047D01*
X41505009Y-39219264D02*
X41306789Y-39375679D01*
X41709942Y-39072216D02*
X41505009Y-39219264D01*
X41921208Y-38934949D02*
X41709942Y-39072216D01*
X42138427Y-38807877D02*
X41921208Y-38934949D01*
X42361217Y-38691413D02*
X42138427Y-38807877D01*
X42589199Y-38585972D02*
X42361217Y-38691413D01*
X42821991Y-38491968D02*
X42589199Y-38585972D01*
X43059213Y-38409814D02*
X42821991Y-38491968D01*
X43300485Y-38339925D02*
X43059213Y-38409814D01*
X43545425Y-38282715D02*
X43300485Y-38339925D01*
X43793654Y-38238598D02*
X43545425Y-38282715D01*
X44044791Y-38207987D02*
X43793654Y-38238598D01*
X44298455Y-38191297D02*
X44044791Y-38207987D01*
X44554265Y-38188941D02*
X44298455Y-38191297D01*
X44811841Y-38201334D02*
X44554265Y-38188941D01*
X45202960Y-38228826D02*
X44811841Y-38201334D01*
X45584608Y-38284568D02*
X45202960Y-38228826D01*
X45956243Y-38367365D02*
X45584608Y-38284568D01*
X46317324Y-38476024D02*
X45956243Y-38367365D01*
X46667309Y-38609351D02*
X46317324Y-38476024D01*
X47005655Y-38766153D02*
X46667309Y-38609351D01*
X47331822Y-38945236D02*
X47005655Y-38766153D01*
X47645267Y-39145407D02*
X47331822Y-38945236D01*
X47945448Y-39365472D02*
X47645267Y-39145407D01*
X48231824Y-39604237D02*
X47945448Y-39365472D01*
X48503853Y-39860509D02*
X48231824Y-39604237D01*
X48760994Y-40133094D02*
X48503853Y-39860509D01*
X49002704Y-40420799D02*
X48760994Y-40133094D01*
X49228441Y-40722430D02*
X49002704Y-40420799D01*
X49437664Y-41036793D02*
X49228441Y-40722430D01*
X49629831Y-41362696D02*
X49437664Y-41036793D01*
X49804401Y-41698944D02*
X49629831Y-41362696D01*
X49960831Y-42044344D02*
X49804401Y-41698944D01*
X50098579Y-42397702D02*
X49960831Y-42044344D01*
X50217105Y-42757825D02*
X50098579Y-42397702D01*
X50315865Y-43123519D02*
X50217105Y-42757825D01*
X50394319Y-43493591D02*
X50315865Y-43123519D01*
X50451924Y-43866847D02*
X50394319Y-43493591D01*
X50488139Y-44242093D02*
X50451924Y-43866847D01*
X50502422Y-44618136D02*
X50488139Y-44242093D01*
X50494231Y-44993782D02*
X50502422Y-44618136D01*
X50463024Y-45367838D02*
X50494231Y-44993782D01*
X50408260Y-45739110D02*
X50463024Y-45367838D01*
X50329397Y-46106405D02*
X50408260Y-45739110D01*
X50225893Y-46468528D02*
X50329397Y-46106405D01*
X50097205Y-46824288D02*
X50225893Y-46468528D01*
X49942793Y-47172489D02*
X50097205Y-46824288D01*
X49899823Y-47275594D02*
X49942793Y-47172489D01*
X49852259Y-47374964D02*
X49899823Y-47275594D01*
X49800276Y-47470565D02*
X49852259Y-47374964D01*
X49744047Y-47562363D02*
X49800276Y-47470565D01*
X49683747Y-47650326D02*
X49744047Y-47562363D01*
X49619552Y-47734419D02*
X49683747Y-47650326D01*
X49551634Y-47814609D02*
X49619552Y-47734419D01*
X49480170Y-47890862D02*
X49551634Y-47814609D01*
X49405332Y-47963145D02*
X49480170Y-47890862D01*
X49327295Y-48031425D02*
X49405332Y-47963145D01*
X49246235Y-48095668D02*
X49327295Y-48031425D01*
X49162324Y-48155840D02*
X49246235Y-48095668D01*
X49075739Y-48211908D02*
X49162324Y-48155840D01*
X48986652Y-48263838D02*
X49075739Y-48211908D01*
X48895239Y-48311598D02*
X48986652Y-48263838D01*
X48801674Y-48355152D02*
X48895239Y-48311598D01*
X48608785Y-48429513D02*
X48801674Y-48355152D01*
X48409381Y-48486654D02*
X48608785Y-48429513D01*
X48204856Y-48526306D02*
X48409381Y-48486654D01*
X47996608Y-48548201D02*
X48204856Y-48526306D01*
X47786030Y-48552071D02*
X47996608Y-48548201D01*
X47574518Y-48537648D02*
X47786030Y-48552071D01*
X47363467Y-48504663D02*
X47574518Y-48537648D01*
X47258551Y-48481127D02*
X47363467Y-48504663D01*
X47154273Y-48452850D02*
X47258551Y-48481127D01*
X46937172Y-48305457D02*
X47154273Y-48452850D01*
X46724463Y-48133207D02*
X46937172Y-48305457D01*
X46519301Y-47938831D02*
X46724463Y-48133207D01*
X46324838Y-47725059D02*
X46519301Y-47938831D01*
X46144225Y-47494622D02*
X46324838Y-47725059D01*
X45980617Y-47250250D02*
X46144225Y-47494622D01*
X45837166Y-46994674D02*
X45980617Y-47250250D01*
X45773984Y-46863538D02*
X45837166Y-46994674D01*
X45717024Y-46730624D02*
X45773984Y-46863538D01*
X45666680Y-46596275D02*
X45717024Y-46730624D01*
X45623345Y-46460831D02*
X45666680Y-46596275D01*
X45587413Y-46324634D02*
X45623345Y-46460831D01*
X45559280Y-46188025D02*
X45587413Y-46324634D01*
X45539339Y-46051346D02*
X45559280Y-46188025D01*
X45527983Y-45914937D02*
X45539339Y-46051346D01*
X45525608Y-45779140D02*
X45527983Y-45914937D01*
X45532607Y-45644297D02*
X45525608Y-45779140D01*
X45549374Y-45510749D02*
X45532607Y-45644297D01*
X45576304Y-45378836D02*
X45549374Y-45510749D01*
X45613790Y-45248901D02*
X45576304Y-45378836D01*
X45662226Y-45121284D02*
X45613790Y-45248901D01*
X45722007Y-44996328D02*
X45662226Y-45121284D01*
X45793527Y-44874372D02*
X45722007Y-44996328D01*
X45877180Y-44755760D02*
X45793527Y-44874372D01*
X45973360Y-44640831D02*
X45877180Y-44755760D01*
X46038246Y-44581190D02*
X45973360Y-44640831D01*
X46102397Y-44531417D02*
X46038246Y-44581190D01*
X46165853Y-44490983D02*
X46102397Y-44531417D01*
X46228653Y-44459362D02*
X46165853Y-44490983D01*
X46290839Y-44436024D02*
X46228653Y-44459362D01*
X46352451Y-44420443D02*
X46290839Y-44436024D01*
X46413528Y-44412091D02*
X46352451Y-44420443D01*
X46474112Y-44410439D02*
X46413528Y-44412091D01*
X46534242Y-44414960D02*
X46474112Y-44410439D01*
X46593960Y-44425126D02*
X46534242Y-44414960D01*
X46653305Y-44440410D02*
X46593960Y-44425126D01*
X46712318Y-44460282D02*
X46653305Y-44440410D01*
X46771039Y-44484216D02*
X46712318Y-44460282D01*
X46829508Y-44511684D02*
X46771039Y-44484216D01*
X46945853Y-44575110D02*
X46829508Y-44511684D01*
X47061676Y-44646336D02*
X46945853Y-44575110D01*
X47177300Y-44721141D02*
X47061676Y-44646336D01*
X47293048Y-44795301D02*
X47177300Y-44721141D01*
X47409242Y-44864595D02*
X47293048Y-44795301D01*
X47467607Y-44896097D02*
X47409242Y-44864595D01*
X47526205Y-44924798D02*
X47467607Y-44896097D01*
X47585076Y-44950172D02*
X47526205Y-44924798D01*
X47644260Y-44971690D02*
X47585076Y-44950172D01*
X47703798Y-44988824D02*
X47644260Y-44971690D01*
X47763730Y-45001047D02*
X47703798Y-44988824D01*
X47824096Y-45007830D02*
X47763730Y-45001047D01*
X47884937Y-45008646D02*
X47824096Y-45007830D01*
X47945123Y-44924630D02*
X47884937Y-45008646D01*
X47993990Y-44840058D02*
X47945123Y-44924630D01*
X48031977Y-44755160D02*
X47993990Y-44840058D01*
X48059526Y-44670163D02*
X48031977Y-44755160D01*
X48077076Y-44585296D02*
X48059526Y-44670163D01*
X48085069Y-44500787D02*
X48077076Y-44585296D01*
X48083945Y-44416865D02*
X48085069Y-44500787D01*
X48074144Y-44333758D02*
X48083945Y-44416865D01*
X48056107Y-44251694D02*
X48074144Y-44333758D01*
X48030275Y-44170903D02*
X48056107Y-44251694D01*
X47997088Y-44091612D02*
X48030275Y-44170903D01*
X47956987Y-44014049D02*
X47997088Y-44091612D01*
X47910411Y-43938445D02*
X47956987Y-44014049D01*
X47857803Y-43865026D02*
X47910411Y-43938445D01*
X47799602Y-43794021D02*
X47857803Y-43865026D01*
X47736248Y-43725658D02*
X47799602Y-43794021D01*
X47668183Y-43660167D02*
X47736248Y-43725658D01*
X47595847Y-43597775D02*
X47668183Y-43660167D01*
X47519680Y-43538712D02*
X47595847Y-43597775D01*
X47440124Y-43483204D02*
X47519680Y-43538712D01*
X47357618Y-43431482D02*
X47440124Y-43483204D01*
X47272602Y-43383772D02*
X47357618Y-43431482D01*
X47185519Y-43340304D02*
X47272602Y-43383772D01*
X47096808Y-43301307D02*
X47185519Y-43340304D01*
X47006909Y-43267008D02*
X47096808Y-43301307D01*
X46916264Y-43237636D02*
X47006909Y-43267008D01*
X46825312Y-43213419D02*
X46916264Y-43237636D01*
X46734495Y-43194586D02*
X46825312Y-43213419D01*
X46644252Y-43181366D02*
X46734495Y-43194586D01*
X46555025Y-43173986D02*
X46644252Y-43181366D01*
X46467254Y-43172675D02*
X46555025Y-43173986D01*
X46381380Y-43177662D02*
X46467254Y-43172675D01*
X46217866Y-43184033D02*
X46381380Y-43177662D01*
X46063308Y-43203569D02*
X46217866Y-43184033D01*
X45917572Y-43235644D02*
X46063308Y-43203569D01*
X45780524Y-43279630D02*
X45917572Y-43235644D01*
X45652031Y-43334897D02*
X45780524Y-43279630D01*
X45531958Y-43400819D02*
X45652031Y-43334897D01*
X45420172Y-43476767D02*
X45531958Y-43400819D01*
X45316538Y-43562114D02*
X45420172Y-43476767D01*
X45220923Y-43656231D02*
X45316538Y-43562114D01*
X45133194Y-43758490D02*
X45220923Y-43656231D01*
X45053215Y-43868265D02*
X45133194Y-43758490D01*
X44980854Y-43984926D02*
X45053215Y-43868265D01*
X44915976Y-44107845D02*
X44980854Y-43984926D01*
X44858448Y-44236396D02*
X44915976Y-44107845D01*
X44808135Y-44369949D02*
X44858448Y-44236396D01*
X44764904Y-44507877D02*
X44808135Y-44369949D01*
X44728621Y-44649552D02*
X44764904Y-44507877D01*
X44699152Y-44794346D02*
X44728621Y-44649552D01*
X44660120Y-45090780D02*
X44699152Y-44794346D01*
X44646738Y-45392154D02*
X44660120Y-45090780D01*
X44657935Y-45693445D02*
X44646738Y-45392154D01*
X44692640Y-45989630D02*
X44657935Y-45693445D01*
X44749781Y-46275685D02*
X44692640Y-45989630D01*
X44828288Y-46546586D02*
X44749781Y-46275685D01*
X44927090Y-46797310D02*
X44828288Y-46546586D01*
X45056271Y-47035526D02*
X44927090Y-46797310D01*
X45193185Y-47268422D02*
X45056271Y-47035526D01*
X45487945Y-47719816D02*
X45193185Y-47268422D01*
X45806833Y-48154626D02*
X45487945Y-47719816D01*
X46145310Y-48575983D02*
X45806833Y-48154626D01*
X46498839Y-48987019D02*
X46145310Y-48575983D01*
X46862883Y-49390866D02*
X46498839Y-48987019D01*
X47604361Y-50189522D02*
X46862883Y-49390866D01*
X47972720Y-50590594D02*
X47604361Y-50189522D01*
X48333442Y-50997006D02*
X47972720Y-50590594D01*
X48681989Y-51411889D02*
X48333442Y-50997006D01*
X49013823Y-51838374D02*
X48681989Y-51411889D01*
X49324407Y-52279595D02*
X49013823Y-51838374D01*
X49609202Y-52738683D02*
X49324407Y-52279595D01*
X49740511Y-52975905D02*
X49609202Y-52738683D01*
X49863672Y-53218769D02*
X49740511Y-52975905D01*
X49978116Y-53467666D02*
X49863672Y-53218769D01*
X50083277Y-53722987D02*
X49978116Y-53467666D01*
X50292829Y-54178933D02*
X50083277Y-53722987D01*
X50471640Y-54642111D02*
X50292829Y-54178933D01*
X50621796Y-55111810D02*
X50471640Y-54642111D01*
X50745386Y-55587319D02*
X50621796Y-55111810D01*
X50844498Y-56067927D02*
X50745386Y-55587319D01*
X50921218Y-56552925D02*
X50844498Y-56067927D01*
X50977636Y-57041601D02*
X50921218Y-56552925D01*
X51015838Y-57533244D02*
X50977636Y-57041601D01*
X51037913Y-58027145D02*
X51015838Y-57533244D01*
X51045948Y-58522592D02*
X51037913Y-58027145D01*
X51028251Y-59515284D02*
X51045948Y-58522592D01*
X50979449Y-60505634D02*
X51028251Y-59515284D01*
X50916243Y-61487957D02*
X50979449Y-60505634D01*
X50716741Y-62594563D02*
X50916243Y-61487957D01*
X50463674Y-63695788D02*
X50716741Y-62594563D01*
X50157342Y-64787555D02*
X50463674Y-63695788D01*
X49798044Y-65865785D02*
X50157342Y-64787555D01*
X49386079Y-66926400D02*
X49798044Y-65865785D01*
X48921745Y-67965322D02*
X49386079Y-66926400D01*
X48405343Y-68978473D02*
X48921745Y-67965322D01*
X47837170Y-69961774D02*
X48405343Y-68978473D01*
X47217527Y-70911148D02*
X47837170Y-69961774D01*
X46546711Y-71822515D02*
X47217527Y-70911148D01*
X45825023Y-72691799D02*
X46546711Y-71822515D01*
X45052760Y-73514920D02*
X45825023Y-72691799D01*
X44647757Y-73907895D02*
X45052760Y-73514920D01*
X44230223Y-74287801D02*
X44647757Y-73907895D01*
X43800195Y-74654126D02*
X44230223Y-74287801D01*
X43357710Y-75006362D02*
X43800195Y-74654126D01*
X42902806Y-75343999D02*
X43357710Y-75006362D01*
X42435520Y-75666527D02*
X42902806Y-75343999D01*
X41955890Y-75973436D02*
X42435520Y-75666527D01*
X41463953Y-76264217D02*
X41955890Y-75973436D01*
X40921191Y-76544645D02*
X41463953Y-76264217D01*
X40361723Y-76813331D02*
X40921191Y-76544645D01*
X39787579Y-77066727D02*
X40361723Y-76813331D01*
X39200791Y-77301288D02*
X39787579Y-77066727D01*
X38603391Y-77513466D02*
X39200791Y-77301288D01*
X37997411Y-77699713D02*
X38603391Y-77513466D01*
X37384881Y-77856483D02*
X37997411Y-77699713D01*
X36767835Y-77980228D02*
X37384881Y-77856483D01*
X36148302Y-78067402D02*
X36767835Y-77980228D01*
X35528316Y-78114457D02*
X36148302Y-78067402D01*
X34909907Y-78117847D02*
X35528316Y-78114457D01*
X34295107Y-78074023D02*
X34909907Y-78117847D01*
X33685948Y-77979439D02*
X34295107Y-78074023D01*
X33384119Y-77912004D02*
X33685948Y-77979439D01*
X33084462Y-77830549D02*
X33384119Y-77912004D01*
X32787231Y-77734630D02*
X33084462Y-77830549D01*
X32492679Y-77623804D02*
X32787231Y-77734630D01*
X32201062Y-77497627D02*
X32492679Y-77623804D01*
X31912632Y-77355657D02*
X32201062Y-77497627D01*
X31721119Y-77379888D02*
X31912632Y-77355657D01*
X31530420Y-77414869D02*
X31721119Y-77379888D01*
X31340313Y-77458683D02*
X31530420Y-77414869D01*
X31150576Y-77509411D02*
X31340313Y-77458683D01*
X30390898Y-77743064D02*
X31150576Y-77509411D01*
X30199687Y-77799567D02*
X30390898Y-77743064D01*
X30007515Y-77851467D02*
X30199687Y-77799567D01*
X29814161Y-77896845D02*
X30007515Y-77851467D01*
X29619402Y-77933782D02*
X29814161Y-77896845D01*
X29423018Y-77960358D02*
X29619402Y-77933782D01*
X29224786Y-77974654D02*
X29423018Y-77960358D01*
X29024485Y-77974751D02*
X29224786Y-77974654D01*
X28923489Y-77968875D02*
X29024485Y-77974751D01*
X28821893Y-77958729D02*
X28923489Y-77968875D01*
X28699564Y-77972217D02*
X28821893Y-77958729D01*
X28577705Y-77978140D02*
X28699564Y-77972217D01*
X28456297Y-77977108D02*
X28577705Y-77978140D01*
X28335318Y-77969730D02*
X28456297Y-77977108D01*
X28214748Y-77956616D02*
X28335318Y-77969730D01*
X28094567Y-77938376D02*
X28214748Y-77956616D01*
X27855289Y-77888957D02*
X28094567Y-77938376D01*
X27617321Y-77826352D02*
X27855289Y-77888957D01*
X27380499Y-77755439D02*
X27617321Y-77826352D01*
X26909641Y-77608203D02*
X27380499Y-77755439D01*
X26675279Y-77541636D02*
X26909641Y-77608203D01*
X26441410Y-77486275D02*
X26675279Y-77541636D01*
X26207871Y-77446999D02*
X26441410Y-77486275D01*
X26091174Y-77434917D02*
X26207871Y-77446999D01*
X25974498Y-77428685D02*
X26091174Y-77434917D01*
X25857823Y-77428914D02*
X25974498Y-77428685D01*
X25741128Y-77436212D02*
X25857823Y-77428914D01*
X25624393Y-77451191D02*
X25741128Y-77436212D01*
X25507598Y-77474459D02*
X25624393Y-77451191D01*
X25390722Y-77506627D02*
X25507598Y-77474459D01*
X25273745Y-77548304D02*
X25390722Y-77506627D01*
X25156646Y-77600100D02*
X25273745Y-77548304D01*
X25039405Y-77662625D02*
X25156646Y-77600100D01*
X24810610Y-77698118D02*
X25039405Y-77662625D01*
X24581258Y-77726001D02*
X24810610Y-77698118D01*
X24351398Y-77746753D02*
X24581258Y-77726001D01*
X24121080Y-77760853D02*
X24351398Y-77746753D01*
X23890351Y-77768779D02*
X24121080Y-77760853D01*
X23659262Y-77771011D02*
X23890351Y-77768779D01*
X23427862Y-77768027D02*
X23659262Y-77771011D01*
X23199257Y-77760408D02*
X23427862Y-77768027D01*
X19542564Y-79645220D02*
X19524374Y-79645116D01*
X19565374Y-79645218D02*
X19542564Y-79645220D01*
X19568349Y-79645106D02*
X19565374Y-79645218D01*
X19571125Y-79644798D02*
X19568349Y-79645106D01*
X19573710Y-79644306D02*
X19571125Y-79644798D01*
X19576110Y-79643642D02*
X19573710Y-79644306D01*
X19578332Y-79642818D02*
X19576110Y-79643642D01*
X19580383Y-79641847D02*
X19578332Y-79642818D01*
X19582269Y-79640740D02*
X19580383Y-79641847D01*
X19583998Y-79639508D02*
X19582269Y-79640740D01*
X19585577Y-79638166D02*
X19583998Y-79639508D01*
X19587012Y-79636723D02*
X19585577Y-79638166D01*
X19588309Y-79635193D02*
X19587012Y-79636723D01*
X19589477Y-79633587D02*
X19588309Y-79635193D01*
X19590521Y-79631918D02*
X19589477Y-79633587D01*
X19591449Y-79630197D02*
X19590521Y-79631918D01*
X19592266Y-79628437D02*
X19591449Y-79630197D01*
X19592981Y-79626649D02*
X19592266Y-79628437D01*
X19593600Y-79624845D02*
X19592981Y-79626649D01*
X19594129Y-79623039D02*
X19593600Y-79624845D01*
X19594948Y-79619463D02*
X19594129Y-79623039D01*
X19595490Y-79616018D02*
X19594948Y-79619463D01*
X19595812Y-79612800D02*
X19595490Y-79616018D01*
X19595967Y-79609906D02*
X19595812Y-79612800D01*
X19596011Y-79607431D02*
X19595967Y-79609906D01*
X19595980Y-79604124D02*
X19596011Y-79607431D01*
X19595980Y-79530970D02*
X19595980Y-79604124D01*
X19623181Y-77394283D02*
X19595980Y-79530970D01*
X52568655Y-79644657D02*
X23199257Y-79644657D01*
X52568655Y-12250000D02*
X52568655Y-79644657D01*
X27891990Y-12250000D02*
X52568655Y-12250000D01*
X56083025Y-7264578D02*
X56056243Y-84637884D01*
X9636142Y-84641409D01*
X9650489Y-7258236D01*
X56083025Y-7264578D01*
X19507982Y-79644930D02*
X19508898Y-79644657D01*
X19524374Y-79645116D02*
X19507982Y-79644930D01*
M02*
