%TF.GenerationSoftware,KiCad,Pcbnew,8.0.4*%
%TF.CreationDate,2024-08-14T00:32:59+03:00*%
%TF.ProjectId,purrChesh,70757272-4368-4657-9368-2e6b69636164,rev?*%
%TF.SameCoordinates,Original*%
%TF.FileFunction,Legend,Bot*%
%TF.FilePolarity,Positive*%
%FSLAX46Y46*%
G04 Gerber Fmt 4.6, Leading zero omitted, Abs format (unit mm)*
G04 Created by KiCad (PCBNEW 8.0.4) date 2024-08-14 00:32:59*
%MOMM*%
%LPD*%
G01*
G04 APERTURE LIST*
%ADD10C,0.150000*%
%ADD11C,0.120000*%
G04 APERTURE END LIST*
D10*
X18420000Y-39710000D02*
X34420000Y-39710000D01*
X34420000Y-60710000D01*
X18420000Y-60710000D01*
X18420000Y-39710000D01*
X44770000Y-48260000D02*
G75*
G02*
X34770000Y-48260000I-5000000J0D01*
G01*
X34770000Y-48260000D02*
G75*
G02*
X44770000Y-48260000I5000000J0D01*
G01*
X31891904Y-60904819D02*
X31891904Y-61714342D01*
X31891904Y-61714342D02*
X31844285Y-61809580D01*
X31844285Y-61809580D02*
X31796666Y-61857200D01*
X31796666Y-61857200D02*
X31701428Y-61904819D01*
X31701428Y-61904819D02*
X31510952Y-61904819D01*
X31510952Y-61904819D02*
X31415714Y-61857200D01*
X31415714Y-61857200D02*
X31368095Y-61809580D01*
X31368095Y-61809580D02*
X31320476Y-61714342D01*
X31320476Y-61714342D02*
X31320476Y-60904819D01*
X30891904Y-61000057D02*
X30844285Y-60952438D01*
X30844285Y-60952438D02*
X30749047Y-60904819D01*
X30749047Y-60904819D02*
X30510952Y-60904819D01*
X30510952Y-60904819D02*
X30415714Y-60952438D01*
X30415714Y-60952438D02*
X30368095Y-61000057D01*
X30368095Y-61000057D02*
X30320476Y-61095295D01*
X30320476Y-61095295D02*
X30320476Y-61190533D01*
X30320476Y-61190533D02*
X30368095Y-61333390D01*
X30368095Y-61333390D02*
X30939523Y-61904819D01*
X30939523Y-61904819D02*
X30320476Y-61904819D01*
X22684819Y-33707142D02*
X22208628Y-33373809D01*
X22684819Y-33135714D02*
X21684819Y-33135714D01*
X21684819Y-33135714D02*
X21684819Y-33516666D01*
X21684819Y-33516666D02*
X21732438Y-33611904D01*
X21732438Y-33611904D02*
X21780057Y-33659523D01*
X21780057Y-33659523D02*
X21875295Y-33707142D01*
X21875295Y-33707142D02*
X22018152Y-33707142D01*
X22018152Y-33707142D02*
X22113390Y-33659523D01*
X22113390Y-33659523D02*
X22161009Y-33611904D01*
X22161009Y-33611904D02*
X22208628Y-33516666D01*
X22208628Y-33516666D02*
X22208628Y-33135714D01*
X22684819Y-34659523D02*
X22684819Y-34088095D01*
X22684819Y-34373809D02*
X21684819Y-34373809D01*
X21684819Y-34373809D02*
X21827676Y-34278571D01*
X21827676Y-34278571D02*
X21922914Y-34183333D01*
X21922914Y-34183333D02*
X21970533Y-34088095D01*
X22684819Y-35611904D02*
X22684819Y-35040476D01*
X22684819Y-35326190D02*
X21684819Y-35326190D01*
X21684819Y-35326190D02*
X21827676Y-35230952D01*
X21827676Y-35230952D02*
X21922914Y-35135714D01*
X21922914Y-35135714D02*
X21970533Y-35040476D01*
X26001904Y-61104819D02*
X26001904Y-61914342D01*
X26001904Y-61914342D02*
X25954285Y-62009580D01*
X25954285Y-62009580D02*
X25906666Y-62057200D01*
X25906666Y-62057200D02*
X25811428Y-62104819D01*
X25811428Y-62104819D02*
X25620952Y-62104819D01*
X25620952Y-62104819D02*
X25525714Y-62057200D01*
X25525714Y-62057200D02*
X25478095Y-62009580D01*
X25478095Y-62009580D02*
X25430476Y-61914342D01*
X25430476Y-61914342D02*
X25430476Y-61104819D01*
X24430476Y-62104819D02*
X25001904Y-62104819D01*
X24716190Y-62104819D02*
X24716190Y-61104819D01*
X24716190Y-61104819D02*
X24811428Y-61247676D01*
X24811428Y-61247676D02*
X24906666Y-61342914D01*
X24906666Y-61342914D02*
X25001904Y-61390533D01*
X34354819Y-71063333D02*
X33878628Y-70730000D01*
X34354819Y-70491905D02*
X33354819Y-70491905D01*
X33354819Y-70491905D02*
X33354819Y-70872857D01*
X33354819Y-70872857D02*
X33402438Y-70968095D01*
X33402438Y-70968095D02*
X33450057Y-71015714D01*
X33450057Y-71015714D02*
X33545295Y-71063333D01*
X33545295Y-71063333D02*
X33688152Y-71063333D01*
X33688152Y-71063333D02*
X33783390Y-71015714D01*
X33783390Y-71015714D02*
X33831009Y-70968095D01*
X33831009Y-70968095D02*
X33878628Y-70872857D01*
X33878628Y-70872857D02*
X33878628Y-70491905D01*
X33450057Y-71444286D02*
X33402438Y-71491905D01*
X33402438Y-71491905D02*
X33354819Y-71587143D01*
X33354819Y-71587143D02*
X33354819Y-71825238D01*
X33354819Y-71825238D02*
X33402438Y-71920476D01*
X33402438Y-71920476D02*
X33450057Y-71968095D01*
X33450057Y-71968095D02*
X33545295Y-72015714D01*
X33545295Y-72015714D02*
X33640533Y-72015714D01*
X33640533Y-72015714D02*
X33783390Y-71968095D01*
X33783390Y-71968095D02*
X34354819Y-71396667D01*
X34354819Y-71396667D02*
X34354819Y-72015714D01*
X39309523Y-55554819D02*
X39309523Y-54554819D01*
X39309523Y-54554819D02*
X38976190Y-55269104D01*
X38976190Y-55269104D02*
X38642857Y-54554819D01*
X38642857Y-54554819D02*
X38642857Y-55554819D01*
X37642857Y-55554819D02*
X38214285Y-55554819D01*
X37928571Y-55554819D02*
X37928571Y-54554819D01*
X37928571Y-54554819D02*
X38023809Y-54697676D01*
X38023809Y-54697676D02*
X38119047Y-54792914D01*
X38119047Y-54792914D02*
X38214285Y-54840533D01*
X21265750Y-72040132D02*
X21265750Y-72754417D01*
X21265750Y-72754417D02*
X21313369Y-72897274D01*
X21313369Y-72897274D02*
X21408607Y-72992513D01*
X21408607Y-72992513D02*
X21551464Y-73040132D01*
X21551464Y-73040132D02*
X21646702Y-73040132D01*
X20265750Y-73040132D02*
X20837178Y-73040132D01*
X20551464Y-73040132D02*
X20551464Y-72040132D01*
X20551464Y-72040132D02*
X20646702Y-72182989D01*
X20646702Y-72182989D02*
X20741940Y-72278227D01*
X20741940Y-72278227D02*
X20837178Y-72325846D01*
X24894819Y-37971905D02*
X23894819Y-37971905D01*
X23894819Y-37971905D02*
X23894819Y-38210000D01*
X23894819Y-38210000D02*
X23942438Y-38352857D01*
X23942438Y-38352857D02*
X24037676Y-38448095D01*
X24037676Y-38448095D02*
X24132914Y-38495714D01*
X24132914Y-38495714D02*
X24323390Y-38543333D01*
X24323390Y-38543333D02*
X24466247Y-38543333D01*
X24466247Y-38543333D02*
X24656723Y-38495714D01*
X24656723Y-38495714D02*
X24751961Y-38448095D01*
X24751961Y-38448095D02*
X24847200Y-38352857D01*
X24847200Y-38352857D02*
X24894819Y-38210000D01*
X24894819Y-38210000D02*
X24894819Y-37971905D01*
X23894819Y-39448095D02*
X23894819Y-38971905D01*
X23894819Y-38971905D02*
X24371009Y-38924286D01*
X24371009Y-38924286D02*
X24323390Y-38971905D01*
X24323390Y-38971905D02*
X24275771Y-39067143D01*
X24275771Y-39067143D02*
X24275771Y-39305238D01*
X24275771Y-39305238D02*
X24323390Y-39400476D01*
X24323390Y-39400476D02*
X24371009Y-39448095D01*
X24371009Y-39448095D02*
X24466247Y-39495714D01*
X24466247Y-39495714D02*
X24704342Y-39495714D01*
X24704342Y-39495714D02*
X24799580Y-39448095D01*
X24799580Y-39448095D02*
X24847200Y-39400476D01*
X24847200Y-39400476D02*
X24894819Y-39305238D01*
X24894819Y-39305238D02*
X24894819Y-39067143D01*
X24894819Y-39067143D02*
X24847200Y-38971905D01*
X24847200Y-38971905D02*
X24799580Y-38924286D01*
X16301009Y-63904285D02*
X16348628Y-64047142D01*
X16348628Y-64047142D02*
X16396247Y-64094761D01*
X16396247Y-64094761D02*
X16491485Y-64142380D01*
X16491485Y-64142380D02*
X16634342Y-64142380D01*
X16634342Y-64142380D02*
X16729580Y-64094761D01*
X16729580Y-64094761D02*
X16777200Y-64047142D01*
X16777200Y-64047142D02*
X16824819Y-63951904D01*
X16824819Y-63951904D02*
X16824819Y-63570952D01*
X16824819Y-63570952D02*
X15824819Y-63570952D01*
X15824819Y-63570952D02*
X15824819Y-63904285D01*
X15824819Y-63904285D02*
X15872438Y-63999523D01*
X15872438Y-63999523D02*
X15920057Y-64047142D01*
X15920057Y-64047142D02*
X16015295Y-64094761D01*
X16015295Y-64094761D02*
X16110533Y-64094761D01*
X16110533Y-64094761D02*
X16205771Y-64047142D01*
X16205771Y-64047142D02*
X16253390Y-63999523D01*
X16253390Y-63999523D02*
X16301009Y-63904285D01*
X16301009Y-63904285D02*
X16301009Y-63570952D01*
X15824819Y-64428095D02*
X15824819Y-64999523D01*
X16824819Y-64713809D02*
X15824819Y-64713809D01*
X16824819Y-65856666D02*
X16824819Y-65285238D01*
X16824819Y-65570952D02*
X15824819Y-65570952D01*
X15824819Y-65570952D02*
X15967676Y-65475714D01*
X15967676Y-65475714D02*
X16062914Y-65380476D01*
X16062914Y-65380476D02*
X16110533Y-65285238D01*
X21668819Y-65723333D02*
X21192628Y-65390000D01*
X21668819Y-65151905D02*
X20668819Y-65151905D01*
X20668819Y-65151905D02*
X20668819Y-65532857D01*
X20668819Y-65532857D02*
X20716438Y-65628095D01*
X20716438Y-65628095D02*
X20764057Y-65675714D01*
X20764057Y-65675714D02*
X20859295Y-65723333D01*
X20859295Y-65723333D02*
X21002152Y-65723333D01*
X21002152Y-65723333D02*
X21097390Y-65675714D01*
X21097390Y-65675714D02*
X21145009Y-65628095D01*
X21145009Y-65628095D02*
X21192628Y-65532857D01*
X21192628Y-65532857D02*
X21192628Y-65151905D01*
X20668819Y-66628095D02*
X20668819Y-66151905D01*
X20668819Y-66151905D02*
X21145009Y-66104286D01*
X21145009Y-66104286D02*
X21097390Y-66151905D01*
X21097390Y-66151905D02*
X21049771Y-66247143D01*
X21049771Y-66247143D02*
X21049771Y-66485238D01*
X21049771Y-66485238D02*
X21097390Y-66580476D01*
X21097390Y-66580476D02*
X21145009Y-66628095D01*
X21145009Y-66628095D02*
X21240247Y-66675714D01*
X21240247Y-66675714D02*
X21478342Y-66675714D01*
X21478342Y-66675714D02*
X21573580Y-66628095D01*
X21573580Y-66628095D02*
X21621200Y-66580476D01*
X21621200Y-66580476D02*
X21668819Y-66485238D01*
X21668819Y-66485238D02*
X21668819Y-66247143D01*
X21668819Y-66247143D02*
X21621200Y-66151905D01*
X21621200Y-66151905D02*
X21573580Y-66104286D01*
X30474819Y-33697142D02*
X29998628Y-33363809D01*
X30474819Y-33125714D02*
X29474819Y-33125714D01*
X29474819Y-33125714D02*
X29474819Y-33506666D01*
X29474819Y-33506666D02*
X29522438Y-33601904D01*
X29522438Y-33601904D02*
X29570057Y-33649523D01*
X29570057Y-33649523D02*
X29665295Y-33697142D01*
X29665295Y-33697142D02*
X29808152Y-33697142D01*
X29808152Y-33697142D02*
X29903390Y-33649523D01*
X29903390Y-33649523D02*
X29951009Y-33601904D01*
X29951009Y-33601904D02*
X29998628Y-33506666D01*
X29998628Y-33506666D02*
X29998628Y-33125714D01*
X30474819Y-34649523D02*
X30474819Y-34078095D01*
X30474819Y-34363809D02*
X29474819Y-34363809D01*
X29474819Y-34363809D02*
X29617676Y-34268571D01*
X29617676Y-34268571D02*
X29712914Y-34173333D01*
X29712914Y-34173333D02*
X29760533Y-34078095D01*
X29570057Y-35030476D02*
X29522438Y-35078095D01*
X29522438Y-35078095D02*
X29474819Y-35173333D01*
X29474819Y-35173333D02*
X29474819Y-35411428D01*
X29474819Y-35411428D02*
X29522438Y-35506666D01*
X29522438Y-35506666D02*
X29570057Y-35554285D01*
X29570057Y-35554285D02*
X29665295Y-35601904D01*
X29665295Y-35601904D02*
X29760533Y-35601904D01*
X29760533Y-35601904D02*
X29903390Y-35554285D01*
X29903390Y-35554285D02*
X30474819Y-34982857D01*
X30474819Y-34982857D02*
X30474819Y-35601904D01*
X22766666Y-68059580D02*
X22814285Y-68107200D01*
X22814285Y-68107200D02*
X22957142Y-68154819D01*
X22957142Y-68154819D02*
X23052380Y-68154819D01*
X23052380Y-68154819D02*
X23195237Y-68107200D01*
X23195237Y-68107200D02*
X23290475Y-68011961D01*
X23290475Y-68011961D02*
X23338094Y-67916723D01*
X23338094Y-67916723D02*
X23385713Y-67726247D01*
X23385713Y-67726247D02*
X23385713Y-67583390D01*
X23385713Y-67583390D02*
X23338094Y-67392914D01*
X23338094Y-67392914D02*
X23290475Y-67297676D01*
X23290475Y-67297676D02*
X23195237Y-67202438D01*
X23195237Y-67202438D02*
X23052380Y-67154819D01*
X23052380Y-67154819D02*
X22957142Y-67154819D01*
X22957142Y-67154819D02*
X22814285Y-67202438D01*
X22814285Y-67202438D02*
X22766666Y-67250057D01*
X21814285Y-68154819D02*
X22385713Y-68154819D01*
X22099999Y-68154819D02*
X22099999Y-67154819D01*
X22099999Y-67154819D02*
X22195237Y-67297676D01*
X22195237Y-67297676D02*
X22290475Y-67392914D01*
X22290475Y-67392914D02*
X22385713Y-67440533D01*
X28216666Y-61919580D02*
X28264285Y-61967200D01*
X28264285Y-61967200D02*
X28407142Y-62014819D01*
X28407142Y-62014819D02*
X28502380Y-62014819D01*
X28502380Y-62014819D02*
X28645237Y-61967200D01*
X28645237Y-61967200D02*
X28740475Y-61871961D01*
X28740475Y-61871961D02*
X28788094Y-61776723D01*
X28788094Y-61776723D02*
X28835713Y-61586247D01*
X28835713Y-61586247D02*
X28835713Y-61443390D01*
X28835713Y-61443390D02*
X28788094Y-61252914D01*
X28788094Y-61252914D02*
X28740475Y-61157676D01*
X28740475Y-61157676D02*
X28645237Y-61062438D01*
X28645237Y-61062438D02*
X28502380Y-61014819D01*
X28502380Y-61014819D02*
X28407142Y-61014819D01*
X28407142Y-61014819D02*
X28264285Y-61062438D01*
X28264285Y-61062438D02*
X28216666Y-61110057D01*
X27835713Y-61110057D02*
X27788094Y-61062438D01*
X27788094Y-61062438D02*
X27692856Y-61014819D01*
X27692856Y-61014819D02*
X27454761Y-61014819D01*
X27454761Y-61014819D02*
X27359523Y-61062438D01*
X27359523Y-61062438D02*
X27311904Y-61110057D01*
X27311904Y-61110057D02*
X27264285Y-61205295D01*
X27264285Y-61205295D02*
X27264285Y-61300533D01*
X27264285Y-61300533D02*
X27311904Y-61443390D01*
X27311904Y-61443390D02*
X27883332Y-62014819D01*
X27883332Y-62014819D02*
X27264285Y-62014819D01*
X35919580Y-60743333D02*
X35967200Y-60695714D01*
X35967200Y-60695714D02*
X36014819Y-60552857D01*
X36014819Y-60552857D02*
X36014819Y-60457619D01*
X36014819Y-60457619D02*
X35967200Y-60314762D01*
X35967200Y-60314762D02*
X35871961Y-60219524D01*
X35871961Y-60219524D02*
X35776723Y-60171905D01*
X35776723Y-60171905D02*
X35586247Y-60124286D01*
X35586247Y-60124286D02*
X35443390Y-60124286D01*
X35443390Y-60124286D02*
X35252914Y-60171905D01*
X35252914Y-60171905D02*
X35157676Y-60219524D01*
X35157676Y-60219524D02*
X35062438Y-60314762D01*
X35062438Y-60314762D02*
X35014819Y-60457619D01*
X35014819Y-60457619D02*
X35014819Y-60552857D01*
X35014819Y-60552857D02*
X35062438Y-60695714D01*
X35062438Y-60695714D02*
X35110057Y-60743333D01*
X35014819Y-61076667D02*
X35014819Y-61695714D01*
X35014819Y-61695714D02*
X35395771Y-61362381D01*
X35395771Y-61362381D02*
X35395771Y-61505238D01*
X35395771Y-61505238D02*
X35443390Y-61600476D01*
X35443390Y-61600476D02*
X35491009Y-61648095D01*
X35491009Y-61648095D02*
X35586247Y-61695714D01*
X35586247Y-61695714D02*
X35824342Y-61695714D01*
X35824342Y-61695714D02*
X35919580Y-61648095D01*
X35919580Y-61648095D02*
X35967200Y-61600476D01*
X35967200Y-61600476D02*
X36014819Y-61505238D01*
X36014819Y-61505238D02*
X36014819Y-61219524D01*
X36014819Y-61219524D02*
X35967200Y-61124286D01*
X35967200Y-61124286D02*
X35919580Y-61076667D01*
X44564819Y-62513333D02*
X44088628Y-62180000D01*
X44564819Y-61941905D02*
X43564819Y-61941905D01*
X43564819Y-61941905D02*
X43564819Y-62322857D01*
X43564819Y-62322857D02*
X43612438Y-62418095D01*
X43612438Y-62418095D02*
X43660057Y-62465714D01*
X43660057Y-62465714D02*
X43755295Y-62513333D01*
X43755295Y-62513333D02*
X43898152Y-62513333D01*
X43898152Y-62513333D02*
X43993390Y-62465714D01*
X43993390Y-62465714D02*
X44041009Y-62418095D01*
X44041009Y-62418095D02*
X44088628Y-62322857D01*
X44088628Y-62322857D02*
X44088628Y-61941905D01*
X43993390Y-63084762D02*
X43945771Y-62989524D01*
X43945771Y-62989524D02*
X43898152Y-62941905D01*
X43898152Y-62941905D02*
X43802914Y-62894286D01*
X43802914Y-62894286D02*
X43755295Y-62894286D01*
X43755295Y-62894286D02*
X43660057Y-62941905D01*
X43660057Y-62941905D02*
X43612438Y-62989524D01*
X43612438Y-62989524D02*
X43564819Y-63084762D01*
X43564819Y-63084762D02*
X43564819Y-63275238D01*
X43564819Y-63275238D02*
X43612438Y-63370476D01*
X43612438Y-63370476D02*
X43660057Y-63418095D01*
X43660057Y-63418095D02*
X43755295Y-63465714D01*
X43755295Y-63465714D02*
X43802914Y-63465714D01*
X43802914Y-63465714D02*
X43898152Y-63418095D01*
X43898152Y-63418095D02*
X43945771Y-63370476D01*
X43945771Y-63370476D02*
X43993390Y-63275238D01*
X43993390Y-63275238D02*
X43993390Y-63084762D01*
X43993390Y-63084762D02*
X44041009Y-62989524D01*
X44041009Y-62989524D02*
X44088628Y-62941905D01*
X44088628Y-62941905D02*
X44183866Y-62894286D01*
X44183866Y-62894286D02*
X44374342Y-62894286D01*
X44374342Y-62894286D02*
X44469580Y-62941905D01*
X44469580Y-62941905D02*
X44517200Y-62989524D01*
X44517200Y-62989524D02*
X44564819Y-63084762D01*
X44564819Y-63084762D02*
X44564819Y-63275238D01*
X44564819Y-63275238D02*
X44517200Y-63370476D01*
X44517200Y-63370476D02*
X44469580Y-63418095D01*
X44469580Y-63418095D02*
X44374342Y-63465714D01*
X44374342Y-63465714D02*
X44183866Y-63465714D01*
X44183866Y-63465714D02*
X44088628Y-63418095D01*
X44088628Y-63418095D02*
X44041009Y-63370476D01*
X44041009Y-63370476D02*
X43993390Y-63275238D01*
X47866666Y-57929580D02*
X47914285Y-57977200D01*
X47914285Y-57977200D02*
X48057142Y-58024819D01*
X48057142Y-58024819D02*
X48152380Y-58024819D01*
X48152380Y-58024819D02*
X48295237Y-57977200D01*
X48295237Y-57977200D02*
X48390475Y-57881961D01*
X48390475Y-57881961D02*
X48438094Y-57786723D01*
X48438094Y-57786723D02*
X48485713Y-57596247D01*
X48485713Y-57596247D02*
X48485713Y-57453390D01*
X48485713Y-57453390D02*
X48438094Y-57262914D01*
X48438094Y-57262914D02*
X48390475Y-57167676D01*
X48390475Y-57167676D02*
X48295237Y-57072438D01*
X48295237Y-57072438D02*
X48152380Y-57024819D01*
X48152380Y-57024819D02*
X48057142Y-57024819D01*
X48057142Y-57024819D02*
X47914285Y-57072438D01*
X47914285Y-57072438D02*
X47866666Y-57120057D01*
X46961904Y-57024819D02*
X47438094Y-57024819D01*
X47438094Y-57024819D02*
X47485713Y-57501009D01*
X47485713Y-57501009D02*
X47438094Y-57453390D01*
X47438094Y-57453390D02*
X47342856Y-57405771D01*
X47342856Y-57405771D02*
X47104761Y-57405771D01*
X47104761Y-57405771D02*
X47009523Y-57453390D01*
X47009523Y-57453390D02*
X46961904Y-57501009D01*
X46961904Y-57501009D02*
X46914285Y-57596247D01*
X46914285Y-57596247D02*
X46914285Y-57834342D01*
X46914285Y-57834342D02*
X46961904Y-57929580D01*
X46961904Y-57929580D02*
X47009523Y-57977200D01*
X47009523Y-57977200D02*
X47104761Y-58024819D01*
X47104761Y-58024819D02*
X47342856Y-58024819D01*
X47342856Y-58024819D02*
X47438094Y-57977200D01*
X47438094Y-57977200D02*
X47485713Y-57929580D01*
X35228094Y-68154819D02*
X35228094Y-67154819D01*
X35228094Y-67154819D02*
X34989999Y-67154819D01*
X34989999Y-67154819D02*
X34847142Y-67202438D01*
X34847142Y-67202438D02*
X34751904Y-67297676D01*
X34751904Y-67297676D02*
X34704285Y-67392914D01*
X34704285Y-67392914D02*
X34656666Y-67583390D01*
X34656666Y-67583390D02*
X34656666Y-67726247D01*
X34656666Y-67726247D02*
X34704285Y-67916723D01*
X34704285Y-67916723D02*
X34751904Y-68011961D01*
X34751904Y-68011961D02*
X34847142Y-68107200D01*
X34847142Y-68107200D02*
X34989999Y-68154819D01*
X34989999Y-68154819D02*
X35228094Y-68154819D01*
X33704285Y-68154819D02*
X34275713Y-68154819D01*
X33989999Y-68154819D02*
X33989999Y-67154819D01*
X33989999Y-67154819D02*
X34085237Y-67297676D01*
X34085237Y-67297676D02*
X34180475Y-67392914D01*
X34180475Y-67392914D02*
X34275713Y-67440533D01*
X36134819Y-64028095D02*
X36944342Y-64028095D01*
X36944342Y-64028095D02*
X37039580Y-64075714D01*
X37039580Y-64075714D02*
X37087200Y-64123333D01*
X37087200Y-64123333D02*
X37134819Y-64218571D01*
X37134819Y-64218571D02*
X37134819Y-64409047D01*
X37134819Y-64409047D02*
X37087200Y-64504285D01*
X37087200Y-64504285D02*
X37039580Y-64551904D01*
X37039580Y-64551904D02*
X36944342Y-64599523D01*
X36944342Y-64599523D02*
X36134819Y-64599523D01*
X36134819Y-64980476D02*
X36134819Y-65599523D01*
X36134819Y-65599523D02*
X36515771Y-65266190D01*
X36515771Y-65266190D02*
X36515771Y-65409047D01*
X36515771Y-65409047D02*
X36563390Y-65504285D01*
X36563390Y-65504285D02*
X36611009Y-65551904D01*
X36611009Y-65551904D02*
X36706247Y-65599523D01*
X36706247Y-65599523D02*
X36944342Y-65599523D01*
X36944342Y-65599523D02*
X37039580Y-65551904D01*
X37039580Y-65551904D02*
X37087200Y-65504285D01*
X37087200Y-65504285D02*
X37134819Y-65409047D01*
X37134819Y-65409047D02*
X37134819Y-65123333D01*
X37134819Y-65123333D02*
X37087200Y-65028095D01*
X37087200Y-65028095D02*
X37039580Y-64980476D01*
X31096618Y-28074837D02*
X30596618Y-27208812D01*
X30596618Y-27208812D02*
X30390421Y-27327859D01*
X30390421Y-27327859D02*
X30290513Y-27440527D01*
X30290513Y-27440527D02*
X30255653Y-27570625D01*
X30255653Y-27570625D02*
X30262033Y-27676913D01*
X30262033Y-27676913D02*
X30316032Y-27865680D01*
X30316032Y-27865680D02*
X30387460Y-27989398D01*
X30387460Y-27989398D02*
X30523938Y-28130545D01*
X30523938Y-28130545D02*
X30612796Y-28189214D01*
X30612796Y-28189214D02*
X30742894Y-28224074D01*
X30742894Y-28224074D02*
X30890421Y-28193885D01*
X30890421Y-28193885D02*
X31096618Y-28074837D01*
X29526105Y-28211772D02*
X29859439Y-28789123D01*
X29541826Y-27762810D02*
X30105165Y-28262352D01*
X30105165Y-28262352D02*
X29569054Y-28571876D01*
X34826666Y-66784819D02*
X35159999Y-66308628D01*
X35398094Y-66784819D02*
X35398094Y-65784819D01*
X35398094Y-65784819D02*
X35017142Y-65784819D01*
X35017142Y-65784819D02*
X34921904Y-65832438D01*
X34921904Y-65832438D02*
X34874285Y-65880057D01*
X34874285Y-65880057D02*
X34826666Y-65975295D01*
X34826666Y-65975295D02*
X34826666Y-66118152D01*
X34826666Y-66118152D02*
X34874285Y-66213390D01*
X34874285Y-66213390D02*
X34921904Y-66261009D01*
X34921904Y-66261009D02*
X35017142Y-66308628D01*
X35017142Y-66308628D02*
X35398094Y-66308628D01*
X33969523Y-65784819D02*
X34159999Y-65784819D01*
X34159999Y-65784819D02*
X34255237Y-65832438D01*
X34255237Y-65832438D02*
X34302856Y-65880057D01*
X34302856Y-65880057D02*
X34398094Y-66022914D01*
X34398094Y-66022914D02*
X34445713Y-66213390D01*
X34445713Y-66213390D02*
X34445713Y-66594342D01*
X34445713Y-66594342D02*
X34398094Y-66689580D01*
X34398094Y-66689580D02*
X34350475Y-66737200D01*
X34350475Y-66737200D02*
X34255237Y-66784819D01*
X34255237Y-66784819D02*
X34064761Y-66784819D01*
X34064761Y-66784819D02*
X33969523Y-66737200D01*
X33969523Y-66737200D02*
X33921904Y-66689580D01*
X33921904Y-66689580D02*
X33874285Y-66594342D01*
X33874285Y-66594342D02*
X33874285Y-66356247D01*
X33874285Y-66356247D02*
X33921904Y-66261009D01*
X33921904Y-66261009D02*
X33969523Y-66213390D01*
X33969523Y-66213390D02*
X34064761Y-66165771D01*
X34064761Y-66165771D02*
X34255237Y-66165771D01*
X34255237Y-66165771D02*
X34350475Y-66213390D01*
X34350475Y-66213390D02*
X34398094Y-66261009D01*
X34398094Y-66261009D02*
X34445713Y-66356247D01*
X46648094Y-51324819D02*
X46648094Y-50324819D01*
X46648094Y-50324819D02*
X46409999Y-50324819D01*
X46409999Y-50324819D02*
X46267142Y-50372438D01*
X46267142Y-50372438D02*
X46171904Y-50467676D01*
X46171904Y-50467676D02*
X46124285Y-50562914D01*
X46124285Y-50562914D02*
X46076666Y-50753390D01*
X46076666Y-50753390D02*
X46076666Y-50896247D01*
X46076666Y-50896247D02*
X46124285Y-51086723D01*
X46124285Y-51086723D02*
X46171904Y-51181961D01*
X46171904Y-51181961D02*
X46267142Y-51277200D01*
X46267142Y-51277200D02*
X46409999Y-51324819D01*
X46409999Y-51324819D02*
X46648094Y-51324819D01*
X45695713Y-50420057D02*
X45648094Y-50372438D01*
X45648094Y-50372438D02*
X45552856Y-50324819D01*
X45552856Y-50324819D02*
X45314761Y-50324819D01*
X45314761Y-50324819D02*
X45219523Y-50372438D01*
X45219523Y-50372438D02*
X45171904Y-50420057D01*
X45171904Y-50420057D02*
X45124285Y-50515295D01*
X45124285Y-50515295D02*
X45124285Y-50610533D01*
X45124285Y-50610533D02*
X45171904Y-50753390D01*
X45171904Y-50753390D02*
X45743332Y-51324819D01*
X45743332Y-51324819D02*
X45124285Y-51324819D01*
X19584819Y-71003333D02*
X19108628Y-70670000D01*
X19584819Y-70431905D02*
X18584819Y-70431905D01*
X18584819Y-70431905D02*
X18584819Y-70812857D01*
X18584819Y-70812857D02*
X18632438Y-70908095D01*
X18632438Y-70908095D02*
X18680057Y-70955714D01*
X18680057Y-70955714D02*
X18775295Y-71003333D01*
X18775295Y-71003333D02*
X18918152Y-71003333D01*
X18918152Y-71003333D02*
X19013390Y-70955714D01*
X19013390Y-70955714D02*
X19061009Y-70908095D01*
X19061009Y-70908095D02*
X19108628Y-70812857D01*
X19108628Y-70812857D02*
X19108628Y-70431905D01*
X19584819Y-71955714D02*
X19584819Y-71384286D01*
X19584819Y-71670000D02*
X18584819Y-71670000D01*
X18584819Y-71670000D02*
X18727676Y-71574762D01*
X18727676Y-71574762D02*
X18822914Y-71479524D01*
X18822914Y-71479524D02*
X18870533Y-71384286D01*
X36516666Y-67969580D02*
X36564285Y-68017200D01*
X36564285Y-68017200D02*
X36707142Y-68064819D01*
X36707142Y-68064819D02*
X36802380Y-68064819D01*
X36802380Y-68064819D02*
X36945237Y-68017200D01*
X36945237Y-68017200D02*
X37040475Y-67921961D01*
X37040475Y-67921961D02*
X37088094Y-67826723D01*
X37088094Y-67826723D02*
X37135713Y-67636247D01*
X37135713Y-67636247D02*
X37135713Y-67493390D01*
X37135713Y-67493390D02*
X37088094Y-67302914D01*
X37088094Y-67302914D02*
X37040475Y-67207676D01*
X37040475Y-67207676D02*
X36945237Y-67112438D01*
X36945237Y-67112438D02*
X36802380Y-67064819D01*
X36802380Y-67064819D02*
X36707142Y-67064819D01*
X36707142Y-67064819D02*
X36564285Y-67112438D01*
X36564285Y-67112438D02*
X36516666Y-67160057D01*
X35659523Y-67398152D02*
X35659523Y-68064819D01*
X35897618Y-67017200D02*
X36135713Y-67731485D01*
X36135713Y-67731485D02*
X35516666Y-67731485D01*
X26582857Y-27984819D02*
X26916190Y-27508628D01*
X27154285Y-27984819D02*
X27154285Y-26984819D01*
X27154285Y-26984819D02*
X26773333Y-26984819D01*
X26773333Y-26984819D02*
X26678095Y-27032438D01*
X26678095Y-27032438D02*
X26630476Y-27080057D01*
X26630476Y-27080057D02*
X26582857Y-27175295D01*
X26582857Y-27175295D02*
X26582857Y-27318152D01*
X26582857Y-27318152D02*
X26630476Y-27413390D01*
X26630476Y-27413390D02*
X26678095Y-27461009D01*
X26678095Y-27461009D02*
X26773333Y-27508628D01*
X26773333Y-27508628D02*
X27154285Y-27508628D01*
X25630476Y-27984819D02*
X26201904Y-27984819D01*
X25916190Y-27984819D02*
X25916190Y-26984819D01*
X25916190Y-26984819D02*
X26011428Y-27127676D01*
X26011428Y-27127676D02*
X26106666Y-27222914D01*
X26106666Y-27222914D02*
X26201904Y-27270533D01*
X25011428Y-26984819D02*
X24916190Y-26984819D01*
X24916190Y-26984819D02*
X24820952Y-27032438D01*
X24820952Y-27032438D02*
X24773333Y-27080057D01*
X24773333Y-27080057D02*
X24725714Y-27175295D01*
X24725714Y-27175295D02*
X24678095Y-27365771D01*
X24678095Y-27365771D02*
X24678095Y-27603866D01*
X24678095Y-27603866D02*
X24725714Y-27794342D01*
X24725714Y-27794342D02*
X24773333Y-27889580D01*
X24773333Y-27889580D02*
X24820952Y-27937200D01*
X24820952Y-27937200D02*
X24916190Y-27984819D01*
X24916190Y-27984819D02*
X25011428Y-27984819D01*
X25011428Y-27984819D02*
X25106666Y-27937200D01*
X25106666Y-27937200D02*
X25154285Y-27889580D01*
X25154285Y-27889580D02*
X25201904Y-27794342D01*
X25201904Y-27794342D02*
X25249523Y-27603866D01*
X25249523Y-27603866D02*
X25249523Y-27365771D01*
X25249523Y-27365771D02*
X25201904Y-27175295D01*
X25201904Y-27175295D02*
X25154285Y-27080057D01*
X25154285Y-27080057D02*
X25106666Y-27032438D01*
X25106666Y-27032438D02*
X25011428Y-26984819D01*
X28304819Y-67933333D02*
X27828628Y-67600000D01*
X28304819Y-67361905D02*
X27304819Y-67361905D01*
X27304819Y-67361905D02*
X27304819Y-67742857D01*
X27304819Y-67742857D02*
X27352438Y-67838095D01*
X27352438Y-67838095D02*
X27400057Y-67885714D01*
X27400057Y-67885714D02*
X27495295Y-67933333D01*
X27495295Y-67933333D02*
X27638152Y-67933333D01*
X27638152Y-67933333D02*
X27733390Y-67885714D01*
X27733390Y-67885714D02*
X27781009Y-67838095D01*
X27781009Y-67838095D02*
X27828628Y-67742857D01*
X27828628Y-67742857D02*
X27828628Y-67361905D01*
X27304819Y-68266667D02*
X27304819Y-68885714D01*
X27304819Y-68885714D02*
X27685771Y-68552381D01*
X27685771Y-68552381D02*
X27685771Y-68695238D01*
X27685771Y-68695238D02*
X27733390Y-68790476D01*
X27733390Y-68790476D02*
X27781009Y-68838095D01*
X27781009Y-68838095D02*
X27876247Y-68885714D01*
X27876247Y-68885714D02*
X28114342Y-68885714D01*
X28114342Y-68885714D02*
X28209580Y-68838095D01*
X28209580Y-68838095D02*
X28257200Y-68790476D01*
X28257200Y-68790476D02*
X28304819Y-68695238D01*
X28304819Y-68695238D02*
X28304819Y-68409524D01*
X28304819Y-68409524D02*
X28257200Y-68314286D01*
X28257200Y-68314286D02*
X28209580Y-68266667D01*
X28384819Y-37961788D02*
X27384819Y-37961788D01*
X27384819Y-37961788D02*
X27384819Y-38199883D01*
X27384819Y-38199883D02*
X27432438Y-38342740D01*
X27432438Y-38342740D02*
X27527676Y-38437978D01*
X27527676Y-38437978D02*
X27622914Y-38485597D01*
X27622914Y-38485597D02*
X27813390Y-38533216D01*
X27813390Y-38533216D02*
X27956247Y-38533216D01*
X27956247Y-38533216D02*
X28146723Y-38485597D01*
X28146723Y-38485597D02*
X28241961Y-38437978D01*
X28241961Y-38437978D02*
X28337200Y-38342740D01*
X28337200Y-38342740D02*
X28384819Y-38199883D01*
X28384819Y-38199883D02*
X28384819Y-37961788D01*
X27384819Y-39390359D02*
X27384819Y-39199883D01*
X27384819Y-39199883D02*
X27432438Y-39104645D01*
X27432438Y-39104645D02*
X27480057Y-39057026D01*
X27480057Y-39057026D02*
X27622914Y-38961788D01*
X27622914Y-38961788D02*
X27813390Y-38914169D01*
X27813390Y-38914169D02*
X28194342Y-38914169D01*
X28194342Y-38914169D02*
X28289580Y-38961788D01*
X28289580Y-38961788D02*
X28337200Y-39009407D01*
X28337200Y-39009407D02*
X28384819Y-39104645D01*
X28384819Y-39104645D02*
X28384819Y-39295121D01*
X28384819Y-39295121D02*
X28337200Y-39390359D01*
X28337200Y-39390359D02*
X28289580Y-39437978D01*
X28289580Y-39437978D02*
X28194342Y-39485597D01*
X28194342Y-39485597D02*
X27956247Y-39485597D01*
X27956247Y-39485597D02*
X27861009Y-39437978D01*
X27861009Y-39437978D02*
X27813390Y-39390359D01*
X27813390Y-39390359D02*
X27765771Y-39295121D01*
X27765771Y-39295121D02*
X27765771Y-39104645D01*
X27765771Y-39104645D02*
X27813390Y-39009407D01*
X27813390Y-39009407D02*
X27861009Y-38961788D01*
X27861009Y-38961788D02*
X27956247Y-38914169D01*
X39606666Y-70819580D02*
X39654285Y-70867200D01*
X39654285Y-70867200D02*
X39797142Y-70914819D01*
X39797142Y-70914819D02*
X39892380Y-70914819D01*
X39892380Y-70914819D02*
X40035237Y-70867200D01*
X40035237Y-70867200D02*
X40130475Y-70771961D01*
X40130475Y-70771961D02*
X40178094Y-70676723D01*
X40178094Y-70676723D02*
X40225713Y-70486247D01*
X40225713Y-70486247D02*
X40225713Y-70343390D01*
X40225713Y-70343390D02*
X40178094Y-70152914D01*
X40178094Y-70152914D02*
X40130475Y-70057676D01*
X40130475Y-70057676D02*
X40035237Y-69962438D01*
X40035237Y-69962438D02*
X39892380Y-69914819D01*
X39892380Y-69914819D02*
X39797142Y-69914819D01*
X39797142Y-69914819D02*
X39654285Y-69962438D01*
X39654285Y-69962438D02*
X39606666Y-70010057D01*
X38749523Y-69914819D02*
X38939999Y-69914819D01*
X38939999Y-69914819D02*
X39035237Y-69962438D01*
X39035237Y-69962438D02*
X39082856Y-70010057D01*
X39082856Y-70010057D02*
X39178094Y-70152914D01*
X39178094Y-70152914D02*
X39225713Y-70343390D01*
X39225713Y-70343390D02*
X39225713Y-70724342D01*
X39225713Y-70724342D02*
X39178094Y-70819580D01*
X39178094Y-70819580D02*
X39130475Y-70867200D01*
X39130475Y-70867200D02*
X39035237Y-70914819D01*
X39035237Y-70914819D02*
X38844761Y-70914819D01*
X38844761Y-70914819D02*
X38749523Y-70867200D01*
X38749523Y-70867200D02*
X38701904Y-70819580D01*
X38701904Y-70819580D02*
X38654285Y-70724342D01*
X38654285Y-70724342D02*
X38654285Y-70486247D01*
X38654285Y-70486247D02*
X38701904Y-70391009D01*
X38701904Y-70391009D02*
X38749523Y-70343390D01*
X38749523Y-70343390D02*
X38844761Y-70295771D01*
X38844761Y-70295771D02*
X39035237Y-70295771D01*
X39035237Y-70295771D02*
X39130475Y-70343390D01*
X39130475Y-70343390D02*
X39178094Y-70391009D01*
X39178094Y-70391009D02*
X39225713Y-70486247D01*
X37745238Y-58950057D02*
X37840476Y-58902438D01*
X37840476Y-58902438D02*
X37935714Y-58807200D01*
X37935714Y-58807200D02*
X38078571Y-58664342D01*
X38078571Y-58664342D02*
X38173809Y-58616723D01*
X38173809Y-58616723D02*
X38269047Y-58616723D01*
X38221428Y-58854819D02*
X38316666Y-58807200D01*
X38316666Y-58807200D02*
X38411904Y-58711961D01*
X38411904Y-58711961D02*
X38459523Y-58521485D01*
X38459523Y-58521485D02*
X38459523Y-58188152D01*
X38459523Y-58188152D02*
X38411904Y-57997676D01*
X38411904Y-57997676D02*
X38316666Y-57902438D01*
X38316666Y-57902438D02*
X38221428Y-57854819D01*
X38221428Y-57854819D02*
X38030952Y-57854819D01*
X38030952Y-57854819D02*
X37935714Y-57902438D01*
X37935714Y-57902438D02*
X37840476Y-57997676D01*
X37840476Y-57997676D02*
X37792857Y-58188152D01*
X37792857Y-58188152D02*
X37792857Y-58521485D01*
X37792857Y-58521485D02*
X37840476Y-58711961D01*
X37840476Y-58711961D02*
X37935714Y-58807200D01*
X37935714Y-58807200D02*
X38030952Y-58854819D01*
X38030952Y-58854819D02*
X38221428Y-58854819D01*
X36840476Y-58854819D02*
X37411904Y-58854819D01*
X37126190Y-58854819D02*
X37126190Y-57854819D01*
X37126190Y-57854819D02*
X37221428Y-57997676D01*
X37221428Y-57997676D02*
X37316666Y-58092914D01*
X37316666Y-58092914D02*
X37411904Y-58140533D01*
X23204819Y-65723333D02*
X22728628Y-65390000D01*
X23204819Y-65151905D02*
X22204819Y-65151905D01*
X22204819Y-65151905D02*
X22204819Y-65532857D01*
X22204819Y-65532857D02*
X22252438Y-65628095D01*
X22252438Y-65628095D02*
X22300057Y-65675714D01*
X22300057Y-65675714D02*
X22395295Y-65723333D01*
X22395295Y-65723333D02*
X22538152Y-65723333D01*
X22538152Y-65723333D02*
X22633390Y-65675714D01*
X22633390Y-65675714D02*
X22681009Y-65628095D01*
X22681009Y-65628095D02*
X22728628Y-65532857D01*
X22728628Y-65532857D02*
X22728628Y-65151905D01*
X22538152Y-66580476D02*
X23204819Y-66580476D01*
X22157200Y-66342381D02*
X22871485Y-66104286D01*
X22871485Y-66104286D02*
X22871485Y-66723333D01*
X45964819Y-62573333D02*
X45488628Y-62240000D01*
X45964819Y-62001905D02*
X44964819Y-62001905D01*
X44964819Y-62001905D02*
X44964819Y-62382857D01*
X44964819Y-62382857D02*
X45012438Y-62478095D01*
X45012438Y-62478095D02*
X45060057Y-62525714D01*
X45060057Y-62525714D02*
X45155295Y-62573333D01*
X45155295Y-62573333D02*
X45298152Y-62573333D01*
X45298152Y-62573333D02*
X45393390Y-62525714D01*
X45393390Y-62525714D02*
X45441009Y-62478095D01*
X45441009Y-62478095D02*
X45488628Y-62382857D01*
X45488628Y-62382857D02*
X45488628Y-62001905D01*
X44964819Y-62906667D02*
X44964819Y-63573333D01*
X44964819Y-63573333D02*
X45964819Y-63144762D01*
X22740501Y-28719591D02*
X23082522Y-27779898D01*
X23082522Y-27779898D02*
X22858785Y-27698465D01*
X22858785Y-27698465D02*
X22708257Y-27694352D01*
X22708257Y-27694352D02*
X22586189Y-27751273D01*
X22586189Y-27751273D02*
X22508868Y-27824481D01*
X22508868Y-27824481D02*
X22398974Y-27987184D01*
X22398974Y-27987184D02*
X22350114Y-28121425D01*
X22350114Y-28121425D02*
X22329715Y-28316701D01*
X22329715Y-28316701D02*
X22341889Y-28422482D01*
X22341889Y-28422482D02*
X22398810Y-28544550D01*
X22398810Y-28544550D02*
X22516765Y-28638158D01*
X22516765Y-28638158D02*
X22740501Y-28719591D01*
X22232323Y-27470451D02*
X21650609Y-27258725D01*
X21650609Y-27258725D02*
X21833546Y-27730710D01*
X21833546Y-27730710D02*
X21699305Y-27681850D01*
X21699305Y-27681850D02*
X21593523Y-27694023D01*
X21593523Y-27694023D02*
X21532490Y-27722484D01*
X21532490Y-27722484D02*
X21455169Y-27795692D01*
X21455169Y-27795692D02*
X21373736Y-28019428D01*
X21373736Y-28019428D02*
X21385909Y-28125209D01*
X21385909Y-28125209D02*
X21414370Y-28186243D01*
X21414370Y-28186243D02*
X21487578Y-28263564D01*
X21487578Y-28263564D02*
X21756062Y-28361284D01*
X21756062Y-28361284D02*
X21861843Y-28349110D01*
X21861843Y-28349110D02*
X21922877Y-28320650D01*
X26326666Y-32374819D02*
X26659999Y-31898628D01*
X26898094Y-32374819D02*
X26898094Y-31374819D01*
X26898094Y-31374819D02*
X26517142Y-31374819D01*
X26517142Y-31374819D02*
X26421904Y-31422438D01*
X26421904Y-31422438D02*
X26374285Y-31470057D01*
X26374285Y-31470057D02*
X26326666Y-31565295D01*
X26326666Y-31565295D02*
X26326666Y-31708152D01*
X26326666Y-31708152D02*
X26374285Y-31803390D01*
X26374285Y-31803390D02*
X26421904Y-31851009D01*
X26421904Y-31851009D02*
X26517142Y-31898628D01*
X26517142Y-31898628D02*
X26898094Y-31898628D01*
X25850475Y-32374819D02*
X25659999Y-32374819D01*
X25659999Y-32374819D02*
X25564761Y-32327200D01*
X25564761Y-32327200D02*
X25517142Y-32279580D01*
X25517142Y-32279580D02*
X25421904Y-32136723D01*
X25421904Y-32136723D02*
X25374285Y-31946247D01*
X25374285Y-31946247D02*
X25374285Y-31565295D01*
X25374285Y-31565295D02*
X25421904Y-31470057D01*
X25421904Y-31470057D02*
X25469523Y-31422438D01*
X25469523Y-31422438D02*
X25564761Y-31374819D01*
X25564761Y-31374819D02*
X25755237Y-31374819D01*
X25755237Y-31374819D02*
X25850475Y-31422438D01*
X25850475Y-31422438D02*
X25898094Y-31470057D01*
X25898094Y-31470057D02*
X25945713Y-31565295D01*
X25945713Y-31565295D02*
X25945713Y-31803390D01*
X25945713Y-31803390D02*
X25898094Y-31898628D01*
X25898094Y-31898628D02*
X25850475Y-31946247D01*
X25850475Y-31946247D02*
X25755237Y-31993866D01*
X25755237Y-31993866D02*
X25564761Y-31993866D01*
X25564761Y-31993866D02*
X25469523Y-31946247D01*
X25469523Y-31946247D02*
X25421904Y-31898628D01*
X25421904Y-31898628D02*
X25374285Y-31803390D01*
D11*
%TO.C,U2*%
X30720000Y-65280000D02*
X31520000Y-65280000D01*
X32320000Y-65280000D02*
X31520000Y-65280000D01*
X30720000Y-62160000D02*
X31520000Y-62160000D01*
X32320000Y-62160000D02*
X31520000Y-62160000D01*
X30460000Y-65560000D02*
X29980000Y-65560000D01*
X30220000Y-65230000D01*
X30460000Y-65560000D01*
G36*
X30460000Y-65560000D02*
G01*
X29980000Y-65560000D01*
X30220000Y-65230000D01*
X30460000Y-65560000D01*
G37*
%TO.C,R11*%
X21807500Y-37887258D02*
X21807500Y-37412742D01*
X22852500Y-37887258D02*
X22852500Y-37412742D01*
%TO.C,U1*%
X23810000Y-63300000D02*
X23810000Y-64100000D01*
X23810000Y-64900000D02*
X23810000Y-64100000D01*
X26930000Y-63300000D02*
X26930000Y-64100000D01*
X26930000Y-64900000D02*
X26930000Y-64100000D01*
X23860000Y-62800000D02*
X23530000Y-63040000D01*
X23530000Y-62560000D01*
X23860000Y-62800000D01*
G36*
X23860000Y-62800000D02*
G01*
X23530000Y-63040000D01*
X23530000Y-62560000D01*
X23860000Y-62800000D01*
G37*
%TO.C,R2*%
X34442500Y-73847258D02*
X34442500Y-73372742D01*
X33397500Y-73847258D02*
X33397500Y-73372742D01*
%TO.C,J1*%
X21922417Y-73417813D02*
X21922417Y-71787813D01*
X31122417Y-73417813D02*
X31122417Y-71787813D01*
%TO.C,D5*%
X23285000Y-37705000D02*
X25555000Y-37705000D01*
X25555000Y-37705000D02*
X25555000Y-33820000D01*
X23285000Y-33820000D02*
X23285000Y-37705000D01*
%TO.C,R5*%
X20677500Y-63777258D02*
X20677500Y-63302742D01*
X21722500Y-63777258D02*
X21722500Y-63302742D01*
%TO.C,R12*%
X30532500Y-37867258D02*
X30532500Y-37392742D01*
X29487500Y-37867258D02*
X29487500Y-37392742D01*
%TO.C,C1*%
X25621252Y-66505000D02*
X25098748Y-66505000D01*
X25621252Y-67975000D02*
X25098748Y-67975000D01*
%TO.C,C2*%
X28845000Y-63458748D02*
X28845000Y-63981252D01*
X27375000Y-63458748D02*
X27375000Y-63981252D01*
%TO.C,C3*%
X35635000Y-63518748D02*
X35635000Y-64041252D01*
X34165000Y-63518748D02*
X34165000Y-64041252D01*
%TO.C,R8*%
X44492500Y-60417258D02*
X44492500Y-59942742D01*
X43447500Y-60417258D02*
X43447500Y-59942742D01*
%TO.C,C5*%
X44638748Y-56835000D02*
X45161252Y-56835000D01*
X44638748Y-58305000D02*
X45161252Y-58305000D01*
%TO.C,D1*%
X30665000Y-67135000D02*
X30665000Y-68605000D01*
X30665000Y-68605000D02*
X32950000Y-68605000D01*
X32950000Y-67135000D02*
X30665000Y-67135000D01*
%TO.C,U3*%
X42785000Y-68910000D02*
X42305000Y-68910000D01*
X42545000Y-68580000D01*
X42785000Y-68910000D01*
G36*
X42785000Y-68910000D02*
G01*
X42305000Y-68910000D01*
X42545000Y-68580000D01*
X42785000Y-68910000D01*
G37*
X43005000Y-66920000D02*
X43005000Y-64720000D01*
X43005000Y-62520000D02*
X43005000Y-64720000D01*
X37535000Y-66920000D02*
X37535000Y-64720000D01*
X37535000Y-62520000D02*
X37535000Y-64720000D01*
%TO.C,D4*%
X32068141Y-27857061D02*
X28703632Y-29799561D01*
X29838632Y-31765439D02*
X33203141Y-29822939D01*
X28703632Y-29799561D02*
X29838632Y-31765439D01*
%TO.C,R6*%
X31882742Y-65817500D02*
X32357258Y-65817500D01*
X31882742Y-66862500D02*
X32357258Y-66862500D01*
%TO.C,D2*%
X44030000Y-53345000D02*
X46315000Y-53345000D01*
X46315000Y-51875000D02*
X44030000Y-51875000D01*
X46315000Y-53345000D02*
X46315000Y-51875000D01*
%TO.C,R1*%
X19652500Y-73817258D02*
X19652500Y-73342742D01*
X18607500Y-73817258D02*
X18607500Y-73342742D01*
%TO.C,C4*%
X35495000Y-70331252D02*
X35495000Y-69808748D01*
X36965000Y-70331252D02*
X36965000Y-69808748D01*
%TO.C,R10*%
X25832742Y-29452500D02*
X26307258Y-29452500D01*
X25832742Y-28407500D02*
X26307258Y-28407500D01*
%TO.C,R3*%
X28717500Y-67987258D02*
X28717500Y-67512742D01*
X29762500Y-67987258D02*
X29762500Y-67512742D01*
%TO.C,D6*%
X26785000Y-37684883D02*
X29055000Y-37684883D01*
X29055000Y-37684883D02*
X29055000Y-33799883D01*
X26785000Y-33799883D02*
X26785000Y-37684883D01*
%TO.C,C6*%
X39362164Y-69510000D02*
X39577836Y-69510000D01*
X39362164Y-68790000D02*
X39577836Y-68790000D01*
%TO.C,Q1*%
X40130000Y-59900000D02*
X40780000Y-59900000D01*
X41430000Y-59900000D02*
X40780000Y-59900000D01*
X40130000Y-56780000D02*
X40780000Y-56780000D01*
X41430000Y-56780000D02*
X40780000Y-56780000D01*
X41942500Y-56830000D02*
X41702500Y-56500000D01*
X42182500Y-56500000D01*
X41942500Y-56830000D01*
G36*
X41942500Y-56830000D02*
G01*
X41702500Y-56500000D01*
X42182500Y-56500000D01*
X41942500Y-56830000D01*
G37*
%TO.C,R4*%
X22227500Y-63777258D02*
X22227500Y-63302742D01*
X23272500Y-63777258D02*
X23272500Y-63302742D01*
%TO.C,R7*%
X46002500Y-60417258D02*
X46002500Y-59942742D01*
X44957500Y-60417258D02*
X44957500Y-59942742D01*
%TO.C,D3*%
X24115391Y-29464965D02*
X20464685Y-28136217D01*
X23339005Y-31598067D02*
X24115391Y-29464965D01*
X19688299Y-30269319D02*
X23339005Y-31598067D01*
%TO.C,R9*%
X26307258Y-31012500D02*
X25832742Y-31012500D01*
X26307258Y-29967500D02*
X25832742Y-29967500D01*
%TD*%
M02*
