%TF.GenerationSoftware,KiCad,Pcbnew,9.0.0*%
%TF.CreationDate,2026-08-18T23:02:38+03:00*%
%TF.ProjectId,purrCat_2x1,70757272-4361-4745-9f32-78312e6b6963,rev?*%
%TF.SameCoordinates,Original*%
%TF.FileFunction,Soldermask,Top*%
%TF.FilePolarity,Negative*%
%FSLAX46Y46*%
G04 Gerber Fmt 4.6, Leading zero omitted, Abs format (unit mm)*
G04 Created by KiCad (PCBNEW 9.0.0) date 2026-08-18 23:02:38*
%MOMM*%
%LPD*%
G01*
G04 APERTURE LIST*
%ADD10C,0.000000*%
%ADD11C,0.600000*%
%ADD12C,2.000000*%
G04 APERTURE END LIST*
D10*
G36*
X163449022Y-96157736D02*
G01*
X163406680Y-96165069D01*
X163359741Y-96172503D01*
X163305952Y-96180419D01*
X163259196Y-96186826D01*
X163489017Y-96150125D01*
X163449022Y-96157736D01*
G37*
G36*
X160263270Y-39994034D02*
G01*
X160267130Y-39994085D01*
X160271001Y-39994181D01*
X160274885Y-39994324D01*
X160274885Y-39994328D01*
X160288557Y-39995187D01*
X160302351Y-39996621D01*
X160316269Y-39998639D01*
X160330310Y-40001252D01*
X160344476Y-40004471D01*
X160358766Y-40008307D01*
X160373182Y-40012770D01*
X160387724Y-40017872D01*
X160402392Y-40023622D01*
X160417188Y-40030032D01*
X160432112Y-40037111D01*
X160447164Y-40044872D01*
X160462345Y-40053324D01*
X160477656Y-40062479D01*
X160493097Y-40072346D01*
X160508669Y-40082937D01*
X160529527Y-40098287D01*
X160549231Y-40114272D01*
X160567814Y-40130868D01*
X160585308Y-40148052D01*
X160601745Y-40165801D01*
X160617157Y-40184091D01*
X160631578Y-40202900D01*
X160645038Y-40222204D01*
X160669209Y-40262205D01*
X160689928Y-40303908D01*
X160707454Y-40347128D01*
X160722046Y-40391680D01*
X160733962Y-40437377D01*
X160743460Y-40484034D01*
X160750798Y-40531465D01*
X160756236Y-40579485D01*
X160760032Y-40627909D01*
X160762445Y-40676550D01*
X160764152Y-40773743D01*
X160761849Y-40950845D01*
X160755586Y-41128160D01*
X160738572Y-41483128D01*
X160731519Y-41660629D01*
X160727900Y-41838043D01*
X160729563Y-42015292D01*
X160732953Y-42103832D01*
X160738357Y-42192302D01*
X160746264Y-42264442D01*
X160759073Y-42334275D01*
X160776559Y-42401875D01*
X160798493Y-42467314D01*
X160824649Y-42530664D01*
X160854798Y-42591997D01*
X160888715Y-42651385D01*
X160926172Y-42708902D01*
X160966940Y-42764619D01*
X161010795Y-42818609D01*
X161057507Y-42870944D01*
X161106850Y-42921697D01*
X161212519Y-43018744D01*
X161325985Y-43110329D01*
X161445430Y-43197032D01*
X161569036Y-43279431D01*
X161821458Y-43433633D01*
X162068709Y-43577567D01*
X162296247Y-43715862D01*
X162475697Y-43836493D01*
X162570225Y-43897802D01*
X162618683Y-43926972D01*
X162667934Y-43954492D01*
X162717975Y-43979868D01*
X162768806Y-44002604D01*
X162820423Y-44022205D01*
X162872825Y-44038175D01*
X162926010Y-44050021D01*
X162952895Y-44054242D01*
X162979975Y-44057247D01*
X163007250Y-44058972D01*
X163034719Y-44059357D01*
X163062382Y-44058339D01*
X163090239Y-44055857D01*
X163103029Y-44053924D01*
X163115407Y-44051153D01*
X163127379Y-44047574D01*
X163138954Y-44043217D01*
X163150138Y-44038110D01*
X163160941Y-44032284D01*
X163171368Y-44025767D01*
X163181428Y-44018590D01*
X163191129Y-44010781D01*
X163200477Y-44002371D01*
X163218148Y-43983863D01*
X163234500Y-43963301D01*
X163249596Y-43940921D01*
X163263494Y-43916959D01*
X163276256Y-43891651D01*
X163287942Y-43865232D01*
X163298613Y-43837938D01*
X163308330Y-43810005D01*
X163317152Y-43781669D01*
X163325140Y-43753165D01*
X163332355Y-43724729D01*
X163341294Y-43746262D01*
X163349759Y-43767584D01*
X163353788Y-43778159D01*
X163357667Y-43788673D01*
X163361386Y-43799125D01*
X163364936Y-43809510D01*
X163431054Y-43999767D01*
X163500827Y-44188483D01*
X163647345Y-44563066D01*
X163796507Y-44936807D01*
X163869584Y-45124470D01*
X163940327Y-45313253D01*
X164073417Y-45701805D01*
X164190550Y-46092674D01*
X164293240Y-46485937D01*
X164383002Y-46881673D01*
X164461348Y-47279959D01*
X164529791Y-47680875D01*
X164589846Y-48084497D01*
X164643025Y-48490905D01*
X164696587Y-48969711D01*
X164740082Y-49453633D01*
X164773550Y-49941121D01*
X164797028Y-50430626D01*
X164810557Y-50920599D01*
X164814173Y-51409491D01*
X164807916Y-51895752D01*
X164791826Y-52377834D01*
X164780089Y-52716573D01*
X164770167Y-53059511D01*
X164763986Y-53231126D01*
X164755977Y-53402076D01*
X164745379Y-53571789D01*
X164731432Y-53739694D01*
X164718041Y-53857753D01*
X164701302Y-53977901D01*
X164665001Y-54221723D01*
X164649051Y-54344030D01*
X164636976Y-54465688D01*
X164632955Y-54526060D01*
X164630580Y-54586014D01*
X164630077Y-54645464D01*
X164631670Y-54704324D01*
X164632304Y-54713742D01*
X164633311Y-54723032D01*
X164634669Y-54732203D01*
X164636356Y-54741262D01*
X164638350Y-54750218D01*
X164640629Y-54759076D01*
X164643173Y-54767846D01*
X164645958Y-54776535D01*
X164648963Y-54785151D01*
X164652167Y-54793701D01*
X164659081Y-54810636D01*
X164666526Y-54827401D01*
X164674328Y-54844058D01*
X164502940Y-54877080D01*
X164333021Y-54918891D01*
X164164734Y-54969154D01*
X163998241Y-55027530D01*
X163833705Y-55093681D01*
X163671289Y-55167269D01*
X163511154Y-55247955D01*
X163353464Y-55335401D01*
X163198380Y-55429270D01*
X163046066Y-55529222D01*
X162896684Y-55634921D01*
X162750397Y-55746027D01*
X162607366Y-55862202D01*
X162467755Y-55983108D01*
X162331726Y-56108407D01*
X162199441Y-56237761D01*
X162068903Y-56096872D01*
X161934852Y-55960572D01*
X161797175Y-55829444D01*
X161655763Y-55704067D01*
X161510504Y-55585024D01*
X161361287Y-55472897D01*
X161208002Y-55368267D01*
X161050539Y-55271715D01*
X160888785Y-55183823D01*
X160722630Y-55105173D01*
X160551964Y-55036346D01*
X160376675Y-54977924D01*
X160196652Y-54930488D01*
X160011786Y-54894620D01*
X159821964Y-54870901D01*
X159627077Y-54859913D01*
X159570448Y-54859194D01*
X159513394Y-54859580D01*
X159455912Y-54861083D01*
X159398000Y-54863716D01*
X159339654Y-54867489D01*
X159280873Y-54872415D01*
X159221654Y-54878507D01*
X159161994Y-54885776D01*
X158582734Y-54958445D01*
X158296939Y-55000050D01*
X158155373Y-55024544D01*
X158014836Y-55052403D01*
X157875435Y-55084306D01*
X157737276Y-55120931D01*
X157600466Y-55162957D01*
X157465112Y-55211061D01*
X157331319Y-55265921D01*
X157199194Y-55328217D01*
X157068843Y-55398626D01*
X156940374Y-55477827D01*
X156835158Y-55550193D01*
X156733628Y-55626247D01*
X156635541Y-55705744D01*
X156540658Y-55788441D01*
X156448736Y-55874092D01*
X156359535Y-55962453D01*
X156272814Y-56053281D01*
X156188332Y-56146331D01*
X156105847Y-56241358D01*
X156025119Y-56338118D01*
X155867968Y-56535861D01*
X155714950Y-56737606D01*
X155564137Y-56941397D01*
X155567673Y-56943653D01*
X155571126Y-56945999D01*
X155574524Y-56948406D01*
X155577893Y-56950844D01*
X155584651Y-56955702D01*
X155588094Y-56958064D01*
X155591614Y-56960342D01*
X155473883Y-56889197D01*
X155353946Y-56821188D01*
X155232151Y-56756329D01*
X155108843Y-56694632D01*
X154984370Y-56636112D01*
X154859081Y-56580781D01*
X154733321Y-56528653D01*
X154607438Y-56479742D01*
X154552959Y-56460214D01*
X154497559Y-56442212D01*
X154441319Y-56425724D01*
X154384319Y-56410735D01*
X154326643Y-56397234D01*
X154268370Y-56385208D01*
X154209582Y-56374642D01*
X154150361Y-56365525D01*
X154090788Y-56357843D01*
X154030944Y-56351584D01*
X153970911Y-56346733D01*
X153910770Y-56343279D01*
X153850603Y-56341208D01*
X153790491Y-56340508D01*
X153730514Y-56341165D01*
X153670756Y-56343166D01*
X153631079Y-56345240D01*
X153591561Y-56347904D01*
X153552227Y-56351153D01*
X153513098Y-56354982D01*
X153474198Y-56359387D01*
X153435552Y-56364364D01*
X153397182Y-56369908D01*
X153359112Y-56376015D01*
X153260550Y-56394418D01*
X153162466Y-56416287D01*
X153065022Y-56441508D01*
X152968379Y-56469972D01*
X152872700Y-56501568D01*
X152778147Y-56536184D01*
X152684881Y-56573709D01*
X152593064Y-56614032D01*
X152438608Y-56690913D01*
X152293812Y-56775333D01*
X152158292Y-56866947D01*
X152031660Y-56965404D01*
X151913530Y-57070358D01*
X151803515Y-57181460D01*
X151701230Y-57298362D01*
X151606287Y-57420717D01*
X151518300Y-57548175D01*
X151436883Y-57680390D01*
X151292212Y-57957695D01*
X151169182Y-58249849D01*
X151064701Y-58554066D01*
X150975678Y-58867562D01*
X150899021Y-59187553D01*
X150770436Y-59835884D01*
X150654214Y-60476783D01*
X150593009Y-60787484D01*
X150525620Y-61087975D01*
X150497231Y-61211929D01*
X150471182Y-61337083D01*
X150421844Y-61588815D01*
X150369087Y-61838818D01*
X150338764Y-61961811D01*
X150304392Y-62082738D01*
X150264907Y-62201055D01*
X150219243Y-62316219D01*
X150166335Y-62427684D01*
X150136832Y-62481860D01*
X150105120Y-62534907D01*
X150071063Y-62586757D01*
X150034531Y-62637342D01*
X149995389Y-62686595D01*
X149953505Y-62734447D01*
X149908744Y-62780830D01*
X149860976Y-62825676D01*
X149810065Y-62868917D01*
X149755879Y-62910485D01*
X149712723Y-62938449D01*
X149669188Y-62959963D01*
X149625353Y-62975324D01*
X149581300Y-62984829D01*
X149537109Y-62988776D01*
X149492860Y-62987462D01*
X149448634Y-62981185D01*
X149404511Y-62970242D01*
X149360572Y-62954931D01*
X149316897Y-62935548D01*
X149273567Y-62912391D01*
X149230661Y-62885758D01*
X149188261Y-62855946D01*
X149146447Y-62823252D01*
X149064898Y-62750408D01*
X148986657Y-62669607D01*
X148912370Y-62583227D01*
X148842678Y-62493647D01*
X148778225Y-62403247D01*
X148719656Y-62314405D01*
X148667613Y-62229500D01*
X148622741Y-62150912D01*
X148585682Y-62081020D01*
X148477721Y-61850184D01*
X148387128Y-61618183D01*
X148312468Y-61385023D01*
X148252307Y-61150707D01*
X148205207Y-60915243D01*
X148169735Y-60678634D01*
X148144453Y-60440887D01*
X148127927Y-60202006D01*
X148118722Y-59961997D01*
X148115401Y-59720866D01*
X148120672Y-59235254D01*
X148132257Y-58745215D01*
X148138670Y-58250789D01*
X148110321Y-58250789D01*
X148045879Y-58370028D01*
X147989470Y-58492225D01*
X147940445Y-58617089D01*
X147898155Y-58744328D01*
X147861952Y-58873651D01*
X147831187Y-59004767D01*
X147805211Y-59137383D01*
X147783376Y-59271208D01*
X147749532Y-59541319D01*
X147724465Y-59812767D01*
X147679903Y-60350346D01*
X147649379Y-60740129D01*
X147633395Y-61132728D01*
X147632709Y-61526890D01*
X147648076Y-61921363D01*
X147680252Y-62314894D01*
X147729993Y-62706230D01*
X147798055Y-63094119D01*
X147885194Y-63477308D01*
X147992166Y-63854544D01*
X148119726Y-64224575D01*
X148268632Y-64586148D01*
X148439638Y-64938010D01*
X148633501Y-65278909D01*
X148850977Y-65607592D01*
X149092821Y-65922806D01*
X149359791Y-66223299D01*
X149541779Y-66398391D01*
X149737446Y-66557922D01*
X149945281Y-66701424D01*
X150163770Y-66828432D01*
X150391403Y-66938477D01*
X150626668Y-67031092D01*
X150868053Y-67105812D01*
X151114046Y-67162168D01*
X151363135Y-67199693D01*
X151613810Y-67217922D01*
X151864557Y-67216386D01*
X152113865Y-67194618D01*
X152360223Y-67152153D01*
X152602119Y-67088522D01*
X152720921Y-67048624D01*
X152838041Y-67003259D01*
X152953289Y-66952369D01*
X153066477Y-66895896D01*
X153113755Y-67078580D01*
X153163453Y-67261800D01*
X153267949Y-67631042D01*
X153284388Y-67689849D01*
X153300318Y-67749681D01*
X153331178Y-67871796D01*
X153392566Y-68121446D01*
X153003245Y-68199713D01*
X152617993Y-68296783D01*
X152237730Y-68412275D01*
X151863379Y-68545804D01*
X151495862Y-68696986D01*
X151136100Y-68865438D01*
X150785015Y-69050777D01*
X150443530Y-69252617D01*
X150112565Y-69470577D01*
X149793042Y-69704271D01*
X149485885Y-69953317D01*
X149192013Y-70217331D01*
X148912350Y-70495928D01*
X148647816Y-70788726D01*
X148399335Y-71095340D01*
X148167827Y-71415388D01*
X147999784Y-71673708D01*
X147843170Y-71938602D01*
X147697904Y-72209590D01*
X147563906Y-72486189D01*
X147441093Y-72767922D01*
X147329384Y-73054307D01*
X147228700Y-73344863D01*
X147138958Y-73639112D01*
X147060078Y-73936571D01*
X146991978Y-74236762D01*
X146934577Y-74539204D01*
X146887795Y-74843416D01*
X146851550Y-75148918D01*
X146825761Y-75455230D01*
X146810347Y-75761872D01*
X146805227Y-76068363D01*
X146809818Y-76360501D01*
X146823511Y-76652518D01*
X146846188Y-76944148D01*
X146877732Y-77235128D01*
X146918023Y-77525190D01*
X146966943Y-77814071D01*
X147024375Y-78101504D01*
X147090200Y-78387225D01*
X147164299Y-78670969D01*
X147246555Y-78952469D01*
X147336849Y-79231462D01*
X147435063Y-79507681D01*
X147541078Y-79780862D01*
X147654777Y-80050740D01*
X147776041Y-80317048D01*
X147904752Y-80579523D01*
X147966924Y-80699810D01*
X148030813Y-80819347D01*
X148096430Y-80938044D01*
X148163786Y-81055809D01*
X148232888Y-81172552D01*
X148303749Y-81288180D01*
X148376378Y-81402604D01*
X148450785Y-81515731D01*
X148478115Y-81558370D01*
X148507330Y-81605652D01*
X148538640Y-81655155D01*
X148555146Y-81679982D01*
X148572255Y-81704457D01*
X148589991Y-81728276D01*
X148608383Y-81751136D01*
X148627455Y-81772736D01*
X148647235Y-81792773D01*
X148657398Y-81802110D01*
X148667747Y-81810943D01*
X148678287Y-81819233D01*
X148689019Y-81826944D01*
X148699948Y-81834036D01*
X148711077Y-81840473D01*
X148722409Y-81846216D01*
X148733946Y-81851228D01*
X148750084Y-81856331D01*
X148764145Y-81858072D01*
X148776224Y-81856649D01*
X148786419Y-81852255D01*
X148794825Y-81845087D01*
X148801539Y-81835340D01*
X148806657Y-81823210D01*
X148810274Y-81808892D01*
X148812488Y-81792581D01*
X148813395Y-81774474D01*
X148811670Y-81733650D01*
X148805869Y-81687984D01*
X148796763Y-81639040D01*
X148785120Y-81588382D01*
X148771711Y-81537574D01*
X148742673Y-81441764D01*
X148715806Y-81364119D01*
X148697267Y-81317152D01*
X148488767Y-80843152D01*
X148388557Y-80605111D01*
X148291993Y-80365823D01*
X148199788Y-80124873D01*
X148112658Y-79881844D01*
X148031317Y-79636323D01*
X147956479Y-79387893D01*
X147837333Y-78926617D01*
X147741202Y-78457727D01*
X147668966Y-77983167D01*
X147621504Y-77504877D01*
X147599696Y-77024801D01*
X147604421Y-76544880D01*
X147636558Y-76067056D01*
X147696986Y-75593270D01*
X147786586Y-75125466D01*
X147906236Y-74665584D01*
X148056815Y-74215567D01*
X148239203Y-73777357D01*
X148454280Y-73352896D01*
X148702924Y-72944125D01*
X148840109Y-72746230D01*
X148986016Y-72552987D01*
X149140754Y-72364637D01*
X149304433Y-72181423D01*
X149398078Y-72083068D01*
X149493507Y-71987116D01*
X149590697Y-71893525D01*
X149689627Y-71802253D01*
X149790273Y-71713257D01*
X149892613Y-71626494D01*
X149996624Y-71541922D01*
X150102284Y-71459499D01*
X150209570Y-71379182D01*
X150318459Y-71300929D01*
X150428930Y-71224697D01*
X150540958Y-71150444D01*
X150769601Y-71007704D01*
X151004205Y-70872370D01*
X151104441Y-70818319D01*
X151205834Y-70766633D01*
X151308312Y-70717221D01*
X151411804Y-70669996D01*
X151621540Y-70581748D01*
X151834465Y-70501179D01*
X152050004Y-70427578D01*
X152267578Y-70360236D01*
X152486613Y-70298441D01*
X152706531Y-70241484D01*
X152818915Y-70214977D01*
X152930795Y-70191408D01*
X153042259Y-70170618D01*
X153153396Y-70152450D01*
X153375047Y-70123354D01*
X153596460Y-70102862D01*
X153818347Y-70089718D01*
X154041420Y-70082665D01*
X154266390Y-70080445D01*
X154493971Y-70081801D01*
X154559755Y-70083453D01*
X154628645Y-70086999D01*
X154700047Y-70092606D01*
X154773364Y-70100440D01*
X154848001Y-70110668D01*
X154923363Y-70123455D01*
X154998853Y-70138969D01*
X155073876Y-70157375D01*
X155147836Y-70178839D01*
X155220138Y-70203530D01*
X155290186Y-70231611D01*
X155357385Y-70263251D01*
X155421138Y-70298615D01*
X155480851Y-70337869D01*
X155509005Y-70359008D01*
X155535926Y-70381181D01*
X155561540Y-70404410D01*
X155585770Y-70428716D01*
X155603575Y-70448229D01*
X155620092Y-70467744D01*
X155635372Y-70487270D01*
X155649467Y-70506817D01*
X155662430Y-70526396D01*
X155674314Y-70546015D01*
X155695050Y-70585418D01*
X155712095Y-70625105D01*
X155725867Y-70665156D01*
X155736783Y-70705652D01*
X155745262Y-70746671D01*
X155751722Y-70788294D01*
X155756582Y-70830601D01*
X155763172Y-70917584D01*
X155768380Y-71008260D01*
X155775551Y-71103266D01*
X155792426Y-71298792D01*
X155806873Y-71494245D01*
X155834720Y-71884808D01*
X155851242Y-72079856D01*
X155871577Y-72274708D01*
X155897285Y-72469334D01*
X155929928Y-72663702D01*
X155986413Y-72943988D01*
X156050144Y-73225331D01*
X156120750Y-73507348D01*
X156197857Y-73789658D01*
X156370081Y-74353632D01*
X156563831Y-74914201D01*
X156776123Y-75468314D01*
X157003973Y-76012919D01*
X157244393Y-76544964D01*
X157494401Y-77061398D01*
X157560600Y-77189205D01*
X157628842Y-77312019D01*
X157699242Y-77430217D01*
X157771916Y-77544180D01*
X157846978Y-77654287D01*
X157924545Y-77760916D01*
X158004730Y-77864447D01*
X158087650Y-77965260D01*
X158173418Y-78063733D01*
X158262151Y-78160245D01*
X158353964Y-78255177D01*
X158448971Y-78348906D01*
X158547288Y-78441813D01*
X158649029Y-78534277D01*
X158754311Y-78626676D01*
X158863248Y-78719390D01*
X158985654Y-78821795D01*
X159110276Y-78922491D01*
X159173781Y-78971144D01*
X159238277Y-79018102D01*
X159303910Y-79062944D01*
X159370824Y-79105248D01*
X159439166Y-79144591D01*
X159509080Y-79180552D01*
X159580714Y-79212707D01*
X159654212Y-79240635D01*
X159729720Y-79263914D01*
X159807383Y-79282120D01*
X159887348Y-79294833D01*
X159928238Y-79298997D01*
X159969759Y-79301629D01*
X160004957Y-79302994D01*
X160041070Y-79304133D01*
X160114329Y-79306334D01*
X160095686Y-79305897D01*
X160076987Y-79305669D01*
X160058385Y-79305403D01*
X160049167Y-79305178D01*
X160040030Y-79304850D01*
X160157175Y-79408593D01*
X160276058Y-79510470D01*
X160396268Y-79610514D01*
X160517395Y-79708755D01*
X160639027Y-79805227D01*
X160760753Y-79899959D01*
X161002844Y-80084334D01*
X161210381Y-80235391D01*
X161424308Y-80380366D01*
X161644241Y-80518420D01*
X161869795Y-80648712D01*
X162100586Y-80770401D01*
X162336229Y-80882646D01*
X162576340Y-80984607D01*
X162820534Y-81075444D01*
X163068427Y-81154314D01*
X163319633Y-81220378D01*
X163573769Y-81272795D01*
X163830449Y-81310725D01*
X164089290Y-81333326D01*
X164349907Y-81339758D01*
X164611914Y-81329180D01*
X164874928Y-81300752D01*
X164939385Y-81290872D01*
X165002855Y-81279804D01*
X165065348Y-81267565D01*
X165126878Y-81254169D01*
X165187458Y-81239632D01*
X165247099Y-81223970D01*
X165305814Y-81207198D01*
X165363615Y-81189333D01*
X165420515Y-81170390D01*
X165476526Y-81150385D01*
X165531660Y-81129334D01*
X165585930Y-81107251D01*
X165639347Y-81084153D01*
X165691926Y-81060056D01*
X165743676Y-81034975D01*
X165794613Y-81008926D01*
X165795310Y-81018164D01*
X165796499Y-81027261D01*
X165798199Y-81036188D01*
X165800427Y-81044921D01*
X165803204Y-81053430D01*
X165804803Y-81057593D01*
X165806547Y-81061690D01*
X165808437Y-81065718D01*
X165810476Y-81069673D01*
X165812666Y-81073553D01*
X165815009Y-81077353D01*
X165817508Y-81081070D01*
X165820166Y-81084702D01*
X165822984Y-81088243D01*
X165825965Y-81091693D01*
X165829111Y-81095045D01*
X165832424Y-81098299D01*
X165835908Y-81101449D01*
X165839564Y-81104493D01*
X165843394Y-81107427D01*
X165847402Y-81110249D01*
X165851588Y-81112953D01*
X165855957Y-81115538D01*
X165860509Y-81118000D01*
X165865248Y-81120335D01*
X165870176Y-81122540D01*
X165875295Y-81124612D01*
X165897002Y-81131176D01*
X165919811Y-81134737D01*
X165943638Y-81135453D01*
X165968397Y-81133485D01*
X165994004Y-81128990D01*
X166020372Y-81122127D01*
X166047416Y-81113055D01*
X166075051Y-81101932D01*
X166103192Y-81088918D01*
X166131754Y-81074171D01*
X166189798Y-81040111D01*
X166248501Y-81001024D01*
X166307179Y-80958178D01*
X166365152Y-80912843D01*
X166421736Y-80866288D01*
X166528010Y-80774601D01*
X166620543Y-80693270D01*
X166659950Y-80659663D01*
X166693875Y-80632455D01*
X166842839Y-80510176D01*
X166984761Y-80376819D01*
X167120221Y-80233597D01*
X167249797Y-80081722D01*
X167374071Y-79922408D01*
X167493623Y-79756869D01*
X167609031Y-79586317D01*
X167720876Y-79411966D01*
X167936198Y-79056718D01*
X168144226Y-78700831D01*
X168349601Y-78354011D01*
X168452743Y-78187035D01*
X168556962Y-78025964D01*
X168698512Y-77801533D01*
X168828196Y-77572334D01*
X168946614Y-77338707D01*
X169054368Y-77100993D01*
X169152059Y-76859535D01*
X169240289Y-76614672D01*
X169319657Y-76366747D01*
X169390768Y-76116101D01*
X169454220Y-75863075D01*
X169510616Y-75608010D01*
X169560557Y-75351247D01*
X169604644Y-75093129D01*
X169677662Y-74574188D01*
X169734482Y-74053918D01*
X169771223Y-73600544D01*
X169793636Y-73145512D01*
X169801308Y-72689569D01*
X169793827Y-72233460D01*
X169770783Y-71777930D01*
X169731764Y-71323725D01*
X169676358Y-70871591D01*
X169604154Y-70422273D01*
X169556558Y-70186039D01*
X169500831Y-69953065D01*
X169438721Y-69722537D01*
X169371974Y-69493643D01*
X169231549Y-69037500D01*
X169161363Y-68808624D01*
X169093523Y-68578128D01*
X169065298Y-68487329D01*
X169031713Y-68388625D01*
X168995771Y-68284538D01*
X168960478Y-68177590D01*
X168944014Y-68123832D01*
X168928838Y-68070305D01*
X168915326Y-68017323D01*
X168903854Y-67965203D01*
X168894796Y-67914260D01*
X168888530Y-67864809D01*
X168885430Y-67817164D01*
X168885871Y-67771643D01*
X168887209Y-67754826D01*
X168889434Y-67737750D01*
X168896371Y-67702909D01*
X168906330Y-67667299D01*
X168918958Y-67631100D01*
X168933902Y-67594492D01*
X168950810Y-67557655D01*
X168969329Y-67520768D01*
X168989106Y-67484013D01*
X169031024Y-67411614D01*
X169073742Y-67341897D01*
X169114438Y-67276303D01*
X169150291Y-67216270D01*
X169215851Y-67106140D01*
X169284092Y-67000383D01*
X169355172Y-66899051D01*
X169429249Y-66802198D01*
X169506480Y-66709875D01*
X169587022Y-66622136D01*
X169671034Y-66539031D01*
X169758672Y-66460615D01*
X169850094Y-66386938D01*
X169945457Y-66318054D01*
X170044919Y-66254014D01*
X170148638Y-66194871D01*
X170256770Y-66140678D01*
X170369474Y-66091487D01*
X170486906Y-66047350D01*
X170609224Y-66008319D01*
X170714471Y-65979967D01*
X170823288Y-65955393D01*
X170935097Y-65934823D01*
X171049316Y-65918484D01*
X171165365Y-65906602D01*
X171282663Y-65899401D01*
X171400630Y-65897109D01*
X171518686Y-65899951D01*
X171636250Y-65908152D01*
X171752742Y-65921939D01*
X171867581Y-65941538D01*
X171980186Y-65967175D01*
X172089978Y-65999075D01*
X172196375Y-66037464D01*
X172298797Y-66082568D01*
X172396665Y-66134614D01*
X172437107Y-66159412D01*
X172476546Y-66185951D01*
X172515056Y-66214067D01*
X172552708Y-66243597D01*
X172589575Y-66274377D01*
X172625729Y-66306245D01*
X172661243Y-66339037D01*
X172696189Y-66372590D01*
X172764667Y-66441324D01*
X172831741Y-66511143D01*
X172897990Y-66580738D01*
X172963995Y-66648806D01*
X173039245Y-66724801D01*
X173122146Y-66811099D01*
X173164569Y-66857543D01*
X173206627Y-66905880D01*
X173247562Y-66955882D01*
X173286616Y-67007321D01*
X173323029Y-67059971D01*
X173356042Y-67113603D01*
X173384896Y-67167989D01*
X173397527Y-67195394D01*
X173408833Y-67222902D01*
X173418720Y-67250485D01*
X173427094Y-67278115D01*
X173433858Y-67305762D01*
X173438919Y-67333399D01*
X173442181Y-67360996D01*
X173443550Y-67388527D01*
X173442930Y-67415961D01*
X173440228Y-67443271D01*
X173435893Y-67470188D01*
X173430402Y-67497042D01*
X173416192Y-67550555D01*
X173398086Y-67603799D01*
X173376571Y-67656761D01*
X173352134Y-67709430D01*
X173325262Y-67761793D01*
X173296444Y-67813839D01*
X173266167Y-67865556D01*
X173140210Y-68068895D01*
X173081148Y-68168279D01*
X173054302Y-68217359D01*
X173029895Y-68266014D01*
X172881522Y-68570154D01*
X172728734Y-68872016D01*
X172420250Y-69473957D01*
X172269722Y-69776559D01*
X172125115Y-70081932D01*
X171989012Y-70391338D01*
X171924957Y-70547947D01*
X171863997Y-70706037D01*
X171746706Y-71039619D01*
X171640995Y-71379285D01*
X171546237Y-71724335D01*
X171461806Y-72074069D01*
X171387074Y-72427788D01*
X171321414Y-72784791D01*
X171264200Y-73144378D01*
X171214805Y-73505851D01*
X171136961Y-74231649D01*
X171082868Y-74956587D01*
X171047509Y-75675066D01*
X171025869Y-76381485D01*
X171024993Y-76525507D01*
X171029065Y-76666369D01*
X171037841Y-76804430D01*
X171051079Y-76940051D01*
X171068533Y-77073592D01*
X171089960Y-77205413D01*
X171115116Y-77335875D01*
X171143758Y-77465338D01*
X171175642Y-77594162D01*
X171210523Y-77722708D01*
X171288305Y-77980406D01*
X171375153Y-78241314D01*
X171469118Y-78508315D01*
X171478808Y-78535185D01*
X171488672Y-78562058D01*
X171498719Y-78588930D01*
X171508953Y-78615796D01*
X171424433Y-78815580D01*
X171335584Y-79014972D01*
X171146094Y-79412016D01*
X170942876Y-79805792D01*
X170728326Y-80195167D01*
X170504837Y-80579006D01*
X170274804Y-80956174D01*
X170040621Y-81325537D01*
X169804683Y-81685959D01*
X169692274Y-81845676D01*
X169572699Y-81998359D01*
X169446821Y-82144851D01*
X169315506Y-82285999D01*
X169179618Y-82422648D01*
X169040020Y-82555643D01*
X168753153Y-82814055D01*
X168461819Y-83067996D01*
X168172932Y-83324231D01*
X168031566Y-83455322D01*
X167893405Y-83589522D01*
X167759312Y-83727677D01*
X167630152Y-83870632D01*
X167689075Y-83881976D01*
X167748051Y-83895666D01*
X167866017Y-83929692D01*
X167983758Y-83971934D01*
X168100981Y-84021615D01*
X168217394Y-84077961D01*
X168332705Y-84140196D01*
X168446620Y-84207542D01*
X168558849Y-84279225D01*
X168669097Y-84354468D01*
X168777073Y-84432495D01*
X168882484Y-84512531D01*
X168985037Y-84593799D01*
X169180403Y-84756929D01*
X169360829Y-84915678D01*
X169551504Y-85095997D01*
X169730184Y-85283683D01*
X169896971Y-85478319D01*
X170051964Y-85679486D01*
X170195264Y-85886768D01*
X170326971Y-86099746D01*
X170447186Y-86318004D01*
X170556008Y-86541123D01*
X170653540Y-86768686D01*
X170739880Y-87000275D01*
X170815129Y-87235473D01*
X170879388Y-87473862D01*
X170932757Y-87715025D01*
X170975336Y-87958544D01*
X171028527Y-88450980D01*
X171039765Y-88947829D01*
X171009852Y-89445750D01*
X170939592Y-89941403D01*
X170829787Y-90431447D01*
X170681242Y-90912542D01*
X170494759Y-91381347D01*
X170271141Y-91834521D01*
X170011192Y-92268724D01*
X169727673Y-92671583D01*
X169421483Y-93051752D01*
X169093941Y-93409513D01*
X168746368Y-93745147D01*
X168380083Y-94058935D01*
X167996407Y-94351158D01*
X167596659Y-94622097D01*
X167182161Y-94872035D01*
X166754230Y-95101251D01*
X166314188Y-95310028D01*
X165863355Y-95498646D01*
X165403050Y-95667387D01*
X164934594Y-95816533D01*
X164459307Y-95946363D01*
X163978508Y-96057160D01*
X163493518Y-96149205D01*
X163575347Y-96131561D01*
X163674800Y-96108232D01*
X163998573Y-96032249D01*
X164128557Y-96007280D01*
X164172901Y-95997939D01*
X164219164Y-95987096D01*
X164265935Y-95974618D01*
X164311803Y-95960373D01*
X164355359Y-95944231D01*
X164395192Y-95926058D01*
X164413271Y-95916170D01*
X164429891Y-95905724D01*
X164444875Y-95894706D01*
X164458047Y-95883097D01*
X164469230Y-95870883D01*
X164478248Y-95858045D01*
X164484925Y-95844568D01*
X164489085Y-95830436D01*
X164490551Y-95815632D01*
X164489147Y-95800138D01*
X164484697Y-95783940D01*
X164477024Y-95767021D01*
X164467586Y-95752560D01*
X164455898Y-95739715D01*
X164442098Y-95728408D01*
X164426323Y-95718566D01*
X164408712Y-95710111D01*
X164389403Y-95702969D01*
X164368533Y-95697063D01*
X164346240Y-95692319D01*
X164297939Y-95686010D01*
X164245604Y-95683438D01*
X164190339Y-95683997D01*
X164133247Y-95687082D01*
X164075433Y-95692088D01*
X164018000Y-95698409D01*
X163908693Y-95712579D01*
X163814157Y-95724748D01*
X163775189Y-95728570D01*
X163743225Y-95730077D01*
X163599923Y-95729226D01*
X163459644Y-95725292D01*
X163322033Y-95718301D01*
X163186737Y-95708279D01*
X163053404Y-95695254D01*
X162921681Y-95679251D01*
X162791214Y-95660297D01*
X162661651Y-95638418D01*
X162532639Y-95613641D01*
X162403824Y-95585992D01*
X162145375Y-95522183D01*
X161883481Y-95447203D01*
X161615318Y-95361262D01*
X161498963Y-95324644D01*
X161713599Y-95264777D01*
X161980016Y-95185493D01*
X162123496Y-95137628D01*
X162268945Y-95083776D01*
X162412704Y-95023561D01*
X162551116Y-94956605D01*
X162617172Y-94920482D01*
X162680520Y-94882532D01*
X162740701Y-94842708D01*
X162797259Y-94800963D01*
X162849735Y-94757251D01*
X162897673Y-94711522D01*
X162940615Y-94663732D01*
X162978104Y-94613831D01*
X163009683Y-94561774D01*
X163034894Y-94507513D01*
X163053280Y-94451001D01*
X163064383Y-94392191D01*
X163067746Y-94331035D01*
X163062912Y-94267486D01*
X163049424Y-94201498D01*
X163026824Y-94133023D01*
X163011918Y-94096237D01*
X162996585Y-94061129D01*
X162980697Y-94027679D01*
X162964126Y-93995871D01*
X162946741Y-93965684D01*
X162928415Y-93937102D01*
X162909020Y-93910105D01*
X162888425Y-93884676D01*
X162866503Y-93860795D01*
X162843125Y-93838445D01*
X162818161Y-93817606D01*
X162791484Y-93798262D01*
X162762964Y-93780393D01*
X162732473Y-93763980D01*
X162699883Y-93749007D01*
X162665063Y-93735453D01*
X162576361Y-93705444D01*
X162484775Y-93677619D01*
X162390669Y-93651926D01*
X162294411Y-93628314D01*
X162196366Y-93606732D01*
X162096901Y-93587129D01*
X161895171Y-93553655D01*
X161692151Y-93527485D01*
X161490767Y-93508208D01*
X161293948Y-93495418D01*
X161104621Y-93488704D01*
X161284372Y-93316298D01*
X161458063Y-93153130D01*
X161540941Y-93072714D01*
X161620271Y-92991851D01*
X161695374Y-92909624D01*
X161765573Y-92825114D01*
X161830189Y-92737402D01*
X161888545Y-92645569D01*
X161915163Y-92597821D01*
X161939962Y-92548698D01*
X161962857Y-92498086D01*
X161983763Y-92445869D01*
X162002596Y-92391934D01*
X162019271Y-92336165D01*
X162033702Y-92278447D01*
X162045806Y-92218666D01*
X162055497Y-92156706D01*
X162062691Y-92092453D01*
X162067303Y-92025793D01*
X162069248Y-91956610D01*
X162003203Y-91959124D01*
X161937341Y-91963733D01*
X161871636Y-91970134D01*
X161806061Y-91978023D01*
X161675194Y-91997051D01*
X161544525Y-92018392D01*
X161413836Y-92039619D01*
X161282914Y-92058304D01*
X161217298Y-92065935D01*
X161151542Y-92072020D01*
X161085620Y-92076257D01*
X161019505Y-92078342D01*
X160974175Y-92079048D01*
X160936857Y-92079769D01*
X160885280Y-92081095D01*
X161063933Y-92069042D01*
X161208184Y-92055788D01*
X161382026Y-92036291D01*
X161580187Y-92009479D01*
X161797400Y-91974282D01*
X162028393Y-91929631D01*
X162267898Y-91874455D01*
X162350943Y-91852151D01*
X162433400Y-91827276D01*
X162515303Y-91800065D01*
X162596684Y-91770755D01*
X162677577Y-91739582D01*
X162758014Y-91706782D01*
X162917653Y-91637242D01*
X163544575Y-91341181D01*
X163688977Y-91274683D01*
X163832687Y-91206698D01*
X163974587Y-91135613D01*
X164044510Y-91098405D01*
X164113561Y-91059818D01*
X164181600Y-91019651D01*
X164248489Y-90977702D01*
X164314088Y-90933770D01*
X164378256Y-90887654D01*
X164440854Y-90839152D01*
X164501742Y-90788064D01*
X164560781Y-90734186D01*
X164617830Y-90677319D01*
X164720876Y-90559405D01*
X164816484Y-90429170D01*
X164904341Y-90288069D01*
X164984129Y-90137554D01*
X165055534Y-89979080D01*
X165118239Y-89814101D01*
X165171928Y-89644071D01*
X165216286Y-89470443D01*
X165250997Y-89294672D01*
X165275745Y-89118211D01*
X165290213Y-88942515D01*
X165294087Y-88769037D01*
X165287051Y-88599231D01*
X165268788Y-88434552D01*
X165238983Y-88276452D01*
X165197320Y-88126386D01*
X165168253Y-88044537D01*
X165135545Y-87964967D01*
X165099339Y-87887632D01*
X165059780Y-87812486D01*
X165017012Y-87739483D01*
X164971178Y-87668579D01*
X164870893Y-87532881D01*
X164760077Y-87405028D01*
X164639882Y-87284655D01*
X164511463Y-87171399D01*
X164375970Y-87064894D01*
X164234558Y-86964776D01*
X164088379Y-86870680D01*
X163938586Y-86782243D01*
X163786332Y-86699099D01*
X163632769Y-86620884D01*
X163479051Y-86547234D01*
X163175758Y-86412170D01*
X163027570Y-86350737D01*
X162877152Y-86292262D01*
X162570437Y-86184131D01*
X162257234Y-86087664D01*
X161939167Y-86002753D01*
X161617856Y-85929287D01*
X161294925Y-85867155D01*
X160971995Y-85816247D01*
X160650688Y-85776452D01*
X160565729Y-85768867D01*
X160480131Y-85764021D01*
X160393977Y-85761585D01*
X160307348Y-85761230D01*
X160132992Y-85765447D01*
X159957716Y-85774039D01*
X159607018Y-85793815D01*
X159432902Y-85799733D01*
X159260478Y-85799494D01*
X158962411Y-85789734D01*
X158663895Y-85775175D01*
X158365177Y-85756008D01*
X158066505Y-85732418D01*
X157768126Y-85704596D01*
X157470288Y-85672730D01*
X157173237Y-85637006D01*
X156877223Y-85597615D01*
X155962201Y-85448683D01*
X155038767Y-85254922D01*
X154112798Y-85015962D01*
X153190173Y-84731436D01*
X152276769Y-84400975D01*
X151378464Y-84024211D01*
X150501138Y-83600775D01*
X149650668Y-83130298D01*
X148832932Y-82612412D01*
X148438176Y-82335575D01*
X148053809Y-82046748D01*
X147680563Y-81745885D01*
X147319176Y-81432939D01*
X146970380Y-81107864D01*
X146634912Y-80770614D01*
X146313505Y-80421144D01*
X146006895Y-80059406D01*
X145715817Y-79685356D01*
X145441004Y-79298947D01*
X145183192Y-78900133D01*
X144943116Y-78488868D01*
X144721510Y-78065105D01*
X144519110Y-77628799D01*
X144221425Y-76913386D01*
X143947959Y-76186744D01*
X143702083Y-75449787D01*
X143590544Y-75077727D01*
X143487166Y-74703431D01*
X143392370Y-74327014D01*
X143306577Y-73948591D01*
X143230210Y-73568276D01*
X143163688Y-73186182D01*
X143107433Y-72802425D01*
X143061867Y-72417119D01*
X143027410Y-72030378D01*
X143004484Y-71642317D01*
X142998067Y-71426309D01*
X142997486Y-71210205D01*
X143002381Y-70994067D01*
X143012393Y-70777955D01*
X143046325Y-70346063D01*
X143096399Y-69915023D01*
X143159736Y-69485333D01*
X143233454Y-69057487D01*
X143314671Y-68631982D01*
X143400506Y-68209314D01*
X143526362Y-67624163D01*
X143663582Y-67037308D01*
X143814084Y-66451119D01*
X143979787Y-65867966D01*
X144162609Y-65290219D01*
X144364467Y-64720247D01*
X144473136Y-64438917D01*
X144587282Y-64160419D01*
X144707148Y-63885051D01*
X144832971Y-63613107D01*
X144886472Y-63504222D01*
X144942270Y-63396555D01*
X145059702Y-63184315D01*
X145183142Y-62975276D01*
X145310467Y-62768323D01*
X145568276Y-62356229D01*
X145694514Y-62148862D01*
X145816141Y-61939133D01*
X145973069Y-61653794D01*
X146126037Y-61366218D01*
X146426057Y-60787731D01*
X146728128Y-60210427D01*
X146883661Y-59924330D01*
X147044180Y-59641061D01*
X147158990Y-59449058D01*
X147277287Y-59259625D01*
X147517256Y-58883610D01*
X147635387Y-58694598D01*
X147749920Y-58503297D01*
X147859085Y-58308492D01*
X147911101Y-58209396D01*
X147961111Y-58108969D01*
X148076785Y-57857974D01*
X148181484Y-57605847D01*
X148275208Y-57352553D01*
X148357956Y-57098058D01*
X148429728Y-56842330D01*
X148490524Y-56585335D01*
X148540344Y-56327038D01*
X148579189Y-56067407D01*
X148607057Y-55806407D01*
X148623948Y-55544006D01*
X148629863Y-55280169D01*
X148624802Y-55014862D01*
X148608763Y-54748053D01*
X148581747Y-54479708D01*
X148543755Y-54209792D01*
X148494785Y-53938273D01*
X148442950Y-53698778D01*
X148384039Y-53460607D01*
X148318846Y-53223631D01*
X148248160Y-52987722D01*
X148093484Y-52518589D01*
X147926346Y-52052182D01*
X147580028Y-51123425D01*
X147413520Y-50659020D01*
X147259894Y-50193225D01*
X147202236Y-50000140D01*
X147148487Y-49804333D01*
X147126108Y-49714956D01*
X149385600Y-49714956D01*
X149386763Y-49892832D01*
X149395138Y-50071147D01*
X149410710Y-50249924D01*
X149431184Y-50411918D01*
X149443769Y-50492480D01*
X149457954Y-50572709D01*
X149473768Y-50652577D01*
X149491236Y-50732050D01*
X149510386Y-50811099D01*
X149531244Y-50889692D01*
X149553838Y-50967799D01*
X149578195Y-51045388D01*
X149604342Y-51122429D01*
X149632305Y-51198889D01*
X149662112Y-51274740D01*
X149693789Y-51349948D01*
X149727364Y-51424484D01*
X149762864Y-51498317D01*
X149884328Y-51727189D01*
X150015943Y-51945539D01*
X150157286Y-52153519D01*
X150307935Y-52351281D01*
X150467471Y-52538976D01*
X150635470Y-52716756D01*
X150811512Y-52884772D01*
X150995175Y-53043177D01*
X151186037Y-53192123D01*
X151383678Y-53331759D01*
X151797607Y-53583715D01*
X152233590Y-53800258D01*
X152688256Y-53982601D01*
X153158233Y-54131959D01*
X153640148Y-54249544D01*
X154130630Y-54336570D01*
X154626307Y-54394251D01*
X155123807Y-54423801D01*
X155619758Y-54426431D01*
X156110788Y-54403357D01*
X156593526Y-54355792D01*
X157076513Y-54280829D01*
X157561770Y-54175923D01*
X158046080Y-54041592D01*
X158526225Y-53878351D01*
X158998990Y-53686719D01*
X159461156Y-53467212D01*
X159909508Y-53220347D01*
X160340828Y-52946641D01*
X160549096Y-52799884D01*
X160751900Y-52646611D01*
X160948838Y-52486886D01*
X161139507Y-52320774D01*
X161323505Y-52148339D01*
X161500431Y-51969647D01*
X161669882Y-51784762D01*
X161831457Y-51593748D01*
X161984752Y-51396670D01*
X162129367Y-51193592D01*
X162264898Y-50984580D01*
X162390944Y-50769698D01*
X162507102Y-50549010D01*
X162612971Y-50322582D01*
X162708149Y-50090477D01*
X162792233Y-49852761D01*
X162839970Y-49697355D01*
X162882238Y-49540352D01*
X162918760Y-49381953D01*
X162949261Y-49222357D01*
X162973464Y-49061765D01*
X162991093Y-48900378D01*
X162997356Y-48819448D01*
X163001873Y-48738395D01*
X163004608Y-48657243D01*
X163005528Y-48576017D01*
X163003622Y-48416832D01*
X162997545Y-48258833D01*
X162986755Y-48101876D01*
X162970714Y-47945814D01*
X162948880Y-47790503D01*
X162935622Y-47713084D01*
X162920714Y-47635798D01*
X162904087Y-47558627D01*
X162885675Y-47481554D01*
X162865409Y-47404559D01*
X162843222Y-47327624D01*
X162778012Y-47129280D01*
X162703947Y-46937081D01*
X162621337Y-46750992D01*
X162530491Y-46570981D01*
X162431719Y-46397014D01*
X162325328Y-46229056D01*
X162211630Y-46067075D01*
X162090933Y-45911037D01*
X161963546Y-45760908D01*
X161829778Y-45616655D01*
X161544339Y-45345640D01*
X161237090Y-45097725D01*
X160910505Y-44872639D01*
X160567057Y-44670115D01*
X160209222Y-44489883D01*
X159839473Y-44331675D01*
X159460285Y-44195221D01*
X159074131Y-44080253D01*
X158683485Y-43986501D01*
X158290823Y-43913697D01*
X157898618Y-43861572D01*
X157652129Y-43835789D01*
X157527022Y-43823932D01*
X157401106Y-43813506D01*
X157274710Y-43805066D01*
X157148159Y-43799167D01*
X157021780Y-43796365D01*
X156895899Y-43797214D01*
X156895901Y-43797212D01*
X156854106Y-43798405D01*
X156812414Y-43800089D01*
X156770836Y-43802285D01*
X156729386Y-43805011D01*
X156688076Y-43808286D01*
X156646918Y-43812130D01*
X156605925Y-43816561D01*
X156565108Y-43821598D01*
X156354641Y-43847412D01*
X156144529Y-43870769D01*
X155725362Y-43917439D01*
X155516303Y-43944415D01*
X155307591Y-43976262D01*
X155099225Y-44014813D01*
X154995170Y-44037174D01*
X154891202Y-44061898D01*
X154541649Y-44156283D01*
X154195161Y-44264084D01*
X153852651Y-44385361D01*
X153515033Y-44520169D01*
X153183220Y-44668565D01*
X152858124Y-44830608D01*
X152540659Y-45006354D01*
X152231739Y-45195861D01*
X151932276Y-45399185D01*
X151643184Y-45616384D01*
X151365377Y-45847515D01*
X151099766Y-46092636D01*
X150847266Y-46351803D01*
X150608790Y-46625073D01*
X150385251Y-46912505D01*
X150177562Y-47214155D01*
X150061735Y-47401638D01*
X150006584Y-47497301D01*
X149953360Y-47594175D01*
X149902129Y-47692204D01*
X149852954Y-47791335D01*
X149805899Y-47891514D01*
X149761031Y-47992686D01*
X149718412Y-48094798D01*
X149678108Y-48197796D01*
X149640184Y-48301626D01*
X149604702Y-48406234D01*
X149571729Y-48511565D01*
X149541328Y-48617567D01*
X149513565Y-48724184D01*
X149488503Y-48831363D01*
X149453376Y-49007387D01*
X149425537Y-49183735D01*
X149404972Y-49360431D01*
X149391664Y-49537497D01*
X149385600Y-49714956D01*
X147126108Y-49714956D01*
X147098921Y-49606377D01*
X147053810Y-49406844D01*
X147013429Y-49206304D01*
X146978050Y-49005330D01*
X146947946Y-48804493D01*
X146923392Y-48604365D01*
X146915462Y-48513067D01*
X146910492Y-48419399D01*
X146905159Y-48227632D01*
X146902654Y-48130871D01*
X146898831Y-48034417D01*
X146892620Y-47938938D01*
X146888284Y-47891774D01*
X146882950Y-47845105D01*
X146890171Y-47847455D01*
X146897440Y-47849581D01*
X146904754Y-47851480D01*
X146912114Y-47853147D01*
X146919520Y-47854575D01*
X146926969Y-47855760D01*
X146934463Y-47856698D01*
X146942001Y-47857383D01*
X146949581Y-47857810D01*
X146957204Y-47857975D01*
X146964870Y-47857872D01*
X146972576Y-47857496D01*
X146980324Y-47856842D01*
X146988111Y-47855905D01*
X146995939Y-47854681D01*
X147003806Y-47853165D01*
X147028088Y-47847000D01*
X147052223Y-47838850D01*
X147076199Y-47828819D01*
X147100002Y-47817011D01*
X147123620Y-47803528D01*
X147147040Y-47788476D01*
X147170249Y-47771957D01*
X147193235Y-47754075D01*
X147238483Y-47714639D01*
X147282682Y-47670997D01*
X147325729Y-47623979D01*
X147367521Y-47574414D01*
X147407957Y-47523133D01*
X147446931Y-47470965D01*
X147520089Y-47367288D01*
X147644361Y-47185805D01*
X147825820Y-46929431D01*
X148014350Y-46646556D01*
X148106012Y-46497151D01*
X148193138Y-46343484D01*
X148273624Y-46186343D01*
X148345370Y-46026517D01*
X148406275Y-45864794D01*
X148454235Y-45701960D01*
X148472705Y-45620374D01*
X148487151Y-45538805D01*
X148497310Y-45457353D01*
X148502920Y-45376116D01*
X148503718Y-45295193D01*
X148499441Y-45214682D01*
X148489827Y-45134681D01*
X148474612Y-45055289D01*
X148453535Y-44976605D01*
X148426332Y-44898727D01*
X148392741Y-44821753D01*
X148352499Y-44745783D01*
X148250754Y-44575759D01*
X148147231Y-44410363D01*
X148043949Y-44247250D01*
X147942928Y-44084077D01*
X147846188Y-43918501D01*
X147800053Y-43834079D01*
X147755746Y-43748178D01*
X147713518Y-43660505D01*
X147673623Y-43570767D01*
X147636311Y-43478670D01*
X147601837Y-43383923D01*
X147558886Y-43261888D01*
X147536233Y-43190722D01*
X147525976Y-43153914D01*
X147516952Y-43116790D01*
X147509551Y-43079724D01*
X147504163Y-43043092D01*
X147501178Y-43007269D01*
X147500985Y-42972629D01*
X147502057Y-42955871D01*
X147503974Y-42939548D01*
X147506784Y-42923710D01*
X147510535Y-42908401D01*
X147515278Y-42893670D01*
X147521059Y-42879562D01*
X147527928Y-42866126D01*
X147535934Y-42853407D01*
X147554081Y-42828874D01*
X147572830Y-42806485D01*
X147592149Y-42786179D01*
X147612005Y-42767893D01*
X147632365Y-42751566D01*
X147653195Y-42737136D01*
X147674464Y-42724542D01*
X147696138Y-42713722D01*
X147718184Y-42704613D01*
X147740569Y-42697155D01*
X147763260Y-42691285D01*
X147786225Y-42686942D01*
X147809429Y-42684064D01*
X147832841Y-42682589D01*
X147856428Y-42682455D01*
X147880155Y-42683602D01*
X147903991Y-42685966D01*
X147927903Y-42689486D01*
X147975821Y-42699749D01*
X148023645Y-42713895D01*
X148071112Y-42731431D01*
X148117958Y-42751863D01*
X148163919Y-42774697D01*
X148208732Y-42799439D01*
X148252133Y-42825595D01*
X148342708Y-42884907D01*
X148429844Y-42946791D01*
X148513970Y-43010931D01*
X148595515Y-43077008D01*
X148674908Y-43144706D01*
X148752578Y-43213708D01*
X148904465Y-43354355D01*
X149054607Y-43496415D01*
X149206435Y-43637350D01*
X149284054Y-43706603D01*
X149363381Y-43774625D01*
X149444846Y-43841097D01*
X149528877Y-43905704D01*
X149611809Y-43962821D01*
X149696775Y-44012551D01*
X149783586Y-44055111D01*
X149872049Y-44090722D01*
X149961971Y-44119601D01*
X150053161Y-44141968D01*
X150145427Y-44158041D01*
X150238577Y-44168039D01*
X150332419Y-44172181D01*
X150426761Y-44170686D01*
X150521412Y-44163773D01*
X150616178Y-44151659D01*
X150710869Y-44134565D01*
X150805292Y-44112709D01*
X150899255Y-44086310D01*
X150992567Y-44055586D01*
X151085035Y-44020757D01*
X151176468Y-43982041D01*
X151266673Y-43939657D01*
X151355459Y-43893824D01*
X151528004Y-43792685D01*
X151692568Y-43680376D01*
X151847616Y-43558646D01*
X151991612Y-43429246D01*
X152123019Y-43293926D01*
X152240303Y-43154437D01*
X152251299Y-43139081D01*
X152261030Y-43122972D01*
X152269541Y-43106157D01*
X152276877Y-43088686D01*
X152283082Y-43070608D01*
X152288202Y-43051972D01*
X152292280Y-43032829D01*
X152295361Y-43013225D01*
X152297491Y-42993212D01*
X152298714Y-42972837D01*
X152298616Y-42931202D01*
X152295427Y-42888713D01*
X152289503Y-42845762D01*
X152281201Y-42802744D01*
X152270880Y-42760052D01*
X152258897Y-42718078D01*
X152245609Y-42677217D01*
X152231374Y-42637861D01*
X152216549Y-42600404D01*
X152201492Y-42565239D01*
X152186561Y-42532759D01*
X152182208Y-42523696D01*
X152177779Y-42514643D01*
X152173274Y-42505596D01*
X152168691Y-42496550D01*
X152337714Y-42412307D01*
X152544028Y-42314404D01*
X152753300Y-42224600D01*
X152965284Y-42142413D01*
X153179735Y-42067360D01*
X153396405Y-41998959D01*
X153615048Y-41936730D01*
X153835419Y-41880190D01*
X154057270Y-41828857D01*
X154504430Y-41739886D01*
X154954556Y-41665963D01*
X155405680Y-41603233D01*
X155855829Y-41547842D01*
X155959173Y-41536279D01*
X156063282Y-41525881D01*
X156167998Y-41516636D01*
X156273162Y-41508536D01*
X156378613Y-41501571D01*
X156484193Y-41495729D01*
X156695100Y-41487380D01*
X156694152Y-41515111D01*
X156694719Y-41542499D01*
X156696879Y-41569518D01*
X156700711Y-41596145D01*
X156706296Y-41622354D01*
X156709769Y-41635294D01*
X156713711Y-41648121D01*
X156718130Y-41660830D01*
X156723036Y-41673420D01*
X156728440Y-41685887D01*
X156734351Y-41698228D01*
X156740779Y-41710439D01*
X156747734Y-41722519D01*
X156755226Y-41734463D01*
X156763264Y-41746269D01*
X156771860Y-41757933D01*
X156781022Y-41769452D01*
X156790760Y-41780824D01*
X156801084Y-41792045D01*
X156812005Y-41803112D01*
X156823532Y-41814022D01*
X156835675Y-41824772D01*
X156848444Y-41835359D01*
X156861848Y-41845780D01*
X156875898Y-41856031D01*
X156890604Y-41866110D01*
X156905976Y-41876013D01*
X156922711Y-41885885D01*
X156939711Y-41894785D01*
X156956962Y-41902754D01*
X156974449Y-41909832D01*
X157010072Y-41921479D01*
X157046466Y-41930050D01*
X157083515Y-41935870D01*
X157121106Y-41939263D01*
X157159121Y-41940555D01*
X157197446Y-41940069D01*
X157235966Y-41938130D01*
X157274566Y-41935064D01*
X157351544Y-41926844D01*
X157427458Y-41918006D01*
X157501386Y-41911148D01*
X157906589Y-41881482D01*
X158126537Y-41857817D01*
X158237745Y-41842146D01*
X158348593Y-41823296D01*
X158458194Y-41800801D01*
X158565663Y-41774195D01*
X158670113Y-41743013D01*
X158770656Y-41706789D01*
X158866408Y-41665057D01*
X158956480Y-41617352D01*
X158999109Y-41591114D01*
X159039986Y-41563208D01*
X159079001Y-41533576D01*
X159116041Y-41502160D01*
X159151259Y-41468547D01*
X159184007Y-41433384D01*
X159214523Y-41396814D01*
X159243043Y-41358981D01*
X159269804Y-41320029D01*
X159295043Y-41280102D01*
X159318997Y-41239344D01*
X159341903Y-41197899D01*
X159385516Y-41113521D01*
X159427778Y-41028120D01*
X159470583Y-40942846D01*
X159492782Y-40900617D01*
X159515826Y-40858851D01*
X159544834Y-40805826D01*
X159575703Y-40746636D01*
X159643317Y-40614928D01*
X159680208Y-40544996D01*
X159719252Y-40474069D01*
X159760521Y-40403439D01*
X159804089Y-40334399D01*
X159850028Y-40268243D01*
X159873910Y-40236649D01*
X159898412Y-40206261D01*
X159923543Y-40177241D01*
X159949312Y-40149749D01*
X159975729Y-40123947D01*
X160002802Y-40099997D01*
X160030541Y-40078061D01*
X160058955Y-40058299D01*
X160088052Y-40040874D01*
X160117843Y-40025948D01*
X160148335Y-40013681D01*
X160179539Y-40004235D01*
X160211463Y-39997773D01*
X160244117Y-39994455D01*
X160247930Y-39994282D01*
X160251752Y-39994153D01*
X160255581Y-39994069D01*
X160259421Y-39994029D01*
X160263270Y-39994034D01*
G37*
G36*
X163134297Y-96206772D02*
G01*
X162956658Y-96232178D01*
X162778866Y-96255364D01*
X162600943Y-96276122D01*
X162422914Y-96294246D01*
X162244801Y-96309530D01*
X162066628Y-96321766D01*
X162977245Y-96224488D01*
X163168812Y-96199213D01*
X163259196Y-96186826D01*
X163134297Y-96206772D01*
G37*
G36*
X159682491Y-46866598D02*
G01*
X159719648Y-46867445D01*
X159719650Y-46867445D01*
X159851098Y-46876412D01*
X159983704Y-46894632D01*
X160116140Y-46922004D01*
X160247077Y-46958429D01*
X160311568Y-46980005D01*
X160375188Y-47003807D01*
X160437768Y-47029822D01*
X160499144Y-47058038D01*
X160559150Y-47088442D01*
X160617619Y-47121022D01*
X160674385Y-47155765D01*
X160729283Y-47192660D01*
X160782146Y-47231692D01*
X160832809Y-47272851D01*
X160881106Y-47316124D01*
X160926870Y-47361497D01*
X160969935Y-47408959D01*
X161010136Y-47458497D01*
X161047307Y-47510099D01*
X161081281Y-47563752D01*
X161111893Y-47619443D01*
X161138977Y-47677161D01*
X161162366Y-47736893D01*
X161181894Y-47798625D01*
X161197397Y-47862347D01*
X161208706Y-47928045D01*
X161215658Y-47995707D01*
X161218085Y-48065320D01*
X161219612Y-48128749D01*
X161222490Y-48197347D01*
X161224456Y-48268934D01*
X161224391Y-48305167D01*
X161223249Y-48341329D01*
X161220748Y-48377148D01*
X161216605Y-48412350D01*
X161210537Y-48446664D01*
X161202263Y-48479817D01*
X161197209Y-48495873D01*
X161191498Y-48511537D01*
X161185093Y-48526773D01*
X161177960Y-48541549D01*
X161170062Y-48555831D01*
X161161366Y-48569583D01*
X161151835Y-48582773D01*
X161141433Y-48595365D01*
X161121843Y-48614358D01*
X161099645Y-48630163D01*
X161075000Y-48642944D01*
X161048071Y-48652866D01*
X161019020Y-48660094D01*
X160988011Y-48664793D01*
X160955205Y-48667128D01*
X160920765Y-48667262D01*
X160847633Y-48661591D01*
X160769914Y-48649099D01*
X160688910Y-48631103D01*
X160605918Y-48608921D01*
X160439176Y-48557274D01*
X160280086Y-48504703D01*
X160206660Y-48481367D01*
X160139047Y-48461754D01*
X160078546Y-48447183D01*
X160026458Y-48438971D01*
X159973038Y-48434846D01*
X159919902Y-48432803D01*
X159867063Y-48432785D01*
X159814533Y-48434736D01*
X159762325Y-48438601D01*
X159710454Y-48444324D01*
X159607772Y-48461124D01*
X159506591Y-48484689D01*
X159407017Y-48514575D01*
X159309155Y-48550335D01*
X159213110Y-48591527D01*
X159118987Y-48637703D01*
X159026891Y-48688420D01*
X158936928Y-48743231D01*
X158849203Y-48801692D01*
X158763821Y-48863358D01*
X158680887Y-48927784D01*
X158600506Y-48994524D01*
X158522783Y-49063134D01*
X158492535Y-49093767D01*
X158459929Y-49132063D01*
X158425181Y-49176680D01*
X158388507Y-49226278D01*
X158310244Y-49335049D01*
X158269087Y-49391539D01*
X158226866Y-49447643D01*
X158183798Y-49502021D01*
X158140099Y-49553330D01*
X158095983Y-49600230D01*
X158073837Y-49621606D01*
X158051668Y-49641378D01*
X158029502Y-49659376D01*
X158007368Y-49675433D01*
X157985291Y-49689382D01*
X157963299Y-49701054D01*
X157941419Y-49710282D01*
X157919677Y-49716899D01*
X157898102Y-49720737D01*
X157876719Y-49721628D01*
X157866421Y-49720772D01*
X157856883Y-49718882D01*
X157848078Y-49716012D01*
X157839979Y-49712220D01*
X157832559Y-49707559D01*
X157825791Y-49702085D01*
X157819648Y-49695853D01*
X157814102Y-49688919D01*
X157809127Y-49681338D01*
X157804695Y-49673165D01*
X157800780Y-49664455D01*
X157797354Y-49655264D01*
X157791862Y-49635660D01*
X157788003Y-49614794D01*
X157785561Y-49593109D01*
X157784317Y-49571047D01*
X157784057Y-49549051D01*
X157784563Y-49527562D01*
X157787009Y-49487877D01*
X157789922Y-49455530D01*
X157825874Y-49029566D01*
X157835590Y-48923250D01*
X157846541Y-48816959D01*
X157859197Y-48710672D01*
X157874031Y-48604367D01*
X157903046Y-48445764D01*
X157941623Y-48290512D01*
X157989663Y-48139351D01*
X158047069Y-47993017D01*
X158113742Y-47852249D01*
X158189583Y-47717786D01*
X158230912Y-47653149D01*
X158274496Y-47590364D01*
X158320324Y-47529525D01*
X158368382Y-47470722D01*
X158418659Y-47414050D01*
X158471142Y-47359599D01*
X158525819Y-47307461D01*
X158582679Y-47257731D01*
X158641708Y-47210498D01*
X158702894Y-47165857D01*
X158766225Y-47123898D01*
X158831689Y-47084715D01*
X158899274Y-47048399D01*
X158968967Y-47015042D01*
X159040756Y-46984738D01*
X159114628Y-46957578D01*
X159190572Y-46933655D01*
X159268575Y-46913060D01*
X159348625Y-46895886D01*
X159430710Y-46882225D01*
X159465580Y-46877664D01*
X159500865Y-46873883D01*
X159536537Y-46870881D01*
X159572566Y-46868654D01*
X159608921Y-46867200D01*
X159645573Y-46866515D01*
X159682491Y-46866598D01*
G37*
G36*
X163493091Y-96149322D02*
G01*
X163492546Y-96149447D01*
X163491257Y-96149717D01*
X163489972Y-96149963D01*
X163489433Y-96150058D01*
X163489017Y-96150125D01*
X163493516Y-96149213D01*
X163493091Y-96149322D01*
G37*
G36*
X152920046Y-48776309D02*
G01*
X153018492Y-48781440D01*
X153115360Y-48789962D01*
X153210610Y-48801848D01*
X153304202Y-48817073D01*
X153396098Y-48835608D01*
X153486259Y-48857428D01*
X153574645Y-48882505D01*
X153661216Y-48910812D01*
X153745935Y-48942324D01*
X153828760Y-48977012D01*
X153909654Y-49014850D01*
X153988577Y-49055812D01*
X154065489Y-49099870D01*
X154140352Y-49146997D01*
X154213127Y-49197167D01*
X154283773Y-49250353D01*
X154352252Y-49306528D01*
X154418524Y-49365666D01*
X154482551Y-49427739D01*
X154544293Y-49492720D01*
X154603711Y-49560583D01*
X154660766Y-49631301D01*
X154715417Y-49704847D01*
X154767628Y-49781195D01*
X154817356Y-49860316D01*
X154864565Y-49942186D01*
X154909214Y-50026776D01*
X154951264Y-50114060D01*
X154990677Y-50204011D01*
X155027411Y-50296603D01*
X155061430Y-50391808D01*
X155013825Y-50386236D01*
X154966607Y-50378112D01*
X154919736Y-50367725D01*
X154873172Y-50355361D01*
X154826874Y-50341309D01*
X154780803Y-50325857D01*
X154689180Y-50291901D01*
X154506889Y-50219848D01*
X154415579Y-50186355D01*
X154369743Y-50171249D01*
X154323733Y-50157621D01*
X154240748Y-50136075D01*
X154157356Y-50117416D01*
X154073635Y-50101729D01*
X153989662Y-50089095D01*
X153905513Y-50079599D01*
X153821265Y-50073323D01*
X153736996Y-50070352D01*
X153652782Y-50070769D01*
X153568700Y-50074656D01*
X153484827Y-50082098D01*
X153401241Y-50093177D01*
X153318017Y-50107977D01*
X153235233Y-50126582D01*
X153152966Y-50149075D01*
X153071293Y-50175539D01*
X152990291Y-50206057D01*
X152923431Y-50234783D01*
X152856866Y-50266724D01*
X152790736Y-50301663D01*
X152725180Y-50339386D01*
X152660338Y-50379678D01*
X152596349Y-50422323D01*
X152533354Y-50467106D01*
X152471491Y-50513811D01*
X152410900Y-50562225D01*
X152351722Y-50612131D01*
X152294096Y-50663314D01*
X152238161Y-50715559D01*
X152184057Y-50768651D01*
X152131923Y-50822374D01*
X152081900Y-50876514D01*
X152034128Y-50930854D01*
X152013746Y-50956015D01*
X151992909Y-50983945D01*
X151949484Y-51045402D01*
X151903092Y-51109804D01*
X151878546Y-51141414D01*
X151852973Y-51171727D01*
X151826278Y-51200064D01*
X151812480Y-51213280D01*
X151798366Y-51225748D01*
X151783924Y-51237383D01*
X151769142Y-51248101D01*
X151754008Y-51257816D01*
X151738511Y-51266444D01*
X151722638Y-51273900D01*
X151706378Y-51280100D01*
X151689718Y-51284958D01*
X151672648Y-51288391D01*
X151655154Y-51290313D01*
X151637225Y-51290639D01*
X151618850Y-51289285D01*
X151600015Y-51286167D01*
X151580328Y-51281368D01*
X151561316Y-51275469D01*
X151542965Y-51268516D01*
X151525261Y-51260556D01*
X151508190Y-51251635D01*
X151491737Y-51241800D01*
X151475889Y-51231096D01*
X151460631Y-51219571D01*
X151445949Y-51207272D01*
X151431829Y-51194243D01*
X151405216Y-51166187D01*
X151380680Y-51135775D01*
X151358105Y-51103379D01*
X151337379Y-51069369D01*
X151318388Y-51034120D01*
X151301017Y-50998001D01*
X151285154Y-50961385D01*
X151270683Y-50924644D01*
X151257492Y-50888150D01*
X151234492Y-50817388D01*
X151220420Y-50768024D01*
X151208357Y-50718578D01*
X151190089Y-50619534D01*
X151179355Y-50520446D01*
X151175819Y-50421500D01*
X151179145Y-50322884D01*
X151188999Y-50224786D01*
X151205045Y-50127395D01*
X151226949Y-50030898D01*
X151254374Y-49935482D01*
X151286986Y-49841336D01*
X151324450Y-49748648D01*
X151366429Y-49657606D01*
X151412590Y-49568396D01*
X151462597Y-49481208D01*
X151516115Y-49396229D01*
X151572808Y-49313646D01*
X151627803Y-49243200D01*
X151687710Y-49178299D01*
X151752134Y-49118804D01*
X151820677Y-49064579D01*
X151892943Y-49015484D01*
X151968534Y-48971381D01*
X152047054Y-48932134D01*
X152128106Y-48897603D01*
X152211294Y-48867651D01*
X152296219Y-48842140D01*
X152382487Y-48820931D01*
X152469699Y-48803887D01*
X152557459Y-48790870D01*
X152645371Y-48781741D01*
X152733036Y-48776363D01*
X152820060Y-48774597D01*
X152920046Y-48776309D01*
G37*
G36*
X114332491Y-46846598D02*
G01*
X114369648Y-46847445D01*
X114369650Y-46847445D01*
X114501098Y-46856412D01*
X114633704Y-46874632D01*
X114766140Y-46902004D01*
X114897077Y-46938429D01*
X114961568Y-46960005D01*
X115025188Y-46983807D01*
X115087768Y-47009822D01*
X115149144Y-47038038D01*
X115209150Y-47068442D01*
X115267619Y-47101022D01*
X115324385Y-47135765D01*
X115379283Y-47172660D01*
X115432146Y-47211692D01*
X115482809Y-47252851D01*
X115531106Y-47296124D01*
X115576870Y-47341497D01*
X115619935Y-47388959D01*
X115660136Y-47438497D01*
X115697307Y-47490099D01*
X115731281Y-47543752D01*
X115761893Y-47599443D01*
X115788977Y-47657161D01*
X115812366Y-47716893D01*
X115831894Y-47778625D01*
X115847397Y-47842347D01*
X115858706Y-47908045D01*
X115865658Y-47975707D01*
X115868085Y-48045320D01*
X115869612Y-48108749D01*
X115872490Y-48177347D01*
X115874456Y-48248934D01*
X115874391Y-48285167D01*
X115873249Y-48321329D01*
X115870748Y-48357148D01*
X115866605Y-48392350D01*
X115860537Y-48426664D01*
X115852263Y-48459817D01*
X115847209Y-48475873D01*
X115841498Y-48491537D01*
X115835093Y-48506773D01*
X115827960Y-48521549D01*
X115820062Y-48535831D01*
X115811366Y-48549583D01*
X115801835Y-48562773D01*
X115791433Y-48575365D01*
X115771843Y-48594358D01*
X115749645Y-48610163D01*
X115725000Y-48622944D01*
X115698071Y-48632866D01*
X115669020Y-48640094D01*
X115638011Y-48644793D01*
X115605205Y-48647128D01*
X115570765Y-48647262D01*
X115497633Y-48641591D01*
X115419914Y-48629099D01*
X115338910Y-48611103D01*
X115255918Y-48588921D01*
X115089176Y-48537274D01*
X114930086Y-48484703D01*
X114856660Y-48461367D01*
X114789047Y-48441754D01*
X114728546Y-48427183D01*
X114676458Y-48418971D01*
X114623038Y-48414846D01*
X114569902Y-48412803D01*
X114517063Y-48412785D01*
X114464533Y-48414736D01*
X114412325Y-48418601D01*
X114360454Y-48424324D01*
X114257772Y-48441124D01*
X114156591Y-48464689D01*
X114057017Y-48494575D01*
X113959155Y-48530335D01*
X113863110Y-48571527D01*
X113768987Y-48617703D01*
X113676891Y-48668420D01*
X113586928Y-48723231D01*
X113499203Y-48781692D01*
X113413821Y-48843358D01*
X113330887Y-48907784D01*
X113250506Y-48974524D01*
X113172783Y-49043134D01*
X113142535Y-49073767D01*
X113109929Y-49112063D01*
X113075181Y-49156680D01*
X113038507Y-49206278D01*
X112960244Y-49315049D01*
X112919087Y-49371539D01*
X112876866Y-49427643D01*
X112833798Y-49482021D01*
X112790099Y-49533330D01*
X112745983Y-49580230D01*
X112723837Y-49601606D01*
X112701668Y-49621378D01*
X112679502Y-49639376D01*
X112657368Y-49655433D01*
X112635291Y-49669382D01*
X112613299Y-49681054D01*
X112591419Y-49690282D01*
X112569677Y-49696899D01*
X112548102Y-49700737D01*
X112526719Y-49701628D01*
X112516421Y-49700772D01*
X112506883Y-49698882D01*
X112498078Y-49696012D01*
X112489979Y-49692220D01*
X112482559Y-49687559D01*
X112475791Y-49682085D01*
X112469648Y-49675853D01*
X112464102Y-49668919D01*
X112459127Y-49661338D01*
X112454695Y-49653165D01*
X112450780Y-49644455D01*
X112447354Y-49635264D01*
X112441862Y-49615660D01*
X112438003Y-49594794D01*
X112435561Y-49573109D01*
X112434317Y-49551047D01*
X112434057Y-49529051D01*
X112434563Y-49507562D01*
X112437009Y-49467877D01*
X112439922Y-49435530D01*
X112475874Y-49009566D01*
X112485590Y-48903250D01*
X112496541Y-48796959D01*
X112509197Y-48690672D01*
X112524031Y-48584367D01*
X112553046Y-48425764D01*
X112591623Y-48270512D01*
X112639663Y-48119351D01*
X112697069Y-47973017D01*
X112763742Y-47832249D01*
X112839583Y-47697786D01*
X112880912Y-47633149D01*
X112924496Y-47570364D01*
X112970324Y-47509525D01*
X113018382Y-47450722D01*
X113068659Y-47394050D01*
X113121142Y-47339599D01*
X113175819Y-47287461D01*
X113232679Y-47237731D01*
X113291708Y-47190498D01*
X113352894Y-47145857D01*
X113416225Y-47103898D01*
X113481689Y-47064715D01*
X113549274Y-47028399D01*
X113618967Y-46995042D01*
X113690756Y-46964738D01*
X113764628Y-46937578D01*
X113840572Y-46913655D01*
X113918575Y-46893060D01*
X113998625Y-46875886D01*
X114080710Y-46862225D01*
X114115580Y-46857664D01*
X114150865Y-46853883D01*
X114186537Y-46850881D01*
X114222566Y-46848654D01*
X114258921Y-46847200D01*
X114295573Y-46846515D01*
X114332491Y-46846598D01*
G37*
G36*
X114913270Y-39974034D02*
G01*
X114917130Y-39974085D01*
X114921001Y-39974181D01*
X114924885Y-39974324D01*
X114924885Y-39974328D01*
X114938557Y-39975187D01*
X114952351Y-39976621D01*
X114966269Y-39978639D01*
X114980310Y-39981252D01*
X114994476Y-39984471D01*
X115008766Y-39988307D01*
X115023182Y-39992770D01*
X115037724Y-39997872D01*
X115052392Y-40003622D01*
X115067188Y-40010032D01*
X115082112Y-40017111D01*
X115097164Y-40024872D01*
X115112345Y-40033324D01*
X115127656Y-40042479D01*
X115143097Y-40052346D01*
X115158669Y-40062937D01*
X115179527Y-40078287D01*
X115199231Y-40094272D01*
X115217814Y-40110868D01*
X115235308Y-40128052D01*
X115251745Y-40145801D01*
X115267157Y-40164091D01*
X115281578Y-40182900D01*
X115295038Y-40202204D01*
X115319209Y-40242205D01*
X115339928Y-40283908D01*
X115357454Y-40327128D01*
X115372046Y-40371680D01*
X115383962Y-40417377D01*
X115393460Y-40464034D01*
X115400798Y-40511465D01*
X115406236Y-40559485D01*
X115410032Y-40607909D01*
X115412445Y-40656550D01*
X115414152Y-40753743D01*
X115411849Y-40930845D01*
X115405586Y-41108160D01*
X115388572Y-41463128D01*
X115381519Y-41640629D01*
X115377900Y-41818043D01*
X115379563Y-41995292D01*
X115382953Y-42083832D01*
X115388357Y-42172302D01*
X115396264Y-42244442D01*
X115409073Y-42314275D01*
X115426559Y-42381875D01*
X115448493Y-42447314D01*
X115474649Y-42510664D01*
X115504798Y-42571997D01*
X115538715Y-42631385D01*
X115576172Y-42688902D01*
X115616940Y-42744619D01*
X115660795Y-42798609D01*
X115707507Y-42850944D01*
X115756850Y-42901697D01*
X115862519Y-42998744D01*
X115975985Y-43090329D01*
X116095430Y-43177032D01*
X116219036Y-43259431D01*
X116471458Y-43413633D01*
X116718709Y-43557567D01*
X116946247Y-43695862D01*
X117125697Y-43816493D01*
X117220225Y-43877802D01*
X117268683Y-43906972D01*
X117317934Y-43934492D01*
X117367975Y-43959868D01*
X117418806Y-43982604D01*
X117470423Y-44002205D01*
X117522825Y-44018175D01*
X117576010Y-44030021D01*
X117602895Y-44034242D01*
X117629975Y-44037247D01*
X117657250Y-44038972D01*
X117684719Y-44039357D01*
X117712382Y-44038339D01*
X117740239Y-44035857D01*
X117753029Y-44033924D01*
X117765407Y-44031153D01*
X117777379Y-44027574D01*
X117788954Y-44023217D01*
X117800138Y-44018110D01*
X117810941Y-44012284D01*
X117821368Y-44005767D01*
X117831428Y-43998590D01*
X117841129Y-43990781D01*
X117850477Y-43982371D01*
X117868148Y-43963863D01*
X117884500Y-43943301D01*
X117899596Y-43920921D01*
X117913494Y-43896959D01*
X117926256Y-43871651D01*
X117937942Y-43845232D01*
X117948613Y-43817938D01*
X117958330Y-43790005D01*
X117967152Y-43761669D01*
X117975140Y-43733165D01*
X117982355Y-43704729D01*
X117991294Y-43726262D01*
X117999759Y-43747584D01*
X118003788Y-43758159D01*
X118007667Y-43768673D01*
X118011386Y-43779125D01*
X118014936Y-43789510D01*
X118081054Y-43979767D01*
X118150827Y-44168483D01*
X118297345Y-44543066D01*
X118446507Y-44916807D01*
X118519584Y-45104470D01*
X118590327Y-45293253D01*
X118723417Y-45681805D01*
X118840550Y-46072674D01*
X118943240Y-46465937D01*
X119033002Y-46861673D01*
X119111348Y-47259959D01*
X119179791Y-47660875D01*
X119239846Y-48064497D01*
X119293025Y-48470905D01*
X119346587Y-48949711D01*
X119390082Y-49433633D01*
X119423550Y-49921121D01*
X119447028Y-50410626D01*
X119460557Y-50900599D01*
X119464173Y-51389491D01*
X119457916Y-51875752D01*
X119441826Y-52357834D01*
X119430089Y-52696573D01*
X119420167Y-53039511D01*
X119413986Y-53211126D01*
X119405977Y-53382076D01*
X119395379Y-53551789D01*
X119381432Y-53719694D01*
X119368041Y-53837753D01*
X119351302Y-53957901D01*
X119315001Y-54201723D01*
X119299051Y-54324030D01*
X119286976Y-54445688D01*
X119282955Y-54506060D01*
X119280580Y-54566014D01*
X119280077Y-54625464D01*
X119281670Y-54684324D01*
X119282304Y-54693742D01*
X119283311Y-54703032D01*
X119284669Y-54712203D01*
X119286356Y-54721262D01*
X119288350Y-54730218D01*
X119290629Y-54739076D01*
X119293173Y-54747846D01*
X119295958Y-54756535D01*
X119298963Y-54765151D01*
X119302167Y-54773701D01*
X119309081Y-54790636D01*
X119316526Y-54807401D01*
X119324328Y-54824058D01*
X119152940Y-54857080D01*
X118983021Y-54898891D01*
X118814734Y-54949154D01*
X118648241Y-55007530D01*
X118483705Y-55073681D01*
X118321289Y-55147269D01*
X118161154Y-55227955D01*
X118003464Y-55315401D01*
X117848380Y-55409270D01*
X117696066Y-55509222D01*
X117546684Y-55614921D01*
X117400397Y-55726027D01*
X117257366Y-55842202D01*
X117117755Y-55963108D01*
X116981726Y-56088407D01*
X116849441Y-56217761D01*
X116718903Y-56076872D01*
X116584852Y-55940572D01*
X116447175Y-55809444D01*
X116305763Y-55684067D01*
X116160504Y-55565024D01*
X116011287Y-55452897D01*
X115858002Y-55348267D01*
X115700539Y-55251715D01*
X115538785Y-55163823D01*
X115372630Y-55085173D01*
X115201964Y-55016346D01*
X115026675Y-54957924D01*
X114846652Y-54910488D01*
X114661786Y-54874620D01*
X114471964Y-54850901D01*
X114277077Y-54839913D01*
X114220448Y-54839194D01*
X114163394Y-54839580D01*
X114105912Y-54841083D01*
X114048000Y-54843716D01*
X113989654Y-54847489D01*
X113930873Y-54852415D01*
X113871654Y-54858507D01*
X113811994Y-54865776D01*
X113232734Y-54938445D01*
X112946939Y-54980050D01*
X112805373Y-55004544D01*
X112664836Y-55032403D01*
X112525435Y-55064306D01*
X112387276Y-55100931D01*
X112250466Y-55142957D01*
X112115112Y-55191061D01*
X111981319Y-55245921D01*
X111849194Y-55308217D01*
X111718843Y-55378626D01*
X111590374Y-55457827D01*
X111485158Y-55530193D01*
X111383628Y-55606247D01*
X111285541Y-55685744D01*
X111190658Y-55768441D01*
X111098736Y-55854092D01*
X111009535Y-55942453D01*
X110922814Y-56033281D01*
X110838332Y-56126331D01*
X110755847Y-56221358D01*
X110675119Y-56318118D01*
X110517968Y-56515861D01*
X110364950Y-56717606D01*
X110214137Y-56921397D01*
X110217673Y-56923653D01*
X110221126Y-56925999D01*
X110224524Y-56928406D01*
X110227893Y-56930844D01*
X110234651Y-56935702D01*
X110238094Y-56938064D01*
X110241614Y-56940342D01*
X110123883Y-56869197D01*
X110003946Y-56801188D01*
X109882151Y-56736329D01*
X109758843Y-56674632D01*
X109634370Y-56616112D01*
X109509081Y-56560781D01*
X109383321Y-56508653D01*
X109257438Y-56459742D01*
X109202959Y-56440214D01*
X109147559Y-56422212D01*
X109091319Y-56405724D01*
X109034319Y-56390735D01*
X108976643Y-56377234D01*
X108918370Y-56365208D01*
X108859582Y-56354642D01*
X108800361Y-56345525D01*
X108740788Y-56337843D01*
X108680944Y-56331584D01*
X108620911Y-56326733D01*
X108560770Y-56323279D01*
X108500603Y-56321208D01*
X108440491Y-56320508D01*
X108380514Y-56321165D01*
X108320756Y-56323166D01*
X108281079Y-56325240D01*
X108241561Y-56327904D01*
X108202227Y-56331153D01*
X108163098Y-56334982D01*
X108124198Y-56339387D01*
X108085552Y-56344364D01*
X108047182Y-56349908D01*
X108009112Y-56356015D01*
X107910550Y-56374418D01*
X107812466Y-56396287D01*
X107715022Y-56421508D01*
X107618379Y-56449972D01*
X107522700Y-56481568D01*
X107428147Y-56516184D01*
X107334881Y-56553709D01*
X107243064Y-56594032D01*
X107088608Y-56670913D01*
X106943812Y-56755333D01*
X106808292Y-56846947D01*
X106681660Y-56945404D01*
X106563530Y-57050358D01*
X106453515Y-57161460D01*
X106351230Y-57278362D01*
X106256287Y-57400717D01*
X106168300Y-57528175D01*
X106086883Y-57660390D01*
X105942212Y-57937695D01*
X105819182Y-58229849D01*
X105714701Y-58534066D01*
X105625678Y-58847562D01*
X105549021Y-59167553D01*
X105420436Y-59815884D01*
X105304214Y-60456783D01*
X105243009Y-60767484D01*
X105175620Y-61067975D01*
X105147231Y-61191929D01*
X105121182Y-61317083D01*
X105071844Y-61568815D01*
X105019087Y-61818818D01*
X104988764Y-61941811D01*
X104954392Y-62062738D01*
X104914907Y-62181055D01*
X104869243Y-62296219D01*
X104816335Y-62407684D01*
X104786832Y-62461860D01*
X104755120Y-62514907D01*
X104721063Y-62566757D01*
X104684531Y-62617342D01*
X104645389Y-62666595D01*
X104603505Y-62714447D01*
X104558744Y-62760830D01*
X104510976Y-62805676D01*
X104460065Y-62848917D01*
X104405879Y-62890485D01*
X104362723Y-62918449D01*
X104319188Y-62939963D01*
X104275353Y-62955324D01*
X104231300Y-62964829D01*
X104187109Y-62968776D01*
X104142860Y-62967462D01*
X104098634Y-62961185D01*
X104054511Y-62950242D01*
X104010572Y-62934931D01*
X103966897Y-62915548D01*
X103923567Y-62892391D01*
X103880661Y-62865758D01*
X103838261Y-62835946D01*
X103796447Y-62803252D01*
X103714898Y-62730408D01*
X103636657Y-62649607D01*
X103562370Y-62563227D01*
X103492678Y-62473647D01*
X103428225Y-62383247D01*
X103369656Y-62294405D01*
X103317613Y-62209500D01*
X103272741Y-62130912D01*
X103235682Y-62061020D01*
X103127721Y-61830184D01*
X103037128Y-61598183D01*
X102962468Y-61365023D01*
X102902307Y-61130707D01*
X102855207Y-60895243D01*
X102819735Y-60658634D01*
X102794453Y-60420887D01*
X102777927Y-60182006D01*
X102768722Y-59941997D01*
X102765401Y-59700866D01*
X102770672Y-59215254D01*
X102782257Y-58725215D01*
X102788670Y-58230789D01*
X102760321Y-58230789D01*
X102695879Y-58350028D01*
X102639470Y-58472225D01*
X102590445Y-58597089D01*
X102548155Y-58724328D01*
X102511952Y-58853651D01*
X102481187Y-58984767D01*
X102455211Y-59117383D01*
X102433376Y-59251208D01*
X102399532Y-59521319D01*
X102374465Y-59792767D01*
X102329903Y-60330346D01*
X102299379Y-60720129D01*
X102283395Y-61112728D01*
X102282709Y-61506890D01*
X102298076Y-61901363D01*
X102330252Y-62294894D01*
X102379993Y-62686230D01*
X102448055Y-63074119D01*
X102535194Y-63457308D01*
X102642166Y-63834544D01*
X102769726Y-64204575D01*
X102918632Y-64566148D01*
X103089638Y-64918010D01*
X103283501Y-65258909D01*
X103500977Y-65587592D01*
X103742821Y-65902806D01*
X104009791Y-66203299D01*
X104191779Y-66378391D01*
X104387446Y-66537922D01*
X104595281Y-66681424D01*
X104813770Y-66808432D01*
X105041403Y-66918477D01*
X105276668Y-67011092D01*
X105518053Y-67085812D01*
X105764046Y-67142168D01*
X106013135Y-67179693D01*
X106263810Y-67197922D01*
X106514557Y-67196386D01*
X106763865Y-67174618D01*
X107010223Y-67132153D01*
X107252119Y-67068522D01*
X107370921Y-67028624D01*
X107488041Y-66983259D01*
X107603289Y-66932369D01*
X107716477Y-66875896D01*
X107763755Y-67058580D01*
X107813453Y-67241800D01*
X107917949Y-67611042D01*
X107934388Y-67669849D01*
X107950318Y-67729681D01*
X107981178Y-67851796D01*
X108042566Y-68101446D01*
X107653245Y-68179713D01*
X107267993Y-68276783D01*
X106887730Y-68392275D01*
X106513379Y-68525804D01*
X106145862Y-68676986D01*
X105786100Y-68845438D01*
X105435015Y-69030777D01*
X105093530Y-69232617D01*
X104762565Y-69450577D01*
X104443042Y-69684271D01*
X104135885Y-69933317D01*
X103842013Y-70197331D01*
X103562350Y-70475928D01*
X103297816Y-70768726D01*
X103049335Y-71075340D01*
X102817827Y-71395388D01*
X102649784Y-71653708D01*
X102493170Y-71918602D01*
X102347904Y-72189590D01*
X102213906Y-72466189D01*
X102091093Y-72747922D01*
X101979384Y-73034307D01*
X101878700Y-73324863D01*
X101788958Y-73619112D01*
X101710078Y-73916571D01*
X101641978Y-74216762D01*
X101584577Y-74519204D01*
X101537795Y-74823416D01*
X101501550Y-75128918D01*
X101475761Y-75435230D01*
X101460347Y-75741872D01*
X101455227Y-76048363D01*
X101459818Y-76340501D01*
X101473511Y-76632518D01*
X101496188Y-76924148D01*
X101527732Y-77215128D01*
X101568023Y-77505190D01*
X101616943Y-77794071D01*
X101674375Y-78081504D01*
X101740200Y-78367225D01*
X101814299Y-78650969D01*
X101896555Y-78932469D01*
X101986849Y-79211462D01*
X102085063Y-79487681D01*
X102191078Y-79760862D01*
X102304777Y-80030740D01*
X102426041Y-80297048D01*
X102554752Y-80559523D01*
X102616924Y-80679810D01*
X102680813Y-80799347D01*
X102746430Y-80918044D01*
X102813786Y-81035809D01*
X102882888Y-81152552D01*
X102953749Y-81268180D01*
X103026378Y-81382604D01*
X103100785Y-81495731D01*
X103128115Y-81538370D01*
X103157330Y-81585652D01*
X103188640Y-81635155D01*
X103205146Y-81659982D01*
X103222255Y-81684457D01*
X103239991Y-81708276D01*
X103258383Y-81731136D01*
X103277455Y-81752736D01*
X103297235Y-81772773D01*
X103307398Y-81782110D01*
X103317747Y-81790943D01*
X103328287Y-81799233D01*
X103339019Y-81806944D01*
X103349948Y-81814036D01*
X103361077Y-81820473D01*
X103372409Y-81826216D01*
X103383946Y-81831228D01*
X103400084Y-81836331D01*
X103414145Y-81838072D01*
X103426224Y-81836649D01*
X103436419Y-81832255D01*
X103444825Y-81825087D01*
X103451539Y-81815340D01*
X103456657Y-81803210D01*
X103460274Y-81788892D01*
X103462488Y-81772581D01*
X103463395Y-81754474D01*
X103461670Y-81713650D01*
X103455869Y-81667984D01*
X103446763Y-81619040D01*
X103435120Y-81568382D01*
X103421711Y-81517574D01*
X103392673Y-81421764D01*
X103365806Y-81344119D01*
X103347267Y-81297152D01*
X103138767Y-80823152D01*
X103038557Y-80585111D01*
X102941993Y-80345823D01*
X102849788Y-80104873D01*
X102762658Y-79861844D01*
X102681317Y-79616323D01*
X102606479Y-79367893D01*
X102487333Y-78906617D01*
X102391202Y-78437727D01*
X102318966Y-77963167D01*
X102271504Y-77484877D01*
X102249696Y-77004801D01*
X102254421Y-76524880D01*
X102286558Y-76047056D01*
X102346986Y-75573270D01*
X102436586Y-75105466D01*
X102556236Y-74645584D01*
X102706815Y-74195567D01*
X102889203Y-73757357D01*
X103104280Y-73332896D01*
X103352924Y-72924125D01*
X103490109Y-72726230D01*
X103636016Y-72532987D01*
X103790754Y-72344637D01*
X103954433Y-72161423D01*
X104048078Y-72063068D01*
X104143507Y-71967116D01*
X104240697Y-71873525D01*
X104339627Y-71782253D01*
X104440273Y-71693257D01*
X104542613Y-71606494D01*
X104646624Y-71521922D01*
X104752284Y-71439499D01*
X104859570Y-71359182D01*
X104968459Y-71280929D01*
X105078930Y-71204697D01*
X105190958Y-71130444D01*
X105419601Y-70987704D01*
X105654205Y-70852370D01*
X105754441Y-70798319D01*
X105855834Y-70746633D01*
X105958312Y-70697221D01*
X106061804Y-70649996D01*
X106271540Y-70561748D01*
X106484465Y-70481179D01*
X106700004Y-70407578D01*
X106917578Y-70340236D01*
X107136613Y-70278441D01*
X107356531Y-70221484D01*
X107468915Y-70194977D01*
X107580795Y-70171408D01*
X107692259Y-70150618D01*
X107803396Y-70132450D01*
X108025047Y-70103354D01*
X108246460Y-70082862D01*
X108468347Y-70069718D01*
X108691420Y-70062665D01*
X108916390Y-70060445D01*
X109143971Y-70061801D01*
X109209755Y-70063453D01*
X109278645Y-70066999D01*
X109350047Y-70072606D01*
X109423364Y-70080440D01*
X109498001Y-70090668D01*
X109573363Y-70103455D01*
X109648853Y-70118969D01*
X109723876Y-70137375D01*
X109797836Y-70158839D01*
X109870138Y-70183530D01*
X109940186Y-70211611D01*
X110007385Y-70243251D01*
X110071138Y-70278615D01*
X110130851Y-70317869D01*
X110159005Y-70339008D01*
X110185926Y-70361181D01*
X110211540Y-70384410D01*
X110235770Y-70408716D01*
X110253575Y-70428229D01*
X110270092Y-70447744D01*
X110285372Y-70467270D01*
X110299467Y-70486817D01*
X110312430Y-70506396D01*
X110324314Y-70526015D01*
X110345050Y-70565418D01*
X110362095Y-70605105D01*
X110375867Y-70645156D01*
X110386783Y-70685652D01*
X110395262Y-70726671D01*
X110401722Y-70768294D01*
X110406582Y-70810601D01*
X110413172Y-70897584D01*
X110418380Y-70988260D01*
X110425551Y-71083266D01*
X110442426Y-71278792D01*
X110456873Y-71474245D01*
X110484720Y-71864808D01*
X110501242Y-72059856D01*
X110521577Y-72254708D01*
X110547285Y-72449334D01*
X110579928Y-72643702D01*
X110636413Y-72923988D01*
X110700144Y-73205331D01*
X110770750Y-73487348D01*
X110847857Y-73769658D01*
X111020081Y-74333632D01*
X111213831Y-74894201D01*
X111426123Y-75448314D01*
X111653973Y-75992919D01*
X111894393Y-76524964D01*
X112144401Y-77041398D01*
X112210600Y-77169205D01*
X112278842Y-77292019D01*
X112349242Y-77410217D01*
X112421916Y-77524180D01*
X112496978Y-77634287D01*
X112574545Y-77740916D01*
X112654730Y-77844447D01*
X112737650Y-77945260D01*
X112823418Y-78043733D01*
X112912151Y-78140245D01*
X113003964Y-78235177D01*
X113098971Y-78328906D01*
X113197288Y-78421813D01*
X113299029Y-78514277D01*
X113404311Y-78606676D01*
X113513248Y-78699390D01*
X113635654Y-78801795D01*
X113760276Y-78902491D01*
X113823781Y-78951144D01*
X113888277Y-78998102D01*
X113953910Y-79042944D01*
X114020824Y-79085248D01*
X114089166Y-79124591D01*
X114159080Y-79160552D01*
X114230714Y-79192707D01*
X114304212Y-79220635D01*
X114379720Y-79243914D01*
X114457383Y-79262120D01*
X114537348Y-79274833D01*
X114578238Y-79278997D01*
X114619759Y-79281629D01*
X114654957Y-79282994D01*
X114691070Y-79284133D01*
X114764329Y-79286334D01*
X114745686Y-79285897D01*
X114726987Y-79285669D01*
X114708385Y-79285403D01*
X114699167Y-79285178D01*
X114690030Y-79284850D01*
X114807175Y-79388593D01*
X114926058Y-79490470D01*
X115046268Y-79590514D01*
X115167395Y-79688755D01*
X115289027Y-79785227D01*
X115410753Y-79879959D01*
X115652844Y-80064334D01*
X115860381Y-80215391D01*
X116074308Y-80360366D01*
X116294241Y-80498420D01*
X116519795Y-80628712D01*
X116750586Y-80750401D01*
X116986229Y-80862646D01*
X117226340Y-80964607D01*
X117470534Y-81055444D01*
X117718427Y-81134314D01*
X117969633Y-81200378D01*
X118223769Y-81252795D01*
X118480449Y-81290725D01*
X118739290Y-81313326D01*
X118999907Y-81319758D01*
X119261914Y-81309180D01*
X119524928Y-81280752D01*
X119589385Y-81270872D01*
X119652855Y-81259804D01*
X119715348Y-81247565D01*
X119776878Y-81234169D01*
X119837458Y-81219632D01*
X119897099Y-81203970D01*
X119955814Y-81187198D01*
X120013615Y-81169333D01*
X120070515Y-81150390D01*
X120126526Y-81130385D01*
X120181660Y-81109334D01*
X120235930Y-81087251D01*
X120289347Y-81064153D01*
X120341926Y-81040056D01*
X120393676Y-81014975D01*
X120444613Y-80988926D01*
X120445310Y-80998164D01*
X120446499Y-81007261D01*
X120448199Y-81016188D01*
X120450427Y-81024921D01*
X120453204Y-81033430D01*
X120454803Y-81037593D01*
X120456547Y-81041690D01*
X120458437Y-81045718D01*
X120460476Y-81049673D01*
X120462666Y-81053553D01*
X120465009Y-81057353D01*
X120467508Y-81061070D01*
X120470166Y-81064702D01*
X120472984Y-81068243D01*
X120475965Y-81071693D01*
X120479111Y-81075045D01*
X120482424Y-81078299D01*
X120485908Y-81081449D01*
X120489564Y-81084493D01*
X120493394Y-81087427D01*
X120497402Y-81090249D01*
X120501588Y-81092953D01*
X120505957Y-81095538D01*
X120510509Y-81098000D01*
X120515248Y-81100335D01*
X120520176Y-81102540D01*
X120525295Y-81104612D01*
X120547002Y-81111176D01*
X120569811Y-81114737D01*
X120593638Y-81115453D01*
X120618397Y-81113485D01*
X120644004Y-81108990D01*
X120670372Y-81102127D01*
X120697416Y-81093055D01*
X120725051Y-81081932D01*
X120753192Y-81068918D01*
X120781754Y-81054171D01*
X120839798Y-81020111D01*
X120898501Y-80981024D01*
X120957179Y-80938178D01*
X121015152Y-80892843D01*
X121071736Y-80846288D01*
X121178010Y-80754601D01*
X121270543Y-80673270D01*
X121309950Y-80639663D01*
X121343875Y-80612455D01*
X121492839Y-80490176D01*
X121634761Y-80356819D01*
X121770221Y-80213597D01*
X121899797Y-80061722D01*
X122024071Y-79902408D01*
X122143623Y-79736869D01*
X122259031Y-79566317D01*
X122370876Y-79391966D01*
X122586198Y-79036718D01*
X122794226Y-78680831D01*
X122999601Y-78334011D01*
X123102743Y-78167035D01*
X123206962Y-78005964D01*
X123348512Y-77781533D01*
X123478196Y-77552334D01*
X123596614Y-77318707D01*
X123704368Y-77080993D01*
X123802059Y-76839535D01*
X123890289Y-76594672D01*
X123969657Y-76346747D01*
X124040768Y-76096101D01*
X124104220Y-75843075D01*
X124160616Y-75588010D01*
X124210557Y-75331247D01*
X124254644Y-75073129D01*
X124327662Y-74554188D01*
X124384482Y-74033918D01*
X124421223Y-73580544D01*
X124443636Y-73125512D01*
X124451308Y-72669569D01*
X124443827Y-72213460D01*
X124420783Y-71757930D01*
X124381764Y-71303725D01*
X124326358Y-70851591D01*
X124254154Y-70402273D01*
X124206558Y-70166039D01*
X124150831Y-69933065D01*
X124088721Y-69702537D01*
X124021974Y-69473643D01*
X123881549Y-69017500D01*
X123811363Y-68788624D01*
X123743523Y-68558128D01*
X123715298Y-68467329D01*
X123681713Y-68368625D01*
X123645771Y-68264538D01*
X123610478Y-68157590D01*
X123594014Y-68103832D01*
X123578838Y-68050305D01*
X123565326Y-67997323D01*
X123553854Y-67945203D01*
X123544796Y-67894260D01*
X123538530Y-67844809D01*
X123535430Y-67797164D01*
X123535871Y-67751643D01*
X123537209Y-67734826D01*
X123539434Y-67717750D01*
X123546371Y-67682909D01*
X123556330Y-67647299D01*
X123568958Y-67611100D01*
X123583902Y-67574492D01*
X123600810Y-67537655D01*
X123619329Y-67500768D01*
X123639106Y-67464013D01*
X123681024Y-67391614D01*
X123723742Y-67321897D01*
X123764438Y-67256303D01*
X123800291Y-67196270D01*
X123865851Y-67086140D01*
X123934092Y-66980383D01*
X124005172Y-66879051D01*
X124079249Y-66782198D01*
X124156480Y-66689875D01*
X124237022Y-66602136D01*
X124321034Y-66519031D01*
X124408672Y-66440615D01*
X124500094Y-66366938D01*
X124595457Y-66298054D01*
X124694919Y-66234014D01*
X124798638Y-66174871D01*
X124906770Y-66120678D01*
X125019474Y-66071487D01*
X125136906Y-66027350D01*
X125259224Y-65988319D01*
X125364471Y-65959967D01*
X125473288Y-65935393D01*
X125585097Y-65914823D01*
X125699316Y-65898484D01*
X125815365Y-65886602D01*
X125932663Y-65879401D01*
X126050630Y-65877109D01*
X126168686Y-65879951D01*
X126286250Y-65888152D01*
X126402742Y-65901939D01*
X126517581Y-65921538D01*
X126630186Y-65947175D01*
X126739978Y-65979075D01*
X126846375Y-66017464D01*
X126948797Y-66062568D01*
X127046665Y-66114614D01*
X127087107Y-66139412D01*
X127126546Y-66165951D01*
X127165056Y-66194067D01*
X127202708Y-66223597D01*
X127239575Y-66254377D01*
X127275729Y-66286245D01*
X127311243Y-66319037D01*
X127346189Y-66352590D01*
X127414667Y-66421324D01*
X127481741Y-66491143D01*
X127547990Y-66560738D01*
X127613995Y-66628806D01*
X127689245Y-66704801D01*
X127772146Y-66791099D01*
X127814569Y-66837543D01*
X127856627Y-66885880D01*
X127897562Y-66935882D01*
X127936616Y-66987321D01*
X127973029Y-67039971D01*
X128006042Y-67093603D01*
X128034896Y-67147989D01*
X128047527Y-67175394D01*
X128058833Y-67202902D01*
X128068720Y-67230485D01*
X128077094Y-67258115D01*
X128083858Y-67285762D01*
X128088919Y-67313399D01*
X128092181Y-67340996D01*
X128093550Y-67368527D01*
X128092930Y-67395961D01*
X128090228Y-67423271D01*
X128085893Y-67450188D01*
X128080402Y-67477042D01*
X128066192Y-67530555D01*
X128048086Y-67583799D01*
X128026571Y-67636761D01*
X128002134Y-67689430D01*
X127975262Y-67741793D01*
X127946444Y-67793839D01*
X127916167Y-67845556D01*
X127790210Y-68048895D01*
X127731148Y-68148279D01*
X127704302Y-68197359D01*
X127679895Y-68246014D01*
X127531522Y-68550154D01*
X127378734Y-68852016D01*
X127070250Y-69453957D01*
X126919722Y-69756559D01*
X126775115Y-70061932D01*
X126639012Y-70371338D01*
X126574957Y-70527947D01*
X126513997Y-70686037D01*
X126396706Y-71019619D01*
X126290995Y-71359285D01*
X126196237Y-71704335D01*
X126111806Y-72054069D01*
X126037074Y-72407788D01*
X125971414Y-72764791D01*
X125914200Y-73124378D01*
X125864805Y-73485851D01*
X125786961Y-74211649D01*
X125732868Y-74936587D01*
X125697509Y-75655066D01*
X125675869Y-76361485D01*
X125674993Y-76505507D01*
X125679065Y-76646369D01*
X125687841Y-76784430D01*
X125701079Y-76920051D01*
X125718533Y-77053592D01*
X125739960Y-77185413D01*
X125765116Y-77315875D01*
X125793758Y-77445338D01*
X125825642Y-77574162D01*
X125860523Y-77702708D01*
X125938305Y-77960406D01*
X126025153Y-78221314D01*
X126119118Y-78488315D01*
X126128808Y-78515185D01*
X126138672Y-78542058D01*
X126148719Y-78568930D01*
X126158953Y-78595796D01*
X126074433Y-78795580D01*
X125985584Y-78994972D01*
X125796094Y-79392016D01*
X125592876Y-79785792D01*
X125378326Y-80175167D01*
X125154837Y-80559006D01*
X124924804Y-80936174D01*
X124690621Y-81305537D01*
X124454683Y-81665959D01*
X124342274Y-81825676D01*
X124222699Y-81978359D01*
X124096821Y-82124851D01*
X123965506Y-82265999D01*
X123829618Y-82402648D01*
X123690020Y-82535643D01*
X123403153Y-82794055D01*
X123111819Y-83047996D01*
X122822932Y-83304231D01*
X122681566Y-83435322D01*
X122543405Y-83569522D01*
X122409312Y-83707677D01*
X122280152Y-83850632D01*
X122339075Y-83861976D01*
X122398051Y-83875666D01*
X122516017Y-83909692D01*
X122633758Y-83951934D01*
X122750981Y-84001615D01*
X122867394Y-84057961D01*
X122982705Y-84120196D01*
X123096620Y-84187542D01*
X123208849Y-84259225D01*
X123319097Y-84334468D01*
X123427073Y-84412495D01*
X123532484Y-84492531D01*
X123635037Y-84573799D01*
X123830403Y-84736929D01*
X124010829Y-84895678D01*
X124201504Y-85075997D01*
X124380184Y-85263683D01*
X124546971Y-85458319D01*
X124701964Y-85659486D01*
X124845264Y-85866768D01*
X124976971Y-86079746D01*
X125097186Y-86298004D01*
X125206008Y-86521123D01*
X125303540Y-86748686D01*
X125389880Y-86980275D01*
X125465129Y-87215473D01*
X125529388Y-87453862D01*
X125582757Y-87695025D01*
X125625336Y-87938544D01*
X125678527Y-88430980D01*
X125689765Y-88927829D01*
X125659852Y-89425750D01*
X125589592Y-89921403D01*
X125479787Y-90411447D01*
X125331242Y-90892542D01*
X125144759Y-91361347D01*
X124921141Y-91814521D01*
X124661192Y-92248724D01*
X124377673Y-92651583D01*
X124071483Y-93031752D01*
X123743941Y-93389513D01*
X123396368Y-93725147D01*
X123030083Y-94038935D01*
X122646407Y-94331158D01*
X122246659Y-94602097D01*
X121832161Y-94852035D01*
X121404230Y-95081251D01*
X120964188Y-95290028D01*
X120513355Y-95478646D01*
X120053050Y-95647387D01*
X119584594Y-95796533D01*
X119109307Y-95926363D01*
X118628508Y-96037160D01*
X118143518Y-96129205D01*
X118225347Y-96111561D01*
X118324800Y-96088232D01*
X118648573Y-96012249D01*
X118778557Y-95987280D01*
X118822901Y-95977939D01*
X118869164Y-95967096D01*
X118915935Y-95954618D01*
X118961803Y-95940373D01*
X119005359Y-95924231D01*
X119045192Y-95906058D01*
X119063271Y-95896170D01*
X119079891Y-95885724D01*
X119094875Y-95874706D01*
X119108047Y-95863097D01*
X119119230Y-95850883D01*
X119128248Y-95838045D01*
X119134925Y-95824568D01*
X119139085Y-95810436D01*
X119140551Y-95795632D01*
X119139147Y-95780138D01*
X119134697Y-95763940D01*
X119127024Y-95747021D01*
X119117586Y-95732560D01*
X119105898Y-95719715D01*
X119092098Y-95708408D01*
X119076323Y-95698566D01*
X119058712Y-95690111D01*
X119039403Y-95682969D01*
X119018533Y-95677063D01*
X118996240Y-95672319D01*
X118947939Y-95666010D01*
X118895604Y-95663438D01*
X118840339Y-95663997D01*
X118783247Y-95667082D01*
X118725433Y-95672088D01*
X118668000Y-95678409D01*
X118558693Y-95692579D01*
X118464157Y-95704748D01*
X118425189Y-95708570D01*
X118393225Y-95710077D01*
X118249923Y-95709226D01*
X118109644Y-95705292D01*
X117972033Y-95698301D01*
X117836737Y-95688279D01*
X117703404Y-95675254D01*
X117571681Y-95659251D01*
X117441214Y-95640297D01*
X117311651Y-95618418D01*
X117182639Y-95593641D01*
X117053824Y-95565992D01*
X116795375Y-95502183D01*
X116533481Y-95427203D01*
X116265318Y-95341262D01*
X116148963Y-95304644D01*
X116363599Y-95244777D01*
X116630016Y-95165493D01*
X116773496Y-95117628D01*
X116918945Y-95063776D01*
X117062704Y-95003561D01*
X117201116Y-94936605D01*
X117267172Y-94900482D01*
X117330520Y-94862532D01*
X117390701Y-94822708D01*
X117447259Y-94780963D01*
X117499735Y-94737251D01*
X117547673Y-94691522D01*
X117590615Y-94643732D01*
X117628104Y-94593831D01*
X117659683Y-94541774D01*
X117684894Y-94487513D01*
X117703280Y-94431001D01*
X117714383Y-94372191D01*
X117717746Y-94311035D01*
X117712912Y-94247486D01*
X117699424Y-94181498D01*
X117676824Y-94113023D01*
X117661918Y-94076237D01*
X117646585Y-94041129D01*
X117630697Y-94007679D01*
X117614126Y-93975871D01*
X117596741Y-93945684D01*
X117578415Y-93917102D01*
X117559020Y-93890105D01*
X117538425Y-93864676D01*
X117516503Y-93840795D01*
X117493125Y-93818445D01*
X117468161Y-93797606D01*
X117441484Y-93778262D01*
X117412964Y-93760393D01*
X117382473Y-93743980D01*
X117349883Y-93729007D01*
X117315063Y-93715453D01*
X117226361Y-93685444D01*
X117134775Y-93657619D01*
X117040669Y-93631926D01*
X116944411Y-93608314D01*
X116846366Y-93586732D01*
X116746901Y-93567129D01*
X116545171Y-93533655D01*
X116342151Y-93507485D01*
X116140767Y-93488208D01*
X115943948Y-93475418D01*
X115754621Y-93468704D01*
X115934372Y-93296298D01*
X116108063Y-93133130D01*
X116190941Y-93052714D01*
X116270271Y-92971851D01*
X116345374Y-92889624D01*
X116415573Y-92805114D01*
X116480189Y-92717402D01*
X116538545Y-92625569D01*
X116565163Y-92577821D01*
X116589962Y-92528698D01*
X116612857Y-92478086D01*
X116633763Y-92425869D01*
X116652596Y-92371934D01*
X116669271Y-92316165D01*
X116683702Y-92258447D01*
X116695806Y-92198666D01*
X116705497Y-92136706D01*
X116712691Y-92072453D01*
X116717303Y-92005793D01*
X116719248Y-91936610D01*
X116653203Y-91939124D01*
X116587341Y-91943733D01*
X116521636Y-91950134D01*
X116456061Y-91958023D01*
X116325194Y-91977051D01*
X116194525Y-91998392D01*
X116063836Y-92019619D01*
X115932914Y-92038304D01*
X115867298Y-92045935D01*
X115801542Y-92052020D01*
X115735620Y-92056257D01*
X115669505Y-92058342D01*
X115624175Y-92059048D01*
X115586857Y-92059769D01*
X115535280Y-92061095D01*
X115713933Y-92049042D01*
X115858184Y-92035788D01*
X116032026Y-92016291D01*
X116230187Y-91989479D01*
X116447400Y-91954282D01*
X116678393Y-91909631D01*
X116917898Y-91854455D01*
X117000943Y-91832151D01*
X117083400Y-91807276D01*
X117165303Y-91780065D01*
X117246684Y-91750755D01*
X117327577Y-91719582D01*
X117408014Y-91686782D01*
X117567653Y-91617242D01*
X118194575Y-91321181D01*
X118338977Y-91254683D01*
X118482687Y-91186698D01*
X118624587Y-91115613D01*
X118694510Y-91078405D01*
X118763561Y-91039818D01*
X118831600Y-90999651D01*
X118898489Y-90957702D01*
X118964088Y-90913770D01*
X119028256Y-90867654D01*
X119090854Y-90819152D01*
X119151742Y-90768064D01*
X119210781Y-90714186D01*
X119267830Y-90657319D01*
X119370876Y-90539405D01*
X119466484Y-90409170D01*
X119554341Y-90268069D01*
X119634129Y-90117554D01*
X119705534Y-89959080D01*
X119768239Y-89794101D01*
X119821928Y-89624071D01*
X119866286Y-89450443D01*
X119900997Y-89274672D01*
X119925745Y-89098211D01*
X119940213Y-88922515D01*
X119944087Y-88749037D01*
X119937051Y-88579231D01*
X119918788Y-88414552D01*
X119888983Y-88256452D01*
X119847320Y-88106386D01*
X119818253Y-88024537D01*
X119785545Y-87944967D01*
X119749339Y-87867632D01*
X119709780Y-87792486D01*
X119667012Y-87719483D01*
X119621178Y-87648579D01*
X119520893Y-87512881D01*
X119410077Y-87385028D01*
X119289882Y-87264655D01*
X119161463Y-87151399D01*
X119025970Y-87044894D01*
X118884558Y-86944776D01*
X118738379Y-86850680D01*
X118588586Y-86762243D01*
X118436332Y-86679099D01*
X118282769Y-86600884D01*
X118129051Y-86527234D01*
X117825758Y-86392170D01*
X117677570Y-86330737D01*
X117527152Y-86272262D01*
X117220437Y-86164131D01*
X116907234Y-86067664D01*
X116589167Y-85982753D01*
X116267856Y-85909287D01*
X115944925Y-85847155D01*
X115621995Y-85796247D01*
X115300688Y-85756452D01*
X115215729Y-85748867D01*
X115130131Y-85744021D01*
X115043977Y-85741585D01*
X114957348Y-85741230D01*
X114782992Y-85745447D01*
X114607716Y-85754039D01*
X114257018Y-85773815D01*
X114082902Y-85779733D01*
X113910478Y-85779494D01*
X113612411Y-85769734D01*
X113313895Y-85755175D01*
X113015177Y-85736008D01*
X112716505Y-85712418D01*
X112418126Y-85684596D01*
X112120288Y-85652730D01*
X111823237Y-85617006D01*
X111527223Y-85577615D01*
X110612201Y-85428683D01*
X109688767Y-85234922D01*
X108762798Y-84995962D01*
X107840173Y-84711436D01*
X106926769Y-84380975D01*
X106028464Y-84004211D01*
X105151138Y-83580775D01*
X104300668Y-83110298D01*
X103482932Y-82592412D01*
X103088176Y-82315575D01*
X102703809Y-82026748D01*
X102330563Y-81725885D01*
X101969176Y-81412939D01*
X101620380Y-81087864D01*
X101284912Y-80750614D01*
X100963505Y-80401144D01*
X100656895Y-80039406D01*
X100365817Y-79665356D01*
X100091004Y-79278947D01*
X99833192Y-78880133D01*
X99593116Y-78468868D01*
X99371510Y-78045105D01*
X99169110Y-77608799D01*
X98871425Y-76893386D01*
X98597959Y-76166744D01*
X98352083Y-75429787D01*
X98240544Y-75057727D01*
X98137166Y-74683431D01*
X98042370Y-74307014D01*
X97956577Y-73928591D01*
X97880210Y-73548276D01*
X97813688Y-73166182D01*
X97757433Y-72782425D01*
X97711867Y-72397119D01*
X97677410Y-72010378D01*
X97654484Y-71622317D01*
X97648067Y-71406309D01*
X97647486Y-71190205D01*
X97652381Y-70974067D01*
X97662393Y-70757955D01*
X97696325Y-70326063D01*
X97746399Y-69895023D01*
X97809736Y-69465333D01*
X97883454Y-69037487D01*
X97964671Y-68611982D01*
X98050506Y-68189314D01*
X98176362Y-67604163D01*
X98313582Y-67017308D01*
X98464084Y-66431119D01*
X98629787Y-65847966D01*
X98812609Y-65270219D01*
X99014467Y-64700247D01*
X99123136Y-64418917D01*
X99237282Y-64140419D01*
X99357148Y-63865051D01*
X99482971Y-63593107D01*
X99536472Y-63484222D01*
X99592270Y-63376555D01*
X99709702Y-63164315D01*
X99833142Y-62955276D01*
X99960467Y-62748323D01*
X100218276Y-62336229D01*
X100344514Y-62128862D01*
X100466141Y-61919133D01*
X100623069Y-61633794D01*
X100776037Y-61346218D01*
X101076057Y-60767731D01*
X101378128Y-60190427D01*
X101533661Y-59904330D01*
X101694180Y-59621061D01*
X101808990Y-59429058D01*
X101927287Y-59239625D01*
X102167256Y-58863610D01*
X102285387Y-58674598D01*
X102399920Y-58483297D01*
X102509085Y-58288492D01*
X102561101Y-58189396D01*
X102611111Y-58088969D01*
X102726785Y-57837974D01*
X102831484Y-57585847D01*
X102925208Y-57332553D01*
X103007956Y-57078058D01*
X103079728Y-56822330D01*
X103140524Y-56565335D01*
X103190344Y-56307038D01*
X103229189Y-56047407D01*
X103257057Y-55786407D01*
X103273948Y-55524006D01*
X103279863Y-55260169D01*
X103274802Y-54994862D01*
X103258763Y-54728053D01*
X103231747Y-54459708D01*
X103193755Y-54189792D01*
X103144785Y-53918273D01*
X103092950Y-53678778D01*
X103034039Y-53440607D01*
X102968846Y-53203631D01*
X102898160Y-52967722D01*
X102743484Y-52498589D01*
X102576346Y-52032182D01*
X102230028Y-51103425D01*
X102063520Y-50639020D01*
X101909894Y-50173225D01*
X101852236Y-49980140D01*
X101798487Y-49784333D01*
X101776108Y-49694956D01*
X104035600Y-49694956D01*
X104036763Y-49872832D01*
X104045138Y-50051147D01*
X104060710Y-50229924D01*
X104081184Y-50391918D01*
X104093769Y-50472480D01*
X104107954Y-50552709D01*
X104123768Y-50632577D01*
X104141236Y-50712050D01*
X104160386Y-50791099D01*
X104181244Y-50869692D01*
X104203838Y-50947799D01*
X104228195Y-51025388D01*
X104254342Y-51102429D01*
X104282305Y-51178889D01*
X104312112Y-51254740D01*
X104343789Y-51329948D01*
X104377364Y-51404484D01*
X104412864Y-51478317D01*
X104534328Y-51707189D01*
X104665943Y-51925539D01*
X104807286Y-52133519D01*
X104957935Y-52331281D01*
X105117471Y-52518976D01*
X105285470Y-52696756D01*
X105461512Y-52864772D01*
X105645175Y-53023177D01*
X105836037Y-53172123D01*
X106033678Y-53311759D01*
X106447607Y-53563715D01*
X106883590Y-53780258D01*
X107338256Y-53962601D01*
X107808233Y-54111959D01*
X108290148Y-54229544D01*
X108780630Y-54316570D01*
X109276307Y-54374251D01*
X109773807Y-54403801D01*
X110269758Y-54406431D01*
X110760788Y-54383357D01*
X111243526Y-54335792D01*
X111726513Y-54260829D01*
X112211770Y-54155923D01*
X112696080Y-54021592D01*
X113176225Y-53858351D01*
X113648990Y-53666719D01*
X114111156Y-53447212D01*
X114559508Y-53200347D01*
X114990828Y-52926641D01*
X115199096Y-52779884D01*
X115401900Y-52626611D01*
X115598838Y-52466886D01*
X115789507Y-52300774D01*
X115973505Y-52128339D01*
X116150431Y-51949647D01*
X116319882Y-51764762D01*
X116481457Y-51573748D01*
X116634752Y-51376670D01*
X116779367Y-51173592D01*
X116914898Y-50964580D01*
X117040944Y-50749698D01*
X117157102Y-50529010D01*
X117262971Y-50302582D01*
X117358149Y-50070477D01*
X117442233Y-49832761D01*
X117489970Y-49677355D01*
X117532238Y-49520352D01*
X117568760Y-49361953D01*
X117599261Y-49202357D01*
X117623464Y-49041765D01*
X117641093Y-48880378D01*
X117647356Y-48799448D01*
X117651873Y-48718395D01*
X117654608Y-48637243D01*
X117655528Y-48556017D01*
X117653622Y-48396832D01*
X117647545Y-48238833D01*
X117636755Y-48081876D01*
X117620714Y-47925814D01*
X117598880Y-47770503D01*
X117585622Y-47693084D01*
X117570714Y-47615798D01*
X117554087Y-47538627D01*
X117535675Y-47461554D01*
X117515409Y-47384559D01*
X117493222Y-47307624D01*
X117428012Y-47109280D01*
X117353947Y-46917081D01*
X117271337Y-46730992D01*
X117180491Y-46550981D01*
X117081719Y-46377014D01*
X116975328Y-46209056D01*
X116861630Y-46047075D01*
X116740933Y-45891037D01*
X116613546Y-45740908D01*
X116479778Y-45596655D01*
X116194339Y-45325640D01*
X115887090Y-45077725D01*
X115560505Y-44852639D01*
X115217057Y-44650115D01*
X114859222Y-44469883D01*
X114489473Y-44311675D01*
X114110285Y-44175221D01*
X113724131Y-44060253D01*
X113333485Y-43966501D01*
X112940823Y-43893697D01*
X112548618Y-43841572D01*
X112302129Y-43815789D01*
X112177022Y-43803932D01*
X112051106Y-43793506D01*
X111924710Y-43785066D01*
X111798159Y-43779167D01*
X111671780Y-43776365D01*
X111545899Y-43777214D01*
X111545901Y-43777212D01*
X111504106Y-43778405D01*
X111462414Y-43780089D01*
X111420836Y-43782285D01*
X111379386Y-43785011D01*
X111338076Y-43788286D01*
X111296918Y-43792130D01*
X111255925Y-43796561D01*
X111215108Y-43801598D01*
X111004641Y-43827412D01*
X110794529Y-43850769D01*
X110375362Y-43897439D01*
X110166303Y-43924415D01*
X109957591Y-43956262D01*
X109749225Y-43994813D01*
X109645170Y-44017174D01*
X109541202Y-44041898D01*
X109191649Y-44136283D01*
X108845161Y-44244084D01*
X108502651Y-44365361D01*
X108165033Y-44500169D01*
X107833220Y-44648565D01*
X107508124Y-44810608D01*
X107190659Y-44986354D01*
X106881739Y-45175861D01*
X106582276Y-45379185D01*
X106293184Y-45596384D01*
X106015377Y-45827515D01*
X105749766Y-46072636D01*
X105497266Y-46331803D01*
X105258790Y-46605073D01*
X105035251Y-46892505D01*
X104827562Y-47194155D01*
X104711735Y-47381638D01*
X104656584Y-47477301D01*
X104603360Y-47574175D01*
X104552129Y-47672204D01*
X104502954Y-47771335D01*
X104455899Y-47871514D01*
X104411031Y-47972686D01*
X104368412Y-48074798D01*
X104328108Y-48177796D01*
X104290184Y-48281626D01*
X104254702Y-48386234D01*
X104221729Y-48491565D01*
X104191328Y-48597567D01*
X104163565Y-48704184D01*
X104138503Y-48811363D01*
X104103376Y-48987387D01*
X104075537Y-49163735D01*
X104054972Y-49340431D01*
X104041664Y-49517497D01*
X104035600Y-49694956D01*
X101776108Y-49694956D01*
X101748921Y-49586377D01*
X101703810Y-49386844D01*
X101663429Y-49186304D01*
X101628050Y-48985330D01*
X101597946Y-48784493D01*
X101573392Y-48584365D01*
X101565462Y-48493067D01*
X101560492Y-48399399D01*
X101555159Y-48207632D01*
X101552654Y-48110871D01*
X101548831Y-48014417D01*
X101542620Y-47918938D01*
X101538284Y-47871774D01*
X101532950Y-47825105D01*
X101540171Y-47827455D01*
X101547440Y-47829581D01*
X101554754Y-47831480D01*
X101562114Y-47833147D01*
X101569520Y-47834575D01*
X101576969Y-47835760D01*
X101584463Y-47836698D01*
X101592001Y-47837383D01*
X101599581Y-47837810D01*
X101607204Y-47837975D01*
X101614870Y-47837872D01*
X101622576Y-47837496D01*
X101630324Y-47836842D01*
X101638111Y-47835905D01*
X101645939Y-47834681D01*
X101653806Y-47833165D01*
X101678088Y-47827000D01*
X101702223Y-47818850D01*
X101726199Y-47808819D01*
X101750002Y-47797011D01*
X101773620Y-47783528D01*
X101797040Y-47768476D01*
X101820249Y-47751957D01*
X101843235Y-47734075D01*
X101888483Y-47694639D01*
X101932682Y-47650997D01*
X101975729Y-47603979D01*
X102017521Y-47554414D01*
X102057957Y-47503133D01*
X102096931Y-47450965D01*
X102170089Y-47347288D01*
X102294361Y-47165805D01*
X102475820Y-46909431D01*
X102664350Y-46626556D01*
X102756012Y-46477151D01*
X102843138Y-46323484D01*
X102923624Y-46166343D01*
X102995370Y-46006517D01*
X103056275Y-45844794D01*
X103104235Y-45681960D01*
X103122705Y-45600374D01*
X103137151Y-45518805D01*
X103147310Y-45437353D01*
X103152920Y-45356116D01*
X103153718Y-45275193D01*
X103149441Y-45194682D01*
X103139827Y-45114681D01*
X103124612Y-45035289D01*
X103103535Y-44956605D01*
X103076332Y-44878727D01*
X103042741Y-44801753D01*
X103002499Y-44725783D01*
X102900754Y-44555759D01*
X102797231Y-44390363D01*
X102693949Y-44227250D01*
X102592928Y-44064077D01*
X102496188Y-43898501D01*
X102450053Y-43814079D01*
X102405746Y-43728178D01*
X102363518Y-43640505D01*
X102323623Y-43550767D01*
X102286311Y-43458670D01*
X102251837Y-43363923D01*
X102208886Y-43241888D01*
X102186233Y-43170722D01*
X102175976Y-43133914D01*
X102166952Y-43096790D01*
X102159551Y-43059724D01*
X102154163Y-43023092D01*
X102151178Y-42987269D01*
X102150985Y-42952629D01*
X102152057Y-42935871D01*
X102153974Y-42919548D01*
X102156784Y-42903710D01*
X102160535Y-42888401D01*
X102165278Y-42873670D01*
X102171059Y-42859562D01*
X102177928Y-42846126D01*
X102185934Y-42833407D01*
X102204081Y-42808874D01*
X102222830Y-42786485D01*
X102242149Y-42766179D01*
X102262005Y-42747893D01*
X102282365Y-42731566D01*
X102303195Y-42717136D01*
X102324464Y-42704542D01*
X102346138Y-42693722D01*
X102368184Y-42684613D01*
X102390569Y-42677155D01*
X102413260Y-42671285D01*
X102436225Y-42666942D01*
X102459429Y-42664064D01*
X102482841Y-42662589D01*
X102506428Y-42662455D01*
X102530155Y-42663602D01*
X102553991Y-42665966D01*
X102577903Y-42669486D01*
X102625821Y-42679749D01*
X102673645Y-42693895D01*
X102721112Y-42711431D01*
X102767958Y-42731863D01*
X102813919Y-42754697D01*
X102858732Y-42779439D01*
X102902133Y-42805595D01*
X102992708Y-42864907D01*
X103079844Y-42926791D01*
X103163970Y-42990931D01*
X103245515Y-43057008D01*
X103324908Y-43124706D01*
X103402578Y-43193708D01*
X103554465Y-43334355D01*
X103704607Y-43476415D01*
X103856435Y-43617350D01*
X103934054Y-43686603D01*
X104013381Y-43754625D01*
X104094846Y-43821097D01*
X104178877Y-43885704D01*
X104261809Y-43942821D01*
X104346775Y-43992551D01*
X104433586Y-44035111D01*
X104522049Y-44070722D01*
X104611971Y-44099601D01*
X104703161Y-44121968D01*
X104795427Y-44138041D01*
X104888577Y-44148039D01*
X104982419Y-44152181D01*
X105076761Y-44150686D01*
X105171412Y-44143773D01*
X105266178Y-44131659D01*
X105360869Y-44114565D01*
X105455292Y-44092709D01*
X105549255Y-44066310D01*
X105642567Y-44035586D01*
X105735035Y-44000757D01*
X105826468Y-43962041D01*
X105916673Y-43919657D01*
X106005459Y-43873824D01*
X106178004Y-43772685D01*
X106342568Y-43660376D01*
X106497616Y-43538646D01*
X106641612Y-43409246D01*
X106773019Y-43273926D01*
X106890303Y-43134437D01*
X106901299Y-43119081D01*
X106911030Y-43102972D01*
X106919541Y-43086157D01*
X106926877Y-43068686D01*
X106933082Y-43050608D01*
X106938202Y-43031972D01*
X106942280Y-43012829D01*
X106945361Y-42993225D01*
X106947491Y-42973212D01*
X106948714Y-42952837D01*
X106948616Y-42911202D01*
X106945427Y-42868713D01*
X106939503Y-42825762D01*
X106931201Y-42782744D01*
X106920880Y-42740052D01*
X106908897Y-42698078D01*
X106895609Y-42657217D01*
X106881374Y-42617861D01*
X106866549Y-42580404D01*
X106851492Y-42545239D01*
X106836561Y-42512759D01*
X106832208Y-42503696D01*
X106827779Y-42494643D01*
X106823274Y-42485596D01*
X106818691Y-42476550D01*
X106987714Y-42392307D01*
X107194028Y-42294404D01*
X107403300Y-42204600D01*
X107615284Y-42122413D01*
X107829735Y-42047360D01*
X108046405Y-41978959D01*
X108265048Y-41916730D01*
X108485419Y-41860190D01*
X108707270Y-41808857D01*
X109154430Y-41719886D01*
X109604556Y-41645963D01*
X110055680Y-41583233D01*
X110505829Y-41527842D01*
X110609173Y-41516279D01*
X110713282Y-41505881D01*
X110817998Y-41496636D01*
X110923162Y-41488536D01*
X111028613Y-41481571D01*
X111134193Y-41475729D01*
X111345100Y-41467380D01*
X111344152Y-41495111D01*
X111344719Y-41522499D01*
X111346879Y-41549518D01*
X111350711Y-41576145D01*
X111356296Y-41602354D01*
X111359769Y-41615294D01*
X111363711Y-41628121D01*
X111368130Y-41640830D01*
X111373036Y-41653420D01*
X111378440Y-41665887D01*
X111384351Y-41678228D01*
X111390779Y-41690439D01*
X111397734Y-41702519D01*
X111405226Y-41714463D01*
X111413264Y-41726269D01*
X111421860Y-41737933D01*
X111431022Y-41749452D01*
X111440760Y-41760824D01*
X111451084Y-41772045D01*
X111462005Y-41783112D01*
X111473532Y-41794022D01*
X111485675Y-41804772D01*
X111498444Y-41815359D01*
X111511848Y-41825780D01*
X111525898Y-41836031D01*
X111540604Y-41846110D01*
X111555976Y-41856013D01*
X111572711Y-41865885D01*
X111589711Y-41874785D01*
X111606962Y-41882754D01*
X111624449Y-41889832D01*
X111660072Y-41901479D01*
X111696466Y-41910050D01*
X111733515Y-41915870D01*
X111771106Y-41919263D01*
X111809121Y-41920555D01*
X111847446Y-41920069D01*
X111885966Y-41918130D01*
X111924566Y-41915064D01*
X112001544Y-41906844D01*
X112077458Y-41898006D01*
X112151386Y-41891148D01*
X112556589Y-41861482D01*
X112776537Y-41837817D01*
X112887745Y-41822146D01*
X112998593Y-41803296D01*
X113108194Y-41780801D01*
X113215663Y-41754195D01*
X113320113Y-41723013D01*
X113420656Y-41686789D01*
X113516408Y-41645057D01*
X113606480Y-41597352D01*
X113649109Y-41571114D01*
X113689986Y-41543208D01*
X113729001Y-41513576D01*
X113766041Y-41482160D01*
X113801259Y-41448547D01*
X113834007Y-41413384D01*
X113864523Y-41376814D01*
X113893043Y-41338981D01*
X113919804Y-41300029D01*
X113945043Y-41260102D01*
X113968997Y-41219344D01*
X113991903Y-41177899D01*
X114035516Y-41093521D01*
X114077778Y-41008120D01*
X114120583Y-40922846D01*
X114142782Y-40880617D01*
X114165826Y-40838851D01*
X114194834Y-40785826D01*
X114225703Y-40726636D01*
X114293317Y-40594928D01*
X114330208Y-40524996D01*
X114369252Y-40454069D01*
X114410521Y-40383439D01*
X114454089Y-40314399D01*
X114500028Y-40248243D01*
X114523910Y-40216649D01*
X114548412Y-40186261D01*
X114573543Y-40157241D01*
X114599312Y-40129749D01*
X114625729Y-40103947D01*
X114652802Y-40079997D01*
X114680541Y-40058061D01*
X114708955Y-40038299D01*
X114738052Y-40020874D01*
X114767843Y-40005948D01*
X114798335Y-39993681D01*
X114829539Y-39984235D01*
X114861463Y-39977773D01*
X114894117Y-39974455D01*
X114897930Y-39974282D01*
X114901752Y-39974153D01*
X114905581Y-39974069D01*
X114909421Y-39974029D01*
X114913270Y-39974034D01*
G37*
G36*
X118099022Y-96137736D02*
G01*
X118056680Y-96145069D01*
X118009741Y-96152503D01*
X117955952Y-96160419D01*
X117909196Y-96166826D01*
X118139017Y-96130125D01*
X118099022Y-96137736D01*
G37*
G36*
X118143091Y-96129322D02*
G01*
X118142546Y-96129447D01*
X118141257Y-96129717D01*
X118139972Y-96129963D01*
X118139433Y-96130058D01*
X118139017Y-96130125D01*
X118143516Y-96129213D01*
X118143091Y-96129322D01*
G37*
G36*
X107570046Y-48756309D02*
G01*
X107668492Y-48761440D01*
X107765360Y-48769962D01*
X107860610Y-48781848D01*
X107954202Y-48797073D01*
X108046098Y-48815608D01*
X108136259Y-48837428D01*
X108224645Y-48862505D01*
X108311216Y-48890812D01*
X108395935Y-48922324D01*
X108478760Y-48957012D01*
X108559654Y-48994850D01*
X108638577Y-49035812D01*
X108715489Y-49079870D01*
X108790352Y-49126997D01*
X108863127Y-49177167D01*
X108933773Y-49230353D01*
X109002252Y-49286528D01*
X109068524Y-49345666D01*
X109132551Y-49407739D01*
X109194293Y-49472720D01*
X109253711Y-49540583D01*
X109310766Y-49611301D01*
X109365417Y-49684847D01*
X109417628Y-49761195D01*
X109467356Y-49840316D01*
X109514565Y-49922186D01*
X109559214Y-50006776D01*
X109601264Y-50094060D01*
X109640677Y-50184011D01*
X109677411Y-50276603D01*
X109711430Y-50371808D01*
X109663825Y-50366236D01*
X109616607Y-50358112D01*
X109569736Y-50347725D01*
X109523172Y-50335361D01*
X109476874Y-50321309D01*
X109430803Y-50305857D01*
X109339180Y-50271901D01*
X109156889Y-50199848D01*
X109065579Y-50166355D01*
X109019743Y-50151249D01*
X108973733Y-50137621D01*
X108890748Y-50116075D01*
X108807356Y-50097416D01*
X108723635Y-50081729D01*
X108639662Y-50069095D01*
X108555513Y-50059599D01*
X108471265Y-50053323D01*
X108386996Y-50050352D01*
X108302782Y-50050769D01*
X108218700Y-50054656D01*
X108134827Y-50062098D01*
X108051241Y-50073177D01*
X107968017Y-50087977D01*
X107885233Y-50106582D01*
X107802966Y-50129075D01*
X107721293Y-50155539D01*
X107640291Y-50186057D01*
X107573431Y-50214783D01*
X107506866Y-50246724D01*
X107440736Y-50281663D01*
X107375180Y-50319386D01*
X107310338Y-50359678D01*
X107246349Y-50402323D01*
X107183354Y-50447106D01*
X107121491Y-50493811D01*
X107060900Y-50542225D01*
X107001722Y-50592131D01*
X106944096Y-50643314D01*
X106888161Y-50695559D01*
X106834057Y-50748651D01*
X106781923Y-50802374D01*
X106731900Y-50856514D01*
X106684128Y-50910854D01*
X106663746Y-50936015D01*
X106642909Y-50963945D01*
X106599484Y-51025402D01*
X106553092Y-51089804D01*
X106528546Y-51121414D01*
X106502973Y-51151727D01*
X106476278Y-51180064D01*
X106462480Y-51193280D01*
X106448366Y-51205748D01*
X106433924Y-51217383D01*
X106419142Y-51228101D01*
X106404008Y-51237816D01*
X106388511Y-51246444D01*
X106372638Y-51253900D01*
X106356378Y-51260100D01*
X106339718Y-51264958D01*
X106322648Y-51268391D01*
X106305154Y-51270313D01*
X106287225Y-51270639D01*
X106268850Y-51269285D01*
X106250015Y-51266167D01*
X106230328Y-51261368D01*
X106211316Y-51255469D01*
X106192965Y-51248516D01*
X106175261Y-51240556D01*
X106158190Y-51231635D01*
X106141737Y-51221800D01*
X106125889Y-51211096D01*
X106110631Y-51199571D01*
X106095949Y-51187272D01*
X106081829Y-51174243D01*
X106055216Y-51146187D01*
X106030680Y-51115775D01*
X106008105Y-51083379D01*
X105987379Y-51049369D01*
X105968388Y-51014120D01*
X105951017Y-50978001D01*
X105935154Y-50941385D01*
X105920683Y-50904644D01*
X105907492Y-50868150D01*
X105884492Y-50797388D01*
X105870420Y-50748024D01*
X105858357Y-50698578D01*
X105840089Y-50599534D01*
X105829355Y-50500446D01*
X105825819Y-50401500D01*
X105829145Y-50302884D01*
X105838999Y-50204786D01*
X105855045Y-50107395D01*
X105876949Y-50010898D01*
X105904374Y-49915482D01*
X105936986Y-49821336D01*
X105974450Y-49728648D01*
X106016429Y-49637606D01*
X106062590Y-49548396D01*
X106112597Y-49461208D01*
X106166115Y-49376229D01*
X106222808Y-49293646D01*
X106277803Y-49223200D01*
X106337710Y-49158299D01*
X106402134Y-49098804D01*
X106470677Y-49044579D01*
X106542943Y-48995484D01*
X106618534Y-48951381D01*
X106697054Y-48912134D01*
X106778106Y-48877603D01*
X106861294Y-48847651D01*
X106946219Y-48822140D01*
X107032487Y-48800931D01*
X107119699Y-48783887D01*
X107207459Y-48770870D01*
X107295371Y-48761741D01*
X107383036Y-48756363D01*
X107470060Y-48754597D01*
X107570046Y-48756309D01*
G37*
G36*
X117784297Y-96186772D02*
G01*
X117606658Y-96212178D01*
X117428866Y-96235364D01*
X117250943Y-96256122D01*
X117072914Y-96274246D01*
X116894801Y-96289530D01*
X116716628Y-96301766D01*
X117627245Y-96204488D01*
X117818812Y-96179213D01*
X117909196Y-96166826D01*
X117784297Y-96186772D01*
G37*
G36*
X72534297Y-96186772D02*
G01*
X72356658Y-96212178D01*
X72178866Y-96235364D01*
X72000943Y-96256122D01*
X71822914Y-96274246D01*
X71644801Y-96289530D01*
X71466628Y-96301766D01*
X72377245Y-96204488D01*
X72568812Y-96179213D01*
X72659196Y-96166826D01*
X72534297Y-96186772D01*
G37*
G36*
X72849022Y-96137736D02*
G01*
X72806680Y-96145069D01*
X72759741Y-96152503D01*
X72705952Y-96160419D01*
X72659196Y-96166826D01*
X72889017Y-96130125D01*
X72849022Y-96137736D01*
G37*
G36*
X69663270Y-39974034D02*
G01*
X69667130Y-39974085D01*
X69671001Y-39974181D01*
X69674885Y-39974324D01*
X69674885Y-39974328D01*
X69688557Y-39975187D01*
X69702351Y-39976621D01*
X69716269Y-39978639D01*
X69730310Y-39981252D01*
X69744476Y-39984471D01*
X69758766Y-39988307D01*
X69773182Y-39992770D01*
X69787724Y-39997872D01*
X69802392Y-40003622D01*
X69817188Y-40010032D01*
X69832112Y-40017111D01*
X69847164Y-40024872D01*
X69862345Y-40033324D01*
X69877656Y-40042479D01*
X69893097Y-40052346D01*
X69908669Y-40062937D01*
X69929527Y-40078287D01*
X69949231Y-40094272D01*
X69967814Y-40110868D01*
X69985308Y-40128052D01*
X70001745Y-40145801D01*
X70017157Y-40164091D01*
X70031578Y-40182900D01*
X70045038Y-40202204D01*
X70069209Y-40242205D01*
X70089928Y-40283908D01*
X70107454Y-40327128D01*
X70122046Y-40371680D01*
X70133962Y-40417377D01*
X70143460Y-40464034D01*
X70150798Y-40511465D01*
X70156236Y-40559485D01*
X70160032Y-40607909D01*
X70162445Y-40656550D01*
X70164152Y-40753743D01*
X70161849Y-40930845D01*
X70155586Y-41108160D01*
X70138572Y-41463128D01*
X70131519Y-41640629D01*
X70127900Y-41818043D01*
X70129563Y-41995292D01*
X70132953Y-42083832D01*
X70138357Y-42172302D01*
X70146264Y-42244442D01*
X70159073Y-42314275D01*
X70176559Y-42381875D01*
X70198493Y-42447314D01*
X70224649Y-42510664D01*
X70254798Y-42571997D01*
X70288715Y-42631385D01*
X70326172Y-42688902D01*
X70366940Y-42744619D01*
X70410795Y-42798609D01*
X70457507Y-42850944D01*
X70506850Y-42901697D01*
X70612519Y-42998744D01*
X70725985Y-43090329D01*
X70845430Y-43177032D01*
X70969036Y-43259431D01*
X71221458Y-43413633D01*
X71468709Y-43557567D01*
X71696247Y-43695862D01*
X71875697Y-43816493D01*
X71970225Y-43877802D01*
X72018683Y-43906972D01*
X72067934Y-43934492D01*
X72117975Y-43959868D01*
X72168806Y-43982604D01*
X72220423Y-44002205D01*
X72272825Y-44018175D01*
X72326010Y-44030021D01*
X72352895Y-44034242D01*
X72379975Y-44037247D01*
X72407250Y-44038972D01*
X72434719Y-44039357D01*
X72462382Y-44038339D01*
X72490239Y-44035857D01*
X72503029Y-44033924D01*
X72515407Y-44031153D01*
X72527379Y-44027574D01*
X72538954Y-44023217D01*
X72550138Y-44018110D01*
X72560941Y-44012284D01*
X72571368Y-44005767D01*
X72581428Y-43998590D01*
X72591129Y-43990781D01*
X72600477Y-43982371D01*
X72618148Y-43963863D01*
X72634500Y-43943301D01*
X72649596Y-43920921D01*
X72663494Y-43896959D01*
X72676256Y-43871651D01*
X72687942Y-43845232D01*
X72698613Y-43817938D01*
X72708330Y-43790005D01*
X72717152Y-43761669D01*
X72725140Y-43733165D01*
X72732355Y-43704729D01*
X72741294Y-43726262D01*
X72749759Y-43747584D01*
X72753788Y-43758159D01*
X72757667Y-43768673D01*
X72761386Y-43779125D01*
X72764936Y-43789510D01*
X72831054Y-43979767D01*
X72900827Y-44168483D01*
X73047345Y-44543066D01*
X73196507Y-44916807D01*
X73269584Y-45104470D01*
X73340327Y-45293253D01*
X73473417Y-45681805D01*
X73590550Y-46072674D01*
X73693240Y-46465937D01*
X73783002Y-46861673D01*
X73861348Y-47259959D01*
X73929791Y-47660875D01*
X73989846Y-48064497D01*
X74043025Y-48470905D01*
X74096587Y-48949711D01*
X74140082Y-49433633D01*
X74173550Y-49921121D01*
X74197028Y-50410626D01*
X74210557Y-50900599D01*
X74214173Y-51389491D01*
X74207916Y-51875752D01*
X74191826Y-52357834D01*
X74180089Y-52696573D01*
X74170167Y-53039511D01*
X74163986Y-53211126D01*
X74155977Y-53382076D01*
X74145379Y-53551789D01*
X74131432Y-53719694D01*
X74118041Y-53837753D01*
X74101302Y-53957901D01*
X74065001Y-54201723D01*
X74049051Y-54324030D01*
X74036976Y-54445688D01*
X74032955Y-54506060D01*
X74030580Y-54566014D01*
X74030077Y-54625464D01*
X74031670Y-54684324D01*
X74032304Y-54693742D01*
X74033311Y-54703032D01*
X74034669Y-54712203D01*
X74036356Y-54721262D01*
X74038350Y-54730218D01*
X74040629Y-54739076D01*
X74043173Y-54747846D01*
X74045958Y-54756535D01*
X74048963Y-54765151D01*
X74052167Y-54773701D01*
X74059081Y-54790636D01*
X74066526Y-54807401D01*
X74074328Y-54824058D01*
X73902940Y-54857080D01*
X73733021Y-54898891D01*
X73564734Y-54949154D01*
X73398241Y-55007530D01*
X73233705Y-55073681D01*
X73071289Y-55147269D01*
X72911154Y-55227955D01*
X72753464Y-55315401D01*
X72598380Y-55409270D01*
X72446066Y-55509222D01*
X72296684Y-55614921D01*
X72150397Y-55726027D01*
X72007366Y-55842202D01*
X71867755Y-55963108D01*
X71731726Y-56088407D01*
X71599441Y-56217761D01*
X71468903Y-56076872D01*
X71334852Y-55940572D01*
X71197175Y-55809444D01*
X71055763Y-55684067D01*
X70910504Y-55565024D01*
X70761287Y-55452897D01*
X70608002Y-55348267D01*
X70450539Y-55251715D01*
X70288785Y-55163823D01*
X70122630Y-55085173D01*
X69951964Y-55016346D01*
X69776675Y-54957924D01*
X69596652Y-54910488D01*
X69411786Y-54874620D01*
X69221964Y-54850901D01*
X69027077Y-54839913D01*
X68970448Y-54839194D01*
X68913394Y-54839580D01*
X68855912Y-54841083D01*
X68798000Y-54843716D01*
X68739654Y-54847489D01*
X68680873Y-54852415D01*
X68621654Y-54858507D01*
X68561994Y-54865776D01*
X67982734Y-54938445D01*
X67696939Y-54980050D01*
X67555373Y-55004544D01*
X67414836Y-55032403D01*
X67275435Y-55064306D01*
X67137276Y-55100931D01*
X67000466Y-55142957D01*
X66865112Y-55191061D01*
X66731319Y-55245921D01*
X66599194Y-55308217D01*
X66468843Y-55378626D01*
X66340374Y-55457827D01*
X66235158Y-55530193D01*
X66133628Y-55606247D01*
X66035541Y-55685744D01*
X65940658Y-55768441D01*
X65848736Y-55854092D01*
X65759535Y-55942453D01*
X65672814Y-56033281D01*
X65588332Y-56126331D01*
X65505847Y-56221358D01*
X65425119Y-56318118D01*
X65267968Y-56515861D01*
X65114950Y-56717606D01*
X64964137Y-56921397D01*
X64967673Y-56923653D01*
X64971126Y-56925999D01*
X64974524Y-56928406D01*
X64977893Y-56930844D01*
X64984651Y-56935702D01*
X64988094Y-56938064D01*
X64991614Y-56940342D01*
X64873883Y-56869197D01*
X64753946Y-56801188D01*
X64632151Y-56736329D01*
X64508843Y-56674632D01*
X64384370Y-56616112D01*
X64259081Y-56560781D01*
X64133321Y-56508653D01*
X64007438Y-56459742D01*
X63952959Y-56440214D01*
X63897559Y-56422212D01*
X63841319Y-56405724D01*
X63784319Y-56390735D01*
X63726643Y-56377234D01*
X63668370Y-56365208D01*
X63609582Y-56354642D01*
X63550361Y-56345525D01*
X63490788Y-56337843D01*
X63430944Y-56331584D01*
X63370911Y-56326733D01*
X63310770Y-56323279D01*
X63250603Y-56321208D01*
X63190491Y-56320508D01*
X63130514Y-56321165D01*
X63070756Y-56323166D01*
X63031079Y-56325240D01*
X62991561Y-56327904D01*
X62952227Y-56331153D01*
X62913098Y-56334982D01*
X62874198Y-56339387D01*
X62835552Y-56344364D01*
X62797182Y-56349908D01*
X62759112Y-56356015D01*
X62660550Y-56374418D01*
X62562466Y-56396287D01*
X62465022Y-56421508D01*
X62368379Y-56449972D01*
X62272700Y-56481568D01*
X62178147Y-56516184D01*
X62084881Y-56553709D01*
X61993064Y-56594032D01*
X61838608Y-56670913D01*
X61693812Y-56755333D01*
X61558292Y-56846947D01*
X61431660Y-56945404D01*
X61313530Y-57050358D01*
X61203515Y-57161460D01*
X61101230Y-57278362D01*
X61006287Y-57400717D01*
X60918300Y-57528175D01*
X60836883Y-57660390D01*
X60692212Y-57937695D01*
X60569182Y-58229849D01*
X60464701Y-58534066D01*
X60375678Y-58847562D01*
X60299021Y-59167553D01*
X60170436Y-59815884D01*
X60054214Y-60456783D01*
X59993009Y-60767484D01*
X59925620Y-61067975D01*
X59897231Y-61191929D01*
X59871182Y-61317083D01*
X59821844Y-61568815D01*
X59769087Y-61818818D01*
X59738764Y-61941811D01*
X59704392Y-62062738D01*
X59664907Y-62181055D01*
X59619243Y-62296219D01*
X59566335Y-62407684D01*
X59536832Y-62461860D01*
X59505120Y-62514907D01*
X59471063Y-62566757D01*
X59434531Y-62617342D01*
X59395389Y-62666595D01*
X59353505Y-62714447D01*
X59308744Y-62760830D01*
X59260976Y-62805676D01*
X59210065Y-62848917D01*
X59155879Y-62890485D01*
X59112723Y-62918449D01*
X59069188Y-62939963D01*
X59025353Y-62955324D01*
X58981300Y-62964829D01*
X58937109Y-62968776D01*
X58892860Y-62967462D01*
X58848634Y-62961185D01*
X58804511Y-62950242D01*
X58760572Y-62934931D01*
X58716897Y-62915548D01*
X58673567Y-62892391D01*
X58630661Y-62865758D01*
X58588261Y-62835946D01*
X58546447Y-62803252D01*
X58464898Y-62730408D01*
X58386657Y-62649607D01*
X58312370Y-62563227D01*
X58242678Y-62473647D01*
X58178225Y-62383247D01*
X58119656Y-62294405D01*
X58067613Y-62209500D01*
X58022741Y-62130912D01*
X57985682Y-62061020D01*
X57877721Y-61830184D01*
X57787128Y-61598183D01*
X57712468Y-61365023D01*
X57652307Y-61130707D01*
X57605207Y-60895243D01*
X57569735Y-60658634D01*
X57544453Y-60420887D01*
X57527927Y-60182006D01*
X57518722Y-59941997D01*
X57515401Y-59700866D01*
X57520672Y-59215254D01*
X57532257Y-58725215D01*
X57538670Y-58230789D01*
X57510321Y-58230789D01*
X57445879Y-58350028D01*
X57389470Y-58472225D01*
X57340445Y-58597089D01*
X57298155Y-58724328D01*
X57261952Y-58853651D01*
X57231187Y-58984767D01*
X57205211Y-59117383D01*
X57183376Y-59251208D01*
X57149532Y-59521319D01*
X57124465Y-59792767D01*
X57079903Y-60330346D01*
X57049379Y-60720129D01*
X57033395Y-61112728D01*
X57032709Y-61506890D01*
X57048076Y-61901363D01*
X57080252Y-62294894D01*
X57129993Y-62686230D01*
X57198055Y-63074119D01*
X57285194Y-63457308D01*
X57392166Y-63834544D01*
X57519726Y-64204575D01*
X57668632Y-64566148D01*
X57839638Y-64918010D01*
X58033501Y-65258909D01*
X58250977Y-65587592D01*
X58492821Y-65902806D01*
X58759791Y-66203299D01*
X58941779Y-66378391D01*
X59137446Y-66537922D01*
X59345281Y-66681424D01*
X59563770Y-66808432D01*
X59791403Y-66918477D01*
X60026668Y-67011092D01*
X60268053Y-67085812D01*
X60514046Y-67142168D01*
X60763135Y-67179693D01*
X61013810Y-67197922D01*
X61264557Y-67196386D01*
X61513865Y-67174618D01*
X61760223Y-67132153D01*
X62002119Y-67068522D01*
X62120921Y-67028624D01*
X62238041Y-66983259D01*
X62353289Y-66932369D01*
X62466477Y-66875896D01*
X62513755Y-67058580D01*
X62563453Y-67241800D01*
X62667949Y-67611042D01*
X62684388Y-67669849D01*
X62700318Y-67729681D01*
X62731178Y-67851796D01*
X62792566Y-68101446D01*
X62403245Y-68179713D01*
X62017993Y-68276783D01*
X61637730Y-68392275D01*
X61263379Y-68525804D01*
X60895862Y-68676986D01*
X60536100Y-68845438D01*
X60185015Y-69030777D01*
X59843530Y-69232617D01*
X59512565Y-69450577D01*
X59193042Y-69684271D01*
X58885885Y-69933317D01*
X58592013Y-70197331D01*
X58312350Y-70475928D01*
X58047816Y-70768726D01*
X57799335Y-71075340D01*
X57567827Y-71395388D01*
X57399784Y-71653708D01*
X57243170Y-71918602D01*
X57097904Y-72189590D01*
X56963906Y-72466189D01*
X56841093Y-72747922D01*
X56729384Y-73034307D01*
X56628700Y-73324863D01*
X56538958Y-73619112D01*
X56460078Y-73916571D01*
X56391978Y-74216762D01*
X56334577Y-74519204D01*
X56287795Y-74823416D01*
X56251550Y-75128918D01*
X56225761Y-75435230D01*
X56210347Y-75741872D01*
X56205227Y-76048363D01*
X56209818Y-76340501D01*
X56223511Y-76632518D01*
X56246188Y-76924148D01*
X56277732Y-77215128D01*
X56318023Y-77505190D01*
X56366943Y-77794071D01*
X56424375Y-78081504D01*
X56490200Y-78367225D01*
X56564299Y-78650969D01*
X56646555Y-78932469D01*
X56736849Y-79211462D01*
X56835063Y-79487681D01*
X56941078Y-79760862D01*
X57054777Y-80030740D01*
X57176041Y-80297048D01*
X57304752Y-80559523D01*
X57366924Y-80679810D01*
X57430813Y-80799347D01*
X57496430Y-80918044D01*
X57563786Y-81035809D01*
X57632888Y-81152552D01*
X57703749Y-81268180D01*
X57776378Y-81382604D01*
X57850785Y-81495731D01*
X57878115Y-81538370D01*
X57907330Y-81585652D01*
X57938640Y-81635155D01*
X57955146Y-81659982D01*
X57972255Y-81684457D01*
X57989991Y-81708276D01*
X58008383Y-81731136D01*
X58027455Y-81752736D01*
X58047235Y-81772773D01*
X58057398Y-81782110D01*
X58067747Y-81790943D01*
X58078287Y-81799233D01*
X58089019Y-81806944D01*
X58099948Y-81814036D01*
X58111077Y-81820473D01*
X58122409Y-81826216D01*
X58133946Y-81831228D01*
X58150084Y-81836331D01*
X58164145Y-81838072D01*
X58176224Y-81836649D01*
X58186419Y-81832255D01*
X58194825Y-81825087D01*
X58201539Y-81815340D01*
X58206657Y-81803210D01*
X58210274Y-81788892D01*
X58212488Y-81772581D01*
X58213395Y-81754474D01*
X58211670Y-81713650D01*
X58205869Y-81667984D01*
X58196763Y-81619040D01*
X58185120Y-81568382D01*
X58171711Y-81517574D01*
X58142673Y-81421764D01*
X58115806Y-81344119D01*
X58097267Y-81297152D01*
X57888767Y-80823152D01*
X57788557Y-80585111D01*
X57691993Y-80345823D01*
X57599788Y-80104873D01*
X57512658Y-79861844D01*
X57431317Y-79616323D01*
X57356479Y-79367893D01*
X57237333Y-78906617D01*
X57141202Y-78437727D01*
X57068966Y-77963167D01*
X57021504Y-77484877D01*
X56999696Y-77004801D01*
X57004421Y-76524880D01*
X57036558Y-76047056D01*
X57096986Y-75573270D01*
X57186586Y-75105466D01*
X57306236Y-74645584D01*
X57456815Y-74195567D01*
X57639203Y-73757357D01*
X57854280Y-73332896D01*
X58102924Y-72924125D01*
X58240109Y-72726230D01*
X58386016Y-72532987D01*
X58540754Y-72344637D01*
X58704433Y-72161423D01*
X58798078Y-72063068D01*
X58893507Y-71967116D01*
X58990697Y-71873525D01*
X59089627Y-71782253D01*
X59190273Y-71693257D01*
X59292613Y-71606494D01*
X59396624Y-71521922D01*
X59502284Y-71439499D01*
X59609570Y-71359182D01*
X59718459Y-71280929D01*
X59828930Y-71204697D01*
X59940958Y-71130444D01*
X60169601Y-70987704D01*
X60404205Y-70852370D01*
X60504441Y-70798319D01*
X60605834Y-70746633D01*
X60708312Y-70697221D01*
X60811804Y-70649996D01*
X61021540Y-70561748D01*
X61234465Y-70481179D01*
X61450004Y-70407578D01*
X61667578Y-70340236D01*
X61886613Y-70278441D01*
X62106531Y-70221484D01*
X62218915Y-70194977D01*
X62330795Y-70171408D01*
X62442259Y-70150618D01*
X62553396Y-70132450D01*
X62775047Y-70103354D01*
X62996460Y-70082862D01*
X63218347Y-70069718D01*
X63441420Y-70062665D01*
X63666390Y-70060445D01*
X63893971Y-70061801D01*
X63959755Y-70063453D01*
X64028645Y-70066999D01*
X64100047Y-70072606D01*
X64173364Y-70080440D01*
X64248001Y-70090668D01*
X64323363Y-70103455D01*
X64398853Y-70118969D01*
X64473876Y-70137375D01*
X64547836Y-70158839D01*
X64620138Y-70183530D01*
X64690186Y-70211611D01*
X64757385Y-70243251D01*
X64821138Y-70278615D01*
X64880851Y-70317869D01*
X64909005Y-70339008D01*
X64935926Y-70361181D01*
X64961540Y-70384410D01*
X64985770Y-70408716D01*
X65003575Y-70428229D01*
X65020092Y-70447744D01*
X65035372Y-70467270D01*
X65049467Y-70486817D01*
X65062430Y-70506396D01*
X65074314Y-70526015D01*
X65095050Y-70565418D01*
X65112095Y-70605105D01*
X65125867Y-70645156D01*
X65136783Y-70685652D01*
X65145262Y-70726671D01*
X65151722Y-70768294D01*
X65156582Y-70810601D01*
X65163172Y-70897584D01*
X65168380Y-70988260D01*
X65175551Y-71083266D01*
X65192426Y-71278792D01*
X65206873Y-71474245D01*
X65234720Y-71864808D01*
X65251242Y-72059856D01*
X65271577Y-72254708D01*
X65297285Y-72449334D01*
X65329928Y-72643702D01*
X65386413Y-72923988D01*
X65450144Y-73205331D01*
X65520750Y-73487348D01*
X65597857Y-73769658D01*
X65770081Y-74333632D01*
X65963831Y-74894201D01*
X66176123Y-75448314D01*
X66403973Y-75992919D01*
X66644393Y-76524964D01*
X66894401Y-77041398D01*
X66960600Y-77169205D01*
X67028842Y-77292019D01*
X67099242Y-77410217D01*
X67171916Y-77524180D01*
X67246978Y-77634287D01*
X67324545Y-77740916D01*
X67404730Y-77844447D01*
X67487650Y-77945260D01*
X67573418Y-78043733D01*
X67662151Y-78140245D01*
X67753964Y-78235177D01*
X67848971Y-78328906D01*
X67947288Y-78421813D01*
X68049029Y-78514277D01*
X68154311Y-78606676D01*
X68263248Y-78699390D01*
X68385654Y-78801795D01*
X68510276Y-78902491D01*
X68573781Y-78951144D01*
X68638277Y-78998102D01*
X68703910Y-79042944D01*
X68770824Y-79085248D01*
X68839166Y-79124591D01*
X68909080Y-79160552D01*
X68980714Y-79192707D01*
X69054212Y-79220635D01*
X69129720Y-79243914D01*
X69207383Y-79262120D01*
X69287348Y-79274833D01*
X69328238Y-79278997D01*
X69369759Y-79281629D01*
X69404957Y-79282994D01*
X69441070Y-79284133D01*
X69514329Y-79286334D01*
X69495686Y-79285897D01*
X69476987Y-79285669D01*
X69458385Y-79285403D01*
X69449167Y-79285178D01*
X69440030Y-79284850D01*
X69557175Y-79388593D01*
X69676058Y-79490470D01*
X69796268Y-79590514D01*
X69917395Y-79688755D01*
X70039027Y-79785227D01*
X70160753Y-79879959D01*
X70402844Y-80064334D01*
X70610381Y-80215391D01*
X70824308Y-80360366D01*
X71044241Y-80498420D01*
X71269795Y-80628712D01*
X71500586Y-80750401D01*
X71736229Y-80862646D01*
X71976340Y-80964607D01*
X72220534Y-81055444D01*
X72468427Y-81134314D01*
X72719633Y-81200378D01*
X72973769Y-81252795D01*
X73230449Y-81290725D01*
X73489290Y-81313326D01*
X73749907Y-81319758D01*
X74011914Y-81309180D01*
X74274928Y-81280752D01*
X74339385Y-81270872D01*
X74402855Y-81259804D01*
X74465348Y-81247565D01*
X74526878Y-81234169D01*
X74587458Y-81219632D01*
X74647099Y-81203970D01*
X74705814Y-81187198D01*
X74763615Y-81169333D01*
X74820515Y-81150390D01*
X74876526Y-81130385D01*
X74931660Y-81109334D01*
X74985930Y-81087251D01*
X75039347Y-81064153D01*
X75091926Y-81040056D01*
X75143676Y-81014975D01*
X75194613Y-80988926D01*
X75195310Y-80998164D01*
X75196499Y-81007261D01*
X75198199Y-81016188D01*
X75200427Y-81024921D01*
X75203204Y-81033430D01*
X75204803Y-81037593D01*
X75206547Y-81041690D01*
X75208437Y-81045718D01*
X75210476Y-81049673D01*
X75212666Y-81053553D01*
X75215009Y-81057353D01*
X75217508Y-81061070D01*
X75220166Y-81064702D01*
X75222984Y-81068243D01*
X75225965Y-81071693D01*
X75229111Y-81075045D01*
X75232424Y-81078299D01*
X75235908Y-81081449D01*
X75239564Y-81084493D01*
X75243394Y-81087427D01*
X75247402Y-81090249D01*
X75251588Y-81092953D01*
X75255957Y-81095538D01*
X75260509Y-81098000D01*
X75265248Y-81100335D01*
X75270176Y-81102540D01*
X75275295Y-81104612D01*
X75297002Y-81111176D01*
X75319811Y-81114737D01*
X75343638Y-81115453D01*
X75368397Y-81113485D01*
X75394004Y-81108990D01*
X75420372Y-81102127D01*
X75447416Y-81093055D01*
X75475051Y-81081932D01*
X75503192Y-81068918D01*
X75531754Y-81054171D01*
X75589798Y-81020111D01*
X75648501Y-80981024D01*
X75707179Y-80938178D01*
X75765152Y-80892843D01*
X75821736Y-80846288D01*
X75928010Y-80754601D01*
X76020543Y-80673270D01*
X76059950Y-80639663D01*
X76093875Y-80612455D01*
X76242839Y-80490176D01*
X76384761Y-80356819D01*
X76520221Y-80213597D01*
X76649797Y-80061722D01*
X76774071Y-79902408D01*
X76893623Y-79736869D01*
X77009031Y-79566317D01*
X77120876Y-79391966D01*
X77336198Y-79036718D01*
X77544226Y-78680831D01*
X77749601Y-78334011D01*
X77852743Y-78167035D01*
X77956962Y-78005964D01*
X78098512Y-77781533D01*
X78228196Y-77552334D01*
X78346614Y-77318707D01*
X78454368Y-77080993D01*
X78552059Y-76839535D01*
X78640289Y-76594672D01*
X78719657Y-76346747D01*
X78790768Y-76096101D01*
X78854220Y-75843075D01*
X78910616Y-75588010D01*
X78960557Y-75331247D01*
X79004644Y-75073129D01*
X79077662Y-74554188D01*
X79134482Y-74033918D01*
X79171223Y-73580544D01*
X79193636Y-73125512D01*
X79201308Y-72669569D01*
X79193827Y-72213460D01*
X79170783Y-71757930D01*
X79131764Y-71303725D01*
X79076358Y-70851591D01*
X79004154Y-70402273D01*
X78956558Y-70166039D01*
X78900831Y-69933065D01*
X78838721Y-69702537D01*
X78771974Y-69473643D01*
X78631549Y-69017500D01*
X78561363Y-68788624D01*
X78493523Y-68558128D01*
X78465298Y-68467329D01*
X78431713Y-68368625D01*
X78395771Y-68264538D01*
X78360478Y-68157590D01*
X78344014Y-68103832D01*
X78328838Y-68050305D01*
X78315326Y-67997323D01*
X78303854Y-67945203D01*
X78294796Y-67894260D01*
X78288530Y-67844809D01*
X78285430Y-67797164D01*
X78285871Y-67751643D01*
X78287209Y-67734826D01*
X78289434Y-67717750D01*
X78296371Y-67682909D01*
X78306330Y-67647299D01*
X78318958Y-67611100D01*
X78333902Y-67574492D01*
X78350810Y-67537655D01*
X78369329Y-67500768D01*
X78389106Y-67464013D01*
X78431024Y-67391614D01*
X78473742Y-67321897D01*
X78514438Y-67256303D01*
X78550291Y-67196270D01*
X78615851Y-67086140D01*
X78684092Y-66980383D01*
X78755172Y-66879051D01*
X78829249Y-66782198D01*
X78906480Y-66689875D01*
X78987022Y-66602136D01*
X79071034Y-66519031D01*
X79158672Y-66440615D01*
X79250094Y-66366938D01*
X79345457Y-66298054D01*
X79444919Y-66234014D01*
X79548638Y-66174871D01*
X79656770Y-66120678D01*
X79769474Y-66071487D01*
X79886906Y-66027350D01*
X80009224Y-65988319D01*
X80114471Y-65959967D01*
X80223288Y-65935393D01*
X80335097Y-65914823D01*
X80449316Y-65898484D01*
X80565365Y-65886602D01*
X80682663Y-65879401D01*
X80800630Y-65877109D01*
X80918686Y-65879951D01*
X81036250Y-65888152D01*
X81152742Y-65901939D01*
X81267581Y-65921538D01*
X81380186Y-65947175D01*
X81489978Y-65979075D01*
X81596375Y-66017464D01*
X81698797Y-66062568D01*
X81796665Y-66114614D01*
X81837107Y-66139412D01*
X81876546Y-66165951D01*
X81915056Y-66194067D01*
X81952708Y-66223597D01*
X81989575Y-66254377D01*
X82025729Y-66286245D01*
X82061243Y-66319037D01*
X82096189Y-66352590D01*
X82164667Y-66421324D01*
X82231741Y-66491143D01*
X82297990Y-66560738D01*
X82363995Y-66628806D01*
X82439245Y-66704801D01*
X82522146Y-66791099D01*
X82564569Y-66837543D01*
X82606627Y-66885880D01*
X82647562Y-66935882D01*
X82686616Y-66987321D01*
X82723029Y-67039971D01*
X82756042Y-67093603D01*
X82784896Y-67147989D01*
X82797527Y-67175394D01*
X82808833Y-67202902D01*
X82818720Y-67230485D01*
X82827094Y-67258115D01*
X82833858Y-67285762D01*
X82838919Y-67313399D01*
X82842181Y-67340996D01*
X82843550Y-67368527D01*
X82842930Y-67395961D01*
X82840228Y-67423271D01*
X82835893Y-67450188D01*
X82830402Y-67477042D01*
X82816192Y-67530555D01*
X82798086Y-67583799D01*
X82776571Y-67636761D01*
X82752134Y-67689430D01*
X82725262Y-67741793D01*
X82696444Y-67793839D01*
X82666167Y-67845556D01*
X82540210Y-68048895D01*
X82481148Y-68148279D01*
X82454302Y-68197359D01*
X82429895Y-68246014D01*
X82281522Y-68550154D01*
X82128734Y-68852016D01*
X81820250Y-69453957D01*
X81669722Y-69756559D01*
X81525115Y-70061932D01*
X81389012Y-70371338D01*
X81324957Y-70527947D01*
X81263997Y-70686037D01*
X81146706Y-71019619D01*
X81040995Y-71359285D01*
X80946237Y-71704335D01*
X80861806Y-72054069D01*
X80787074Y-72407788D01*
X80721414Y-72764791D01*
X80664200Y-73124378D01*
X80614805Y-73485851D01*
X80536961Y-74211649D01*
X80482868Y-74936587D01*
X80447509Y-75655066D01*
X80425869Y-76361485D01*
X80424993Y-76505507D01*
X80429065Y-76646369D01*
X80437841Y-76784430D01*
X80451079Y-76920051D01*
X80468533Y-77053592D01*
X80489960Y-77185413D01*
X80515116Y-77315875D01*
X80543758Y-77445338D01*
X80575642Y-77574162D01*
X80610523Y-77702708D01*
X80688305Y-77960406D01*
X80775153Y-78221314D01*
X80869118Y-78488315D01*
X80878808Y-78515185D01*
X80888672Y-78542058D01*
X80898719Y-78568930D01*
X80908953Y-78595796D01*
X80824433Y-78795580D01*
X80735584Y-78994972D01*
X80546094Y-79392016D01*
X80342876Y-79785792D01*
X80128326Y-80175167D01*
X79904837Y-80559006D01*
X79674804Y-80936174D01*
X79440621Y-81305537D01*
X79204683Y-81665959D01*
X79092274Y-81825676D01*
X78972699Y-81978359D01*
X78846821Y-82124851D01*
X78715506Y-82265999D01*
X78579618Y-82402648D01*
X78440020Y-82535643D01*
X78153153Y-82794055D01*
X77861819Y-83047996D01*
X77572932Y-83304231D01*
X77431566Y-83435322D01*
X77293405Y-83569522D01*
X77159312Y-83707677D01*
X77030152Y-83850632D01*
X77089075Y-83861976D01*
X77148051Y-83875666D01*
X77266017Y-83909692D01*
X77383758Y-83951934D01*
X77500981Y-84001615D01*
X77617394Y-84057961D01*
X77732705Y-84120196D01*
X77846620Y-84187542D01*
X77958849Y-84259225D01*
X78069097Y-84334468D01*
X78177073Y-84412495D01*
X78282484Y-84492531D01*
X78385037Y-84573799D01*
X78580403Y-84736929D01*
X78760829Y-84895678D01*
X78951504Y-85075997D01*
X79130184Y-85263683D01*
X79296971Y-85458319D01*
X79451964Y-85659486D01*
X79595264Y-85866768D01*
X79726971Y-86079746D01*
X79847186Y-86298004D01*
X79956008Y-86521123D01*
X80053540Y-86748686D01*
X80139880Y-86980275D01*
X80215129Y-87215473D01*
X80279388Y-87453862D01*
X80332757Y-87695025D01*
X80375336Y-87938544D01*
X80428527Y-88430980D01*
X80439765Y-88927829D01*
X80409852Y-89425750D01*
X80339592Y-89921403D01*
X80229787Y-90411447D01*
X80081242Y-90892542D01*
X79894759Y-91361347D01*
X79671141Y-91814521D01*
X79411192Y-92248724D01*
X79127673Y-92651583D01*
X78821483Y-93031752D01*
X78493941Y-93389513D01*
X78146368Y-93725147D01*
X77780083Y-94038935D01*
X77396407Y-94331158D01*
X76996659Y-94602097D01*
X76582161Y-94852035D01*
X76154230Y-95081251D01*
X75714188Y-95290028D01*
X75263355Y-95478646D01*
X74803050Y-95647387D01*
X74334594Y-95796533D01*
X73859307Y-95926363D01*
X73378508Y-96037160D01*
X72893518Y-96129205D01*
X72975347Y-96111561D01*
X73074800Y-96088232D01*
X73398573Y-96012249D01*
X73528557Y-95987280D01*
X73572901Y-95977939D01*
X73619164Y-95967096D01*
X73665935Y-95954618D01*
X73711803Y-95940373D01*
X73755359Y-95924231D01*
X73795192Y-95906058D01*
X73813271Y-95896170D01*
X73829891Y-95885724D01*
X73844875Y-95874706D01*
X73858047Y-95863097D01*
X73869230Y-95850883D01*
X73878248Y-95838045D01*
X73884925Y-95824568D01*
X73889085Y-95810436D01*
X73890551Y-95795632D01*
X73889147Y-95780138D01*
X73884697Y-95763940D01*
X73877024Y-95747021D01*
X73867586Y-95732560D01*
X73855898Y-95719715D01*
X73842098Y-95708408D01*
X73826323Y-95698566D01*
X73808712Y-95690111D01*
X73789403Y-95682969D01*
X73768533Y-95677063D01*
X73746240Y-95672319D01*
X73697939Y-95666010D01*
X73645604Y-95663438D01*
X73590339Y-95663997D01*
X73533247Y-95667082D01*
X73475433Y-95672088D01*
X73418000Y-95678409D01*
X73308693Y-95692579D01*
X73214157Y-95704748D01*
X73175189Y-95708570D01*
X73143225Y-95710077D01*
X72999923Y-95709226D01*
X72859644Y-95705292D01*
X72722033Y-95698301D01*
X72586737Y-95688279D01*
X72453404Y-95675254D01*
X72321681Y-95659251D01*
X72191214Y-95640297D01*
X72061651Y-95618418D01*
X71932639Y-95593641D01*
X71803824Y-95565992D01*
X71545375Y-95502183D01*
X71283481Y-95427203D01*
X71015318Y-95341262D01*
X70898963Y-95304644D01*
X71113599Y-95244777D01*
X71380016Y-95165493D01*
X71523496Y-95117628D01*
X71668945Y-95063776D01*
X71812704Y-95003561D01*
X71951116Y-94936605D01*
X72017172Y-94900482D01*
X72080520Y-94862532D01*
X72140701Y-94822708D01*
X72197259Y-94780963D01*
X72249735Y-94737251D01*
X72297673Y-94691522D01*
X72340615Y-94643732D01*
X72378104Y-94593831D01*
X72409683Y-94541774D01*
X72434894Y-94487513D01*
X72453280Y-94431001D01*
X72464383Y-94372191D01*
X72467746Y-94311035D01*
X72462912Y-94247486D01*
X72449424Y-94181498D01*
X72426824Y-94113023D01*
X72411918Y-94076237D01*
X72396585Y-94041129D01*
X72380697Y-94007679D01*
X72364126Y-93975871D01*
X72346741Y-93945684D01*
X72328415Y-93917102D01*
X72309020Y-93890105D01*
X72288425Y-93864676D01*
X72266503Y-93840795D01*
X72243125Y-93818445D01*
X72218161Y-93797606D01*
X72191484Y-93778262D01*
X72162964Y-93760393D01*
X72132473Y-93743980D01*
X72099883Y-93729007D01*
X72065063Y-93715453D01*
X71976361Y-93685444D01*
X71884775Y-93657619D01*
X71790669Y-93631926D01*
X71694411Y-93608314D01*
X71596366Y-93586732D01*
X71496901Y-93567129D01*
X71295171Y-93533655D01*
X71092151Y-93507485D01*
X70890767Y-93488208D01*
X70693948Y-93475418D01*
X70504621Y-93468704D01*
X70684372Y-93296298D01*
X70858063Y-93133130D01*
X70940941Y-93052714D01*
X71020271Y-92971851D01*
X71095374Y-92889624D01*
X71165573Y-92805114D01*
X71230189Y-92717402D01*
X71288545Y-92625569D01*
X71315163Y-92577821D01*
X71339962Y-92528698D01*
X71362857Y-92478086D01*
X71383763Y-92425869D01*
X71402596Y-92371934D01*
X71419271Y-92316165D01*
X71433702Y-92258447D01*
X71445806Y-92198666D01*
X71455497Y-92136706D01*
X71462691Y-92072453D01*
X71467303Y-92005793D01*
X71469248Y-91936610D01*
X71403203Y-91939124D01*
X71337341Y-91943733D01*
X71271636Y-91950134D01*
X71206061Y-91958023D01*
X71075194Y-91977051D01*
X70944525Y-91998392D01*
X70813836Y-92019619D01*
X70682914Y-92038304D01*
X70617298Y-92045935D01*
X70551542Y-92052020D01*
X70485620Y-92056257D01*
X70419505Y-92058342D01*
X70374175Y-92059048D01*
X70336857Y-92059769D01*
X70285280Y-92061095D01*
X70463933Y-92049042D01*
X70608184Y-92035788D01*
X70782026Y-92016291D01*
X70980187Y-91989479D01*
X71197400Y-91954282D01*
X71428393Y-91909631D01*
X71667898Y-91854455D01*
X71750943Y-91832151D01*
X71833400Y-91807276D01*
X71915303Y-91780065D01*
X71996684Y-91750755D01*
X72077577Y-91719582D01*
X72158014Y-91686782D01*
X72317653Y-91617242D01*
X72944575Y-91321181D01*
X73088977Y-91254683D01*
X73232687Y-91186698D01*
X73374587Y-91115613D01*
X73444510Y-91078405D01*
X73513561Y-91039818D01*
X73581600Y-90999651D01*
X73648489Y-90957702D01*
X73714088Y-90913770D01*
X73778256Y-90867654D01*
X73840854Y-90819152D01*
X73901742Y-90768064D01*
X73960781Y-90714186D01*
X74017830Y-90657319D01*
X74120876Y-90539405D01*
X74216484Y-90409170D01*
X74304341Y-90268069D01*
X74384129Y-90117554D01*
X74455534Y-89959080D01*
X74518239Y-89794101D01*
X74571928Y-89624071D01*
X74616286Y-89450443D01*
X74650997Y-89274672D01*
X74675745Y-89098211D01*
X74690213Y-88922515D01*
X74694087Y-88749037D01*
X74687051Y-88579231D01*
X74668788Y-88414552D01*
X74638983Y-88256452D01*
X74597320Y-88106386D01*
X74568253Y-88024537D01*
X74535545Y-87944967D01*
X74499339Y-87867632D01*
X74459780Y-87792486D01*
X74417012Y-87719483D01*
X74371178Y-87648579D01*
X74270893Y-87512881D01*
X74160077Y-87385028D01*
X74039882Y-87264655D01*
X73911463Y-87151399D01*
X73775970Y-87044894D01*
X73634558Y-86944776D01*
X73488379Y-86850680D01*
X73338586Y-86762243D01*
X73186332Y-86679099D01*
X73032769Y-86600884D01*
X72879051Y-86527234D01*
X72575758Y-86392170D01*
X72427570Y-86330737D01*
X72277152Y-86272262D01*
X71970437Y-86164131D01*
X71657234Y-86067664D01*
X71339167Y-85982753D01*
X71017856Y-85909287D01*
X70694925Y-85847155D01*
X70371995Y-85796247D01*
X70050688Y-85756452D01*
X69965729Y-85748867D01*
X69880131Y-85744021D01*
X69793977Y-85741585D01*
X69707348Y-85741230D01*
X69532992Y-85745447D01*
X69357716Y-85754039D01*
X69007018Y-85773815D01*
X68832902Y-85779733D01*
X68660478Y-85779494D01*
X68362411Y-85769734D01*
X68063895Y-85755175D01*
X67765177Y-85736008D01*
X67466505Y-85712418D01*
X67168126Y-85684596D01*
X66870288Y-85652730D01*
X66573237Y-85617006D01*
X66277223Y-85577615D01*
X65362201Y-85428683D01*
X64438767Y-85234922D01*
X63512798Y-84995962D01*
X62590173Y-84711436D01*
X61676769Y-84380975D01*
X60778464Y-84004211D01*
X59901138Y-83580775D01*
X59050668Y-83110298D01*
X58232932Y-82592412D01*
X57838176Y-82315575D01*
X57453809Y-82026748D01*
X57080563Y-81725885D01*
X56719176Y-81412939D01*
X56370380Y-81087864D01*
X56034912Y-80750614D01*
X55713505Y-80401144D01*
X55406895Y-80039406D01*
X55115817Y-79665356D01*
X54841004Y-79278947D01*
X54583192Y-78880133D01*
X54343116Y-78468868D01*
X54121510Y-78045105D01*
X53919110Y-77608799D01*
X53621425Y-76893386D01*
X53347959Y-76166744D01*
X53102083Y-75429787D01*
X52990544Y-75057727D01*
X52887166Y-74683431D01*
X52792370Y-74307014D01*
X52706577Y-73928591D01*
X52630210Y-73548276D01*
X52563688Y-73166182D01*
X52507433Y-72782425D01*
X52461867Y-72397119D01*
X52427410Y-72010378D01*
X52404484Y-71622317D01*
X52398067Y-71406309D01*
X52397486Y-71190205D01*
X52402381Y-70974067D01*
X52412393Y-70757955D01*
X52446325Y-70326063D01*
X52496399Y-69895023D01*
X52559736Y-69465333D01*
X52633454Y-69037487D01*
X52714671Y-68611982D01*
X52800506Y-68189314D01*
X52926362Y-67604163D01*
X53063582Y-67017308D01*
X53214084Y-66431119D01*
X53379787Y-65847966D01*
X53562609Y-65270219D01*
X53764467Y-64700247D01*
X53873136Y-64418917D01*
X53987282Y-64140419D01*
X54107148Y-63865051D01*
X54232971Y-63593107D01*
X54286472Y-63484222D01*
X54342270Y-63376555D01*
X54459702Y-63164315D01*
X54583142Y-62955276D01*
X54710467Y-62748323D01*
X54968276Y-62336229D01*
X55094514Y-62128862D01*
X55216141Y-61919133D01*
X55373069Y-61633794D01*
X55526037Y-61346218D01*
X55826057Y-60767731D01*
X56128128Y-60190427D01*
X56283661Y-59904330D01*
X56444180Y-59621061D01*
X56558990Y-59429058D01*
X56677287Y-59239625D01*
X56917256Y-58863610D01*
X57035387Y-58674598D01*
X57149920Y-58483297D01*
X57259085Y-58288492D01*
X57311101Y-58189396D01*
X57361111Y-58088969D01*
X57476785Y-57837974D01*
X57581484Y-57585847D01*
X57675208Y-57332553D01*
X57757956Y-57078058D01*
X57829728Y-56822330D01*
X57890524Y-56565335D01*
X57940344Y-56307038D01*
X57979189Y-56047407D01*
X58007057Y-55786407D01*
X58023948Y-55524006D01*
X58029863Y-55260169D01*
X58024802Y-54994862D01*
X58008763Y-54728053D01*
X57981747Y-54459708D01*
X57943755Y-54189792D01*
X57894785Y-53918273D01*
X57842950Y-53678778D01*
X57784039Y-53440607D01*
X57718846Y-53203631D01*
X57648160Y-52967722D01*
X57493484Y-52498589D01*
X57326346Y-52032182D01*
X56980028Y-51103425D01*
X56813520Y-50639020D01*
X56659894Y-50173225D01*
X56602236Y-49980140D01*
X56548487Y-49784333D01*
X56526108Y-49694956D01*
X58785600Y-49694956D01*
X58786763Y-49872832D01*
X58795138Y-50051147D01*
X58810710Y-50229924D01*
X58831184Y-50391918D01*
X58843769Y-50472480D01*
X58857954Y-50552709D01*
X58873768Y-50632577D01*
X58891236Y-50712050D01*
X58910386Y-50791099D01*
X58931244Y-50869692D01*
X58953838Y-50947799D01*
X58978195Y-51025388D01*
X59004342Y-51102429D01*
X59032305Y-51178889D01*
X59062112Y-51254740D01*
X59093789Y-51329948D01*
X59127364Y-51404484D01*
X59162864Y-51478317D01*
X59284328Y-51707189D01*
X59415943Y-51925539D01*
X59557286Y-52133519D01*
X59707935Y-52331281D01*
X59867471Y-52518976D01*
X60035470Y-52696756D01*
X60211512Y-52864772D01*
X60395175Y-53023177D01*
X60586037Y-53172123D01*
X60783678Y-53311759D01*
X61197607Y-53563715D01*
X61633590Y-53780258D01*
X62088256Y-53962601D01*
X62558233Y-54111959D01*
X63040148Y-54229544D01*
X63530630Y-54316570D01*
X64026307Y-54374251D01*
X64523807Y-54403801D01*
X65019758Y-54406431D01*
X65510788Y-54383357D01*
X65993526Y-54335792D01*
X66476513Y-54260829D01*
X66961770Y-54155923D01*
X67446080Y-54021592D01*
X67926225Y-53858351D01*
X68398990Y-53666719D01*
X68861156Y-53447212D01*
X69309508Y-53200347D01*
X69740828Y-52926641D01*
X69949096Y-52779884D01*
X70151900Y-52626611D01*
X70348838Y-52466886D01*
X70539507Y-52300774D01*
X70723505Y-52128339D01*
X70900431Y-51949647D01*
X71069882Y-51764762D01*
X71231457Y-51573748D01*
X71384752Y-51376670D01*
X71529367Y-51173592D01*
X71664898Y-50964580D01*
X71790944Y-50749698D01*
X71907102Y-50529010D01*
X72012971Y-50302582D01*
X72108149Y-50070477D01*
X72192233Y-49832761D01*
X72239970Y-49677355D01*
X72282238Y-49520352D01*
X72318760Y-49361953D01*
X72349261Y-49202357D01*
X72373464Y-49041765D01*
X72391093Y-48880378D01*
X72397356Y-48799448D01*
X72401873Y-48718395D01*
X72404608Y-48637243D01*
X72405528Y-48556017D01*
X72403622Y-48396832D01*
X72397545Y-48238833D01*
X72386755Y-48081876D01*
X72370714Y-47925814D01*
X72348880Y-47770503D01*
X72335622Y-47693084D01*
X72320714Y-47615798D01*
X72304087Y-47538627D01*
X72285675Y-47461554D01*
X72265409Y-47384559D01*
X72243222Y-47307624D01*
X72178012Y-47109280D01*
X72103947Y-46917081D01*
X72021337Y-46730992D01*
X71930491Y-46550981D01*
X71831719Y-46377014D01*
X71725328Y-46209056D01*
X71611630Y-46047075D01*
X71490933Y-45891037D01*
X71363546Y-45740908D01*
X71229778Y-45596655D01*
X70944339Y-45325640D01*
X70637090Y-45077725D01*
X70310505Y-44852639D01*
X69967057Y-44650115D01*
X69609222Y-44469883D01*
X69239473Y-44311675D01*
X68860285Y-44175221D01*
X68474131Y-44060253D01*
X68083485Y-43966501D01*
X67690823Y-43893697D01*
X67298618Y-43841572D01*
X67052129Y-43815789D01*
X66927022Y-43803932D01*
X66801106Y-43793506D01*
X66674710Y-43785066D01*
X66548159Y-43779167D01*
X66421780Y-43776365D01*
X66295899Y-43777214D01*
X66295901Y-43777212D01*
X66254106Y-43778405D01*
X66212414Y-43780089D01*
X66170836Y-43782285D01*
X66129386Y-43785011D01*
X66088076Y-43788286D01*
X66046918Y-43792130D01*
X66005925Y-43796561D01*
X65965108Y-43801598D01*
X65754641Y-43827412D01*
X65544529Y-43850769D01*
X65125362Y-43897439D01*
X64916303Y-43924415D01*
X64707591Y-43956262D01*
X64499225Y-43994813D01*
X64395170Y-44017174D01*
X64291202Y-44041898D01*
X63941649Y-44136283D01*
X63595161Y-44244084D01*
X63252651Y-44365361D01*
X62915033Y-44500169D01*
X62583220Y-44648565D01*
X62258124Y-44810608D01*
X61940659Y-44986354D01*
X61631739Y-45175861D01*
X61332276Y-45379185D01*
X61043184Y-45596384D01*
X60765377Y-45827515D01*
X60499766Y-46072636D01*
X60247266Y-46331803D01*
X60008790Y-46605073D01*
X59785251Y-46892505D01*
X59577562Y-47194155D01*
X59461735Y-47381638D01*
X59406584Y-47477301D01*
X59353360Y-47574175D01*
X59302129Y-47672204D01*
X59252954Y-47771335D01*
X59205899Y-47871514D01*
X59161031Y-47972686D01*
X59118412Y-48074798D01*
X59078108Y-48177796D01*
X59040184Y-48281626D01*
X59004702Y-48386234D01*
X58971729Y-48491565D01*
X58941328Y-48597567D01*
X58913565Y-48704184D01*
X58888503Y-48811363D01*
X58853376Y-48987387D01*
X58825537Y-49163735D01*
X58804972Y-49340431D01*
X58791664Y-49517497D01*
X58785600Y-49694956D01*
X56526108Y-49694956D01*
X56498921Y-49586377D01*
X56453810Y-49386844D01*
X56413429Y-49186304D01*
X56378050Y-48985330D01*
X56347946Y-48784493D01*
X56323392Y-48584365D01*
X56315462Y-48493067D01*
X56310492Y-48399399D01*
X56305159Y-48207632D01*
X56302654Y-48110871D01*
X56298831Y-48014417D01*
X56292620Y-47918938D01*
X56288284Y-47871774D01*
X56282950Y-47825105D01*
X56290171Y-47827455D01*
X56297440Y-47829581D01*
X56304754Y-47831480D01*
X56312114Y-47833147D01*
X56319520Y-47834575D01*
X56326969Y-47835760D01*
X56334463Y-47836698D01*
X56342001Y-47837383D01*
X56349581Y-47837810D01*
X56357204Y-47837975D01*
X56364870Y-47837872D01*
X56372576Y-47837496D01*
X56380324Y-47836842D01*
X56388111Y-47835905D01*
X56395939Y-47834681D01*
X56403806Y-47833165D01*
X56428088Y-47827000D01*
X56452223Y-47818850D01*
X56476199Y-47808819D01*
X56500002Y-47797011D01*
X56523620Y-47783528D01*
X56547040Y-47768476D01*
X56570249Y-47751957D01*
X56593235Y-47734075D01*
X56638483Y-47694639D01*
X56682682Y-47650997D01*
X56725729Y-47603979D01*
X56767521Y-47554414D01*
X56807957Y-47503133D01*
X56846931Y-47450965D01*
X56920089Y-47347288D01*
X57044361Y-47165805D01*
X57225820Y-46909431D01*
X57414350Y-46626556D01*
X57506012Y-46477151D01*
X57593138Y-46323484D01*
X57673624Y-46166343D01*
X57745370Y-46006517D01*
X57806275Y-45844794D01*
X57854235Y-45681960D01*
X57872705Y-45600374D01*
X57887151Y-45518805D01*
X57897310Y-45437353D01*
X57902920Y-45356116D01*
X57903718Y-45275193D01*
X57899441Y-45194682D01*
X57889827Y-45114681D01*
X57874612Y-45035289D01*
X57853535Y-44956605D01*
X57826332Y-44878727D01*
X57792741Y-44801753D01*
X57752499Y-44725783D01*
X57650754Y-44555759D01*
X57547231Y-44390363D01*
X57443949Y-44227250D01*
X57342928Y-44064077D01*
X57246188Y-43898501D01*
X57200053Y-43814079D01*
X57155746Y-43728178D01*
X57113518Y-43640505D01*
X57073623Y-43550767D01*
X57036311Y-43458670D01*
X57001837Y-43363923D01*
X56958886Y-43241888D01*
X56936233Y-43170722D01*
X56925976Y-43133914D01*
X56916952Y-43096790D01*
X56909551Y-43059724D01*
X56904163Y-43023092D01*
X56901178Y-42987269D01*
X56900985Y-42952629D01*
X56902057Y-42935871D01*
X56903974Y-42919548D01*
X56906784Y-42903710D01*
X56910535Y-42888401D01*
X56915278Y-42873670D01*
X56921059Y-42859562D01*
X56927928Y-42846126D01*
X56935934Y-42833407D01*
X56954081Y-42808874D01*
X56972830Y-42786485D01*
X56992149Y-42766179D01*
X57012005Y-42747893D01*
X57032365Y-42731566D01*
X57053195Y-42717136D01*
X57074464Y-42704542D01*
X57096138Y-42693722D01*
X57118184Y-42684613D01*
X57140569Y-42677155D01*
X57163260Y-42671285D01*
X57186225Y-42666942D01*
X57209429Y-42664064D01*
X57232841Y-42662589D01*
X57256428Y-42662455D01*
X57280155Y-42663602D01*
X57303991Y-42665966D01*
X57327903Y-42669486D01*
X57375821Y-42679749D01*
X57423645Y-42693895D01*
X57471112Y-42711431D01*
X57517958Y-42731863D01*
X57563919Y-42754697D01*
X57608732Y-42779439D01*
X57652133Y-42805595D01*
X57742708Y-42864907D01*
X57829844Y-42926791D01*
X57913970Y-42990931D01*
X57995515Y-43057008D01*
X58074908Y-43124706D01*
X58152578Y-43193708D01*
X58304465Y-43334355D01*
X58454607Y-43476415D01*
X58606435Y-43617350D01*
X58684054Y-43686603D01*
X58763381Y-43754625D01*
X58844846Y-43821097D01*
X58928877Y-43885704D01*
X59011809Y-43942821D01*
X59096775Y-43992551D01*
X59183586Y-44035111D01*
X59272049Y-44070722D01*
X59361971Y-44099601D01*
X59453161Y-44121968D01*
X59545427Y-44138041D01*
X59638577Y-44148039D01*
X59732419Y-44152181D01*
X59826761Y-44150686D01*
X59921412Y-44143773D01*
X60016178Y-44131659D01*
X60110869Y-44114565D01*
X60205292Y-44092709D01*
X60299255Y-44066310D01*
X60392567Y-44035586D01*
X60485035Y-44000757D01*
X60576468Y-43962041D01*
X60666673Y-43919657D01*
X60755459Y-43873824D01*
X60928004Y-43772685D01*
X61092568Y-43660376D01*
X61247616Y-43538646D01*
X61391612Y-43409246D01*
X61523019Y-43273926D01*
X61640303Y-43134437D01*
X61651299Y-43119081D01*
X61661030Y-43102972D01*
X61669541Y-43086157D01*
X61676877Y-43068686D01*
X61683082Y-43050608D01*
X61688202Y-43031972D01*
X61692280Y-43012829D01*
X61695361Y-42993225D01*
X61697491Y-42973212D01*
X61698714Y-42952837D01*
X61698616Y-42911202D01*
X61695427Y-42868713D01*
X61689503Y-42825762D01*
X61681201Y-42782744D01*
X61670880Y-42740052D01*
X61658897Y-42698078D01*
X61645609Y-42657217D01*
X61631374Y-42617861D01*
X61616549Y-42580404D01*
X61601492Y-42545239D01*
X61586561Y-42512759D01*
X61582208Y-42503696D01*
X61577779Y-42494643D01*
X61573274Y-42485596D01*
X61568691Y-42476550D01*
X61737714Y-42392307D01*
X61944028Y-42294404D01*
X62153300Y-42204600D01*
X62365284Y-42122413D01*
X62579735Y-42047360D01*
X62796405Y-41978959D01*
X63015048Y-41916730D01*
X63235419Y-41860190D01*
X63457270Y-41808857D01*
X63904430Y-41719886D01*
X64354556Y-41645963D01*
X64805680Y-41583233D01*
X65255829Y-41527842D01*
X65359173Y-41516279D01*
X65463282Y-41505881D01*
X65567998Y-41496636D01*
X65673162Y-41488536D01*
X65778613Y-41481571D01*
X65884193Y-41475729D01*
X66095100Y-41467380D01*
X66094152Y-41495111D01*
X66094719Y-41522499D01*
X66096879Y-41549518D01*
X66100711Y-41576145D01*
X66106296Y-41602354D01*
X66109769Y-41615294D01*
X66113711Y-41628121D01*
X66118130Y-41640830D01*
X66123036Y-41653420D01*
X66128440Y-41665887D01*
X66134351Y-41678228D01*
X66140779Y-41690439D01*
X66147734Y-41702519D01*
X66155226Y-41714463D01*
X66163264Y-41726269D01*
X66171860Y-41737933D01*
X66181022Y-41749452D01*
X66190760Y-41760824D01*
X66201084Y-41772045D01*
X66212005Y-41783112D01*
X66223532Y-41794022D01*
X66235675Y-41804772D01*
X66248444Y-41815359D01*
X66261848Y-41825780D01*
X66275898Y-41836031D01*
X66290604Y-41846110D01*
X66305976Y-41856013D01*
X66322711Y-41865885D01*
X66339711Y-41874785D01*
X66356962Y-41882754D01*
X66374449Y-41889832D01*
X66410072Y-41901479D01*
X66446466Y-41910050D01*
X66483515Y-41915870D01*
X66521106Y-41919263D01*
X66559121Y-41920555D01*
X66597446Y-41920069D01*
X66635966Y-41918130D01*
X66674566Y-41915064D01*
X66751544Y-41906844D01*
X66827458Y-41898006D01*
X66901386Y-41891148D01*
X67306589Y-41861482D01*
X67526537Y-41837817D01*
X67637745Y-41822146D01*
X67748593Y-41803296D01*
X67858194Y-41780801D01*
X67965663Y-41754195D01*
X68070113Y-41723013D01*
X68170656Y-41686789D01*
X68266408Y-41645057D01*
X68356480Y-41597352D01*
X68399109Y-41571114D01*
X68439986Y-41543208D01*
X68479001Y-41513576D01*
X68516041Y-41482160D01*
X68551259Y-41448547D01*
X68584007Y-41413384D01*
X68614523Y-41376814D01*
X68643043Y-41338981D01*
X68669804Y-41300029D01*
X68695043Y-41260102D01*
X68718997Y-41219344D01*
X68741903Y-41177899D01*
X68785516Y-41093521D01*
X68827778Y-41008120D01*
X68870583Y-40922846D01*
X68892782Y-40880617D01*
X68915826Y-40838851D01*
X68944834Y-40785826D01*
X68975703Y-40726636D01*
X69043317Y-40594928D01*
X69080208Y-40524996D01*
X69119252Y-40454069D01*
X69160521Y-40383439D01*
X69204089Y-40314399D01*
X69250028Y-40248243D01*
X69273910Y-40216649D01*
X69298412Y-40186261D01*
X69323543Y-40157241D01*
X69349312Y-40129749D01*
X69375729Y-40103947D01*
X69402802Y-40079997D01*
X69430541Y-40058061D01*
X69458955Y-40038299D01*
X69488052Y-40020874D01*
X69517843Y-40005948D01*
X69548335Y-39993681D01*
X69579539Y-39984235D01*
X69611463Y-39977773D01*
X69644117Y-39974455D01*
X69647930Y-39974282D01*
X69651752Y-39974153D01*
X69655581Y-39974069D01*
X69659421Y-39974029D01*
X69663270Y-39974034D01*
G37*
G36*
X69082491Y-46846598D02*
G01*
X69119648Y-46847445D01*
X69119650Y-46847445D01*
X69251098Y-46856412D01*
X69383704Y-46874632D01*
X69516140Y-46902004D01*
X69647077Y-46938429D01*
X69711568Y-46960005D01*
X69775188Y-46983807D01*
X69837768Y-47009822D01*
X69899144Y-47038038D01*
X69959150Y-47068442D01*
X70017619Y-47101022D01*
X70074385Y-47135765D01*
X70129283Y-47172660D01*
X70182146Y-47211692D01*
X70232809Y-47252851D01*
X70281106Y-47296124D01*
X70326870Y-47341497D01*
X70369935Y-47388959D01*
X70410136Y-47438497D01*
X70447307Y-47490099D01*
X70481281Y-47543752D01*
X70511893Y-47599443D01*
X70538977Y-47657161D01*
X70562366Y-47716893D01*
X70581894Y-47778625D01*
X70597397Y-47842347D01*
X70608706Y-47908045D01*
X70615658Y-47975707D01*
X70618085Y-48045320D01*
X70619612Y-48108749D01*
X70622490Y-48177347D01*
X70624456Y-48248934D01*
X70624391Y-48285167D01*
X70623249Y-48321329D01*
X70620748Y-48357148D01*
X70616605Y-48392350D01*
X70610537Y-48426664D01*
X70602263Y-48459817D01*
X70597209Y-48475873D01*
X70591498Y-48491537D01*
X70585093Y-48506773D01*
X70577960Y-48521549D01*
X70570062Y-48535831D01*
X70561366Y-48549583D01*
X70551835Y-48562773D01*
X70541433Y-48575365D01*
X70521843Y-48594358D01*
X70499645Y-48610163D01*
X70475000Y-48622944D01*
X70448071Y-48632866D01*
X70419020Y-48640094D01*
X70388011Y-48644793D01*
X70355205Y-48647128D01*
X70320765Y-48647262D01*
X70247633Y-48641591D01*
X70169914Y-48629099D01*
X70088910Y-48611103D01*
X70005918Y-48588921D01*
X69839176Y-48537274D01*
X69680086Y-48484703D01*
X69606660Y-48461367D01*
X69539047Y-48441754D01*
X69478546Y-48427183D01*
X69426458Y-48418971D01*
X69373038Y-48414846D01*
X69319902Y-48412803D01*
X69267063Y-48412785D01*
X69214533Y-48414736D01*
X69162325Y-48418601D01*
X69110454Y-48424324D01*
X69007772Y-48441124D01*
X68906591Y-48464689D01*
X68807017Y-48494575D01*
X68709155Y-48530335D01*
X68613110Y-48571527D01*
X68518987Y-48617703D01*
X68426891Y-48668420D01*
X68336928Y-48723231D01*
X68249203Y-48781692D01*
X68163821Y-48843358D01*
X68080887Y-48907784D01*
X68000506Y-48974524D01*
X67922783Y-49043134D01*
X67892535Y-49073767D01*
X67859929Y-49112063D01*
X67825181Y-49156680D01*
X67788507Y-49206278D01*
X67710244Y-49315049D01*
X67669087Y-49371539D01*
X67626866Y-49427643D01*
X67583798Y-49482021D01*
X67540099Y-49533330D01*
X67495983Y-49580230D01*
X67473837Y-49601606D01*
X67451668Y-49621378D01*
X67429502Y-49639376D01*
X67407368Y-49655433D01*
X67385291Y-49669382D01*
X67363299Y-49681054D01*
X67341419Y-49690282D01*
X67319677Y-49696899D01*
X67298102Y-49700737D01*
X67276719Y-49701628D01*
X67266421Y-49700772D01*
X67256883Y-49698882D01*
X67248078Y-49696012D01*
X67239979Y-49692220D01*
X67232559Y-49687559D01*
X67225791Y-49682085D01*
X67219648Y-49675853D01*
X67214102Y-49668919D01*
X67209127Y-49661338D01*
X67204695Y-49653165D01*
X67200780Y-49644455D01*
X67197354Y-49635264D01*
X67191862Y-49615660D01*
X67188003Y-49594794D01*
X67185561Y-49573109D01*
X67184317Y-49551047D01*
X67184057Y-49529051D01*
X67184563Y-49507562D01*
X67187009Y-49467877D01*
X67189922Y-49435530D01*
X67225874Y-49009566D01*
X67235590Y-48903250D01*
X67246541Y-48796959D01*
X67259197Y-48690672D01*
X67274031Y-48584367D01*
X67303046Y-48425764D01*
X67341623Y-48270512D01*
X67389663Y-48119351D01*
X67447069Y-47973017D01*
X67513742Y-47832249D01*
X67589583Y-47697786D01*
X67630912Y-47633149D01*
X67674496Y-47570364D01*
X67720324Y-47509525D01*
X67768382Y-47450722D01*
X67818659Y-47394050D01*
X67871142Y-47339599D01*
X67925819Y-47287461D01*
X67982679Y-47237731D01*
X68041708Y-47190498D01*
X68102894Y-47145857D01*
X68166225Y-47103898D01*
X68231689Y-47064715D01*
X68299274Y-47028399D01*
X68368967Y-46995042D01*
X68440756Y-46964738D01*
X68514628Y-46937578D01*
X68590572Y-46913655D01*
X68668575Y-46893060D01*
X68748625Y-46875886D01*
X68830710Y-46862225D01*
X68865580Y-46857664D01*
X68900865Y-46853883D01*
X68936537Y-46850881D01*
X68972566Y-46848654D01*
X69008921Y-46847200D01*
X69045573Y-46846515D01*
X69082491Y-46846598D01*
G37*
G36*
X72893091Y-96129322D02*
G01*
X72892546Y-96129447D01*
X72891257Y-96129717D01*
X72889972Y-96129963D01*
X72889433Y-96130058D01*
X72889017Y-96130125D01*
X72893516Y-96129213D01*
X72893091Y-96129322D01*
G37*
G36*
X62320046Y-48756309D02*
G01*
X62418492Y-48761440D01*
X62515360Y-48769962D01*
X62610610Y-48781848D01*
X62704202Y-48797073D01*
X62796098Y-48815608D01*
X62886259Y-48837428D01*
X62974645Y-48862505D01*
X63061216Y-48890812D01*
X63145935Y-48922324D01*
X63228760Y-48957012D01*
X63309654Y-48994850D01*
X63388577Y-49035812D01*
X63465489Y-49079870D01*
X63540352Y-49126997D01*
X63613127Y-49177167D01*
X63683773Y-49230353D01*
X63752252Y-49286528D01*
X63818524Y-49345666D01*
X63882551Y-49407739D01*
X63944293Y-49472720D01*
X64003711Y-49540583D01*
X64060766Y-49611301D01*
X64115417Y-49684847D01*
X64167628Y-49761195D01*
X64217356Y-49840316D01*
X64264565Y-49922186D01*
X64309214Y-50006776D01*
X64351264Y-50094060D01*
X64390677Y-50184011D01*
X64427411Y-50276603D01*
X64461430Y-50371808D01*
X64413825Y-50366236D01*
X64366607Y-50358112D01*
X64319736Y-50347725D01*
X64273172Y-50335361D01*
X64226874Y-50321309D01*
X64180803Y-50305857D01*
X64089180Y-50271901D01*
X63906889Y-50199848D01*
X63815579Y-50166355D01*
X63769743Y-50151249D01*
X63723733Y-50137621D01*
X63640748Y-50116075D01*
X63557356Y-50097416D01*
X63473635Y-50081729D01*
X63389662Y-50069095D01*
X63305513Y-50059599D01*
X63221265Y-50053323D01*
X63136996Y-50050352D01*
X63052782Y-50050769D01*
X62968700Y-50054656D01*
X62884827Y-50062098D01*
X62801241Y-50073177D01*
X62718017Y-50087977D01*
X62635233Y-50106582D01*
X62552966Y-50129075D01*
X62471293Y-50155539D01*
X62390291Y-50186057D01*
X62323431Y-50214783D01*
X62256866Y-50246724D01*
X62190736Y-50281663D01*
X62125180Y-50319386D01*
X62060338Y-50359678D01*
X61996349Y-50402323D01*
X61933354Y-50447106D01*
X61871491Y-50493811D01*
X61810900Y-50542225D01*
X61751722Y-50592131D01*
X61694096Y-50643314D01*
X61638161Y-50695559D01*
X61584057Y-50748651D01*
X61531923Y-50802374D01*
X61481900Y-50856514D01*
X61434128Y-50910854D01*
X61413746Y-50936015D01*
X61392909Y-50963945D01*
X61349484Y-51025402D01*
X61303092Y-51089804D01*
X61278546Y-51121414D01*
X61252973Y-51151727D01*
X61226278Y-51180064D01*
X61212480Y-51193280D01*
X61198366Y-51205748D01*
X61183924Y-51217383D01*
X61169142Y-51228101D01*
X61154008Y-51237816D01*
X61138511Y-51246444D01*
X61122638Y-51253900D01*
X61106378Y-51260100D01*
X61089718Y-51264958D01*
X61072648Y-51268391D01*
X61055154Y-51270313D01*
X61037225Y-51270639D01*
X61018850Y-51269285D01*
X61000015Y-51266167D01*
X60980328Y-51261368D01*
X60961316Y-51255469D01*
X60942965Y-51248516D01*
X60925261Y-51240556D01*
X60908190Y-51231635D01*
X60891737Y-51221800D01*
X60875889Y-51211096D01*
X60860631Y-51199571D01*
X60845949Y-51187272D01*
X60831829Y-51174243D01*
X60805216Y-51146187D01*
X60780680Y-51115775D01*
X60758105Y-51083379D01*
X60737379Y-51049369D01*
X60718388Y-51014120D01*
X60701017Y-50978001D01*
X60685154Y-50941385D01*
X60670683Y-50904644D01*
X60657492Y-50868150D01*
X60634492Y-50797388D01*
X60620420Y-50748024D01*
X60608357Y-50698578D01*
X60590089Y-50599534D01*
X60579355Y-50500446D01*
X60575819Y-50401500D01*
X60579145Y-50302884D01*
X60588999Y-50204786D01*
X60605045Y-50107395D01*
X60626949Y-50010898D01*
X60654374Y-49915482D01*
X60686986Y-49821336D01*
X60724450Y-49728648D01*
X60766429Y-49637606D01*
X60812590Y-49548396D01*
X60862597Y-49461208D01*
X60916115Y-49376229D01*
X60972808Y-49293646D01*
X61027803Y-49223200D01*
X61087710Y-49158299D01*
X61152134Y-49098804D01*
X61220677Y-49044579D01*
X61292943Y-48995484D01*
X61368534Y-48951381D01*
X61447054Y-48912134D01*
X61528106Y-48877603D01*
X61611294Y-48847651D01*
X61696219Y-48822140D01*
X61782487Y-48800931D01*
X61869699Y-48783887D01*
X61957459Y-48770870D01*
X62045371Y-48761741D01*
X62133036Y-48756363D01*
X62220060Y-48754597D01*
X62320046Y-48756309D01*
G37*
D11*
%TO.C,REF\u002A\u002A*%
X153505000Y-41620000D03*
%TD*%
D12*
%TO.C,REF\u002A\u002A*%
X182380000Y-102170000D03*
%TD*%
%TO.C,REF\u002A\u002A*%
X182380000Y-31720000D03*
%TD*%
D11*
%TO.C,REF\u002A\u002A*%
X161930000Y-96620000D03*
%TD*%
%TO.C,REF\u002A\u002A*%
X154380000Y-41420000D03*
%TD*%
%TO.C,REF\u002A\u002A*%
X155230000Y-41245000D03*
%TD*%
%TO.C,REF\u002A\u002A*%
X161105000Y-96695000D03*
%TD*%
%TO.C,REF\u002A\u002A*%
X160155000Y-96570000D03*
%TD*%
%TO.C,REF\u002A\u002A*%
X108155000Y-41600000D03*
%TD*%
%TO.C,REF\u002A\u002A*%
X115755000Y-96675000D03*
%TD*%
%TO.C,REF\u002A\u002A*%
X109880000Y-41225000D03*
%TD*%
%TO.C,REF\u002A\u002A*%
X116580000Y-96600000D03*
%TD*%
%TO.C,REF\u002A\u002A*%
X109030000Y-41400000D03*
%TD*%
%TO.C,REF\u002A\u002A*%
X114805000Y-96550000D03*
%TD*%
%TO.C,REF\u002A\u002A*%
X70505000Y-96675000D03*
%TD*%
%TO.C,REF\u002A\u002A*%
X69555000Y-96550000D03*
%TD*%
%TO.C,REF\u002A\u002A*%
X64630000Y-41225000D03*
%TD*%
%TO.C,REF\u002A\u002A*%
X63780000Y-41400000D03*
%TD*%
D12*
%TO.C,REF\u002A\u002A*%
X46530000Y-102150000D03*
%TD*%
D11*
%TO.C,REF\u002A\u002A*%
X71330000Y-96600000D03*
%TD*%
%TO.C,REF\u002A\u002A*%
X62905000Y-41600000D03*
%TD*%
D12*
%TO.C,REF\u002A\u002A*%
X46530000Y-31700000D03*
%TD*%
M02*
