%TF.GenerationSoftware,KiCad,Pcbnew,9.0.0*%
%TF.CreationDate,2026-08-18T23:02:38+03:00*%
%TF.ProjectId,purrCat_2x1,70757272-4361-4745-9f32-78312e6b6963,rev?*%
%TF.SameCoordinates,Original*%
%TF.FileFunction,Soldermask,Bot*%
%TF.FilePolarity,Negative*%
%FSLAX46Y46*%
G04 Gerber Fmt 4.6, Leading zero omitted, Abs format (unit mm)*
G04 Created by KiCad (PCBNEW 9.0.0) date 2026-08-18 23:02:38*
%MOMM*%
%LPD*%
G01*
G04 APERTURE LIST*
G04 Aperture macros list*
%AMRoundRect*
0 Rectangle with rounded corners*
0 $1 Rounding radius*
0 $2 $3 $4 $5 $6 $7 $8 $9 X,Y pos of 4 corners*
0 Add a 4 corners polygon primitive as box body*
4,1,4,$2,$3,$4,$5,$6,$7,$8,$9,$2,$3,0*
0 Add four circle primitives for the rounded corners*
1,1,$1+$1,$2,$3*
1,1,$1+$1,$4,$5*
1,1,$1+$1,$6,$7*
1,1,$1+$1,$8,$9*
0 Add four rect primitives between the rounded corners*
20,1,$1+$1,$2,$3,$4,$5,0*
20,1,$1+$1,$4,$5,$6,$7,0*
20,1,$1+$1,$6,$7,$8,$9,0*
20,1,$1+$1,$8,$9,$2,$3,0*%
%AMFreePoly0*
4,1,18,-0.925000,0.647500,-0.903877,0.753695,-0.843722,0.843722,-0.753694,0.903877,-0.647500,0.925000,0.647500,0.925000,0.753695,0.903877,0.843722,0.843722,0.903877,0.753694,0.925000,0.647500,0.925000,-0.647500,0.903877,-0.753695,0.843722,-0.843722,0.753694,-0.903877,0.647500,-0.925000,-0.370000,-0.925000,-0.925000,-0.370000,-0.925000,0.647500,-0.925000,0.647500,$1*%
G04 Aperture macros list end*
%ADD10C,0.500000*%
%ADD11C,0.050000*%
%ADD12C,0.600000*%
%ADD13C,2.000000*%
%ADD14C,1.000000*%
%ADD15RoundRect,0.225000X-0.225000X-0.250000X0.225000X-0.250000X0.225000X0.250000X-0.225000X0.250000X0*%
%ADD16RoundRect,0.225000X-0.250000X0.225000X-0.250000X-0.225000X0.250000X-0.225000X0.250000X0.225000X0*%
%ADD17RoundRect,0.200000X0.200000X0.275000X-0.200000X0.275000X-0.200000X-0.275000X0.200000X-0.275000X0*%
%ADD18RoundRect,0.250000X-0.425000X-0.425000X0.425000X-0.425000X0.425000X0.425000X-0.425000X0.425000X0*%
%ADD19FreePoly0,70.000000*%
%ADD20RoundRect,0.250000X0.403429X-0.865156X0.865156X0.403429X-0.403429X0.865156X-0.865156X-0.403429X0*%
%ADD21RoundRect,0.100000X0.100000X-0.637500X0.100000X0.637500X-0.100000X0.637500X-0.100000X-0.637500X0*%
%ADD22RoundRect,0.200000X-0.200000X-0.275000X0.200000X-0.275000X0.200000X0.275000X-0.200000X0.275000X0*%
%ADD23RoundRect,0.250000X0.250000X0.475000X-0.250000X0.475000X-0.250000X-0.475000X0.250000X-0.475000X0*%
%ADD24RoundRect,0.218750X0.256250X-0.218750X0.256250X0.218750X-0.256250X0.218750X-0.256250X-0.218750X0*%
%ADD25RoundRect,0.375000X-0.875000X-0.375000X0.875000X-0.375000X0.875000X0.375000X-0.875000X0.375000X0*%
%ADD26RoundRect,0.200000X0.164711X-0.297482X0.333758X0.065042X-0.164711X0.297482X-0.333758X-0.065042X0*%
%ADD27RoundRect,0.140000X0.140000X0.170000X-0.140000X0.170000X-0.140000X-0.170000X0.140000X-0.170000X0*%
%ADD28RoundRect,0.200000X-0.275000X0.200000X-0.275000X-0.200000X0.275000X-0.200000X0.275000X0.200000X0*%
%ADD29RoundRect,0.150000X-0.512500X-0.150000X0.512500X-0.150000X0.512500X0.150000X-0.512500X0.150000X0*%
%ADD30RoundRect,0.175000X-0.311223X0.338217X-0.459139X0.021009X0.311223X-0.338217X0.459139X-0.021009X0*%
%ADD31RoundRect,0.190000X0.291289X-0.345472X0.451884X-0.001075X-0.291289X0.345472X-0.451884X0.001075X0*%
%ADD32RoundRect,0.200000X0.277999X-0.350309X0.447047X0.012214X-0.277999X0.350309X-0.447047X-0.012214X0*%
%ADD33RoundRect,0.175000X0.311223X-0.338217X0.459139X-0.021009X-0.311223X0.338217X-0.459139X0.021009X0*%
%ADD34RoundRect,0.190000X-0.291289X0.345472X-0.451884X0.001075X0.291289X-0.345472X0.451884X-0.001075X0*%
%ADD35RoundRect,0.200000X-0.277999X0.350309X-0.447047X-0.012214X0.277999X-0.350309X0.447047X0.012214X0*%
%ADD36RoundRect,0.250000X-0.110479X0.768713X-0.659883X-0.409487X0.110479X-0.768713X0.659883X0.409487X0*%
%ADD37RoundRect,0.250000X-0.178452X0.800409X-0.727856X-0.377791X0.178452X-0.800409X0.727856X0.377791X0*%
%ADD38RoundRect,0.150000X0.512500X0.150000X-0.512500X0.150000X-0.512500X-0.150000X0.512500X-0.150000X0*%
%ADD39RoundRect,0.218750X0.218750X0.256250X-0.218750X0.256250X-0.218750X-0.256250X0.218750X-0.256250X0*%
%ADD40RoundRect,0.250000X0.724924X-0.075729X0.407961X0.604002X-0.724924X0.075729X-0.407961X-0.604002X0*%
%ADD41RoundRect,0.250000X0.700761X-0.200460X0.506646X0.523984X-0.700761X0.200460X-0.506646X-0.523984X0*%
%ADD42RoundRect,0.150000X-0.150000X0.587500X-0.150000X-0.587500X0.150000X-0.587500X0.150000X0.587500X0*%
G04 APERTURE END LIST*
D10*
X161510576Y-93074238D02*
X160367719Y-93074238D01*
X160939148Y-95074238D02*
X160939148Y-93074238D01*
X158096570Y-93278446D02*
X156941729Y-94097517D01*
X157316425Y-92732183D02*
X156941729Y-94097517D01*
X156941729Y-94097517D02*
X156824626Y-94596843D01*
X156824626Y-94596843D02*
X156848014Y-94729483D01*
X156848014Y-94729483D02*
X156949417Y-94916750D01*
X161936230Y-94861550D02*
X162031105Y-94853249D01*
X162031105Y-94853249D02*
X162212556Y-94741772D01*
X162212556Y-94741772D02*
X162472282Y-94432244D01*
X162472282Y-94432244D02*
X162896857Y-93821487D01*
X162896857Y-93821487D02*
X163061707Y-93520259D01*
X163061707Y-93520259D02*
X163131681Y-93227331D01*
X163131681Y-93227331D02*
X163115079Y-93037580D01*
X163115079Y-93037580D02*
X163003603Y-92856129D01*
X163003603Y-92856129D02*
X162805551Y-92777854D01*
X162805551Y-92777854D02*
X162710675Y-92786155D01*
X162710675Y-92786155D02*
X162529224Y-92897631D01*
X162529224Y-92897631D02*
X162450950Y-93095683D01*
X162450950Y-93095683D02*
X162459250Y-93190559D01*
X162459250Y-93190559D02*
X162570727Y-93372010D01*
X162570727Y-93372010D02*
X162673903Y-93458585D01*
X162673903Y-93458585D02*
X163276360Y-93788285D01*
X163276360Y-93788285D02*
X163379536Y-93874860D01*
X163379536Y-93874860D02*
X163491013Y-94056310D01*
X163491013Y-94056310D02*
X163515914Y-94340938D01*
X163515914Y-94340938D02*
X163437640Y-94538989D01*
X163437640Y-94538989D02*
X163351064Y-94642166D01*
X163351064Y-94642166D02*
X163169614Y-94753642D01*
X163169614Y-94753642D02*
X162884987Y-94778544D01*
X162884987Y-94778544D02*
X162686935Y-94700270D01*
X162686935Y-94700270D02*
X162583758Y-94613694D01*
X162583758Y-94613694D02*
X162265929Y-94259093D01*
X162265929Y-94259093D02*
X162146152Y-93982767D01*
X162146152Y-93982767D02*
X162129551Y-93793015D01*
X167424893Y-92735253D02*
X166751497Y-91932730D01*
X166751497Y-91932730D02*
X166702018Y-91725599D01*
X166702018Y-91725599D02*
X166786713Y-91530207D01*
X166786713Y-91530207D02*
X167078540Y-91285335D01*
X167078540Y-91285335D02*
X167285671Y-91235856D01*
X167363676Y-92662296D02*
X167570807Y-92612817D01*
X167570807Y-92612817D02*
X167935590Y-92306728D01*
X167935590Y-92306728D02*
X168020285Y-92111336D01*
X168020285Y-92111336D02*
X167970806Y-91904205D01*
X167970806Y-91904205D02*
X167848370Y-91758291D01*
X167848370Y-91758291D02*
X167652978Y-91673596D01*
X167652978Y-91673596D02*
X167445847Y-91723075D01*
X167445847Y-91723075D02*
X167081064Y-92029164D01*
X167081064Y-92029164D02*
X166873933Y-92078644D01*
X166499913Y-93480939D02*
X166617251Y-93303222D01*
X166617251Y-93303222D02*
X166604492Y-93090646D01*
X166604492Y-93090646D02*
X165747349Y-91606031D01*
X159097643Y-94955391D02*
X159188949Y-93911758D01*
X159188949Y-93911758D02*
X159300426Y-93730307D01*
X159300426Y-93730307D02*
X159498478Y-93652033D01*
X159498478Y-93652033D02*
X159877981Y-93685235D01*
X159877981Y-93685235D02*
X160059431Y-93796712D01*
X159105944Y-94860515D02*
X159287394Y-94971992D01*
X159287394Y-94971992D02*
X159761773Y-95013494D01*
X159761773Y-95013494D02*
X159959825Y-94935220D01*
X159959825Y-94935220D02*
X160071302Y-94753769D01*
X160071302Y-94753769D02*
X160087903Y-94564018D01*
X160087903Y-94564018D02*
X160009628Y-94365966D01*
X160009628Y-94365966D02*
X159828177Y-94254489D01*
X159828177Y-94254489D02*
X159353799Y-94212986D01*
X159353799Y-94212986D02*
X159172348Y-94101509D01*
X157972540Y-94617473D02*
X158184103Y-94593125D01*
X158184103Y-94593125D02*
X158338744Y-94446710D01*
X158338744Y-94446710D02*
X158925064Y-92835808D01*
X165680812Y-93965940D02*
X164996771Y-92086555D01*
X165322505Y-92981500D02*
X164248570Y-93372380D01*
X164606877Y-94356820D02*
X163922837Y-92477435D01*
X167497523Y-90240894D02*
X167547002Y-90033762D01*
X167547002Y-90033762D02*
X167730655Y-89814893D01*
X167730655Y-89814893D02*
X167987266Y-89657241D01*
X167987266Y-89657241D02*
X168255615Y-89633763D01*
X168255615Y-89633763D02*
X168462746Y-89683242D01*
X168462746Y-89683242D02*
X168815790Y-89855157D01*
X168815790Y-89855157D02*
X169034660Y-90038811D01*
X169034660Y-90038811D02*
X169265268Y-90356639D01*
X169265268Y-90356639D02*
X169349964Y-90552031D01*
X169349964Y-90552031D02*
X169373441Y-90820380D01*
X169373441Y-90820380D02*
X169262744Y-91100468D01*
X169262744Y-91100468D02*
X169140309Y-91246381D01*
X169140309Y-91246381D02*
X168883698Y-91404033D01*
X168883698Y-91404033D02*
X168749524Y-91415772D01*
X168749524Y-91415772D02*
X168238828Y-90987247D01*
X168238828Y-90987247D02*
X168483699Y-90695420D01*
X154996568Y-92696349D02*
X156119443Y-92395308D01*
X155872048Y-93430963D02*
X157157623Y-91898875D01*
X157157623Y-91898875D02*
X156573970Y-91409132D01*
X156573970Y-91409132D02*
X156366839Y-91359653D01*
X156366839Y-91359653D02*
X156232665Y-91371391D01*
X156232665Y-91371391D02*
X156037272Y-91456087D01*
X156037272Y-91456087D02*
X155853619Y-91674956D01*
X155853619Y-91674956D02*
X155804139Y-91882088D01*
X155804139Y-91882088D02*
X155815878Y-92016262D01*
X155815878Y-92016262D02*
X155900574Y-92211654D01*
X155900574Y-92211654D02*
X156484226Y-92701397D01*
X116160576Y-93054238D02*
X115017719Y-93054238D01*
X115589148Y-95054238D02*
X115589148Y-93054238D01*
X116586230Y-94841550D02*
X116681105Y-94833249D01*
X116681105Y-94833249D02*
X116862556Y-94721772D01*
X116862556Y-94721772D02*
X117122282Y-94412244D01*
X117122282Y-94412244D02*
X117546857Y-93801487D01*
X117546857Y-93801487D02*
X117711707Y-93500259D01*
X117711707Y-93500259D02*
X117781681Y-93207331D01*
X117781681Y-93207331D02*
X117765079Y-93017580D01*
X117765079Y-93017580D02*
X117653603Y-92836129D01*
X117653603Y-92836129D02*
X117455551Y-92757854D01*
X117455551Y-92757854D02*
X117360675Y-92766155D01*
X117360675Y-92766155D02*
X117179224Y-92877631D01*
X117179224Y-92877631D02*
X117100950Y-93075683D01*
X117100950Y-93075683D02*
X117109250Y-93170559D01*
X117109250Y-93170559D02*
X117220727Y-93352010D01*
X117220727Y-93352010D02*
X117323903Y-93438585D01*
X117323903Y-93438585D02*
X117926360Y-93768285D01*
X117926360Y-93768285D02*
X118029536Y-93854860D01*
X118029536Y-93854860D02*
X118141013Y-94036310D01*
X118141013Y-94036310D02*
X118165914Y-94320938D01*
X118165914Y-94320938D02*
X118087640Y-94518989D01*
X118087640Y-94518989D02*
X118001064Y-94622166D01*
X118001064Y-94622166D02*
X117819614Y-94733642D01*
X117819614Y-94733642D02*
X117534987Y-94758544D01*
X117534987Y-94758544D02*
X117336935Y-94680270D01*
X117336935Y-94680270D02*
X117233758Y-94593694D01*
X117233758Y-94593694D02*
X116915929Y-94239093D01*
X116915929Y-94239093D02*
X116796152Y-93962767D01*
X116796152Y-93962767D02*
X116779551Y-93773015D01*
X122074893Y-92715253D02*
X121401497Y-91912730D01*
X121401497Y-91912730D02*
X121352018Y-91705599D01*
X121352018Y-91705599D02*
X121436713Y-91510207D01*
X121436713Y-91510207D02*
X121728540Y-91265335D01*
X121728540Y-91265335D02*
X121935671Y-91215856D01*
X122013676Y-92642296D02*
X122220807Y-92592817D01*
X122220807Y-92592817D02*
X122585590Y-92286728D01*
X122585590Y-92286728D02*
X122670285Y-92091336D01*
X122670285Y-92091336D02*
X122620806Y-91884205D01*
X122620806Y-91884205D02*
X122498370Y-91738291D01*
X122498370Y-91738291D02*
X122302978Y-91653596D01*
X122302978Y-91653596D02*
X122095847Y-91703075D01*
X122095847Y-91703075D02*
X121731064Y-92009164D01*
X121731064Y-92009164D02*
X121523933Y-92058644D01*
X120330812Y-93945940D02*
X119646771Y-92066555D01*
X119972505Y-92961500D02*
X118898570Y-93352380D01*
X119256877Y-94336820D02*
X118572837Y-92457435D01*
X122147523Y-90220894D02*
X122197002Y-90013762D01*
X122197002Y-90013762D02*
X122380655Y-89794893D01*
X122380655Y-89794893D02*
X122637266Y-89637241D01*
X122637266Y-89637241D02*
X122905615Y-89613763D01*
X122905615Y-89613763D02*
X123112746Y-89663242D01*
X123112746Y-89663242D02*
X123465790Y-89835157D01*
X123465790Y-89835157D02*
X123684660Y-90018811D01*
X123684660Y-90018811D02*
X123915268Y-90336639D01*
X123915268Y-90336639D02*
X123999964Y-90532031D01*
X123999964Y-90532031D02*
X124023441Y-90800380D01*
X124023441Y-90800380D02*
X123912744Y-91080468D01*
X123912744Y-91080468D02*
X123790309Y-91226381D01*
X123790309Y-91226381D02*
X123533698Y-91384033D01*
X123533698Y-91384033D02*
X123399524Y-91395772D01*
X123399524Y-91395772D02*
X122888828Y-90967247D01*
X122888828Y-90967247D02*
X123133699Y-90675420D01*
X109646568Y-92676349D02*
X110769443Y-92375308D01*
X110522048Y-93410963D02*
X111807623Y-91878875D01*
X111807623Y-91878875D02*
X111223970Y-91389132D01*
X111223970Y-91389132D02*
X111016839Y-91339653D01*
X111016839Y-91339653D02*
X110882665Y-91351391D01*
X110882665Y-91351391D02*
X110687272Y-91436087D01*
X110687272Y-91436087D02*
X110503619Y-91654956D01*
X110503619Y-91654956D02*
X110454139Y-91862088D01*
X110454139Y-91862088D02*
X110465878Y-91996262D01*
X110465878Y-91996262D02*
X110550574Y-92191654D01*
X110550574Y-92191654D02*
X111134226Y-92681397D01*
X113747643Y-94935391D02*
X113838949Y-93891758D01*
X113838949Y-93891758D02*
X113950426Y-93710307D01*
X113950426Y-93710307D02*
X114148478Y-93632033D01*
X114148478Y-93632033D02*
X114527981Y-93665235D01*
X114527981Y-93665235D02*
X114709431Y-93776712D01*
X113755944Y-94840515D02*
X113937394Y-94951992D01*
X113937394Y-94951992D02*
X114411773Y-94993494D01*
X114411773Y-94993494D02*
X114609825Y-94915220D01*
X114609825Y-94915220D02*
X114721302Y-94733769D01*
X114721302Y-94733769D02*
X114737903Y-94544018D01*
X114737903Y-94544018D02*
X114659628Y-94345966D01*
X114659628Y-94345966D02*
X114478177Y-94234489D01*
X114478177Y-94234489D02*
X114003799Y-94192986D01*
X114003799Y-94192986D02*
X113822348Y-94081509D01*
X112622540Y-94597473D02*
X112834103Y-94573125D01*
X112834103Y-94573125D02*
X112988744Y-94426710D01*
X112988744Y-94426710D02*
X113575064Y-92815808D01*
X112746570Y-93258446D02*
X111591729Y-94077517D01*
X111966425Y-92712183D02*
X111591729Y-94077517D01*
X111591729Y-94077517D02*
X111474626Y-94576843D01*
X111474626Y-94576843D02*
X111498014Y-94709483D01*
X111498014Y-94709483D02*
X111599417Y-94896750D01*
X121149913Y-93460939D02*
X121267251Y-93283222D01*
X121267251Y-93283222D02*
X121254492Y-93070646D01*
X121254492Y-93070646D02*
X120397349Y-91586031D01*
X75899913Y-93460939D02*
X76017251Y-93283222D01*
X76017251Y-93283222D02*
X76004492Y-93070646D01*
X76004492Y-93070646D02*
X75147349Y-91586031D01*
X76897523Y-90220894D02*
X76947002Y-90013762D01*
X76947002Y-90013762D02*
X77130655Y-89794893D01*
X77130655Y-89794893D02*
X77387266Y-89637241D01*
X77387266Y-89637241D02*
X77655615Y-89613763D01*
X77655615Y-89613763D02*
X77862746Y-89663242D01*
X77862746Y-89663242D02*
X78215790Y-89835157D01*
X78215790Y-89835157D02*
X78434660Y-90018811D01*
X78434660Y-90018811D02*
X78665268Y-90336639D01*
X78665268Y-90336639D02*
X78749964Y-90532031D01*
X78749964Y-90532031D02*
X78773441Y-90800380D01*
X78773441Y-90800380D02*
X78662744Y-91080468D01*
X78662744Y-91080468D02*
X78540309Y-91226381D01*
X78540309Y-91226381D02*
X78283698Y-91384033D01*
X78283698Y-91384033D02*
X78149524Y-91395772D01*
X78149524Y-91395772D02*
X77638828Y-90967247D01*
X77638828Y-90967247D02*
X77883699Y-90675420D01*
X67372540Y-94597473D02*
X67584103Y-94573125D01*
X67584103Y-94573125D02*
X67738744Y-94426710D01*
X67738744Y-94426710D02*
X68325064Y-92815808D01*
X68497643Y-94935391D02*
X68588949Y-93891758D01*
X68588949Y-93891758D02*
X68700426Y-93710307D01*
X68700426Y-93710307D02*
X68898478Y-93632033D01*
X68898478Y-93632033D02*
X69277981Y-93665235D01*
X69277981Y-93665235D02*
X69459431Y-93776712D01*
X68505944Y-94840515D02*
X68687394Y-94951992D01*
X68687394Y-94951992D02*
X69161773Y-94993494D01*
X69161773Y-94993494D02*
X69359825Y-94915220D01*
X69359825Y-94915220D02*
X69471302Y-94733769D01*
X69471302Y-94733769D02*
X69487903Y-94544018D01*
X69487903Y-94544018D02*
X69409628Y-94345966D01*
X69409628Y-94345966D02*
X69228177Y-94234489D01*
X69228177Y-94234489D02*
X68753799Y-94192986D01*
X68753799Y-94192986D02*
X68572348Y-94081509D01*
X75080812Y-93945940D02*
X74396771Y-92066555D01*
X74722505Y-92961500D02*
X73648570Y-93352380D01*
X74006877Y-94336820D02*
X73322837Y-92457435D01*
X70910576Y-93054238D02*
X69767719Y-93054238D01*
X70339148Y-95054238D02*
X70339148Y-93054238D01*
X64396568Y-92676349D02*
X65519443Y-92375308D01*
X65272048Y-93410963D02*
X66557623Y-91878875D01*
X66557623Y-91878875D02*
X65973970Y-91389132D01*
X65973970Y-91389132D02*
X65766839Y-91339653D01*
X65766839Y-91339653D02*
X65632665Y-91351391D01*
X65632665Y-91351391D02*
X65437272Y-91436087D01*
X65437272Y-91436087D02*
X65253619Y-91654956D01*
X65253619Y-91654956D02*
X65204139Y-91862088D01*
X65204139Y-91862088D02*
X65215878Y-91996262D01*
X65215878Y-91996262D02*
X65300574Y-92191654D01*
X65300574Y-92191654D02*
X65884226Y-92681397D01*
X76824893Y-92715253D02*
X76151497Y-91912730D01*
X76151497Y-91912730D02*
X76102018Y-91705599D01*
X76102018Y-91705599D02*
X76186713Y-91510207D01*
X76186713Y-91510207D02*
X76478540Y-91265335D01*
X76478540Y-91265335D02*
X76685671Y-91215856D01*
X76763676Y-92642296D02*
X76970807Y-92592817D01*
X76970807Y-92592817D02*
X77335590Y-92286728D01*
X77335590Y-92286728D02*
X77420285Y-92091336D01*
X77420285Y-92091336D02*
X77370806Y-91884205D01*
X77370806Y-91884205D02*
X77248370Y-91738291D01*
X77248370Y-91738291D02*
X77052978Y-91653596D01*
X77052978Y-91653596D02*
X76845847Y-91703075D01*
X76845847Y-91703075D02*
X76481064Y-92009164D01*
X76481064Y-92009164D02*
X76273933Y-92058644D01*
X67496570Y-93258446D02*
X66341729Y-94077517D01*
X66716425Y-92712183D02*
X66341729Y-94077517D01*
X66341729Y-94077517D02*
X66224626Y-94576843D01*
X66224626Y-94576843D02*
X66248014Y-94709483D01*
X66248014Y-94709483D02*
X66349417Y-94896750D01*
X71336230Y-94841550D02*
X71431105Y-94833249D01*
X71431105Y-94833249D02*
X71612556Y-94721772D01*
X71612556Y-94721772D02*
X71872282Y-94412244D01*
X71872282Y-94412244D02*
X72296857Y-93801487D01*
X72296857Y-93801487D02*
X72461707Y-93500259D01*
X72461707Y-93500259D02*
X72531681Y-93207331D01*
X72531681Y-93207331D02*
X72515079Y-93017580D01*
X72515079Y-93017580D02*
X72403603Y-92836129D01*
X72403603Y-92836129D02*
X72205551Y-92757854D01*
X72205551Y-92757854D02*
X72110675Y-92766155D01*
X72110675Y-92766155D02*
X71929224Y-92877631D01*
X71929224Y-92877631D02*
X71850950Y-93075683D01*
X71850950Y-93075683D02*
X71859250Y-93170559D01*
X71859250Y-93170559D02*
X71970727Y-93352010D01*
X71970727Y-93352010D02*
X72073903Y-93438585D01*
X72073903Y-93438585D02*
X72676360Y-93768285D01*
X72676360Y-93768285D02*
X72779536Y-93854860D01*
X72779536Y-93854860D02*
X72891013Y-94036310D01*
X72891013Y-94036310D02*
X72915914Y-94320938D01*
X72915914Y-94320938D02*
X72837640Y-94518989D01*
X72837640Y-94518989D02*
X72751064Y-94622166D01*
X72751064Y-94622166D02*
X72569614Y-94733642D01*
X72569614Y-94733642D02*
X72284987Y-94758544D01*
X72284987Y-94758544D02*
X72086935Y-94680270D01*
X72086935Y-94680270D02*
X71983758Y-94593694D01*
X71983758Y-94593694D02*
X71665929Y-94239093D01*
X71665929Y-94239093D02*
X71546152Y-93962767D01*
X71546152Y-93962767D02*
X71529551Y-93773015D01*
D11*
%TO.C,D6*%
X153629214Y-50137490D02*
X152179122Y-50813679D01*
X151418409Y-49182325D01*
X152868501Y-48506136D01*
X153629214Y-50137490D01*
G36*
X153629214Y-50137490D02*
G01*
X152179122Y-50813679D01*
X151418409Y-49182325D01*
X152868501Y-48506136D01*
X153629214Y-50137490D01*
G37*
%TO.C,D5*%
X160261568Y-48516797D02*
X158716087Y-48930907D01*
X158250213Y-47192241D01*
X159795694Y-46778130D01*
X160261568Y-48516797D01*
G36*
X160261568Y-48516797D02*
G01*
X158716087Y-48930907D01*
X158250213Y-47192241D01*
X159795694Y-46778130D01*
X160261568Y-48516797D01*
G37*
%TO.C,D6*%
X108279214Y-50117490D02*
X106829122Y-50793679D01*
X106068409Y-49162325D01*
X107518501Y-48486136D01*
X108279214Y-50117490D01*
G36*
X108279214Y-50117490D02*
G01*
X106829122Y-50793679D01*
X106068409Y-49162325D01*
X107518501Y-48486136D01*
X108279214Y-50117490D01*
G37*
%TO.C,D5*%
X114911568Y-48496797D02*
X113366087Y-48910907D01*
X112900213Y-47172241D01*
X114445694Y-46758130D01*
X114911568Y-48496797D01*
G36*
X114911568Y-48496797D02*
G01*
X113366087Y-48910907D01*
X112900213Y-47172241D01*
X114445694Y-46758130D01*
X114911568Y-48496797D01*
G37*
X69661568Y-48496797D02*
X68116087Y-48910907D01*
X67650213Y-47172241D01*
X69195694Y-46758130D01*
X69661568Y-48496797D01*
G36*
X69661568Y-48496797D02*
G01*
X68116087Y-48910907D01*
X67650213Y-47172241D01*
X69195694Y-46758130D01*
X69661568Y-48496797D01*
G37*
%TO.C,D6*%
X63029214Y-50117490D02*
X61579122Y-50793679D01*
X60818409Y-49162325D01*
X62268501Y-48486136D01*
X63029214Y-50117490D01*
G36*
X63029214Y-50117490D02*
G01*
X61579122Y-50793679D01*
X60818409Y-49162325D01*
X62268501Y-48486136D01*
X63029214Y-50117490D01*
G37*
%TD*%
D12*
%TO.C,REF\u002A\u002A*%
X153505000Y-41620000D03*
%TD*%
D13*
%TO.C,REF\u002A\u002A*%
X182380000Y-102170000D03*
%TD*%
D14*
%TO.C,REF\u002A\u002A*%
X141255000Y-102245000D03*
%TD*%
%TO.C,REF\u002A\u002A*%
X182530000Y-59845000D03*
%TD*%
D13*
%TO.C,REF\u002A\u002A*%
X182380000Y-31720000D03*
%TD*%
D12*
%TO.C,REF\u002A\u002A*%
X161930000Y-96620000D03*
%TD*%
%TO.C,REF\u002A\u002A*%
X154380000Y-41420000D03*
%TD*%
%TO.C,REF\u002A\u002A*%
X155230000Y-41245000D03*
%TD*%
D15*
%TO.C,C1*%
X163030000Y-75920000D03*
X164580000Y-75920000D03*
%TD*%
D16*
%TO.C,C2*%
X163830000Y-67865000D03*
X163830000Y-69415000D03*
%TD*%
D17*
%TO.C,R6*%
X159545000Y-73680000D03*
X157895000Y-73680000D03*
%TD*%
D18*
%TO.C,J2*%
X145750000Y-70990000D03*
X145750000Y-68989999D03*
X145750000Y-66990000D03*
%TD*%
D19*
%TO.C,BT1*%
X164386758Y-65343355D03*
D20*
X165823243Y-61396646D03*
%TD*%
D17*
%TO.C,R7*%
X149875000Y-76100000D03*
X148225000Y-76100000D03*
%TD*%
D16*
%TO.C,C3*%
X157890000Y-67855000D03*
X157890000Y-69405000D03*
%TD*%
D21*
%TO.C,U3*%
X152465001Y-70822500D03*
X151815000Y-70822501D03*
X151165000Y-70822499D03*
X150515000Y-70822500D03*
X149865000Y-70822500D03*
X149215001Y-70822500D03*
X148565000Y-70822501D03*
X147915000Y-70822499D03*
X147914999Y-65097500D03*
X148565000Y-65097499D03*
X149215000Y-65097501D03*
X149865000Y-65097500D03*
X150515000Y-65097500D03*
X151164999Y-65097500D03*
X151815000Y-65097499D03*
X152465000Y-65097501D03*
%TD*%
D22*
%TO.C,R5*%
X157885000Y-76910000D03*
X159535000Y-76910000D03*
%TD*%
D23*
%TO.C,C4*%
X149860000Y-74245000D03*
X147960000Y-74245000D03*
%TD*%
D24*
%TO.C,D2*%
X153700000Y-81825000D03*
X153700000Y-80250000D03*
%TD*%
D25*
%TO.C,M1*%
X156449999Y-82007500D03*
X156450000Y-80007500D03*
%TD*%
D22*
%TO.C,R8*%
X151595000Y-73250000D03*
X153245000Y-73250000D03*
%TD*%
D26*
%TO.C,R2*%
X167840000Y-69510000D03*
X168537320Y-68014594D03*
%TD*%
D27*
%TO.C,C6*%
X149860000Y-72720000D03*
X148900000Y-72720000D03*
%TD*%
D28*
%TO.C,R11*%
X157580000Y-50810000D03*
X157580000Y-52460000D03*
%TD*%
D29*
%TO.C,U1*%
X161392500Y-73950000D03*
X161392500Y-73000000D03*
X161392500Y-72050000D03*
X163667500Y-72050000D03*
X163667500Y-73000000D03*
X163667500Y-73950000D03*
%TD*%
D28*
%TO.C,R3*%
X165470000Y-71975000D03*
X165470000Y-73625000D03*
%TD*%
%TO.C,R12*%
X156030000Y-50805000D03*
X156030000Y-52455000D03*
%TD*%
D30*
%TO.C,J1*%
X169212930Y-71715256D03*
D31*
X168359242Y-73545998D03*
D32*
X167839420Y-74660756D03*
D33*
X168790312Y-72621565D03*
D34*
X169644001Y-70790822D03*
D35*
X170163821Y-69676064D03*
D36*
X171217387Y-67546827D03*
D37*
X174461969Y-69059801D03*
X170130133Y-78349455D03*
D36*
X166885550Y-76836482D03*
%TD*%
D26*
%TO.C,R1*%
X166431340Y-68867703D03*
X167128660Y-67372297D03*
%TD*%
D38*
%TO.C,U2*%
X162047500Y-67860000D03*
X162047500Y-68810000D03*
X162047500Y-69760000D03*
X159772500Y-69760000D03*
X159772500Y-67860000D03*
%TD*%
D39*
%TO.C,D1*%
X159507500Y-72050000D03*
X157932500Y-72050000D03*
%TD*%
D40*
%TO.C,D6*%
X153200000Y-51110000D03*
X151826493Y-48164500D03*
%TD*%
D41*
%TO.C,D5*%
X159670000Y-49400000D03*
X158828839Y-46260742D03*
%TD*%
D42*
%TO.C,Q1*%
X151550000Y-75042500D03*
X153450000Y-75042500D03*
X152500000Y-76917500D03*
%TD*%
D17*
%TO.C,R4*%
X159545000Y-75290000D03*
X157895000Y-75290000D03*
%TD*%
D12*
%TO.C,REF\u002A\u002A*%
X161105000Y-96695000D03*
%TD*%
D14*
%TO.C,REF\u002A\u002A*%
X154330000Y-31695000D03*
%TD*%
D12*
%TO.C,REF\u002A\u002A*%
X160155000Y-96570000D03*
%TD*%
%TO.C,REF\u002A\u002A*%
X108155000Y-41600000D03*
%TD*%
D14*
%TO.C,REF\u002A\u002A*%
X137180000Y-59825000D03*
%TD*%
%TO.C,REF\u002A\u002A*%
X95905000Y-102225000D03*
%TD*%
D12*
%TO.C,REF\u002A\u002A*%
X115755000Y-96675000D03*
%TD*%
%TO.C,REF\u002A\u002A*%
X109880000Y-41225000D03*
%TD*%
D16*
%TO.C,C2*%
X118480000Y-67845000D03*
X118480000Y-69395000D03*
%TD*%
D15*
%TO.C,C1*%
X117680000Y-75900000D03*
X119230000Y-75900000D03*
%TD*%
D17*
%TO.C,R6*%
X114195000Y-73660000D03*
X112545000Y-73660000D03*
%TD*%
D22*
%TO.C,R5*%
X112535000Y-76890000D03*
X114185000Y-76890000D03*
%TD*%
D18*
%TO.C,J2*%
X100400000Y-70970000D03*
X100400000Y-68969999D03*
X100400000Y-66970000D03*
%TD*%
D19*
%TO.C,BT1*%
X119036758Y-65323355D03*
D20*
X120473243Y-61376646D03*
%TD*%
D26*
%TO.C,R2*%
X122490000Y-69490000D03*
X123187320Y-67994594D03*
%TD*%
D16*
%TO.C,C3*%
X112540000Y-67835000D03*
X112540000Y-69385000D03*
%TD*%
D40*
%TO.C,D6*%
X107850000Y-51090000D03*
X106476493Y-48144500D03*
%TD*%
D21*
%TO.C,U3*%
X107115001Y-70802500D03*
X106465000Y-70802501D03*
X105815000Y-70802499D03*
X105165000Y-70802500D03*
X104515000Y-70802500D03*
X103865001Y-70802500D03*
X103215000Y-70802501D03*
X102565000Y-70802499D03*
X102564999Y-65077500D03*
X103215000Y-65077499D03*
X103865000Y-65077501D03*
X104515000Y-65077500D03*
X105165000Y-65077500D03*
X105814999Y-65077500D03*
X106465000Y-65077499D03*
X107115000Y-65077501D03*
%TD*%
D27*
%TO.C,C6*%
X104510000Y-72700000D03*
X103550000Y-72700000D03*
%TD*%
D23*
%TO.C,C4*%
X104510000Y-74225000D03*
X102610000Y-74225000D03*
%TD*%
D28*
%TO.C,R3*%
X120120000Y-71955000D03*
X120120000Y-73605000D03*
%TD*%
D24*
%TO.C,D2*%
X108350000Y-81805000D03*
X108350000Y-80230000D03*
%TD*%
D42*
%TO.C,Q1*%
X106200000Y-75022500D03*
X108100000Y-75022500D03*
X107150000Y-76897500D03*
%TD*%
D28*
%TO.C,R11*%
X112230000Y-50790000D03*
X112230000Y-52440000D03*
%TD*%
D26*
%TO.C,R1*%
X121081340Y-68847703D03*
X121778660Y-67352297D03*
%TD*%
D39*
%TO.C,D1*%
X114157500Y-72030000D03*
X112582500Y-72030000D03*
%TD*%
D29*
%TO.C,U1*%
X116042500Y-73930000D03*
X116042500Y-72980000D03*
X116042500Y-72030000D03*
X118317500Y-72030000D03*
X118317500Y-72980000D03*
X118317500Y-73930000D03*
%TD*%
D22*
%TO.C,R8*%
X106245000Y-73230000D03*
X107895000Y-73230000D03*
%TD*%
D25*
%TO.C,M1*%
X111099999Y-81987500D03*
X111100000Y-79987500D03*
%TD*%
D38*
%TO.C,U2*%
X116697500Y-67840000D03*
X116697500Y-68790000D03*
X116697500Y-69740000D03*
X114422500Y-69740000D03*
X114422500Y-67840000D03*
%TD*%
D30*
%TO.C,J1*%
X123862930Y-71695256D03*
D31*
X123009242Y-73525998D03*
D32*
X122489420Y-74640756D03*
D33*
X123440312Y-72601565D03*
D34*
X124294001Y-70770822D03*
D35*
X124813821Y-69656064D03*
D36*
X125867387Y-67526827D03*
D37*
X129111969Y-69039801D03*
X124780133Y-78329455D03*
D36*
X121535550Y-76816482D03*
%TD*%
D17*
%TO.C,R4*%
X114195000Y-75270000D03*
X112545000Y-75270000D03*
%TD*%
%TO.C,R7*%
X104525000Y-76080000D03*
X102875000Y-76080000D03*
%TD*%
D41*
%TO.C,D5*%
X114320000Y-49380000D03*
X113478839Y-46240742D03*
%TD*%
D28*
%TO.C,R12*%
X110680000Y-50785000D03*
X110680000Y-52435000D03*
%TD*%
D12*
%TO.C,REF\u002A\u002A*%
X116580000Y-96600000D03*
%TD*%
%TO.C,REF\u002A\u002A*%
X109030000Y-41400000D03*
%TD*%
D14*
%TO.C,REF\u002A\u002A*%
X108980000Y-31675000D03*
%TD*%
D12*
%TO.C,REF\u002A\u002A*%
X114805000Y-96550000D03*
%TD*%
%TO.C,REF\u002A\u002A*%
X70505000Y-96675000D03*
%TD*%
%TO.C,REF\u002A\u002A*%
X69555000Y-96550000D03*
%TD*%
%TO.C,REF\u002A\u002A*%
X64630000Y-41225000D03*
%TD*%
%TO.C,REF\u002A\u002A*%
X63780000Y-41400000D03*
%TD*%
D13*
%TO.C,REF\u002A\u002A*%
X46530000Y-102150000D03*
%TD*%
D12*
%TO.C,REF\u002A\u002A*%
X71330000Y-96600000D03*
%TD*%
%TO.C,REF\u002A\u002A*%
X62905000Y-41600000D03*
%TD*%
D13*
%TO.C,REF\u002A\u002A*%
X46530000Y-31700000D03*
%TD*%
D41*
%TO.C,D5*%
X69070000Y-49380000D03*
X68228839Y-46240742D03*
%TD*%
D30*
%TO.C,J1*%
X78612930Y-71695256D03*
D31*
X77759242Y-73525998D03*
D32*
X77239420Y-74640756D03*
D33*
X78190312Y-72601565D03*
D34*
X79044001Y-70770822D03*
D35*
X79563821Y-69656064D03*
D36*
X80617387Y-67526827D03*
D37*
X83861969Y-69039801D03*
X79530133Y-78329455D03*
D36*
X76285550Y-76816482D03*
%TD*%
D38*
%TO.C,U2*%
X71447500Y-67840000D03*
X71447500Y-68790000D03*
X71447500Y-69740000D03*
X69172500Y-69740000D03*
X69172500Y-67840000D03*
%TD*%
D29*
%TO.C,U1*%
X70792500Y-73930000D03*
X70792500Y-72980000D03*
X70792500Y-72030000D03*
X73067500Y-72030000D03*
X73067500Y-72980000D03*
X73067500Y-73930000D03*
%TD*%
D26*
%TO.C,R1*%
X75831340Y-68847703D03*
X76528660Y-67352297D03*
%TD*%
D28*
%TO.C,R11*%
X66980000Y-50790000D03*
X66980000Y-52440000D03*
%TD*%
D17*
%TO.C,R4*%
X68945000Y-75270000D03*
X67295000Y-75270000D03*
%TD*%
D28*
%TO.C,R12*%
X65430000Y-50785000D03*
X65430000Y-52435000D03*
%TD*%
D39*
%TO.C,D1*%
X68907500Y-72030000D03*
X67332500Y-72030000D03*
%TD*%
D22*
%TO.C,R8*%
X60995000Y-73230000D03*
X62645000Y-73230000D03*
%TD*%
D24*
%TO.C,D2*%
X63100000Y-81805000D03*
X63100000Y-80230000D03*
%TD*%
D25*
%TO.C,M1*%
X65849999Y-81987500D03*
X65850000Y-79987500D03*
%TD*%
D14*
%TO.C,REF\u002A\u002A*%
X63730000Y-31675000D03*
%TD*%
D28*
%TO.C,R3*%
X74870000Y-71955000D03*
X74870000Y-73605000D03*
%TD*%
D23*
%TO.C,C4*%
X59260000Y-74225000D03*
X57360000Y-74225000D03*
%TD*%
D27*
%TO.C,C6*%
X59260000Y-72700000D03*
X58300000Y-72700000D03*
%TD*%
D21*
%TO.C,U3*%
X61865001Y-70802500D03*
X61215000Y-70802501D03*
X60565000Y-70802499D03*
X59915000Y-70802500D03*
X59265000Y-70802500D03*
X58615001Y-70802500D03*
X57965000Y-70802501D03*
X57315000Y-70802499D03*
X57314999Y-65077500D03*
X57965000Y-65077499D03*
X58615000Y-65077501D03*
X59265000Y-65077500D03*
X59915000Y-65077500D03*
X60564999Y-65077500D03*
X61215000Y-65077499D03*
X61865000Y-65077501D03*
%TD*%
D16*
%TO.C,C3*%
X67290000Y-67835000D03*
X67290000Y-69385000D03*
%TD*%
D26*
%TO.C,R2*%
X77240000Y-69490000D03*
X77937320Y-67994594D03*
%TD*%
D14*
%TO.C,REF\u002A\u002A*%
X50655000Y-102225000D03*
%TD*%
D17*
%TO.C,R7*%
X59275000Y-76080000D03*
X57625000Y-76080000D03*
%TD*%
D19*
%TO.C,BT1*%
X73786758Y-65323355D03*
D20*
X75223243Y-61376646D03*
%TD*%
D18*
%TO.C,J2*%
X55150000Y-70970000D03*
X55150000Y-68969999D03*
X55150000Y-66970000D03*
%TD*%
D22*
%TO.C,R5*%
X67285000Y-76890000D03*
X68935000Y-76890000D03*
%TD*%
D17*
%TO.C,R6*%
X68945000Y-73660000D03*
X67295000Y-73660000D03*
%TD*%
D42*
%TO.C,Q1*%
X60950000Y-75022500D03*
X62850000Y-75022500D03*
X61900000Y-76897500D03*
%TD*%
D40*
%TO.C,D6*%
X62600000Y-51090000D03*
X61226493Y-48144500D03*
%TD*%
D16*
%TO.C,C2*%
X73230000Y-67845000D03*
X73230000Y-69395000D03*
%TD*%
D15*
%TO.C,C1*%
X72430000Y-75900000D03*
X73980000Y-75900000D03*
%TD*%
D14*
%TO.C,REF\u002A\u002A*%
X91930000Y-59825000D03*
%TD*%
M02*
