%TF.GenerationSoftware,KiCad,Pcbnew,9.0.0*%
%TF.CreationDate,2026-08-18T23:02:38+03:00*%
%TF.ProjectId,purrCat_2x1,70757272-4361-4745-9f32-78312e6b6963,rev?*%
%TF.SameCoordinates,Original*%
%TF.FileFunction,Legend,Bot*%
%TF.FilePolarity,Positive*%
%FSLAX46Y46*%
G04 Gerber Fmt 4.6, Leading zero omitted, Abs format (unit mm)*
G04 Created by KiCad (PCBNEW 9.0.0) date 2026-08-18 23:02:38*
%MOMM*%
%LPD*%
G01*
G04 APERTURE LIST*
%ADD10C,0.150000*%
%ADD11C,0.100000*%
%ADD12C,0.120000*%
G04 APERTURE END LIST*
D10*
X164051666Y-78089580D02*
X164099285Y-78137200D01*
X164099285Y-78137200D02*
X164242142Y-78184819D01*
X164242142Y-78184819D02*
X164337380Y-78184819D01*
X164337380Y-78184819D02*
X164480237Y-78137200D01*
X164480237Y-78137200D02*
X164575475Y-78041961D01*
X164575475Y-78041961D02*
X164623094Y-77946723D01*
X164623094Y-77946723D02*
X164670713Y-77756247D01*
X164670713Y-77756247D02*
X164670713Y-77613390D01*
X164670713Y-77613390D02*
X164623094Y-77422914D01*
X164623094Y-77422914D02*
X164575475Y-77327676D01*
X164575475Y-77327676D02*
X164480237Y-77232438D01*
X164480237Y-77232438D02*
X164337380Y-77184819D01*
X164337380Y-77184819D02*
X164242142Y-77184819D01*
X164242142Y-77184819D02*
X164099285Y-77232438D01*
X164099285Y-77232438D02*
X164051666Y-77280057D01*
X163099285Y-78184819D02*
X163670713Y-78184819D01*
X163384999Y-78184819D02*
X163384999Y-77184819D01*
X163384999Y-77184819D02*
X163480237Y-77327676D01*
X163480237Y-77327676D02*
X163575475Y-77422914D01*
X163575475Y-77422914D02*
X163670713Y-77470533D01*
X164046666Y-71129580D02*
X164094285Y-71177200D01*
X164094285Y-71177200D02*
X164237142Y-71224819D01*
X164237142Y-71224819D02*
X164332380Y-71224819D01*
X164332380Y-71224819D02*
X164475237Y-71177200D01*
X164475237Y-71177200D02*
X164570475Y-71081961D01*
X164570475Y-71081961D02*
X164618094Y-70986723D01*
X164618094Y-70986723D02*
X164665713Y-70796247D01*
X164665713Y-70796247D02*
X164665713Y-70653390D01*
X164665713Y-70653390D02*
X164618094Y-70462914D01*
X164618094Y-70462914D02*
X164570475Y-70367676D01*
X164570475Y-70367676D02*
X164475237Y-70272438D01*
X164475237Y-70272438D02*
X164332380Y-70224819D01*
X164332380Y-70224819D02*
X164237142Y-70224819D01*
X164237142Y-70224819D02*
X164094285Y-70272438D01*
X164094285Y-70272438D02*
X164046666Y-70320057D01*
X163665713Y-70320057D02*
X163618094Y-70272438D01*
X163618094Y-70272438D02*
X163522856Y-70224819D01*
X163522856Y-70224819D02*
X163284761Y-70224819D01*
X163284761Y-70224819D02*
X163189523Y-70272438D01*
X163189523Y-70272438D02*
X163141904Y-70320057D01*
X163141904Y-70320057D02*
X163094285Y-70415295D01*
X163094285Y-70415295D02*
X163094285Y-70510533D01*
X163094285Y-70510533D02*
X163141904Y-70653390D01*
X163141904Y-70653390D02*
X163713332Y-71224819D01*
X163713332Y-71224819D02*
X163094285Y-71224819D01*
X156446666Y-74144819D02*
X156779999Y-73668628D01*
X157018094Y-74144819D02*
X157018094Y-73144819D01*
X157018094Y-73144819D02*
X156637142Y-73144819D01*
X156637142Y-73144819D02*
X156541904Y-73192438D01*
X156541904Y-73192438D02*
X156494285Y-73240057D01*
X156494285Y-73240057D02*
X156446666Y-73335295D01*
X156446666Y-73335295D02*
X156446666Y-73478152D01*
X156446666Y-73478152D02*
X156494285Y-73573390D01*
X156494285Y-73573390D02*
X156541904Y-73621009D01*
X156541904Y-73621009D02*
X156637142Y-73668628D01*
X156637142Y-73668628D02*
X157018094Y-73668628D01*
X155589523Y-73144819D02*
X155779999Y-73144819D01*
X155779999Y-73144819D02*
X155875237Y-73192438D01*
X155875237Y-73192438D02*
X155922856Y-73240057D01*
X155922856Y-73240057D02*
X156018094Y-73382914D01*
X156018094Y-73382914D02*
X156065713Y-73573390D01*
X156065713Y-73573390D02*
X156065713Y-73954342D01*
X156065713Y-73954342D02*
X156018094Y-74049580D01*
X156018094Y-74049580D02*
X155970475Y-74097200D01*
X155970475Y-74097200D02*
X155875237Y-74144819D01*
X155875237Y-74144819D02*
X155684761Y-74144819D01*
X155684761Y-74144819D02*
X155589523Y-74097200D01*
X155589523Y-74097200D02*
X155541904Y-74049580D01*
X155541904Y-74049580D02*
X155494285Y-73954342D01*
X155494285Y-73954342D02*
X155494285Y-73716247D01*
X155494285Y-73716247D02*
X155541904Y-73621009D01*
X155541904Y-73621009D02*
X155589523Y-73573390D01*
X155589523Y-73573390D02*
X155684761Y-73525771D01*
X155684761Y-73525771D02*
X155875237Y-73525771D01*
X155875237Y-73525771D02*
X155970475Y-73573390D01*
X155970475Y-73573390D02*
X156018094Y-73621009D01*
X156018094Y-73621009D02*
X156065713Y-73716247D01*
X163833900Y-60183073D02*
X163829787Y-60333602D01*
X163829787Y-60333602D02*
X163858248Y-60394636D01*
X163858248Y-60394636D02*
X163931456Y-60471956D01*
X163931456Y-60471956D02*
X164065697Y-60520816D01*
X164065697Y-60520816D02*
X164171479Y-60508642D01*
X164171479Y-60508642D02*
X164232512Y-60480182D01*
X164232512Y-60480182D02*
X164309833Y-60406974D01*
X164309833Y-60406974D02*
X164440126Y-60048996D01*
X164440126Y-60048996D02*
X163500434Y-59706976D01*
X163500434Y-59706976D02*
X163386427Y-60020207D01*
X163386427Y-60020207D02*
X163398601Y-60125988D01*
X163398601Y-60125988D02*
X163427062Y-60187022D01*
X163427062Y-60187022D02*
X163500270Y-60264342D01*
X163500270Y-60264342D02*
X163589764Y-60296916D01*
X163589764Y-60296916D02*
X163695545Y-60284742D01*
X163695545Y-60284742D02*
X163756579Y-60256281D01*
X163756579Y-60256281D02*
X163833900Y-60183073D01*
X163833900Y-60183073D02*
X163947907Y-59869842D01*
X163207274Y-60512427D02*
X163011834Y-61049394D01*
X164049246Y-61122930D02*
X163109554Y-60780910D01*
X163658366Y-62196865D02*
X163853806Y-61659898D01*
X163756086Y-61928381D02*
X162816393Y-61586361D01*
X162816393Y-61586361D02*
X162983209Y-61545727D01*
X162983209Y-61545727D02*
X163105277Y-61488805D01*
X163105277Y-61488805D02*
X163182597Y-61415598D01*
X146546666Y-76599819D02*
X146879999Y-76123628D01*
X147118094Y-76599819D02*
X147118094Y-75599819D01*
X147118094Y-75599819D02*
X146737142Y-75599819D01*
X146737142Y-75599819D02*
X146641904Y-75647438D01*
X146641904Y-75647438D02*
X146594285Y-75695057D01*
X146594285Y-75695057D02*
X146546666Y-75790295D01*
X146546666Y-75790295D02*
X146546666Y-75933152D01*
X146546666Y-75933152D02*
X146594285Y-76028390D01*
X146594285Y-76028390D02*
X146641904Y-76076009D01*
X146641904Y-76076009D02*
X146737142Y-76123628D01*
X146737142Y-76123628D02*
X147118094Y-76123628D01*
X146213332Y-75599819D02*
X145546666Y-75599819D01*
X145546666Y-75599819D02*
X145975237Y-76599819D01*
X156819580Y-68463333D02*
X156867200Y-68415714D01*
X156867200Y-68415714D02*
X156914819Y-68272857D01*
X156914819Y-68272857D02*
X156914819Y-68177619D01*
X156914819Y-68177619D02*
X156867200Y-68034762D01*
X156867200Y-68034762D02*
X156771961Y-67939524D01*
X156771961Y-67939524D02*
X156676723Y-67891905D01*
X156676723Y-67891905D02*
X156486247Y-67844286D01*
X156486247Y-67844286D02*
X156343390Y-67844286D01*
X156343390Y-67844286D02*
X156152914Y-67891905D01*
X156152914Y-67891905D02*
X156057676Y-67939524D01*
X156057676Y-67939524D02*
X155962438Y-68034762D01*
X155962438Y-68034762D02*
X155914819Y-68177619D01*
X155914819Y-68177619D02*
X155914819Y-68272857D01*
X155914819Y-68272857D02*
X155962438Y-68415714D01*
X155962438Y-68415714D02*
X156010057Y-68463333D01*
X155914819Y-68796667D02*
X155914819Y-69415714D01*
X155914819Y-69415714D02*
X156295771Y-69082381D01*
X156295771Y-69082381D02*
X156295771Y-69225238D01*
X156295771Y-69225238D02*
X156343390Y-69320476D01*
X156343390Y-69320476D02*
X156391009Y-69368095D01*
X156391009Y-69368095D02*
X156486247Y-69415714D01*
X156486247Y-69415714D02*
X156724342Y-69415714D01*
X156724342Y-69415714D02*
X156819580Y-69368095D01*
X156819580Y-69368095D02*
X156867200Y-69320476D01*
X156867200Y-69320476D02*
X156914819Y-69225238D01*
X156914819Y-69225238D02*
X156914819Y-68939524D01*
X156914819Y-68939524D02*
X156867200Y-68844286D01*
X156867200Y-68844286D02*
X156819580Y-68796667D01*
X153094818Y-67198094D02*
X153904341Y-67198094D01*
X153904341Y-67198094D02*
X153999579Y-67245713D01*
X153999579Y-67245713D02*
X154047199Y-67293332D01*
X154047199Y-67293332D02*
X154094818Y-67388570D01*
X154094818Y-67388570D02*
X154094818Y-67579046D01*
X154094818Y-67579046D02*
X154047199Y-67674284D01*
X154047199Y-67674284D02*
X153999579Y-67721903D01*
X153999579Y-67721903D02*
X153904341Y-67769522D01*
X153904341Y-67769522D02*
X153094818Y-67769522D01*
X153094818Y-68150475D02*
X153094818Y-68769522D01*
X153094818Y-68769522D02*
X153475770Y-68436189D01*
X153475770Y-68436189D02*
X153475770Y-68579046D01*
X153475770Y-68579046D02*
X153523389Y-68674284D01*
X153523389Y-68674284D02*
X153571008Y-68721903D01*
X153571008Y-68721903D02*
X153666246Y-68769522D01*
X153666246Y-68769522D02*
X153904341Y-68769522D01*
X153904341Y-68769522D02*
X153999579Y-68721903D01*
X153999579Y-68721903D02*
X154047199Y-68674284D01*
X154047199Y-68674284D02*
X154094818Y-68579046D01*
X154094818Y-68579046D02*
X154094818Y-68293332D01*
X154094818Y-68293332D02*
X154047199Y-68198094D01*
X154047199Y-68198094D02*
X153999579Y-68150475D01*
X156466666Y-77354819D02*
X156799999Y-76878628D01*
X157038094Y-77354819D02*
X157038094Y-76354819D01*
X157038094Y-76354819D02*
X156657142Y-76354819D01*
X156657142Y-76354819D02*
X156561904Y-76402438D01*
X156561904Y-76402438D02*
X156514285Y-76450057D01*
X156514285Y-76450057D02*
X156466666Y-76545295D01*
X156466666Y-76545295D02*
X156466666Y-76688152D01*
X156466666Y-76688152D02*
X156514285Y-76783390D01*
X156514285Y-76783390D02*
X156561904Y-76831009D01*
X156561904Y-76831009D02*
X156657142Y-76878628D01*
X156657142Y-76878628D02*
X157038094Y-76878628D01*
X155561904Y-76354819D02*
X156038094Y-76354819D01*
X156038094Y-76354819D02*
X156085713Y-76831009D01*
X156085713Y-76831009D02*
X156038094Y-76783390D01*
X156038094Y-76783390D02*
X155942856Y-76735771D01*
X155942856Y-76735771D02*
X155704761Y-76735771D01*
X155704761Y-76735771D02*
X155609523Y-76783390D01*
X155609523Y-76783390D02*
X155561904Y-76831009D01*
X155561904Y-76831009D02*
X155514285Y-76926247D01*
X155514285Y-76926247D02*
X155514285Y-77164342D01*
X155514285Y-77164342D02*
X155561904Y-77259580D01*
X155561904Y-77259580D02*
X155609523Y-77307200D01*
X155609523Y-77307200D02*
X155704761Y-77354819D01*
X155704761Y-77354819D02*
X155942856Y-77354819D01*
X155942856Y-77354819D02*
X156038094Y-77307200D01*
X156038094Y-77307200D02*
X156085713Y-77259580D01*
X146366666Y-74514580D02*
X146414285Y-74562200D01*
X146414285Y-74562200D02*
X146557142Y-74609819D01*
X146557142Y-74609819D02*
X146652380Y-74609819D01*
X146652380Y-74609819D02*
X146795237Y-74562200D01*
X146795237Y-74562200D02*
X146890475Y-74466961D01*
X146890475Y-74466961D02*
X146938094Y-74371723D01*
X146938094Y-74371723D02*
X146985713Y-74181247D01*
X146985713Y-74181247D02*
X146985713Y-74038390D01*
X146985713Y-74038390D02*
X146938094Y-73847914D01*
X146938094Y-73847914D02*
X146890475Y-73752676D01*
X146890475Y-73752676D02*
X146795237Y-73657438D01*
X146795237Y-73657438D02*
X146652380Y-73609819D01*
X146652380Y-73609819D02*
X146557142Y-73609819D01*
X146557142Y-73609819D02*
X146414285Y-73657438D01*
X146414285Y-73657438D02*
X146366666Y-73705057D01*
X145509523Y-73943152D02*
X145509523Y-74609819D01*
X145747618Y-73562200D02*
X145985713Y-74276485D01*
X145985713Y-74276485D02*
X145366666Y-74276485D01*
X154159819Y-77806905D02*
X153159819Y-77806905D01*
X153159819Y-77806905D02*
X153159819Y-78045000D01*
X153159819Y-78045000D02*
X153207438Y-78187857D01*
X153207438Y-78187857D02*
X153302676Y-78283095D01*
X153302676Y-78283095D02*
X153397914Y-78330714D01*
X153397914Y-78330714D02*
X153588390Y-78378333D01*
X153588390Y-78378333D02*
X153731247Y-78378333D01*
X153731247Y-78378333D02*
X153921723Y-78330714D01*
X153921723Y-78330714D02*
X154016961Y-78283095D01*
X154016961Y-78283095D02*
X154112200Y-78187857D01*
X154112200Y-78187857D02*
X154159819Y-78045000D01*
X154159819Y-78045000D02*
X154159819Y-77806905D01*
X153255057Y-78759286D02*
X153207438Y-78806905D01*
X153207438Y-78806905D02*
X153159819Y-78902143D01*
X153159819Y-78902143D02*
X153159819Y-79140238D01*
X153159819Y-79140238D02*
X153207438Y-79235476D01*
X153207438Y-79235476D02*
X153255057Y-79283095D01*
X153255057Y-79283095D02*
X153350295Y-79330714D01*
X153350295Y-79330714D02*
X153445533Y-79330714D01*
X153445533Y-79330714D02*
X153588390Y-79283095D01*
X153588390Y-79283095D02*
X154159819Y-78711667D01*
X154159819Y-78711667D02*
X154159819Y-79330714D01*
D11*
X157439523Y-78827419D02*
X157439523Y-77827419D01*
X157439523Y-77827419D02*
X157106190Y-78541704D01*
X157106190Y-78541704D02*
X156772857Y-77827419D01*
X156772857Y-77827419D02*
X156772857Y-78827419D01*
X155772857Y-78827419D02*
X156344285Y-78827419D01*
X156058571Y-78827419D02*
X156058571Y-77827419D01*
X156058571Y-77827419D02*
X156153809Y-77970276D01*
X156153809Y-77970276D02*
X156249047Y-78065514D01*
X156249047Y-78065514D02*
X156344285Y-78113133D01*
D10*
X155184819Y-72878333D02*
X154708628Y-72545000D01*
X155184819Y-72306905D02*
X154184819Y-72306905D01*
X154184819Y-72306905D02*
X154184819Y-72687857D01*
X154184819Y-72687857D02*
X154232438Y-72783095D01*
X154232438Y-72783095D02*
X154280057Y-72830714D01*
X154280057Y-72830714D02*
X154375295Y-72878333D01*
X154375295Y-72878333D02*
X154518152Y-72878333D01*
X154518152Y-72878333D02*
X154613390Y-72830714D01*
X154613390Y-72830714D02*
X154661009Y-72783095D01*
X154661009Y-72783095D02*
X154708628Y-72687857D01*
X154708628Y-72687857D02*
X154708628Y-72306905D01*
X154613390Y-73449762D02*
X154565771Y-73354524D01*
X154565771Y-73354524D02*
X154518152Y-73306905D01*
X154518152Y-73306905D02*
X154422914Y-73259286D01*
X154422914Y-73259286D02*
X154375295Y-73259286D01*
X154375295Y-73259286D02*
X154280057Y-73306905D01*
X154280057Y-73306905D02*
X154232438Y-73354524D01*
X154232438Y-73354524D02*
X154184819Y-73449762D01*
X154184819Y-73449762D02*
X154184819Y-73640238D01*
X154184819Y-73640238D02*
X154232438Y-73735476D01*
X154232438Y-73735476D02*
X154280057Y-73783095D01*
X154280057Y-73783095D02*
X154375295Y-73830714D01*
X154375295Y-73830714D02*
X154422914Y-73830714D01*
X154422914Y-73830714D02*
X154518152Y-73783095D01*
X154518152Y-73783095D02*
X154565771Y-73735476D01*
X154565771Y-73735476D02*
X154613390Y-73640238D01*
X154613390Y-73640238D02*
X154613390Y-73449762D01*
X154613390Y-73449762D02*
X154661009Y-73354524D01*
X154661009Y-73354524D02*
X154708628Y-73306905D01*
X154708628Y-73306905D02*
X154803866Y-73259286D01*
X154803866Y-73259286D02*
X154994342Y-73259286D01*
X154994342Y-73259286D02*
X155089580Y-73306905D01*
X155089580Y-73306905D02*
X155137200Y-73354524D01*
X155137200Y-73354524D02*
X155184819Y-73449762D01*
X155184819Y-73449762D02*
X155184819Y-73640238D01*
X155184819Y-73640238D02*
X155137200Y-73735476D01*
X155137200Y-73735476D02*
X155089580Y-73783095D01*
X155089580Y-73783095D02*
X154994342Y-73830714D01*
X154994342Y-73830714D02*
X154803866Y-73830714D01*
X154803866Y-73830714D02*
X154708628Y-73783095D01*
X154708628Y-73783095D02*
X154661009Y-73735476D01*
X154661009Y-73735476D02*
X154613390Y-73640238D01*
X169067496Y-67344938D02*
X169570845Y-67054235D01*
X169585386Y-67586434D02*
X170008004Y-66680126D01*
X170008004Y-66680126D02*
X169662744Y-66519129D01*
X169662744Y-66519129D02*
X169556304Y-66522037D01*
X169556304Y-66522037D02*
X169493022Y-66545070D01*
X169493022Y-66545070D02*
X169409615Y-66611260D01*
X169409615Y-66611260D02*
X169349241Y-66740733D01*
X169349241Y-66740733D02*
X169352149Y-66847172D01*
X169352149Y-66847172D02*
X169375182Y-66910454D01*
X169375182Y-66910454D02*
X169441372Y-66993861D01*
X169441372Y-66993861D02*
X169786632Y-67154859D01*
X169104604Y-66363948D02*
X169081571Y-66300665D01*
X169081571Y-66300665D02*
X169015381Y-66217258D01*
X169015381Y-66217258D02*
X168799594Y-66116635D01*
X168799594Y-66116635D02*
X168693154Y-66119543D01*
X168693154Y-66119543D02*
X168629872Y-66142576D01*
X168629872Y-66142576D02*
X168546465Y-66208766D01*
X168546465Y-66208766D02*
X168506215Y-66295081D01*
X168506215Y-66295081D02*
X168488999Y-66444679D01*
X168488999Y-66444679D02*
X168765393Y-67204065D01*
X168765393Y-67204065D02*
X168204345Y-66942444D01*
X147606666Y-73109580D02*
X147654285Y-73157200D01*
X147654285Y-73157200D02*
X147797142Y-73204819D01*
X147797142Y-73204819D02*
X147892380Y-73204819D01*
X147892380Y-73204819D02*
X148035237Y-73157200D01*
X148035237Y-73157200D02*
X148130475Y-73061961D01*
X148130475Y-73061961D02*
X148178094Y-72966723D01*
X148178094Y-72966723D02*
X148225713Y-72776247D01*
X148225713Y-72776247D02*
X148225713Y-72633390D01*
X148225713Y-72633390D02*
X148178094Y-72442914D01*
X148178094Y-72442914D02*
X148130475Y-72347676D01*
X148130475Y-72347676D02*
X148035237Y-72252438D01*
X148035237Y-72252438D02*
X147892380Y-72204819D01*
X147892380Y-72204819D02*
X147797142Y-72204819D01*
X147797142Y-72204819D02*
X147654285Y-72252438D01*
X147654285Y-72252438D02*
X147606666Y-72300057D01*
X146749523Y-72204819D02*
X146939999Y-72204819D01*
X146939999Y-72204819D02*
X147035237Y-72252438D01*
X147035237Y-72252438D02*
X147082856Y-72300057D01*
X147082856Y-72300057D02*
X147178094Y-72442914D01*
X147178094Y-72442914D02*
X147225713Y-72633390D01*
X147225713Y-72633390D02*
X147225713Y-73014342D01*
X147225713Y-73014342D02*
X147178094Y-73109580D01*
X147178094Y-73109580D02*
X147130475Y-73157200D01*
X147130475Y-73157200D02*
X147035237Y-73204819D01*
X147035237Y-73204819D02*
X146844761Y-73204819D01*
X146844761Y-73204819D02*
X146749523Y-73157200D01*
X146749523Y-73157200D02*
X146701904Y-73109580D01*
X146701904Y-73109580D02*
X146654285Y-73014342D01*
X146654285Y-73014342D02*
X146654285Y-72776247D01*
X146654285Y-72776247D02*
X146701904Y-72681009D01*
X146701904Y-72681009D02*
X146749523Y-72633390D01*
X146749523Y-72633390D02*
X146844761Y-72585771D01*
X146844761Y-72585771D02*
X147035237Y-72585771D01*
X147035237Y-72585771D02*
X147130475Y-72633390D01*
X147130475Y-72633390D02*
X147178094Y-72681009D01*
X147178094Y-72681009D02*
X147225713Y-72776247D01*
X159534819Y-52542142D02*
X159058628Y-52208809D01*
X159534819Y-51970714D02*
X158534819Y-51970714D01*
X158534819Y-51970714D02*
X158534819Y-52351666D01*
X158534819Y-52351666D02*
X158582438Y-52446904D01*
X158582438Y-52446904D02*
X158630057Y-52494523D01*
X158630057Y-52494523D02*
X158725295Y-52542142D01*
X158725295Y-52542142D02*
X158868152Y-52542142D01*
X158868152Y-52542142D02*
X158963390Y-52494523D01*
X158963390Y-52494523D02*
X159011009Y-52446904D01*
X159011009Y-52446904D02*
X159058628Y-52351666D01*
X159058628Y-52351666D02*
X159058628Y-51970714D01*
X159534819Y-53494523D02*
X159534819Y-52923095D01*
X159534819Y-53208809D02*
X158534819Y-53208809D01*
X158534819Y-53208809D02*
X158677676Y-53113571D01*
X158677676Y-53113571D02*
X158772914Y-53018333D01*
X158772914Y-53018333D02*
X158820533Y-52923095D01*
X159534819Y-54446904D02*
X159534819Y-53875476D01*
X159534819Y-54161190D02*
X158534819Y-54161190D01*
X158534819Y-54161190D02*
X158677676Y-54065952D01*
X158677676Y-54065952D02*
X158772914Y-53970714D01*
X158772914Y-53970714D02*
X158820533Y-53875476D01*
X162111904Y-75374819D02*
X162111904Y-76184342D01*
X162111904Y-76184342D02*
X162064285Y-76279580D01*
X162064285Y-76279580D02*
X162016666Y-76327200D01*
X162016666Y-76327200D02*
X161921428Y-76374819D01*
X161921428Y-76374819D02*
X161730952Y-76374819D01*
X161730952Y-76374819D02*
X161635714Y-76327200D01*
X161635714Y-76327200D02*
X161588095Y-76279580D01*
X161588095Y-76279580D02*
X161540476Y-76184342D01*
X161540476Y-76184342D02*
X161540476Y-75374819D01*
X160540476Y-76374819D02*
X161111904Y-76374819D01*
X160826190Y-76374819D02*
X160826190Y-75374819D01*
X160826190Y-75374819D02*
X160921428Y-75517676D01*
X160921428Y-75517676D02*
X161016666Y-75612914D01*
X161016666Y-75612914D02*
X161111904Y-75660533D01*
X165964819Y-70183333D02*
X165488628Y-69850000D01*
X165964819Y-69611905D02*
X164964819Y-69611905D01*
X164964819Y-69611905D02*
X164964819Y-69992857D01*
X164964819Y-69992857D02*
X165012438Y-70088095D01*
X165012438Y-70088095D02*
X165060057Y-70135714D01*
X165060057Y-70135714D02*
X165155295Y-70183333D01*
X165155295Y-70183333D02*
X165298152Y-70183333D01*
X165298152Y-70183333D02*
X165393390Y-70135714D01*
X165393390Y-70135714D02*
X165441009Y-70088095D01*
X165441009Y-70088095D02*
X165488628Y-69992857D01*
X165488628Y-69992857D02*
X165488628Y-69611905D01*
X164964819Y-70516667D02*
X164964819Y-71135714D01*
X164964819Y-71135714D02*
X165345771Y-70802381D01*
X165345771Y-70802381D02*
X165345771Y-70945238D01*
X165345771Y-70945238D02*
X165393390Y-71040476D01*
X165393390Y-71040476D02*
X165441009Y-71088095D01*
X165441009Y-71088095D02*
X165536247Y-71135714D01*
X165536247Y-71135714D02*
X165774342Y-71135714D01*
X165774342Y-71135714D02*
X165869580Y-71088095D01*
X165869580Y-71088095D02*
X165917200Y-71040476D01*
X165917200Y-71040476D02*
X165964819Y-70945238D01*
X165964819Y-70945238D02*
X165964819Y-70659524D01*
X165964819Y-70659524D02*
X165917200Y-70564286D01*
X165917200Y-70564286D02*
X165869580Y-70516667D01*
X155114819Y-52537142D02*
X154638628Y-52203809D01*
X155114819Y-51965714D02*
X154114819Y-51965714D01*
X154114819Y-51965714D02*
X154114819Y-52346666D01*
X154114819Y-52346666D02*
X154162438Y-52441904D01*
X154162438Y-52441904D02*
X154210057Y-52489523D01*
X154210057Y-52489523D02*
X154305295Y-52537142D01*
X154305295Y-52537142D02*
X154448152Y-52537142D01*
X154448152Y-52537142D02*
X154543390Y-52489523D01*
X154543390Y-52489523D02*
X154591009Y-52441904D01*
X154591009Y-52441904D02*
X154638628Y-52346666D01*
X154638628Y-52346666D02*
X154638628Y-51965714D01*
X155114819Y-53489523D02*
X155114819Y-52918095D01*
X155114819Y-53203809D02*
X154114819Y-53203809D01*
X154114819Y-53203809D02*
X154257676Y-53108571D01*
X154257676Y-53108571D02*
X154352914Y-53013333D01*
X154352914Y-53013333D02*
X154400533Y-52918095D01*
X154210057Y-53870476D02*
X154162438Y-53918095D01*
X154162438Y-53918095D02*
X154114819Y-54013333D01*
X154114819Y-54013333D02*
X154114819Y-54251428D01*
X154114819Y-54251428D02*
X154162438Y-54346666D01*
X154162438Y-54346666D02*
X154210057Y-54394285D01*
X154210057Y-54394285D02*
X154305295Y-54441904D01*
X154305295Y-54441904D02*
X154400533Y-54441904D01*
X154400533Y-54441904D02*
X154543390Y-54394285D01*
X154543390Y-54394285D02*
X155114819Y-53822857D01*
X155114819Y-53822857D02*
X155114819Y-54441904D01*
X167186771Y-71327493D02*
X167834133Y-71629364D01*
X167834133Y-71629364D02*
X167983730Y-71646580D01*
X167983730Y-71646580D02*
X168110295Y-71600514D01*
X168110295Y-71600514D02*
X168213826Y-71491167D01*
X168213826Y-71491167D02*
X168254076Y-71404852D01*
X167670460Y-72656420D02*
X167911956Y-72138529D01*
X167791208Y-72397475D02*
X166884900Y-71974856D01*
X166884900Y-71974856D02*
X167054622Y-71948915D01*
X167054622Y-71948915D02*
X167181187Y-71902850D01*
X167181187Y-71902850D02*
X167264593Y-71836659D01*
X165962642Y-67486163D02*
X165671939Y-66982814D01*
X166204138Y-66968273D02*
X165297830Y-66545655D01*
X165297830Y-66545655D02*
X165136833Y-66890915D01*
X165136833Y-66890915D02*
X165139741Y-66997355D01*
X165139741Y-66997355D02*
X165162774Y-67060637D01*
X165162774Y-67060637D02*
X165228964Y-67144044D01*
X165228964Y-67144044D02*
X165358437Y-67204418D01*
X165358437Y-67204418D02*
X165464876Y-67201510D01*
X165464876Y-67201510D02*
X165528158Y-67178477D01*
X165528158Y-67178477D02*
X165611565Y-67112287D01*
X165611565Y-67112287D02*
X165772563Y-66767027D01*
X165560148Y-68349314D02*
X165801644Y-67831424D01*
X165680896Y-68090369D02*
X164774588Y-67667750D01*
X164774588Y-67667750D02*
X164944310Y-67641809D01*
X164944310Y-67641809D02*
X165070875Y-67595744D01*
X165070875Y-67595744D02*
X165154282Y-67529553D01*
X160341904Y-65754819D02*
X160341904Y-66564342D01*
X160341904Y-66564342D02*
X160294285Y-66659580D01*
X160294285Y-66659580D02*
X160246666Y-66707200D01*
X160246666Y-66707200D02*
X160151428Y-66754819D01*
X160151428Y-66754819D02*
X159960952Y-66754819D01*
X159960952Y-66754819D02*
X159865714Y-66707200D01*
X159865714Y-66707200D02*
X159818095Y-66659580D01*
X159818095Y-66659580D02*
X159770476Y-66564342D01*
X159770476Y-66564342D02*
X159770476Y-65754819D01*
X159341904Y-65850057D02*
X159294285Y-65802438D01*
X159294285Y-65802438D02*
X159199047Y-65754819D01*
X159199047Y-65754819D02*
X158960952Y-65754819D01*
X158960952Y-65754819D02*
X158865714Y-65802438D01*
X158865714Y-65802438D02*
X158818095Y-65850057D01*
X158818095Y-65850057D02*
X158770476Y-65945295D01*
X158770476Y-65945295D02*
X158770476Y-66040533D01*
X158770476Y-66040533D02*
X158818095Y-66183390D01*
X158818095Y-66183390D02*
X159389523Y-66754819D01*
X159389523Y-66754819D02*
X158770476Y-66754819D01*
X156998094Y-72524819D02*
X156998094Y-71524819D01*
X156998094Y-71524819D02*
X156759999Y-71524819D01*
X156759999Y-71524819D02*
X156617142Y-71572438D01*
X156617142Y-71572438D02*
X156521904Y-71667676D01*
X156521904Y-71667676D02*
X156474285Y-71762914D01*
X156474285Y-71762914D02*
X156426666Y-71953390D01*
X156426666Y-71953390D02*
X156426666Y-72096247D01*
X156426666Y-72096247D02*
X156474285Y-72286723D01*
X156474285Y-72286723D02*
X156521904Y-72381961D01*
X156521904Y-72381961D02*
X156617142Y-72477200D01*
X156617142Y-72477200D02*
X156759999Y-72524819D01*
X156759999Y-72524819D02*
X156998094Y-72524819D01*
X155474285Y-72524819D02*
X156045713Y-72524819D01*
X155759999Y-72524819D02*
X155759999Y-71524819D01*
X155759999Y-71524819D02*
X155855237Y-71667676D01*
X155855237Y-71667676D02*
X155950475Y-71762914D01*
X155950475Y-71762914D02*
X156045713Y-71810533D01*
X151961155Y-46790273D02*
X151538537Y-45883965D01*
X151538537Y-45883965D02*
X151322750Y-45984589D01*
X151322750Y-45984589D02*
X151213402Y-46088120D01*
X151213402Y-46088120D02*
X151167336Y-46214685D01*
X151167336Y-46214685D02*
X151164428Y-46321124D01*
X151164428Y-46321124D02*
X151201769Y-46513879D01*
X151201769Y-46513879D02*
X151262143Y-46643352D01*
X151262143Y-46643352D02*
X151385799Y-46795857D01*
X151385799Y-46795857D02*
X151469206Y-46862047D01*
X151469206Y-46862047D02*
X151595771Y-46908113D01*
X151595771Y-46908113D02*
X151745368Y-46890897D01*
X151745368Y-46890897D02*
X151961155Y-46790273D01*
X150243812Y-46487706D02*
X150416442Y-46407207D01*
X150416442Y-46407207D02*
X150522881Y-46410115D01*
X150522881Y-46410115D02*
X150586164Y-46433148D01*
X150586164Y-46433148D02*
X150732853Y-46522371D01*
X150732853Y-46522371D02*
X150856509Y-46674877D01*
X150856509Y-46674877D02*
X151017506Y-47020137D01*
X151017506Y-47020137D02*
X151014598Y-47126576D01*
X151014598Y-47126576D02*
X150991565Y-47189859D01*
X150991565Y-47189859D02*
X150925375Y-47273266D01*
X150925375Y-47273266D02*
X150752745Y-47353764D01*
X150752745Y-47353764D02*
X150646305Y-47350856D01*
X150646305Y-47350856D02*
X150583023Y-47327823D01*
X150583023Y-47327823D02*
X150499616Y-47261633D01*
X150499616Y-47261633D02*
X150398993Y-47045845D01*
X150398993Y-47045845D02*
X150401901Y-46939406D01*
X150401901Y-46939406D02*
X150424934Y-46876123D01*
X150424934Y-46876123D02*
X150491124Y-46792717D01*
X150491124Y-46792717D02*
X150663754Y-46712218D01*
X150663754Y-46712218D02*
X150770194Y-46715126D01*
X150770194Y-46715126D02*
X150833476Y-46738159D01*
X150833476Y-46738159D02*
X150916883Y-46804349D01*
X159130660Y-45078288D02*
X158871841Y-44112362D01*
X158871841Y-44112362D02*
X158641859Y-44173986D01*
X158641859Y-44173986D02*
X158516194Y-44256956D01*
X158516194Y-44256956D02*
X158448851Y-44373599D01*
X158448851Y-44373599D02*
X158427504Y-44477916D01*
X158427504Y-44477916D02*
X158430806Y-44674227D01*
X158430806Y-44674227D02*
X158467780Y-44812216D01*
X158467780Y-44812216D02*
X158563075Y-44983878D01*
X158563075Y-44983878D02*
X158633721Y-45063546D01*
X158633721Y-45063546D02*
X158750364Y-45130889D01*
X158750364Y-45130889D02*
X158900678Y-45139912D01*
X158900678Y-45139912D02*
X159130660Y-45078288D01*
X157445951Y-44494428D02*
X157905915Y-44371181D01*
X157905915Y-44371181D02*
X158075159Y-44818821D01*
X158075159Y-44818821D02*
X158016838Y-44785149D01*
X158016838Y-44785149D02*
X157912520Y-44763802D01*
X157912520Y-44763802D02*
X157682538Y-44825426D01*
X157682538Y-44825426D02*
X157602869Y-44896072D01*
X157602869Y-44896072D02*
X157569198Y-44954393D01*
X157569198Y-44954393D02*
X157547851Y-45058711D01*
X157547851Y-45058711D02*
X157609474Y-45288693D01*
X157609474Y-45288693D02*
X157680120Y-45368361D01*
X157680120Y-45368361D02*
X157738441Y-45402033D01*
X157738441Y-45402033D02*
X157842759Y-45423380D01*
X157842759Y-45423380D02*
X158072741Y-45361756D01*
X158072741Y-45361756D02*
X158152410Y-45291111D01*
X158152410Y-45291111D02*
X158186081Y-45232789D01*
X151780057Y-77799761D02*
X151732438Y-77704523D01*
X151732438Y-77704523D02*
X151637200Y-77609285D01*
X151637200Y-77609285D02*
X151494342Y-77466428D01*
X151494342Y-77466428D02*
X151446723Y-77371190D01*
X151446723Y-77371190D02*
X151446723Y-77275952D01*
X151684819Y-77323571D02*
X151637200Y-77228333D01*
X151637200Y-77228333D02*
X151541961Y-77133095D01*
X151541961Y-77133095D02*
X151351485Y-77085476D01*
X151351485Y-77085476D02*
X151018152Y-77085476D01*
X151018152Y-77085476D02*
X150827676Y-77133095D01*
X150827676Y-77133095D02*
X150732438Y-77228333D01*
X150732438Y-77228333D02*
X150684819Y-77323571D01*
X150684819Y-77323571D02*
X150684819Y-77514047D01*
X150684819Y-77514047D02*
X150732438Y-77609285D01*
X150732438Y-77609285D02*
X150827676Y-77704523D01*
X150827676Y-77704523D02*
X151018152Y-77752142D01*
X151018152Y-77752142D02*
X151351485Y-77752142D01*
X151351485Y-77752142D02*
X151541961Y-77704523D01*
X151541961Y-77704523D02*
X151637200Y-77609285D01*
X151637200Y-77609285D02*
X151684819Y-77514047D01*
X151684819Y-77514047D02*
X151684819Y-77323571D01*
X151684819Y-78704523D02*
X151684819Y-78133095D01*
X151684819Y-78418809D02*
X150684819Y-78418809D01*
X150684819Y-78418809D02*
X150827676Y-78323571D01*
X150827676Y-78323571D02*
X150922914Y-78228333D01*
X150922914Y-78228333D02*
X150970533Y-78133095D01*
X156466666Y-75704819D02*
X156799999Y-75228628D01*
X157038094Y-75704819D02*
X157038094Y-74704819D01*
X157038094Y-74704819D02*
X156657142Y-74704819D01*
X156657142Y-74704819D02*
X156561904Y-74752438D01*
X156561904Y-74752438D02*
X156514285Y-74800057D01*
X156514285Y-74800057D02*
X156466666Y-74895295D01*
X156466666Y-74895295D02*
X156466666Y-75038152D01*
X156466666Y-75038152D02*
X156514285Y-75133390D01*
X156514285Y-75133390D02*
X156561904Y-75181009D01*
X156561904Y-75181009D02*
X156657142Y-75228628D01*
X156657142Y-75228628D02*
X157038094Y-75228628D01*
X155609523Y-75038152D02*
X155609523Y-75704819D01*
X155847618Y-74657200D02*
X156085713Y-75371485D01*
X156085713Y-75371485D02*
X155466666Y-75371485D01*
X118696666Y-71109580D02*
X118744285Y-71157200D01*
X118744285Y-71157200D02*
X118887142Y-71204819D01*
X118887142Y-71204819D02*
X118982380Y-71204819D01*
X118982380Y-71204819D02*
X119125237Y-71157200D01*
X119125237Y-71157200D02*
X119220475Y-71061961D01*
X119220475Y-71061961D02*
X119268094Y-70966723D01*
X119268094Y-70966723D02*
X119315713Y-70776247D01*
X119315713Y-70776247D02*
X119315713Y-70633390D01*
X119315713Y-70633390D02*
X119268094Y-70442914D01*
X119268094Y-70442914D02*
X119220475Y-70347676D01*
X119220475Y-70347676D02*
X119125237Y-70252438D01*
X119125237Y-70252438D02*
X118982380Y-70204819D01*
X118982380Y-70204819D02*
X118887142Y-70204819D01*
X118887142Y-70204819D02*
X118744285Y-70252438D01*
X118744285Y-70252438D02*
X118696666Y-70300057D01*
X118315713Y-70300057D02*
X118268094Y-70252438D01*
X118268094Y-70252438D02*
X118172856Y-70204819D01*
X118172856Y-70204819D02*
X117934761Y-70204819D01*
X117934761Y-70204819D02*
X117839523Y-70252438D01*
X117839523Y-70252438D02*
X117791904Y-70300057D01*
X117791904Y-70300057D02*
X117744285Y-70395295D01*
X117744285Y-70395295D02*
X117744285Y-70490533D01*
X117744285Y-70490533D02*
X117791904Y-70633390D01*
X117791904Y-70633390D02*
X118363332Y-71204819D01*
X118363332Y-71204819D02*
X117744285Y-71204819D01*
X118701666Y-78069580D02*
X118749285Y-78117200D01*
X118749285Y-78117200D02*
X118892142Y-78164819D01*
X118892142Y-78164819D02*
X118987380Y-78164819D01*
X118987380Y-78164819D02*
X119130237Y-78117200D01*
X119130237Y-78117200D02*
X119225475Y-78021961D01*
X119225475Y-78021961D02*
X119273094Y-77926723D01*
X119273094Y-77926723D02*
X119320713Y-77736247D01*
X119320713Y-77736247D02*
X119320713Y-77593390D01*
X119320713Y-77593390D02*
X119273094Y-77402914D01*
X119273094Y-77402914D02*
X119225475Y-77307676D01*
X119225475Y-77307676D02*
X119130237Y-77212438D01*
X119130237Y-77212438D02*
X118987380Y-77164819D01*
X118987380Y-77164819D02*
X118892142Y-77164819D01*
X118892142Y-77164819D02*
X118749285Y-77212438D01*
X118749285Y-77212438D02*
X118701666Y-77260057D01*
X117749285Y-78164819D02*
X118320713Y-78164819D01*
X118034999Y-78164819D02*
X118034999Y-77164819D01*
X118034999Y-77164819D02*
X118130237Y-77307676D01*
X118130237Y-77307676D02*
X118225475Y-77402914D01*
X118225475Y-77402914D02*
X118320713Y-77450533D01*
X111096666Y-74124819D02*
X111429999Y-73648628D01*
X111668094Y-74124819D02*
X111668094Y-73124819D01*
X111668094Y-73124819D02*
X111287142Y-73124819D01*
X111287142Y-73124819D02*
X111191904Y-73172438D01*
X111191904Y-73172438D02*
X111144285Y-73220057D01*
X111144285Y-73220057D02*
X111096666Y-73315295D01*
X111096666Y-73315295D02*
X111096666Y-73458152D01*
X111096666Y-73458152D02*
X111144285Y-73553390D01*
X111144285Y-73553390D02*
X111191904Y-73601009D01*
X111191904Y-73601009D02*
X111287142Y-73648628D01*
X111287142Y-73648628D02*
X111668094Y-73648628D01*
X110239523Y-73124819D02*
X110429999Y-73124819D01*
X110429999Y-73124819D02*
X110525237Y-73172438D01*
X110525237Y-73172438D02*
X110572856Y-73220057D01*
X110572856Y-73220057D02*
X110668094Y-73362914D01*
X110668094Y-73362914D02*
X110715713Y-73553390D01*
X110715713Y-73553390D02*
X110715713Y-73934342D01*
X110715713Y-73934342D02*
X110668094Y-74029580D01*
X110668094Y-74029580D02*
X110620475Y-74077200D01*
X110620475Y-74077200D02*
X110525237Y-74124819D01*
X110525237Y-74124819D02*
X110334761Y-74124819D01*
X110334761Y-74124819D02*
X110239523Y-74077200D01*
X110239523Y-74077200D02*
X110191904Y-74029580D01*
X110191904Y-74029580D02*
X110144285Y-73934342D01*
X110144285Y-73934342D02*
X110144285Y-73696247D01*
X110144285Y-73696247D02*
X110191904Y-73601009D01*
X110191904Y-73601009D02*
X110239523Y-73553390D01*
X110239523Y-73553390D02*
X110334761Y-73505771D01*
X110334761Y-73505771D02*
X110525237Y-73505771D01*
X110525237Y-73505771D02*
X110620475Y-73553390D01*
X110620475Y-73553390D02*
X110668094Y-73601009D01*
X110668094Y-73601009D02*
X110715713Y-73696247D01*
X111116666Y-77334819D02*
X111449999Y-76858628D01*
X111688094Y-77334819D02*
X111688094Y-76334819D01*
X111688094Y-76334819D02*
X111307142Y-76334819D01*
X111307142Y-76334819D02*
X111211904Y-76382438D01*
X111211904Y-76382438D02*
X111164285Y-76430057D01*
X111164285Y-76430057D02*
X111116666Y-76525295D01*
X111116666Y-76525295D02*
X111116666Y-76668152D01*
X111116666Y-76668152D02*
X111164285Y-76763390D01*
X111164285Y-76763390D02*
X111211904Y-76811009D01*
X111211904Y-76811009D02*
X111307142Y-76858628D01*
X111307142Y-76858628D02*
X111688094Y-76858628D01*
X110211904Y-76334819D02*
X110688094Y-76334819D01*
X110688094Y-76334819D02*
X110735713Y-76811009D01*
X110735713Y-76811009D02*
X110688094Y-76763390D01*
X110688094Y-76763390D02*
X110592856Y-76715771D01*
X110592856Y-76715771D02*
X110354761Y-76715771D01*
X110354761Y-76715771D02*
X110259523Y-76763390D01*
X110259523Y-76763390D02*
X110211904Y-76811009D01*
X110211904Y-76811009D02*
X110164285Y-76906247D01*
X110164285Y-76906247D02*
X110164285Y-77144342D01*
X110164285Y-77144342D02*
X110211904Y-77239580D01*
X110211904Y-77239580D02*
X110259523Y-77287200D01*
X110259523Y-77287200D02*
X110354761Y-77334819D01*
X110354761Y-77334819D02*
X110592856Y-77334819D01*
X110592856Y-77334819D02*
X110688094Y-77287200D01*
X110688094Y-77287200D02*
X110735713Y-77239580D01*
X118483900Y-60163073D02*
X118479787Y-60313602D01*
X118479787Y-60313602D02*
X118508248Y-60374636D01*
X118508248Y-60374636D02*
X118581456Y-60451956D01*
X118581456Y-60451956D02*
X118715697Y-60500816D01*
X118715697Y-60500816D02*
X118821479Y-60488642D01*
X118821479Y-60488642D02*
X118882512Y-60460182D01*
X118882512Y-60460182D02*
X118959833Y-60386974D01*
X118959833Y-60386974D02*
X119090126Y-60028996D01*
X119090126Y-60028996D02*
X118150434Y-59686976D01*
X118150434Y-59686976D02*
X118036427Y-60000207D01*
X118036427Y-60000207D02*
X118048601Y-60105988D01*
X118048601Y-60105988D02*
X118077062Y-60167022D01*
X118077062Y-60167022D02*
X118150270Y-60244342D01*
X118150270Y-60244342D02*
X118239764Y-60276916D01*
X118239764Y-60276916D02*
X118345545Y-60264742D01*
X118345545Y-60264742D02*
X118406579Y-60236281D01*
X118406579Y-60236281D02*
X118483900Y-60163073D01*
X118483900Y-60163073D02*
X118597907Y-59849842D01*
X117857274Y-60492427D02*
X117661834Y-61029394D01*
X118699246Y-61102930D02*
X117759554Y-60760910D01*
X118308366Y-62176865D02*
X118503806Y-61639898D01*
X118406086Y-61908381D02*
X117466393Y-61566361D01*
X117466393Y-61566361D02*
X117633209Y-61525727D01*
X117633209Y-61525727D02*
X117755277Y-61468805D01*
X117755277Y-61468805D02*
X117832597Y-61395598D01*
X123717496Y-67324938D02*
X124220845Y-67034235D01*
X124235386Y-67566434D02*
X124658004Y-66660126D01*
X124658004Y-66660126D02*
X124312744Y-66499129D01*
X124312744Y-66499129D02*
X124206304Y-66502037D01*
X124206304Y-66502037D02*
X124143022Y-66525070D01*
X124143022Y-66525070D02*
X124059615Y-66591260D01*
X124059615Y-66591260D02*
X123999241Y-66720733D01*
X123999241Y-66720733D02*
X124002149Y-66827172D01*
X124002149Y-66827172D02*
X124025182Y-66890454D01*
X124025182Y-66890454D02*
X124091372Y-66973861D01*
X124091372Y-66973861D02*
X124436632Y-67134859D01*
X123754604Y-66343948D02*
X123731571Y-66280665D01*
X123731571Y-66280665D02*
X123665381Y-66197258D01*
X123665381Y-66197258D02*
X123449594Y-66096635D01*
X123449594Y-66096635D02*
X123343154Y-66099543D01*
X123343154Y-66099543D02*
X123279872Y-66122576D01*
X123279872Y-66122576D02*
X123196465Y-66188766D01*
X123196465Y-66188766D02*
X123156215Y-66275081D01*
X123156215Y-66275081D02*
X123138999Y-66424679D01*
X123138999Y-66424679D02*
X123415393Y-67184065D01*
X123415393Y-67184065D02*
X122854345Y-66922444D01*
X111469580Y-68443333D02*
X111517200Y-68395714D01*
X111517200Y-68395714D02*
X111564819Y-68252857D01*
X111564819Y-68252857D02*
X111564819Y-68157619D01*
X111564819Y-68157619D02*
X111517200Y-68014762D01*
X111517200Y-68014762D02*
X111421961Y-67919524D01*
X111421961Y-67919524D02*
X111326723Y-67871905D01*
X111326723Y-67871905D02*
X111136247Y-67824286D01*
X111136247Y-67824286D02*
X110993390Y-67824286D01*
X110993390Y-67824286D02*
X110802914Y-67871905D01*
X110802914Y-67871905D02*
X110707676Y-67919524D01*
X110707676Y-67919524D02*
X110612438Y-68014762D01*
X110612438Y-68014762D02*
X110564819Y-68157619D01*
X110564819Y-68157619D02*
X110564819Y-68252857D01*
X110564819Y-68252857D02*
X110612438Y-68395714D01*
X110612438Y-68395714D02*
X110660057Y-68443333D01*
X110564819Y-68776667D02*
X110564819Y-69395714D01*
X110564819Y-69395714D02*
X110945771Y-69062381D01*
X110945771Y-69062381D02*
X110945771Y-69205238D01*
X110945771Y-69205238D02*
X110993390Y-69300476D01*
X110993390Y-69300476D02*
X111041009Y-69348095D01*
X111041009Y-69348095D02*
X111136247Y-69395714D01*
X111136247Y-69395714D02*
X111374342Y-69395714D01*
X111374342Y-69395714D02*
X111469580Y-69348095D01*
X111469580Y-69348095D02*
X111517200Y-69300476D01*
X111517200Y-69300476D02*
X111564819Y-69205238D01*
X111564819Y-69205238D02*
X111564819Y-68919524D01*
X111564819Y-68919524D02*
X111517200Y-68824286D01*
X111517200Y-68824286D02*
X111469580Y-68776667D01*
X106611155Y-46770273D02*
X106188537Y-45863965D01*
X106188537Y-45863965D02*
X105972750Y-45964589D01*
X105972750Y-45964589D02*
X105863402Y-46068120D01*
X105863402Y-46068120D02*
X105817336Y-46194685D01*
X105817336Y-46194685D02*
X105814428Y-46301124D01*
X105814428Y-46301124D02*
X105851769Y-46493879D01*
X105851769Y-46493879D02*
X105912143Y-46623352D01*
X105912143Y-46623352D02*
X106035799Y-46775857D01*
X106035799Y-46775857D02*
X106119206Y-46842047D01*
X106119206Y-46842047D02*
X106245771Y-46888113D01*
X106245771Y-46888113D02*
X106395368Y-46870897D01*
X106395368Y-46870897D02*
X106611155Y-46770273D01*
X104893812Y-46467706D02*
X105066442Y-46387207D01*
X105066442Y-46387207D02*
X105172881Y-46390115D01*
X105172881Y-46390115D02*
X105236164Y-46413148D01*
X105236164Y-46413148D02*
X105382853Y-46502371D01*
X105382853Y-46502371D02*
X105506509Y-46654877D01*
X105506509Y-46654877D02*
X105667506Y-47000137D01*
X105667506Y-47000137D02*
X105664598Y-47106576D01*
X105664598Y-47106576D02*
X105641565Y-47169859D01*
X105641565Y-47169859D02*
X105575375Y-47253266D01*
X105575375Y-47253266D02*
X105402745Y-47333764D01*
X105402745Y-47333764D02*
X105296305Y-47330856D01*
X105296305Y-47330856D02*
X105233023Y-47307823D01*
X105233023Y-47307823D02*
X105149616Y-47241633D01*
X105149616Y-47241633D02*
X105048993Y-47025845D01*
X105048993Y-47025845D02*
X105051901Y-46919406D01*
X105051901Y-46919406D02*
X105074934Y-46856123D01*
X105074934Y-46856123D02*
X105141124Y-46772717D01*
X105141124Y-46772717D02*
X105313754Y-46692218D01*
X105313754Y-46692218D02*
X105420194Y-46695126D01*
X105420194Y-46695126D02*
X105483476Y-46718159D01*
X105483476Y-46718159D02*
X105566883Y-46784349D01*
X107744818Y-67178094D02*
X108554341Y-67178094D01*
X108554341Y-67178094D02*
X108649579Y-67225713D01*
X108649579Y-67225713D02*
X108697199Y-67273332D01*
X108697199Y-67273332D02*
X108744818Y-67368570D01*
X108744818Y-67368570D02*
X108744818Y-67559046D01*
X108744818Y-67559046D02*
X108697199Y-67654284D01*
X108697199Y-67654284D02*
X108649579Y-67701903D01*
X108649579Y-67701903D02*
X108554341Y-67749522D01*
X108554341Y-67749522D02*
X107744818Y-67749522D01*
X107744818Y-68130475D02*
X107744818Y-68749522D01*
X107744818Y-68749522D02*
X108125770Y-68416189D01*
X108125770Y-68416189D02*
X108125770Y-68559046D01*
X108125770Y-68559046D02*
X108173389Y-68654284D01*
X108173389Y-68654284D02*
X108221008Y-68701903D01*
X108221008Y-68701903D02*
X108316246Y-68749522D01*
X108316246Y-68749522D02*
X108554341Y-68749522D01*
X108554341Y-68749522D02*
X108649579Y-68701903D01*
X108649579Y-68701903D02*
X108697199Y-68654284D01*
X108697199Y-68654284D02*
X108744818Y-68559046D01*
X108744818Y-68559046D02*
X108744818Y-68273332D01*
X108744818Y-68273332D02*
X108697199Y-68178094D01*
X108697199Y-68178094D02*
X108649579Y-68130475D01*
X102256666Y-73089580D02*
X102304285Y-73137200D01*
X102304285Y-73137200D02*
X102447142Y-73184819D01*
X102447142Y-73184819D02*
X102542380Y-73184819D01*
X102542380Y-73184819D02*
X102685237Y-73137200D01*
X102685237Y-73137200D02*
X102780475Y-73041961D01*
X102780475Y-73041961D02*
X102828094Y-72946723D01*
X102828094Y-72946723D02*
X102875713Y-72756247D01*
X102875713Y-72756247D02*
X102875713Y-72613390D01*
X102875713Y-72613390D02*
X102828094Y-72422914D01*
X102828094Y-72422914D02*
X102780475Y-72327676D01*
X102780475Y-72327676D02*
X102685237Y-72232438D01*
X102685237Y-72232438D02*
X102542380Y-72184819D01*
X102542380Y-72184819D02*
X102447142Y-72184819D01*
X102447142Y-72184819D02*
X102304285Y-72232438D01*
X102304285Y-72232438D02*
X102256666Y-72280057D01*
X101399523Y-72184819D02*
X101589999Y-72184819D01*
X101589999Y-72184819D02*
X101685237Y-72232438D01*
X101685237Y-72232438D02*
X101732856Y-72280057D01*
X101732856Y-72280057D02*
X101828094Y-72422914D01*
X101828094Y-72422914D02*
X101875713Y-72613390D01*
X101875713Y-72613390D02*
X101875713Y-72994342D01*
X101875713Y-72994342D02*
X101828094Y-73089580D01*
X101828094Y-73089580D02*
X101780475Y-73137200D01*
X101780475Y-73137200D02*
X101685237Y-73184819D01*
X101685237Y-73184819D02*
X101494761Y-73184819D01*
X101494761Y-73184819D02*
X101399523Y-73137200D01*
X101399523Y-73137200D02*
X101351904Y-73089580D01*
X101351904Y-73089580D02*
X101304285Y-72994342D01*
X101304285Y-72994342D02*
X101304285Y-72756247D01*
X101304285Y-72756247D02*
X101351904Y-72661009D01*
X101351904Y-72661009D02*
X101399523Y-72613390D01*
X101399523Y-72613390D02*
X101494761Y-72565771D01*
X101494761Y-72565771D02*
X101685237Y-72565771D01*
X101685237Y-72565771D02*
X101780475Y-72613390D01*
X101780475Y-72613390D02*
X101828094Y-72661009D01*
X101828094Y-72661009D02*
X101875713Y-72756247D01*
X101016666Y-74494580D02*
X101064285Y-74542200D01*
X101064285Y-74542200D02*
X101207142Y-74589819D01*
X101207142Y-74589819D02*
X101302380Y-74589819D01*
X101302380Y-74589819D02*
X101445237Y-74542200D01*
X101445237Y-74542200D02*
X101540475Y-74446961D01*
X101540475Y-74446961D02*
X101588094Y-74351723D01*
X101588094Y-74351723D02*
X101635713Y-74161247D01*
X101635713Y-74161247D02*
X101635713Y-74018390D01*
X101635713Y-74018390D02*
X101588094Y-73827914D01*
X101588094Y-73827914D02*
X101540475Y-73732676D01*
X101540475Y-73732676D02*
X101445237Y-73637438D01*
X101445237Y-73637438D02*
X101302380Y-73589819D01*
X101302380Y-73589819D02*
X101207142Y-73589819D01*
X101207142Y-73589819D02*
X101064285Y-73637438D01*
X101064285Y-73637438D02*
X101016666Y-73685057D01*
X100159523Y-73923152D02*
X100159523Y-74589819D01*
X100397618Y-73542200D02*
X100635713Y-74256485D01*
X100635713Y-74256485D02*
X100016666Y-74256485D01*
X120614819Y-70163333D02*
X120138628Y-69830000D01*
X120614819Y-69591905D02*
X119614819Y-69591905D01*
X119614819Y-69591905D02*
X119614819Y-69972857D01*
X119614819Y-69972857D02*
X119662438Y-70068095D01*
X119662438Y-70068095D02*
X119710057Y-70115714D01*
X119710057Y-70115714D02*
X119805295Y-70163333D01*
X119805295Y-70163333D02*
X119948152Y-70163333D01*
X119948152Y-70163333D02*
X120043390Y-70115714D01*
X120043390Y-70115714D02*
X120091009Y-70068095D01*
X120091009Y-70068095D02*
X120138628Y-69972857D01*
X120138628Y-69972857D02*
X120138628Y-69591905D01*
X119614819Y-70496667D02*
X119614819Y-71115714D01*
X119614819Y-71115714D02*
X119995771Y-70782381D01*
X119995771Y-70782381D02*
X119995771Y-70925238D01*
X119995771Y-70925238D02*
X120043390Y-71020476D01*
X120043390Y-71020476D02*
X120091009Y-71068095D01*
X120091009Y-71068095D02*
X120186247Y-71115714D01*
X120186247Y-71115714D02*
X120424342Y-71115714D01*
X120424342Y-71115714D02*
X120519580Y-71068095D01*
X120519580Y-71068095D02*
X120567200Y-71020476D01*
X120567200Y-71020476D02*
X120614819Y-70925238D01*
X120614819Y-70925238D02*
X120614819Y-70639524D01*
X120614819Y-70639524D02*
X120567200Y-70544286D01*
X120567200Y-70544286D02*
X120519580Y-70496667D01*
X108809819Y-77786905D02*
X107809819Y-77786905D01*
X107809819Y-77786905D02*
X107809819Y-78025000D01*
X107809819Y-78025000D02*
X107857438Y-78167857D01*
X107857438Y-78167857D02*
X107952676Y-78263095D01*
X107952676Y-78263095D02*
X108047914Y-78310714D01*
X108047914Y-78310714D02*
X108238390Y-78358333D01*
X108238390Y-78358333D02*
X108381247Y-78358333D01*
X108381247Y-78358333D02*
X108571723Y-78310714D01*
X108571723Y-78310714D02*
X108666961Y-78263095D01*
X108666961Y-78263095D02*
X108762200Y-78167857D01*
X108762200Y-78167857D02*
X108809819Y-78025000D01*
X108809819Y-78025000D02*
X108809819Y-77786905D01*
X107905057Y-78739286D02*
X107857438Y-78786905D01*
X107857438Y-78786905D02*
X107809819Y-78882143D01*
X107809819Y-78882143D02*
X107809819Y-79120238D01*
X107809819Y-79120238D02*
X107857438Y-79215476D01*
X107857438Y-79215476D02*
X107905057Y-79263095D01*
X107905057Y-79263095D02*
X108000295Y-79310714D01*
X108000295Y-79310714D02*
X108095533Y-79310714D01*
X108095533Y-79310714D02*
X108238390Y-79263095D01*
X108238390Y-79263095D02*
X108809819Y-78691667D01*
X108809819Y-78691667D02*
X108809819Y-79310714D01*
X106430057Y-77779761D02*
X106382438Y-77684523D01*
X106382438Y-77684523D02*
X106287200Y-77589285D01*
X106287200Y-77589285D02*
X106144342Y-77446428D01*
X106144342Y-77446428D02*
X106096723Y-77351190D01*
X106096723Y-77351190D02*
X106096723Y-77255952D01*
X106334819Y-77303571D02*
X106287200Y-77208333D01*
X106287200Y-77208333D02*
X106191961Y-77113095D01*
X106191961Y-77113095D02*
X106001485Y-77065476D01*
X106001485Y-77065476D02*
X105668152Y-77065476D01*
X105668152Y-77065476D02*
X105477676Y-77113095D01*
X105477676Y-77113095D02*
X105382438Y-77208333D01*
X105382438Y-77208333D02*
X105334819Y-77303571D01*
X105334819Y-77303571D02*
X105334819Y-77494047D01*
X105334819Y-77494047D02*
X105382438Y-77589285D01*
X105382438Y-77589285D02*
X105477676Y-77684523D01*
X105477676Y-77684523D02*
X105668152Y-77732142D01*
X105668152Y-77732142D02*
X106001485Y-77732142D01*
X106001485Y-77732142D02*
X106191961Y-77684523D01*
X106191961Y-77684523D02*
X106287200Y-77589285D01*
X106287200Y-77589285D02*
X106334819Y-77494047D01*
X106334819Y-77494047D02*
X106334819Y-77303571D01*
X106334819Y-78684523D02*
X106334819Y-78113095D01*
X106334819Y-78398809D02*
X105334819Y-78398809D01*
X105334819Y-78398809D02*
X105477676Y-78303571D01*
X105477676Y-78303571D02*
X105572914Y-78208333D01*
X105572914Y-78208333D02*
X105620533Y-78113095D01*
X114184819Y-52522142D02*
X113708628Y-52188809D01*
X114184819Y-51950714D02*
X113184819Y-51950714D01*
X113184819Y-51950714D02*
X113184819Y-52331666D01*
X113184819Y-52331666D02*
X113232438Y-52426904D01*
X113232438Y-52426904D02*
X113280057Y-52474523D01*
X113280057Y-52474523D02*
X113375295Y-52522142D01*
X113375295Y-52522142D02*
X113518152Y-52522142D01*
X113518152Y-52522142D02*
X113613390Y-52474523D01*
X113613390Y-52474523D02*
X113661009Y-52426904D01*
X113661009Y-52426904D02*
X113708628Y-52331666D01*
X113708628Y-52331666D02*
X113708628Y-51950714D01*
X114184819Y-53474523D02*
X114184819Y-52903095D01*
X114184819Y-53188809D02*
X113184819Y-53188809D01*
X113184819Y-53188809D02*
X113327676Y-53093571D01*
X113327676Y-53093571D02*
X113422914Y-52998333D01*
X113422914Y-52998333D02*
X113470533Y-52903095D01*
X114184819Y-54426904D02*
X114184819Y-53855476D01*
X114184819Y-54141190D02*
X113184819Y-54141190D01*
X113184819Y-54141190D02*
X113327676Y-54045952D01*
X113327676Y-54045952D02*
X113422914Y-53950714D01*
X113422914Y-53950714D02*
X113470533Y-53855476D01*
X120612642Y-67466163D02*
X120321939Y-66962814D01*
X120854138Y-66948273D02*
X119947830Y-66525655D01*
X119947830Y-66525655D02*
X119786833Y-66870915D01*
X119786833Y-66870915D02*
X119789741Y-66977355D01*
X119789741Y-66977355D02*
X119812774Y-67040637D01*
X119812774Y-67040637D02*
X119878964Y-67124044D01*
X119878964Y-67124044D02*
X120008437Y-67184418D01*
X120008437Y-67184418D02*
X120114876Y-67181510D01*
X120114876Y-67181510D02*
X120178158Y-67158477D01*
X120178158Y-67158477D02*
X120261565Y-67092287D01*
X120261565Y-67092287D02*
X120422563Y-66747027D01*
X120210148Y-68329314D02*
X120451644Y-67811424D01*
X120330896Y-68070369D02*
X119424588Y-67647750D01*
X119424588Y-67647750D02*
X119594310Y-67621809D01*
X119594310Y-67621809D02*
X119720875Y-67575744D01*
X119720875Y-67575744D02*
X119804282Y-67509553D01*
X111648094Y-72504819D02*
X111648094Y-71504819D01*
X111648094Y-71504819D02*
X111409999Y-71504819D01*
X111409999Y-71504819D02*
X111267142Y-71552438D01*
X111267142Y-71552438D02*
X111171904Y-71647676D01*
X111171904Y-71647676D02*
X111124285Y-71742914D01*
X111124285Y-71742914D02*
X111076666Y-71933390D01*
X111076666Y-71933390D02*
X111076666Y-72076247D01*
X111076666Y-72076247D02*
X111124285Y-72266723D01*
X111124285Y-72266723D02*
X111171904Y-72361961D01*
X111171904Y-72361961D02*
X111267142Y-72457200D01*
X111267142Y-72457200D02*
X111409999Y-72504819D01*
X111409999Y-72504819D02*
X111648094Y-72504819D01*
X110124285Y-72504819D02*
X110695713Y-72504819D01*
X110409999Y-72504819D02*
X110409999Y-71504819D01*
X110409999Y-71504819D02*
X110505237Y-71647676D01*
X110505237Y-71647676D02*
X110600475Y-71742914D01*
X110600475Y-71742914D02*
X110695713Y-71790533D01*
X116761904Y-75354819D02*
X116761904Y-76164342D01*
X116761904Y-76164342D02*
X116714285Y-76259580D01*
X116714285Y-76259580D02*
X116666666Y-76307200D01*
X116666666Y-76307200D02*
X116571428Y-76354819D01*
X116571428Y-76354819D02*
X116380952Y-76354819D01*
X116380952Y-76354819D02*
X116285714Y-76307200D01*
X116285714Y-76307200D02*
X116238095Y-76259580D01*
X116238095Y-76259580D02*
X116190476Y-76164342D01*
X116190476Y-76164342D02*
X116190476Y-75354819D01*
X115190476Y-76354819D02*
X115761904Y-76354819D01*
X115476190Y-76354819D02*
X115476190Y-75354819D01*
X115476190Y-75354819D02*
X115571428Y-75497676D01*
X115571428Y-75497676D02*
X115666666Y-75592914D01*
X115666666Y-75592914D02*
X115761904Y-75640533D01*
X109834819Y-72858333D02*
X109358628Y-72525000D01*
X109834819Y-72286905D02*
X108834819Y-72286905D01*
X108834819Y-72286905D02*
X108834819Y-72667857D01*
X108834819Y-72667857D02*
X108882438Y-72763095D01*
X108882438Y-72763095D02*
X108930057Y-72810714D01*
X108930057Y-72810714D02*
X109025295Y-72858333D01*
X109025295Y-72858333D02*
X109168152Y-72858333D01*
X109168152Y-72858333D02*
X109263390Y-72810714D01*
X109263390Y-72810714D02*
X109311009Y-72763095D01*
X109311009Y-72763095D02*
X109358628Y-72667857D01*
X109358628Y-72667857D02*
X109358628Y-72286905D01*
X109263390Y-73429762D02*
X109215771Y-73334524D01*
X109215771Y-73334524D02*
X109168152Y-73286905D01*
X109168152Y-73286905D02*
X109072914Y-73239286D01*
X109072914Y-73239286D02*
X109025295Y-73239286D01*
X109025295Y-73239286D02*
X108930057Y-73286905D01*
X108930057Y-73286905D02*
X108882438Y-73334524D01*
X108882438Y-73334524D02*
X108834819Y-73429762D01*
X108834819Y-73429762D02*
X108834819Y-73620238D01*
X108834819Y-73620238D02*
X108882438Y-73715476D01*
X108882438Y-73715476D02*
X108930057Y-73763095D01*
X108930057Y-73763095D02*
X109025295Y-73810714D01*
X109025295Y-73810714D02*
X109072914Y-73810714D01*
X109072914Y-73810714D02*
X109168152Y-73763095D01*
X109168152Y-73763095D02*
X109215771Y-73715476D01*
X109215771Y-73715476D02*
X109263390Y-73620238D01*
X109263390Y-73620238D02*
X109263390Y-73429762D01*
X109263390Y-73429762D02*
X109311009Y-73334524D01*
X109311009Y-73334524D02*
X109358628Y-73286905D01*
X109358628Y-73286905D02*
X109453866Y-73239286D01*
X109453866Y-73239286D02*
X109644342Y-73239286D01*
X109644342Y-73239286D02*
X109739580Y-73286905D01*
X109739580Y-73286905D02*
X109787200Y-73334524D01*
X109787200Y-73334524D02*
X109834819Y-73429762D01*
X109834819Y-73429762D02*
X109834819Y-73620238D01*
X109834819Y-73620238D02*
X109787200Y-73715476D01*
X109787200Y-73715476D02*
X109739580Y-73763095D01*
X109739580Y-73763095D02*
X109644342Y-73810714D01*
X109644342Y-73810714D02*
X109453866Y-73810714D01*
X109453866Y-73810714D02*
X109358628Y-73763095D01*
X109358628Y-73763095D02*
X109311009Y-73715476D01*
X109311009Y-73715476D02*
X109263390Y-73620238D01*
D11*
X112089523Y-78807419D02*
X112089523Y-77807419D01*
X112089523Y-77807419D02*
X111756190Y-78521704D01*
X111756190Y-78521704D02*
X111422857Y-77807419D01*
X111422857Y-77807419D02*
X111422857Y-78807419D01*
X110422857Y-78807419D02*
X110994285Y-78807419D01*
X110708571Y-78807419D02*
X110708571Y-77807419D01*
X110708571Y-77807419D02*
X110803809Y-77950276D01*
X110803809Y-77950276D02*
X110899047Y-78045514D01*
X110899047Y-78045514D02*
X110994285Y-78093133D01*
D10*
X114991904Y-65734819D02*
X114991904Y-66544342D01*
X114991904Y-66544342D02*
X114944285Y-66639580D01*
X114944285Y-66639580D02*
X114896666Y-66687200D01*
X114896666Y-66687200D02*
X114801428Y-66734819D01*
X114801428Y-66734819D02*
X114610952Y-66734819D01*
X114610952Y-66734819D02*
X114515714Y-66687200D01*
X114515714Y-66687200D02*
X114468095Y-66639580D01*
X114468095Y-66639580D02*
X114420476Y-66544342D01*
X114420476Y-66544342D02*
X114420476Y-65734819D01*
X113991904Y-65830057D02*
X113944285Y-65782438D01*
X113944285Y-65782438D02*
X113849047Y-65734819D01*
X113849047Y-65734819D02*
X113610952Y-65734819D01*
X113610952Y-65734819D02*
X113515714Y-65782438D01*
X113515714Y-65782438D02*
X113468095Y-65830057D01*
X113468095Y-65830057D02*
X113420476Y-65925295D01*
X113420476Y-65925295D02*
X113420476Y-66020533D01*
X113420476Y-66020533D02*
X113468095Y-66163390D01*
X113468095Y-66163390D02*
X114039523Y-66734819D01*
X114039523Y-66734819D02*
X113420476Y-66734819D01*
X121836771Y-71307493D02*
X122484133Y-71609364D01*
X122484133Y-71609364D02*
X122633730Y-71626580D01*
X122633730Y-71626580D02*
X122760295Y-71580514D01*
X122760295Y-71580514D02*
X122863826Y-71471167D01*
X122863826Y-71471167D02*
X122904076Y-71384852D01*
X122320460Y-72636420D02*
X122561956Y-72118529D01*
X122441208Y-72377475D02*
X121534900Y-71954856D01*
X121534900Y-71954856D02*
X121704622Y-71928915D01*
X121704622Y-71928915D02*
X121831187Y-71882850D01*
X121831187Y-71882850D02*
X121914593Y-71816659D01*
X111116666Y-75684819D02*
X111449999Y-75208628D01*
X111688094Y-75684819D02*
X111688094Y-74684819D01*
X111688094Y-74684819D02*
X111307142Y-74684819D01*
X111307142Y-74684819D02*
X111211904Y-74732438D01*
X111211904Y-74732438D02*
X111164285Y-74780057D01*
X111164285Y-74780057D02*
X111116666Y-74875295D01*
X111116666Y-74875295D02*
X111116666Y-75018152D01*
X111116666Y-75018152D02*
X111164285Y-75113390D01*
X111164285Y-75113390D02*
X111211904Y-75161009D01*
X111211904Y-75161009D02*
X111307142Y-75208628D01*
X111307142Y-75208628D02*
X111688094Y-75208628D01*
X110259523Y-75018152D02*
X110259523Y-75684819D01*
X110497618Y-74637200D02*
X110735713Y-75351485D01*
X110735713Y-75351485D02*
X110116666Y-75351485D01*
X101196666Y-76579819D02*
X101529999Y-76103628D01*
X101768094Y-76579819D02*
X101768094Y-75579819D01*
X101768094Y-75579819D02*
X101387142Y-75579819D01*
X101387142Y-75579819D02*
X101291904Y-75627438D01*
X101291904Y-75627438D02*
X101244285Y-75675057D01*
X101244285Y-75675057D02*
X101196666Y-75770295D01*
X101196666Y-75770295D02*
X101196666Y-75913152D01*
X101196666Y-75913152D02*
X101244285Y-76008390D01*
X101244285Y-76008390D02*
X101291904Y-76056009D01*
X101291904Y-76056009D02*
X101387142Y-76103628D01*
X101387142Y-76103628D02*
X101768094Y-76103628D01*
X100863332Y-75579819D02*
X100196666Y-75579819D01*
X100196666Y-75579819D02*
X100625237Y-76579819D01*
X113780660Y-45058288D02*
X113521841Y-44092362D01*
X113521841Y-44092362D02*
X113291859Y-44153986D01*
X113291859Y-44153986D02*
X113166194Y-44236956D01*
X113166194Y-44236956D02*
X113098851Y-44353599D01*
X113098851Y-44353599D02*
X113077504Y-44457916D01*
X113077504Y-44457916D02*
X113080806Y-44654227D01*
X113080806Y-44654227D02*
X113117780Y-44792216D01*
X113117780Y-44792216D02*
X113213075Y-44963878D01*
X113213075Y-44963878D02*
X113283721Y-45043546D01*
X113283721Y-45043546D02*
X113400364Y-45110889D01*
X113400364Y-45110889D02*
X113550678Y-45119912D01*
X113550678Y-45119912D02*
X113780660Y-45058288D01*
X112095951Y-44474428D02*
X112555915Y-44351181D01*
X112555915Y-44351181D02*
X112725159Y-44798821D01*
X112725159Y-44798821D02*
X112666838Y-44765149D01*
X112666838Y-44765149D02*
X112562520Y-44743802D01*
X112562520Y-44743802D02*
X112332538Y-44805426D01*
X112332538Y-44805426D02*
X112252869Y-44876072D01*
X112252869Y-44876072D02*
X112219198Y-44934393D01*
X112219198Y-44934393D02*
X112197851Y-45038711D01*
X112197851Y-45038711D02*
X112259474Y-45268693D01*
X112259474Y-45268693D02*
X112330120Y-45348361D01*
X112330120Y-45348361D02*
X112388441Y-45382033D01*
X112388441Y-45382033D02*
X112492759Y-45403380D01*
X112492759Y-45403380D02*
X112722741Y-45341756D01*
X112722741Y-45341756D02*
X112802410Y-45271111D01*
X112802410Y-45271111D02*
X112836081Y-45212789D01*
X109764819Y-52517142D02*
X109288628Y-52183809D01*
X109764819Y-51945714D02*
X108764819Y-51945714D01*
X108764819Y-51945714D02*
X108764819Y-52326666D01*
X108764819Y-52326666D02*
X108812438Y-52421904D01*
X108812438Y-52421904D02*
X108860057Y-52469523D01*
X108860057Y-52469523D02*
X108955295Y-52517142D01*
X108955295Y-52517142D02*
X109098152Y-52517142D01*
X109098152Y-52517142D02*
X109193390Y-52469523D01*
X109193390Y-52469523D02*
X109241009Y-52421904D01*
X109241009Y-52421904D02*
X109288628Y-52326666D01*
X109288628Y-52326666D02*
X109288628Y-51945714D01*
X109764819Y-53469523D02*
X109764819Y-52898095D01*
X109764819Y-53183809D02*
X108764819Y-53183809D01*
X108764819Y-53183809D02*
X108907676Y-53088571D01*
X108907676Y-53088571D02*
X109002914Y-52993333D01*
X109002914Y-52993333D02*
X109050533Y-52898095D01*
X108860057Y-53850476D02*
X108812438Y-53898095D01*
X108812438Y-53898095D02*
X108764819Y-53993333D01*
X108764819Y-53993333D02*
X108764819Y-54231428D01*
X108764819Y-54231428D02*
X108812438Y-54326666D01*
X108812438Y-54326666D02*
X108860057Y-54374285D01*
X108860057Y-54374285D02*
X108955295Y-54421904D01*
X108955295Y-54421904D02*
X109050533Y-54421904D01*
X109050533Y-54421904D02*
X109193390Y-54374285D01*
X109193390Y-54374285D02*
X109764819Y-53802857D01*
X109764819Y-53802857D02*
X109764819Y-54421904D01*
X68530660Y-45058288D02*
X68271841Y-44092362D01*
X68271841Y-44092362D02*
X68041859Y-44153986D01*
X68041859Y-44153986D02*
X67916194Y-44236956D01*
X67916194Y-44236956D02*
X67848851Y-44353599D01*
X67848851Y-44353599D02*
X67827504Y-44457916D01*
X67827504Y-44457916D02*
X67830806Y-44654227D01*
X67830806Y-44654227D02*
X67867780Y-44792216D01*
X67867780Y-44792216D02*
X67963075Y-44963878D01*
X67963075Y-44963878D02*
X68033721Y-45043546D01*
X68033721Y-45043546D02*
X68150364Y-45110889D01*
X68150364Y-45110889D02*
X68300678Y-45119912D01*
X68300678Y-45119912D02*
X68530660Y-45058288D01*
X66845951Y-44474428D02*
X67305915Y-44351181D01*
X67305915Y-44351181D02*
X67475159Y-44798821D01*
X67475159Y-44798821D02*
X67416838Y-44765149D01*
X67416838Y-44765149D02*
X67312520Y-44743802D01*
X67312520Y-44743802D02*
X67082538Y-44805426D01*
X67082538Y-44805426D02*
X67002869Y-44876072D01*
X67002869Y-44876072D02*
X66969198Y-44934393D01*
X66969198Y-44934393D02*
X66947851Y-45038711D01*
X66947851Y-45038711D02*
X67009474Y-45268693D01*
X67009474Y-45268693D02*
X67080120Y-45348361D01*
X67080120Y-45348361D02*
X67138441Y-45382033D01*
X67138441Y-45382033D02*
X67242759Y-45403380D01*
X67242759Y-45403380D02*
X67472741Y-45341756D01*
X67472741Y-45341756D02*
X67552410Y-45271111D01*
X67552410Y-45271111D02*
X67586081Y-45212789D01*
X76586771Y-71307493D02*
X77234133Y-71609364D01*
X77234133Y-71609364D02*
X77383730Y-71626580D01*
X77383730Y-71626580D02*
X77510295Y-71580514D01*
X77510295Y-71580514D02*
X77613826Y-71471167D01*
X77613826Y-71471167D02*
X77654076Y-71384852D01*
X77070460Y-72636420D02*
X77311956Y-72118529D01*
X77191208Y-72377475D02*
X76284900Y-71954856D01*
X76284900Y-71954856D02*
X76454622Y-71928915D01*
X76454622Y-71928915D02*
X76581187Y-71882850D01*
X76581187Y-71882850D02*
X76664593Y-71816659D01*
X69741904Y-65734819D02*
X69741904Y-66544342D01*
X69741904Y-66544342D02*
X69694285Y-66639580D01*
X69694285Y-66639580D02*
X69646666Y-66687200D01*
X69646666Y-66687200D02*
X69551428Y-66734819D01*
X69551428Y-66734819D02*
X69360952Y-66734819D01*
X69360952Y-66734819D02*
X69265714Y-66687200D01*
X69265714Y-66687200D02*
X69218095Y-66639580D01*
X69218095Y-66639580D02*
X69170476Y-66544342D01*
X69170476Y-66544342D02*
X69170476Y-65734819D01*
X68741904Y-65830057D02*
X68694285Y-65782438D01*
X68694285Y-65782438D02*
X68599047Y-65734819D01*
X68599047Y-65734819D02*
X68360952Y-65734819D01*
X68360952Y-65734819D02*
X68265714Y-65782438D01*
X68265714Y-65782438D02*
X68218095Y-65830057D01*
X68218095Y-65830057D02*
X68170476Y-65925295D01*
X68170476Y-65925295D02*
X68170476Y-66020533D01*
X68170476Y-66020533D02*
X68218095Y-66163390D01*
X68218095Y-66163390D02*
X68789523Y-66734819D01*
X68789523Y-66734819D02*
X68170476Y-66734819D01*
X71511904Y-75354819D02*
X71511904Y-76164342D01*
X71511904Y-76164342D02*
X71464285Y-76259580D01*
X71464285Y-76259580D02*
X71416666Y-76307200D01*
X71416666Y-76307200D02*
X71321428Y-76354819D01*
X71321428Y-76354819D02*
X71130952Y-76354819D01*
X71130952Y-76354819D02*
X71035714Y-76307200D01*
X71035714Y-76307200D02*
X70988095Y-76259580D01*
X70988095Y-76259580D02*
X70940476Y-76164342D01*
X70940476Y-76164342D02*
X70940476Y-75354819D01*
X69940476Y-76354819D02*
X70511904Y-76354819D01*
X70226190Y-76354819D02*
X70226190Y-75354819D01*
X70226190Y-75354819D02*
X70321428Y-75497676D01*
X70321428Y-75497676D02*
X70416666Y-75592914D01*
X70416666Y-75592914D02*
X70511904Y-75640533D01*
X75362642Y-67466163D02*
X75071939Y-66962814D01*
X75604138Y-66948273D02*
X74697830Y-66525655D01*
X74697830Y-66525655D02*
X74536833Y-66870915D01*
X74536833Y-66870915D02*
X74539741Y-66977355D01*
X74539741Y-66977355D02*
X74562774Y-67040637D01*
X74562774Y-67040637D02*
X74628964Y-67124044D01*
X74628964Y-67124044D02*
X74758437Y-67184418D01*
X74758437Y-67184418D02*
X74864876Y-67181510D01*
X74864876Y-67181510D02*
X74928158Y-67158477D01*
X74928158Y-67158477D02*
X75011565Y-67092287D01*
X75011565Y-67092287D02*
X75172563Y-66747027D01*
X74960148Y-68329314D02*
X75201644Y-67811424D01*
X75080896Y-68070369D02*
X74174588Y-67647750D01*
X74174588Y-67647750D02*
X74344310Y-67621809D01*
X74344310Y-67621809D02*
X74470875Y-67575744D01*
X74470875Y-67575744D02*
X74554282Y-67509553D01*
X68934819Y-52522142D02*
X68458628Y-52188809D01*
X68934819Y-51950714D02*
X67934819Y-51950714D01*
X67934819Y-51950714D02*
X67934819Y-52331666D01*
X67934819Y-52331666D02*
X67982438Y-52426904D01*
X67982438Y-52426904D02*
X68030057Y-52474523D01*
X68030057Y-52474523D02*
X68125295Y-52522142D01*
X68125295Y-52522142D02*
X68268152Y-52522142D01*
X68268152Y-52522142D02*
X68363390Y-52474523D01*
X68363390Y-52474523D02*
X68411009Y-52426904D01*
X68411009Y-52426904D02*
X68458628Y-52331666D01*
X68458628Y-52331666D02*
X68458628Y-51950714D01*
X68934819Y-53474523D02*
X68934819Y-52903095D01*
X68934819Y-53188809D02*
X67934819Y-53188809D01*
X67934819Y-53188809D02*
X68077676Y-53093571D01*
X68077676Y-53093571D02*
X68172914Y-52998333D01*
X68172914Y-52998333D02*
X68220533Y-52903095D01*
X68934819Y-54426904D02*
X68934819Y-53855476D01*
X68934819Y-54141190D02*
X67934819Y-54141190D01*
X67934819Y-54141190D02*
X68077676Y-54045952D01*
X68077676Y-54045952D02*
X68172914Y-53950714D01*
X68172914Y-53950714D02*
X68220533Y-53855476D01*
X65866666Y-75684819D02*
X66199999Y-75208628D01*
X66438094Y-75684819D02*
X66438094Y-74684819D01*
X66438094Y-74684819D02*
X66057142Y-74684819D01*
X66057142Y-74684819D02*
X65961904Y-74732438D01*
X65961904Y-74732438D02*
X65914285Y-74780057D01*
X65914285Y-74780057D02*
X65866666Y-74875295D01*
X65866666Y-74875295D02*
X65866666Y-75018152D01*
X65866666Y-75018152D02*
X65914285Y-75113390D01*
X65914285Y-75113390D02*
X65961904Y-75161009D01*
X65961904Y-75161009D02*
X66057142Y-75208628D01*
X66057142Y-75208628D02*
X66438094Y-75208628D01*
X65009523Y-75018152D02*
X65009523Y-75684819D01*
X65247618Y-74637200D02*
X65485713Y-75351485D01*
X65485713Y-75351485D02*
X64866666Y-75351485D01*
X64514819Y-52517142D02*
X64038628Y-52183809D01*
X64514819Y-51945714D02*
X63514819Y-51945714D01*
X63514819Y-51945714D02*
X63514819Y-52326666D01*
X63514819Y-52326666D02*
X63562438Y-52421904D01*
X63562438Y-52421904D02*
X63610057Y-52469523D01*
X63610057Y-52469523D02*
X63705295Y-52517142D01*
X63705295Y-52517142D02*
X63848152Y-52517142D01*
X63848152Y-52517142D02*
X63943390Y-52469523D01*
X63943390Y-52469523D02*
X63991009Y-52421904D01*
X63991009Y-52421904D02*
X64038628Y-52326666D01*
X64038628Y-52326666D02*
X64038628Y-51945714D01*
X64514819Y-53469523D02*
X64514819Y-52898095D01*
X64514819Y-53183809D02*
X63514819Y-53183809D01*
X63514819Y-53183809D02*
X63657676Y-53088571D01*
X63657676Y-53088571D02*
X63752914Y-52993333D01*
X63752914Y-52993333D02*
X63800533Y-52898095D01*
X63610057Y-53850476D02*
X63562438Y-53898095D01*
X63562438Y-53898095D02*
X63514819Y-53993333D01*
X63514819Y-53993333D02*
X63514819Y-54231428D01*
X63514819Y-54231428D02*
X63562438Y-54326666D01*
X63562438Y-54326666D02*
X63610057Y-54374285D01*
X63610057Y-54374285D02*
X63705295Y-54421904D01*
X63705295Y-54421904D02*
X63800533Y-54421904D01*
X63800533Y-54421904D02*
X63943390Y-54374285D01*
X63943390Y-54374285D02*
X64514819Y-53802857D01*
X64514819Y-53802857D02*
X64514819Y-54421904D01*
X66398094Y-72504819D02*
X66398094Y-71504819D01*
X66398094Y-71504819D02*
X66159999Y-71504819D01*
X66159999Y-71504819D02*
X66017142Y-71552438D01*
X66017142Y-71552438D02*
X65921904Y-71647676D01*
X65921904Y-71647676D02*
X65874285Y-71742914D01*
X65874285Y-71742914D02*
X65826666Y-71933390D01*
X65826666Y-71933390D02*
X65826666Y-72076247D01*
X65826666Y-72076247D02*
X65874285Y-72266723D01*
X65874285Y-72266723D02*
X65921904Y-72361961D01*
X65921904Y-72361961D02*
X66017142Y-72457200D01*
X66017142Y-72457200D02*
X66159999Y-72504819D01*
X66159999Y-72504819D02*
X66398094Y-72504819D01*
X64874285Y-72504819D02*
X65445713Y-72504819D01*
X65159999Y-72504819D02*
X65159999Y-71504819D01*
X65159999Y-71504819D02*
X65255237Y-71647676D01*
X65255237Y-71647676D02*
X65350475Y-71742914D01*
X65350475Y-71742914D02*
X65445713Y-71790533D01*
X64584819Y-72858333D02*
X64108628Y-72525000D01*
X64584819Y-72286905D02*
X63584819Y-72286905D01*
X63584819Y-72286905D02*
X63584819Y-72667857D01*
X63584819Y-72667857D02*
X63632438Y-72763095D01*
X63632438Y-72763095D02*
X63680057Y-72810714D01*
X63680057Y-72810714D02*
X63775295Y-72858333D01*
X63775295Y-72858333D02*
X63918152Y-72858333D01*
X63918152Y-72858333D02*
X64013390Y-72810714D01*
X64013390Y-72810714D02*
X64061009Y-72763095D01*
X64061009Y-72763095D02*
X64108628Y-72667857D01*
X64108628Y-72667857D02*
X64108628Y-72286905D01*
X64013390Y-73429762D02*
X63965771Y-73334524D01*
X63965771Y-73334524D02*
X63918152Y-73286905D01*
X63918152Y-73286905D02*
X63822914Y-73239286D01*
X63822914Y-73239286D02*
X63775295Y-73239286D01*
X63775295Y-73239286D02*
X63680057Y-73286905D01*
X63680057Y-73286905D02*
X63632438Y-73334524D01*
X63632438Y-73334524D02*
X63584819Y-73429762D01*
X63584819Y-73429762D02*
X63584819Y-73620238D01*
X63584819Y-73620238D02*
X63632438Y-73715476D01*
X63632438Y-73715476D02*
X63680057Y-73763095D01*
X63680057Y-73763095D02*
X63775295Y-73810714D01*
X63775295Y-73810714D02*
X63822914Y-73810714D01*
X63822914Y-73810714D02*
X63918152Y-73763095D01*
X63918152Y-73763095D02*
X63965771Y-73715476D01*
X63965771Y-73715476D02*
X64013390Y-73620238D01*
X64013390Y-73620238D02*
X64013390Y-73429762D01*
X64013390Y-73429762D02*
X64061009Y-73334524D01*
X64061009Y-73334524D02*
X64108628Y-73286905D01*
X64108628Y-73286905D02*
X64203866Y-73239286D01*
X64203866Y-73239286D02*
X64394342Y-73239286D01*
X64394342Y-73239286D02*
X64489580Y-73286905D01*
X64489580Y-73286905D02*
X64537200Y-73334524D01*
X64537200Y-73334524D02*
X64584819Y-73429762D01*
X64584819Y-73429762D02*
X64584819Y-73620238D01*
X64584819Y-73620238D02*
X64537200Y-73715476D01*
X64537200Y-73715476D02*
X64489580Y-73763095D01*
X64489580Y-73763095D02*
X64394342Y-73810714D01*
X64394342Y-73810714D02*
X64203866Y-73810714D01*
X64203866Y-73810714D02*
X64108628Y-73763095D01*
X64108628Y-73763095D02*
X64061009Y-73715476D01*
X64061009Y-73715476D02*
X64013390Y-73620238D01*
X63559819Y-77786905D02*
X62559819Y-77786905D01*
X62559819Y-77786905D02*
X62559819Y-78025000D01*
X62559819Y-78025000D02*
X62607438Y-78167857D01*
X62607438Y-78167857D02*
X62702676Y-78263095D01*
X62702676Y-78263095D02*
X62797914Y-78310714D01*
X62797914Y-78310714D02*
X62988390Y-78358333D01*
X62988390Y-78358333D02*
X63131247Y-78358333D01*
X63131247Y-78358333D02*
X63321723Y-78310714D01*
X63321723Y-78310714D02*
X63416961Y-78263095D01*
X63416961Y-78263095D02*
X63512200Y-78167857D01*
X63512200Y-78167857D02*
X63559819Y-78025000D01*
X63559819Y-78025000D02*
X63559819Y-77786905D01*
X62655057Y-78739286D02*
X62607438Y-78786905D01*
X62607438Y-78786905D02*
X62559819Y-78882143D01*
X62559819Y-78882143D02*
X62559819Y-79120238D01*
X62559819Y-79120238D02*
X62607438Y-79215476D01*
X62607438Y-79215476D02*
X62655057Y-79263095D01*
X62655057Y-79263095D02*
X62750295Y-79310714D01*
X62750295Y-79310714D02*
X62845533Y-79310714D01*
X62845533Y-79310714D02*
X62988390Y-79263095D01*
X62988390Y-79263095D02*
X63559819Y-78691667D01*
X63559819Y-78691667D02*
X63559819Y-79310714D01*
D11*
X66839523Y-78807419D02*
X66839523Y-77807419D01*
X66839523Y-77807419D02*
X66506190Y-78521704D01*
X66506190Y-78521704D02*
X66172857Y-77807419D01*
X66172857Y-77807419D02*
X66172857Y-78807419D01*
X65172857Y-78807419D02*
X65744285Y-78807419D01*
X65458571Y-78807419D02*
X65458571Y-77807419D01*
X65458571Y-77807419D02*
X65553809Y-77950276D01*
X65553809Y-77950276D02*
X65649047Y-78045514D01*
X65649047Y-78045514D02*
X65744285Y-78093133D01*
D10*
X75364819Y-70163333D02*
X74888628Y-69830000D01*
X75364819Y-69591905D02*
X74364819Y-69591905D01*
X74364819Y-69591905D02*
X74364819Y-69972857D01*
X74364819Y-69972857D02*
X74412438Y-70068095D01*
X74412438Y-70068095D02*
X74460057Y-70115714D01*
X74460057Y-70115714D02*
X74555295Y-70163333D01*
X74555295Y-70163333D02*
X74698152Y-70163333D01*
X74698152Y-70163333D02*
X74793390Y-70115714D01*
X74793390Y-70115714D02*
X74841009Y-70068095D01*
X74841009Y-70068095D02*
X74888628Y-69972857D01*
X74888628Y-69972857D02*
X74888628Y-69591905D01*
X74364819Y-70496667D02*
X74364819Y-71115714D01*
X74364819Y-71115714D02*
X74745771Y-70782381D01*
X74745771Y-70782381D02*
X74745771Y-70925238D01*
X74745771Y-70925238D02*
X74793390Y-71020476D01*
X74793390Y-71020476D02*
X74841009Y-71068095D01*
X74841009Y-71068095D02*
X74936247Y-71115714D01*
X74936247Y-71115714D02*
X75174342Y-71115714D01*
X75174342Y-71115714D02*
X75269580Y-71068095D01*
X75269580Y-71068095D02*
X75317200Y-71020476D01*
X75317200Y-71020476D02*
X75364819Y-70925238D01*
X75364819Y-70925238D02*
X75364819Y-70639524D01*
X75364819Y-70639524D02*
X75317200Y-70544286D01*
X75317200Y-70544286D02*
X75269580Y-70496667D01*
X55766666Y-74494580D02*
X55814285Y-74542200D01*
X55814285Y-74542200D02*
X55957142Y-74589819D01*
X55957142Y-74589819D02*
X56052380Y-74589819D01*
X56052380Y-74589819D02*
X56195237Y-74542200D01*
X56195237Y-74542200D02*
X56290475Y-74446961D01*
X56290475Y-74446961D02*
X56338094Y-74351723D01*
X56338094Y-74351723D02*
X56385713Y-74161247D01*
X56385713Y-74161247D02*
X56385713Y-74018390D01*
X56385713Y-74018390D02*
X56338094Y-73827914D01*
X56338094Y-73827914D02*
X56290475Y-73732676D01*
X56290475Y-73732676D02*
X56195237Y-73637438D01*
X56195237Y-73637438D02*
X56052380Y-73589819D01*
X56052380Y-73589819D02*
X55957142Y-73589819D01*
X55957142Y-73589819D02*
X55814285Y-73637438D01*
X55814285Y-73637438D02*
X55766666Y-73685057D01*
X54909523Y-73923152D02*
X54909523Y-74589819D01*
X55147618Y-73542200D02*
X55385713Y-74256485D01*
X55385713Y-74256485D02*
X54766666Y-74256485D01*
X57006666Y-73089580D02*
X57054285Y-73137200D01*
X57054285Y-73137200D02*
X57197142Y-73184819D01*
X57197142Y-73184819D02*
X57292380Y-73184819D01*
X57292380Y-73184819D02*
X57435237Y-73137200D01*
X57435237Y-73137200D02*
X57530475Y-73041961D01*
X57530475Y-73041961D02*
X57578094Y-72946723D01*
X57578094Y-72946723D02*
X57625713Y-72756247D01*
X57625713Y-72756247D02*
X57625713Y-72613390D01*
X57625713Y-72613390D02*
X57578094Y-72422914D01*
X57578094Y-72422914D02*
X57530475Y-72327676D01*
X57530475Y-72327676D02*
X57435237Y-72232438D01*
X57435237Y-72232438D02*
X57292380Y-72184819D01*
X57292380Y-72184819D02*
X57197142Y-72184819D01*
X57197142Y-72184819D02*
X57054285Y-72232438D01*
X57054285Y-72232438D02*
X57006666Y-72280057D01*
X56149523Y-72184819D02*
X56339999Y-72184819D01*
X56339999Y-72184819D02*
X56435237Y-72232438D01*
X56435237Y-72232438D02*
X56482856Y-72280057D01*
X56482856Y-72280057D02*
X56578094Y-72422914D01*
X56578094Y-72422914D02*
X56625713Y-72613390D01*
X56625713Y-72613390D02*
X56625713Y-72994342D01*
X56625713Y-72994342D02*
X56578094Y-73089580D01*
X56578094Y-73089580D02*
X56530475Y-73137200D01*
X56530475Y-73137200D02*
X56435237Y-73184819D01*
X56435237Y-73184819D02*
X56244761Y-73184819D01*
X56244761Y-73184819D02*
X56149523Y-73137200D01*
X56149523Y-73137200D02*
X56101904Y-73089580D01*
X56101904Y-73089580D02*
X56054285Y-72994342D01*
X56054285Y-72994342D02*
X56054285Y-72756247D01*
X56054285Y-72756247D02*
X56101904Y-72661009D01*
X56101904Y-72661009D02*
X56149523Y-72613390D01*
X56149523Y-72613390D02*
X56244761Y-72565771D01*
X56244761Y-72565771D02*
X56435237Y-72565771D01*
X56435237Y-72565771D02*
X56530475Y-72613390D01*
X56530475Y-72613390D02*
X56578094Y-72661009D01*
X56578094Y-72661009D02*
X56625713Y-72756247D01*
X62494818Y-67178094D02*
X63304341Y-67178094D01*
X63304341Y-67178094D02*
X63399579Y-67225713D01*
X63399579Y-67225713D02*
X63447199Y-67273332D01*
X63447199Y-67273332D02*
X63494818Y-67368570D01*
X63494818Y-67368570D02*
X63494818Y-67559046D01*
X63494818Y-67559046D02*
X63447199Y-67654284D01*
X63447199Y-67654284D02*
X63399579Y-67701903D01*
X63399579Y-67701903D02*
X63304341Y-67749522D01*
X63304341Y-67749522D02*
X62494818Y-67749522D01*
X62494818Y-68130475D02*
X62494818Y-68749522D01*
X62494818Y-68749522D02*
X62875770Y-68416189D01*
X62875770Y-68416189D02*
X62875770Y-68559046D01*
X62875770Y-68559046D02*
X62923389Y-68654284D01*
X62923389Y-68654284D02*
X62971008Y-68701903D01*
X62971008Y-68701903D02*
X63066246Y-68749522D01*
X63066246Y-68749522D02*
X63304341Y-68749522D01*
X63304341Y-68749522D02*
X63399579Y-68701903D01*
X63399579Y-68701903D02*
X63447199Y-68654284D01*
X63447199Y-68654284D02*
X63494818Y-68559046D01*
X63494818Y-68559046D02*
X63494818Y-68273332D01*
X63494818Y-68273332D02*
X63447199Y-68178094D01*
X63447199Y-68178094D02*
X63399579Y-68130475D01*
X66219580Y-68443333D02*
X66267200Y-68395714D01*
X66267200Y-68395714D02*
X66314819Y-68252857D01*
X66314819Y-68252857D02*
X66314819Y-68157619D01*
X66314819Y-68157619D02*
X66267200Y-68014762D01*
X66267200Y-68014762D02*
X66171961Y-67919524D01*
X66171961Y-67919524D02*
X66076723Y-67871905D01*
X66076723Y-67871905D02*
X65886247Y-67824286D01*
X65886247Y-67824286D02*
X65743390Y-67824286D01*
X65743390Y-67824286D02*
X65552914Y-67871905D01*
X65552914Y-67871905D02*
X65457676Y-67919524D01*
X65457676Y-67919524D02*
X65362438Y-68014762D01*
X65362438Y-68014762D02*
X65314819Y-68157619D01*
X65314819Y-68157619D02*
X65314819Y-68252857D01*
X65314819Y-68252857D02*
X65362438Y-68395714D01*
X65362438Y-68395714D02*
X65410057Y-68443333D01*
X65314819Y-68776667D02*
X65314819Y-69395714D01*
X65314819Y-69395714D02*
X65695771Y-69062381D01*
X65695771Y-69062381D02*
X65695771Y-69205238D01*
X65695771Y-69205238D02*
X65743390Y-69300476D01*
X65743390Y-69300476D02*
X65791009Y-69348095D01*
X65791009Y-69348095D02*
X65886247Y-69395714D01*
X65886247Y-69395714D02*
X66124342Y-69395714D01*
X66124342Y-69395714D02*
X66219580Y-69348095D01*
X66219580Y-69348095D02*
X66267200Y-69300476D01*
X66267200Y-69300476D02*
X66314819Y-69205238D01*
X66314819Y-69205238D02*
X66314819Y-68919524D01*
X66314819Y-68919524D02*
X66267200Y-68824286D01*
X66267200Y-68824286D02*
X66219580Y-68776667D01*
X78467496Y-67324938D02*
X78970845Y-67034235D01*
X78985386Y-67566434D02*
X79408004Y-66660126D01*
X79408004Y-66660126D02*
X79062744Y-66499129D01*
X79062744Y-66499129D02*
X78956304Y-66502037D01*
X78956304Y-66502037D02*
X78893022Y-66525070D01*
X78893022Y-66525070D02*
X78809615Y-66591260D01*
X78809615Y-66591260D02*
X78749241Y-66720733D01*
X78749241Y-66720733D02*
X78752149Y-66827172D01*
X78752149Y-66827172D02*
X78775182Y-66890454D01*
X78775182Y-66890454D02*
X78841372Y-66973861D01*
X78841372Y-66973861D02*
X79186632Y-67134859D01*
X78504604Y-66343948D02*
X78481571Y-66280665D01*
X78481571Y-66280665D02*
X78415381Y-66197258D01*
X78415381Y-66197258D02*
X78199594Y-66096635D01*
X78199594Y-66096635D02*
X78093154Y-66099543D01*
X78093154Y-66099543D02*
X78029872Y-66122576D01*
X78029872Y-66122576D02*
X77946465Y-66188766D01*
X77946465Y-66188766D02*
X77906215Y-66275081D01*
X77906215Y-66275081D02*
X77888999Y-66424679D01*
X77888999Y-66424679D02*
X78165393Y-67184065D01*
X78165393Y-67184065D02*
X77604345Y-66922444D01*
X55946666Y-76579819D02*
X56279999Y-76103628D01*
X56518094Y-76579819D02*
X56518094Y-75579819D01*
X56518094Y-75579819D02*
X56137142Y-75579819D01*
X56137142Y-75579819D02*
X56041904Y-75627438D01*
X56041904Y-75627438D02*
X55994285Y-75675057D01*
X55994285Y-75675057D02*
X55946666Y-75770295D01*
X55946666Y-75770295D02*
X55946666Y-75913152D01*
X55946666Y-75913152D02*
X55994285Y-76008390D01*
X55994285Y-76008390D02*
X56041904Y-76056009D01*
X56041904Y-76056009D02*
X56137142Y-76103628D01*
X56137142Y-76103628D02*
X56518094Y-76103628D01*
X55613332Y-75579819D02*
X54946666Y-75579819D01*
X54946666Y-75579819D02*
X55375237Y-76579819D01*
X73233900Y-60163073D02*
X73229787Y-60313602D01*
X73229787Y-60313602D02*
X73258248Y-60374636D01*
X73258248Y-60374636D02*
X73331456Y-60451956D01*
X73331456Y-60451956D02*
X73465697Y-60500816D01*
X73465697Y-60500816D02*
X73571479Y-60488642D01*
X73571479Y-60488642D02*
X73632512Y-60460182D01*
X73632512Y-60460182D02*
X73709833Y-60386974D01*
X73709833Y-60386974D02*
X73840126Y-60028996D01*
X73840126Y-60028996D02*
X72900434Y-59686976D01*
X72900434Y-59686976D02*
X72786427Y-60000207D01*
X72786427Y-60000207D02*
X72798601Y-60105988D01*
X72798601Y-60105988D02*
X72827062Y-60167022D01*
X72827062Y-60167022D02*
X72900270Y-60244342D01*
X72900270Y-60244342D02*
X72989764Y-60276916D01*
X72989764Y-60276916D02*
X73095545Y-60264742D01*
X73095545Y-60264742D02*
X73156579Y-60236281D01*
X73156579Y-60236281D02*
X73233900Y-60163073D01*
X73233900Y-60163073D02*
X73347907Y-59849842D01*
X72607274Y-60492427D02*
X72411834Y-61029394D01*
X73449246Y-61102930D02*
X72509554Y-60760910D01*
X73058366Y-62176865D02*
X73253806Y-61639898D01*
X73156086Y-61908381D02*
X72216393Y-61566361D01*
X72216393Y-61566361D02*
X72383209Y-61525727D01*
X72383209Y-61525727D02*
X72505277Y-61468805D01*
X72505277Y-61468805D02*
X72582597Y-61395598D01*
X65866666Y-77334819D02*
X66199999Y-76858628D01*
X66438094Y-77334819D02*
X66438094Y-76334819D01*
X66438094Y-76334819D02*
X66057142Y-76334819D01*
X66057142Y-76334819D02*
X65961904Y-76382438D01*
X65961904Y-76382438D02*
X65914285Y-76430057D01*
X65914285Y-76430057D02*
X65866666Y-76525295D01*
X65866666Y-76525295D02*
X65866666Y-76668152D01*
X65866666Y-76668152D02*
X65914285Y-76763390D01*
X65914285Y-76763390D02*
X65961904Y-76811009D01*
X65961904Y-76811009D02*
X66057142Y-76858628D01*
X66057142Y-76858628D02*
X66438094Y-76858628D01*
X64961904Y-76334819D02*
X65438094Y-76334819D01*
X65438094Y-76334819D02*
X65485713Y-76811009D01*
X65485713Y-76811009D02*
X65438094Y-76763390D01*
X65438094Y-76763390D02*
X65342856Y-76715771D01*
X65342856Y-76715771D02*
X65104761Y-76715771D01*
X65104761Y-76715771D02*
X65009523Y-76763390D01*
X65009523Y-76763390D02*
X64961904Y-76811009D01*
X64961904Y-76811009D02*
X64914285Y-76906247D01*
X64914285Y-76906247D02*
X64914285Y-77144342D01*
X64914285Y-77144342D02*
X64961904Y-77239580D01*
X64961904Y-77239580D02*
X65009523Y-77287200D01*
X65009523Y-77287200D02*
X65104761Y-77334819D01*
X65104761Y-77334819D02*
X65342856Y-77334819D01*
X65342856Y-77334819D02*
X65438094Y-77287200D01*
X65438094Y-77287200D02*
X65485713Y-77239580D01*
X65846666Y-74124819D02*
X66179999Y-73648628D01*
X66418094Y-74124819D02*
X66418094Y-73124819D01*
X66418094Y-73124819D02*
X66037142Y-73124819D01*
X66037142Y-73124819D02*
X65941904Y-73172438D01*
X65941904Y-73172438D02*
X65894285Y-73220057D01*
X65894285Y-73220057D02*
X65846666Y-73315295D01*
X65846666Y-73315295D02*
X65846666Y-73458152D01*
X65846666Y-73458152D02*
X65894285Y-73553390D01*
X65894285Y-73553390D02*
X65941904Y-73601009D01*
X65941904Y-73601009D02*
X66037142Y-73648628D01*
X66037142Y-73648628D02*
X66418094Y-73648628D01*
X64989523Y-73124819D02*
X65179999Y-73124819D01*
X65179999Y-73124819D02*
X65275237Y-73172438D01*
X65275237Y-73172438D02*
X65322856Y-73220057D01*
X65322856Y-73220057D02*
X65418094Y-73362914D01*
X65418094Y-73362914D02*
X65465713Y-73553390D01*
X65465713Y-73553390D02*
X65465713Y-73934342D01*
X65465713Y-73934342D02*
X65418094Y-74029580D01*
X65418094Y-74029580D02*
X65370475Y-74077200D01*
X65370475Y-74077200D02*
X65275237Y-74124819D01*
X65275237Y-74124819D02*
X65084761Y-74124819D01*
X65084761Y-74124819D02*
X64989523Y-74077200D01*
X64989523Y-74077200D02*
X64941904Y-74029580D01*
X64941904Y-74029580D02*
X64894285Y-73934342D01*
X64894285Y-73934342D02*
X64894285Y-73696247D01*
X64894285Y-73696247D02*
X64941904Y-73601009D01*
X64941904Y-73601009D02*
X64989523Y-73553390D01*
X64989523Y-73553390D02*
X65084761Y-73505771D01*
X65084761Y-73505771D02*
X65275237Y-73505771D01*
X65275237Y-73505771D02*
X65370475Y-73553390D01*
X65370475Y-73553390D02*
X65418094Y-73601009D01*
X65418094Y-73601009D02*
X65465713Y-73696247D01*
X61180057Y-77779761D02*
X61132438Y-77684523D01*
X61132438Y-77684523D02*
X61037200Y-77589285D01*
X61037200Y-77589285D02*
X60894342Y-77446428D01*
X60894342Y-77446428D02*
X60846723Y-77351190D01*
X60846723Y-77351190D02*
X60846723Y-77255952D01*
X61084819Y-77303571D02*
X61037200Y-77208333D01*
X61037200Y-77208333D02*
X60941961Y-77113095D01*
X60941961Y-77113095D02*
X60751485Y-77065476D01*
X60751485Y-77065476D02*
X60418152Y-77065476D01*
X60418152Y-77065476D02*
X60227676Y-77113095D01*
X60227676Y-77113095D02*
X60132438Y-77208333D01*
X60132438Y-77208333D02*
X60084819Y-77303571D01*
X60084819Y-77303571D02*
X60084819Y-77494047D01*
X60084819Y-77494047D02*
X60132438Y-77589285D01*
X60132438Y-77589285D02*
X60227676Y-77684523D01*
X60227676Y-77684523D02*
X60418152Y-77732142D01*
X60418152Y-77732142D02*
X60751485Y-77732142D01*
X60751485Y-77732142D02*
X60941961Y-77684523D01*
X60941961Y-77684523D02*
X61037200Y-77589285D01*
X61037200Y-77589285D02*
X61084819Y-77494047D01*
X61084819Y-77494047D02*
X61084819Y-77303571D01*
X61084819Y-78684523D02*
X61084819Y-78113095D01*
X61084819Y-78398809D02*
X60084819Y-78398809D01*
X60084819Y-78398809D02*
X60227676Y-78303571D01*
X60227676Y-78303571D02*
X60322914Y-78208333D01*
X60322914Y-78208333D02*
X60370533Y-78113095D01*
X61361155Y-46770273D02*
X60938537Y-45863965D01*
X60938537Y-45863965D02*
X60722750Y-45964589D01*
X60722750Y-45964589D02*
X60613402Y-46068120D01*
X60613402Y-46068120D02*
X60567336Y-46194685D01*
X60567336Y-46194685D02*
X60564428Y-46301124D01*
X60564428Y-46301124D02*
X60601769Y-46493879D01*
X60601769Y-46493879D02*
X60662143Y-46623352D01*
X60662143Y-46623352D02*
X60785799Y-46775857D01*
X60785799Y-46775857D02*
X60869206Y-46842047D01*
X60869206Y-46842047D02*
X60995771Y-46888113D01*
X60995771Y-46888113D02*
X61145368Y-46870897D01*
X61145368Y-46870897D02*
X61361155Y-46770273D01*
X59643812Y-46467706D02*
X59816442Y-46387207D01*
X59816442Y-46387207D02*
X59922881Y-46390115D01*
X59922881Y-46390115D02*
X59986164Y-46413148D01*
X59986164Y-46413148D02*
X60132853Y-46502371D01*
X60132853Y-46502371D02*
X60256509Y-46654877D01*
X60256509Y-46654877D02*
X60417506Y-47000137D01*
X60417506Y-47000137D02*
X60414598Y-47106576D01*
X60414598Y-47106576D02*
X60391565Y-47169859D01*
X60391565Y-47169859D02*
X60325375Y-47253266D01*
X60325375Y-47253266D02*
X60152745Y-47333764D01*
X60152745Y-47333764D02*
X60046305Y-47330856D01*
X60046305Y-47330856D02*
X59983023Y-47307823D01*
X59983023Y-47307823D02*
X59899616Y-47241633D01*
X59899616Y-47241633D02*
X59798993Y-47025845D01*
X59798993Y-47025845D02*
X59801901Y-46919406D01*
X59801901Y-46919406D02*
X59824934Y-46856123D01*
X59824934Y-46856123D02*
X59891124Y-46772717D01*
X59891124Y-46772717D02*
X60063754Y-46692218D01*
X60063754Y-46692218D02*
X60170194Y-46695126D01*
X60170194Y-46695126D02*
X60233476Y-46718159D01*
X60233476Y-46718159D02*
X60316883Y-46784349D01*
X73446666Y-71109580D02*
X73494285Y-71157200D01*
X73494285Y-71157200D02*
X73637142Y-71204819D01*
X73637142Y-71204819D02*
X73732380Y-71204819D01*
X73732380Y-71204819D02*
X73875237Y-71157200D01*
X73875237Y-71157200D02*
X73970475Y-71061961D01*
X73970475Y-71061961D02*
X74018094Y-70966723D01*
X74018094Y-70966723D02*
X74065713Y-70776247D01*
X74065713Y-70776247D02*
X74065713Y-70633390D01*
X74065713Y-70633390D02*
X74018094Y-70442914D01*
X74018094Y-70442914D02*
X73970475Y-70347676D01*
X73970475Y-70347676D02*
X73875237Y-70252438D01*
X73875237Y-70252438D02*
X73732380Y-70204819D01*
X73732380Y-70204819D02*
X73637142Y-70204819D01*
X73637142Y-70204819D02*
X73494285Y-70252438D01*
X73494285Y-70252438D02*
X73446666Y-70300057D01*
X73065713Y-70300057D02*
X73018094Y-70252438D01*
X73018094Y-70252438D02*
X72922856Y-70204819D01*
X72922856Y-70204819D02*
X72684761Y-70204819D01*
X72684761Y-70204819D02*
X72589523Y-70252438D01*
X72589523Y-70252438D02*
X72541904Y-70300057D01*
X72541904Y-70300057D02*
X72494285Y-70395295D01*
X72494285Y-70395295D02*
X72494285Y-70490533D01*
X72494285Y-70490533D02*
X72541904Y-70633390D01*
X72541904Y-70633390D02*
X73113332Y-71204819D01*
X73113332Y-71204819D02*
X72494285Y-71204819D01*
X73451666Y-78069580D02*
X73499285Y-78117200D01*
X73499285Y-78117200D02*
X73642142Y-78164819D01*
X73642142Y-78164819D02*
X73737380Y-78164819D01*
X73737380Y-78164819D02*
X73880237Y-78117200D01*
X73880237Y-78117200D02*
X73975475Y-78021961D01*
X73975475Y-78021961D02*
X74023094Y-77926723D01*
X74023094Y-77926723D02*
X74070713Y-77736247D01*
X74070713Y-77736247D02*
X74070713Y-77593390D01*
X74070713Y-77593390D02*
X74023094Y-77402914D01*
X74023094Y-77402914D02*
X73975475Y-77307676D01*
X73975475Y-77307676D02*
X73880237Y-77212438D01*
X73880237Y-77212438D02*
X73737380Y-77164819D01*
X73737380Y-77164819D02*
X73642142Y-77164819D01*
X73642142Y-77164819D02*
X73499285Y-77212438D01*
X73499285Y-77212438D02*
X73451666Y-77260057D01*
X72499285Y-78164819D02*
X73070713Y-78164819D01*
X72784999Y-78164819D02*
X72784999Y-77164819D01*
X72784999Y-77164819D02*
X72880237Y-77307676D01*
X72880237Y-77307676D02*
X72975475Y-77402914D01*
X72975475Y-77402914D02*
X73070713Y-77450533D01*
D12*
%TO.C,C1*%
X163664420Y-75410000D02*
X163945580Y-75410000D01*
X163664420Y-76430000D02*
X163945580Y-76430000D01*
%TO.C,C2*%
X163320000Y-68499420D02*
X163320000Y-68780580D01*
X164340000Y-68499420D02*
X164340000Y-68780580D01*
%TO.C,R6*%
X158957258Y-73157500D02*
X158482742Y-73157500D01*
X158957258Y-74202500D02*
X158482742Y-74202500D01*
%TO.C,R7*%
X149287258Y-75577500D02*
X148812742Y-75577500D01*
X149287258Y-76622500D02*
X148812742Y-76622500D01*
%TO.C,C3*%
X157380000Y-68489420D02*
X157380000Y-68770580D01*
X158400000Y-68489420D02*
X158400000Y-68770580D01*
%TO.C,U3*%
X147454999Y-67960000D02*
X147455000Y-65760001D01*
X147454999Y-67960000D02*
X147455001Y-70160001D01*
X152925001Y-67960000D02*
X152924999Y-65759999D01*
X152925001Y-67960000D02*
X152925000Y-70159999D01*
X152705001Y-72150000D02*
X152225001Y-72150000D01*
X152465000Y-71820000D01*
X152705001Y-72150000D01*
G36*
X152705001Y-72150000D02*
G01*
X152225001Y-72150000D01*
X152465000Y-71820000D01*
X152705001Y-72150000D01*
G37*
%TO.C,R5*%
X158472742Y-76387500D02*
X158947258Y-76387500D01*
X158472742Y-77432500D02*
X158947258Y-77432500D01*
%TO.C,C4*%
X149171252Y-73510000D02*
X148648748Y-73510000D01*
X149171252Y-74980000D02*
X148648748Y-74980000D01*
%TO.C,D2*%
X152965000Y-82522500D02*
X152965000Y-80237500D01*
X154435000Y-80237500D02*
X154435000Y-82522500D01*
X154435000Y-82522500D02*
X152965000Y-82522500D01*
%TO.C,R8*%
X152182742Y-72727500D02*
X152657258Y-72727500D01*
X152182742Y-73772500D02*
X152657258Y-73772500D01*
%TO.C,R2*%
X167614845Y-68756508D02*
X167815384Y-68326450D01*
X168561936Y-69198144D02*
X168762475Y-68768086D01*
%TO.C,C6*%
X149487836Y-72360000D02*
X149272164Y-72360000D01*
X149487836Y-73080000D02*
X149272164Y-73080000D01*
%TO.C,R11*%
X157057500Y-51397742D02*
X157057500Y-51872258D01*
X158102500Y-51397742D02*
X158102500Y-51872258D01*
%TO.C,U1*%
X162530000Y-71440000D02*
X161730000Y-71440000D01*
X162530000Y-71440000D02*
X163330000Y-71440000D01*
X162530000Y-74560000D02*
X161730000Y-74560000D01*
X162530000Y-74560000D02*
X163330000Y-74560000D01*
X161470000Y-74840000D02*
X160990000Y-74840000D01*
X161230000Y-74510000D01*
X161470000Y-74840000D01*
G36*
X161470000Y-74840000D02*
G01*
X160990000Y-74840000D01*
X161230000Y-74510000D01*
X161470000Y-74840000D01*
G37*
%TO.C,R3*%
X164947500Y-72562742D02*
X164947500Y-73037258D01*
X165992500Y-72562742D02*
X165992500Y-73037258D01*
%TO.C,R12*%
X155507500Y-51392742D02*
X155507500Y-51867258D01*
X156552500Y-51392742D02*
X156552500Y-51867258D01*
%TO.C,J1*%
X167957088Y-76756875D02*
X169434369Y-77445743D01*
X171845177Y-68418843D02*
X173322458Y-69107710D01*
%TO.C,R1*%
X166206184Y-68114210D02*
X166406723Y-67684153D01*
X167153277Y-68555847D02*
X167353816Y-68125790D01*
%TO.C,U2*%
X160910000Y-67250000D02*
X160110000Y-67250000D01*
X160910000Y-67250000D02*
X161710000Y-67250000D01*
X160910000Y-70370000D02*
X160110000Y-70370000D01*
X160910000Y-70370000D02*
X161710000Y-70370000D01*
X162210000Y-67300000D02*
X161970000Y-66970000D01*
X162450000Y-66970000D01*
X162210000Y-67300000D01*
G36*
X162210000Y-67300000D02*
G01*
X161970000Y-66970000D01*
X162450000Y-66970000D01*
X162210000Y-67300000D01*
G37*
%TO.C,D1*%
X157920000Y-71315000D02*
X160205000Y-71315000D01*
X160205000Y-71315000D02*
X160205000Y-72785000D01*
X160205000Y-72785000D02*
X157920000Y-72785000D01*
%TO.C,D6*%
X152545359Y-52391755D02*
X150903487Y-48870749D01*
X152960805Y-47911405D02*
X154602677Y-51432411D01*
X154602677Y-51432411D02*
X152545359Y-52391755D01*
%TO.C,D5*%
X158802729Y-50548604D02*
X157797218Y-46795982D01*
X159989870Y-46208463D02*
X160995381Y-49961085D01*
X160995381Y-49961085D02*
X158802729Y-50548604D01*
%TO.C,Q1*%
X150940000Y-75980000D02*
X150940000Y-75330000D01*
X150940000Y-75980000D02*
X150940000Y-76630000D01*
X154060000Y-75980000D02*
X154060000Y-75330000D01*
X154060000Y-75980000D02*
X154060000Y-76630000D01*
X150990000Y-74817500D02*
X150660000Y-75057500D01*
X150660000Y-74577500D01*
X150990000Y-74817500D01*
G36*
X150990000Y-74817500D02*
G01*
X150660000Y-75057500D01*
X150660000Y-74577500D01*
X150990000Y-74817500D01*
G37*
%TO.C,R4*%
X158957258Y-74767500D02*
X158482742Y-74767500D01*
X158957258Y-75812500D02*
X158482742Y-75812500D01*
%TO.C,C2*%
X117970000Y-68479420D02*
X117970000Y-68760580D01*
X118990000Y-68479420D02*
X118990000Y-68760580D01*
%TO.C,C1*%
X118314420Y-75390000D02*
X118595580Y-75390000D01*
X118314420Y-76410000D02*
X118595580Y-76410000D01*
%TO.C,R6*%
X113607258Y-73137500D02*
X113132742Y-73137500D01*
X113607258Y-74182500D02*
X113132742Y-74182500D01*
%TO.C,R5*%
X113122742Y-76367500D02*
X113597258Y-76367500D01*
X113122742Y-77412500D02*
X113597258Y-77412500D01*
%TO.C,R2*%
X122264845Y-68736508D02*
X122465384Y-68306450D01*
X123211936Y-69178144D02*
X123412475Y-68748086D01*
%TO.C,C3*%
X112030000Y-68469420D02*
X112030000Y-68750580D01*
X113050000Y-68469420D02*
X113050000Y-68750580D01*
%TO.C,D6*%
X107195359Y-52371755D02*
X105553487Y-48850749D01*
X107610805Y-47891405D02*
X109252677Y-51412411D01*
X109252677Y-51412411D02*
X107195359Y-52371755D01*
%TO.C,U3*%
X102104999Y-67940000D02*
X102105000Y-65740001D01*
X102104999Y-67940000D02*
X102105001Y-70140001D01*
X107575001Y-67940000D02*
X107574999Y-65739999D01*
X107575001Y-67940000D02*
X107575000Y-70139999D01*
X107355001Y-72130000D02*
X106875001Y-72130000D01*
X107115000Y-71800000D01*
X107355001Y-72130000D01*
G36*
X107355001Y-72130000D02*
G01*
X106875001Y-72130000D01*
X107115000Y-71800000D01*
X107355001Y-72130000D01*
G37*
%TO.C,C6*%
X104137836Y-72340000D02*
X103922164Y-72340000D01*
X104137836Y-73060000D02*
X103922164Y-73060000D01*
%TO.C,C4*%
X103821252Y-73490000D02*
X103298748Y-73490000D01*
X103821252Y-74960000D02*
X103298748Y-74960000D01*
%TO.C,R3*%
X119597500Y-72542742D02*
X119597500Y-73017258D01*
X120642500Y-72542742D02*
X120642500Y-73017258D01*
%TO.C,D2*%
X107615000Y-82502500D02*
X107615000Y-80217500D01*
X109085000Y-80217500D02*
X109085000Y-82502500D01*
X109085000Y-82502500D02*
X107615000Y-82502500D01*
%TO.C,Q1*%
X105590000Y-75960000D02*
X105590000Y-75310000D01*
X105590000Y-75960000D02*
X105590000Y-76610000D01*
X108710000Y-75960000D02*
X108710000Y-75310000D01*
X108710000Y-75960000D02*
X108710000Y-76610000D01*
X105640000Y-74797500D02*
X105310000Y-75037500D01*
X105310000Y-74557500D01*
X105640000Y-74797500D01*
G36*
X105640000Y-74797500D02*
G01*
X105310000Y-75037500D01*
X105310000Y-74557500D01*
X105640000Y-74797500D01*
G37*
%TO.C,R11*%
X111707500Y-51377742D02*
X111707500Y-51852258D01*
X112752500Y-51377742D02*
X112752500Y-51852258D01*
%TO.C,R1*%
X120856184Y-68094210D02*
X121056723Y-67664153D01*
X121803277Y-68535847D02*
X122003816Y-68105790D01*
%TO.C,D1*%
X112570000Y-71295000D02*
X114855000Y-71295000D01*
X114855000Y-71295000D02*
X114855000Y-72765000D01*
X114855000Y-72765000D02*
X112570000Y-72765000D01*
%TO.C,U1*%
X117180000Y-71420000D02*
X116380000Y-71420000D01*
X117180000Y-71420000D02*
X117980000Y-71420000D01*
X117180000Y-74540000D02*
X116380000Y-74540000D01*
X117180000Y-74540000D02*
X117980000Y-74540000D01*
X116120000Y-74820000D02*
X115640000Y-74820000D01*
X115880000Y-74490000D01*
X116120000Y-74820000D01*
G36*
X116120000Y-74820000D02*
G01*
X115640000Y-74820000D01*
X115880000Y-74490000D01*
X116120000Y-74820000D01*
G37*
%TO.C,R8*%
X106832742Y-72707500D02*
X107307258Y-72707500D01*
X106832742Y-73752500D02*
X107307258Y-73752500D01*
%TO.C,U2*%
X115560000Y-67230000D02*
X114760000Y-67230000D01*
X115560000Y-67230000D02*
X116360000Y-67230000D01*
X115560000Y-70350000D02*
X114760000Y-70350000D01*
X115560000Y-70350000D02*
X116360000Y-70350000D01*
X116860000Y-67280000D02*
X116620000Y-66950000D01*
X117100000Y-66950000D01*
X116860000Y-67280000D01*
G36*
X116860000Y-67280000D02*
G01*
X116620000Y-66950000D01*
X117100000Y-66950000D01*
X116860000Y-67280000D01*
G37*
%TO.C,J1*%
X122607088Y-76736875D02*
X124084369Y-77425743D01*
X126495177Y-68398843D02*
X127972458Y-69087710D01*
%TO.C,R4*%
X113607258Y-74747500D02*
X113132742Y-74747500D01*
X113607258Y-75792500D02*
X113132742Y-75792500D01*
%TO.C,R7*%
X103937258Y-75557500D02*
X103462742Y-75557500D01*
X103937258Y-76602500D02*
X103462742Y-76602500D01*
%TO.C,D5*%
X113452729Y-50528604D02*
X112447218Y-46775982D01*
X114639870Y-46188463D02*
X115645381Y-49941085D01*
X115645381Y-49941085D02*
X113452729Y-50528604D01*
%TO.C,R12*%
X110157500Y-51372742D02*
X110157500Y-51847258D01*
X111202500Y-51372742D02*
X111202500Y-51847258D01*
%TO.C,D5*%
X68202729Y-50528604D02*
X67197218Y-46775982D01*
X69389870Y-46188463D02*
X70395381Y-49941085D01*
X70395381Y-49941085D02*
X68202729Y-50528604D01*
%TO.C,J1*%
X77357088Y-76736875D02*
X78834369Y-77425743D01*
X81245177Y-68398843D02*
X82722458Y-69087710D01*
%TO.C,U2*%
X70310000Y-67230000D02*
X69510000Y-67230000D01*
X70310000Y-67230000D02*
X71110000Y-67230000D01*
X70310000Y-70350000D02*
X69510000Y-70350000D01*
X70310000Y-70350000D02*
X71110000Y-70350000D01*
X71610000Y-67280000D02*
X71370000Y-66950000D01*
X71850000Y-66950000D01*
X71610000Y-67280000D01*
G36*
X71610000Y-67280000D02*
G01*
X71370000Y-66950000D01*
X71850000Y-66950000D01*
X71610000Y-67280000D01*
G37*
%TO.C,U1*%
X71930000Y-71420000D02*
X71130000Y-71420000D01*
X71930000Y-71420000D02*
X72730000Y-71420000D01*
X71930000Y-74540000D02*
X71130000Y-74540000D01*
X71930000Y-74540000D02*
X72730000Y-74540000D01*
X70870000Y-74820000D02*
X70390000Y-74820000D01*
X70630000Y-74490000D01*
X70870000Y-74820000D01*
G36*
X70870000Y-74820000D02*
G01*
X70390000Y-74820000D01*
X70630000Y-74490000D01*
X70870000Y-74820000D01*
G37*
%TO.C,R1*%
X75606184Y-68094210D02*
X75806723Y-67664153D01*
X76553277Y-68535847D02*
X76753816Y-68105790D01*
%TO.C,R11*%
X66457500Y-51377742D02*
X66457500Y-51852258D01*
X67502500Y-51377742D02*
X67502500Y-51852258D01*
%TO.C,R4*%
X68357258Y-74747500D02*
X67882742Y-74747500D01*
X68357258Y-75792500D02*
X67882742Y-75792500D01*
%TO.C,R12*%
X64907500Y-51372742D02*
X64907500Y-51847258D01*
X65952500Y-51372742D02*
X65952500Y-51847258D01*
%TO.C,D1*%
X67320000Y-71295000D02*
X69605000Y-71295000D01*
X69605000Y-71295000D02*
X69605000Y-72765000D01*
X69605000Y-72765000D02*
X67320000Y-72765000D01*
%TO.C,R8*%
X61582742Y-72707500D02*
X62057258Y-72707500D01*
X61582742Y-73752500D02*
X62057258Y-73752500D01*
%TO.C,D2*%
X62365000Y-82502500D02*
X62365000Y-80217500D01*
X63835000Y-80217500D02*
X63835000Y-82502500D01*
X63835000Y-82502500D02*
X62365000Y-82502500D01*
%TO.C,R3*%
X74347500Y-72542742D02*
X74347500Y-73017258D01*
X75392500Y-72542742D02*
X75392500Y-73017258D01*
%TO.C,C4*%
X58571252Y-73490000D02*
X58048748Y-73490000D01*
X58571252Y-74960000D02*
X58048748Y-74960000D01*
%TO.C,C6*%
X58887836Y-72340000D02*
X58672164Y-72340000D01*
X58887836Y-73060000D02*
X58672164Y-73060000D01*
%TO.C,U3*%
X56854999Y-67940000D02*
X56855000Y-65740001D01*
X56854999Y-67940000D02*
X56855001Y-70140001D01*
X62325001Y-67940000D02*
X62324999Y-65739999D01*
X62325001Y-67940000D02*
X62325000Y-70139999D01*
X62105001Y-72130000D02*
X61625001Y-72130000D01*
X61865000Y-71800000D01*
X62105001Y-72130000D01*
G36*
X62105001Y-72130000D02*
G01*
X61625001Y-72130000D01*
X61865000Y-71800000D01*
X62105001Y-72130000D01*
G37*
%TO.C,C3*%
X66780000Y-68469420D02*
X66780000Y-68750580D01*
X67800000Y-68469420D02*
X67800000Y-68750580D01*
%TO.C,R2*%
X77014845Y-68736508D02*
X77215384Y-68306450D01*
X77961936Y-69178144D02*
X78162475Y-68748086D01*
%TO.C,R7*%
X58687258Y-75557500D02*
X58212742Y-75557500D01*
X58687258Y-76602500D02*
X58212742Y-76602500D01*
%TO.C,R5*%
X67872742Y-76367500D02*
X68347258Y-76367500D01*
X67872742Y-77412500D02*
X68347258Y-77412500D01*
%TO.C,R6*%
X68357258Y-73137500D02*
X67882742Y-73137500D01*
X68357258Y-74182500D02*
X67882742Y-74182500D01*
%TO.C,Q1*%
X60340000Y-75960000D02*
X60340000Y-75310000D01*
X60340000Y-75960000D02*
X60340000Y-76610000D01*
X63460000Y-75960000D02*
X63460000Y-75310000D01*
X63460000Y-75960000D02*
X63460000Y-76610000D01*
X60390000Y-74797500D02*
X60060000Y-75037500D01*
X60060000Y-74557500D01*
X60390000Y-74797500D01*
G36*
X60390000Y-74797500D02*
G01*
X60060000Y-75037500D01*
X60060000Y-74557500D01*
X60390000Y-74797500D01*
G37*
%TO.C,D6*%
X61945359Y-52371755D02*
X60303487Y-48850749D01*
X62360805Y-47891405D02*
X64002677Y-51412411D01*
X64002677Y-51412411D02*
X61945359Y-52371755D01*
%TO.C,C2*%
X72720000Y-68479420D02*
X72720000Y-68760580D01*
X73740000Y-68479420D02*
X73740000Y-68760580D01*
%TO.C,C1*%
X73064420Y-75390000D02*
X73345580Y-75390000D01*
X73064420Y-76410000D02*
X73345580Y-76410000D01*
%TD*%
M02*
