%TF.GenerationSoftware,KiCad,Pcbnew,9.0.0*%
%TF.CreationDate,2026-08-18T23:02:38+03:00*%
%TF.ProjectId,purrCat_2x1,70757272-4361-4745-9f32-78312e6b6963,rev?*%
%TF.SameCoordinates,Original*%
%TF.FileFunction,Profile,NP*%
%FSLAX46Y46*%
G04 Gerber Fmt 4.6, Leading zero omitted, Abs format (unit mm)*
G04 Created by KiCad (PCBNEW 9.0.0) date 2026-08-18 23:02:38*
%MOMM*%
%LPD*%
G01*
G04 APERTURE LIST*
%TA.AperFunction,Profile*%
%ADD10C,0.100000*%
%TD*%
%TA.AperFunction,Profile*%
%ADD11C,0.129999*%
%TD*%
G04 APERTURE END LIST*
D10*
X44480000Y-29450000D02*
X186362500Y-29450000D01*
X186362500Y-104215000D01*
X44480000Y-104215000D01*
X44480000Y-29450000D01*
D11*
X147051368Y-40003248D02*
X147117387Y-40008268D01*
X147182447Y-40016535D01*
X147246465Y-40027968D01*
X147309360Y-40042484D01*
X147371050Y-40060002D01*
X147431454Y-40080440D01*
X147490489Y-40103717D01*
X147548074Y-40129750D01*
X147604127Y-40158459D01*
X147658567Y-40189762D01*
X147711312Y-40223576D01*
X147762281Y-40259820D01*
X147811391Y-40298413D01*
X147858561Y-40339273D01*
X147903709Y-40382318D01*
X147946753Y-40427466D01*
X147987613Y-40474636D01*
X148026206Y-40523746D01*
X148062450Y-40574714D01*
X148096265Y-40627459D01*
X148127567Y-40681899D01*
X148156276Y-40737953D01*
X148182309Y-40795538D01*
X148205586Y-40854573D01*
X148226024Y-40914976D01*
X148243542Y-40976666D01*
X148258058Y-41039561D01*
X148269491Y-41103579D01*
X148277758Y-41168639D01*
X148282778Y-41234658D01*
X148284470Y-41301556D01*
X148282778Y-41368454D01*
X148277758Y-41434474D01*
X148269491Y-41499533D01*
X148258058Y-41563552D01*
X148243542Y-41626447D01*
X148226024Y-41688137D01*
X148205586Y-41748540D01*
X148182309Y-41807575D01*
X148156276Y-41865160D01*
X148127567Y-41921213D01*
X148096265Y-41975654D01*
X148062450Y-42028399D01*
X148026206Y-42079367D01*
X147987613Y-42128477D01*
X147946753Y-42175647D01*
X147903709Y-42220795D01*
X147858561Y-42263840D01*
X147811391Y-42304699D01*
X147762281Y-42343292D01*
X147711312Y-42379537D01*
X147658567Y-42413351D01*
X147604127Y-42444653D01*
X147548074Y-42473362D01*
X147490489Y-42499396D01*
X147431454Y-42522673D01*
X147371050Y-42543111D01*
X147309360Y-42560629D01*
X147246465Y-42575145D01*
X147182447Y-42586577D01*
X147117387Y-42594844D01*
X147051368Y-42599865D01*
X146984470Y-42601556D01*
X146917572Y-42599865D01*
X146851552Y-42594844D01*
X146786493Y-42586577D01*
X146722474Y-42575145D01*
X146659579Y-42560629D01*
X146597889Y-42543111D01*
X146537486Y-42522673D01*
X146478451Y-42499396D01*
X146420866Y-42473362D01*
X146364812Y-42444653D01*
X146310372Y-42413351D01*
X146257627Y-42379537D01*
X146206659Y-42343292D01*
X146157549Y-42304699D01*
X146110379Y-42263840D01*
X146065231Y-42220795D01*
X146022186Y-42175647D01*
X145981327Y-42128477D01*
X145942734Y-42079367D01*
X145906489Y-42028399D01*
X145872675Y-41975654D01*
X145841373Y-41921213D01*
X145812664Y-41865160D01*
X145786630Y-41807575D01*
X145763353Y-41748540D01*
X145742915Y-41688137D01*
X145725397Y-41626447D01*
X145710881Y-41563552D01*
X145699449Y-41499533D01*
X145691182Y-41434474D01*
X145686161Y-41368454D01*
X145684470Y-41301556D01*
X145686161Y-41234658D01*
X145691182Y-41168639D01*
X145699449Y-41103579D01*
X145710881Y-41039561D01*
X145725397Y-40976666D01*
X145742915Y-40914976D01*
X145763353Y-40854573D01*
X145786630Y-40795538D01*
X145812664Y-40737953D01*
X145841373Y-40681899D01*
X145872675Y-40627459D01*
X145906489Y-40574714D01*
X145942734Y-40523746D01*
X145981327Y-40474636D01*
X146022186Y-40427466D01*
X146065231Y-40382318D01*
X146110379Y-40339273D01*
X146157549Y-40298413D01*
X146206659Y-40259820D01*
X146257627Y-40223576D01*
X146310372Y-40189762D01*
X146364812Y-40158459D01*
X146420866Y-40129750D01*
X146478451Y-40103717D01*
X146537486Y-40080440D01*
X146597889Y-40060002D01*
X146659579Y-40042484D01*
X146722474Y-40027968D01*
X146786493Y-40016535D01*
X146851552Y-40008268D01*
X146917572Y-40003248D01*
X146984470Y-40001556D01*
X147051368Y-40003248D01*
X152943270Y-42004800D02*
X152851216Y-42038958D01*
X152759656Y-42074406D01*
X152668619Y-42111173D01*
X152578132Y-42149292D01*
X152488222Y-42188794D01*
X152398918Y-42229710D01*
X152310245Y-42272070D01*
X152222233Y-42315908D01*
X152157770Y-42218123D01*
X152089520Y-42123571D01*
X152017837Y-42031959D01*
X151943071Y-41942996D01*
X151865574Y-41856392D01*
X151785699Y-41771856D01*
X151703797Y-41689097D01*
X151620221Y-41607824D01*
X150933532Y-40976217D01*
X150537921Y-40615335D01*
X150134085Y-40262135D01*
X149720763Y-39919754D01*
X149296695Y-39591330D01*
X149080237Y-39433333D01*
X148860620Y-39280002D01*
X148637686Y-39131729D01*
X148411278Y-38988906D01*
X148181237Y-38851927D01*
X147947407Y-38721182D01*
X147709630Y-38597064D01*
X147467749Y-38479966D01*
X147264329Y-38387747D01*
X147056437Y-38302297D01*
X146950962Y-38262905D01*
X146844546Y-38226162D01*
X146737247Y-38192384D01*
X146629126Y-38161891D01*
X146520239Y-38135001D01*
X146410647Y-38112032D01*
X146300409Y-38093303D01*
X146189582Y-38079133D01*
X146078227Y-38069839D01*
X145966401Y-38065741D01*
X145854164Y-38067157D01*
X145741575Y-38074405D01*
X145669459Y-38083693D01*
X145597652Y-38096816D01*
X145526451Y-38113752D01*
X145456154Y-38134480D01*
X145387059Y-38158977D01*
X145319464Y-38187223D01*
X145253668Y-38219196D01*
X145189967Y-38254873D01*
X145128661Y-38294234D01*
X145098999Y-38315290D01*
X145070048Y-38337258D01*
X145041843Y-38360136D01*
X145014424Y-38383921D01*
X144987827Y-38408612D01*
X144962089Y-38434204D01*
X144937248Y-38460696D01*
X144913340Y-38488084D01*
X144890404Y-38516366D01*
X144868476Y-38545540D01*
X144847593Y-38575602D01*
X144827793Y-38606549D01*
X144809114Y-38638380D01*
X144791592Y-38671092D01*
X144746327Y-38759044D01*
X144706972Y-38848809D01*
X144673102Y-38940214D01*
X144644294Y-39033084D01*
X144620123Y-39127247D01*
X144600166Y-39222529D01*
X144583998Y-39318757D01*
X144571196Y-39415757D01*
X144561336Y-39513356D01*
X144553993Y-39611380D01*
X144545164Y-39808012D01*
X144539065Y-40198750D01*
X144545723Y-40526425D01*
X144562543Y-40853129D01*
X144589026Y-41178818D01*
X144624671Y-41503446D01*
X144668979Y-41826968D01*
X144721449Y-42149339D01*
X144781582Y-42470513D01*
X144848878Y-42790445D01*
X145002958Y-43426402D01*
X145179690Y-44056846D01*
X145375076Y-44681415D01*
X145585114Y-45299746D01*
X145915003Y-46226214D01*
X146082634Y-46688436D01*
X146256841Y-47147986D01*
X146339996Y-47343420D01*
X146383324Y-47441275D01*
X146406089Y-47489663D01*
X146429839Y-47537472D01*
X146454765Y-47584539D01*
X146481055Y-47630699D01*
X146508900Y-47675789D01*
X146538487Y-47719643D01*
X146570007Y-47762099D01*
X146603649Y-47802993D01*
X146639602Y-47842159D01*
X146678056Y-47879435D01*
X146688374Y-47885850D01*
X146698231Y-47892406D01*
X146707575Y-47899146D01*
X146716353Y-47906112D01*
X146724515Y-47913347D01*
X146732008Y-47920894D01*
X146738782Y-47928797D01*
X146741882Y-47932896D01*
X146744783Y-47937099D01*
X146747478Y-47941412D01*
X146749961Y-47945841D01*
X146752225Y-47950391D01*
X146754263Y-47955068D01*
X146756070Y-47959876D01*
X146757639Y-47964821D01*
X146758963Y-47969909D01*
X146760036Y-47975145D01*
X146760852Y-47980534D01*
X146761403Y-47986081D01*
X146761684Y-47991793D01*
X146761688Y-47997674D01*
X146761409Y-48003729D01*
X146760840Y-48009965D01*
X146759974Y-48016386D01*
X146758806Y-48022998D01*
X146767682Y-48273978D01*
X146773388Y-48399409D01*
X146780814Y-48524701D01*
X146790615Y-48649777D01*
X146803448Y-48774563D01*
X146819968Y-48898983D01*
X146840831Y-49022961D01*
X146888053Y-49288388D01*
X146944503Y-49551213D01*
X147009176Y-49811712D01*
X147081071Y-50070162D01*
X147159184Y-50326842D01*
X147242513Y-50582029D01*
X147420803Y-51089031D01*
X147795831Y-52097318D01*
X147976521Y-52603041D01*
X148141961Y-53112774D01*
X148230012Y-53417243D01*
X148307088Y-53724646D01*
X148372179Y-54034566D01*
X148399914Y-54190340D01*
X148424274Y-54346587D01*
X148445133Y-54503255D01*
X148462363Y-54660292D01*
X148475840Y-54817645D01*
X148485437Y-54975264D01*
X148491026Y-55133095D01*
X148492483Y-55291087D01*
X148489681Y-55449188D01*
X148482493Y-55607345D01*
X148469871Y-55793021D01*
X148451316Y-55978432D01*
X148426919Y-56163417D01*
X148396770Y-56347809D01*
X148360962Y-56531444D01*
X148319586Y-56714159D01*
X148272734Y-56895788D01*
X148220496Y-57076167D01*
X148162965Y-57255132D01*
X148100232Y-57432518D01*
X148032388Y-57608161D01*
X147959524Y-57781897D01*
X147881733Y-57953560D01*
X147799106Y-58122987D01*
X147711734Y-58290013D01*
X147619709Y-58454474D01*
X147517167Y-58622480D01*
X147412825Y-58789392D01*
X147202206Y-59122042D01*
X147097663Y-59288832D01*
X146994787Y-59456636D01*
X146894444Y-59625979D01*
X146797501Y-59797388D01*
X146602158Y-60156095D01*
X146411762Y-60517652D01*
X146034650Y-61242907D01*
X145842354Y-61603403D01*
X145643847Y-61960343D01*
X145436338Y-62312125D01*
X145217038Y-62657148D01*
X145099205Y-62845722D01*
X144986050Y-63037067D01*
X144877615Y-63231079D01*
X144773942Y-63427655D01*
X144675075Y-63626693D01*
X144581055Y-63828088D01*
X144491926Y-64031739D01*
X144407729Y-64237541D01*
X144171390Y-64851035D01*
X143959257Y-65472547D01*
X143768745Y-66100921D01*
X143597269Y-66734999D01*
X143442245Y-67373625D01*
X143301087Y-68015640D01*
X143171212Y-68659889D01*
X143050034Y-69305213D01*
X142990786Y-69672649D01*
X142941332Y-70041813D01*
X142902735Y-70412312D01*
X142876054Y-70783757D01*
X142862350Y-71155758D01*
X142862682Y-71527923D01*
X142878111Y-71899863D01*
X142891818Y-72085626D01*
X142909696Y-72271187D01*
X142949250Y-72642810D01*
X142998616Y-73012881D01*
X143057462Y-73381328D01*
X143125451Y-73748076D01*
X143202248Y-74113052D01*
X143287518Y-74476184D01*
X143380925Y-74837399D01*
X143482136Y-75196622D01*
X143706623Y-75908804D01*
X143958297Y-76612146D01*
X144234477Y-77306061D01*
X144532481Y-77989965D01*
X144706037Y-78338606D01*
X144892598Y-78679740D01*
X145091662Y-79013263D01*
X145302727Y-79339075D01*
X145525289Y-79657071D01*
X145758846Y-79967150D01*
X146002896Y-80269208D01*
X146256936Y-80563144D01*
X146520463Y-80848854D01*
X146792974Y-81126236D01*
X147073967Y-81395187D01*
X147362940Y-81655605D01*
X147659389Y-81907388D01*
X147962812Y-82150431D01*
X148272706Y-82384634D01*
X148588569Y-82609892D01*
X148938411Y-82846631D01*
X149294148Y-83073901D01*
X149655494Y-83291811D01*
X150022162Y-83500468D01*
X150393865Y-83699980D01*
X150770317Y-83890453D01*
X151151230Y-84071996D01*
X151536319Y-84244715D01*
X151925296Y-84408719D01*
X152317875Y-84564114D01*
X152713769Y-84711008D01*
X153112691Y-84849508D01*
X153918472Y-85101758D01*
X154732927Y-85321722D01*
X155304492Y-85454747D01*
X155879561Y-85572013D01*
X156457677Y-85673382D01*
X157038386Y-85758717D01*
X157621233Y-85827879D01*
X158205761Y-85880731D01*
X158791517Y-85917135D01*
X159378045Y-85936953D01*
X159572816Y-85931223D01*
X159767865Y-85921895D01*
X159963040Y-85911831D01*
X160158191Y-85903896D01*
X160353166Y-85900954D01*
X160450541Y-85902250D01*
X160547815Y-85905868D01*
X160644970Y-85912166D01*
X160741987Y-85921502D01*
X160838847Y-85934233D01*
X160935531Y-85950719D01*
X161302301Y-86008426D01*
X161484783Y-86042703D01*
X161666539Y-86080659D01*
X161847475Y-86122340D01*
X162027499Y-86167794D01*
X162206518Y-86217066D01*
X162384437Y-86270205D01*
X162561165Y-86327256D01*
X162736608Y-86388267D01*
X162910673Y-86453284D01*
X163083266Y-86522354D01*
X163254295Y-86595525D01*
X163423667Y-86672842D01*
X163591287Y-86754353D01*
X163757064Y-86840105D01*
X163853900Y-86893009D01*
X163950175Y-86948361D01*
X164045499Y-87006278D01*
X164139482Y-87066881D01*
X164231732Y-87130287D01*
X164321859Y-87196616D01*
X164409472Y-87265985D01*
X164494179Y-87338513D01*
X164575591Y-87414320D01*
X164653317Y-87493523D01*
X164726965Y-87576242D01*
X164796146Y-87662594D01*
X164860467Y-87752699D01*
X164919539Y-87846675D01*
X164972971Y-87944641D01*
X165020371Y-88046715D01*
X165034483Y-88082009D01*
X165047721Y-88117439D01*
X165060101Y-88152990D01*
X165071642Y-88188647D01*
X165082358Y-88224391D01*
X165092267Y-88260207D01*
X165109731Y-88331991D01*
X165124166Y-88403867D01*
X165135706Y-88475704D01*
X165144484Y-88547373D01*
X165150633Y-88618742D01*
X165154631Y-88703752D01*
X165155957Y-88788823D01*
X165154658Y-88873885D01*
X165150781Y-88958866D01*
X165144371Y-89043698D01*
X165135475Y-89128307D01*
X165124140Y-89212625D01*
X165110412Y-89296580D01*
X165094337Y-89380101D01*
X165075962Y-89463119D01*
X165055333Y-89545561D01*
X165032497Y-89627359D01*
X165007499Y-89708440D01*
X164980388Y-89788734D01*
X164951208Y-89868171D01*
X164920007Y-89946680D01*
X164888617Y-90020111D01*
X164854476Y-90092360D01*
X164817619Y-90163288D01*
X164778084Y-90232759D01*
X164735908Y-90300637D01*
X164691128Y-90366784D01*
X164643781Y-90431064D01*
X164593904Y-90493339D01*
X164541535Y-90553474D01*
X164486710Y-90611331D01*
X164429468Y-90666773D01*
X164369844Y-90719664D01*
X164307875Y-90769867D01*
X164243600Y-90817245D01*
X164177056Y-90861661D01*
X164108278Y-90902978D01*
X163951566Y-90988594D01*
X163792867Y-91070396D01*
X163632627Y-91149227D01*
X163471287Y-91225929D01*
X163147086Y-91376311D01*
X162823808Y-91528278D01*
X162692482Y-91585228D01*
X162559376Y-91636721D01*
X162424635Y-91682979D01*
X162288404Y-91724223D01*
X162150831Y-91760678D01*
X162012059Y-91792564D01*
X161872236Y-91820105D01*
X161731505Y-91843523D01*
X161590014Y-91863040D01*
X161447907Y-91878879D01*
X161305331Y-91891262D01*
X161162430Y-91900411D01*
X160876239Y-91909899D01*
X160590498Y-91909121D01*
X160387696Y-91900184D01*
X160185943Y-91886277D01*
X159985137Y-91867025D01*
X159785175Y-91842056D01*
X159585953Y-91810998D01*
X159387368Y-91773476D01*
X159189317Y-91729118D01*
X158991696Y-91677551D01*
X158878531Y-91646302D01*
X158765538Y-91613313D01*
X158653151Y-91577955D01*
X158541801Y-91539602D01*
X158431920Y-91497624D01*
X158377665Y-91475080D01*
X158323939Y-91451395D01*
X158270797Y-91426490D01*
X158218292Y-91400287D01*
X158166477Y-91372707D01*
X158115408Y-91343672D01*
X158078679Y-91313558D01*
X158040722Y-91285464D01*
X158001662Y-91259188D01*
X157961621Y-91234532D01*
X157920724Y-91211294D01*
X157879092Y-91189275D01*
X157836850Y-91168274D01*
X157794120Y-91148091D01*
X157707692Y-91109379D01*
X157620793Y-91071538D01*
X157534408Y-91032965D01*
X157449525Y-90992060D01*
X157304534Y-90926139D01*
X157157938Y-90861524D01*
X157009524Y-90800631D01*
X156934569Y-90772334D01*
X156859079Y-90745873D01*
X156783028Y-90721549D01*
X156706388Y-90699664D01*
X156629134Y-90680521D01*
X156551238Y-90664420D01*
X156472674Y-90651663D01*
X156393415Y-90642553D01*
X156313435Y-90637392D01*
X156232705Y-90636480D01*
X156184250Y-90636554D01*
X156136032Y-90638666D01*
X156088075Y-90642740D01*
X156040402Y-90648700D01*
X155993037Y-90656469D01*
X155946003Y-90665971D01*
X155899323Y-90677130D01*
X155853020Y-90689871D01*
X155807117Y-90704115D01*
X155761639Y-90719789D01*
X155716607Y-90736815D01*
X155672046Y-90755117D01*
X155627979Y-90774619D01*
X155584429Y-90795246D01*
X155541419Y-90816920D01*
X155498972Y-90839565D01*
X155407272Y-90877275D01*
X155361830Y-90897362D01*
X155316767Y-90918351D01*
X155272165Y-90940300D01*
X155228105Y-90963270D01*
X155184668Y-90987322D01*
X155141935Y-91012514D01*
X155099988Y-91038907D01*
X155058908Y-91066561D01*
X155018775Y-91095536D01*
X154979672Y-91125891D01*
X154941679Y-91157688D01*
X154904877Y-91190984D01*
X154869347Y-91225841D01*
X154835172Y-91262319D01*
X154778432Y-91324700D01*
X154726555Y-91390473D01*
X154679499Y-91459345D01*
X154637222Y-91531022D01*
X154599685Y-91605211D01*
X154566845Y-91681617D01*
X154538662Y-91759948D01*
X154515095Y-91839909D01*
X154496102Y-91921207D01*
X154481642Y-92003548D01*
X154471675Y-92086639D01*
X154466160Y-92170185D01*
X154465054Y-92253894D01*
X154468318Y-92337471D01*
X154475910Y-92420623D01*
X154487788Y-92503056D01*
X154490993Y-92532274D01*
X154495248Y-92561307D01*
X154500408Y-92590180D01*
X154506330Y-92618913D01*
X154519882Y-92676049D01*
X154534750Y-92732896D01*
X154549782Y-92789632D01*
X154563823Y-92846434D01*
X154570113Y-92874916D01*
X154575722Y-92903481D01*
X154580507Y-92932152D01*
X154584324Y-92960952D01*
X154592001Y-93057581D01*
X154605934Y-93152598D01*
X154625729Y-93246012D01*
X154650989Y-93337831D01*
X154681319Y-93428066D01*
X154716324Y-93516725D01*
X154755609Y-93603818D01*
X154798778Y-93689354D01*
X154845435Y-93773343D01*
X154895185Y-93855794D01*
X154947634Y-93936715D01*
X155002384Y-94016117D01*
X155059042Y-94094009D01*
X155117211Y-94170400D01*
X155236502Y-94318716D01*
X155377042Y-94476992D01*
X155524231Y-94628208D01*
X155677685Y-94772474D01*
X155837023Y-94909901D01*
X156001864Y-95040600D01*
X156171825Y-95164680D01*
X156346525Y-95282253D01*
X156525582Y-95393428D01*
X156708613Y-95498317D01*
X156895237Y-95597029D01*
X157085073Y-95689675D01*
X157277738Y-95776365D01*
X157472850Y-95857211D01*
X157670028Y-95932321D01*
X157868889Y-96001808D01*
X158069053Y-96065781D01*
X158255806Y-96120833D01*
X158443517Y-96171547D01*
X158632121Y-96218032D01*
X158821554Y-96260399D01*
X159011753Y-96298756D01*
X159202652Y-96333212D01*
X159394188Y-96363877D01*
X159586297Y-96390860D01*
X159586297Y-100234926D01*
X139080000Y-100234926D01*
X139080000Y-33470000D01*
X152943270Y-33470000D01*
X152943270Y-42004800D01*
X180412303Y-100234933D02*
X162398148Y-100234933D01*
X162398148Y-96434865D01*
X162437180Y-96431771D01*
X162768846Y-96398803D01*
X163099928Y-96357669D01*
X163430099Y-96308245D01*
X163759034Y-96250406D01*
X164086406Y-96184028D01*
X164411889Y-96108987D01*
X164735156Y-96025160D01*
X165055881Y-95932421D01*
X165373738Y-95830646D01*
X165688400Y-95719713D01*
X165999542Y-95599495D01*
X166306837Y-95469870D01*
X166609958Y-95330712D01*
X166908579Y-95181899D01*
X167202375Y-95023305D01*
X167491018Y-94854807D01*
X167724133Y-94707626D01*
X167953010Y-94553272D01*
X168177269Y-94391842D01*
X168396528Y-94223433D01*
X168610406Y-94048142D01*
X168818524Y-93866066D01*
X169020499Y-93677304D01*
X169215952Y-93481951D01*
X169404500Y-93280105D01*
X169585764Y-93071863D01*
X169759362Y-92857323D01*
X169924914Y-92636582D01*
X170082039Y-92409736D01*
X170230356Y-92176884D01*
X170369483Y-91938122D01*
X170499041Y-91693547D01*
X170629006Y-91417160D01*
X170745779Y-91134600D01*
X170849124Y-90846596D01*
X170938810Y-90553877D01*
X171014600Y-90257172D01*
X171076261Y-89957210D01*
X171123558Y-89654721D01*
X171156258Y-89350435D01*
X171174125Y-89045079D01*
X171176927Y-88739384D01*
X171164428Y-88434079D01*
X171136394Y-88129893D01*
X171092592Y-87827555D01*
X171032787Y-87527794D01*
X170956744Y-87231340D01*
X170864230Y-86938922D01*
X170801795Y-86768181D01*
X170733171Y-86599945D01*
X170658505Y-86434375D01*
X170577944Y-86271636D01*
X170491636Y-86111890D01*
X170399728Y-85955301D01*
X170302368Y-85802032D01*
X170199703Y-85652247D01*
X170091880Y-85506107D01*
X169979048Y-85363777D01*
X169861353Y-85225419D01*
X169738942Y-85091197D01*
X169611965Y-84961274D01*
X169480566Y-84835813D01*
X169344895Y-84714978D01*
X169205099Y-84598930D01*
X169055749Y-84475458D01*
X168902876Y-84355376D01*
X168746060Y-84240251D01*
X168666044Y-84185036D01*
X168584885Y-84131648D01*
X168502533Y-84080282D01*
X168418934Y-84031133D01*
X168334037Y-83984399D01*
X168247789Y-83940274D01*
X168160138Y-83898955D01*
X168071033Y-83860636D01*
X167980420Y-83825515D01*
X167888248Y-83793786D01*
X168013801Y-83666088D01*
X168142694Y-83541529D01*
X168407763Y-83299268D01*
X168947874Y-82824251D01*
X169080988Y-82703743D01*
X169211968Y-82581254D01*
X169340130Y-82456143D01*
X169464789Y-82327771D01*
X169585262Y-82195497D01*
X169700863Y-82058682D01*
X169810909Y-81916686D01*
X169914715Y-81768867D01*
X170135486Y-81430646D01*
X170352431Y-81089734D01*
X170564396Y-80745671D01*
X170770231Y-80397994D01*
X170968782Y-80046241D01*
X171158898Y-79689951D01*
X171339427Y-79328661D01*
X171509215Y-78961910D01*
X171547007Y-79037374D01*
X171587941Y-79111746D01*
X171631993Y-79184702D01*
X171679139Y-79255921D01*
X171729355Y-79325079D01*
X171782617Y-79391855D01*
X171838901Y-79455924D01*
X171898183Y-79516965D01*
X171960438Y-79574655D01*
X172025643Y-79628671D01*
X172093774Y-79678691D01*
X172164807Y-79724391D01*
X172238716Y-79765450D01*
X172315480Y-79801544D01*
X172395072Y-79832351D01*
X172435922Y-79845671D01*
X172477471Y-79857549D01*
X172541114Y-79874471D01*
X172605847Y-79887261D01*
X172671356Y-79895898D01*
X172737333Y-79900362D01*
X172803464Y-79900634D01*
X172869441Y-79896693D01*
X172934951Y-79888518D01*
X172999684Y-79876091D01*
X173063328Y-79859390D01*
X173125573Y-79838396D01*
X173186108Y-79813088D01*
X173244622Y-79783447D01*
X173300803Y-79749453D01*
X173327922Y-79730816D01*
X173354342Y-79711084D01*
X173380022Y-79690254D01*
X173404926Y-79668322D01*
X173429013Y-79645287D01*
X173452244Y-79621146D01*
X173516537Y-79552946D01*
X173576091Y-79481580D01*
X173631209Y-79407306D01*
X173682192Y-79330383D01*
X173729339Y-79251070D01*
X173772954Y-79169625D01*
X173813336Y-79086308D01*
X173850786Y-79001377D01*
X173885606Y-78915091D01*
X173918096Y-78827708D01*
X173977293Y-78650691D01*
X174030783Y-78472395D01*
X174080976Y-78294890D01*
X174170298Y-77945196D01*
X174261995Y-77596881D01*
X174310080Y-77423358D01*
X174360374Y-77250321D01*
X174413415Y-77077815D01*
X174469742Y-76905888D01*
X174680829Y-76269764D01*
X174908947Y-75637301D01*
X175156854Y-75011360D01*
X175289091Y-74701729D01*
X175427310Y-74394801D01*
X175571856Y-74090934D01*
X175723073Y-73790484D01*
X175881306Y-73493810D01*
X176046900Y-73201268D01*
X176220200Y-72913218D01*
X176401550Y-72630015D01*
X176591296Y-72352017D01*
X176789783Y-72079583D01*
X177042898Y-71746289D01*
X177300033Y-71414469D01*
X177556256Y-71081366D01*
X177806640Y-70744220D01*
X177928102Y-70573269D01*
X178046255Y-70400273D01*
X178160484Y-70224888D01*
X178270171Y-70046767D01*
X178374702Y-69865566D01*
X178473459Y-69680942D01*
X178565827Y-69492547D01*
X178651189Y-69300039D01*
X178726608Y-69123678D01*
X178797633Y-68943332D01*
X178830433Y-68851836D01*
X178860858Y-68759550D01*
X178888481Y-68666542D01*
X178912877Y-68572882D01*
X178933621Y-68478636D01*
X178950287Y-68383875D01*
X178962448Y-68288667D01*
X178969681Y-68193080D01*
X178971558Y-68097183D01*
X178967654Y-68001044D01*
X178957543Y-67904732D01*
X178940801Y-67808316D01*
X178914910Y-67703355D01*
X178883225Y-67600582D01*
X178846048Y-67500025D01*
X178803679Y-67401714D01*
X178756418Y-67305674D01*
X178704567Y-67211935D01*
X178648427Y-67120523D01*
X178588297Y-67031467D01*
X178524480Y-66944795D01*
X178457275Y-66860534D01*
X178386983Y-66778712D01*
X178313906Y-66699356D01*
X178238343Y-66622495D01*
X178160596Y-66548157D01*
X178080966Y-66476369D01*
X177999753Y-66407159D01*
X177868174Y-66307612D01*
X177731050Y-66216187D01*
X177588890Y-66133001D01*
X177442203Y-66058172D01*
X177291496Y-65991815D01*
X177137278Y-65934050D01*
X176980058Y-65884992D01*
X176820343Y-65844760D01*
X176658643Y-65813470D01*
X176495466Y-65791240D01*
X176331319Y-65778186D01*
X176166712Y-65774427D01*
X176002153Y-65780079D01*
X175838151Y-65795259D01*
X175675213Y-65820085D01*
X175513848Y-65854674D01*
X175401330Y-65883490D01*
X175290107Y-65916908D01*
X175180341Y-65954829D01*
X175072190Y-65997157D01*
X174965813Y-66043792D01*
X174861371Y-66094637D01*
X174759022Y-66149593D01*
X174658925Y-66208561D01*
X174561241Y-66271444D01*
X174466128Y-66338144D01*
X174373747Y-66408562D01*
X174284255Y-66482600D01*
X174197813Y-66560160D01*
X174114580Y-66641143D01*
X174034716Y-66725452D01*
X173958379Y-66812988D01*
X173911551Y-66727995D01*
X173861039Y-66645755D01*
X173807099Y-66566116D01*
X173749991Y-66488924D01*
X173689974Y-66414027D01*
X173627307Y-66341272D01*
X173562248Y-66270505D01*
X173495056Y-66201575D01*
X173425991Y-66134327D01*
X173355309Y-66068610D01*
X173283272Y-66004271D01*
X173210136Y-65941155D01*
X173061607Y-65817986D01*
X172911793Y-65697879D01*
X172812964Y-65614072D01*
X172711875Y-65532530D01*
X172608192Y-65454282D01*
X172555272Y-65416716D01*
X172501579Y-65380361D01*
X172447069Y-65345344D01*
X172391701Y-65311796D01*
X172335434Y-65279845D01*
X172278225Y-65249619D01*
X172220032Y-65221249D01*
X172160814Y-65194861D01*
X172100528Y-65170587D01*
X172039133Y-65148553D01*
X171862806Y-65084588D01*
X171684050Y-65028592D01*
X171503163Y-64980464D01*
X171320444Y-64940108D01*
X171136192Y-64907424D01*
X170950707Y-64882313D01*
X170764288Y-64864677D01*
X170577232Y-64854416D01*
X170389840Y-64851433D01*
X170202411Y-64855628D01*
X170015243Y-64866903D01*
X169828635Y-64885159D01*
X169642887Y-64910298D01*
X169458297Y-64942220D01*
X169275165Y-64980827D01*
X169093789Y-65026020D01*
X168953380Y-65069016D01*
X168813561Y-65114161D01*
X168674454Y-65161580D01*
X168536184Y-65211403D01*
X168398873Y-65263758D01*
X168262645Y-65318772D01*
X168127622Y-65376574D01*
X167993929Y-65437292D01*
X167942719Y-65462701D01*
X167891907Y-65489393D01*
X167841613Y-65517389D01*
X167791959Y-65546712D01*
X167743066Y-65577382D01*
X167695055Y-65609422D01*
X167648047Y-65642853D01*
X167602163Y-65677697D01*
X167557524Y-65713976D01*
X167514252Y-65751711D01*
X167472466Y-65790925D01*
X167432290Y-65831639D01*
X167393843Y-65873875D01*
X167357246Y-65917654D01*
X167322622Y-65962999D01*
X167290091Y-66009930D01*
X167231126Y-65973101D01*
X167173070Y-65934332D01*
X167116098Y-65893635D01*
X167060381Y-65851021D01*
X167006093Y-65806502D01*
X166953407Y-65760089D01*
X166902496Y-65711794D01*
X166853533Y-65661629D01*
X166806691Y-65609606D01*
X166762144Y-65555735D01*
X166720064Y-65500029D01*
X166680624Y-65442499D01*
X166643998Y-65383158D01*
X166610358Y-65322015D01*
X166579878Y-65259084D01*
X166552731Y-65194375D01*
X166543022Y-65162424D01*
X166535675Y-65129897D01*
X166530691Y-65096971D01*
X166528072Y-65063824D01*
X166527821Y-65030633D01*
X166529939Y-64997576D01*
X166534429Y-64964831D01*
X166541293Y-64932575D01*
X166550533Y-64900986D01*
X166556044Y-64885496D01*
X166562151Y-64870240D01*
X166568852Y-64855240D01*
X166576149Y-64840517D01*
X166584041Y-64826093D01*
X166592529Y-64811992D01*
X166601614Y-64798235D01*
X166611295Y-64784844D01*
X166621572Y-64771842D01*
X166632446Y-64759251D01*
X166643918Y-64747093D01*
X166655986Y-64735389D01*
X166668653Y-64724163D01*
X166681918Y-64713437D01*
X166752611Y-64646787D01*
X166822226Y-64579079D01*
X166890593Y-64510183D01*
X166957545Y-64439968D01*
X167022910Y-64368301D01*
X167086520Y-64295053D01*
X167148206Y-64220092D01*
X167207797Y-64143287D01*
X167271692Y-64062782D01*
X167333793Y-63980984D01*
X167394126Y-63897944D01*
X167452723Y-63813715D01*
X167509611Y-63728346D01*
X167564821Y-63641890D01*
X167670318Y-63465921D01*
X167769447Y-63286219D01*
X167862439Y-63103195D01*
X167949528Y-62917260D01*
X168030945Y-62728825D01*
X168127465Y-62497607D01*
X168218633Y-62263900D01*
X168304214Y-62027868D01*
X168383972Y-61789676D01*
X168457674Y-61549491D01*
X168525084Y-61307477D01*
X168585968Y-61063799D01*
X168640091Y-60818622D01*
X168687218Y-60572112D01*
X168727114Y-60324434D01*
X168759544Y-60075753D01*
X168784274Y-59826234D01*
X168801069Y-59576043D01*
X168809693Y-59325344D01*
X168809913Y-59074302D01*
X168801493Y-58823084D01*
X168788076Y-58628515D01*
X168768137Y-58434105D01*
X168741576Y-58240219D01*
X168708292Y-58047220D01*
X168668184Y-57855472D01*
X168621151Y-57665340D01*
X168567092Y-57477186D01*
X168505907Y-57291376D01*
X168437496Y-57108272D01*
X168361756Y-56928239D01*
X168278587Y-56751640D01*
X168187889Y-56578839D01*
X168089560Y-56410200D01*
X167983501Y-56246087D01*
X167869609Y-56086864D01*
X167747784Y-55932895D01*
X167681491Y-55852289D01*
X167613004Y-55773413D01*
X167542348Y-55696398D01*
X167469550Y-55621374D01*
X167394638Y-55548469D01*
X167317637Y-55477814D01*
X167238575Y-55409538D01*
X167157479Y-55343771D01*
X167074374Y-55280643D01*
X166989288Y-55220283D01*
X166902247Y-55162822D01*
X166813279Y-55108388D01*
X166722409Y-55057111D01*
X166629665Y-55009122D01*
X166535073Y-54964550D01*
X166438660Y-54923524D01*
X166340291Y-54882980D01*
X166240598Y-54845784D01*
X166139701Y-54811963D01*
X166037717Y-54781542D01*
X165934768Y-54754547D01*
X165830971Y-54731004D01*
X165726445Y-54710937D01*
X165621311Y-54694373D01*
X165515687Y-54681337D01*
X165409692Y-54671854D01*
X165303446Y-54665951D01*
X165197067Y-54663652D01*
X165090675Y-54664984D01*
X164984390Y-54669972D01*
X164878329Y-54678641D01*
X164772612Y-54691018D01*
X164770234Y-54630562D01*
X164770289Y-54570259D01*
X164772496Y-54510090D01*
X164776574Y-54450036D01*
X164782241Y-54390080D01*
X164789216Y-54330202D01*
X164805961Y-54210605D01*
X164842758Y-53971533D01*
X164858304Y-53851760D01*
X164864380Y-53791748D01*
X164868948Y-53731629D01*
X164885734Y-53507260D01*
X164898582Y-53282668D01*
X164916098Y-52833028D01*
X164928766Y-52383123D01*
X164943852Y-51933372D01*
X164950518Y-51263334D01*
X164939513Y-50593129D01*
X164910150Y-49923426D01*
X164861740Y-49254891D01*
X164793593Y-48588192D01*
X164705023Y-47923996D01*
X164595340Y-47262970D01*
X164463856Y-46605782D01*
X164397051Y-46329586D01*
X164322684Y-46055459D01*
X164241351Y-45783338D01*
X164153650Y-45513159D01*
X164060176Y-45244859D01*
X163961526Y-44978375D01*
X163858296Y-44713643D01*
X163751084Y-44450600D01*
X163603471Y-44072999D01*
X163568287Y-43977924D01*
X163535427Y-43882342D01*
X163505707Y-43786137D01*
X163492282Y-43737763D01*
X163479948Y-43689188D01*
X163501162Y-43573637D01*
X163516101Y-43457956D01*
X163525553Y-43342158D01*
X163530307Y-43226255D01*
X163531149Y-43110262D01*
X163528870Y-42994190D01*
X163518100Y-42761866D01*
X163504304Y-42529388D01*
X163493788Y-42296862D01*
X163491731Y-42180613D01*
X163492860Y-42064391D01*
X163497963Y-41948210D01*
X163507828Y-41832082D01*
X163509583Y-41728372D01*
X163509013Y-41624767D01*
X163501892Y-41417828D01*
X163488460Y-41211176D01*
X163470712Y-41004720D01*
X163430243Y-40592039D01*
X163411513Y-40385635D01*
X163396444Y-40179067D01*
X163346964Y-39718097D01*
X163286089Y-39258142D01*
X163212807Y-38799916D01*
X163126105Y-38344134D01*
X163024968Y-37891508D01*
X162908384Y-37442754D01*
X162775340Y-36998584D01*
X162624823Y-36559713D01*
X162582015Y-36466525D01*
X162535632Y-36374349D01*
X162485672Y-36283554D01*
X162432131Y-36194511D01*
X162375006Y-36107590D01*
X162314294Y-36023161D01*
X162249990Y-35941595D01*
X162182092Y-35863262D01*
X162110596Y-35788533D01*
X162035499Y-35717778D01*
X161956798Y-35651367D01*
X161874489Y-35589671D01*
X161788569Y-35533060D01*
X161699034Y-35481905D01*
X161605881Y-35436576D01*
X161557947Y-35416211D01*
X161509107Y-35397442D01*
X161483476Y-35388890D01*
X161457643Y-35380960D01*
X161431624Y-35373654D01*
X161405434Y-35366975D01*
X161379091Y-35360925D01*
X161352608Y-35355506D01*
X161326002Y-35350720D01*
X161299288Y-35346570D01*
X161272483Y-35343057D01*
X161245602Y-35340184D01*
X161218660Y-35337954D01*
X161191673Y-35336368D01*
X161164658Y-35335428D01*
X161137629Y-35335137D01*
X161110603Y-35335497D01*
X161083594Y-35336511D01*
X160888674Y-35360673D01*
X160790857Y-35375676D01*
X160693165Y-35392988D01*
X160595868Y-35412880D01*
X160499239Y-35435623D01*
X160403549Y-35461488D01*
X160309070Y-35490745D01*
X160216073Y-35523666D01*
X160124831Y-35560522D01*
X160035614Y-35601584D01*
X159948696Y-35647121D01*
X159864346Y-35697406D01*
X159782837Y-35752709D01*
X159704441Y-35813302D01*
X159629430Y-35879454D01*
X159518935Y-35982051D01*
X159414021Y-36089179D01*
X159314247Y-36200451D01*
X159219174Y-36315479D01*
X159128362Y-36433878D01*
X159041372Y-36555259D01*
X158957762Y-36679237D01*
X158877093Y-36805423D01*
X158722819Y-37062876D01*
X158575031Y-37324521D01*
X158284833Y-37848011D01*
X157919171Y-38507809D01*
X157739364Y-38839408D01*
X157562797Y-39172698D01*
X157390385Y-39508099D01*
X157223046Y-39846030D01*
X157061697Y-40186909D01*
X156907253Y-40531155D01*
X156819018Y-40727000D01*
X156775531Y-40825351D01*
X156733122Y-40924156D01*
X156692283Y-41023540D01*
X156653507Y-41123629D01*
X156617289Y-41224548D01*
X156584120Y-41326423D01*
X156583249Y-41332331D01*
X156581755Y-41337570D01*
X156579670Y-41342176D01*
X156577027Y-41346186D01*
X156573858Y-41349636D01*
X156570197Y-41352562D01*
X156566074Y-41355001D01*
X156561524Y-41356989D01*
X156556578Y-41358561D01*
X156551269Y-41359755D01*
X156545629Y-41360607D01*
X156539692Y-41361152D01*
X156527053Y-41361468D01*
X156513612Y-41360995D01*
X156457036Y-41357003D01*
X156443489Y-41356930D01*
X156430702Y-41357808D01*
X156424674Y-41358694D01*
X156418934Y-41359926D01*
X156413514Y-41361540D01*
X156408446Y-41363574D01*
X156235038Y-41376033D01*
X156061804Y-41390579D01*
X155888754Y-41407123D01*
X155715893Y-41425580D01*
X155715893Y-33470000D01*
X180412303Y-33470000D01*
X180412303Y-100234933D01*
X101701368Y-39983248D02*
X101767387Y-39988268D01*
X101832447Y-39996535D01*
X101896465Y-40007968D01*
X101959360Y-40022484D01*
X102021050Y-40040002D01*
X102081454Y-40060440D01*
X102140489Y-40083717D01*
X102198074Y-40109750D01*
X102254127Y-40138459D01*
X102308567Y-40169762D01*
X102361312Y-40203576D01*
X102412281Y-40239820D01*
X102461391Y-40278413D01*
X102508561Y-40319273D01*
X102553709Y-40362318D01*
X102596753Y-40407466D01*
X102637613Y-40454636D01*
X102676206Y-40503746D01*
X102712450Y-40554714D01*
X102746265Y-40607459D01*
X102777567Y-40661899D01*
X102806276Y-40717953D01*
X102832309Y-40775538D01*
X102855586Y-40834573D01*
X102876024Y-40894976D01*
X102893542Y-40956666D01*
X102908058Y-41019561D01*
X102919491Y-41083579D01*
X102927758Y-41148639D01*
X102932778Y-41214658D01*
X102934470Y-41281556D01*
X102932778Y-41348454D01*
X102927758Y-41414474D01*
X102919491Y-41479533D01*
X102908058Y-41543552D01*
X102893542Y-41606447D01*
X102876024Y-41668137D01*
X102855586Y-41728540D01*
X102832309Y-41787575D01*
X102806276Y-41845160D01*
X102777567Y-41901213D01*
X102746265Y-41955654D01*
X102712450Y-42008399D01*
X102676206Y-42059367D01*
X102637613Y-42108477D01*
X102596753Y-42155647D01*
X102553709Y-42200795D01*
X102508561Y-42243840D01*
X102461391Y-42284699D01*
X102412281Y-42323292D01*
X102361312Y-42359537D01*
X102308567Y-42393351D01*
X102254127Y-42424653D01*
X102198074Y-42453362D01*
X102140489Y-42479396D01*
X102081454Y-42502673D01*
X102021050Y-42523111D01*
X101959360Y-42540629D01*
X101896465Y-42555145D01*
X101832447Y-42566577D01*
X101767387Y-42574844D01*
X101701368Y-42579865D01*
X101634470Y-42581556D01*
X101567572Y-42579865D01*
X101501552Y-42574844D01*
X101436493Y-42566577D01*
X101372474Y-42555145D01*
X101309579Y-42540629D01*
X101247889Y-42523111D01*
X101187486Y-42502673D01*
X101128451Y-42479396D01*
X101070866Y-42453362D01*
X101014812Y-42424653D01*
X100960372Y-42393351D01*
X100907627Y-42359537D01*
X100856659Y-42323292D01*
X100807549Y-42284699D01*
X100760379Y-42243840D01*
X100715231Y-42200795D01*
X100672186Y-42155647D01*
X100631327Y-42108477D01*
X100592734Y-42059367D01*
X100556489Y-42008399D01*
X100522675Y-41955654D01*
X100491373Y-41901213D01*
X100462664Y-41845160D01*
X100436630Y-41787575D01*
X100413353Y-41728540D01*
X100392915Y-41668137D01*
X100375397Y-41606447D01*
X100360881Y-41543552D01*
X100349449Y-41479533D01*
X100341182Y-41414474D01*
X100336161Y-41348454D01*
X100334470Y-41281556D01*
X100336161Y-41214658D01*
X100341182Y-41148639D01*
X100349449Y-41083579D01*
X100360881Y-41019561D01*
X100375397Y-40956666D01*
X100392915Y-40894976D01*
X100413353Y-40834573D01*
X100436630Y-40775538D01*
X100462664Y-40717953D01*
X100491373Y-40661899D01*
X100522675Y-40607459D01*
X100556489Y-40554714D01*
X100592734Y-40503746D01*
X100631327Y-40454636D01*
X100672186Y-40407466D01*
X100715231Y-40362318D01*
X100760379Y-40319273D01*
X100807549Y-40278413D01*
X100856659Y-40239820D01*
X100907627Y-40203576D01*
X100960372Y-40169762D01*
X101014812Y-40138459D01*
X101070866Y-40109750D01*
X101128451Y-40083717D01*
X101187486Y-40060440D01*
X101247889Y-40040002D01*
X101309579Y-40022484D01*
X101372474Y-40007968D01*
X101436493Y-39996535D01*
X101501552Y-39988268D01*
X101567572Y-39983248D01*
X101634470Y-39981556D01*
X101701368Y-39983248D01*
X107593270Y-41984800D02*
X107501216Y-42018958D01*
X107409656Y-42054406D01*
X107318619Y-42091173D01*
X107228132Y-42129292D01*
X107138222Y-42168794D01*
X107048918Y-42209710D01*
X106960245Y-42252070D01*
X106872233Y-42295908D01*
X106807770Y-42198123D01*
X106739520Y-42103571D01*
X106667837Y-42011959D01*
X106593071Y-41922996D01*
X106515574Y-41836392D01*
X106435699Y-41751856D01*
X106353797Y-41669097D01*
X106270221Y-41587824D01*
X105583532Y-40956217D01*
X105187921Y-40595335D01*
X104784085Y-40242135D01*
X104370763Y-39899754D01*
X103946695Y-39571330D01*
X103730237Y-39413333D01*
X103510620Y-39260002D01*
X103287686Y-39111729D01*
X103061278Y-38968906D01*
X102831237Y-38831927D01*
X102597407Y-38701182D01*
X102359630Y-38577064D01*
X102117749Y-38459966D01*
X101914329Y-38367747D01*
X101706437Y-38282297D01*
X101600962Y-38242905D01*
X101494546Y-38206162D01*
X101387247Y-38172384D01*
X101279126Y-38141891D01*
X101170239Y-38115001D01*
X101060647Y-38092032D01*
X100950409Y-38073303D01*
X100839582Y-38059133D01*
X100728227Y-38049839D01*
X100616401Y-38045741D01*
X100504164Y-38047157D01*
X100391575Y-38054405D01*
X100319459Y-38063693D01*
X100247652Y-38076816D01*
X100176451Y-38093752D01*
X100106154Y-38114480D01*
X100037059Y-38138977D01*
X99969464Y-38167223D01*
X99903668Y-38199196D01*
X99839967Y-38234873D01*
X99778661Y-38274234D01*
X99748999Y-38295290D01*
X99720048Y-38317258D01*
X99691843Y-38340136D01*
X99664424Y-38363921D01*
X99637827Y-38388612D01*
X99612089Y-38414204D01*
X99587248Y-38440696D01*
X99563340Y-38468084D01*
X99540404Y-38496366D01*
X99518476Y-38525540D01*
X99497593Y-38555602D01*
X99477793Y-38586549D01*
X99459114Y-38618380D01*
X99441592Y-38651092D01*
X99396327Y-38739044D01*
X99356972Y-38828809D01*
X99323102Y-38920214D01*
X99294294Y-39013084D01*
X99270123Y-39107247D01*
X99250166Y-39202529D01*
X99233998Y-39298757D01*
X99221196Y-39395757D01*
X99211336Y-39493356D01*
X99203993Y-39591380D01*
X99195164Y-39788012D01*
X99189065Y-40178750D01*
X99195723Y-40506425D01*
X99212543Y-40833129D01*
X99239026Y-41158818D01*
X99274671Y-41483446D01*
X99318979Y-41806968D01*
X99371449Y-42129339D01*
X99431582Y-42450513D01*
X99498878Y-42770445D01*
X99652958Y-43406402D01*
X99829690Y-44036846D01*
X100025076Y-44661415D01*
X100235114Y-45279746D01*
X100565003Y-46206214D01*
X100732634Y-46668436D01*
X100906841Y-47127986D01*
X100989996Y-47323420D01*
X101033324Y-47421275D01*
X101056089Y-47469663D01*
X101079839Y-47517472D01*
X101104765Y-47564539D01*
X101131055Y-47610699D01*
X101158900Y-47655789D01*
X101188487Y-47699643D01*
X101220007Y-47742099D01*
X101253649Y-47782993D01*
X101289602Y-47822159D01*
X101328056Y-47859435D01*
X101338374Y-47865850D01*
X101348231Y-47872406D01*
X101357575Y-47879146D01*
X101366353Y-47886112D01*
X101374515Y-47893347D01*
X101382008Y-47900894D01*
X101388782Y-47908797D01*
X101391882Y-47912896D01*
X101394783Y-47917099D01*
X101397478Y-47921412D01*
X101399961Y-47925841D01*
X101402225Y-47930391D01*
X101404263Y-47935068D01*
X101406070Y-47939876D01*
X101407639Y-47944821D01*
X101408963Y-47949909D01*
X101410036Y-47955145D01*
X101410852Y-47960534D01*
X101411403Y-47966081D01*
X101411684Y-47971793D01*
X101411688Y-47977674D01*
X101411409Y-47983729D01*
X101410840Y-47989965D01*
X101409974Y-47996386D01*
X101408806Y-48002998D01*
X101417682Y-48253978D01*
X101423388Y-48379409D01*
X101430814Y-48504701D01*
X101440615Y-48629777D01*
X101453448Y-48754563D01*
X101469968Y-48878983D01*
X101490831Y-49002961D01*
X101538053Y-49268388D01*
X101594503Y-49531213D01*
X101659176Y-49791712D01*
X101731071Y-50050162D01*
X101809184Y-50306842D01*
X101892513Y-50562029D01*
X102070803Y-51069031D01*
X102445831Y-52077318D01*
X102626521Y-52583041D01*
X102791961Y-53092774D01*
X102880012Y-53397243D01*
X102957088Y-53704646D01*
X103022179Y-54014566D01*
X103049914Y-54170340D01*
X103074274Y-54326587D01*
X103095133Y-54483255D01*
X103112363Y-54640292D01*
X103125840Y-54797645D01*
X103135437Y-54955264D01*
X103141026Y-55113095D01*
X103142483Y-55271087D01*
X103139681Y-55429188D01*
X103132493Y-55587345D01*
X103119871Y-55773021D01*
X103101316Y-55958432D01*
X103076919Y-56143417D01*
X103046770Y-56327809D01*
X103010962Y-56511444D01*
X102969586Y-56694159D01*
X102922734Y-56875788D01*
X102870496Y-57056167D01*
X102812965Y-57235132D01*
X102750232Y-57412518D01*
X102682388Y-57588161D01*
X102609524Y-57761897D01*
X102531733Y-57933560D01*
X102449106Y-58102987D01*
X102361734Y-58270013D01*
X102269709Y-58434474D01*
X102167167Y-58602480D01*
X102062825Y-58769392D01*
X101852206Y-59102042D01*
X101747663Y-59268832D01*
X101644787Y-59436636D01*
X101544444Y-59605979D01*
X101447501Y-59777388D01*
X101252158Y-60136095D01*
X101061762Y-60497652D01*
X100684650Y-61222907D01*
X100492354Y-61583403D01*
X100293847Y-61940343D01*
X100086338Y-62292125D01*
X99867038Y-62637148D01*
X99749205Y-62825722D01*
X99636050Y-63017067D01*
X99527615Y-63211079D01*
X99423942Y-63407655D01*
X99325075Y-63606693D01*
X99231055Y-63808088D01*
X99141926Y-64011739D01*
X99057729Y-64217541D01*
X98821390Y-64831035D01*
X98609257Y-65452547D01*
X98418745Y-66080921D01*
X98247269Y-66714999D01*
X98092245Y-67353625D01*
X97951087Y-67995640D01*
X97821212Y-68639889D01*
X97700034Y-69285213D01*
X97640786Y-69652649D01*
X97591332Y-70021813D01*
X97552735Y-70392312D01*
X97526054Y-70763757D01*
X97512350Y-71135758D01*
X97512682Y-71507923D01*
X97528111Y-71879863D01*
X97541818Y-72065626D01*
X97559696Y-72251187D01*
X97599250Y-72622810D01*
X97648616Y-72992881D01*
X97707462Y-73361328D01*
X97775451Y-73728076D01*
X97852248Y-74093052D01*
X97937518Y-74456184D01*
X98030925Y-74817399D01*
X98132136Y-75176622D01*
X98356623Y-75888804D01*
X98608297Y-76592146D01*
X98884477Y-77286061D01*
X99182481Y-77969965D01*
X99356037Y-78318606D01*
X99542598Y-78659740D01*
X99741662Y-78993263D01*
X99952727Y-79319075D01*
X100175289Y-79637071D01*
X100408846Y-79947150D01*
X100652896Y-80249208D01*
X100906936Y-80543144D01*
X101170463Y-80828854D01*
X101442974Y-81106236D01*
X101723967Y-81375187D01*
X102012940Y-81635605D01*
X102309389Y-81887388D01*
X102612812Y-82130431D01*
X102922706Y-82364634D01*
X103238569Y-82589892D01*
X103588411Y-82826631D01*
X103944148Y-83053901D01*
X104305494Y-83271811D01*
X104672162Y-83480468D01*
X105043865Y-83679980D01*
X105420317Y-83870453D01*
X105801230Y-84051996D01*
X106186319Y-84224715D01*
X106575296Y-84388719D01*
X106967875Y-84544114D01*
X107363769Y-84691008D01*
X107762691Y-84829508D01*
X108568472Y-85081758D01*
X109382927Y-85301722D01*
X109954492Y-85434747D01*
X110529561Y-85552013D01*
X111107677Y-85653382D01*
X111688386Y-85738717D01*
X112271233Y-85807879D01*
X112855761Y-85860731D01*
X113441517Y-85897135D01*
X114028045Y-85916953D01*
X114222816Y-85911223D01*
X114417865Y-85901895D01*
X114613040Y-85891831D01*
X114808191Y-85883896D01*
X115003166Y-85880954D01*
X115100541Y-85882250D01*
X115197815Y-85885868D01*
X115294970Y-85892166D01*
X115391987Y-85901502D01*
X115488847Y-85914233D01*
X115585531Y-85930719D01*
X115952301Y-85988426D01*
X116134783Y-86022703D01*
X116316539Y-86060659D01*
X116497475Y-86102340D01*
X116677499Y-86147794D01*
X116856518Y-86197066D01*
X117034437Y-86250205D01*
X117211165Y-86307256D01*
X117386608Y-86368267D01*
X117560673Y-86433284D01*
X117733266Y-86502354D01*
X117904295Y-86575525D01*
X118073667Y-86652842D01*
X118241287Y-86734353D01*
X118407064Y-86820105D01*
X118503900Y-86873009D01*
X118600175Y-86928361D01*
X118695499Y-86986278D01*
X118789482Y-87046881D01*
X118881732Y-87110287D01*
X118971859Y-87176616D01*
X119059472Y-87245985D01*
X119144179Y-87318513D01*
X119225591Y-87394320D01*
X119303317Y-87473523D01*
X119376965Y-87556242D01*
X119446146Y-87642594D01*
X119510467Y-87732699D01*
X119569539Y-87826675D01*
X119622971Y-87924641D01*
X119670371Y-88026715D01*
X119684483Y-88062009D01*
X119697721Y-88097439D01*
X119710101Y-88132990D01*
X119721642Y-88168647D01*
X119732358Y-88204391D01*
X119742267Y-88240207D01*
X119759731Y-88311991D01*
X119774166Y-88383867D01*
X119785706Y-88455704D01*
X119794484Y-88527373D01*
X119800633Y-88598742D01*
X119804631Y-88683752D01*
X119805957Y-88768823D01*
X119804658Y-88853885D01*
X119800781Y-88938866D01*
X119794371Y-89023698D01*
X119785475Y-89108307D01*
X119774140Y-89192625D01*
X119760412Y-89276580D01*
X119744337Y-89360101D01*
X119725962Y-89443119D01*
X119705333Y-89525561D01*
X119682497Y-89607359D01*
X119657499Y-89688440D01*
X119630388Y-89768734D01*
X119601208Y-89848171D01*
X119570007Y-89926680D01*
X119538617Y-90000111D01*
X119504476Y-90072360D01*
X119467619Y-90143288D01*
X119428084Y-90212759D01*
X119385908Y-90280637D01*
X119341128Y-90346784D01*
X119293781Y-90411064D01*
X119243904Y-90473339D01*
X119191535Y-90533474D01*
X119136710Y-90591331D01*
X119079468Y-90646773D01*
X119019844Y-90699664D01*
X118957875Y-90749867D01*
X118893600Y-90797245D01*
X118827056Y-90841661D01*
X118758278Y-90882978D01*
X118601566Y-90968594D01*
X118442867Y-91050396D01*
X118282627Y-91129227D01*
X118121287Y-91205929D01*
X117797086Y-91356311D01*
X117473808Y-91508278D01*
X117342482Y-91565228D01*
X117209376Y-91616721D01*
X117074635Y-91662979D01*
X116938404Y-91704223D01*
X116800831Y-91740678D01*
X116662059Y-91772564D01*
X116522236Y-91800105D01*
X116381505Y-91823523D01*
X116240014Y-91843040D01*
X116097907Y-91858879D01*
X115955331Y-91871262D01*
X115812430Y-91880411D01*
X115526239Y-91889899D01*
X115240498Y-91889121D01*
X115037696Y-91880184D01*
X114835943Y-91866277D01*
X114635137Y-91847025D01*
X114435175Y-91822056D01*
X114235953Y-91790998D01*
X114037368Y-91753476D01*
X113839317Y-91709118D01*
X113641696Y-91657551D01*
X113528531Y-91626302D01*
X113415538Y-91593313D01*
X113303151Y-91557955D01*
X113191801Y-91519602D01*
X113081920Y-91477624D01*
X113027665Y-91455080D01*
X112973939Y-91431395D01*
X112920797Y-91406490D01*
X112868292Y-91380287D01*
X112816477Y-91352707D01*
X112765408Y-91323672D01*
X112728679Y-91293558D01*
X112690722Y-91265464D01*
X112651662Y-91239188D01*
X112611621Y-91214532D01*
X112570724Y-91191294D01*
X112529092Y-91169275D01*
X112486850Y-91148274D01*
X112444120Y-91128091D01*
X112357692Y-91089379D01*
X112270793Y-91051538D01*
X112184408Y-91012965D01*
X112099525Y-90972060D01*
X111954534Y-90906139D01*
X111807938Y-90841524D01*
X111659524Y-90780631D01*
X111584569Y-90752334D01*
X111509079Y-90725873D01*
X111433028Y-90701549D01*
X111356388Y-90679664D01*
X111279134Y-90660521D01*
X111201238Y-90644420D01*
X111122674Y-90631663D01*
X111043415Y-90622553D01*
X110963435Y-90617392D01*
X110882705Y-90616480D01*
X110834250Y-90616554D01*
X110786032Y-90618666D01*
X110738075Y-90622740D01*
X110690402Y-90628700D01*
X110643037Y-90636469D01*
X110596003Y-90645971D01*
X110549323Y-90657130D01*
X110503020Y-90669871D01*
X110457117Y-90684115D01*
X110411639Y-90699789D01*
X110366607Y-90716815D01*
X110322046Y-90735117D01*
X110277979Y-90754619D01*
X110234429Y-90775246D01*
X110191419Y-90796920D01*
X110148972Y-90819565D01*
X110057272Y-90857275D01*
X110011830Y-90877362D01*
X109966767Y-90898351D01*
X109922165Y-90920300D01*
X109878105Y-90943270D01*
X109834668Y-90967322D01*
X109791935Y-90992514D01*
X109749988Y-91018907D01*
X109708908Y-91046561D01*
X109668775Y-91075536D01*
X109629672Y-91105891D01*
X109591679Y-91137688D01*
X109554877Y-91170984D01*
X109519347Y-91205841D01*
X109485172Y-91242319D01*
X109428432Y-91304700D01*
X109376555Y-91370473D01*
X109329499Y-91439345D01*
X109287222Y-91511022D01*
X109249685Y-91585211D01*
X109216845Y-91661617D01*
X109188662Y-91739948D01*
X109165095Y-91819909D01*
X109146102Y-91901207D01*
X109131642Y-91983548D01*
X109121675Y-92066639D01*
X109116160Y-92150185D01*
X109115054Y-92233894D01*
X109118318Y-92317471D01*
X109125910Y-92400623D01*
X109137788Y-92483056D01*
X109140993Y-92512274D01*
X109145248Y-92541307D01*
X109150408Y-92570180D01*
X109156330Y-92598913D01*
X109169882Y-92656049D01*
X109184750Y-92712896D01*
X109199782Y-92769632D01*
X109213823Y-92826434D01*
X109220113Y-92854916D01*
X109225722Y-92883481D01*
X109230507Y-92912152D01*
X109234324Y-92940952D01*
X109242001Y-93037581D01*
X109255934Y-93132598D01*
X109275729Y-93226012D01*
X109300989Y-93317831D01*
X109331319Y-93408066D01*
X109366324Y-93496725D01*
X109405609Y-93583818D01*
X109448778Y-93669354D01*
X109495435Y-93753343D01*
X109545185Y-93835794D01*
X109597634Y-93916715D01*
X109652384Y-93996117D01*
X109709042Y-94074009D01*
X109767211Y-94150400D01*
X109886502Y-94298716D01*
X110027042Y-94456992D01*
X110174231Y-94608208D01*
X110327685Y-94752474D01*
X110487023Y-94889901D01*
X110651864Y-95020600D01*
X110821825Y-95144680D01*
X110996525Y-95262253D01*
X111175582Y-95373428D01*
X111358613Y-95478317D01*
X111545237Y-95577029D01*
X111735073Y-95669675D01*
X111927738Y-95756365D01*
X112122850Y-95837211D01*
X112320028Y-95912321D01*
X112518889Y-95981808D01*
X112719053Y-96045781D01*
X112905806Y-96100833D01*
X113093517Y-96151547D01*
X113282121Y-96198032D01*
X113471554Y-96240399D01*
X113661753Y-96278756D01*
X113852652Y-96313212D01*
X114044188Y-96343877D01*
X114236297Y-96370860D01*
X114236297Y-100214926D01*
X93730000Y-100214926D01*
X93730000Y-33450000D01*
X107593270Y-33450000D01*
X107593270Y-41984800D01*
X135062303Y-100214933D02*
X117048148Y-100214933D01*
X117048148Y-96414865D01*
X117087180Y-96411771D01*
X117418846Y-96378803D01*
X117749928Y-96337669D01*
X118080099Y-96288245D01*
X118409034Y-96230406D01*
X118736406Y-96164028D01*
X119061889Y-96088987D01*
X119385156Y-96005160D01*
X119705881Y-95912421D01*
X120023738Y-95810646D01*
X120338400Y-95699713D01*
X120649542Y-95579495D01*
X120956837Y-95449870D01*
X121259958Y-95310712D01*
X121558579Y-95161899D01*
X121852375Y-95003305D01*
X122141018Y-94834807D01*
X122374133Y-94687626D01*
X122603010Y-94533272D01*
X122827269Y-94371842D01*
X123046528Y-94203433D01*
X123260406Y-94028142D01*
X123468524Y-93846066D01*
X123670499Y-93657304D01*
X123865952Y-93461951D01*
X124054500Y-93260105D01*
X124235764Y-93051863D01*
X124409362Y-92837323D01*
X124574914Y-92616582D01*
X124732039Y-92389736D01*
X124880356Y-92156884D01*
X125019483Y-91918122D01*
X125149041Y-91673547D01*
X125279006Y-91397160D01*
X125395779Y-91114600D01*
X125499124Y-90826596D01*
X125588810Y-90533877D01*
X125664600Y-90237172D01*
X125726261Y-89937210D01*
X125773558Y-89634721D01*
X125806258Y-89330435D01*
X125824125Y-89025079D01*
X125826927Y-88719384D01*
X125814428Y-88414079D01*
X125786394Y-88109893D01*
X125742592Y-87807555D01*
X125682787Y-87507794D01*
X125606744Y-87211340D01*
X125514230Y-86918922D01*
X125451795Y-86748181D01*
X125383171Y-86579945D01*
X125308505Y-86414375D01*
X125227944Y-86251636D01*
X125141636Y-86091890D01*
X125049728Y-85935301D01*
X124952368Y-85782032D01*
X124849703Y-85632247D01*
X124741880Y-85486107D01*
X124629048Y-85343777D01*
X124511353Y-85205419D01*
X124388942Y-85071197D01*
X124261965Y-84941274D01*
X124130566Y-84815813D01*
X123994895Y-84694978D01*
X123855099Y-84578930D01*
X123705749Y-84455458D01*
X123552876Y-84335376D01*
X123396060Y-84220251D01*
X123316044Y-84165036D01*
X123234885Y-84111648D01*
X123152533Y-84060282D01*
X123068934Y-84011133D01*
X122984037Y-83964399D01*
X122897789Y-83920274D01*
X122810138Y-83878955D01*
X122721033Y-83840636D01*
X122630420Y-83805515D01*
X122538248Y-83773786D01*
X122663801Y-83646088D01*
X122792694Y-83521529D01*
X123057763Y-83279268D01*
X123597874Y-82804251D01*
X123730988Y-82683743D01*
X123861968Y-82561254D01*
X123990130Y-82436143D01*
X124114789Y-82307771D01*
X124235262Y-82175497D01*
X124350863Y-82038682D01*
X124460909Y-81896686D01*
X124564715Y-81748867D01*
X124785486Y-81410646D01*
X125002431Y-81069734D01*
X125214396Y-80725671D01*
X125420231Y-80377994D01*
X125618782Y-80026241D01*
X125808898Y-79669951D01*
X125989427Y-79308661D01*
X126159215Y-78941910D01*
X126197007Y-79017374D01*
X126237941Y-79091746D01*
X126281993Y-79164702D01*
X126329139Y-79235921D01*
X126379355Y-79305079D01*
X126432617Y-79371855D01*
X126488901Y-79435924D01*
X126548183Y-79496965D01*
X126610438Y-79554655D01*
X126675643Y-79608671D01*
X126743774Y-79658691D01*
X126814807Y-79704391D01*
X126888716Y-79745450D01*
X126965480Y-79781544D01*
X127045072Y-79812351D01*
X127085922Y-79825671D01*
X127127471Y-79837549D01*
X127191114Y-79854471D01*
X127255847Y-79867261D01*
X127321356Y-79875898D01*
X127387333Y-79880362D01*
X127453464Y-79880634D01*
X127519441Y-79876693D01*
X127584951Y-79868518D01*
X127649684Y-79856091D01*
X127713328Y-79839390D01*
X127775573Y-79818396D01*
X127836108Y-79793088D01*
X127894622Y-79763447D01*
X127950803Y-79729453D01*
X127977922Y-79710816D01*
X128004342Y-79691084D01*
X128030022Y-79670254D01*
X128054926Y-79648322D01*
X128079013Y-79625287D01*
X128102244Y-79601146D01*
X128166537Y-79532946D01*
X128226091Y-79461580D01*
X128281209Y-79387306D01*
X128332192Y-79310383D01*
X128379339Y-79231070D01*
X128422954Y-79149625D01*
X128463336Y-79066308D01*
X128500786Y-78981377D01*
X128535606Y-78895091D01*
X128568096Y-78807708D01*
X128627293Y-78630691D01*
X128680783Y-78452395D01*
X128730976Y-78274890D01*
X128820298Y-77925196D01*
X128911995Y-77576881D01*
X128960080Y-77403358D01*
X129010374Y-77230321D01*
X129063415Y-77057815D01*
X129119742Y-76885888D01*
X129330829Y-76249764D01*
X129558947Y-75617301D01*
X129806854Y-74991360D01*
X129939091Y-74681729D01*
X130077310Y-74374801D01*
X130221856Y-74070934D01*
X130373073Y-73770484D01*
X130531306Y-73473810D01*
X130696900Y-73181268D01*
X130870200Y-72893218D01*
X131051550Y-72610015D01*
X131241296Y-72332017D01*
X131439783Y-72059583D01*
X131692898Y-71726289D01*
X131950033Y-71394469D01*
X132206256Y-71061366D01*
X132456640Y-70724220D01*
X132578102Y-70553269D01*
X132696255Y-70380273D01*
X132810484Y-70204888D01*
X132920171Y-70026767D01*
X133024702Y-69845566D01*
X133123459Y-69660942D01*
X133215827Y-69472547D01*
X133301189Y-69280039D01*
X133376608Y-69103678D01*
X133447633Y-68923332D01*
X133480433Y-68831836D01*
X133510858Y-68739550D01*
X133538481Y-68646542D01*
X133562877Y-68552882D01*
X133583621Y-68458636D01*
X133600287Y-68363875D01*
X133612448Y-68268667D01*
X133619681Y-68173080D01*
X133621558Y-68077183D01*
X133617654Y-67981044D01*
X133607543Y-67884732D01*
X133590801Y-67788316D01*
X133564910Y-67683355D01*
X133533225Y-67580582D01*
X133496048Y-67480025D01*
X133453679Y-67381714D01*
X133406418Y-67285674D01*
X133354567Y-67191935D01*
X133298427Y-67100523D01*
X133238297Y-67011467D01*
X133174480Y-66924795D01*
X133107275Y-66840534D01*
X133036983Y-66758712D01*
X132963906Y-66679356D01*
X132888343Y-66602495D01*
X132810596Y-66528157D01*
X132730966Y-66456369D01*
X132649753Y-66387159D01*
X132518174Y-66287612D01*
X132381050Y-66196187D01*
X132238890Y-66113001D01*
X132092203Y-66038172D01*
X131941496Y-65971815D01*
X131787278Y-65914050D01*
X131630058Y-65864992D01*
X131470343Y-65824760D01*
X131308643Y-65793470D01*
X131145466Y-65771240D01*
X130981319Y-65758186D01*
X130816712Y-65754427D01*
X130652153Y-65760079D01*
X130488151Y-65775259D01*
X130325213Y-65800085D01*
X130163848Y-65834674D01*
X130051330Y-65863490D01*
X129940107Y-65896908D01*
X129830341Y-65934829D01*
X129722190Y-65977157D01*
X129615813Y-66023792D01*
X129511371Y-66074637D01*
X129409022Y-66129593D01*
X129308925Y-66188561D01*
X129211241Y-66251444D01*
X129116128Y-66318144D01*
X129023747Y-66388562D01*
X128934255Y-66462600D01*
X128847813Y-66540160D01*
X128764580Y-66621143D01*
X128684716Y-66705452D01*
X128608379Y-66792988D01*
X128561551Y-66707995D01*
X128511039Y-66625755D01*
X128457099Y-66546116D01*
X128399991Y-66468924D01*
X128339974Y-66394027D01*
X128277307Y-66321272D01*
X128212248Y-66250505D01*
X128145056Y-66181575D01*
X128075991Y-66114327D01*
X128005309Y-66048610D01*
X127933272Y-65984271D01*
X127860136Y-65921155D01*
X127711607Y-65797986D01*
X127561793Y-65677879D01*
X127462964Y-65594072D01*
X127361875Y-65512530D01*
X127258192Y-65434282D01*
X127205272Y-65396716D01*
X127151579Y-65360361D01*
X127097069Y-65325344D01*
X127041701Y-65291796D01*
X126985434Y-65259845D01*
X126928225Y-65229619D01*
X126870032Y-65201249D01*
X126810814Y-65174861D01*
X126750528Y-65150587D01*
X126689133Y-65128553D01*
X126512806Y-65064588D01*
X126334050Y-65008592D01*
X126153163Y-64960464D01*
X125970444Y-64920108D01*
X125786192Y-64887424D01*
X125600707Y-64862313D01*
X125414288Y-64844677D01*
X125227232Y-64834416D01*
X125039840Y-64831433D01*
X124852411Y-64835628D01*
X124665243Y-64846903D01*
X124478635Y-64865159D01*
X124292887Y-64890298D01*
X124108297Y-64922220D01*
X123925165Y-64960827D01*
X123743789Y-65006020D01*
X123603380Y-65049016D01*
X123463561Y-65094161D01*
X123324454Y-65141580D01*
X123186184Y-65191403D01*
X123048873Y-65243758D01*
X122912645Y-65298772D01*
X122777622Y-65356574D01*
X122643929Y-65417292D01*
X122592719Y-65442701D01*
X122541907Y-65469393D01*
X122491613Y-65497389D01*
X122441959Y-65526712D01*
X122393066Y-65557382D01*
X122345055Y-65589422D01*
X122298047Y-65622853D01*
X122252163Y-65657697D01*
X122207524Y-65693976D01*
X122164252Y-65731711D01*
X122122466Y-65770925D01*
X122082290Y-65811639D01*
X122043843Y-65853875D01*
X122007246Y-65897654D01*
X121972622Y-65942999D01*
X121940091Y-65989930D01*
X121881126Y-65953101D01*
X121823070Y-65914332D01*
X121766098Y-65873635D01*
X121710381Y-65831021D01*
X121656093Y-65786502D01*
X121603407Y-65740089D01*
X121552496Y-65691794D01*
X121503533Y-65641629D01*
X121456691Y-65589606D01*
X121412144Y-65535735D01*
X121370064Y-65480029D01*
X121330624Y-65422499D01*
X121293998Y-65363158D01*
X121260358Y-65302015D01*
X121229878Y-65239084D01*
X121202731Y-65174375D01*
X121193022Y-65142424D01*
X121185675Y-65109897D01*
X121180691Y-65076971D01*
X121178072Y-65043824D01*
X121177821Y-65010633D01*
X121179939Y-64977576D01*
X121184429Y-64944831D01*
X121191293Y-64912575D01*
X121200533Y-64880986D01*
X121206044Y-64865496D01*
X121212151Y-64850240D01*
X121218852Y-64835240D01*
X121226149Y-64820517D01*
X121234041Y-64806093D01*
X121242529Y-64791992D01*
X121251614Y-64778235D01*
X121261295Y-64764844D01*
X121271572Y-64751842D01*
X121282446Y-64739251D01*
X121293918Y-64727093D01*
X121305986Y-64715389D01*
X121318653Y-64704163D01*
X121331918Y-64693437D01*
X121402611Y-64626787D01*
X121472226Y-64559079D01*
X121540593Y-64490183D01*
X121607545Y-64419968D01*
X121672910Y-64348301D01*
X121736520Y-64275053D01*
X121798206Y-64200092D01*
X121857797Y-64123287D01*
X121921692Y-64042782D01*
X121983793Y-63960984D01*
X122044126Y-63877944D01*
X122102723Y-63793715D01*
X122159611Y-63708346D01*
X122214821Y-63621890D01*
X122320318Y-63445921D01*
X122419447Y-63266219D01*
X122512439Y-63083195D01*
X122599528Y-62897260D01*
X122680945Y-62708825D01*
X122777465Y-62477607D01*
X122868633Y-62243900D01*
X122954214Y-62007868D01*
X123033972Y-61769676D01*
X123107674Y-61529491D01*
X123175084Y-61287477D01*
X123235968Y-61043799D01*
X123290091Y-60798622D01*
X123337218Y-60552112D01*
X123377114Y-60304434D01*
X123409544Y-60055753D01*
X123434274Y-59806234D01*
X123451069Y-59556043D01*
X123459693Y-59305344D01*
X123459913Y-59054302D01*
X123451493Y-58803084D01*
X123438076Y-58608515D01*
X123418137Y-58414105D01*
X123391576Y-58220219D01*
X123358292Y-58027220D01*
X123318184Y-57835472D01*
X123271151Y-57645340D01*
X123217092Y-57457186D01*
X123155907Y-57271376D01*
X123087496Y-57088272D01*
X123011756Y-56908239D01*
X122928587Y-56731640D01*
X122837889Y-56558839D01*
X122739560Y-56390200D01*
X122633501Y-56226087D01*
X122519609Y-56066864D01*
X122397784Y-55912895D01*
X122331491Y-55832289D01*
X122263004Y-55753413D01*
X122192348Y-55676398D01*
X122119550Y-55601374D01*
X122044638Y-55528469D01*
X121967637Y-55457814D01*
X121888575Y-55389538D01*
X121807479Y-55323771D01*
X121724374Y-55260643D01*
X121639288Y-55200283D01*
X121552247Y-55142822D01*
X121463279Y-55088388D01*
X121372409Y-55037111D01*
X121279665Y-54989122D01*
X121185073Y-54944550D01*
X121088660Y-54903524D01*
X120990291Y-54862980D01*
X120890598Y-54825784D01*
X120789701Y-54791963D01*
X120687717Y-54761542D01*
X120584768Y-54734547D01*
X120480971Y-54711004D01*
X120376445Y-54690937D01*
X120271311Y-54674373D01*
X120165687Y-54661337D01*
X120059692Y-54651854D01*
X119953446Y-54645951D01*
X119847067Y-54643652D01*
X119740675Y-54644984D01*
X119634390Y-54649972D01*
X119528329Y-54658641D01*
X119422612Y-54671018D01*
X119420234Y-54610562D01*
X119420289Y-54550259D01*
X119422496Y-54490090D01*
X119426574Y-54430036D01*
X119432241Y-54370080D01*
X119439216Y-54310202D01*
X119455961Y-54190605D01*
X119492758Y-53951533D01*
X119508304Y-53831760D01*
X119514380Y-53771748D01*
X119518948Y-53711629D01*
X119535734Y-53487260D01*
X119548582Y-53262668D01*
X119566098Y-52813028D01*
X119578766Y-52363123D01*
X119593852Y-51913372D01*
X119600518Y-51243334D01*
X119589513Y-50573129D01*
X119560150Y-49903426D01*
X119511740Y-49234891D01*
X119443593Y-48568192D01*
X119355023Y-47903996D01*
X119245340Y-47242970D01*
X119113856Y-46585782D01*
X119047051Y-46309586D01*
X118972684Y-46035459D01*
X118891351Y-45763338D01*
X118803650Y-45493159D01*
X118710176Y-45224859D01*
X118611526Y-44958375D01*
X118508296Y-44693643D01*
X118401084Y-44430600D01*
X118253471Y-44052999D01*
X118218287Y-43957924D01*
X118185427Y-43862342D01*
X118155707Y-43766137D01*
X118142282Y-43717763D01*
X118129948Y-43669188D01*
X118151162Y-43553637D01*
X118166101Y-43437956D01*
X118175553Y-43322158D01*
X118180307Y-43206255D01*
X118181149Y-43090262D01*
X118178870Y-42974190D01*
X118168100Y-42741866D01*
X118154304Y-42509388D01*
X118143788Y-42276862D01*
X118141731Y-42160613D01*
X118142860Y-42044391D01*
X118147963Y-41928210D01*
X118157828Y-41812082D01*
X118159583Y-41708372D01*
X118159013Y-41604767D01*
X118151892Y-41397828D01*
X118138460Y-41191176D01*
X118120712Y-40984720D01*
X118080243Y-40572039D01*
X118061513Y-40365635D01*
X118046444Y-40159067D01*
X117996964Y-39698097D01*
X117936089Y-39238142D01*
X117862807Y-38779916D01*
X117776105Y-38324134D01*
X117674968Y-37871508D01*
X117558384Y-37422754D01*
X117425340Y-36978584D01*
X117274823Y-36539713D01*
X117232015Y-36446525D01*
X117185632Y-36354349D01*
X117135672Y-36263554D01*
X117082131Y-36174511D01*
X117025006Y-36087590D01*
X116964294Y-36003161D01*
X116899990Y-35921595D01*
X116832092Y-35843262D01*
X116760596Y-35768533D01*
X116685499Y-35697778D01*
X116606798Y-35631367D01*
X116524489Y-35569671D01*
X116438569Y-35513060D01*
X116349034Y-35461905D01*
X116255881Y-35416576D01*
X116207947Y-35396211D01*
X116159107Y-35377442D01*
X116133476Y-35368890D01*
X116107643Y-35360960D01*
X116081624Y-35353654D01*
X116055434Y-35346975D01*
X116029091Y-35340925D01*
X116002608Y-35335506D01*
X115976002Y-35330720D01*
X115949288Y-35326570D01*
X115922483Y-35323057D01*
X115895602Y-35320184D01*
X115868660Y-35317954D01*
X115841673Y-35316368D01*
X115814658Y-35315428D01*
X115787629Y-35315137D01*
X115760603Y-35315497D01*
X115733594Y-35316511D01*
X115538674Y-35340673D01*
X115440857Y-35355676D01*
X115343165Y-35372988D01*
X115245868Y-35392880D01*
X115149239Y-35415623D01*
X115053549Y-35441488D01*
X114959070Y-35470745D01*
X114866073Y-35503666D01*
X114774831Y-35540522D01*
X114685614Y-35581584D01*
X114598696Y-35627121D01*
X114514346Y-35677406D01*
X114432837Y-35732709D01*
X114354441Y-35793302D01*
X114279430Y-35859454D01*
X114168935Y-35962051D01*
X114064021Y-36069179D01*
X113964247Y-36180451D01*
X113869174Y-36295479D01*
X113778362Y-36413878D01*
X113691372Y-36535259D01*
X113607762Y-36659237D01*
X113527093Y-36785423D01*
X113372819Y-37042876D01*
X113225031Y-37304521D01*
X112934833Y-37828011D01*
X112569171Y-38487809D01*
X112389364Y-38819408D01*
X112212797Y-39152698D01*
X112040385Y-39488099D01*
X111873046Y-39826030D01*
X111711697Y-40166909D01*
X111557253Y-40511155D01*
X111469018Y-40707000D01*
X111425531Y-40805351D01*
X111383122Y-40904156D01*
X111342283Y-41003540D01*
X111303507Y-41103629D01*
X111267289Y-41204548D01*
X111234120Y-41306423D01*
X111233249Y-41312331D01*
X111231755Y-41317570D01*
X111229670Y-41322176D01*
X111227027Y-41326186D01*
X111223858Y-41329636D01*
X111220197Y-41332562D01*
X111216074Y-41335001D01*
X111211524Y-41336989D01*
X111206578Y-41338561D01*
X111201269Y-41339755D01*
X111195629Y-41340607D01*
X111189692Y-41341152D01*
X111177053Y-41341468D01*
X111163612Y-41340995D01*
X111107036Y-41337003D01*
X111093489Y-41336930D01*
X111080702Y-41337808D01*
X111074674Y-41338694D01*
X111068934Y-41339926D01*
X111063514Y-41341540D01*
X111058446Y-41343574D01*
X110885038Y-41356033D01*
X110711804Y-41370579D01*
X110538754Y-41387123D01*
X110365893Y-41405580D01*
X110365893Y-33450000D01*
X135062303Y-33450000D01*
X135062303Y-100214933D01*
X89812303Y-100214933D02*
X71798148Y-100214933D01*
X71798148Y-96414865D01*
X71837180Y-96411771D01*
X72168846Y-96378803D01*
X72499928Y-96337669D01*
X72830099Y-96288245D01*
X73159034Y-96230406D01*
X73486406Y-96164028D01*
X73811889Y-96088987D01*
X74135156Y-96005160D01*
X74455881Y-95912421D01*
X74773738Y-95810646D01*
X75088400Y-95699713D01*
X75399542Y-95579495D01*
X75706837Y-95449870D01*
X76009958Y-95310712D01*
X76308579Y-95161899D01*
X76602375Y-95003305D01*
X76891018Y-94834807D01*
X77124133Y-94687626D01*
X77353010Y-94533272D01*
X77577269Y-94371842D01*
X77796528Y-94203433D01*
X78010406Y-94028142D01*
X78218524Y-93846066D01*
X78420499Y-93657304D01*
X78615952Y-93461951D01*
X78804500Y-93260105D01*
X78985764Y-93051863D01*
X79159362Y-92837323D01*
X79324914Y-92616582D01*
X79482039Y-92389736D01*
X79630356Y-92156884D01*
X79769483Y-91918122D01*
X79899041Y-91673547D01*
X80029006Y-91397160D01*
X80145779Y-91114600D01*
X80249124Y-90826596D01*
X80338810Y-90533877D01*
X80414600Y-90237172D01*
X80476261Y-89937210D01*
X80523558Y-89634721D01*
X80556258Y-89330435D01*
X80574125Y-89025079D01*
X80576927Y-88719384D01*
X80564428Y-88414079D01*
X80536394Y-88109893D01*
X80492592Y-87807555D01*
X80432787Y-87507794D01*
X80356744Y-87211340D01*
X80264230Y-86918922D01*
X80201795Y-86748181D01*
X80133171Y-86579945D01*
X80058505Y-86414375D01*
X79977944Y-86251636D01*
X79891636Y-86091890D01*
X79799728Y-85935301D01*
X79702368Y-85782032D01*
X79599703Y-85632247D01*
X79491880Y-85486107D01*
X79379048Y-85343777D01*
X79261353Y-85205419D01*
X79138942Y-85071197D01*
X79011965Y-84941274D01*
X78880566Y-84815813D01*
X78744895Y-84694978D01*
X78605099Y-84578930D01*
X78455749Y-84455458D01*
X78302876Y-84335376D01*
X78146060Y-84220251D01*
X78066044Y-84165036D01*
X77984885Y-84111648D01*
X77902533Y-84060282D01*
X77818934Y-84011133D01*
X77734037Y-83964399D01*
X77647789Y-83920274D01*
X77560138Y-83878955D01*
X77471033Y-83840636D01*
X77380420Y-83805515D01*
X77288248Y-83773786D01*
X77413801Y-83646088D01*
X77542694Y-83521529D01*
X77807763Y-83279268D01*
X78347874Y-82804251D01*
X78480988Y-82683743D01*
X78611968Y-82561254D01*
X78740130Y-82436143D01*
X78864789Y-82307771D01*
X78985262Y-82175497D01*
X79100863Y-82038682D01*
X79210909Y-81896686D01*
X79314715Y-81748867D01*
X79535486Y-81410646D01*
X79752431Y-81069734D01*
X79964396Y-80725671D01*
X80170231Y-80377994D01*
X80368782Y-80026241D01*
X80558898Y-79669951D01*
X80739427Y-79308661D01*
X80909215Y-78941910D01*
X80947007Y-79017374D01*
X80987941Y-79091746D01*
X81031993Y-79164702D01*
X81079139Y-79235921D01*
X81129355Y-79305079D01*
X81182617Y-79371855D01*
X81238901Y-79435924D01*
X81298183Y-79496965D01*
X81360438Y-79554655D01*
X81425643Y-79608671D01*
X81493774Y-79658691D01*
X81564807Y-79704391D01*
X81638716Y-79745450D01*
X81715480Y-79781544D01*
X81795072Y-79812351D01*
X81835922Y-79825671D01*
X81877471Y-79837549D01*
X81941114Y-79854471D01*
X82005847Y-79867261D01*
X82071356Y-79875898D01*
X82137333Y-79880362D01*
X82203464Y-79880634D01*
X82269441Y-79876693D01*
X82334951Y-79868518D01*
X82399684Y-79856091D01*
X82463328Y-79839390D01*
X82525573Y-79818396D01*
X82586108Y-79793088D01*
X82644622Y-79763447D01*
X82700803Y-79729453D01*
X82727922Y-79710816D01*
X82754342Y-79691084D01*
X82780022Y-79670254D01*
X82804926Y-79648322D01*
X82829013Y-79625287D01*
X82852244Y-79601146D01*
X82916537Y-79532946D01*
X82976091Y-79461580D01*
X83031209Y-79387306D01*
X83082192Y-79310383D01*
X83129339Y-79231070D01*
X83172954Y-79149625D01*
X83213336Y-79066308D01*
X83250786Y-78981377D01*
X83285606Y-78895091D01*
X83318096Y-78807708D01*
X83377293Y-78630691D01*
X83430783Y-78452395D01*
X83480976Y-78274890D01*
X83570298Y-77925196D01*
X83661995Y-77576881D01*
X83710080Y-77403358D01*
X83760374Y-77230321D01*
X83813415Y-77057815D01*
X83869742Y-76885888D01*
X84080829Y-76249764D01*
X84308947Y-75617301D01*
X84556854Y-74991360D01*
X84689091Y-74681729D01*
X84827310Y-74374801D01*
X84971856Y-74070934D01*
X85123073Y-73770484D01*
X85281306Y-73473810D01*
X85446900Y-73181268D01*
X85620200Y-72893218D01*
X85801550Y-72610015D01*
X85991296Y-72332017D01*
X86189783Y-72059583D01*
X86442898Y-71726289D01*
X86700033Y-71394469D01*
X86956256Y-71061366D01*
X87206640Y-70724220D01*
X87328102Y-70553269D01*
X87446255Y-70380273D01*
X87560484Y-70204888D01*
X87670171Y-70026767D01*
X87774702Y-69845566D01*
X87873459Y-69660942D01*
X87965827Y-69472547D01*
X88051189Y-69280039D01*
X88126608Y-69103678D01*
X88197633Y-68923332D01*
X88230433Y-68831836D01*
X88260858Y-68739550D01*
X88288481Y-68646542D01*
X88312877Y-68552882D01*
X88333621Y-68458636D01*
X88350287Y-68363875D01*
X88362448Y-68268667D01*
X88369681Y-68173080D01*
X88371558Y-68077183D01*
X88367654Y-67981044D01*
X88357543Y-67884732D01*
X88340801Y-67788316D01*
X88314910Y-67683355D01*
X88283225Y-67580582D01*
X88246048Y-67480025D01*
X88203679Y-67381714D01*
X88156418Y-67285674D01*
X88104567Y-67191935D01*
X88048427Y-67100523D01*
X87988297Y-67011467D01*
X87924480Y-66924795D01*
X87857275Y-66840534D01*
X87786983Y-66758712D01*
X87713906Y-66679356D01*
X87638343Y-66602495D01*
X87560596Y-66528157D01*
X87480966Y-66456369D01*
X87399753Y-66387159D01*
X87268174Y-66287612D01*
X87131050Y-66196187D01*
X86988890Y-66113001D01*
X86842203Y-66038172D01*
X86691496Y-65971815D01*
X86537278Y-65914050D01*
X86380058Y-65864992D01*
X86220343Y-65824760D01*
X86058643Y-65793470D01*
X85895466Y-65771240D01*
X85731319Y-65758186D01*
X85566712Y-65754427D01*
X85402153Y-65760079D01*
X85238151Y-65775259D01*
X85075213Y-65800085D01*
X84913848Y-65834674D01*
X84801330Y-65863490D01*
X84690107Y-65896908D01*
X84580341Y-65934829D01*
X84472190Y-65977157D01*
X84365813Y-66023792D01*
X84261371Y-66074637D01*
X84159022Y-66129593D01*
X84058925Y-66188561D01*
X83961241Y-66251444D01*
X83866128Y-66318144D01*
X83773747Y-66388562D01*
X83684255Y-66462600D01*
X83597813Y-66540160D01*
X83514580Y-66621143D01*
X83434716Y-66705452D01*
X83358379Y-66792988D01*
X83311551Y-66707995D01*
X83261039Y-66625755D01*
X83207099Y-66546116D01*
X83149991Y-66468924D01*
X83089974Y-66394027D01*
X83027307Y-66321272D01*
X82962248Y-66250505D01*
X82895056Y-66181575D01*
X82825991Y-66114327D01*
X82755309Y-66048610D01*
X82683272Y-65984271D01*
X82610136Y-65921155D01*
X82461607Y-65797986D01*
X82311793Y-65677879D01*
X82212964Y-65594072D01*
X82111875Y-65512530D01*
X82008192Y-65434282D01*
X81955272Y-65396716D01*
X81901579Y-65360361D01*
X81847069Y-65325344D01*
X81791701Y-65291796D01*
X81735434Y-65259845D01*
X81678225Y-65229619D01*
X81620032Y-65201249D01*
X81560814Y-65174861D01*
X81500528Y-65150587D01*
X81439133Y-65128553D01*
X81262806Y-65064588D01*
X81084050Y-65008592D01*
X80903163Y-64960464D01*
X80720444Y-64920108D01*
X80536192Y-64887424D01*
X80350707Y-64862313D01*
X80164288Y-64844677D01*
X79977232Y-64834416D01*
X79789840Y-64831433D01*
X79602411Y-64835628D01*
X79415243Y-64846903D01*
X79228635Y-64865159D01*
X79042887Y-64890298D01*
X78858297Y-64922220D01*
X78675165Y-64960827D01*
X78493789Y-65006020D01*
X78353380Y-65049016D01*
X78213561Y-65094161D01*
X78074454Y-65141580D01*
X77936184Y-65191403D01*
X77798873Y-65243758D01*
X77662645Y-65298772D01*
X77527622Y-65356574D01*
X77393929Y-65417292D01*
X77342719Y-65442701D01*
X77291907Y-65469393D01*
X77241613Y-65497389D01*
X77191959Y-65526712D01*
X77143066Y-65557382D01*
X77095055Y-65589422D01*
X77048047Y-65622853D01*
X77002163Y-65657697D01*
X76957524Y-65693976D01*
X76914252Y-65731711D01*
X76872466Y-65770925D01*
X76832290Y-65811639D01*
X76793843Y-65853875D01*
X76757246Y-65897654D01*
X76722622Y-65942999D01*
X76690091Y-65989930D01*
X76631126Y-65953101D01*
X76573070Y-65914332D01*
X76516098Y-65873635D01*
X76460381Y-65831021D01*
X76406093Y-65786502D01*
X76353407Y-65740089D01*
X76302496Y-65691794D01*
X76253533Y-65641629D01*
X76206691Y-65589606D01*
X76162144Y-65535735D01*
X76120064Y-65480029D01*
X76080624Y-65422499D01*
X76043998Y-65363158D01*
X76010358Y-65302015D01*
X75979878Y-65239084D01*
X75952731Y-65174375D01*
X75943022Y-65142424D01*
X75935675Y-65109897D01*
X75930691Y-65076971D01*
X75928072Y-65043824D01*
X75927821Y-65010633D01*
X75929939Y-64977576D01*
X75934429Y-64944831D01*
X75941293Y-64912575D01*
X75950533Y-64880986D01*
X75956044Y-64865496D01*
X75962151Y-64850240D01*
X75968852Y-64835240D01*
X75976149Y-64820517D01*
X75984041Y-64806093D01*
X75992529Y-64791992D01*
X76001614Y-64778235D01*
X76011295Y-64764844D01*
X76021572Y-64751842D01*
X76032446Y-64739251D01*
X76043918Y-64727093D01*
X76055986Y-64715389D01*
X76068653Y-64704163D01*
X76081918Y-64693437D01*
X76152611Y-64626787D01*
X76222226Y-64559079D01*
X76290593Y-64490183D01*
X76357545Y-64419968D01*
X76422910Y-64348301D01*
X76486520Y-64275053D01*
X76548206Y-64200092D01*
X76607797Y-64123287D01*
X76671692Y-64042782D01*
X76733793Y-63960984D01*
X76794126Y-63877944D01*
X76852723Y-63793715D01*
X76909611Y-63708346D01*
X76964821Y-63621890D01*
X77070318Y-63445921D01*
X77169447Y-63266219D01*
X77262439Y-63083195D01*
X77349528Y-62897260D01*
X77430945Y-62708825D01*
X77527465Y-62477607D01*
X77618633Y-62243900D01*
X77704214Y-62007868D01*
X77783972Y-61769676D01*
X77857674Y-61529491D01*
X77925084Y-61287477D01*
X77985968Y-61043799D01*
X78040091Y-60798622D01*
X78087218Y-60552112D01*
X78127114Y-60304434D01*
X78159544Y-60055753D01*
X78184274Y-59806234D01*
X78201069Y-59556043D01*
X78209693Y-59305344D01*
X78209913Y-59054302D01*
X78201493Y-58803084D01*
X78188076Y-58608515D01*
X78168137Y-58414105D01*
X78141576Y-58220219D01*
X78108292Y-58027220D01*
X78068184Y-57835472D01*
X78021151Y-57645340D01*
X77967092Y-57457186D01*
X77905907Y-57271376D01*
X77837496Y-57088272D01*
X77761756Y-56908239D01*
X77678587Y-56731640D01*
X77587889Y-56558839D01*
X77489560Y-56390200D01*
X77383501Y-56226087D01*
X77269609Y-56066864D01*
X77147784Y-55912895D01*
X77081491Y-55832289D01*
X77013004Y-55753413D01*
X76942348Y-55676398D01*
X76869550Y-55601374D01*
X76794638Y-55528469D01*
X76717637Y-55457814D01*
X76638575Y-55389538D01*
X76557479Y-55323771D01*
X76474374Y-55260643D01*
X76389288Y-55200283D01*
X76302247Y-55142822D01*
X76213279Y-55088388D01*
X76122409Y-55037111D01*
X76029665Y-54989122D01*
X75935073Y-54944550D01*
X75838660Y-54903524D01*
X75740291Y-54862980D01*
X75640598Y-54825784D01*
X75539701Y-54791963D01*
X75437717Y-54761542D01*
X75334768Y-54734547D01*
X75230971Y-54711004D01*
X75126445Y-54690937D01*
X75021311Y-54674373D01*
X74915687Y-54661337D01*
X74809692Y-54651854D01*
X74703446Y-54645951D01*
X74597067Y-54643652D01*
X74490675Y-54644984D01*
X74384390Y-54649972D01*
X74278329Y-54658641D01*
X74172612Y-54671018D01*
X74170234Y-54610562D01*
X74170289Y-54550259D01*
X74172496Y-54490090D01*
X74176574Y-54430036D01*
X74182241Y-54370080D01*
X74189216Y-54310202D01*
X74205961Y-54190605D01*
X74242758Y-53951533D01*
X74258304Y-53831760D01*
X74264380Y-53771748D01*
X74268948Y-53711629D01*
X74285734Y-53487260D01*
X74298582Y-53262668D01*
X74316098Y-52813028D01*
X74328766Y-52363123D01*
X74343852Y-51913372D01*
X74350518Y-51243334D01*
X74339513Y-50573129D01*
X74310150Y-49903426D01*
X74261740Y-49234891D01*
X74193593Y-48568192D01*
X74105023Y-47903996D01*
X73995340Y-47242970D01*
X73863856Y-46585782D01*
X73797051Y-46309586D01*
X73722684Y-46035459D01*
X73641351Y-45763338D01*
X73553650Y-45493159D01*
X73460176Y-45224859D01*
X73361526Y-44958375D01*
X73258296Y-44693643D01*
X73151084Y-44430600D01*
X73003471Y-44052999D01*
X72968287Y-43957924D01*
X72935427Y-43862342D01*
X72905707Y-43766137D01*
X72892282Y-43717763D01*
X72879948Y-43669188D01*
X72901162Y-43553637D01*
X72916101Y-43437956D01*
X72925553Y-43322158D01*
X72930307Y-43206255D01*
X72931149Y-43090262D01*
X72928870Y-42974190D01*
X72918100Y-42741866D01*
X72904304Y-42509388D01*
X72893788Y-42276862D01*
X72891731Y-42160613D01*
X72892860Y-42044391D01*
X72897963Y-41928210D01*
X72907828Y-41812082D01*
X72909583Y-41708372D01*
X72909013Y-41604767D01*
X72901892Y-41397828D01*
X72888460Y-41191176D01*
X72870712Y-40984720D01*
X72830243Y-40572039D01*
X72811513Y-40365635D01*
X72796444Y-40159067D01*
X72746964Y-39698097D01*
X72686089Y-39238142D01*
X72612807Y-38779916D01*
X72526105Y-38324134D01*
X72424968Y-37871508D01*
X72308384Y-37422754D01*
X72175340Y-36978584D01*
X72024823Y-36539713D01*
X71982015Y-36446525D01*
X71935632Y-36354349D01*
X71885672Y-36263554D01*
X71832131Y-36174511D01*
X71775006Y-36087590D01*
X71714294Y-36003161D01*
X71649990Y-35921595D01*
X71582092Y-35843262D01*
X71510596Y-35768533D01*
X71435499Y-35697778D01*
X71356798Y-35631367D01*
X71274489Y-35569671D01*
X71188569Y-35513060D01*
X71099034Y-35461905D01*
X71005881Y-35416576D01*
X70957947Y-35396211D01*
X70909107Y-35377442D01*
X70883476Y-35368890D01*
X70857643Y-35360960D01*
X70831624Y-35353654D01*
X70805434Y-35346975D01*
X70779091Y-35340925D01*
X70752608Y-35335506D01*
X70726002Y-35330720D01*
X70699288Y-35326570D01*
X70672483Y-35323057D01*
X70645602Y-35320184D01*
X70618660Y-35317954D01*
X70591673Y-35316368D01*
X70564658Y-35315428D01*
X70537629Y-35315137D01*
X70510603Y-35315497D01*
X70483594Y-35316511D01*
X70288674Y-35340673D01*
X70190857Y-35355676D01*
X70093165Y-35372988D01*
X69995868Y-35392880D01*
X69899239Y-35415623D01*
X69803549Y-35441488D01*
X69709070Y-35470745D01*
X69616073Y-35503666D01*
X69524831Y-35540522D01*
X69435614Y-35581584D01*
X69348696Y-35627121D01*
X69264346Y-35677406D01*
X69182837Y-35732709D01*
X69104441Y-35793302D01*
X69029430Y-35859454D01*
X68918935Y-35962051D01*
X68814021Y-36069179D01*
X68714247Y-36180451D01*
X68619174Y-36295479D01*
X68528362Y-36413878D01*
X68441372Y-36535259D01*
X68357762Y-36659237D01*
X68277093Y-36785423D01*
X68122819Y-37042876D01*
X67975031Y-37304521D01*
X67684833Y-37828011D01*
X67319171Y-38487809D01*
X67139364Y-38819408D01*
X66962797Y-39152698D01*
X66790385Y-39488099D01*
X66623046Y-39826030D01*
X66461697Y-40166909D01*
X66307253Y-40511155D01*
X66219018Y-40707000D01*
X66175531Y-40805351D01*
X66133122Y-40904156D01*
X66092283Y-41003540D01*
X66053507Y-41103629D01*
X66017289Y-41204548D01*
X65984120Y-41306423D01*
X65983249Y-41312331D01*
X65981755Y-41317570D01*
X65979670Y-41322176D01*
X65977027Y-41326186D01*
X65973858Y-41329636D01*
X65970197Y-41332562D01*
X65966074Y-41335001D01*
X65961524Y-41336989D01*
X65956578Y-41338561D01*
X65951269Y-41339755D01*
X65945629Y-41340607D01*
X65939692Y-41341152D01*
X65927053Y-41341468D01*
X65913612Y-41340995D01*
X65857036Y-41337003D01*
X65843489Y-41336930D01*
X65830702Y-41337808D01*
X65824674Y-41338694D01*
X65818934Y-41339926D01*
X65813514Y-41341540D01*
X65808446Y-41343574D01*
X65635038Y-41356033D01*
X65461804Y-41370579D01*
X65288754Y-41387123D01*
X65115893Y-41405580D01*
X65115893Y-33450000D01*
X89812303Y-33450000D01*
X89812303Y-100214933D01*
X62343270Y-41984800D02*
X62251216Y-42018958D01*
X62159656Y-42054406D01*
X62068619Y-42091173D01*
X61978132Y-42129292D01*
X61888222Y-42168794D01*
X61798918Y-42209710D01*
X61710245Y-42252070D01*
X61622233Y-42295908D01*
X61557770Y-42198123D01*
X61489520Y-42103571D01*
X61417837Y-42011959D01*
X61343071Y-41922996D01*
X61265574Y-41836392D01*
X61185699Y-41751856D01*
X61103797Y-41669097D01*
X61020221Y-41587824D01*
X60333532Y-40956217D01*
X59937921Y-40595335D01*
X59534085Y-40242135D01*
X59120763Y-39899754D01*
X58696695Y-39571330D01*
X58480237Y-39413333D01*
X58260620Y-39260002D01*
X58037686Y-39111729D01*
X57811278Y-38968906D01*
X57581237Y-38831927D01*
X57347407Y-38701182D01*
X57109630Y-38577064D01*
X56867749Y-38459966D01*
X56664329Y-38367747D01*
X56456437Y-38282297D01*
X56350962Y-38242905D01*
X56244546Y-38206162D01*
X56137247Y-38172384D01*
X56029126Y-38141891D01*
X55920239Y-38115001D01*
X55810647Y-38092032D01*
X55700409Y-38073303D01*
X55589582Y-38059133D01*
X55478227Y-38049839D01*
X55366401Y-38045741D01*
X55254164Y-38047157D01*
X55141575Y-38054405D01*
X55069459Y-38063693D01*
X54997652Y-38076816D01*
X54926451Y-38093752D01*
X54856154Y-38114480D01*
X54787059Y-38138977D01*
X54719464Y-38167223D01*
X54653668Y-38199196D01*
X54589967Y-38234873D01*
X54528661Y-38274234D01*
X54498999Y-38295290D01*
X54470048Y-38317258D01*
X54441843Y-38340136D01*
X54414424Y-38363921D01*
X54387827Y-38388612D01*
X54362089Y-38414204D01*
X54337248Y-38440696D01*
X54313340Y-38468084D01*
X54290404Y-38496366D01*
X54268476Y-38525540D01*
X54247593Y-38555602D01*
X54227793Y-38586549D01*
X54209114Y-38618380D01*
X54191592Y-38651092D01*
X54146327Y-38739044D01*
X54106972Y-38828809D01*
X54073102Y-38920214D01*
X54044294Y-39013084D01*
X54020123Y-39107247D01*
X54000166Y-39202529D01*
X53983998Y-39298757D01*
X53971196Y-39395757D01*
X53961336Y-39493356D01*
X53953993Y-39591380D01*
X53945164Y-39788012D01*
X53939065Y-40178750D01*
X53945723Y-40506425D01*
X53962543Y-40833129D01*
X53989026Y-41158818D01*
X54024671Y-41483446D01*
X54068979Y-41806968D01*
X54121449Y-42129339D01*
X54181582Y-42450513D01*
X54248878Y-42770445D01*
X54402958Y-43406402D01*
X54579690Y-44036846D01*
X54775076Y-44661415D01*
X54985114Y-45279746D01*
X55315003Y-46206214D01*
X55482634Y-46668436D01*
X55656841Y-47127986D01*
X55739996Y-47323420D01*
X55783324Y-47421275D01*
X55806089Y-47469663D01*
X55829839Y-47517472D01*
X55854765Y-47564539D01*
X55881055Y-47610699D01*
X55908900Y-47655789D01*
X55938487Y-47699643D01*
X55970007Y-47742099D01*
X56003649Y-47782993D01*
X56039602Y-47822159D01*
X56078056Y-47859435D01*
X56088374Y-47865850D01*
X56098231Y-47872406D01*
X56107575Y-47879146D01*
X56116353Y-47886112D01*
X56124515Y-47893347D01*
X56132008Y-47900894D01*
X56138782Y-47908797D01*
X56141882Y-47912896D01*
X56144783Y-47917099D01*
X56147478Y-47921412D01*
X56149961Y-47925841D01*
X56152225Y-47930391D01*
X56154263Y-47935068D01*
X56156070Y-47939876D01*
X56157639Y-47944821D01*
X56158963Y-47949909D01*
X56160036Y-47955145D01*
X56160852Y-47960534D01*
X56161403Y-47966081D01*
X56161684Y-47971793D01*
X56161688Y-47977674D01*
X56161409Y-47983729D01*
X56160840Y-47989965D01*
X56159974Y-47996386D01*
X56158806Y-48002998D01*
X56167682Y-48253978D01*
X56173388Y-48379409D01*
X56180814Y-48504701D01*
X56190615Y-48629777D01*
X56203448Y-48754563D01*
X56219968Y-48878983D01*
X56240831Y-49002961D01*
X56288053Y-49268388D01*
X56344503Y-49531213D01*
X56409176Y-49791712D01*
X56481071Y-50050162D01*
X56559184Y-50306842D01*
X56642513Y-50562029D01*
X56820803Y-51069031D01*
X57195831Y-52077318D01*
X57376521Y-52583041D01*
X57541961Y-53092774D01*
X57630012Y-53397243D01*
X57707088Y-53704646D01*
X57772179Y-54014566D01*
X57799914Y-54170340D01*
X57824274Y-54326587D01*
X57845133Y-54483255D01*
X57862363Y-54640292D01*
X57875840Y-54797645D01*
X57885437Y-54955264D01*
X57891026Y-55113095D01*
X57892483Y-55271087D01*
X57889681Y-55429188D01*
X57882493Y-55587345D01*
X57869871Y-55773021D01*
X57851316Y-55958432D01*
X57826919Y-56143417D01*
X57796770Y-56327809D01*
X57760962Y-56511444D01*
X57719586Y-56694159D01*
X57672734Y-56875788D01*
X57620496Y-57056167D01*
X57562965Y-57235132D01*
X57500232Y-57412518D01*
X57432388Y-57588161D01*
X57359524Y-57761897D01*
X57281733Y-57933560D01*
X57199106Y-58102987D01*
X57111734Y-58270013D01*
X57019709Y-58434474D01*
X56917167Y-58602480D01*
X56812825Y-58769392D01*
X56602206Y-59102042D01*
X56497663Y-59268832D01*
X56394787Y-59436636D01*
X56294444Y-59605979D01*
X56197501Y-59777388D01*
X56002158Y-60136095D01*
X55811762Y-60497652D01*
X55434650Y-61222907D01*
X55242354Y-61583403D01*
X55043847Y-61940343D01*
X54836338Y-62292125D01*
X54617038Y-62637148D01*
X54499205Y-62825722D01*
X54386050Y-63017067D01*
X54277615Y-63211079D01*
X54173942Y-63407655D01*
X54075075Y-63606693D01*
X53981055Y-63808088D01*
X53891926Y-64011739D01*
X53807729Y-64217541D01*
X53571390Y-64831035D01*
X53359257Y-65452547D01*
X53168745Y-66080921D01*
X52997269Y-66714999D01*
X52842245Y-67353625D01*
X52701087Y-67995640D01*
X52571212Y-68639889D01*
X52450034Y-69285213D01*
X52390786Y-69652649D01*
X52341332Y-70021813D01*
X52302735Y-70392312D01*
X52276054Y-70763757D01*
X52262350Y-71135758D01*
X52262682Y-71507923D01*
X52278111Y-71879863D01*
X52291818Y-72065626D01*
X52309696Y-72251187D01*
X52349250Y-72622810D01*
X52398616Y-72992881D01*
X52457462Y-73361328D01*
X52525451Y-73728076D01*
X52602248Y-74093052D01*
X52687518Y-74456184D01*
X52780925Y-74817399D01*
X52882136Y-75176622D01*
X53106623Y-75888804D01*
X53358297Y-76592146D01*
X53634477Y-77286061D01*
X53932481Y-77969965D01*
X54106037Y-78318606D01*
X54292598Y-78659740D01*
X54491662Y-78993263D01*
X54702727Y-79319075D01*
X54925289Y-79637071D01*
X55158846Y-79947150D01*
X55402896Y-80249208D01*
X55656936Y-80543144D01*
X55920463Y-80828854D01*
X56192974Y-81106236D01*
X56473967Y-81375187D01*
X56762940Y-81635605D01*
X57059389Y-81887388D01*
X57362812Y-82130431D01*
X57672706Y-82364634D01*
X57988569Y-82589892D01*
X58338411Y-82826631D01*
X58694148Y-83053901D01*
X59055494Y-83271811D01*
X59422162Y-83480468D01*
X59793865Y-83679980D01*
X60170317Y-83870453D01*
X60551230Y-84051996D01*
X60936319Y-84224715D01*
X61325296Y-84388719D01*
X61717875Y-84544114D01*
X62113769Y-84691008D01*
X62512691Y-84829508D01*
X63318472Y-85081758D01*
X64132927Y-85301722D01*
X64704492Y-85434747D01*
X65279561Y-85552013D01*
X65857677Y-85653382D01*
X66438386Y-85738717D01*
X67021233Y-85807879D01*
X67605761Y-85860731D01*
X68191517Y-85897135D01*
X68778045Y-85916953D01*
X68972816Y-85911223D01*
X69167865Y-85901895D01*
X69363040Y-85891831D01*
X69558191Y-85883896D01*
X69753166Y-85880954D01*
X69850541Y-85882250D01*
X69947815Y-85885868D01*
X70044970Y-85892166D01*
X70141987Y-85901502D01*
X70238847Y-85914233D01*
X70335531Y-85930719D01*
X70702301Y-85988426D01*
X70884783Y-86022703D01*
X71066539Y-86060659D01*
X71247475Y-86102340D01*
X71427499Y-86147794D01*
X71606518Y-86197066D01*
X71784437Y-86250205D01*
X71961165Y-86307256D01*
X72136608Y-86368267D01*
X72310673Y-86433284D01*
X72483266Y-86502354D01*
X72654295Y-86575525D01*
X72823667Y-86652842D01*
X72991287Y-86734353D01*
X73157064Y-86820105D01*
X73253900Y-86873009D01*
X73350175Y-86928361D01*
X73445499Y-86986278D01*
X73539482Y-87046881D01*
X73631732Y-87110287D01*
X73721859Y-87176616D01*
X73809472Y-87245985D01*
X73894179Y-87318513D01*
X73975591Y-87394320D01*
X74053317Y-87473523D01*
X74126965Y-87556242D01*
X74196146Y-87642594D01*
X74260467Y-87732699D01*
X74319539Y-87826675D01*
X74372971Y-87924641D01*
X74420371Y-88026715D01*
X74434483Y-88062009D01*
X74447721Y-88097439D01*
X74460101Y-88132990D01*
X74471642Y-88168647D01*
X74482358Y-88204391D01*
X74492267Y-88240207D01*
X74509731Y-88311991D01*
X74524166Y-88383867D01*
X74535706Y-88455704D01*
X74544484Y-88527373D01*
X74550633Y-88598742D01*
X74554631Y-88683752D01*
X74555957Y-88768823D01*
X74554658Y-88853885D01*
X74550781Y-88938866D01*
X74544371Y-89023698D01*
X74535475Y-89108307D01*
X74524140Y-89192625D01*
X74510412Y-89276580D01*
X74494337Y-89360101D01*
X74475962Y-89443119D01*
X74455333Y-89525561D01*
X74432497Y-89607359D01*
X74407499Y-89688440D01*
X74380388Y-89768734D01*
X74351208Y-89848171D01*
X74320007Y-89926680D01*
X74288617Y-90000111D01*
X74254476Y-90072360D01*
X74217619Y-90143288D01*
X74178084Y-90212759D01*
X74135908Y-90280637D01*
X74091128Y-90346784D01*
X74043781Y-90411064D01*
X73993904Y-90473339D01*
X73941535Y-90533474D01*
X73886710Y-90591331D01*
X73829468Y-90646773D01*
X73769844Y-90699664D01*
X73707875Y-90749867D01*
X73643600Y-90797245D01*
X73577056Y-90841661D01*
X73508278Y-90882978D01*
X73351566Y-90968594D01*
X73192867Y-91050396D01*
X73032627Y-91129227D01*
X72871287Y-91205929D01*
X72547086Y-91356311D01*
X72223808Y-91508278D01*
X72092482Y-91565228D01*
X71959376Y-91616721D01*
X71824635Y-91662979D01*
X71688404Y-91704223D01*
X71550831Y-91740678D01*
X71412059Y-91772564D01*
X71272236Y-91800105D01*
X71131505Y-91823523D01*
X70990014Y-91843040D01*
X70847907Y-91858879D01*
X70705331Y-91871262D01*
X70562430Y-91880411D01*
X70276239Y-91889899D01*
X69990498Y-91889121D01*
X69787696Y-91880184D01*
X69585943Y-91866277D01*
X69385137Y-91847025D01*
X69185175Y-91822056D01*
X68985953Y-91790998D01*
X68787368Y-91753476D01*
X68589317Y-91709118D01*
X68391696Y-91657551D01*
X68278531Y-91626302D01*
X68165538Y-91593313D01*
X68053151Y-91557955D01*
X67941801Y-91519602D01*
X67831920Y-91477624D01*
X67777665Y-91455080D01*
X67723939Y-91431395D01*
X67670797Y-91406490D01*
X67618292Y-91380287D01*
X67566477Y-91352707D01*
X67515408Y-91323672D01*
X67478679Y-91293558D01*
X67440722Y-91265464D01*
X67401662Y-91239188D01*
X67361621Y-91214532D01*
X67320724Y-91191294D01*
X67279092Y-91169275D01*
X67236850Y-91148274D01*
X67194120Y-91128091D01*
X67107692Y-91089379D01*
X67020793Y-91051538D01*
X66934408Y-91012965D01*
X66849525Y-90972060D01*
X66704534Y-90906139D01*
X66557938Y-90841524D01*
X66409524Y-90780631D01*
X66334569Y-90752334D01*
X66259079Y-90725873D01*
X66183028Y-90701549D01*
X66106388Y-90679664D01*
X66029134Y-90660521D01*
X65951238Y-90644420D01*
X65872674Y-90631663D01*
X65793415Y-90622553D01*
X65713435Y-90617392D01*
X65632705Y-90616480D01*
X65584250Y-90616554D01*
X65536032Y-90618666D01*
X65488075Y-90622740D01*
X65440402Y-90628700D01*
X65393037Y-90636469D01*
X65346003Y-90645971D01*
X65299323Y-90657130D01*
X65253020Y-90669871D01*
X65207117Y-90684115D01*
X65161639Y-90699789D01*
X65116607Y-90716815D01*
X65072046Y-90735117D01*
X65027979Y-90754619D01*
X64984429Y-90775246D01*
X64941419Y-90796920D01*
X64898972Y-90819565D01*
X64807272Y-90857275D01*
X64761830Y-90877362D01*
X64716767Y-90898351D01*
X64672165Y-90920300D01*
X64628105Y-90943270D01*
X64584668Y-90967322D01*
X64541935Y-90992514D01*
X64499988Y-91018907D01*
X64458908Y-91046561D01*
X64418775Y-91075536D01*
X64379672Y-91105891D01*
X64341679Y-91137688D01*
X64304877Y-91170984D01*
X64269347Y-91205841D01*
X64235172Y-91242319D01*
X64178432Y-91304700D01*
X64126555Y-91370473D01*
X64079499Y-91439345D01*
X64037222Y-91511022D01*
X63999685Y-91585211D01*
X63966845Y-91661617D01*
X63938662Y-91739948D01*
X63915095Y-91819909D01*
X63896102Y-91901207D01*
X63881642Y-91983548D01*
X63871675Y-92066639D01*
X63866160Y-92150185D01*
X63865054Y-92233894D01*
X63868318Y-92317471D01*
X63875910Y-92400623D01*
X63887788Y-92483056D01*
X63890993Y-92512274D01*
X63895248Y-92541307D01*
X63900408Y-92570180D01*
X63906330Y-92598913D01*
X63919882Y-92656049D01*
X63934750Y-92712896D01*
X63949782Y-92769632D01*
X63963823Y-92826434D01*
X63970113Y-92854916D01*
X63975722Y-92883481D01*
X63980507Y-92912152D01*
X63984324Y-92940952D01*
X63992001Y-93037581D01*
X64005934Y-93132598D01*
X64025729Y-93226012D01*
X64050989Y-93317831D01*
X64081319Y-93408066D01*
X64116324Y-93496725D01*
X64155609Y-93583818D01*
X64198778Y-93669354D01*
X64245435Y-93753343D01*
X64295185Y-93835794D01*
X64347634Y-93916715D01*
X64402384Y-93996117D01*
X64459042Y-94074009D01*
X64517211Y-94150400D01*
X64636502Y-94298716D01*
X64777042Y-94456992D01*
X64924231Y-94608208D01*
X65077685Y-94752474D01*
X65237023Y-94889901D01*
X65401864Y-95020600D01*
X65571825Y-95144680D01*
X65746525Y-95262253D01*
X65925582Y-95373428D01*
X66108613Y-95478317D01*
X66295237Y-95577029D01*
X66485073Y-95669675D01*
X66677738Y-95756365D01*
X66872850Y-95837211D01*
X67070028Y-95912321D01*
X67268889Y-95981808D01*
X67469053Y-96045781D01*
X67655806Y-96100833D01*
X67843517Y-96151547D01*
X68032121Y-96198032D01*
X68221554Y-96240399D01*
X68411753Y-96278756D01*
X68602652Y-96313212D01*
X68794188Y-96343877D01*
X68986297Y-96370860D01*
X68986297Y-100214926D01*
X48480000Y-100214926D01*
X48480000Y-33450000D01*
X62343270Y-33450000D01*
X62343270Y-41984800D01*
X56451368Y-39983248D02*
X56517387Y-39988268D01*
X56582447Y-39996535D01*
X56646465Y-40007968D01*
X56709360Y-40022484D01*
X56771050Y-40040002D01*
X56831454Y-40060440D01*
X56890489Y-40083717D01*
X56948074Y-40109750D01*
X57004127Y-40138459D01*
X57058567Y-40169762D01*
X57111312Y-40203576D01*
X57162281Y-40239820D01*
X57211391Y-40278413D01*
X57258561Y-40319273D01*
X57303709Y-40362318D01*
X57346753Y-40407466D01*
X57387613Y-40454636D01*
X57426206Y-40503746D01*
X57462450Y-40554714D01*
X57496265Y-40607459D01*
X57527567Y-40661899D01*
X57556276Y-40717953D01*
X57582309Y-40775538D01*
X57605586Y-40834573D01*
X57626024Y-40894976D01*
X57643542Y-40956666D01*
X57658058Y-41019561D01*
X57669491Y-41083579D01*
X57677758Y-41148639D01*
X57682778Y-41214658D01*
X57684470Y-41281556D01*
X57682778Y-41348454D01*
X57677758Y-41414474D01*
X57669491Y-41479533D01*
X57658058Y-41543552D01*
X57643542Y-41606447D01*
X57626024Y-41668137D01*
X57605586Y-41728540D01*
X57582309Y-41787575D01*
X57556276Y-41845160D01*
X57527567Y-41901213D01*
X57496265Y-41955654D01*
X57462450Y-42008399D01*
X57426206Y-42059367D01*
X57387613Y-42108477D01*
X57346753Y-42155647D01*
X57303709Y-42200795D01*
X57258561Y-42243840D01*
X57211391Y-42284699D01*
X57162281Y-42323292D01*
X57111312Y-42359537D01*
X57058567Y-42393351D01*
X57004127Y-42424653D01*
X56948074Y-42453362D01*
X56890489Y-42479396D01*
X56831454Y-42502673D01*
X56771050Y-42523111D01*
X56709360Y-42540629D01*
X56646465Y-42555145D01*
X56582447Y-42566577D01*
X56517387Y-42574844D01*
X56451368Y-42579865D01*
X56384470Y-42581556D01*
X56317572Y-42579865D01*
X56251552Y-42574844D01*
X56186493Y-42566577D01*
X56122474Y-42555145D01*
X56059579Y-42540629D01*
X55997889Y-42523111D01*
X55937486Y-42502673D01*
X55878451Y-42479396D01*
X55820866Y-42453362D01*
X55764812Y-42424653D01*
X55710372Y-42393351D01*
X55657627Y-42359537D01*
X55606659Y-42323292D01*
X55557549Y-42284699D01*
X55510379Y-42243840D01*
X55465231Y-42200795D01*
X55422186Y-42155647D01*
X55381327Y-42108477D01*
X55342734Y-42059367D01*
X55306489Y-42008399D01*
X55272675Y-41955654D01*
X55241373Y-41901213D01*
X55212664Y-41845160D01*
X55186630Y-41787575D01*
X55163353Y-41728540D01*
X55142915Y-41668137D01*
X55125397Y-41606447D01*
X55110881Y-41543552D01*
X55099449Y-41479533D01*
X55091182Y-41414474D01*
X55086161Y-41348454D01*
X55084470Y-41281556D01*
X55086161Y-41214658D01*
X55091182Y-41148639D01*
X55099449Y-41083579D01*
X55110881Y-41019561D01*
X55125397Y-40956666D01*
X55142915Y-40894976D01*
X55163353Y-40834573D01*
X55186630Y-40775538D01*
X55212664Y-40717953D01*
X55241373Y-40661899D01*
X55272675Y-40607459D01*
X55306489Y-40554714D01*
X55342734Y-40503746D01*
X55381327Y-40454636D01*
X55422186Y-40407466D01*
X55465231Y-40362318D01*
X55510379Y-40319273D01*
X55557549Y-40278413D01*
X55606659Y-40239820D01*
X55657627Y-40203576D01*
X55710372Y-40169762D01*
X55764812Y-40138459D01*
X55820866Y-40109750D01*
X55878451Y-40083717D01*
X55937486Y-40060440D01*
X55997889Y-40040002D01*
X56059579Y-40022484D01*
X56122474Y-40007968D01*
X56186493Y-39996535D01*
X56251552Y-39988268D01*
X56317572Y-39983248D01*
X56384470Y-39981556D01*
X56451368Y-39983248D01*
M02*
