<?xml version="1.0" encoding="UTF-8" standalone="no"?>
<!-- Created with Inkscape (http://www.inkscape.org/) -->

<svg
   width="5000.0005mm"
   height="8330mm"
   viewBox="0 0 5000.0003 8329.9999"
   version="1.1"
   id="svg1"
   xml:space="preserve"
   sodipodi:docname="purrChash_kicad_layers_export.svg"
   inkscape:version="1.3.2 (091e20e, 2023-11-25, custom)"
   xmlns:inkscape="http://www.inkscape.org/namespaces/inkscape"
   xmlns:sodipodi="http://sodipodi.sourceforge.net/DTD/sodipodi-0.dtd"
   xmlns="http://www.w3.org/2000/svg"
   xmlns:svg="http://www.w3.org/2000/svg"><sodipodi:namedview
     id="namedview1"
     pagecolor="#ffffff"
     bordercolor="#666666"
     borderopacity="1.0"
     inkscape:showpageshadow="2"
     inkscape:pageopacity="0.0"
     inkscape:pagecheckerboard="0"
     inkscape:deskcolor="#d1d1d1"
     inkscape:document-units="mm"
     inkscape:zoom="0.088388348"
     inkscape:cx="5277.845"
     inkscape:cy="9565.7405"
     inkscape:window-width="3840"
     inkscape:window-height="2066"
     inkscape:window-x="-11"
     inkscape:window-y="-11"
     inkscape:window-maximized="1"
     inkscape:current-layer="svg1" /><defs
     id="defs1" /><path
     id="FCu"
     style="display:none;stroke-width:48.7655"
     d="m 723.34805,663.08949 c -48.06792,0 -113.38581,83.76113 -149.55574,191.78313 -91.62281,273.63708 -57.2591,823.99328 70.42465,1127.89028 l 49.56803,117.9768 -46.99868,128.4412 c -65.41187,178.7608 -78.07238,313.6611 -41.30446,440.1391 50.5629,173.9295 119.94431,304.2955 218.73911,411.0049 l 95.53629,103.1916 -67.58192,77.3493 c -201.0236,230.0759 -305.89087,594.9563 -227.38302,791.1672 26.81894,67.0255 26.15758,74.3232 -19.41433,214.4174 -35.72792,109.8285 -45.29807,167.7147 -39.42808,238.4888 8.87398,107.0015 79.18756,263.6098 150.27042,334.6922 37.56692,37.5679 49.68854,68.3403 55.94852,142.041 4.87098,57.3451 29.33715,137.6496 62.65509,205.6499 75.90284,154.917 68.52701,300.5566 -20.67781,408.3023 -63.03088,76.133 -125.22092,192.5401 -177.20882,331.6991 -43.89191,117.5028 -48.17229,148.9983 -47.57229,352.6689 0.559,198.4206 6.11024,240.1364 49.21715,369.873 61.26988,184.4018 150.78588,356.3581 225.61672,433.3999 l 57.96235,59.6749 -42.14213,83.242 c -23.17894,45.784 -42.14316,108.662 -42.14316,139.73 0,151.6646 93.37451,212.243 361.27096,234.38 99.3488,8.209 229.9384,19.0546 290.1973,24.1044 80.2558,6.723 130.3613,1.2338 187.3291,-20.5222 75.777,-28.937 80.5932,-28.7009 188.094,9.2501 133.7658,47.2238 312.1263,41.7239 437.7169,-13.4979 43.854,-19.289 86.4291,-28.5892 94.6191,-20.6892 8.185,7.904 61.332,30.2124 118.1028,49.5742 l 0.029,-0.01 c 142.9806,48.767 307.5254,46.692 517.294,-6.52 598.6188,-151.8516 1079.6036,-635.1654 1320.3122,-1326.703 98.8038,-283.8584 122.9729,-428.2616 122.1729,-729.2299 -0.691,-252.1976 -3.6733,-275.5155 -55.0251,-430.1531 -76.4078,-230.0915 -150.5465,-339.6774 -426.9161,-631.0292 -145.6456,-153.5418 -196.2259,-239.782 -208.0979,-354.8093 -11.6778,-113.1426 16.021,-205.532 75.689,-252.4673 97.3128,-76.5465 283.2841,-13.785 294.2921,99.3175 6.994,71.8567 -35.1652,90.8858 -89.1,40.2172 -78.1438,-73.413 -167.2712,-34.3267 -189.4732,83.092 -14.151,74.8432 52.13,219.0116 131.33,285.6539 47.8318,40.2496 65.4035,44.7117 148.7873,37.7967 83.4058,-6.9164 101.1159,-15.4373 150.2657,-72.2964 102.3828,-118.4388 134.6668,-301.8642 90.1,-511.9109 -56.749,-267.4547 -266.8874,-481.7613 -517.3488,-527.6081 -257.9226,-47.2127 -499.5943,77.0914 -618.1711,317.9563 -48.3558,98.2227 -56.075,133.5396 -62.945,288.0858 -6.266,140.8735 -0.635,204.6073 28.1218,318.3253 51.019,201.7516 174.4472,444.1475 292.485,574.3975 146.7098,161.8878 259.7812,343.345 334.223,536.3611 94.0698,243.9063 95.1644,248.4508 116.4694,484.1347 32.67,361.4073 -10.9904,627.2867 -155.175,944.978 -39.6246,87.3067 -94.6731,159.1275 -121.3208,162.1839 26.6695,-3.1385 81.6922,-74.9351 121.2924,-162.189 144.1856,-317.6914 187.8288,-583.5527 155.159,-944.9599 -21.306,-235.6837 -22.381,-240.2409 -116.4508,-484.1472 -74.4418,-193.0153 -187.521,-374.4747 -334.2308,-536.3626 -118.0378,-130.2499 -241.4816,-372.6376 -292.4994,-574.3893 -28.757,-113.718 -34.3889,-177.4563 -28.1239,-318.3299 1.53,-34.4752 3.2601,-61.3778 5.3201,-86.0082 -40.9797,-9.6553 -100.9914,-17.4436 -157.6974,8.3561 13.5887,52.4424 26.1385,106.8482 37.1616,166.1056 29.479,158.473 97.52,423.8079 132.347,516.1013 24.5858,65.1565 248.227,399.587 350.8798,524.7029 98.8018,120.4238 218.0972,367.0165 257.9972,533.3054 23.641,98.5232 31.1697,202.2299 31.8487,438.6859 1,347.5094 -18.3999,465.5052 -122.5837,745.6088 -32.874,88.3808 -55.3591,165.104 -49.9691,170.495 1.9436,1.9435 4.6408,2.1867 7.3675,2.3461 -2.7462,-0.1517 -5.4599,-0.3941 -7.4145,-2.3487 -5.391,-5.391 17.0981,-82.124 49.9711,-170.5048 104.1838,-280.1035 123.5998,-398.0917 122.5998,-745.6 -0.68,-236.4564 -8.2129,-340.1638 -31.8529,-438.6869 -39.9008,-166.2886 -159.1984,-412.8895 -258.0002,-533.3132 -102.6528,-125.1159 -326.3027,-459.5381 -350.8887,-524.6946 -34.827,-92.2933 -102.8723,-357.629 -132.3521,-516.1013 -11.023,-59.2548 -23.5571,-113.655 -37.1451,-166.0953 0.01,0 0.02,-0.01 0.03,-0.01 -46.3301,-178.8009 -109.149,-324.264 -202.8656,-470.4199 -60.671,-94.6185 -122.4902,-184.2953 -137.3761,-199.2819 -14.885,-14.9865 -27.0651,-33.0583 -27.0651,-40.1603 0,-7.1017 33.9414,-56.7725 75.4244,-110.3788 91.4338,-118.1571 105.8781,-145.5259 158.5789,-300.4695 55.414,-162.9223 54.3958,-297.1083 -3.5,-461.376 -56.3249,-159.7267 -56.292,-185.9446 0.4,-332.5275 81.4828,-210.6829 101.3959,-337.4873 102.8159,-654.6179 1.06,-237.3422 -4.6342,-311.83841 -30.2142,-395.29785 -29.6518,-96.7444 -81.3522,-190.00163 -122.07,-220.18966 -32.924,-24.41046 -108.7741,2.5122 -236.1438,83.81814 -175.5697,112.07387 -218.1346,152.05889 -503.9961,473.44657 -30.4288,34.2103 -69.3617,96.1424 -86.5177,137.6267 l -31.1909,75.4305 h -228.8346 -228.8361 l -30.1021,-66.7355 C 1474.8851,1291.335 1329.8708,1114.8634 1169.8691,959.74528 1032.0234,826.10816 786.65191,663.08949 723.34805,663.08949 Z m 47.63637,76.59222 a 180,180 0 0 1 179.99986,179.99987 180,180 0 0 1 -51.77565,125.68582 c -15.58856,-11.8062 -29.31933,-21.3065 -38.60178,-25.5359 -0.80182,-0.3653 -1.42303,-0.3244 -2.21588,-0.6702 0.78754,0.3438 1.40676,0.3074 2.20296,0.6702 9.28359,4.23 23.0179,13.7324 38.60953,25.5411 a 180,180 0 0 0 0.005,0 c 91.37288,69.2028 270.57344,248.3079 307.10584,312.4192 10e-4,0 10e-4,0 0,0 -36.531,-64.1094 -215.735,-243.2119 -307.11284,-312.4192 a 180,180 0 0 1 -128.21904,54.3088 180,180 0 0 1 -18.73995,-1.3399 c -1.15164,5.1253 -2.33693,10.1362 -3.36258,15.7427 0.98752,-5.3959 1.99173,-10.8118 3.09593,-15.7618 A 180,180 0 0 1 590.98455,919.68158 180,180 0 0 1 770.98442,739.68171 Z m -19.0066,358.64069 a 180,180 0 0 0 0.26665,0.019 c 0.27597,-1.2282 0.52234,-2.5716 0.80564,-3.7724 -0.32369,1.3724 -0.75816,2.345 -1.07229,3.7532 z m 106.41315,-79.1611 c -10.60921,-4.6319 -20.60693,-7.9308 -29.67571,-9.032 -0.0507,-0.01 -0.0902,0.016 -0.14056,0.01 9.1128,1.0844 19.14763,4.368 29.81627,9.0217 z m -29.81627,-9.0217 c -3.3e-4,0 -7e-4,-5e-4 -10e-4,-5e-4 l -5.2e-4,5e-4 c 5.5e-4,10e-5 10e-4,0 0.002,0 z m 1901.1227,-0.8015 c 0.1567,-0.013 0.2705,0.037 0.4264,0.026 -0.1523,0.011 -0.2686,-0.029 -0.4217,-0.017 v 0 c -4.8666,0.4008 -10.4161,1.5659 -16.1184,2.8634 -1.2666,0.2898 -2.2686,0.309 -3.5796,0.6387 -35.3727,8.897 -151.0097,106.84 -245.1954,198.8148 -50.5805,49.395 -96.5513,97.3606 -117.0414,128.233 -33.9513,51.1534 -53.8089,94.6498 -59.2677,133.0694 -9.0966,64.0341 21.8057,113.9667 94.1193,161.7451 7.2789,4.8091 23.967,17.8432 34.0754,24.938 38.6024,27.0894 86.3554,61.2069 130.1295,95.2205 55.237,42.9205 110.8064,78.0454 123.4814,78.0454 12.675,0 38.4978,-19.6587 57.4058,-43.6976 41.555,-52.8288 72.1704,-199.135 81.7981,-354.399 -9.6218,155.2625 -40.2298,301.5662 -81.7852,354.3954 -18.909,24.0386 -44.7499,43.7063 -57.4249,43.7063 -12.674,0 -68.2387,-35.1167 -123.4757,-78.037 -43.7741,-34.0136 -91.5266,-68.1399 -130.129,-95.234 -10.1083,-7.0936 -26.7967,-20.1253 -34.0754,-24.9344 -72.3157,-47.7795 -103.2179,-97.7127 -94.1193,-161.7487 5.4579,-38.4205 25.3156,-81.9178 59.2677,-133.0731 20.4898,-30.8717 66.4606,-78.836 117.0414,-128.2293 94.1829,-91.9755 209.8149,-189.9187 245.1866,-198.8158 1.3134,-0.3303 2.3189,-0.3488 3.5884,-0.6377 5.7016,-1.3045 11.2464,-2.4857 16.1137,-2.8742 z m 58.4373,74.0699 c 4.6917,21.307 9.1567,47.209 13.8674,80.5181 11.2827,79.7832 13.0695,174.004 7.691,265.481 5.3749,-91.4733 3.5853,-185.6907 -7.6972,-265.4727 -4.7286,-33.4373 -9.1491,-59.1778 -13.8612,-80.5264 z M 735.05328,1333.9674 c 2e-5,0.021 -10e-4,0.037 -10e-4,0.058 0.3,266.9177 58.35388,499.0868 124.72676,498.8093 11.60896,-0.048 49.12406,-17.4666 83.367,-38.7072 h -0.002 c 73.95086,-45.8722 189.49726,-137.7731 268.86006,-213.8406 64.3101,-61.6401 63.6153,-99.351 -3.392,-217.9847 67.0171,118.6377 67.7149,156.3422 3.4039,217.9831 -79.3618,76.0676 -194.9097,167.9774 -268.86059,213.8494 -34.24292,21.2408 -71.77921,38.6597 -83.38819,38.7077 -66.37286,0.2775 -124.4159,-231.8965 -124.7159,-498.8139 -3e-5,-0.024 0.002,-0.037 0.002,-0.061 z m 226.36757,853.7696 c 22.27432,-0.3007 51.40455,0.1065 89.48605,0.8015 253.6175,4.6279 309.5242,17.6608 393.7341,91.7856 105.6838,93.0272 173.8353,313.3567 102.8743,332.5947 -174.6026,47.3364 -373.9507,-3.174 -513.4234,-130.0908 -62.94291,-57.2768 -144.60084,-205.1717 -144.61084,-261.9055 -0.004,-25.0076 5.11685,-32.2835 71.93979,-33.1855 z m 1526.38645,1.5058 c 92.7944,-1.3204 173.6532,1.2218 173.6437,8.6072 -0.08,59.8665 -80.5972,206.8791 -150.3382,274.4913 -97.0528,94.0913 -163.3997,130.1189 -265.0535,143.9276 -41.207,5.5969 -90.4042,12.3449 -109.3272,14.9929 -18.924,2.649 -61.5031,0.2269 -94.6191,-5.3841 -53.5168,-9.066 -60.8368,-16.7209 -65.8068,-68.8429 -13.445,-140.9313 129.107,-330.0544 266.2416,-353.2234 47.734,-8.0648 152.4651,-13.2481 245.2595,-14.5686 z m -31.1221,588.3042 -25.537,49.383 c -56.6118,109.4759 -232.7697,229.7705 -414.8403,283.2855 -95.3788,28.0338 -319.2011,34.7171 -438.6869,13.0985 -167.0227,-30.2204 -378.918,-156.166 -446.3759,-265.3161 -49.0449,-79.355 -45.1059,-84.5811 33.5199,-44.4692 180.5697,92.1194 421.8282,107.5069 545.112,34.7674 57.4408,-33.892 57.6345,-33.8895 125.8233,1.6532 136.3658,71.0775 371.804,54.719 554.5946,-38.5341 z m -1298.9063,469.8674 136.8061,65.888 c 276.8655,133.3425 548.0926,149.2683 833.545,48.9448 224.1756,-78.7878 216.4341,-78.3925 276.4881,-14.1051 86.4908,92.5888 136.3932,208.1765 136.3932,315.9275 0,87.6719 -3.8184,96.7229 -51.1142,121.1807 l -51.1142,26.432 51.3292,80.9366 c 90.7618,143.1163 110.051,305.1157 53.808,451.9079 -24.0988,62.8951 -39.1731,79.0147 -80.7811,86.3797 -56.0218,9.9155 -55.0297,3.1704 -31.9319,217.1035 7.517,69.6127 0.4998,110.7317 -33.0822,193.8725 -37.238,92.1919 -153.763,286.2874 -187.032,311.5375 -30.62,23.2397 -208.8612,279.4204 -274.701,394.8183 -93.335,163.5903 -103.9775,274.381 -49.5867,516.1804 43.261,192.3176 74.8596,582.1323 60.0088,740.2809 -13.132,139.8448 -49.6001,273.6583 -96.0221,352.3371 -19.647,33.299 -37.3907,60.5447 -39.4307,60.5447 -2.04,0 -0.3803,-129.671 3.6897,-288.1566 10.968,-426.9262 -32.4562,-747.7807 -145.42,-1074.4771 -36.686,-106.1004 -54.7548,-135.897 -90.4338,-149.1319 -112.1488,-41.6023 -216.6032,-131.1205 -259.6291,-222.5048 -32.512,-69.0508 -54.1339,-93.6356 -88.5869,-100.7236 -65.6338,-13.5022 -162.0855,-98.9112 -216.7903,-191.9712 -41.36996,-70.3732 -46.90987,-96.6097 -44.25987,-209.4745 2.842,-120.9246 -0.10223,-132.2899 -46.88913,-181.0205 -61.32588,-63.8745 -119.73071,-227.3524 -119.13071,-333.4732 0.244,-43.4628 18.72318,-132.678 41.06312,-198.2556 l 40.61975,-119.2325 -34.1111,-78.6066 c -26.40394,-60.9786 -32.29408,-103.6818 -26.0041,-190.4276 15.10698,-208.3492 101.86383,-386.0314 283.34444,-580.3073 z m -169.54676,2412.2776 -5.2e-4,0.01 c 0.002,5e-4 0.005,0 0.007,0 4.94696,1.4513 10.26974,5.602 15.96288,11.8804 -5.69871,-6.289 -11.01212,-10.4255 -15.96288,-11.8799 -4.79892,-1.4105 -9.30086,-0.2109 -13.72629,2.1838 -0.42185,0.2286 -0.88794,-0.051 -1.30793,0.2088 -26.44594,16.3447 -16.02218,87.8741 35.3787,242.748 14.194,42.7677 36.8341,122.4875 57.8445,192.5412 19.9302,66.4345 38.1568,122.7244 54.868,182.5971 21.9609,78.6788 42.2221,146.8809 63.5899,220.092 12.0403,41.2434 28.4958,100.1219 35.8299,123.9898 25.1279,81.7749 37.267,167.7663 37.824,267.9341 0.277,46.9752 -0.7895,77.0348 -3.1119,102.1746 -4.3829,47.4808 -15.265,70.5442 -44.2423,108.5722 -39.4539,51.7729 -59.1978,63.2282 -108.8657,63.2282 -9.9007,0 -19.4455,0.8754 -28.6055,2.5316 9.1637,-1.6576 18.7115,-2.5347 28.6164,-2.5347 49.6679,0 69.39,-11.4568 108.844,-63.2297 28.98,-38.0287 39.8669,-61.0891 44.2531,-108.5676 2.3207,-25.1412 3.3858,-55.2023 3.1088,-102.1777 -0.557,-100.1678 -12.6981,-186.1541 -37.8261,-267.9289 -7.3339,-23.8673 -23.7868,-82.7473 -35.8247,-123.9919 -21.371,-73.2056 -41.6362,-141.3998 -63.5961,-220.078 -16.7116,-59.874 -34.9349,-116.1705 -54.8618,-182.6111 -21.0147,-70.05 -43.659,-149.7659 -57.8533,-192.534 -51.39986,-154.8739 -61.8267,-226.4094 -35.38075,-242.7542 0.42303,-0.2616 0.8936,0.02 1.31878,-0.2098 4.42504,-2.3981 8.91463,-3.5998 13.71958,-2.19 z m 2137.05046,80.9258 c 17.6051,-0.6114 34.9274,0.2382 53.5761,1.9714 -18.6428,-1.7309 -35.9603,-2.5787 -53.5627,-1.9673 -13.7097,0.4761 -28.8629,2.3406 -44.5978,4.4809 15.7285,-2.1401 30.8767,-4.0055 44.5813,-4.4814 z m 57.4869,2.1156 c 20.2593,2.0356 42.4422,5.3742 69.0315,9.9338 67.6058,11.5931 142.1382,33.6563 165.6162,49.0399 20.3346,13.3239 30.5969,20.4751 31.7573,25.8692 0,4e-4 0,6e-4 0,0 -1.174,-5.3915 -11.4413,-12.5401 -31.7645,-25.8547 -23.4788,-15.3836 -98.003,-37.4562 -165.609,-49.0492 -26.5858,-4.5591 -48.7701,-7.9003 -69.0304,-9.9379 z m -111.4815,3.3151 c -2.4836,0.3759 -5.8275,1.1239 -8.3799,1.5353 2.5527,-0.4116 5.896,-1.1592 8.3799,-1.5353 z m -85.8201,15.8708 v 0 c -43.3467,9.1668 -83.8337,19.5242 -121.6246,31.2193 -264.5507,81.8726 -396.9478,229.3272 -452.8773,493.1952 -48.984,231.0976 -22.1828,550.6925 70.914,845.3929 41.903,132.6476 42.8846,143.7089 17.3628,197.4939 -38.86,81.8898 -34.1928,150.9022 13.2302,195.4542 67.2978,63.2218 255.7402,79.0735 403.38,33.9447 24.3367,-7.4391 39.3957,-14.6484 44.8247,-27.6567 9.0405,-21.6878 -8.6788,-59.494 -54.8096,-141.3501 -41.4105,-73.4808 -79.0878,-121.9158 -118.7447,-150.7742 39.6595,28.8562 77.342,77.2856 118.7498,150.7623 46.1379,81.8697 63.855,119.6753 54.8045,141.362 -5.4253,13.0147 -20.4869,20.2259 -44.8299,27.667 h -0.01 c -147.6396,45.129 -336.0811,29.2647 -403.379,-33.9581 -47.4228,-44.552 -52.0959,-113.5494 -13.2369,-195.4382 25.523,-53.786 24.5504,-64.8513 -17.3524,-197.4991 -93.0968,-294.7014 -119.9089,-614.2944 -70.9249,-845.3928 55.9305,-263.8727 188.3349,-411.3303 452.8954,-493.203 37.7904,-11.6953 78.2784,-22.0522 121.6246,-31.2193 z m 463.1991,66.4084 c 0.2297,4.957 -7.0729,8.6002 -22.3278,14.565 -18.569,7.261 -67.0711,13.711 -107.7821,14.411 -20.3555,0.332 -52.7901,3.7718 -88.6483,9.0465 -10.3649,1.5246 -20.8339,3.996 -31.5619,5.7965 10.7285,-1.8008 21.1964,-4.2715 31.5619,-5.7965 35.8575,-5.2755 68.2926,-8.7171 88.6462,-9.0496 40.711,-0.7 89.2121,-7.1501 107.7821,-14.4141 15.2467,-5.9617 22.5496,-9.6046 22.3299,-14.5588 z m -467.096,98.4989 c -110.4852,39.8524 -206.5938,94.5569 -283.0727,159.8595 76.4775,-65.3039 172.5856,-120.0076 283.0727,-159.8595 z m -358.0433,237.17 c -30.9177,36.2355 -58.3623,73.9162 -77.1085,114.4752 -44.9088,97.1638 -48.4089,120.2972 -48.4089,319.7908 0,96.6552 2.4097,156.901 9.4377,208.1868 5.9968,43.7353 15.2248,81.1148 30.5598,127.2744 70.653,212.6684 101.7215,261.5347 173.5843,273.0257 0,-6e-4 -0.01,0 -0.01,0 -71.863,-11.491 -102.9263,-60.3505 -173.5801,-273.0201 -15.3352,-46.1606 -24.5608,-83.5405 -30.5542,-127.278 -10e-5,-6e-4 0,0 0,0 -7.0322,-51.2864 -9.447,-111.5324 -9.447,-208.1899 0,-199.4936 3.5001,-222.6152 48.4099,-319.781 18.7473,-40.5613 46.195,-78.2442 77.1168,-114.4819 z m -1406.9948,56.5567 c 0.7403,2.2202 1.1224,3.2341 1.8676,5.4705 28.2174,84.6765 52.1565,187.9766 71.9832,293.503 27.886,148.3936 46.3998,302.1824 46.3998,423.4429 v 169.2961 l -68.8217,79.5063 c -4.3261,4.9982 -6.6203,8.3388 -10.4319,12.8788 -48.5344,57.8212 -58.3825,82.8855 -58.3825,148.1579 0,17.1864 2.3259,33.2793 4.6483,48.7861 3.7431,24.9557 9.0057,46.392 16.0078,53.3942 18.941,18.9422 -41.4491,23.1219 -105.2757,16.6961 -35.9492,-3.6172 -72.5916,-9.6752 -97.7413,-20.6235 -49.0963,-21.3727 -72.26513,-62.8542 -75.43987,-107.6219 -4.7571,-67.0231 35.88249,-141.5123 106.07987,-167.7251 -70.19298,26.2166 -110.83275,100.704 -106.07987,167.7251 3.17736,44.7662 26.34816,86.2467 75.44397,107.6193 25.1479,10.9479 61.7885,17.0069 97.7372,20.6261 63.8206,6.4216 124.2007,2.2378 105.2638,-16.7023 -7.0023,-7.0024 -12.2587,-28.4351 -15.9959,-53.388 -2.3263,-15.5098 -4.656,-31.606 -4.656,-48.7928 0,-65.2726 9.8482,-90.3312 58.3902,-148.1512 3.8112,-4.5404 6.1052,-7.8813 10.4309,-12.8798 l 68.8139,-79.5073 v -169.2781 c 0,-121.263 -18.509,-275.0591 -46.391,-423.4589 -19.8304,-105.5261 -43.773,-208.8259 -71.9909,-293.504 -0.7256,-2.1774 -1.1389,-3.3074 -1.8599,-5.4695 z m 311.517,980.6472 v 0 c 55.4438,-1.402 111.05,4.3988 140.996,18.0428 24.699,11.2538 51.1507,47.4952 70.7631,86.1849 -19.6165,-38.6863 -46.0717,-74.9237 -70.7698,-86.1766 -59.891,-27.288 -222.4391,-23.1779 -281.002,7.1101 -27.635,14.291 -58.2172,40.8778 -67.9592,59.0806 -16.9202,31.6153 -20.1439,86.5872 -12.3946,130.2443 3.5358,19.9064 8.6445,38.0479 17.0285,49.5117 18.6385,25.489 78.1781,48.2157 129.1745,53.4432 -50.9984,-5.2232 -110.5422,-27.9459 -129.1818,-53.437 -8.3832,-11.465 -13.49,-29.6105 -17.0243,-49.521 -7.7539,-43.6547 -4.5326,-98.6251 12.3884,-130.2412 9.742,-18.2038 40.3304,-44.8041 67.9654,-59.0951 29.2809,-15.1418 84.5687,-23.7398 140.0127,-25.1498 z m 582.5075,2.8499 c 0.2249,0.01 0.4336,0.068 0.6584,0.074 -0.2241,-0.01 -0.4346,-0.061 -0.6589,-0.067 -18.7258,-0.4 -37.8177,0.7998 -57.0027,3.8598 -89.1725,14.2594 -157.2907,67.5877 -185.8631,139.9015 28.5697,-72.3193 96.6899,-125.6522 185.8662,-139.9124 19.1854,-3.0679 38.2748,-4.295 57.0001,-3.852 z m -359.115,126.2523 c 8.6502,20.8852 15.4135,41.4681 15.4135,58.3638 0,6.4973 -1.5071,13.2658 -4.286,20.1368 2.7774,-6.869 4.284,-13.6357 4.284,-20.1316 0,-16.8965 -6.7624,-37.4815 -15.4115,-58.369 z m 599.3929,28.0127 c 4.2383,13.6553 7.0267,27.7693 7.491,42.43 0.7982,25.2027 -0.9583,40.6439 -7.0383,53.6882 6.0796,-13.0443 7.8345,-28.4853 7.0362,-53.6898 -0.465,-14.652 -3.2546,-28.7803 -7.4889,-42.4284 z m -494.0469,27.1425 c -2.4791,13.0145 -3.774,26.4635 -3.7992,40.2539 -0.049,27.573 1.6835,43.8078 10.6117,56.2545 -8.929,-12.4426 -10.6648,-28.6727 -10.6158,-56.2426 0.025,-13.7948 1.3226,-27.2475 3.8033,-40.2658 z m -159.2104,90.902 c -31.0689,19.7273 -67.5895,33.7776 -99.7748,33.9106 h -10e-4 c -25.5058,0.095 -49.748,2.8423 -71.6236,5.2984 21.8763,-2.4593 46.123,-5.2108 71.6313,-5.3062 32.1846,-0.1329 68.7019,-14.1797 99.7681,-33.9028 z m 630.7171,5.134 c -9.3908,6.7581 -21.549,13.9324 -37.2288,22.6777 -61.6516,34.3862 -130.1616,50.3877 -200.5402,49.1929 -57.3237,-0.9712 -115.8643,-13.125 -173.1383,-37.8747 -23.8367,-10.3015 -37.5791,-18.3703 -47.1511,-27.8061 9.5743,9.4341 23.3202,17.5006 47.1604,27.803 57.2729,24.7492 115.8094,36.9046 173.129,37.8778 70.3811,1.1923 138.8936,-14.8114 200.5449,-49.197 15.677,-8.7438 27.8347,-15.9167 37.2241,-22.6736 z M 770.98442,739.68171 c -47.73888,4e-5 -93.52258,18.96433 -127.27906,52.72082 -33.75648,33.75648 -52.72078,79.54018 -52.72081,127.27905 0.087,44.38725 16.57146,87.17732 46.2871,120.15032 29.71563,32.9729 70.56698,53.8035 114.70617,58.4905 0.31413,-1.4082 0.7486,-2.3809 1.07229,-3.7533 -0.2833,1.2008 -0.52967,2.5442 -0.80564,3.7724 6.21906,0.7725 12.47424,1.2198 18.73995,1.3399 48.29464,-0.1689 94.49574,-19.738 128.21904,-54.3088 -15.59162,-11.8087 -29.32595,-21.3111 -38.60953,-25.5411 -0.7962,-0.3628 -1.41542,-0.3264 -2.20296,-0.6702 -10.66863,-4.6537 -20.70348,-7.9373 -29.81627,-9.0217 -5.5e-4,0 -10e-4,10e-5 -0.002,0 l 5.2e-4,-5e-4 c 3.3e-4,0 7e-4,5e-4 10e-4,5e-4 0.0504,0 0.0898,-0.017 0.14056,-0.01 9.06877,1.1013 19.06651,4.4001 29.67571,9.032 0.79284,0.3459 1.41406,0.3049 2.21588,0.6703 9.28244,4.2293 23.01323,13.7296 38.60178,25.5359 33.02246,-33.5178 51.60775,-78.63381 51.77565,-125.68589 -3e-5,-47.73887 -18.96433,-93.52257 -52.72081,-127.27905 -33.756,-33.75652 -79.5397,-52.72081 -127.27857,-52.72085 z m 128.21904,305.69089 c 7.5425,5.7125 18.26575,15.697 26.87536,22.7805 0.001,0 0.003,0 0.004,0 -8.60945,-7.0834 -19.33259,-17.0682 -26.87485,-22.7805 z m -146.95899,52.9689 -0.26665,-0.019 c -1.10419,4.95 -2.10841,10.3659 -3.09593,15.7618 1.02565,-5.6065 2.21094,-10.6173 3.36258,-15.7427 z" /><path
     id="FMask"
     style="display:none;fill:#000000;stroke:#000000;stroke-width:0;stroke-dasharray:none"
     d="m 961.42508,2187.7385 c -66.823,0.9 -71.95,8.184 -71.947,33.1889 0.01,56.7337 81.681,204.6292 144.62402,261.9062 139.473,126.917 338.802,177.4205 513.405,130.0839 70.96,-19.238 2.81,-239.5658 -102.867,-332.5933 -84.21,-74.125 -140.112,-87.1512 -393.729,-91.7791 -38.082,-0.7 -67.21202,-1.107 -89.48602,-0.8 z m 1526.38002,1.512 c -92.795,1.322 -197.515,6.501 -245.249,14.5657 -137.136,23.169 -279.686,212.2752 -266.241,353.207 4.97,52.1215 12.281,59.7811 65.798,68.8471 33.116,5.61 75.703,8.041 94.627,5.392 18.923,-2.648 68.112,-9.397 109.319,-14.994 101.654,-13.8089 168.003,-49.8271 265.056,-143.9186 69.741,-67.6124 150.265,-214.6403 150.345,-274.5068 0.01,-7.385 -80.861,-9.913 -173.655,-8.593 z m -31.123,588.2999 -66.377,33.8691 c -182.792,93.2533 -418.242,109.6087 -554.607,38.5311 -68.19,-35.5427 -68.385,-35.5549 -125.826,-1.663 -123.284,72.7396 -364.537,57.3682 -545.106,-34.7513 -78.626,-40.112 -82.561,-34.9019 -33.517,44.4532 67.459,109.1503 279.35,235.113 446.373,265.3335 119.485,21.6187 343.307,14.93 438.686,-13.1038 182.07,-53.5152 358.234,-173.8256 414.846,-283.3016 z m 676.892,4404.7772 c -252,-48.48 -403.325,-257.747 -403.325,-557.759 0,-103.249 8.56,-141.074 51.092,-225.703 91.098,-181.268 276.715,-299.514 470.149,-299.503 58.703,0 290.177,41.134 347.529,61.754 72.686,26.132 249.45,164.281 249.45,194.957 0,44.006 -80.194,355.311 -101.051,392.268 -14.705,26.058 -22.809,17.901 -55.095,-55.466 -65.652,-149.186 -154.959,-261.696 -248.134,-312.606 -70.003,-38.248 -113.243,-48.218 -232.246,-53.547 -141.185,-6.32 -148.685,-4.72 -217.417,46.548 -91.438,68.2 -131.855,153.455 -140.576,296.53 -7.97,130.678 14.894,216.184 77.779,290.92 100.348,119.255 308.822,161 391.439,78.383 70.284,-70.283 79.067,-255.136 16.651,-350.397 -69.101,-105.46 -196.69,-75.966 -196.69,45.468 0,83.362 38.025,121.691 89.09,89.8 45.427,-28.369 58.828,-12.518 38.527,45.572 -23.518,67.295 -104.542,72.77 -176.825,11.948 -46.915,-39.477 -54.012,-56.443 -54.012,-129.126 0,-151.472 64.639,-222.924 201.667,-222.924 247.01,0 331.436,461.3 110.999,606.493 -79.656,52.465 -130.948,63.329 -219.001,46.39 z m -1607.562,-147.034 c -14.193,-4.99 -62.578,-25.399 -107.521,-45.358 l -81.717,-36.289 v -92.926 -92.927 l 41.322,32.503 c 22.725,17.877 84.945,42.968 138.265,55.76 90.121,21.619 103.281,20.631 186.956,-14.051 49.507,-20.519 96.092,-37.307 103.525,-37.307 7.43,0 11.152,36.059 8.27,80.131 -4.72,72.045 -11.32,83.255 -65.456,111.085 -65.018,33.424 -181.987,54.021 -223.643,39.379 z m -744.63802,-56.915 c -38.605,-65.353 -37.566,-70.461 14.348,-70.461 86.91,0 182.224,-73.726 237.98102,-184.082 93.252,-184.567 -45.16102,-499.774 -243.67102,-554.905 -82.3,-22.858 -134.945,-22.623 -178.706,0.8 -33.44,17.897 -34.516,15.33 -23.417,-55.911 21.765,-139.703 21.979,-139.974 100.475,-127.422 85.588,13.686 204.179,64.472 291.749,124.937 44.97702,31.056 83.24302,82.199 124.89902,166.929 51.325,104.397 60.658,142.167 64.184,259.784 3.61,120.359 -1.84,149.778 -43.449,234.465 -57.185,116.405 -118.17,181.166 -210.47602,223.508 -91.201,41.837 -99.423,40.755 -133.917,-17.641 z m 1320.95102,34.027 c -117.556,-28.276 -154.505,-57.766 -160.278,-127.923 -8.98,-109.151 3.58,-120.321 77.975,-69.346 57.585,39.455 77.511,43.641 172.616,36.267 59.135,-4.59 127.545,-21.459 152.023,-37.497 52.729,-34.55 52.502,-34.696 66.999,42.941 13.35,71.483 -18.324,109.144 -123.26,146.569 -72.348,25.803 -108.843,27.566 -186.075,8.99 z M 703.69008,6732.4436 c -36.935,-36.935 -23.939,-67.02 26.665,-61.723 38.311,4.01 48.395,-2.72 53.02,-35.389 14.632,-103.35 -70.906,-183.663 -150.337,-141.152 -27.854,14.907 -36.063,14.264 -36.245,-2.84 -0.1,-12.16 -4.7,-38.731 -10.145,-59.045 -8.63,-32.153 -1,-38.454 59.562,-48.672 87.357,-14.759 151.256,14.211 203.925,92.452 50.036,74.329 51.574,170.813 3.69,231.683 -38.36,48.767 -113.674,61.15 -150.14,24.684 z m 779.31302,-64.113 c -28.386,-6.83 -79.982,-31.04 -114.661,-53.796 -54.686,-35.884 -65.686,-54.768 -82.91,-142.32 -10.923,-55.52 -15.81,-104.998 -10.858,-109.949 4.95,-4.95 40.91,16.267 79.908,47.154 130.854,103.638 254.957,126.744 368.858,68.674 36.837,-18.781 68.565,-32.328 70.507,-30.106 1.94,2.22 8.85,43.612 15.362,91.976 l 11.833,87.935 -70.448,28.188 c -72.745,29.107 -177.596,33.904 -267.591,12.244 z m 524.703,-48.596 c -57.348,-28.648 -60.46,-34.871 -65.425,-130.82 l -5.21,-100.741 53.329,37.974 c 97.428,69.375 284.172,60.079 362.285,-18.035 33.197,-33.197 33.5,-32.56 33.5,70.562 v 104.061 l -73.115,33.188 c -91.686,41.618 -226.315,43.298 -305.359,3.81 z m 9.11,-366.58 c -96.104,-47.938 -100.441,-54.454 -131.904,-198.142 l -28.173,-128.662 79.374,65 79.374,65.001 h 163.842 c 149.683,0 174.206,-4.91 283.799,-56.803 108.605,-51.426 116.406,-53.021 82.428,-16.852 -20.642,21.972 -60.759,91.179 -89.15,153.793 -41.874,92.351 -61.981,117.456 -106.5,132.975 -87.978,30.67 -255.337,22.475 -333.09,-16.31 z m -570.223,1.92 c -29.485,-7.04 -100.28,-41.149 -157.322,-75.801 -81.854,-49.724 -110.016,-78.38 -133.628,-135.969 -42.767,-104.316 -76.982,-219.197 -65.282,-219.197 5.49,0 40.97,27.984 78.828,62.188 138.062,124.73 310.386,174.059 486.044,139.133 l 69.012,-13.722 21.305,91.641 c 29.762,128.012 30.001,127.367 -55.125,148.802 -84.715,21.332 -162.809,22.269 -243.832,2.93 z m 2645.117,-189.572 c -90.737,-22.261 -107.377,-50.861 -121.664,-209.121 -7.15,-79.2532 -12.195,-145.4689 -11.2,-147.1468 1,-1.678 44.304,11.8543 96.243,30.0726 68.732,24.1086 117.846,30.2531 180.452,22.5746 99.999,-12.264 136.405,-28.3719 204.333,-90.4059 l 31.761,-27.9732 -4.11,108.5274 c -2.72,71.8193 -11.479,217.0603 -111.37,266.0513 -107.755,52.848 -185.5,66.789 -264.448,47.421 z m -269.439,-116.192 c -18.71,-35.219 -82.467,-115.58 -141.683,-178.5792 -118.461,-126.0314 -207.44,-174.0031 -397.436,-214.274 -168.093,-35.6286 -279.819,-30.7062 -427.386,18.8308 -71.498,24.0008 -133.211,40.4226 -137.141,36.4921 -12.068,-12.067 170.427,-150.1962 252.468,-191.0914 114.742,-57.1966 273.569,-84.9726 412.209,-72.0873 147.799,13.737 188.845,28.7772 321.106,117.6621 97.584,65.5798 106.745,77.3181 123.635,158.4248 18.981,91.1384 45.375,388.6561 34.481,388.6561 -3.42,0 -21.543,-28.815 -40.253,-64.034 z m 92.691,-480.7472 c -16.053,-4.271 -44.493,-53.2534 -66.269,-114.1275 -20.982,-58.6527 -56.442,-138.5242 -78.799,-177.4913 -22.356,-38.967 -35.759,-75.7391 -29.781,-81.7158 5.98,-5.976 50.176,-10.8669 98.221,-10.8669 74.133,0 103.375,-10.8634 193.198,-71.7745 99.017,-67.1466 161.001,-148.6289 161.001,-211.6495 0,-110.4748 144.103,89.1789 213.639,295.9933 l 44.348,131.9014 -44.372,64.0291 c -52.624,75.9368 -147.875,142.4627 -240.992,168.3167 -66.034,18.3343 -194.782,22.1346 -250.194,7.385 z m -1347.727,-126.1506 c 25.551,-87.2371 80.688,-175.9508 159.517,-256.6552 184.15,-188.5357 411.625,-292.3623 587.534,-268.1682 71.117,9.781 86.92,19.6647 119.132,74.5121 20.425,34.7791 69.254,100.02 108.508,144.9794 39.255,44.9588 67.983,85.1328 63.842,89.2745 -4.14,4.14 -53.805,-11.3176 -110.362,-34.3548 -116.747,-47.5557 -211.484,-52.0899 -360.88,-17.2723 -217.155,50.6093 -415.778,145.0968 -514.579,244.7929 -58.46,58.9889 -63.988,61.3897 -52.712,22.8916 z m 25.385,-500.4417 c 0,-101.6272 48.469,-211.7075 136.903,-310.9282 94.92,-106.4975 257.945,-202.3519 354.281,-208.3076 62.008,-3.833 64.043,-1.995 88.293,79.7471 31.23,105.2701 21.381,131.2641 -49.932,131.78 -136.141,0.98 -387.335,159.5679 -488.444,308.3627 l -41.101,60.4867 z m 901.989,-61.7995 c -34.144,-6.76 -138.489,-163.121 -176.942,-265.1458 l -16.822,-44.6326 124.253,7.974 c 105.133,6.747 136.013,1.975 200.695,-31.0211 42.045,-21.4476 102.084,-66.8829 133.42,-100.968 51.918,-56.4709 58.535,-59.2081 74.548,-30.8329 9.66,17.1269 39.87,56.5347 67.121,87.572 45.456,51.7719 48.073,61.7751 31.683,121.1321 -44.292,160.411 -266.001,289.9683 -437.956,255.9226 z M 736.31908,2884.3635 c -53.254,-9.676 -62.181,-20.3645 -98.687,-118.1588 -22.075,-59.1369 -33.979,-107.521 -26.455,-107.521 7.53,0 59.674,27.8235 115.889,61.8301 56.215,34.0068 131.239,73.5551 166.721,87.8848 72.347,29.2183 80.016,47.2181 31.237,73.3233 -35.517,19.0083 -94.111,19.8285 -188.705,2.643 z m 1886.40802,3.306 c -60.998,-15.9404 -25.317,-50.5088 144.705,-140.1949 95.759,-50.5131 170.273,-81.4792 165.587,-68.8139 -4.69,12.6659 -21.548,62.6583 -37.467,111.0951 -28.272,86.0174 -30.788,88.3186 -108.128,98.9193 -84.795,11.6223 -117.13,11.4249 -164.697,-1.002 z M 856.04008,2639.5059 c -60.974,-28.0679 -146.931,-78.5397 -191.015,-112.1591 -79.46,-60.5964 -80.036,-61.7654 -66.391,-134.8044 7.57,-40.5227 24.053,-98.8901 36.627,-129.7054 l 22.861,-56.0281 66.74,109.813 c 36.706,60.3975 111.988,161.4098 167.292,224.4718 92.362,105.3193 120.66102,153.9806 87.65,150.7191 -7.1,-0.7 -62.791,-24.2389 -123.764,-52.3069 z m 1694.43602,37.7737 c -4.06,-6.573 41.393,-68.433 101.014,-137.4668 59.619,-69.0335 134.632,-171.0855 166.693,-226.7816 32.062,-55.6959 62.83,-101.3492 68.376,-101.4521 11.378,-0.19 67.333,191.955 67.333,231.2425 0,56.7996 -377.59,276.2477 -403.416,234.458 z m -788.821,-408.8287 c -4.76,-7.726 -14.013,-52.7545 -20.567,-100.0639 -6.56,-47.3094 -22.397,-128.5951 -35.201,-180.6356 -37.599,-152.8077 -48.477,-343.0225 -25.848,-452.0224 l 20.267,-94.3636 h 74.213 74.213 l 13.094,94.7975 c 19.054,145.9516 11.76,245.1334 -37.01,503.199 -45.472,240.6166 -48.749,252.4969 -63.161,229.089 z m -216.336,-134.703 c -86.378,-98.3785 -109.996,-158.2474 -101.733,-257.8826 7.78,-93.799 66.344,-229.596 92.713,-214.9779 8.53,4.7309 12.962,47.5387 9.84,95.1285 -4.73,72.0041 31.157,264.6741 75.997,408.07 15.174,48.5231 -19.652,34.7688 -76.815,-30.338 z m 376.37,45.9926 c 0,-7.948 16.033,-75.6864 35.629,-150.5297 19.597,-74.8429 36.34,-192.2038 37.209,-260.8024 0.9,-68.5984 8.5,-124.7244 16.948,-124.7244 23.328,0 81.132,141.8886 92.96,228.1831 12.296,89.7108 -19.443,169.5458 -104.19,262.0666 -54.729,59.7499 -78.556,73.6442 -78.556,45.8068 z m -640.925,-115.0529 c -80.056,-54.3988 -98.253,-115.2615 -52.705,-176.2686 50.236,-67.2861 68.54,-64.0735 81.061,14.2288 6.25,39.0817 26.798,101.3132 45.663,138.2925 41.29,80.9337 20.129,87.7223 -74.019,23.7473 z m 881.772,34.2003 c 0,-5.107 15.484,-39.6361 34.408,-76.7296 18.923,-37.0934 34.406,-90.5189 34.406,-118.723 0,-66.9642 24.667,-80.2538 68.187,-36.7349 68.152,68.1536 33.823,163.5203 -79.959,222.1213 -41.47,21.3593 -57.042,24.1067 -57.042,10.0656 z" /><path
     id="FSilkS"
     style="display:none;fill:#000000;fill-opacity:1;stroke:#000000;stroke-width:0;stroke-dasharray:none"
     d="m 1157.7851,3247.4096 -48.964,52.4165 c -181.48102,194.2764 -268.21902,371.9373 -283.32602,580.2864 -6.29,86.746 -0.4,129.4597 25.981,190.4385 l 34.121,78.5997 -40.622,119.2477 c -22.341,65.5778 -40.807,154.7875 -41.052,198.2502 -0.6,106.121 57.795,269.601 119.122,333.475 46.786,48.7308 49.739,60.0893 46.897,181.0135 -2.65,112.8653 2.88,139.1167 44.25202,209.4897 54.706,93.0602 151.164,178.4485 216.798,191.9507 34.454,7.088 56.067,31.6747 88.579,100.7256 43.026,91.3841 147.489,180.9161 259.638,222.5179 35.679,13.2349 53.732,43.035 90.419,149.1356 112.963,326.697 156.398,647.536 145.431,1074.464 -4.07,158.485 -5.75,288.165 -3.71,288.165 2.04,0 19.792,-27.257 39.439,-60.557 46.422,-78.679 82.881,-212.48 96.013,-352.325 14.851,-158.15 -16.741,-547.965 -60.002,-740.283 -54.391,-241.7994 -43.741,-352.5863 49.594,-516.1765 65.84,-115.3981 244.063,-371.5983 274.683,-394.838 33.269,-25.2503 149.799,-219.3335 187.036,-311.5256 33.583,-83.1408 40.605,-124.253 33.089,-193.8653 -23.099,-213.9337 -24.094,-207.185 31.928,-217.1005 41.608,-7.364 56.694,-23.4913 80.792,-86.3866 56.243,-146.7919 36.959,-308.8001 -53.802,-451.9161 l -51.333,-80.9433 51.106,-26.41 c 47.296,-24.4578 51.106,-33.516 51.106,-121.188 0,-107.7513 -49.893,-223.3465 -136.384,-315.9355 -60.054,-64.2876 -52.321,-64.6757 -276.497,14.1122 -285.452,100.3233 -556.659,84.4038 -833.524,-48.9391 z m 1888.155,612.8451 c 13.588,52.4404 26.122,106.8403 37.145,166.0952 29.48,158.4727 97.525,423.8077 132.352,516.1012 24.586,65.1566 248.236,399.5786 350.889,524.6947 98.802,120.4239 218.099,367.0241 258,533.313 23.64,98.5233 31.173,202.23 31.853,438.6868 1,347.509 -18.416,465.496 -122.6,745.6 -32.873,88.381 -55.362,165.114 -49.971,170.505 20.169,20.169 85.613,-59.405 130.889,-159.165 144.186,-317.692 187.829,-583.552 155.159,-944.96 -21.306,-235.6841 -22.381,-240.2403 -116.451,-484.1472 -74.442,-193.0157 -187.521,-374.474 -334.231,-536.3623 -118.038,-130.2501 -241.481,-372.6375 -292.499,-574.3896 -28.757,-113.7182 -34.389,-177.4561 -28.124,-318.3299 1.53,-34.4752 3.26,-61.3777 5.32,-86.0081 -40.987,-9.657 -101.013,-17.4503 -157.728,8.366 z M 2729.7021,1009.349 c -5.95,0.49 -12.494,1.687 -19.707,3.501 -54.368,13.6753 -303.584,238.6909 -362.228,327.0491 -90.54,136.4141 -80.851,218.3723 34.852,294.8181 35.075,23.1743 108.968,77.2342 164.205,120.1546 55.237,42.9205 110.806,78.0453 123.481,78.0453 12.675,0 38.498,-19.6584 57.406,-43.6973 66.488,-84.5262 104.97,-408.3538 74.291,-625.2939 -17.613,-124.5422 -30.659,-157.9021 -72.3,-154.5788 z m -1900.98202,0.78 c -68.192,-8.282 -93.936,85.9916 -93.669,323.8994 0.3,266.9179 58.343,499.0912 124.716,498.8137 11.609,-0.048 49.145,-17.4668 83.388,-38.7076 73.95102,-45.8722 189.49902,-137.7814 268.86102,-213.8492 65.257,-62.5476 64.304,-99.6484 -5.7,-222.4935 -42.764,-75.0486 -282.03002,-308.9401 -345.72202,-337.9604 -11.522,-5.25 -22.137,-8.519 -31.879,-9.702 z m 159.518,4649.5747 c -5.26,-1.546 -10.219,-0.59 -15.045,2.394 -26.446,16.3448 -16.019,87.8798 35.38102,242.7549 27.656,83.329 78.389,252.127 112.721,375.131 34.333,123.004 79.063,277.851 99.415,344.084 25.128,81.775 37.269,167.761 37.826,267.929 0.8,135.692 -3.03,152.586 -47.351,210.75 -39.454,51.773 -59.198,63.228 -108.866,63.228 -158.41202,0 -225.64102,224.096 -85.529,285.09 69.798,30.386 232.622,33.541 203.013,3.93 -11.354,-11.354 -20.664,-57.346 -20.664,-102.187 0,-70.398 9.4,-92.378 68.822,-161.03 l 68.822,-79.506 v -169.296 c 0,-207.492 -50.492,-513.192 -118.391,-716.947 -140.62,-421.9794 -193.313,-555.5174 -230.15402,-566.3263 z m 2137.05802,80.9181 c -37.781,1.312 -77.777,8.176 -139.811,21.2939 -346.8,73.3399 -510.596,222.8519 -574.516,524.4179 -48.984,231.098 -22.183,550.692 70.914,845.393 41.903,132.648 42.885,143.709 17.363,197.494 -38.86,81.89 -34.193,150.902 13.23,195.454 67.298,63.222 255.74,79.074 403.38,33.945 64.909,-19.841 63.833,-38.041 -9.98,-169.019 -66.499,-118 -123.379,-171.513 -194.294,-182.853 -71.863,-11.491 -102.926,-60.35 -173.58,-273.02 -33.317,-100.288 -39.992,-156.38 -39.992,-335.465 0,-199.494 3.5,-222.627 48.409,-319.791 84.984,-183.87 299.154,-330.087 574.289,-392.066 68.101,-15.341 157.137,-28.442 197.847,-29.107 40.711,-0.7 89.212,-7.15 107.782,-14.414 32.152,-12.572 31.732,-14.541 -8.92,-41.1777 -23.478,-15.3836 -98.01,-37.4465 -165.616,-49.0396 -53.172,-9.118 -88.725,-13.3578 -126.505,-12.0455 z m -1597.243,1460.5818 c -55.444,1.41 -110.732,10.008 -140.013,25.15 -27.635,14.291 -58.223,40.891 -67.965,59.095 -24.637,46.033 -22.13,143.149 4.64,179.753 24.852,33.986 122.419,63.061 175.495,52.291 18.924,-3.84 62.844,-7.1 97.6,-7.23 72.63,-0.3 169.044,-69.616 169.044,-121.591 0,-55.332 -54.45,-149.669 -97.802,-169.422 -29.946,-13.644 -85.552,-19.445 -140.996,-18.043 z m 582.504,2.85 c -18.726,-0.4 -37.818,0.8 -57.003,3.86 -118.899,19.013 -200.367,107.483 -200.569,217.806 -0.098,55.145 6.94,64.927 64.412,89.763 127.594,55.137 261.805,51.077 373.669,-11.315 62.708,-34.975 69.116,-44.821 67.26,-103.422 -3.44,-108.63 -116.69,-193.586 -247.769,-196.688 z" /><path
     id="Drills"
     style="display:inline;fill:#000000;fill-opacity:1;fill-rule:evenodd;stroke:#000000;stroke-width:0.593009"
     d="M 401.80976,58.83963 A 29.703495,29.703495 0 0 1 372.10626,88.543125 29.703495,29.703495 0 0 1 342.40277,58.83963 29.703495,29.703495 0 0 1 372.10626,29.136135 29.703495,29.703495 0 0 1 401.80976,58.83963 Z M 4639.9056,57.7813 a 29.703495,29.703495 0 0 1 -29.7035,29.703495 29.703495,29.703495 0 0 1 -29.7034,-29.703495 29.703495,29.703495 0 0 1 29.7034,-29.703495 29.703495,29.703495 0 0 1 29.7035,29.703495 z m 26.1958,8210.8232 a 29.703495,29.703495 0 0 1 -29.7035,29.7035 29.703495,29.703495 0 0 1 -29.7034,-29.7035 29.703495,29.703495 0 0 1 29.7034,-29.7035 29.703495,29.703495 0 0 1 29.7035,29.7035 z m -4261.15804,-4.21 a 29.703495,29.703495 0 0 1 -29.70349,29.7035 29.703495,29.703495 0 0 1 -29.7035,-29.7035 29.703495,29.703495 0 0 1 29.7035,-29.7035 29.703495,29.703495 0 0 1 29.70349,29.7035 z M 1941.844,504.95695 a 29.508196,29.508198 0 0 1 -29.5082,29.5081 29.508196,29.508198 0 0 1 -29.5082,-29.5081 29.508196,29.508198 0 0 1 29.5082,-29.5082 29.508196,29.508198 0 0 1 29.5082,29.5082 z m -79.4153,0.053 a 29.508196,29.508198 0 0 1 -29.5082,29.5082 29.508196,29.508198 0 0 1 -29.5082,-29.5082 29.508196,29.508198 0 0 1 29.5082,-29.5082 29.508196,29.508198 0 0 1 29.5082,29.5082 z m -78.993,0.038 a 29.508196,29.508198 0 0 1 -29.5082,29.5082 29.508196,29.508198 0 0 1 -29.5082,-29.5082 29.508196,29.508198 0 0 1 29.5082,-29.5082 29.508196,29.508198 0 0 1 29.5082,29.5082 z m -79.178,-0.064 a 29.508196,29.508198 0 0 1 -29.5082,29.5082 29.508196,29.508198 0 0 1 -29.5082,-29.5082 29.508196,29.508198 0 0 1 29.5082,-29.5082 29.508196,29.508198 0 0 1 29.5082,29.5082 z m -78.2569,0.3178 a 29.508196,29.508198 0 0 1 -29.5082,29.5082 29.508196,29.508198 0 0 1 -29.5082,-29.5082 29.508196,29.508198 0 0 1 29.5082,-29.5082 29.508196,29.508198 0 0 1 29.5082,29.5082 z m 324.9196,910.37055 a 29.508196,29.508198 0 0 1 -29.5082,29.5082 29.508196,29.508198 0 0 1 -29.5082,-29.5082 29.508196,29.508198 0 0 1 29.5082,-29.5082 29.508196,29.508198 0 0 1 29.5082,29.5082 z m -79.4153,0.053 a 29.508196,29.508198 0 0 1 -29.5082,29.5082 29.508196,29.508198 0 0 1 -29.5082,-29.5082 29.508196,29.508198 0 0 1 29.5082,-29.5082 29.508196,29.508198 0 0 1 29.5082,29.5082 z m -78.993,0.038 a 29.508196,29.508198 0 0 1 -29.5082,29.5082 29.508196,29.508198 0 0 1 -29.5082,-29.5082 29.508196,29.508198 0 0 1 29.5082,-29.5082 29.508196,29.508198 0 0 1 29.5082,29.5082 z m -79.178,-0.064 a 29.508196,29.508198 0 0 1 -29.5082,29.5082 29.508196,29.508198 0 0 1 -29.5082,-29.5082 29.508196,29.508198 0 0 1 29.5082,-29.5082 29.508196,29.508198 0 0 1 29.5082,29.5082 z m -78.2569,0.3178 a 29.508196,29.508198 0 0 1 -29.5082,29.5082 29.508196,29.508198 0 0 1 -29.5082,-29.5082 29.508196,29.508198 0 0 1 29.5082,-29.5082 29.508196,29.508198 0 0 1 29.5082,29.5082 z m -196.158,6238.4832 c -1.986,16.1755 -16.7089,27.6783 -32.8844,25.6922 -16.1755,-1.986 -27.6784,-16.709 -25.6922,-32.8846 1.9862,-16.1755 16.7091,-27.6782 32.8845,-25.692 16.1755,1.9861 27.6782,16.7089 25.6921,32.8844 z m -79.8634,-6.9385 c -1.9861,16.1754 -16.7089,27.6782 -32.8844,25.6921 -16.1754,-1.9862 -27.6781,-16.709 -25.692,-32.8844 1.9861,-16.1755 16.7089,-27.6783 32.8843,-25.6922 16.1755,1.9861 27.6783,16.709 25.6921,32.8845 z m -78.6154,-8.7622 c -1.9861,16.1754 -16.709,27.6781 -32.8844,25.692 -16.1755,-1.986 -27.6783,-16.7089 -25.6922,-32.8844 1.9861,-16.1755 16.709,-27.6783 32.8845,-25.6921 16.1755,1.9861 27.6783,16.709 25.6921,32.8845 z m -78.5801,-9.7139 c -1.9861,16.1754 -16.7089,27.6781 -32.8843,25.6921 -16.1755,-1.9861 -27.6783,-16.709 -25.6921,-32.8845 1.9861,-16.1754 16.7089,-27.6781 32.8843,-25.6921 16.1755,1.9861 27.6783,16.709 25.6921,32.8845 z m -77.7124,-9.2215 c -1.9861,16.1755 -16.709,27.6782 -32.8845,25.692 -16.1755,-1.9861 -27.6782,-16.7089 -25.6921,-32.8844 1.986,-16.1755 16.7089,-27.6783 32.8844,-25.6922 16.1756,1.986 27.6784,16.709 25.6922,32.8846 z m 311.6366,210.0059 a 29.508196,29.508198 0 0 1 -29.5082,29.5082 29.508196,29.508198 0 0 1 -29.5082,-29.5082 29.508196,29.508198 0 0 1 29.5082,-29.5082 29.508196,29.508198 0 0 1 29.5082,29.5082 z m -79.4154,0.053 a 29.508196,29.508198 0 0 1 -29.5082,29.5082 29.508196,29.508198 0 0 1 -29.5081,-29.5082 29.508196,29.508198 0 0 1 29.5081,-29.5082 29.508196,29.508198 0 0 1 29.5082,29.5082 z m -78.9929,0.038 a 29.508196,29.508198 0 0 1 -29.5082,29.5082 29.508196,29.508198 0 0 1 -29.5082,-29.5082 29.508196,29.508198 0 0 1 29.5082,-29.5082 29.508196,29.508198 0 0 1 29.5082,29.5082 z m -79.178,-0.065 a 29.508196,29.508198 0 0 1 -29.5082,29.5082 29.508196,29.508198 0 0 1 -29.5082,-29.5082 29.508196,29.508198 0 0 1 29.5082,-29.5082 29.508196,29.508198 0 0 1 29.5082,29.5082 z m -78.257,0.3179 a 29.508196,29.508198 0 0 1 -29.5082,29.5082 29.508196,29.508198 0 0 1 -29.5082,-29.5082 29.508196,29.508198 0 0 1 29.5082,-29.5082 29.508196,29.508198 0 0 1 29.5082,29.5082 z M 384.39265,484.90393 a 29.508198,29.508196 0 0 1 -29.5082,-29.5082 29.508198,29.508196 0 0 1 29.5082,-29.5082 29.508198,29.508196 0 0 1 29.5082,29.5082 29.508198,29.508196 0 0 1 -29.5082,29.5082 z m -0.053,-79.4153 a 29.508198,29.508196 0 0 1 -29.5082,-29.5082 29.508198,29.508196 0 0 1 29.5082,-29.5082 29.508198,29.508196 0 0 1 29.5082,29.5082 29.508198,29.508196 0 0 1 -29.5082,29.5082 z m -0.038,-78.993 a 29.508198,29.508196 0 0 1 -29.5082,-29.5082 29.508198,29.508196 0 0 1 29.5082,-29.5082 29.508198,29.508196 0 0 1 29.5082,29.5082 29.508198,29.508196 0 0 1 -29.5082,29.5082 z m 0.065,-79.178 a 29.508198,29.508196 0 0 1 -29.5082,-29.5082 29.508198,29.508196 0 0 1 29.5082,-29.5081 29.508198,29.508196 0 0 1 29.5082,29.5081 29.508198,29.508196 0 0 1 -29.5082,29.5082 z m -0.3179,-78.2569 a 29.508198,29.508196 0 0 1 -29.5082,-29.5082 29.508198,29.508196 0 0 1 29.5082,-29.50821 29.508198,29.508196 0 0 1 29.5082,29.50821 29.508198,29.508196 0 0 1 -29.5082,29.5082 z M 4609.6396,487.91289 a 29.508198,29.508196 0 0 1 -29.5082,-29.5082 29.508198,29.508196 0 0 1 29.5082,-29.5082 29.508198,29.508196 0 0 1 29.5082,29.5082 29.508198,29.508196 0 0 1 -29.5082,29.5082 z m -0.053,-79.4153 a 29.508198,29.508196 0 0 1 -29.5082,-29.5082 29.508198,29.508196 0 0 1 29.5082,-29.5082 29.508198,29.508196 0 0 1 29.5082,29.5082 29.508198,29.508196 0 0 1 -29.5082,29.5082 z m -0.038,-78.993 a 29.508198,29.508196 0 0 1 -29.5082,-29.5082 29.508198,29.508196 0 0 1 29.5082,-29.5082 29.508198,29.508196 0 0 1 29.5082,29.5082 29.508198,29.508196 0 0 1 -29.5082,29.5082 z m 0.065,-79.178 a 29.508198,29.508196 0 0 1 -29.5082,-29.5082 29.508198,29.508196 0 0 1 29.5082,-29.5082 29.508198,29.508196 0 0 1 29.5082,29.5082 29.508198,29.508196 0 0 1 -29.5082,29.5082 z m -0.3179,-78.257 a 29.508198,29.508196 0 0 1 -29.5082,-29.5082 29.508198,29.508196 0 0 1 29.5082,-29.5081 29.508198,29.508196 0 0 1 29.5082,29.5081 29.508198,29.508196 0 0 1 -29.5082,29.5082 z M 374.88855,8211.3259 a 29.508198,29.508196 0 0 1 -29.5082,-29.5082 29.508198,29.508196 0 0 1 29.5082,-29.5082 29.508198,29.508196 0 0 1 29.5082,29.5082 29.508198,29.508196 0 0 1 -29.5082,29.5082 z m -0.053,-79.4153 a 29.508198,29.508196 0 0 1 -29.5082,-29.5082 29.508198,29.508196 0 0 1 29.5082,-29.5082 29.508198,29.508196 0 0 1 29.5082,29.5082 29.508198,29.508196 0 0 1 -29.5082,29.5082 z m -0.038,-78.993 a 29.508198,29.508196 0 0 1 -29.5082,-29.5082 29.508198,29.508196 0 0 1 29.5082,-29.5082 29.508198,29.508196 0 0 1 29.5082,29.5082 29.508198,29.508196 0 0 1 -29.5082,29.5082 z m 0.065,-79.178 a 29.508198,29.508196 0 0 1 -29.5082,-29.5082 29.508198,29.508196 0 0 1 29.5082,-29.5082 29.508198,29.508196 0 0 1 29.5082,29.5082 29.508198,29.508196 0 0 1 -29.5082,29.5082 z m -0.3179,-78.257 a 29.508198,29.508196 0 0 1 -29.5082,-29.5082 29.508198,29.508196 0 0 1 29.5082,-29.5082 29.508198,29.508196 0 0 1 29.5082,29.5082 29.508198,29.508196 0 0 1 -29.5082,29.5082 z m 4261.08185,324.7669 a 29.508198,29.508196 0 0 1 -29.5082,-29.5082 29.508198,29.508196 0 0 1 29.5082,-29.5082 29.508198,29.508196 0 0 1 29.5082,29.5082 29.508198,29.508196 0 0 1 -29.5082,29.5082 z m -0.053,-79.4153 a 29.508198,29.508196 0 0 1 -29.5082,-29.5082 29.508198,29.508196 0 0 1 29.5082,-29.5082 29.508198,29.508196 0 0 1 29.5082,29.5082 29.508198,29.508196 0 0 1 -29.5082,29.5082 z m -0.038,-78.993 a 29.508198,29.508196 0 0 1 -29.5082,-29.5082 29.508198,29.508196 0 0 1 29.5082,-29.5082 29.508198,29.508196 0 0 1 29.5082,29.5082 29.508198,29.508196 0 0 1 -29.5082,29.5082 z m 0.065,-79.178 a 29.508198,29.508196 0 0 1 -29.5082,-29.5082 29.508198,29.508196 0 0 1 29.5082,-29.5081 29.508198,29.508196 0 0 1 29.5082,29.5081 29.508198,29.508196 0 0 1 -29.5082,29.5082 z m -0.3179,-78.2569 a 29.508198,29.508196 0 0 1 -29.5082,-29.5082 29.508198,29.508196 0 0 1 29.5082,-29.5082 29.508198,29.508196 0 0 1 29.5082,29.5082 29.508198,29.508196 0 0 1 -29.5082,29.5082 z m 8.8331,-2181.666 a 29.508198,29.508196 0 0 1 -29.5081,-29.5082 29.508198,29.508196 0 0 1 29.5081,-29.5082 29.508198,29.508196 0 0 1 29.5082,29.5082 29.508198,29.508196 0 0 1 -29.5082,29.5082 z m -0.053,-79.4153 a 29.508198,29.508196 0 0 1 -29.5082,-29.5082 29.508198,29.508196 0 0 1 29.5082,-29.5082 29.508198,29.508196 0 0 1 29.5082,29.5082 29.508198,29.508196 0 0 1 -29.5082,29.5082 z m -0.038,-78.993 a 29.508198,29.508196 0 0 1 -29.5082,-29.5082 29.508198,29.508196 0 0 1 29.5082,-29.5082 29.508198,29.508196 0 0 1 29.5082,29.5082 29.508198,29.508196 0 0 1 -29.5082,29.5082 z m 0.064,-79.178 a 29.508198,29.508196 0 0 1 -29.5082,-29.5082 29.508198,29.508196 0 0 1 29.5082,-29.5082 29.508198,29.508196 0 0 1 29.5082,29.5082 29.508198,29.508196 0 0 1 -29.5082,29.5082 z m -0.3178,-78.2569 a 29.508198,29.508196 0 0 1 -29.5082,-29.5082 29.508198,29.508196 0 0 1 29.5082,-29.5082 29.508198,29.508196 0 0 1 29.5082,29.5082 29.508198,29.508196 0 0 1 -29.5082,29.5082 z m -140.3858,314.6368 a 29.508198,29.508196 0 0 1 -29.5081,-29.5082 29.508198,29.508196 0 0 1 29.5081,-29.5082 29.508198,29.508196 0 0 1 29.5082,29.5082 29.508198,29.508196 0 0 1 -29.5082,29.5082 z m 2.9897,-78.357 a 29.508198,29.508196 0 0 1 -29.5082,-29.5082 29.508198,29.508196 0 0 1 29.5082,-29.5082 29.508198,29.508196 0 0 1 29.5082,29.5082 29.508198,29.508196 0 0 1 -29.5082,29.5082 z m 0.7558,-80.0513 a 29.508198,29.508196 0 0 1 -29.5082,-29.5082 29.508198,29.508196 0 0 1 29.5082,-29.5082 29.508198,29.508196 0 0 1 29.5082,29.5082 29.508198,29.508196 0 0 1 -29.5082,29.5082 z m -1.7881,-79.178 a 29.508198,29.508196 0 0 1 -29.5082,-29.5082 29.508198,29.508196 0 0 1 29.5082,-29.5082 29.508198,29.508196 0 0 1 29.5082,29.5082 29.508198,29.508196 0 0 1 -29.5082,29.5082 z m -5.0803,-78.2569 a 29.508198,29.508196 0 0 1 -29.5082,-29.5082 29.508198,29.508196 0 0 1 29.5082,-29.5082 29.508198,29.508196 0 0 1 29.5082,29.5082 29.508198,29.508196 0 0 1 -29.5082,29.5082 z" /><path
     id="EdgeCuts"
     style="display:none;fill:none;fill-opacity:1;fill-rule:nonzero;stroke:#000000;stroke-width:1.22436"
     d="M 0.61217999,0.61217999 H 4999.3881 V 8329.3876 H 0.61217999 Z M 1449.992,7622.9908 v 204.8248 M 1963.1785,1445.94 1960.0707,501.92363 m -403.25,944.30897 -3.1078,-944.01645 M 3046.7381,3863.6482 c -60.23,-265.142 -208.949,-498.3453 -368.11,-713.27 98.687,-143.1086 212.816,-281.0404 247.996,-457.0732 66.157,-185.4923 -5.03,-373.9205 -57.056,-551.8768 -3.04,-178.9051 119.823,-334.7534 125.521,-515.1364 17.975,-241.9099 38.887,-491.827 -12.911,-730.55653 -34.382,-80.8836 -60.565,-202.9745 -154.94,-228.828 -304.597,88.1647 -514.202,350.24073 -717.306,578.46663 -68.914,48.7015 -62.123,187.6731 -139.906,200.4574 h -7.349 m -405.3561,0 h -12.7329 c -120.446,-259.5536 -336.464,-465.48543 -559.87802,-638.66503 -88.013,-50.9052 -173.907,-142.12 -280.107,-140.2684 -176.371,132.012 -172.398,384.42213 -182.453,584.95443 0.7,290.3111 45.191,585.1445 171.637,848.8759 -89.143,211.9734 -159.892,457.7254 -51.828,677.1783 54.116,158.1838 161.52,288.7167 277.809,405.5917 -208.33,220.6594 -370.167,535.9864 -302.577,845.1551 78.402,163.3364 -90.082,322.3629 -48.951,492.2056 15.576,145.154 104.187,264.0659 187.698,376.2493 16.066,136.9864 65.841,264.6081 116.914,391.7404 52.645,148.7274 -33.704,286.8266 -122.617,398.5281 -114.308,187.4155 -183.843,403.4545 -160.398,624.8395 -8.33,278.304 106.622,553.566 274.379,771.052 114.305,59.198 -10.684,147.805 -17.911,233.934 -49.48291,141.7819 82.70921,257.2047 215.22522,265.9663 m 388.1294,39.7631 c 67.1817,2.8784 134.1166,0.8194 200.3484,-10.6175 136.022,-78.948 269.029,52.445 411.14,32.185 118.152,14.331 224.649,-54.992 335.95,-65.551 332.465,173.93 728.778,46.65 1038.187,-118.635 577.482,-327.59 927.353,-963.833 1027.423,-1606.115 2.7866,-41.9631 5.6318,-84.2757 8.0306,-126.7659 m -4.4693,-385.7805 c -13.3893,-114.1737 -41.373,-225.8162 -94.1013,-331.4725 -116.325,-299.8995 -415.383,-473.3624 -560.455,-752.7912 -62.952,-138.5283 -36.75,-393.9288 158.075,-393.4399 98.295,-9.521 239.944,102.0204 163.43,199.02 -70.831,2.717 -132.107,-115.0531 -207.78,-39.98 -118.927,130.9833 1.84,336.6373 128.36,414.35 120.464,35.5461 256.01,-17.4747 303.1,-139.17 194.151,-398.8685 -98.96,-960.0875 -557.712,-975.1256 -299.516,-23.0785 -573.331,235.1194 -595.528,528.8456 -49.926,-10.5022 -116.328,-17.089 -156.94,11.67 m -1985.424,3719.1085 -2.9627,232.7286 v 7.9513 c 0,0.5847 0.2397,4.4551 -3.3267,4.4668 -3.5664,0.012 -6.2383,-0.032 -6.2383,-0.032 M 1960.0483,502.24597 H 4642.318 V 5339.3235 m 0,397.3764 V 7827.7528 H 1449.4932 m -400.6273,0 H 357.68127 V 502.24597 H 1553.8522 M 4470.7838,5727.9387 c 57.2041,3.1009 114.408,6.2018 171.6119,9.3027 m -176.3085,-396.1406 c 58.7613,-0.762 117.5229,-1.524 176.2842,-2.286"
     inkscape:export-filename="EdgeCuts.svg"
     inkscape:export-xdpi="1200"
     inkscape:export-ydpi="1200" /></svg>
