<?xml version="1.0" encoding="UTF-8" standalone="no"?>
<!-- Created with Inkscape (http://www.inkscape.org/) -->

<svg
   width="5000.0005mm"
   height="8329.999mm"
   viewBox="0 0 5000.0003 8329.9989"
   version="1.1"
   id="svg1"
   xml:space="preserve"
   xmlns="http://www.w3.org/2000/svg"
   xmlns:svg="http://www.w3.org/2000/svg"><defs
     id="defs1" /><path
     id="EdgeCuts"
     style="fill:none;fill-opacity:1;fill-rule:nonzero;stroke:#000000;stroke-width:1.22436"
     d="M 0.61217999,0.61217999 H 4999.3881 V 8329.3876 H 0.61217999 Z M 1449.992,7622.9908 v 204.8248 M 1963.1785,1445.94 1960.0707,501.92363 m -403.25,944.30897 -3.1078,-944.01645 M 3046.7381,3863.6482 c -60.23,-265.142 -208.949,-498.3453 -368.11,-713.27 98.687,-143.1086 212.816,-281.0404 247.996,-457.0732 66.157,-185.4923 -5.03,-373.9205 -57.056,-551.8768 -3.04,-178.9051 119.823,-334.7534 125.521,-515.1364 17.975,-241.9099 38.887,-491.827 -12.911,-730.55653 -34.382,-80.8836 -60.565,-202.9745 -154.94,-228.828 -304.597,88.1647 -514.202,350.24073 -717.306,578.46663 -68.914,48.7015 -62.123,187.6731 -139.906,200.4574 h -7.349 m -405.3561,0 h -12.7329 c -120.446,-259.5536 -336.464,-465.48543 -559.87802,-638.66503 -88.013,-50.9052 -173.907,-142.12 -280.107,-140.2684 -176.371,132.012 -172.398,384.42213 -182.453,584.95443 0.7,290.3111 45.191,585.1445 171.637,848.8759 -89.143,211.9734 -159.892,457.7254 -51.828,677.1783 54.116,158.1838 161.52,288.7167 277.809,405.5917 -208.33,220.6594 -370.167,535.9864 -302.577,845.1551 78.402,163.3364 -90.082,322.3629 -48.951,492.2056 15.576,145.154 104.187,264.0659 187.698,376.2493 16.066,136.9864 65.841,264.6081 116.914,391.7404 52.645,148.7274 -33.704,286.8266 -122.617,398.5281 -114.308,187.4155 -183.843,403.4545 -160.398,624.8395 -8.33,278.304 106.622,553.566 274.379,771.052 114.305,59.198 -10.684,147.805 -17.911,233.934 -49.48291,141.7819 82.70921,257.2047 215.22522,265.9663 m 388.1294,39.7631 c 67.1817,2.8784 134.1166,0.8194 200.3484,-10.6175 136.022,-78.948 269.029,52.445 411.14,32.185 118.152,14.331 224.649,-54.992 335.95,-65.551 332.465,173.93 728.778,46.65 1038.187,-118.635 577.482,-327.59 927.353,-963.833 1027.423,-1606.115 2.7866,-41.9631 5.6318,-84.2757 8.0306,-126.7659 m -4.4693,-385.7805 c -13.3893,-114.1737 -41.373,-225.8162 -94.1013,-331.4725 -116.325,-299.8995 -415.383,-473.3624 -560.455,-752.7912 -62.952,-138.5283 -36.75,-393.9288 158.075,-393.4399 98.295,-9.521 239.944,102.0204 163.43,199.02 -70.831,2.717 -132.107,-115.0531 -207.78,-39.98 -118.927,130.9833 1.84,336.6373 128.36,414.35 120.464,35.5461 256.01,-17.4747 303.1,-139.17 194.151,-398.8685 -98.96,-960.0875 -557.712,-975.1256 -299.516,-23.0785 -573.331,235.1194 -595.528,528.8456 -49.926,-10.5022 -116.328,-17.089 -156.94,11.67 m -1985.424,3719.1085 -2.9627,232.7286 v 7.9513 c 0,0.5847 0.2397,4.4551 -3.3267,4.4668 -3.5664,0.012 -6.2383,-0.032 -6.2383,-0.032 M 1960.0483,502.24597 H 4642.318 V 5339.3235 m 0,397.3764 V 7827.7528 H 1449.4932 m -400.6273,0 H 357.68127 V 502.24597 H 1553.8522 M 4470.7838,5727.9387 c 57.2041,3.1009 114.408,6.2018 171.6119,9.3027 m -176.3085,-396.1406 c 58.7613,-0.762 117.5229,-1.524 176.2842,-2.286" /></svg>
