<?xml version="1.0" encoding="UTF-8" standalone="no"?>
<!-- Created with Inkscape (http://www.inkscape.org/) -->

<svg
   width="3964.6997mm"
   height="7005.5732mm"
   viewBox="0 0 3964.6996 7005.5732"
   version="1.1"
   id="svg1"
   xml:space="preserve"
   xmlns="http://www.w3.org/2000/svg"
   xmlns:svg="http://www.w3.org/2000/svg"><defs
     id="defs1"><linearGradient
       id="swatch243"><stop
         style="stop-color:#7d43c3;stop-opacity:1;"
         offset="0"
         id="stop243" /></linearGradient></defs><path
     id="EdgeCuts"
     style="display:inline;fill:none;stroke:#000000;stroke-width:10;stroke-dasharray:none"
     d="m 2529.5883,3201.9354 c -60.23,-265.142 -208.949,-498.3453 -368.11,-713.27 98.687,-143.1086 212.816,-281.0404 247.996,-457.0732 66.157,-185.4923 -5.03,-373.9205 -57.056,-551.8768 -3.04,-178.9051 119.823,-334.7534 125.521,-515.13646 17.975,-241.9099 38.887,-491.827 -12.911,-730.5565 -34.382,-80.8836 -60.565,-202.974501 -154.94,-228.8280007 -304.597,88.1646997 -514.202,350.2407007 -717.306,578.4666007 -68.914,48.7015 -62.123,187.6731 -139.906,200.4574 -141.813,0 -283.625,0 -425.438,0 -120.446,-259.5536 -336.464,-465.4854 -559.878,-638.665 C 379.5473,94.548239 293.6533,3.3334393 187.4533,5.1850393 11.082302,137.19704 15.055302,389.60714 5.0003021,590.13944 c 0.7,290.3111 45.1909999,585.14456 171.6369979,848.87596 -89.142998,211.9734 -159.891998,457.7254 -51.828,677.1783 54.116,158.1838 161.52,288.7167 277.809,405.5917 -208.33,220.6594 -370.166998,535.9864 -302.577,845.1551 78.402,163.3364 -90.0819979,322.3629 -48.950998,492.2056 15.576,145.154 104.186998,264.0659 187.697998,376.2493 16.066,136.9864 65.841,264.6081 116.914,391.7404 52.645,148.7274 -33.704,286.8266 -122.617,398.5281 -114.308,187.4155 -183.842998,403.4545 -160.397998,624.8395 -8.33,278.304 106.621998,553.566 274.378998,771.052 114.305,59.198 -10.684,147.805 -17.911,233.934 -50.078,143.487 85.915,259.977 220.006,266.236 193.044,16.204 391.336,62.093 583.697,28.876 136.022,-78.948 269.029,52.445 411.14,32.185 118.152,14.331 224.649,-54.992 335.95,-65.551 332.465,173.93 728.778,46.65 1038.187,-118.635 577.482,-327.59 927.353,-963.833 1027.423,-1606.115 18.794,-283.019 40.254,-581.9354 -90.54,-844.0189 -116.325,-299.8995 -415.383,-473.3624 -560.455,-752.7912 -62.952,-138.5283 -36.75,-393.9288 158.075,-393.4399 98.295,-9.521 239.944,102.0204 163.43,199.02 -70.831,2.717 -132.107,-115.0531 -207.78,-39.98 -118.927,130.9833 1.84,336.6373 128.36,414.35 120.464,35.5461 256.01,-17.4747 303.1,-139.17 194.151,-398.8685 -98.96,-960.0875 -557.712,-975.1256 -299.516,-23.0785 -573.331,235.1194 -595.528,528.8456 -49.926,-10.5022 -116.328,-17.089 -156.94,11.67" /><path
     id="FCu"
     style="display:inline;fill:#000000;stroke-width:48.7655"
     d="M 206.19827,1.3766602 C 158.13031,1.3766602 92.812501,85.137693 56.642537,193.15979 -34.980371,466.79711 -0.61669091,1017.1528 127.06718,1321.0501 l 49.56803,117.9768 -46.99868,128.4412 c -65.411931,178.7609 -78.072417,313.661 -41.304454,440.1391 50.562944,173.9297 119.944204,304.2954 218.739104,411.0049 l 95.53629,103.1916 -67.58192,77.3493 c -201.0238,230.0762 -305.890944,594.9561 -227.38302,791.1672 26.81897,67.0256 26.15763,74.3231 -19.414324,214.4174 -35.727964,109.8286 -45.298078,167.7146 -39.428084,238.4888 8.873991,107.0016 79.187488,263.6097 150.270418,334.6922 37.56696,37.5679 49.68853,68.3403 55.94852,142.041 4.87099,57.3452 29.33712,137.6495 62.65509,205.6499 75.90292,154.9171 68.5271,300.5565 -20.67781,408.3023 -63.03094,76.1331 -125.22087,192.54 -177.20882,331.6991 -43.891954,117.5029 -48.172289,148.9981 -47.57229,352.6689 0.559,198.4208 6.110196,240.1362 49.21715,369.873 61.26994,184.4019 150.7858,356.358 225.61672,433.3999 l 57.96235,59.6749 -42.14213,83.242 c -23.17897,45.784 -42.14316,108.662 -42.14316,139.73 0,151.6648 93.37424,212.243 361.27097,234.38 99.3489,8.209 229.93836,19.0545 290.19728,24.1044 80.25589,6.723 130.36119,1.2338 187.32909,-20.5222 75.777,-28.937 80.5931,-28.7009 188.094,9.2501 133.7659,47.2239 312.1261,41.724 437.7169,-13.4979 43.854,-19.289 86.4291,-28.5892 94.6191,-20.6892 8.185,7.904 61.3319,30.2123 118.1028,49.5742 l 0.029,-0.01 c 142.9808,48.767 307.5252,46.692 517.294,-6.52 598.6194,-151.8518 1079.6034,-635.1647 1320.3122,-1326.703 98.8039,-283.8587 122.9729,-428.2613 122.1729,-729.2299 -0.691,-252.1979 -3.6732,-275.5154 -55.0251,-430.1531 -76.4079,-230.0918 -150.5463,-339.6771 -426.9161,-631.0291 -145.6458,-153.542 -196.2259,-239.782 -208.0979,-354.8094 -11.6779,-113.1427 16.021,-205.532 75.689,-252.4673 97.3129,-76.5466 283.2841,-13.7851 294.2921,99.3175 6.994,71.8568 -35.1651,90.8859 -89.1,40.2172 -78.1439,-73.413 -167.2712,-34.3268 -189.4732,83.0921 -14.151,74.8432 52.13,219.0114 131.33,285.6538 47.8319,40.2496 65.4034,44.7117 148.7873,37.7967 83.4059,-6.9164 101.1158,-15.4373 150.2657,-72.2964 102.3829,-118.4389 134.6669,-301.8639 90.1,-511.9108 -56.749,-267.455 -266.8871,-481.7613 -517.3488,-527.6081 -257.9228,-47.2128 -499.5942,77.0911 -618.1711,317.9563 -48.3559,98.2228 -56.075,133.5393 -62.945,288.0857 -6.266,140.8736 -0.6351,204.6072 28.1218,318.3253 51.019,201.7518 174.4471,444.1474 292.485,574.3975 146.7099,161.888 259.7811,343.3449 334.223,536.3611 94.0699,243.9066 95.1644,248.4506 116.4694,484.1348 32.67,361.4076 -10.9902,627.2863 -155.175,944.9779 -39.6324,87.3239 -94.6966,159.1606 -121.3384,162.1907 -3.8162,0.4457 -7.0535,-0.5093 -9.5787,-3.0345 -5.391,-5.391 17.0981,-82.1239 49.9711,-170.5048 104.1839,-280.1037 123.5998,-398.0913 122.5998,-745.6 -0.68,-236.4566 -8.2129,-340.1637 -31.8529,-438.6869 -39.9009,-166.2887 -159.1983,-412.8894 -258.0002,-533.3132 -102.6529,-125.116 -326.3027,-459.538 -350.8887,-524.6946 -34.827,-92.2934 -102.8722,-357.6288 -132.3521,-516.1013 -11.023,-59.2548 -23.5571,-113.6549 -37.1451,-166.0953 v 0 c 0.01,0 0.02,-0.01 0.03,-0.01 -46.3302,-178.801 -109.1489,-324.2639 -202.8656,-470.4199 -60.671,-94.6186 -122.4901,-184.2953 -137.3761,-199.2819 -14.885,-14.9865 -27.065,-33.0583 -27.065,-40.1603 0,-7.1017 33.9413,-56.7724 75.4243,-110.3788 91.4339,-118.1572 105.878,-145.5257 158.5789,-300.4695 55.414,-162.9224 54.3959,-297.1081 -3.5,-461.376 -56.3249,-159.7268 -56.292,-185.9444 0.4,-332.5275 81.4829,-210.6831 101.3959,-337.48693 102.8159,-654.61791 1.06,-237.34246 -4.6342,-311.83832 -30.2142,-395.29784 -29.6519,-96.7445 -81.3521,-190.001587 -122.07,-220.189656 -32.924,-24.410476 -108.7739,2.512121 -236.1437,83.818139 -175.5699,112.073987 -218.1344,152.058577 -503.9962,473.446557 -30.4289,34.21036 -69.3617,96.14238 -86.5177,137.62674 L 1485.1,784.13043 H 1256.2654 1027.4293 L 997.32724,717.39497 C 957.7353,629.62206 812.72117,453.1507 652.71933,298.03245 514.87347,164.39519 269.5022,1.3766602 206.19827,1.3766602 Z M 2528.8239,3198.5319 c 13.5887,52.4425 26.1385,106.8481 37.1616,166.1056 29.479,158.4731 97.52,423.8078 132.347,516.1013 24.5859,65.1565 248.2269,399.5869 350.8798,524.7029 98.8019,120.4239 218.0972,367.0163 257.9972,533.3054 23.641,98.5233 31.1697,202.2297 31.8487,438.6859 1,347.5097 -18.3998,465.505 -122.5837,745.6088 -32.874,88.3809 -55.3591,165.104 -49.9691,170.495 2.5145,2.5144 5.7373,3.467 9.5317,3.0355 26.6641,-3.1145 81.7027,-74.9298 121.31,-162.1994 144.1858,-317.6917 187.8289,-583.5523 155.159,-944.9599 -21.306,-235.6839 -22.3809,-240.2406 -116.4508,-484.1472 -74.4419,-193.0155 -187.5209,-374.4745 -334.2308,-536.3626 -118.0379,-130.25 -241.4815,-372.6374 -292.4994,-574.3893 -28.757,-113.7181 -34.3889,-177.4562 -28.1239,-318.3299 1.53,-34.4752 3.2601,-61.3778 5.3201,-86.0082 -40.9797,-9.6553 -100.9914,-17.4436 -157.6974,8.3561 z M 253.83464,77.968884 A 180,180 0 0 1 433.8345,257.96875 180,180 0 0 1 382.05833,383.65514 c 91.37297,69.20289 270.57342,248.30779 307.10581,312.41917 10e-4,0.002 10e-4,0.003 0.002,0.005 C 652.63543,631.96934 473.43161,452.86719 382.05368,383.65979 a 180,180 0 0 1 -128.21904,54.30883 180,180 0 0 1 -18.73995,-1.33997 c -1.15165,5.12537 -2.33693,10.13617 -3.36258,15.7427 -1.97289,10.77998 -3.6283,22.83493 -5.15007,35.43092 -0.93345,7.72508 -1.95321,15.09947 -2.72284,23.52259 -0.6241,6.82671 -0.94227,15.04365 -1.46141,22.33559 -2.83283,39.76078 -4.55391,84.41974 -4.49429,138.59412 2e-5,0.0211 -0.001,0.0368 -0.001,0.0579 0.3,266.91793 58.35382,499.08683 124.72676,498.80933 11.60898,-0.048 49.12403,-17.4666 83.367,-38.7072 h -0.002 c 73.95093,-45.8722 189.49716,-137.77305 268.86008,-213.84067 64.31011,-61.64013 63.61532,-99.35086 -3.39204,-217.98463 67.01715,118.63783 67.715,156.34213 3.40392,217.98308 -79.36192,76.06772 -194.90966,167.97732 -268.86059,213.84942 -34.24296,21.2408 -71.7792,38.6597 -83.38819,38.7077 -66.37293,0.2775 -124.4159,-231.8963 -124.7159,-498.81393 -3e-5,-0.0238 0.002,-0.0371 0.002,-0.061 -0.0597,-54.13619 1.66483,-98.85093 4.49429,-138.59412 0.51674,-7.25271 0.8408,-15.54338 1.46141,-22.33559 0.76814,-8.40221 1.79165,-15.81503 2.72284,-23.52259 1.51957,-12.57591 3.18071,-24.66581 5.15007,-35.43092 0.98752,-5.39587 1.99173,-10.8118 3.09593,-15.76182 A 180,180 0 0 1 73.83477,257.96875 180,180 0 0 1 253.83464,77.968884 Z m -19.0066,358.640646 a 180,180 0 0 0 0.26665,0.0191 c 0.27597,-1.22817 0.52234,-2.5716 0.80564,-3.77238 -0.32369,1.37241 -0.75816,2.34507 -1.07229,3.75326 z m 1.07229,-3.75326 c 2.22547,-9.43572 4.6839,-18.03332 7.37216,-25.80463 -2.68352,7.75949 -5.15002,16.38588 -7.37216,25.80463 z m 7.37216,-25.80463 c 1.7708,-5.12035 3.58262,-10.11043 5.5609,-14.5247 -1.97288,4.40433 -3.79439,9.418 -5.5609,14.5247 z m 5.5609,-14.5247 c 3.0627,-6.83727 6.4901,-12.50077 10.06605,-17.68522 -3.5706,5.17689 -7.00734,10.86014 -10.06605,17.68522 z m 10.06605,-17.68522 c 2.20354,-3.19482 4.30833,-6.70376 6.71277,-9.28574 -2.39844,2.57749 -4.51424,6.0983 -6.71277,9.28574 z m 6.71277,-9.28574 c 4.24735,-4.56441 9.02004,-7.60738 13.91388,-10.3079 -4.88891,2.69685 -9.67031,5.751 -13.91388,10.3079 z m 13.91388,-10.3079 c 2.34288,-1.29239 4.43914,-3.27897 6.93446,-4.15478 -2.49059,0.87543 -4.59573,2.86423 -6.93446,4.15478 z m 6.93446,-4.15478 c 7.62946,-2.68173 15.85626,-3.75005 24.96282,-2.66651 -9.10507,-1.08559 -17.3345,-0.0109 -24.96282,2.66651 z m 24.96282,-2.66651 c 0.0512,0.006 0.0908,-0.0166 0.14211,-0.0103 9.74199,1.183 20.35668,4.45225 31.87867,9.70225 9.2836,4.22993 23.01788,13.73234 38.60953,25.54108 a 180,180 0 0 0 0.005,-0.005 c -15.58858,-11.80629 -29.31931,-21.30654 -38.60177,-25.53591 -11.5916,-5.28148 -22.24288,-8.52753 -32.03319,-9.69244 z m 1901.12423,-0.8015 c 0.1567,-0.0125 0.2705,0.0373 0.4264,0.0258 5.3968,-0.39767 10.2755,-0.0789 14.7794,0.89555 1.5238,0.33082 2.8404,1.14556 4.2732,1.6521 2.9469,1.04171 5.8524,2.24843 8.4511,4.09381 1.4832,1.05539 2.849,2.57153 4.2313,3.90984 2.2313,2.16072 4.4229,4.58905 6.4228,7.53855 0.905,1.33672 1.7975,3.03345 2.6609,4.54133 4.6161,8.07521 8.4772,21.18131 12.2297,34.69245 1.576,5.68931 3.4697,9.95716 4.9625,16.72043 4.6917,21.30704 9.1567,47.20899 13.8674,80.51808 11.2827,79.78333 13.0695,174.00394 7.691,265.48096 5.3749,-91.47333 3.5853,-185.6906 -7.6972,-265.47269 -4.7286,-33.43732 -9.1491,-59.17773 -13.8612,-80.52635 -1.5252,-6.92665 -3.3504,-10.91617 -4.9625,-16.72043 -3.7739,-13.62408 -7.5818,-26.57466 -12.2297,-34.69245 -0.8791,-1.53779 -1.7386,-3.18116 -2.6609,-4.54133 -2.0081,-2.96618 -4.1813,-5.36838 -6.4228,-7.53855 -1.392,-1.34795 -2.7371,-2.84877 -4.2313,-3.90984 -2.6063,-1.85462 -5.4943,-3.04846 -8.4511,-4.09381 -1.4409,-0.50932 -2.7402,-1.32043 -4.2732,-1.6521 -4.5071,-0.9785 -9.3777,-1.29287 -14.7794,-0.89555 -0.1523,0.0112 -0.2686,-0.0293 -0.4217,-0.0171 v 0.002 c -4.8666,0.40077 -10.4161,1.56593 -16.1184,2.86339 -1.2666,0.28979 -2.2686,0.30897 -3.5796,0.63872 -35.3727,8.89694 -151.0096,106.83988 -245.1954,198.81473 -50.5805,49.39506 -96.5512,97.36058 -117.0414,128.233 -33.9513,51.15349 -53.8089,94.64984 -59.2677,133.0694 -9.0966,64.03424 21.8056,113.96665 94.1193,161.74517 7.2789,4.80911 23.967,17.84314 34.0754,24.93801 38.6024,27.08949 86.3553,61.20689 130.1295,95.22049 55.237,42.9205 110.8064,78.0454 123.4814,78.0454 12.675,0 38.4978,-19.6587 57.4058,-43.6976 41.555,-52.8288 72.1704,-199.13483 81.7981,-354.39901 -9.6218,155.2626 -40.2298,301.56621 -81.7852,354.39541 -18.909,24.0387 -44.7499,43.7063 -57.4249,43.7063 -12.674,0 -68.2387,-35.1166 -123.4757,-78.037 -43.7742,-34.0136 -91.5266,-68.1398 -130.129,-95.23399 -10.1083,-7.09362 -26.7967,-20.12531 -34.0754,-24.9344 -72.3158,-47.77955 -103.2179,-97.71266 -94.1193,-161.74878 5.4579,-38.42054 25.3156,-81.91774 59.2677,-133.07301 20.4899,-30.8718 66.4606,-78.83599 117.0414,-128.22939 94.183,-91.97554 209.8149,-189.91864 245.1866,-198.81577 1.3134,-0.33031 2.3189,-0.34883 3.5884,-0.63768 5.7016,-1.30449 11.2464,-2.48572 16.1137,-2.87425 z M 444.27107,1526.0242 c 22.27434,-0.3007 51.40455,0.1065 89.48601,0.8015 253.61775,4.6279 309.52419,17.6607 393.73411,91.7856 105.68391,93.0273 173.83531,313.3567 102.87431,332.5947 -174.60279,47.3365 -373.95055,-3.1739 -513.42341,-130.0908 -62.94294,-57.2769 -144.60081,-205.1717 -144.61081,-261.9055 -0.004,-25.0077 5.11678,-32.2835 71.93979,-33.1855 z m 1526.38643,1.5058 c 92.7945,-1.3204 173.6532,1.2217 173.6437,8.6072 -0.08,59.8665 -80.5972,206.879 -150.3382,274.4913 -97.0529,94.0914 -163.3996,130.1188 -265.0535,143.9276 -41.207,5.5969 -90.4042,12.3449 -109.3272,14.9929 -18.924,2.649 -61.5031,0.2269 -94.6191,-5.3841 -53.5169,-9.066 -60.8368,-16.7209 -65.8068,-68.8429 -13.445,-140.9315 129.1068,-330.0544 266.2416,-353.2234 47.734,-8.0648 152.465,-13.2481 245.2595,-14.5686 z m -31.1221,588.3042 -25.537,49.383 c -56.6119,109.476 -232.7695,229.7704 -414.8403,283.2855 v 0 c -95.3789,28.0338 -319.201,34.7171 -438.6869,13.0984 -167.02285,-30.2204 -378.91793,-156.1659 -446.37587,-265.3161 -49.04495,-79.355 -45.106,-84.5811 33.51992,-44.4691 180.56982,92.1194 421.82805,107.5069 545.11195,34.7674 57.4409,-33.8921 57.6344,-33.8896 125.8233,1.6531 136.3659,71.0776 371.8038,54.7191 554.5946,-38.5341 z m -1298.90629,469.8674 136.80612,65.888 c 276.86577,133.3427 548.09227,149.2684 833.54497,48.9448 224.1758,-78.7879 216.4341,-78.3926 276.4881,-14.1051 86.4909,92.5889 136.3932,208.1764 136.3932,315.9275 0,87.672 -3.8183,96.7229 -51.1142,121.1807 l -51.1142,26.432 51.3292,80.9366 c 90.7619,143.1164 110.051,305.1156 53.808,451.9079 -24.0989,62.8952 -39.1731,79.0147 -80.7811,86.3797 -56.0219,9.9155 -55.0298,3.1701 -31.9319,217.1035 7.517,69.6127 0.4998,110.7317 -33.0822,193.8725 -37.238,92.192 -153.763,286.2873 -187.032,311.5375 -30.62,23.2397 -208.8611,279.4203 -274.701,394.8183 -93.335,163.5905 -103.9776,274.3808 -49.5867,516.1804 43.261,192.3178 74.8597,582.1321 60.0088,740.2809 -13.132,139.8449 -49.6001,273.6582 -96.0221,352.3371 v 0 c -19.647,33.299 -37.3907,60.5447 -39.4307,60.5447 -2.04,0 -0.3803,-129.6708 3.6897,-288.1566 10.968,-426.9266 -32.4561,-747.7804 -145.42,-1074.4771 -36.686,-106.1006 -54.7548,-135.897 -90.4338,-149.1319 -112.14887,-41.6023 -216.60314,-131.1204 -259.62909,-222.5048 -32.51197,-69.0509 -54.13388,-93.6356 -88.58685,-100.7236 -65.63393,-13.5022 -162.08544,-98.9111 -216.79038,-191.9712 -41.36996,-70.3733 -46.90983,-96.6095 -44.25983,-209.4745 2.842,-120.9247 -0.10218,-132.2898 -46.88913,-181.0205 -61.32594,-63.8745 -119.73071,-227.3523 -119.13071,-333.4732 0.244,-43.4628 18.72315,-132.6779 41.06312,-198.2556 l 40.61975,-119.2325 -34.1111,-78.6066 c -26.40397,-60.9787 -32.29409,-103.6817 -26.0041,-190.4276 15.10699,-208.3494 101.86365,-386.0312 283.34447,-580.3073 z M 471.08184,4997.9849 c 0.002,5e-4 0.005,0 0.007,0 4.94696,1.4514 10.26973,5.602 15.96285,11.8804 1.83471,2.0248 3.98438,5.6154 5.92057,8.1964 3.74714,4.9962 7.69165,10.7722 11.88299,17.9994 9.96232,17.1929 22.35246,44.7561 35.62935,76.3954 12.17834,29.06 27.70811,70.5496 43.58235,113.8313 7.59149,20.7031 14.04489,36.7558 22.62756,61.0448 25.89537,73.3121 56.05163,161.6337 92.6884,271.508 0.74032,2.2202 1.12235,3.2341 1.86759,5.4705 28.21737,84.6766 52.15645,187.9765 71.9832,293.503 27.88603,148.3937 46.39975,302.1823 46.39975,423.4429 v 169.2961 l -68.82163,79.5062 c -4.32618,4.9982 -6.62035,8.3388 -10.43193,12.8788 -48.53441,57.8213 -58.38248,82.8855 -58.38248,148.1579 0,17.1864 2.32584,33.2793 4.6483,48.7862 3.74304,24.9557 9.00563,46.392 16.0078,53.3942 18.94097,18.9422 -41.44909,23.1219 -105.27574,16.6961 -35.94924,-3.6172 -72.59159,-9.6753 -97.74132,-20.6236 -49.09632,-21.3727 -72.26509,-62.8541 -75.43984,-107.6218 -4.7571,-67.0232 35.88242,-141.5123 106.07983,-167.7252 -70.19301,26.2167 -110.83271,100.704 -106.07983,167.7252 3.17737,44.7662 26.34811,86.2467 75.44397,107.6193 25.14794,10.9479 61.7885,17.0069 97.73719,20.6261 63.82071,6.4216 124.20076,2.2378 105.26386,-16.7023 -7.00239,-7.0024 -12.25874,-28.4351 -15.99592,-53.388 -2.32629,-15.5099 -4.65605,-31.606 -4.65605,-48.7929 0,-65.2726 9.84819,-90.3311 58.39023,-148.1512 3.81117,-4.5404 6.10517,-7.8813 10.43089,-12.8798 l 68.81389,-79.5073 v -169.278 c 0,-121.2632 -18.50898,-275.059 -46.39097,-423.4589 -19.83039,-105.5262 -43.77294,-208.8259 -71.99095,-293.5041 -0.72561,-2.1774 -1.1389,-3.3073 -1.85984,-5.4694 -36.74274,-110.19 -66.74626,-198.0917 -92.6884,-271.508 -8.74373,-24.7543 -14.91027,-40.0034 -22.62756,-61.0448 -16.04445,-43.7558 -31.30507,-84.5742 -43.58235,-113.8313 -13.40523,-31.9877 -25.59389,-59.0909 -35.62935,-76.3954 -4.21494,-7.2741 -8.11697,-12.9791 -11.88299,-17.9994 -1.94475,-2.593 -4.07816,-6.1646 -5.92057,-8.1964 -5.69869,-6.289 -11.01209,-10.4255 -15.96285,-11.8799 v 0 c -4.79893,-1.4105 -9.30087,-0.2109 -13.7263,2.1838 -0.42185,0.2286 -0.88794,-0.051 -1.30793,0.2088 -26.44597,16.3447 -16.02223,87.8739 35.37872,242.7479 14.19401,42.7678 36.83404,122.4876 57.84453,192.5413 19.93019,66.4346 38.15669,122.7243 54.86797,182.5971 21.96095,78.6789 42.22211,146.8808 63.58992,220.092 12.04026,41.2434 28.49572,100.1218 35.82985,123.9898 25.12798,81.7749 37.26705,167.7662 37.82405,267.9341 0.27695,46.9753 -0.78949,77.0348 -3.11195,102.1746 -4.3829,47.4808 -15.2649,70.5442 -44.24226,108.5722 -39.45396,51.7729 -59.19776,63.2282 -108.86571,63.2282 -9.90074,0 -19.44547,0.8754 -28.60549,2.5316 9.16365,-1.6576 18.71144,-2.5347 28.61634,-2.5347 49.66795,0 69.39004,-11.4568 108.844,-63.2298 28.98006,-38.0287 39.86697,-61.089 44.25312,-108.5675 2.32075,-25.1412 3.38581,-55.2022 3.10885,-102.1777 -0.557,-100.1679 -12.69814,-186.154 -37.82611,-267.9289 -7.33392,-23.8673 -23.78682,-82.7473 -35.82469,-123.9919 -21.37107,-73.2057 -41.63618,-141.3998 -63.59612,-220.0781 -16.71161,-59.874 -34.93486,-116.1703 -54.86177,-182.611 -21.01476,-70.05 -43.65904,-149.7659 -57.85331,-192.534 -51.39995,-154.874 -61.82676,-226.4094 -35.38079,-242.7542 0.42303,-0.2616 0.8936,0.02 1.31878,-0.2098 4.42504,-2.3981 8.91463,-3.5998 13.71958,-2.19 z m 2137.05096,80.9201 c 17.6051,-0.6114 34.9274,0.2382 53.5761,1.9714 -18.6428,-1.7309 -35.9603,-2.5787 -53.5627,-1.9673 -33.2016,1.153 -70.5842,7.4351 -120.6603,17.6398 -6.9113,1.4086 -11.6403,2.0664 -19.1647,3.6576 -43.3467,9.1668 -83.8336,19.5242 -121.6246,31.2193 -264.5509,81.8727 -396.9477,229.3269 -452.8773,493.1952 -48.984,231.0978 -22.1829,550.6922 70.914,845.3929 41.903,132.6478 42.8847,143.7089 17.3628,197.4939 -38.86,81.8899 -34.1928,150.9022 13.2302,195.4542 67.2979,63.2219 255.7401,79.0736 403.38,33.9447 24.3367,-7.4391 39.3957,-14.6483 44.8247,-27.6567 9.0406,-21.6878 -8.6787,-59.4939 -54.8096,-141.3501 -41.4105,-73.4809 -79.0877,-121.9157 -118.7447,-150.7742 39.6596,28.8563 77.3419,77.2855 118.7498,150.7623 46.1379,81.8697 63.8551,119.6753 54.8045,141.362 -5.4253,13.0148 -20.4869,20.2259 -44.8299,27.667 h -0.01 c -147.6398,45.129 -336.081,29.2648 -403.379,-33.9581 -47.4229,-44.552 -52.0959,-113.5493 -13.2369,-195.4382 25.523,-53.786 24.5505,-64.8512 -17.3524,-197.4991 -93.0969,-294.7017 -119.9089,-614.2941 -70.9249,-845.3928 55.9306,-263.8729 188.3347,-411.3302 452.8954,-493.203 37.7905,-11.6953 78.2784,-22.0522 121.6246,-31.2193 0,0 0.01,0 0.014,0 7.519,-1.59 12.2441,-2.2466 19.1508,-3.654 50.0689,-10.2045 87.449,-16.4911 120.6469,-17.6439 z m 57.4869,2.1156 c 20.2593,2.0356 42.4422,5.3742 69.0315,9.9338 67.6059,11.5931 142.1382,33.6563 165.6162,49.0399 20.3346,13.3239 30.5969,20.4751 31.7573,25.8692 1.1735,5.3939 -6.7555,9.0291 -22.8353,15.3164 -18.569,7.261 -67.0711,13.711 -107.7821,14.411 -40.711,0.664 -129.7382,13.7601 -197.8391,29.101 -193.8335,43.665 -356.2424,129.7055 -465.7095,240.7006 -45.9112,46.5544 -83.4775,97.0349 -108.5893,151.3665 -44.9089,97.1639 -48.4089,120.297 -48.4089,319.7908 0,96.6553 2.4097,156.901 9.4377,208.1868 5.9969,43.7354 15.2247,81.1148 30.5598,127.2744 70.653,212.6687 101.7214,261.5347 173.5843,273.0257 0,-6e-4 -0.01,0 -0.01,0 -71.863,-11.491 -102.9262,-60.3502 -173.5801,-273.02 -15.3352,-46.1607 -24.5607,-83.5405 -30.5542,-127.278 -7.0324,-51.2868 -9.447,-111.5332 -9.447,-208.192 0,-199.4938 3.5,-222.6151 48.4099,-319.781 25.1124,-54.333 62.6822,-104.8149 108.5976,-151.3711 109.4622,-110.9959 271.8643,-197.0347 465.6997,-240.6995 68.1009,-15.341 157.1369,-28.4423 197.8468,-29.1073 40.711,-0.7 89.2121,-7.1501 107.7821,-14.4141 16.0692,-6.2833 23.9967,-9.9185 22.8374,-15.3081 -1.1731,-5.3916 -11.4413,-12.5404 -31.7656,-25.8558 -23.4789,-15.3836 -98.003,-37.4562 -165.609,-49.0492 -26.5859,-4.5591 -48.7701,-7.9003 -69.0304,-9.9379 z M 1010.9032,6539.4908 v 0 c 55.4439,-1.402 111.05,4.3988 140.996,18.0428 26.5951,12.1178 55.9902,52.492 75.8052,94.5234 12.4877,26.4818 22.0017,53.5088 22.0017,74.8967 0,51.974 -96.4238,121.304 -169.0527,121.604 h -10e-4 c -34.756,0.13 -78.6752,3.3802 -97.59923,7.2202 -53.07692,10.771 -150.64325,-18.2961 -175.49523,-52.2831 -8.38327,-11.465 -13.49005,-29.6105 -17.02428,-49.521 -7.75395,-43.6547 -4.53263,-98.6251 12.38839,-130.2412 9.74199,-18.2039 40.33039,-44.8041 67.96536,-59.0951 29.28097,-15.1419 84.5687,-23.7398 140.01269,-25.1498 z m -220.36644,214.4861 c 3.53579,19.9064 8.64444,38.0479 17.02842,49.5117 24.85197,33.986 122.4193,63.0614 175.49523,52.2914 18.92399,-3.84 62.84379,-7.1001 97.59969,-7.2301 72.63,-0.3 169.044,-69.616 169.044,-121.591 0,-21.3875 -9.5117,-48.4159 -21.9966,-74.8988 -19.8194,-42.0294 -49.22,-82.401 -75.815,-94.5182 -59.891,-27.288 -222.43905,-23.1779 -281.00199,7.1101 -27.63497,14.291 -58.21717,40.8777 -67.95916,59.0806 -16.92023,31.6153 -20.14398,86.5872 -12.39459,130.2443 z m 802.87084,-211.6393 c 0.2249,0.01 0.4336,0.068 0.6584,0.074 17.425,0.4498 34.4333,2.5372 51.0057,5.7423 5.6091,1.0844 10.8173,2.8852 16.2956,4.2643 10.9582,2.7574 21.759,5.6741 32.0932,9.5467 6.0167,2.254 11.5831,4.9847 17.3524,7.5939 9.1347,4.1292 17.9942,8.4513 26.4232,13.4167 5.5436,3.2648 10.7222,6.743 15.923,10.3457 7.7736,5.382 15.0454,11.0623 21.9703,17.1462 4.6262,4.0633 9.0905,8.1196 13.301,12.4726 6.4422,6.6567 12.0605,13.7069 17.4423,20.9858 3.3661,4.5514 6.8838,8.9359 9.8015,13.7093 5.0882,8.3199 8.925,17.1029 12.5424,26.0289 1.7649,4.3536 4.0782,8.4563 5.4689,12.9387 4.2383,13.6553 7.0267,27.7693 7.491,42.43 0.7982,25.2027 -0.9583,40.6439 -7.0383,53.6882 6.0796,-13.0443 7.8345,-28.4853 7.0362,-53.6898 -0.465,-14.652 -3.2546,-28.7803 -7.4889,-42.4284 -1.3873,-4.4697 -3.7094,-8.5971 -5.4689,-12.9387 -3.6115,-8.9088 -7.4659,-17.7238 -12.5424,-26.0289 -2.9068,-4.7531 -6.45,-9.1764 -9.8015,-13.7093 -5.3674,-7.2575 -11.0207,-14.3468 -17.4423,-20.9858 -4.1911,-4.3305 -8.6984,-8.4289 -13.301,-12.4726 -6.9033,-6.0634 -14.2238,-11.7802 -21.9703,-17.1462 -5.1757,-3.5835 -10.4079,-7.0967 -15.923,-10.3457 -8.405,-4.9499 -17.3166,-9.2982 -26.4232,-13.4167 -5.7447,-2.5968 -11.3625,-5.3492 -17.3524,-7.5939 -10.3141,-3.8637 -21.1576,-6.7938 -32.0932,-9.5467 -5.4619,-1.3743 -10.7037,-3.1828 -16.2956,-4.2643 -16.5637,-3.2022 -33.5902,-5.2927 -51.0057,-5.7423 -0.2241,-0.01 -0.4346,-0.061 -0.6589,-0.067 v 0 c -18.7259,-0.4 -37.8177,0.8002 -57.0027,3.8602 -89.1726,14.2595 -157.2907,67.5872 -185.8631,139.9011 -4.7604,12.0503 -8.424,24.6272 -10.9027,37.639 -2.4791,13.0145 -3.774,26.4635 -3.7992,40.2539 -0.049,27.573 1.6834,43.8082 10.6117,56.2549 1.5218,2.1215 4.6691,3.7788 6.6358,5.7175 9.5743,9.4341 23.3201,17.5001 47.1604,27.8025 57.2729,24.7492 115.8093,36.9046 173.129,37.8778 70.3812,1.1923 138.8936,-14.8114 200.5449,-49.197 15.677,-8.7438 27.8347,-15.9167 37.2241,-22.6736 9.3891,-6.7567 16.0103,-13.0972 20.6137,-20.176 -4.6035,7.0789 -11.2253,13.4196 -20.6137,20.176 -9.3908,6.7581 -21.549,13.9324 -37.2288,22.6777 -61.6517,34.3862 -130.1615,50.3877 -200.5402,49.1929 -57.3238,-0.9712 -115.8643,-13.125 -173.1383,-37.8747 -23.8368,-10.3015 -37.5791,-18.3698 -47.1511,-27.8056 -1.9671,-1.9383 -5.1136,-3.5963 -6.6358,-5.7175 -8.9291,-12.4426 -10.6648,-28.6731 -10.6158,-56.243 0.025,-13.7948 1.3226,-27.2475 3.8033,-40.2658 2.4795,-13.0115 6.1416,-25.589 10.9027,-37.639 28.5697,-72.3194 96.6898,-125.6522 185.8662,-139.9124 19.1854,-3.0679 38.2747,-4.295 57.0001,-3.852 z m 613.328,5.6674 c 4.5636,1.0801 9.2194,1.8403 13.6803,3.3036 7.6627,2.5135 15.147,5.7909 22.5604,9.4863 -7.4138,-3.6954 -14.8977,-6.9726 -22.5604,-9.4863 -4.4608,-1.4632 -9.1166,-2.2237 -13.6803,-3.3036 z m 38.6214,13.7914 c 4.6571,2.4094 9.1974,5.6259 13.7806,8.5281 3.4607,2.1913 6.9783,3.9607 10.4055,6.441 -3.4271,-2.4806 -6.9448,-4.2494 -10.4055,-6.441 -4.5832,-2.9019 -9.1236,-6.1189 -13.7806,-8.5281 z" /><path
     id="FMask"
     style="display:inline;fill:#000000;stroke:#000000;stroke-width:0;stroke-dasharray:none"
     d="m 444.2753,1526.0257 c -66.823,0.9 -71.95,8.184 -71.947,33.1889 0.01,56.7337 81.681,204.6292 144.624,261.9062 139.473,126.917 338.802,177.4205 513.405,130.0839 70.96,-19.238 2.81,-239.5658 -102.867,-332.5933 -84.21,-74.125 -140.112,-87.1512 -393.729,-91.7791 -38.082,-0.7 -67.212,-1.107 -89.486,-0.8 z m 1526.38,1.512 c -92.795,1.322 -197.515,6.501 -245.249,14.5657 -137.136,23.169 -279.686,212.2752 -266.241,353.207 4.97,52.1215 12.281,59.7811 65.798,68.8471 33.116,5.61 75.703,8.041 94.627,5.392 18.923,-2.648 68.112,-9.397 109.319,-14.994 101.654,-13.8089 168.003,-49.8271 265.056,-143.9186 69.741,-67.6124 150.265,-214.6403 150.345,-274.5068 0.01,-7.385 -80.861,-9.913 -173.655,-8.593 z m -31.123,588.2999 -66.377,33.8691 c -182.792,93.2533 -418.242,109.6087 -554.607,38.5311 -68.19,-35.5427 -68.385,-35.5549 -125.826,-1.663 -123.284,72.7396 -364.537,57.3682 -545.106,-34.7513 -78.626,-40.112 -82.561,-34.9019 -33.517,44.4532 67.459,109.1503 279.35,235.113 446.373,265.3335 119.485,21.6187 343.307,14.93 438.686,-13.1038 182.07,-53.5152 358.234,-173.8256 414.846,-283.3016 z m 676.892,4404.7772 c -252,-48.48 -403.325,-257.747 -403.325,-557.759 0,-103.249 8.56,-141.074 51.092,-225.703 91.098,-181.268 276.715,-299.514 470.149,-299.503 58.703,0 290.177,41.134 347.529,61.754 72.686,26.132 249.45,164.281 249.45,194.957 0,44.006 -80.194,355.311 -101.051,392.268 -14.705,26.058 -22.809,17.901 -55.095,-55.466 -65.652,-149.186 -154.959,-261.696 -248.134,-312.606 -70.003,-38.248 -113.243,-48.218 -232.246,-53.547 -141.185,-6.32 -148.685,-4.72 -217.417,46.548 -91.438,68.2 -131.855,153.455 -140.576,296.53 -7.97,130.678 14.894,216.184 77.779,290.92 100.348,119.255 308.822,161 391.439,78.383 70.284,-70.283 79.067,-255.136 16.651,-350.397 -69.101,-105.46 -196.69,-75.966 -196.69,45.468 0,83.362 38.025,121.691 89.09,89.8 45.427,-28.369 58.828,-12.518 38.527,45.572 -23.518,67.295 -104.542,72.77 -176.825,11.948 -46.915,-39.477 -54.012,-56.443 -54.012,-129.126 0,-151.472 64.639,-222.924 201.667,-222.924 247.01,0 331.436,461.3 110.999,606.493 -79.656,52.465 -130.948,63.329 -219.001,46.39 z m -1607.562,-147.034 c -14.19302,-4.99 -62.578,-25.399 -107.521,-45.358 l -81.717,-36.289 v -92.926 -92.927 l 41.322,32.503 c 22.725,17.877 84.945,42.968 138.26498,55.76 90.12102,21.619 103.28102,20.631 186.95602,-14.051 49.507,-20.519 96.092,-37.307 103.525,-37.307 7.43,0 11.152,36.059 8.27,80.131 -4.72,72.045 -11.32,83.255 -65.456,111.085 -65.018,33.424 -181.987,54.021 -223.643,39.379 z m -744.638,-56.915 c -38.605,-65.353 -37.566,-70.461 14.348,-70.461 86.91,0 182.224,-73.726 237.981,-184.082 93.252,-184.567 -45.161,-499.774 -243.671,-554.905 -82.3,-22.858 -134.945,-22.623 -178.705998,0.8 -33.44,17.897 -34.516,15.33 -23.417,-55.911 21.765,-139.703 21.979,-139.974 100.474998,-127.422 85.588,13.686 204.179,64.472 291.749,124.937 44.977,31.056 83.243,82.199 124.899,166.929 51.325,104.397 60.658,142.167 64.184,259.784 3.61,120.359 -1.84,149.778 -43.449,234.465 -57.185,116.405 -118.17,181.166 -210.476,223.508 -91.201,41.837 -99.423,40.755 -133.917,-17.641 z m 1320.951,34.027 c -117.556,-28.276 -154.505,-57.766 -160.278,-127.923 -8.98,-109.151 3.58,-120.321 77.975,-69.346 57.585,39.455 77.511,43.641 172.616,36.267 59.135,-4.59 127.545,-21.459 152.023,-37.497 52.729,-34.55 52.502,-34.696 66.999,42.941 13.35,71.483 -18.324,109.144 -123.26,146.569 -72.348,25.803 -108.843,27.566 -186.075,8.99 z m -1398.635,-279.962 c -36.935,-36.935 -23.939,-67.02 26.665,-61.723 38.311,4.01 48.395,-2.72 53.02,-35.389 14.632,-103.35 -70.906,-183.663 -150.337,-141.152 -27.853998,14.907 -36.062998,14.264 -36.244998,-2.84 -0.1,-12.16 -4.7,-38.731 -10.145,-59.045 -8.63,-32.153 -1,-38.454 59.561998,-48.672 87.357,-14.759 151.256,14.211 203.925,92.452 50.036,74.329 51.574,170.813 3.69,231.683 -38.36,48.767 -113.674,61.15 -150.14,24.684 z m 779.31298,-64.113 c -28.38598,-6.83 -79.98198,-31.04 -114.66098,-53.796 -54.686,-35.884 -65.686,-54.768 -82.91,-142.32 -10.923,-55.52 -15.81,-104.998 -10.858,-109.949 4.95,-4.95 40.91,16.267 79.908,47.154 130.85398,103.638 254.957,126.744 368.858,68.674 36.837,-18.781 68.565,-32.328 70.507,-30.106 1.94,2.22 8.85,43.612 15.362,91.976 l 11.833,87.935 -70.448,28.188 c -72.745,29.107 -177.596,33.904 -267.59102,12.244 z m 524.70302,-48.596 c -57.348,-28.648 -60.46,-34.871 -65.425,-130.82 l -5.21,-100.741 53.329,37.974 c 97.428,69.375 284.172,60.079 362.285,-18.035 33.197,-33.197 33.5,-32.56 33.5,70.562 v 104.061 l -73.115,33.188 c -91.686,41.618 -226.315,43.298 -305.359,3.81 z m 9.11,-366.58 c -96.104,-47.938 -100.441,-54.454 -131.904,-198.142 l -28.173,-128.662 79.374,65 79.374,65.001 h 163.842 c 149.683,0 174.206,-4.91 283.799,-56.803 108.605,-51.426 116.406,-53.021 82.428,-16.852 -20.642,21.972 -60.759,91.179 -89.15,153.793 -41.874,92.351 -61.981,117.456 -106.5,132.975 -87.978,30.67 -255.337,22.475 -333.09,-16.31 z m -570.223,1.92 c -29.485,-7.04 -100.28,-41.149 -157.322,-75.801 -81.854,-49.724 -110.016,-78.38 -133.628,-135.969 -42.767,-104.316 -76.982,-219.197 -65.282,-219.197 5.49,0 40.97,27.984 78.828,62.188 138.062,124.73 310.386,174.059 486.044,139.133 l 69.012,-13.722 21.305,91.641 c 29.762,128.012 30.001,127.367 -55.125,148.802 -84.715,21.332 -162.809,22.269 -243.832,2.93 z m 2645.117,-189.572 c -90.737,-22.261 -107.377,-50.861 -121.664,-209.121 -7.15,-79.2532 -12.195,-145.4689 -11.2,-147.1468 1,-1.678 44.304,11.8543 96.243,30.0726 68.732,24.1086 117.846,30.2531 180.452,22.5746 99.999,-12.264 136.405,-28.3719 204.333,-90.4059 l 31.761,-27.9732 -4.11,108.5274 c -2.72,71.8193 -11.479,217.0603 -111.37,266.0513 -107.755,52.848 -185.5,66.789 -264.448,47.421 z m -269.439,-116.192 c -18.71,-35.219 -82.467,-115.58 -141.683,-178.5792 -118.461,-126.0314 -207.44,-174.0031 -397.436,-214.274 -168.093,-35.6286 -279.819,-30.7062 -427.386,18.8308 -71.498,24.0008 -133.211,40.4226 -137.141,36.4921 -12.068,-12.067 170.427,-150.1962 252.468,-191.0914 114.742,-57.1966 273.569,-84.9726 412.209,-72.0873 147.799,13.737 188.845,28.7772 321.106,117.6621 97.584,65.5798 106.745,77.3181 123.635,158.4248 18.981,91.1384 45.375,388.6561 34.481,388.6561 -3.42,0 -21.543,-28.815 -40.253,-64.034 z m 92.691,-480.7472 c -16.053,-4.271 -44.493,-53.2534 -66.269,-114.1275 -20.982,-58.6527 -56.442,-138.5242 -78.799,-177.4913 -22.356,-38.967 -35.759,-75.7391 -29.781,-81.7158 5.98,-5.976 50.176,-10.8669 98.221,-10.8669 74.133,0 103.375,-10.8634 193.198,-71.7745 99.017,-67.1466 161.001,-148.6289 161.001,-211.6495 0,-110.4748 144.103,89.1789 213.639,295.9933 l 44.348,131.9014 -44.372,64.0291 c -52.624,75.9368 -147.875,142.4627 -240.992,168.3167 -66.034,18.3343 -194.782,22.1346 -250.194,7.385 z M 2050.0853,4680.7 c 25.551,-87.2371 80.688,-175.9508 159.517,-256.6552 184.15,-188.5357 411.625,-292.3623 587.534,-268.1682 71.117,9.781 86.92,19.6647 119.132,74.5121 20.425,34.7791 69.254,100.02 108.508,144.9794 39.255,44.9588 67.983,85.1328 63.842,89.2745 -4.14,4.14 -53.805,-11.3176 -110.362,-34.3548 -116.747,-47.5557 -211.484,-52.0899 -360.88,-17.2723 -217.155,50.6093 -415.778,145.0968 -514.579,244.7929 -58.46,58.9889 -63.988,61.3897 -52.712,22.8916 z m 25.385,-500.4417 c 0,-101.6272 48.469,-211.7075 136.903,-310.9282 94.92,-106.4975 257.945,-202.3519 354.281,-208.3076 62.008,-3.833 64.043,-1.995 88.293,79.7471 31.23,105.2701 21.381,131.2641 -49.932,131.78 -136.141,0.98 -387.335,159.5679 -488.444,308.3627 l -41.101,60.4867 z m 901.989,-61.7995 c -34.144,-6.76 -138.489,-163.121 -176.942,-265.1458 l -16.822,-44.6326 124.253,7.974 c 105.133,6.747 136.013,1.975 200.695,-31.0211 42.045,-21.4476 102.084,-66.8829 133.42,-100.968 51.918,-56.4709 58.535,-59.2081 74.548,-30.8329 9.66,17.1269 39.87,56.5347 67.121,87.572 45.456,51.7719 48.073,61.7751 31.683,121.1321 -44.292,160.411 -266.001,289.9683 -437.956,255.9226 z M 219.1693,2222.6507 c -53.254,-9.676 -62.181,-20.3645 -98.687,-118.1588 -22.074998,-59.1369 -33.978998,-107.521 -26.454998,-107.521 7.529998,0 59.673998,27.8235 115.888998,61.8301 56.215,34.0068 131.239,73.5551 166.721,87.8848 72.347,29.2183 80.016,47.2181 31.237,73.3233 -35.517,19.0083 -94.111,19.8285 -188.705,2.643 z m 1886.408,3.306 c -60.998,-15.9404 -25.317,-50.5088 144.705,-140.1949 95.759,-50.5131 170.273,-81.4792 165.587,-68.8139 -4.69,12.6659 -21.548,62.6583 -37.467,111.0951 -28.272,86.0174 -30.788,88.3186 -108.128,98.9193 -84.795,11.6223 -117.13,11.4249 -164.697,-1.002 z M 338.8903,1977.7931 c -60.974,-28.0679 -146.931,-78.5397 -191.015,-112.1591 -79.459998,-60.5964 -80.035998,-61.7654 -66.390998,-134.8044 7.57,-40.5227 24.052998,-98.8901 36.626998,-129.7054 l 22.861,-56.0281 66.74,109.813 c 36.706,60.3975 111.988,161.4098 167.292,224.4718 92.362,105.3193 120.661,153.9806 87.65,150.7191 -7.1,-0.7 -62.791,-24.2389 -123.764,-52.3069 z m 1694.436,37.7737 c -4.06,-6.573 41.393,-68.433 101.014,-137.4668 59.619,-69.0335 134.632,-171.0855 166.693,-226.7816 32.062,-55.6959 62.83,-101.3492 68.376,-101.4521 11.378,-0.19 67.333,191.955 67.333,231.2425 0,56.7996 -377.59,276.2477 -403.416,234.458 z m -788.821,-408.8287 c -4.76,-7.726 -14.013,-52.7545 -20.567,-100.0639 -6.56,-47.3094 -22.397,-128.5951 -35.201,-180.6356 -37.599,-152.8077 -48.477,-343.02256 -25.848,-452.02246 l 20.267,-94.3636 h 74.213 74.213 l 13.094,94.7975 c 19.054,145.95166 11.76,245.13346 -37.01,503.19906 -45.472,240.6166 -48.749,252.4969 -63.161,229.089 z m -216.336,-134.703 c -86.378,-98.3785 -109.996,-158.2474 -101.733,-257.8826 7.78,-93.799 66.34398,-229.59606 92.713,-214.97796 8.53,4.73096 12.962,47.53876 9.84,95.12856 -4.73,72.0041 31.157,264.6741 75.997,408.07 15.174,48.5231 -19.652,34.7688 -76.815,-30.338 z m 376.37,45.9926 c 0,-7.948 16.033,-75.6864 35.629,-150.5297 19.597,-74.8429 36.34,-192.2038 37.209,-260.8024 0.9,-68.5984 8.5,-124.72446 16.948,-124.72446 23.328,0 81.132,141.88866 92.96,228.18316 12.296,89.7108 -19.443,169.5458 -104.19,262.0666 -54.729,59.7499 -78.556,73.6442 -78.556,45.8068 z m -640.925,-115.0529 c -80.056,-54.3988 -98.253,-115.2615 -52.705,-176.2686 50.236,-67.2861 68.54,-64.0735 81.061,14.2288 6.25,39.0817 26.798,101.3132 45.663,138.2925 41.29,80.9337 20.129,87.7223 -74.019,23.7473 z m 881.772,34.2003 c 0,-5.107 15.484,-39.6361 34.408,-76.7296 18.923,-37.0934 34.406,-90.5189 34.406,-118.723 0,-66.9642 24.667,-80.2538 68.187,-36.7349 68.152,68.1536 33.823,163.5203 -79.959,222.1213 -41.47,21.3593 -57.042,24.1067 -57.042,10.0656 z" /><path
     id="FSilkS"
     style="display:inline;fill:#000000;fill-opacity:1;stroke:#000000;stroke-width:0;stroke-dasharray:none"
     d="m 640.6353,2585.6968 -48.964,52.4165 c -181.481,194.2764 -268.219,371.9373 -283.326,580.2864 -6.29,86.746 -0.4,129.4597 25.981,190.4385 l 34.121,78.5997 -40.622,119.2477 c -22.341,65.5778 -40.807,154.7875 -41.052,198.2502 -0.6,106.121 57.795,269.601 119.122,333.475 46.786,48.7308 49.739,60.0893 46.897,181.0135 -2.65,112.8653 2.88,139.1167 44.252,209.4897 54.706,93.0602 151.164,178.4485 216.798,191.9507 34.454,7.088 56.067,31.6747 88.579,100.7256 43.026,91.3841 147.489,180.9161 259.638,222.5179 35.679,13.2349 53.732,43.035 90.419,149.1356 112.963,326.697 156.398,647.536 145.431,1074.464 -4.07,158.485 -5.75,288.165 -3.71,288.165 2.04,0 19.792,-27.257 39.439,-60.557 46.422,-78.679 82.881,-212.48 96.013,-352.325 14.851,-158.15 -16.741,-547.965 -60.002,-740.283 -54.391,-241.7994 -43.741,-352.5863 49.594,-516.1765 65.84,-115.3981 244.063,-371.5983 274.683,-394.838 33.269,-25.2503 149.799,-219.3335 187.036,-311.5256 33.583,-83.1408 40.605,-124.253 33.089,-193.8653 -23.099,-213.9337 -24.094,-207.185 31.928,-217.1005 41.608,-7.364 56.694,-23.4913 80.792,-86.3866 56.243,-146.7919 36.959,-308.8001 -53.802,-451.9161 l -51.333,-80.9433 51.106,-26.41 c 47.296,-24.4578 51.106,-33.516 51.106,-121.188 0,-107.7513 -49.893,-223.3465 -136.384,-315.9355 -60.054,-64.2876 -52.321,-64.6757 -276.497,14.1122 -285.452,100.3233 -556.659,84.4038 -833.524,-48.9391 z m 1888.155,612.8451 c 13.588,52.4404 26.122,106.8403 37.145,166.0952 29.48,158.4727 97.525,423.8077 132.352,516.1012 24.586,65.1566 248.236,399.5786 350.889,524.6947 98.802,120.4239 218.099,367.0241 258,533.313 23.64,98.5233 31.173,202.23 31.853,438.6868 1,347.509 -18.416,465.496 -122.6,745.6 -32.873,88.381 -55.362,165.114 -49.971,170.505 20.169,20.169 85.613,-59.405 130.889,-159.165 144.186,-317.692 187.829,-583.552 155.159,-944.96 -21.306,-235.6841 -22.381,-240.2403 -116.451,-484.1472 -74.442,-193.0157 -187.521,-374.474 -334.231,-536.3623 -118.038,-130.2501 -241.481,-372.6375 -292.499,-574.3896 -28.757,-113.7182 -34.389,-177.4561 -28.124,-318.3299 1.53,-34.4752 3.26,-61.3777 5.32,-86.0081 -40.987,-9.657 -101.013,-17.4503 -157.728,8.366 z M 2212.5523,347.63614 c -5.95,0.49 -12.494,1.687 -19.707,3.501 -54.368,13.6753 -303.584,238.6909 -362.228,327.0491 -90.54,136.4141 -80.851,218.3723 34.852,294.8181 35.075,23.1743 108.968,77.23426 164.205,120.15466 55.237,42.9205 110.806,78.0453 123.481,78.0453 12.675,0 38.498,-19.6584 57.406,-43.6973 66.488,-84.5262 104.97,-408.35386 74.291,-625.29396 -17.613,-124.5422 -30.659,-157.9021 -72.3,-154.5788 z m -1900.982,0.78 c -68.192,-8.282 -93.936,85.9916 -93.669,323.8994 0.3,266.9179 58.343,499.09126 124.716,498.81376 11.609,-0.048 49.145,-17.4668 83.388,-38.7076 73.951,-45.8722 189.499,-137.78146 268.861,-213.84926 65.257,-62.5476 64.304,-99.6484 -5.7,-222.4935 -42.764,-75.0486 -282.03,-308.9401 -345.722,-337.9604 -11.522,-5.25 -22.137,-8.519 -31.879,-9.702 z m 159.518,4649.57476 c -5.26,-1.546 -10.219,-0.59 -15.045,2.394 -26.446,16.3448 -16.019,87.8798 35.381,242.7549 27.656,83.329 78.389,252.127 112.721,375.131 34.333,123.004 79.063,277.851 99.415,344.084 25.128,81.775 37.269,167.761 37.826,267.929 0.8,135.692 -3.03,152.586 -47.351,210.75 -39.454,51.773 -59.198,63.228 -108.866,63.228 -158.412,0 -225.641,224.096 -85.529,285.09 69.798,30.386 232.622,33.541 203.013,3.93 -11.354,-11.354 -20.664,-57.346 -20.664,-102.187 0,-70.398 9.4,-92.378 68.822,-161.03 l 68.822,-79.506 v -169.296 c 0,-207.492 -50.492,-513.192 -118.391,-716.947 -140.62,-421.9794 -193.313,-555.5174 -230.154,-566.3263 z m 2137.058,80.9181 c -37.781,1.312 -77.777,8.176 -139.811,21.2939 -346.8,73.3399 -510.596,222.8519 -574.516,524.4179 -48.984,231.098 -22.183,550.692 70.914,845.393 41.903,132.648 42.885,143.709 17.363,197.494 -38.86,81.89 -34.193,150.902 13.23,195.454 67.298,63.222 255.74,79.074 403.38,33.945 64.909,-19.841 63.833,-38.041 -9.98,-169.019 -66.499,-118 -123.379,-171.513 -194.294,-182.853 -71.863,-11.491 -102.926,-60.35 -173.58,-273.02 -33.317,-100.288 -39.992,-156.38 -39.992,-335.465 0,-199.494 3.5,-222.627 48.409,-319.791 84.984,-183.87 299.154,-330.087 574.289,-392.066 68.101,-15.341 157.137,-28.442 197.847,-29.107 40.711,-0.7 89.212,-7.15 107.782,-14.414 32.152,-12.572 31.732,-14.541 -8.92,-41.1777 -23.478,-15.3836 -98.01,-37.4465 -165.616,-49.0396 -53.172,-9.118 -88.725,-13.3578 -126.505,-12.0455 z m -1597.243,1460.5818 c -55.444,1.41 -110.732,10.008 -140.013,25.15 -27.635,14.291 -58.223,40.891 -67.965,59.095 -24.637,46.033 -22.13,143.149 4.64,179.753 24.852,33.986 122.419,63.061 175.49498,52.291 18.92402,-3.84 62.84402,-7.1 97.60002,-7.23 72.63,-0.3 169.044,-69.616 169.044,-121.591 0,-55.332 -54.45,-149.669 -97.802,-169.422 -29.946,-13.644 -85.552,-19.445 -140.996,-18.043 z m 582.504,2.85 c -18.726,-0.4 -37.818,0.8 -57.003,3.86 -118.899,19.013 -200.367,107.483 -200.569,217.806 -0.098,55.145 6.94,64.927 64.412,89.763 127.594,55.137 261.805,51.077 373.669,-11.315 62.708,-34.975 69.116,-44.821 67.26,-103.422 -3.44,-108.63 -116.69,-193.586 -247.769,-196.688 z" /><path
     id="Drills"
     style="display:inline;fill:#1a1a1a;fill-rule:evenodd;stroke:#000000;stroke-width:0"
     d="m 403.83464,257.96878 a 150,150 0 0 1 -150,150 150,150 0 0 1 -150,-150 150,150 0 0 1 150,-150 150,150 0 0 1 150,150 z" /></svg>
