%TF.GenerationSoftware,KiCad,Pcbnew,8.0.4*%
%TF.CreationDate,2024-07-22T12:01:49+03:00*%
%TF.ProjectId,purrChash,70757272-4368-4617-9368-2e6b69636164,rev?*%
%TF.SameCoordinates,Original*%
%TF.FileFunction,Legend,Top*%
%TF.FilePolarity,Positive*%
%FSLAX46Y46*%
G04 Gerber Fmt 4.6, Leading zero omitted, Abs format (unit mm)*
G04 Created by KiCad (PCBNEW 8.0.4) date 2024-07-22 12:01:49*
%MOMM*%
%LPD*%
G01*
G04 APERTURE LIST*
%ADD10C,0.150000*%
%ADD11C,0.000000*%
G04 APERTURE END LIST*
D10*
X26878095Y-42794819D02*
X27449523Y-42794819D01*
X27163809Y-43794819D02*
X27163809Y-42794819D01*
X27782857Y-43794819D02*
X27782857Y-42794819D01*
X27782857Y-42794819D02*
X28163809Y-42794819D01*
X28163809Y-42794819D02*
X28259047Y-42842438D01*
X28259047Y-42842438D02*
X28306666Y-42890057D01*
X28306666Y-42890057D02*
X28354285Y-42985295D01*
X28354285Y-42985295D02*
X28354285Y-43128152D01*
X28354285Y-43128152D02*
X28306666Y-43223390D01*
X28306666Y-43223390D02*
X28259047Y-43271009D01*
X28259047Y-43271009D02*
X28163809Y-43318628D01*
X28163809Y-43318628D02*
X27782857Y-43318628D01*
X29211428Y-43128152D02*
X29211428Y-43794819D01*
X28973333Y-42747200D02*
X28735238Y-43461485D01*
X28735238Y-43461485D02*
X29354285Y-43461485D01*
X21558095Y-47204819D02*
X22129523Y-47204819D01*
X21843809Y-48204819D02*
X21843809Y-47204819D01*
X22462857Y-48204819D02*
X22462857Y-47204819D01*
X22462857Y-47204819D02*
X22843809Y-47204819D01*
X22843809Y-47204819D02*
X22939047Y-47252438D01*
X22939047Y-47252438D02*
X22986666Y-47300057D01*
X22986666Y-47300057D02*
X23034285Y-47395295D01*
X23034285Y-47395295D02*
X23034285Y-47538152D01*
X23034285Y-47538152D02*
X22986666Y-47633390D01*
X22986666Y-47633390D02*
X22939047Y-47681009D01*
X22939047Y-47681009D02*
X22843809Y-47728628D01*
X22843809Y-47728628D02*
X22462857Y-47728628D01*
X23367619Y-47204819D02*
X23986666Y-47204819D01*
X23986666Y-47204819D02*
X23653333Y-47585771D01*
X23653333Y-47585771D02*
X23796190Y-47585771D01*
X23796190Y-47585771D02*
X23891428Y-47633390D01*
X23891428Y-47633390D02*
X23939047Y-47681009D01*
X23939047Y-47681009D02*
X23986666Y-47776247D01*
X23986666Y-47776247D02*
X23986666Y-48014342D01*
X23986666Y-48014342D02*
X23939047Y-48109580D01*
X23939047Y-48109580D02*
X23891428Y-48157200D01*
X23891428Y-48157200D02*
X23796190Y-48204819D01*
X23796190Y-48204819D02*
X23510476Y-48204819D01*
X23510476Y-48204819D02*
X23415238Y-48157200D01*
X23415238Y-48157200D02*
X23367619Y-48109580D01*
X27798095Y-52084819D02*
X28369523Y-52084819D01*
X28083809Y-53084819D02*
X28083809Y-52084819D01*
X28702857Y-53084819D02*
X28702857Y-52084819D01*
X28702857Y-52084819D02*
X29083809Y-52084819D01*
X29083809Y-52084819D02*
X29179047Y-52132438D01*
X29179047Y-52132438D02*
X29226666Y-52180057D01*
X29226666Y-52180057D02*
X29274285Y-52275295D01*
X29274285Y-52275295D02*
X29274285Y-52418152D01*
X29274285Y-52418152D02*
X29226666Y-52513390D01*
X29226666Y-52513390D02*
X29179047Y-52561009D01*
X29179047Y-52561009D02*
X29083809Y-52608628D01*
X29083809Y-52608628D02*
X28702857Y-52608628D01*
X29655238Y-52180057D02*
X29702857Y-52132438D01*
X29702857Y-52132438D02*
X29798095Y-52084819D01*
X29798095Y-52084819D02*
X30036190Y-52084819D01*
X30036190Y-52084819D02*
X30131428Y-52132438D01*
X30131428Y-52132438D02*
X30179047Y-52180057D01*
X30179047Y-52180057D02*
X30226666Y-52275295D01*
X30226666Y-52275295D02*
X30226666Y-52370533D01*
X30226666Y-52370533D02*
X30179047Y-52513390D01*
X30179047Y-52513390D02*
X29607619Y-53084819D01*
X29607619Y-53084819D02*
X30226666Y-53084819D01*
X25148095Y-58364819D02*
X25719523Y-58364819D01*
X25433809Y-59364819D02*
X25433809Y-58364819D01*
X26052857Y-59364819D02*
X26052857Y-58364819D01*
X26052857Y-58364819D02*
X26433809Y-58364819D01*
X26433809Y-58364819D02*
X26529047Y-58412438D01*
X26529047Y-58412438D02*
X26576666Y-58460057D01*
X26576666Y-58460057D02*
X26624285Y-58555295D01*
X26624285Y-58555295D02*
X26624285Y-58698152D01*
X26624285Y-58698152D02*
X26576666Y-58793390D01*
X26576666Y-58793390D02*
X26529047Y-58841009D01*
X26529047Y-58841009D02*
X26433809Y-58888628D01*
X26433809Y-58888628D02*
X26052857Y-58888628D01*
X27576666Y-59364819D02*
X27005238Y-59364819D01*
X27290952Y-59364819D02*
X27290952Y-58364819D01*
X27290952Y-58364819D02*
X27195714Y-58507676D01*
X27195714Y-58507676D02*
X27100476Y-58602914D01*
X27100476Y-58602914D02*
X27005238Y-58650533D01*
D11*
%TO.C,*%
G36*
X31208000Y-79318000D02*
G01*
X31590000Y-79418000D01*
X32118000Y-79659000D01*
X32561000Y-79993000D01*
X32895000Y-80396000D01*
X33095000Y-80846000D01*
X33099000Y-80861000D01*
X33148000Y-81169000D01*
X33154000Y-81485000D01*
X33150000Y-81530000D01*
X33098000Y-81749000D01*
X32977000Y-81923000D01*
X32754000Y-82094000D01*
X32640000Y-82164000D01*
X31959000Y-82498000D01*
X31261000Y-82690000D01*
X31090000Y-82717000D01*
X30832000Y-82737000D01*
X30505000Y-82742000D01*
X30200000Y-82734000D01*
X30080000Y-82724000D01*
X29252000Y-82549000D01*
X28558000Y-82275000D01*
X28367000Y-82173000D01*
X28256000Y-82078000D01*
X28253000Y-82075000D01*
X28176000Y-81968000D01*
X28136000Y-81839000D01*
X28122000Y-81635000D01*
X28121000Y-81466000D01*
X28132000Y-81154000D01*
X28174000Y-80916000D01*
X28262000Y-80664000D01*
X28269000Y-80648000D01*
X28544000Y-80182000D01*
X28942000Y-79786000D01*
X29310000Y-79552000D01*
X29903000Y-79336000D01*
X30547000Y-79257000D01*
X31208000Y-79318000D01*
G37*
G36*
X25488000Y-79247000D02*
G01*
X25680000Y-79263000D01*
X26041000Y-79336000D01*
X26290000Y-79421000D01*
X26518000Y-79592000D01*
X26755000Y-79874000D01*
X26972000Y-80224000D01*
X27136000Y-80597000D01*
X27151000Y-80643000D01*
X27234000Y-80992000D01*
X27222000Y-81233000D01*
X27068000Y-81519000D01*
X26793000Y-81802000D01*
X26433000Y-82050000D01*
X26113000Y-82199000D01*
X25925000Y-82260000D01*
X25727000Y-82297000D01*
X25457000Y-82319000D01*
X25310000Y-82326000D01*
X25018000Y-82343000D01*
X24758000Y-82364000D01*
X24660000Y-82375000D01*
X24185000Y-82401000D01*
X23930000Y-82374000D01*
X23538000Y-82273000D01*
X23183000Y-82130000D01*
X22926000Y-81968000D01*
X22924000Y-81965000D01*
X22752000Y-81725000D01*
X22665000Y-81471000D01*
X22637000Y-81326000D01*
X22624000Y-81154000D01*
X22621000Y-80936000D01*
X22644000Y-80508000D01*
X22722000Y-80192000D01*
X22868000Y-79946000D01*
X22924000Y-79883000D01*
X23229000Y-79616000D01*
X23575000Y-79433000D01*
X24008000Y-79311000D01*
X24310000Y-79263000D01*
X24534000Y-79246000D01*
X24847000Y-79238000D01*
X25187000Y-79238000D01*
X25488000Y-79247000D01*
G37*
G36*
X18226000Y-17460000D02*
G01*
X18605000Y-17708000D01*
X18829000Y-17886000D01*
X19287000Y-18284000D01*
X19771000Y-18735000D01*
X20254000Y-19210000D01*
X20709000Y-19681000D01*
X21107000Y-20120000D01*
X21421000Y-20498000D01*
X21526000Y-20640000D01*
X21724000Y-20957000D01*
X21916000Y-21329000D01*
X22068000Y-21685000D01*
X22131000Y-21878000D01*
X22172000Y-22155000D01*
X22136000Y-22406000D01*
X22009000Y-22661000D01*
X21775000Y-22945000D01*
X21421000Y-23287000D01*
X21394000Y-23311000D01*
X20815000Y-23816000D01*
X20235000Y-24288000D01*
X19680000Y-24707000D01*
X19178000Y-25056000D01*
X18752000Y-25313000D01*
X18656000Y-25363000D01*
X18381000Y-25491000D01*
X18198000Y-25543000D01*
X18064000Y-25528000D01*
X17984000Y-25487000D01*
X17780000Y-25277000D01*
X17587000Y-24923000D01*
X17410000Y-24441000D01*
X17254000Y-23845000D01*
X17123000Y-23151000D01*
X17022000Y-22375000D01*
X17001000Y-22166000D01*
X16967000Y-21684000D01*
X16945000Y-21119000D01*
X16934000Y-20522000D01*
X16935000Y-19942000D01*
X16948000Y-19429000D01*
X16970000Y-19086000D01*
X17043000Y-18481000D01*
X17144000Y-18019000D01*
X17275000Y-17686000D01*
X17438000Y-17472000D01*
X17656000Y-17346000D01*
X17914000Y-17340000D01*
X18226000Y-17460000D01*
G37*
G36*
X37041000Y-17344000D02*
G01*
X37192000Y-17424000D01*
X37309000Y-17593000D01*
X37406000Y-17870000D01*
X37495000Y-18277000D01*
X37539000Y-18532000D01*
X37608000Y-18995000D01*
X37654000Y-19403000D01*
X37679000Y-19817000D01*
X37690000Y-20301000D01*
X37691000Y-20556000D01*
X37652000Y-21769000D01*
X37531000Y-22886000D01*
X37419000Y-23521000D01*
X37261000Y-24177000D01*
X37080000Y-24692000D01*
X36867000Y-25082000D01*
X36612000Y-25368000D01*
X36470000Y-25475000D01*
X36319000Y-25543000D01*
X36166000Y-25519000D01*
X36030000Y-25451000D01*
X35835000Y-25334000D01*
X35604000Y-25180000D01*
X35310000Y-24971000D01*
X34925000Y-24687000D01*
X34790000Y-24586000D01*
X34358000Y-24262000D01*
X34020000Y-24013000D01*
X33747000Y-23816000D01*
X33506000Y-23647000D01*
X33420000Y-23588000D01*
X33021000Y-23286000D01*
X32747000Y-23003000D01*
X32582000Y-22741000D01*
X32469000Y-22416000D01*
X32450000Y-22173000D01*
X32497000Y-21776000D01*
X32646000Y-21347000D01*
X32907000Y-20858000D01*
X33041000Y-20646000D01*
X33282000Y-20324000D01*
X33630000Y-19929000D01*
X33909000Y-19639000D01*
X34375000Y-19180000D01*
X34853000Y-18734000D01*
X35323000Y-18321000D01*
X35761000Y-17958000D01*
X36146000Y-17665000D01*
X36455000Y-17460000D01*
X36581000Y-17393000D01*
X36847000Y-17331000D01*
X37041000Y-17344000D01*
G37*
G36*
X19518000Y-63847000D02*
G01*
X19560000Y-63875000D01*
X19710000Y-64052000D01*
X19895000Y-64381000D01*
X20116000Y-64863000D01*
X20373000Y-65500000D01*
X20541000Y-65946000D01*
X20674000Y-66315000D01*
X20840000Y-66784000D01*
X21026000Y-67319000D01*
X21221000Y-67885000D01*
X21413000Y-68448000D01*
X21591000Y-68973000D01*
X21742000Y-69427000D01*
X21854000Y-69773000D01*
X21877000Y-69846000D01*
X22156000Y-70857000D01*
X22407000Y-71978000D01*
X22621000Y-73161000D01*
X22788000Y-74359000D01*
X22889000Y-75386000D01*
X22917000Y-75871000D01*
X22937000Y-76474000D01*
X22947000Y-77154000D01*
X22949000Y-77516000D01*
X22948000Y-78336000D01*
X22539000Y-78806000D01*
X22214000Y-79184000D01*
X21981000Y-79471000D01*
X21821000Y-79694000D01*
X21715000Y-79880000D01*
X21645000Y-80055000D01*
X21626000Y-80116000D01*
X21599000Y-80227000D01*
X21585000Y-80352000D01*
X21581000Y-80550000D01*
X21581000Y-80706000D01*
X21584000Y-81003000D01*
X21598000Y-81200000D01*
X21617000Y-81316000D01*
X21699000Y-81623000D01*
X21768000Y-81759000D01*
X21803000Y-81849000D01*
X21715000Y-81911000D01*
X21640000Y-81938000D01*
X21532000Y-81951000D01*
X21337000Y-81957000D01*
X21230000Y-81959000D01*
X20966000Y-81958000D01*
X20751000Y-81950000D01*
X20690000Y-81945000D01*
X20126000Y-81847000D01*
X19695000Y-81699000D01*
X19378000Y-81489000D01*
X19152000Y-81206000D01*
X19112000Y-81131000D01*
X19001000Y-80751000D01*
X19000000Y-80320000D01*
X19063000Y-80036000D01*
X19283000Y-79594000D01*
X19618000Y-79228000D01*
X19891000Y-79047000D01*
X20286000Y-78914000D01*
X20600000Y-78877000D01*
X20805000Y-78860000D01*
X20930000Y-78843000D01*
X21192000Y-78738000D01*
X21459000Y-78513000D01*
X21700000Y-78222000D01*
X21877000Y-77973000D01*
X22001000Y-77752000D01*
X22082000Y-77522000D01*
X22129000Y-77247000D01*
X22151000Y-76890000D01*
X22156000Y-76412000D01*
X22156000Y-76366000D01*
X22145000Y-75668000D01*
X22107000Y-75074000D01*
X22034000Y-74527000D01*
X21918000Y-73973000D01*
X21752000Y-73357000D01*
X21710000Y-73216000D01*
X21576000Y-72761000D01*
X21410000Y-72190000D01*
X21223000Y-71541000D01*
X21026000Y-70852000D01*
X20891000Y-70376000D01*
X20544000Y-69162000D01*
X20230000Y-68093000D01*
X19945000Y-67156000D01*
X19686000Y-66341000D01*
X19660000Y-66264000D01*
X19469000Y-65655000D01*
X19319000Y-65125000D01*
X19227000Y-64736000D01*
X19189000Y-64465000D01*
X19179000Y-64198000D01*
X19198000Y-64000000D01*
X19215000Y-63953000D01*
X19350000Y-63822000D01*
X19518000Y-63847000D01*
G37*
G36*
X41267000Y-64641000D02*
G01*
X41508000Y-64657000D01*
X41764000Y-64690000D01*
X42099000Y-64749000D01*
X42200000Y-64768000D01*
X42671000Y-64870000D01*
X43110000Y-64988000D01*
X43470000Y-65107000D01*
X43639000Y-65180000D01*
X43797000Y-65273000D01*
X43956000Y-65383000D01*
X44049000Y-65464000D01*
X44052000Y-65470000D01*
X44053000Y-65531000D01*
X43952000Y-65595000D01*
X43691000Y-65685000D01*
X43306000Y-65749000D01*
X42830000Y-65787000D01*
X41862000Y-65884000D01*
X40854000Y-66067000D01*
X39887000Y-66320000D01*
X39760000Y-66360000D01*
X38669000Y-66775000D01*
X37685000Y-67278000D01*
X36817000Y-67862000D01*
X36076000Y-68522000D01*
X35471000Y-69249000D01*
X35385000Y-69376000D01*
X35173000Y-69738000D01*
X34963000Y-70167000D01*
X34790000Y-70587000D01*
X34721000Y-70796000D01*
X34666000Y-71002000D01*
X34625000Y-71210000D01*
X34597000Y-71447000D01*
X34577000Y-71742000D01*
X34566000Y-72119000D01*
X34562000Y-72608000D01*
X34561000Y-73106000D01*
X34564000Y-73805000D01*
X34575000Y-74374000D01*
X34598000Y-74843000D01*
X34636000Y-75244000D01*
X34694000Y-75606000D01*
X34776000Y-75961000D01*
X34885000Y-76337000D01*
X35026000Y-76765000D01*
X35054000Y-76846000D01*
X35303000Y-77541000D01*
X35526000Y-78092000D01*
X35730000Y-78514000D01*
X35920000Y-78819000D01*
X36104000Y-79021000D01*
X36115000Y-79031000D01*
X36431000Y-79211000D01*
X36580000Y-79257000D01*
X36992000Y-79368000D01*
X37306000Y-79511000D01*
X37586000Y-79720000D01*
X37783000Y-79912000D01*
X38074000Y-80252000D01*
X38370000Y-80676000D01*
X38690000Y-81215000D01*
X38784000Y-81387000D01*
X38982000Y-81763000D01*
X39106000Y-82036000D01*
X39172000Y-82238000D01*
X39190000Y-82397000D01*
X39152000Y-82564000D01*
X39017000Y-82684000D01*
X38808000Y-82772000D01*
X38204000Y-82930000D01*
X37520000Y-83028000D01*
X36828000Y-83058000D01*
X36510000Y-83045000D01*
X35876000Y-82961000D01*
X35332000Y-82812000D01*
X34898000Y-82607000D01*
X34597000Y-82353000D01*
X34586000Y-82339000D01*
X34376000Y-81950000D01*
X34311000Y-81499000D01*
X34390000Y-80983000D01*
X34578000Y-80479000D01*
X34695000Y-80170000D01*
X34730000Y-79915000D01*
X34730000Y-79912000D01*
X34725000Y-79788000D01*
X34705000Y-79646000D01*
X34664000Y-79460000D01*
X34595000Y-79204000D01*
X34491000Y-78854000D01*
X34348000Y-78383000D01*
X34301000Y-78234000D01*
X33969000Y-76995000D01*
X33707000Y-75664000D01*
X33526000Y-74298000D01*
X33499000Y-74006000D01*
X33478000Y-73663000D01*
X33463000Y-73225000D01*
X33455000Y-72747000D01*
X33454000Y-72287000D01*
X33462000Y-71903000D01*
X33468000Y-71765000D01*
X33596000Y-70575000D01*
X33822000Y-69508000D01*
X34145000Y-68561000D01*
X34297000Y-68226000D01*
X34722000Y-67492000D01*
X35245000Y-66848000D01*
X35872000Y-66291000D01*
X36613000Y-65812000D01*
X37478000Y-65409000D01*
X38473000Y-65073000D01*
X39609000Y-64801000D01*
X39675000Y-64788000D01*
X40053000Y-64716000D01*
X40329000Y-64671000D01*
X40559000Y-64648000D01*
X40800000Y-64639000D01*
X40980000Y-64638000D01*
X41267000Y-64641000D01*
G37*
G36*
X41020000Y-45655000D02*
G01*
X41223000Y-45676000D01*
X41427000Y-45705000D01*
X41569000Y-45734000D01*
X41595000Y-45744000D01*
X41600000Y-45824000D01*
X41591000Y-45997000D01*
X41579000Y-46190000D01*
X41564000Y-46486000D01*
X41550000Y-46827000D01*
X41547000Y-46901000D01*
X41535000Y-47611000D01*
X41561000Y-48225000D01*
X41631000Y-48806000D01*
X41751000Y-49415000D01*
X41851000Y-49826000D01*
X42175000Y-50880000D01*
X42602000Y-51968000D01*
X43109000Y-53038000D01*
X43673000Y-54040000D01*
X44121000Y-54719000D01*
X44355000Y-55037000D01*
X44578000Y-55313000D01*
X44789000Y-55554000D01*
X45759000Y-56727000D01*
X46589000Y-57913000D01*
X46874000Y-58376000D01*
X47242000Y-59023000D01*
X47567000Y-59660000D01*
X47874000Y-60336000D01*
X48188000Y-61104000D01*
X48274000Y-61326000D01*
X48515000Y-61966000D01*
X48704000Y-62495000D01*
X48849000Y-62948000D01*
X48959000Y-63360000D01*
X49043000Y-63769000D01*
X49110000Y-64209000D01*
X49168000Y-64717000D01*
X49199000Y-65026000D01*
X49255000Y-65607000D01*
X49296000Y-66068000D01*
X49324000Y-66445000D01*
X49343000Y-66778000D01*
X49353000Y-67105000D01*
X49358000Y-67463000D01*
X49358000Y-67856000D01*
X49356000Y-68344000D01*
X49349000Y-68713000D01*
X49336000Y-69007000D01*
X49323000Y-69196000D01*
X49186000Y-70391000D01*
X48971000Y-71537000D01*
X48669000Y-72672000D01*
X48268000Y-73838000D01*
X47811000Y-74954000D01*
X47583000Y-75447000D01*
X47364000Y-75846000D01*
X47122000Y-76211000D01*
X47058000Y-76298000D01*
X46815000Y-76587000D01*
X46613000Y-76754000D01*
X46463000Y-76789000D01*
X46435000Y-76775000D01*
X46405000Y-76743000D01*
X46404000Y-76675000D01*
X46438000Y-76522000D01*
X46462000Y-76425000D01*
X46519000Y-76215000D01*
X46602000Y-75946000D01*
X46721000Y-75591000D01*
X46884000Y-75126000D01*
X46980000Y-74856000D01*
X47239000Y-74117000D01*
X47445000Y-73494000D01*
X47607000Y-72957000D01*
X47734000Y-72475000D01*
X47835000Y-72016000D01*
X47917000Y-71550000D01*
X47920000Y-71537000D01*
X47990000Y-71043000D01*
X48045000Y-70535000D01*
X48084000Y-69987000D01*
X48110000Y-69373000D01*
X48124000Y-68667000D01*
X48126000Y-67842000D01*
X48123000Y-67286000D01*
X48113000Y-66455000D01*
X48097000Y-65761000D01*
X48074000Y-65179000D01*
X48042000Y-64687000D01*
X48000000Y-64260000D01*
X47946000Y-63876000D01*
X47888000Y-63556000D01*
X47697000Y-62798000D01*
X47418000Y-61966000D01*
X47068000Y-61097000D01*
X46665000Y-60227000D01*
X46227000Y-59394000D01*
X45770000Y-58636000D01*
X45313000Y-57989000D01*
X45196000Y-57843000D01*
X44906000Y-57479000D01*
X44565000Y-57023000D01*
X44188000Y-56499000D01*
X43790000Y-55931000D01*
X43388000Y-55341000D01*
X42995000Y-54752000D01*
X42628000Y-54188000D01*
X42302000Y-53672000D01*
X42033000Y-53225000D01*
X41837000Y-52873000D01*
X41769000Y-52736000D01*
X41664000Y-52468000D01*
X41531000Y-52065000D01*
X41377000Y-51549000D01*
X41209000Y-50943000D01*
X41032000Y-50267000D01*
X40900000Y-49736000D01*
X40787000Y-49266000D01*
X40688000Y-48838000D01*
X40592000Y-48399000D01*
X40486000Y-47897000D01*
X40390000Y-47426000D01*
X40308000Y-47026000D01*
X40227000Y-46645000D01*
X40159000Y-46335000D01*
X40123000Y-46180000D01*
X40036000Y-45824000D01*
X40108000Y-45794000D01*
X40451000Y-45696000D01*
X40842000Y-45652000D01*
X41020000Y-45655000D01*
G37*
G36*
X21226000Y-39740000D02*
G01*
X21415000Y-39826000D01*
X21688000Y-39955000D01*
X21984000Y-40097000D01*
X22668000Y-40418000D01*
X23250000Y-40673000D01*
X23766000Y-40875000D01*
X24251000Y-41038000D01*
X24580000Y-41133000D01*
X25315000Y-41302000D01*
X26096000Y-41425000D01*
X26534000Y-41468000D01*
X26892000Y-41483000D01*
X27328000Y-41483000D01*
X27778000Y-41471000D01*
X28175000Y-41448000D01*
X28380000Y-41427000D01*
X28778000Y-41371000D01*
X29126000Y-41314000D01*
X29452000Y-41249000D01*
X29787000Y-41167000D01*
X30157000Y-41062000D01*
X30592000Y-40925000D01*
X31121000Y-40750000D01*
X31770000Y-40529000D01*
X32242000Y-40374000D01*
X32594000Y-40280000D01*
X32855000Y-40242000D01*
X33053000Y-40259000D01*
X33216000Y-40328000D01*
X33283000Y-40373000D01*
X33425000Y-40502000D01*
X33620000Y-40705000D01*
X33822000Y-40935000D01*
X33936000Y-41076000D01*
X34407000Y-41795000D01*
X34748000Y-42561000D01*
X34946000Y-43342000D01*
X34953000Y-43386000D01*
X34967000Y-43566000D01*
X34975000Y-43835000D01*
X34977000Y-43996000D01*
X34969000Y-44341000D01*
X34944000Y-44568000D01*
X34895000Y-44722000D01*
X34860000Y-44783000D01*
X34788000Y-44867000D01*
X34666000Y-44957000D01*
X34456000Y-45078000D01*
X34310000Y-45156000D01*
X34114000Y-45260000D01*
X33993000Y-45326000D01*
X33974000Y-45336000D01*
X34010000Y-45401000D01*
X34110000Y-45566000D01*
X34253000Y-45794000D01*
X34256000Y-45799000D01*
X34472000Y-46146000D01*
X34625000Y-46401000D01*
X34738000Y-46607000D01*
X34833000Y-46800000D01*
X35135000Y-47615000D01*
X35298000Y-48457000D01*
X35315000Y-49293000D01*
X35280000Y-49626000D01*
X35193000Y-50062000D01*
X35066000Y-50502000D01*
X34917000Y-50896000D01*
X34762000Y-51193000D01*
X34723000Y-51248000D01*
X34579000Y-51385000D01*
X34368000Y-51484000D01*
X34043000Y-51565000D01*
X34033000Y-51567000D01*
X33834000Y-51656000D01*
X33766000Y-51762000D01*
X33743000Y-51910000D01*
X33743000Y-52167000D01*
X33766000Y-52546000D01*
X33815000Y-53061000D01*
X33861000Y-53486000D01*
X33904000Y-54014000D01*
X33893000Y-54453000D01*
X33820000Y-54867000D01*
X33675000Y-55321000D01*
X33597000Y-55525000D01*
X33407000Y-55958000D01*
X33164000Y-56447000D01*
X32885000Y-56962000D01*
X32589000Y-57470000D01*
X32294000Y-57941000D01*
X32020000Y-58343000D01*
X31785000Y-58645000D01*
X31700000Y-58736000D01*
X31463000Y-58999000D01*
X31151000Y-59395000D01*
X30768000Y-59917000D01*
X30319000Y-60560000D01*
X29896000Y-61184000D01*
X29420000Y-61911000D01*
X29037000Y-62536000D01*
X28735000Y-63082000D01*
X28506000Y-63568000D01*
X28338000Y-64017000D01*
X28220000Y-64450000D01*
X28157000Y-64797000D01*
X28130000Y-65108000D01*
X28121000Y-65507000D01*
X28130000Y-65920000D01*
X28156000Y-66266000D01*
X28228000Y-66776000D01*
X28324000Y-67310000D01*
X28382000Y-67586000D01*
X28564000Y-68489000D01*
X28721000Y-69479000D01*
X28854000Y-70575000D01*
X28966000Y-71797000D01*
X29034000Y-72756000D01*
X29046000Y-73035000D01*
X29054000Y-73434000D01*
X29059000Y-73917000D01*
X29059000Y-74186000D01*
X29058000Y-74659000D01*
X29052000Y-75015000D01*
X29040000Y-75296000D01*
X29018000Y-75545000D01*
X28983000Y-75803000D01*
X28932000Y-76115000D01*
X28928000Y-76136000D01*
X28747000Y-77010000D01*
X28515000Y-77802000D01*
X28241000Y-78482000D01*
X28055000Y-78836000D01*
X27969000Y-78975000D01*
X27859000Y-79148000D01*
X27759000Y-79301000D01*
X27703000Y-79383000D01*
X27700000Y-79386000D01*
X27681000Y-79352000D01*
X27678000Y-79264000D01*
X27679000Y-79045000D01*
X27683000Y-78723000D01*
X27690000Y-78329000D01*
X27694000Y-78127000D01*
X27706000Y-77450000D01*
X27715000Y-76735000D01*
X27719000Y-76010000D01*
X27720000Y-75302000D01*
X27717000Y-74639000D01*
X27711000Y-74046000D01*
X27701000Y-73553000D01*
X27688000Y-73185000D01*
X27684000Y-73116000D01*
X27575000Y-71755000D01*
X27424000Y-70502000D01*
X27224000Y-69309000D01*
X27118000Y-68786000D01*
X26899000Y-67860000D01*
X26633000Y-66897000D01*
X26342000Y-65974000D01*
X26155000Y-65446000D01*
X25979000Y-65003000D01*
X25821000Y-64688000D01*
X25663000Y-64473000D01*
X25485000Y-64333000D01*
X25320000Y-64257000D01*
X25107000Y-64166000D01*
X24834000Y-64033000D01*
X24582000Y-63899000D01*
X24510000Y-63857000D01*
X24016000Y-63512000D01*
X23560000Y-63115000D01*
X23366000Y-62913000D01*
X23141000Y-62644000D01*
X22967000Y-62395000D01*
X22797000Y-62097000D01*
X22714000Y-61935000D01*
X22547000Y-61625000D01*
X22407000Y-61413000D01*
X22304000Y-61292000D01*
X22119000Y-61137000D01*
X21884000Y-61046000D01*
X21880000Y-61045000D01*
X21431000Y-60864000D01*
X20970000Y-60554000D01*
X20479000Y-60103000D01*
X20460000Y-60084000D01*
X20069000Y-59632000D01*
X19736000Y-59152000D01*
X19485000Y-58684000D01*
X19358000Y-58329000D01*
X19319000Y-58145000D01*
X19293000Y-57931000D01*
X19278000Y-57652000D01*
X19272000Y-57274000D01*
X19271000Y-56911000D01*
X19271000Y-56491000D01*
X19264000Y-56197000D01*
X19250000Y-55997000D01*
X19226000Y-55856000D01*
X19192000Y-55745000D01*
X19047000Y-55501000D01*
X18809000Y-55217000D01*
X18643000Y-55018000D01*
X18526000Y-54857000D01*
X18232000Y-54323000D01*
X17981000Y-53716000D01*
X17787000Y-53080000D01*
X17662000Y-52458000D01*
X17619000Y-51896000D01*
X17630000Y-51658000D01*
X17691000Y-51224000D01*
X17789000Y-50759000D01*
X17935000Y-50227000D01*
X18136000Y-49592000D01*
X18173000Y-49483000D01*
X18433000Y-48709000D01*
X18230000Y-48243000D01*
X18052000Y-47820000D01*
X17934000Y-47493000D01*
X17864000Y-47213000D01*
X17827000Y-46935000D01*
X17816000Y-46736000D01*
X17817000Y-46343000D01*
X17843000Y-45890000D01*
X17882000Y-45516000D01*
X18088000Y-44493000D01*
X18433000Y-43499000D01*
X18920000Y-42522000D01*
X19557000Y-41549000D01*
X20068000Y-40896000D01*
X20217000Y-40723000D01*
X20414000Y-40500000D01*
X20632000Y-40259000D01*
X20842000Y-40030000D01*
X21017000Y-39844000D01*
X21128000Y-39730000D01*
X21152000Y-39710000D01*
X21226000Y-39740000D01*
G37*
%TD*%
M02*
