%TF.GenerationSoftware,KiCad,Pcbnew,8.0.4*%
%TF.CreationDate,2024-07-30T00:27:24+03:00*%
%TF.ProjectId,purrChash,70757272-4368-4617-9368-2e6b69636164,rev?*%
%TF.SameCoordinates,Original*%
%TF.FileFunction,Legend,Bot*%
%TF.FilePolarity,Positive*%
%FSLAX46Y46*%
G04 Gerber Fmt 4.6, Leading zero omitted, Abs format (unit mm)*
G04 Created by KiCad (PCBNEW 8.0.4) date 2024-07-30 00:27:24*
%MOMM*%
%LPD*%
G01*
G04 APERTURE LIST*
%ADD10C,0.150000*%
%ADD11C,0.120000*%
G04 APERTURE END LIST*
D10*
X18660000Y-41980000D02*
X35660000Y-41980000D01*
X35660000Y-63980000D01*
X18660000Y-63980000D01*
X18660000Y-41980000D01*
X46810000Y-51700000D02*
G75*
G02*
X36810000Y-51700000I-5000000J0D01*
G01*
X36810000Y-51700000D02*
G75*
G02*
X46810000Y-51700000I5000000J0D01*
G01*
X39512319Y-72808095D02*
X40321842Y-72808095D01*
X40321842Y-72808095D02*
X40417080Y-72855714D01*
X40417080Y-72855714D02*
X40464700Y-72903333D01*
X40464700Y-72903333D02*
X40512319Y-72998571D01*
X40512319Y-72998571D02*
X40512319Y-73189047D01*
X40512319Y-73189047D02*
X40464700Y-73284285D01*
X40464700Y-73284285D02*
X40417080Y-73331904D01*
X40417080Y-73331904D02*
X40321842Y-73379523D01*
X40321842Y-73379523D02*
X39512319Y-73379523D01*
X39607557Y-73808095D02*
X39559938Y-73855714D01*
X39559938Y-73855714D02*
X39512319Y-73950952D01*
X39512319Y-73950952D02*
X39512319Y-74189047D01*
X39512319Y-74189047D02*
X39559938Y-74284285D01*
X39559938Y-74284285D02*
X39607557Y-74331904D01*
X39607557Y-74331904D02*
X39702795Y-74379523D01*
X39702795Y-74379523D02*
X39798033Y-74379523D01*
X39798033Y-74379523D02*
X39940890Y-74331904D01*
X39940890Y-74331904D02*
X40512319Y-73760476D01*
X40512319Y-73760476D02*
X40512319Y-74379523D01*
X21502857Y-39854819D02*
X21836190Y-39378628D01*
X22074285Y-39854819D02*
X22074285Y-38854819D01*
X22074285Y-38854819D02*
X21693333Y-38854819D01*
X21693333Y-38854819D02*
X21598095Y-38902438D01*
X21598095Y-38902438D02*
X21550476Y-38950057D01*
X21550476Y-38950057D02*
X21502857Y-39045295D01*
X21502857Y-39045295D02*
X21502857Y-39188152D01*
X21502857Y-39188152D02*
X21550476Y-39283390D01*
X21550476Y-39283390D02*
X21598095Y-39331009D01*
X21598095Y-39331009D02*
X21693333Y-39378628D01*
X21693333Y-39378628D02*
X22074285Y-39378628D01*
X20550476Y-39854819D02*
X21121904Y-39854819D01*
X20836190Y-39854819D02*
X20836190Y-38854819D01*
X20836190Y-38854819D02*
X20931428Y-38997676D01*
X20931428Y-38997676D02*
X21026666Y-39092914D01*
X21026666Y-39092914D02*
X21121904Y-39140533D01*
X19598095Y-39854819D02*
X20169523Y-39854819D01*
X19883809Y-39854819D02*
X19883809Y-38854819D01*
X19883809Y-38854819D02*
X19979047Y-38997676D01*
X19979047Y-38997676D02*
X20074285Y-39092914D01*
X20074285Y-39092914D02*
X20169523Y-39140533D01*
X28801904Y-67874819D02*
X28801904Y-68684342D01*
X28801904Y-68684342D02*
X28754285Y-68779580D01*
X28754285Y-68779580D02*
X28706666Y-68827200D01*
X28706666Y-68827200D02*
X28611428Y-68874819D01*
X28611428Y-68874819D02*
X28420952Y-68874819D01*
X28420952Y-68874819D02*
X28325714Y-68827200D01*
X28325714Y-68827200D02*
X28278095Y-68779580D01*
X28278095Y-68779580D02*
X28230476Y-68684342D01*
X28230476Y-68684342D02*
X28230476Y-67874819D01*
X27230476Y-68874819D02*
X27801904Y-68874819D01*
X27516190Y-68874819D02*
X27516190Y-67874819D01*
X27516190Y-67874819D02*
X27611428Y-68017676D01*
X27611428Y-68017676D02*
X27706666Y-68112914D01*
X27706666Y-68112914D02*
X27801904Y-68160533D01*
X35594819Y-79653333D02*
X35118628Y-79320000D01*
X35594819Y-79081905D02*
X34594819Y-79081905D01*
X34594819Y-79081905D02*
X34594819Y-79462857D01*
X34594819Y-79462857D02*
X34642438Y-79558095D01*
X34642438Y-79558095D02*
X34690057Y-79605714D01*
X34690057Y-79605714D02*
X34785295Y-79653333D01*
X34785295Y-79653333D02*
X34928152Y-79653333D01*
X34928152Y-79653333D02*
X35023390Y-79605714D01*
X35023390Y-79605714D02*
X35071009Y-79558095D01*
X35071009Y-79558095D02*
X35118628Y-79462857D01*
X35118628Y-79462857D02*
X35118628Y-79081905D01*
X34690057Y-80034286D02*
X34642438Y-80081905D01*
X34642438Y-80081905D02*
X34594819Y-80177143D01*
X34594819Y-80177143D02*
X34594819Y-80415238D01*
X34594819Y-80415238D02*
X34642438Y-80510476D01*
X34642438Y-80510476D02*
X34690057Y-80558095D01*
X34690057Y-80558095D02*
X34785295Y-80605714D01*
X34785295Y-80605714D02*
X34880533Y-80605714D01*
X34880533Y-80605714D02*
X35023390Y-80558095D01*
X35023390Y-80558095D02*
X35594819Y-79986667D01*
X35594819Y-79986667D02*
X35594819Y-80605714D01*
X47109523Y-56264819D02*
X47109523Y-55264819D01*
X47109523Y-55264819D02*
X46776190Y-55979104D01*
X46776190Y-55979104D02*
X46442857Y-55264819D01*
X46442857Y-55264819D02*
X46442857Y-56264819D01*
X45442857Y-56264819D02*
X46014285Y-56264819D01*
X45728571Y-56264819D02*
X45728571Y-55264819D01*
X45728571Y-55264819D02*
X45823809Y-55407676D01*
X45823809Y-55407676D02*
X45919047Y-55502914D01*
X45919047Y-55502914D02*
X46014285Y-55550533D01*
X22493333Y-77814819D02*
X22493333Y-78529104D01*
X22493333Y-78529104D02*
X22540952Y-78671961D01*
X22540952Y-78671961D02*
X22636190Y-78767200D01*
X22636190Y-78767200D02*
X22779047Y-78814819D01*
X22779047Y-78814819D02*
X22874285Y-78814819D01*
X21493333Y-78814819D02*
X22064761Y-78814819D01*
X21779047Y-78814819D02*
X21779047Y-77814819D01*
X21779047Y-77814819D02*
X21874285Y-77957676D01*
X21874285Y-77957676D02*
X21969523Y-78052914D01*
X21969523Y-78052914D02*
X22064761Y-78100533D01*
X21948094Y-37634819D02*
X21948094Y-36634819D01*
X21948094Y-36634819D02*
X21709999Y-36634819D01*
X21709999Y-36634819D02*
X21567142Y-36682438D01*
X21567142Y-36682438D02*
X21471904Y-36777676D01*
X21471904Y-36777676D02*
X21424285Y-36872914D01*
X21424285Y-36872914D02*
X21376666Y-37063390D01*
X21376666Y-37063390D02*
X21376666Y-37206247D01*
X21376666Y-37206247D02*
X21424285Y-37396723D01*
X21424285Y-37396723D02*
X21471904Y-37491961D01*
X21471904Y-37491961D02*
X21567142Y-37587200D01*
X21567142Y-37587200D02*
X21709999Y-37634819D01*
X21709999Y-37634819D02*
X21948094Y-37634819D01*
X20471904Y-36634819D02*
X20948094Y-36634819D01*
X20948094Y-36634819D02*
X20995713Y-37111009D01*
X20995713Y-37111009D02*
X20948094Y-37063390D01*
X20948094Y-37063390D02*
X20852856Y-37015771D01*
X20852856Y-37015771D02*
X20614761Y-37015771D01*
X20614761Y-37015771D02*
X20519523Y-37063390D01*
X20519523Y-37063390D02*
X20471904Y-37111009D01*
X20471904Y-37111009D02*
X20424285Y-37206247D01*
X20424285Y-37206247D02*
X20424285Y-37444342D01*
X20424285Y-37444342D02*
X20471904Y-37539580D01*
X20471904Y-37539580D02*
X20519523Y-37587200D01*
X20519523Y-37587200D02*
X20614761Y-37634819D01*
X20614761Y-37634819D02*
X20852856Y-37634819D01*
X20852856Y-37634819D02*
X20948094Y-37587200D01*
X20948094Y-37587200D02*
X20995713Y-37539580D01*
X30905714Y-65131009D02*
X30762857Y-65178628D01*
X30762857Y-65178628D02*
X30715238Y-65226247D01*
X30715238Y-65226247D02*
X30667619Y-65321485D01*
X30667619Y-65321485D02*
X30667619Y-65464342D01*
X30667619Y-65464342D02*
X30715238Y-65559580D01*
X30715238Y-65559580D02*
X30762857Y-65607200D01*
X30762857Y-65607200D02*
X30858095Y-65654819D01*
X30858095Y-65654819D02*
X31239047Y-65654819D01*
X31239047Y-65654819D02*
X31239047Y-64654819D01*
X31239047Y-64654819D02*
X30905714Y-64654819D01*
X30905714Y-64654819D02*
X30810476Y-64702438D01*
X30810476Y-64702438D02*
X30762857Y-64750057D01*
X30762857Y-64750057D02*
X30715238Y-64845295D01*
X30715238Y-64845295D02*
X30715238Y-64940533D01*
X30715238Y-64940533D02*
X30762857Y-65035771D01*
X30762857Y-65035771D02*
X30810476Y-65083390D01*
X30810476Y-65083390D02*
X30905714Y-65131009D01*
X30905714Y-65131009D02*
X31239047Y-65131009D01*
X30381904Y-64654819D02*
X29810476Y-64654819D01*
X30096190Y-65654819D02*
X30096190Y-64654819D01*
X28953333Y-65654819D02*
X29524761Y-65654819D01*
X29239047Y-65654819D02*
X29239047Y-64654819D01*
X29239047Y-64654819D02*
X29334285Y-64797676D01*
X29334285Y-64797676D02*
X29429523Y-64892914D01*
X29429523Y-64892914D02*
X29524761Y-64940533D01*
X22566666Y-71958819D02*
X22899999Y-71482628D01*
X23138094Y-71958819D02*
X23138094Y-70958819D01*
X23138094Y-70958819D02*
X22757142Y-70958819D01*
X22757142Y-70958819D02*
X22661904Y-71006438D01*
X22661904Y-71006438D02*
X22614285Y-71054057D01*
X22614285Y-71054057D02*
X22566666Y-71149295D01*
X22566666Y-71149295D02*
X22566666Y-71292152D01*
X22566666Y-71292152D02*
X22614285Y-71387390D01*
X22614285Y-71387390D02*
X22661904Y-71435009D01*
X22661904Y-71435009D02*
X22757142Y-71482628D01*
X22757142Y-71482628D02*
X23138094Y-71482628D01*
X21661904Y-70958819D02*
X22138094Y-70958819D01*
X22138094Y-70958819D02*
X22185713Y-71435009D01*
X22185713Y-71435009D02*
X22138094Y-71387390D01*
X22138094Y-71387390D02*
X22042856Y-71339771D01*
X22042856Y-71339771D02*
X21804761Y-71339771D01*
X21804761Y-71339771D02*
X21709523Y-71387390D01*
X21709523Y-71387390D02*
X21661904Y-71435009D01*
X21661904Y-71435009D02*
X21614285Y-71530247D01*
X21614285Y-71530247D02*
X21614285Y-71768342D01*
X21614285Y-71768342D02*
X21661904Y-71863580D01*
X21661904Y-71863580D02*
X21709523Y-71911200D01*
X21709523Y-71911200D02*
X21804761Y-71958819D01*
X21804761Y-71958819D02*
X22042856Y-71958819D01*
X22042856Y-71958819D02*
X22138094Y-71911200D01*
X22138094Y-71911200D02*
X22185713Y-71863580D01*
X34632857Y-39764819D02*
X34966190Y-39288628D01*
X35204285Y-39764819D02*
X35204285Y-38764819D01*
X35204285Y-38764819D02*
X34823333Y-38764819D01*
X34823333Y-38764819D02*
X34728095Y-38812438D01*
X34728095Y-38812438D02*
X34680476Y-38860057D01*
X34680476Y-38860057D02*
X34632857Y-38955295D01*
X34632857Y-38955295D02*
X34632857Y-39098152D01*
X34632857Y-39098152D02*
X34680476Y-39193390D01*
X34680476Y-39193390D02*
X34728095Y-39241009D01*
X34728095Y-39241009D02*
X34823333Y-39288628D01*
X34823333Y-39288628D02*
X35204285Y-39288628D01*
X33680476Y-39764819D02*
X34251904Y-39764819D01*
X33966190Y-39764819D02*
X33966190Y-38764819D01*
X33966190Y-38764819D02*
X34061428Y-38907676D01*
X34061428Y-38907676D02*
X34156666Y-39002914D01*
X34156666Y-39002914D02*
X34251904Y-39050533D01*
X33299523Y-38860057D02*
X33251904Y-38812438D01*
X33251904Y-38812438D02*
X33156666Y-38764819D01*
X33156666Y-38764819D02*
X32918571Y-38764819D01*
X32918571Y-38764819D02*
X32823333Y-38812438D01*
X32823333Y-38812438D02*
X32775714Y-38860057D01*
X32775714Y-38860057D02*
X32728095Y-38955295D01*
X32728095Y-38955295D02*
X32728095Y-39050533D01*
X32728095Y-39050533D02*
X32775714Y-39193390D01*
X32775714Y-39193390D02*
X33347142Y-39764819D01*
X33347142Y-39764819D02*
X32728095Y-39764819D01*
X26269580Y-73943333D02*
X26317200Y-73895714D01*
X26317200Y-73895714D02*
X26364819Y-73752857D01*
X26364819Y-73752857D02*
X26364819Y-73657619D01*
X26364819Y-73657619D02*
X26317200Y-73514762D01*
X26317200Y-73514762D02*
X26221961Y-73419524D01*
X26221961Y-73419524D02*
X26126723Y-73371905D01*
X26126723Y-73371905D02*
X25936247Y-73324286D01*
X25936247Y-73324286D02*
X25793390Y-73324286D01*
X25793390Y-73324286D02*
X25602914Y-73371905D01*
X25602914Y-73371905D02*
X25507676Y-73419524D01*
X25507676Y-73419524D02*
X25412438Y-73514762D01*
X25412438Y-73514762D02*
X25364819Y-73657619D01*
X25364819Y-73657619D02*
X25364819Y-73752857D01*
X25364819Y-73752857D02*
X25412438Y-73895714D01*
X25412438Y-73895714D02*
X25460057Y-73943333D01*
X26364819Y-74895714D02*
X26364819Y-74324286D01*
X26364819Y-74610000D02*
X25364819Y-74610000D01*
X25364819Y-74610000D02*
X25507676Y-74514762D01*
X25507676Y-74514762D02*
X25602914Y-74419524D01*
X25602914Y-74419524D02*
X25650533Y-74324286D01*
X35126666Y-71389580D02*
X35174285Y-71437200D01*
X35174285Y-71437200D02*
X35317142Y-71484819D01*
X35317142Y-71484819D02*
X35412380Y-71484819D01*
X35412380Y-71484819D02*
X35555237Y-71437200D01*
X35555237Y-71437200D02*
X35650475Y-71341961D01*
X35650475Y-71341961D02*
X35698094Y-71246723D01*
X35698094Y-71246723D02*
X35745713Y-71056247D01*
X35745713Y-71056247D02*
X35745713Y-70913390D01*
X35745713Y-70913390D02*
X35698094Y-70722914D01*
X35698094Y-70722914D02*
X35650475Y-70627676D01*
X35650475Y-70627676D02*
X35555237Y-70532438D01*
X35555237Y-70532438D02*
X35412380Y-70484819D01*
X35412380Y-70484819D02*
X35317142Y-70484819D01*
X35317142Y-70484819D02*
X35174285Y-70532438D01*
X35174285Y-70532438D02*
X35126666Y-70580057D01*
X34745713Y-70580057D02*
X34698094Y-70532438D01*
X34698094Y-70532438D02*
X34602856Y-70484819D01*
X34602856Y-70484819D02*
X34364761Y-70484819D01*
X34364761Y-70484819D02*
X34269523Y-70532438D01*
X34269523Y-70532438D02*
X34221904Y-70580057D01*
X34221904Y-70580057D02*
X34174285Y-70675295D01*
X34174285Y-70675295D02*
X34174285Y-70770533D01*
X34174285Y-70770533D02*
X34221904Y-70913390D01*
X34221904Y-70913390D02*
X34793332Y-71484819D01*
X34793332Y-71484819D02*
X34174285Y-71484819D01*
X45836666Y-77129580D02*
X45884285Y-77177200D01*
X45884285Y-77177200D02*
X46027142Y-77224819D01*
X46027142Y-77224819D02*
X46122380Y-77224819D01*
X46122380Y-77224819D02*
X46265237Y-77177200D01*
X46265237Y-77177200D02*
X46360475Y-77081961D01*
X46360475Y-77081961D02*
X46408094Y-76986723D01*
X46408094Y-76986723D02*
X46455713Y-76796247D01*
X46455713Y-76796247D02*
X46455713Y-76653390D01*
X46455713Y-76653390D02*
X46408094Y-76462914D01*
X46408094Y-76462914D02*
X46360475Y-76367676D01*
X46360475Y-76367676D02*
X46265237Y-76272438D01*
X46265237Y-76272438D02*
X46122380Y-76224819D01*
X46122380Y-76224819D02*
X46027142Y-76224819D01*
X46027142Y-76224819D02*
X45884285Y-76272438D01*
X45884285Y-76272438D02*
X45836666Y-76320057D01*
X45503332Y-76224819D02*
X44884285Y-76224819D01*
X44884285Y-76224819D02*
X45217618Y-76605771D01*
X45217618Y-76605771D02*
X45074761Y-76605771D01*
X45074761Y-76605771D02*
X44979523Y-76653390D01*
X44979523Y-76653390D02*
X44931904Y-76701009D01*
X44931904Y-76701009D02*
X44884285Y-76796247D01*
X44884285Y-76796247D02*
X44884285Y-77034342D01*
X44884285Y-77034342D02*
X44931904Y-77129580D01*
X44931904Y-77129580D02*
X44979523Y-77177200D01*
X44979523Y-77177200D02*
X45074761Y-77224819D01*
X45074761Y-77224819D02*
X45360475Y-77224819D01*
X45360475Y-77224819D02*
X45455713Y-77177200D01*
X45455713Y-77177200D02*
X45503332Y-77129580D01*
X42206666Y-66114819D02*
X42539999Y-65638628D01*
X42778094Y-66114819D02*
X42778094Y-65114819D01*
X42778094Y-65114819D02*
X42397142Y-65114819D01*
X42397142Y-65114819D02*
X42301904Y-65162438D01*
X42301904Y-65162438D02*
X42254285Y-65210057D01*
X42254285Y-65210057D02*
X42206666Y-65305295D01*
X42206666Y-65305295D02*
X42206666Y-65448152D01*
X42206666Y-65448152D02*
X42254285Y-65543390D01*
X42254285Y-65543390D02*
X42301904Y-65591009D01*
X42301904Y-65591009D02*
X42397142Y-65638628D01*
X42397142Y-65638628D02*
X42778094Y-65638628D01*
X41635237Y-65543390D02*
X41730475Y-65495771D01*
X41730475Y-65495771D02*
X41778094Y-65448152D01*
X41778094Y-65448152D02*
X41825713Y-65352914D01*
X41825713Y-65352914D02*
X41825713Y-65305295D01*
X41825713Y-65305295D02*
X41778094Y-65210057D01*
X41778094Y-65210057D02*
X41730475Y-65162438D01*
X41730475Y-65162438D02*
X41635237Y-65114819D01*
X41635237Y-65114819D02*
X41444761Y-65114819D01*
X41444761Y-65114819D02*
X41349523Y-65162438D01*
X41349523Y-65162438D02*
X41301904Y-65210057D01*
X41301904Y-65210057D02*
X41254285Y-65305295D01*
X41254285Y-65305295D02*
X41254285Y-65352914D01*
X41254285Y-65352914D02*
X41301904Y-65448152D01*
X41301904Y-65448152D02*
X41349523Y-65495771D01*
X41349523Y-65495771D02*
X41444761Y-65543390D01*
X41444761Y-65543390D02*
X41635237Y-65543390D01*
X41635237Y-65543390D02*
X41730475Y-65591009D01*
X41730475Y-65591009D02*
X41778094Y-65638628D01*
X41778094Y-65638628D02*
X41825713Y-65733866D01*
X41825713Y-65733866D02*
X41825713Y-65924342D01*
X41825713Y-65924342D02*
X41778094Y-66019580D01*
X41778094Y-66019580D02*
X41730475Y-66067200D01*
X41730475Y-66067200D02*
X41635237Y-66114819D01*
X41635237Y-66114819D02*
X41444761Y-66114819D01*
X41444761Y-66114819D02*
X41349523Y-66067200D01*
X41349523Y-66067200D02*
X41301904Y-66019580D01*
X41301904Y-66019580D02*
X41254285Y-65924342D01*
X41254285Y-65924342D02*
X41254285Y-65733866D01*
X41254285Y-65733866D02*
X41301904Y-65638628D01*
X41301904Y-65638628D02*
X41349523Y-65591009D01*
X41349523Y-65591009D02*
X41444761Y-65543390D01*
X41906666Y-63609580D02*
X41954285Y-63657200D01*
X41954285Y-63657200D02*
X42097142Y-63704819D01*
X42097142Y-63704819D02*
X42192380Y-63704819D01*
X42192380Y-63704819D02*
X42335237Y-63657200D01*
X42335237Y-63657200D02*
X42430475Y-63561961D01*
X42430475Y-63561961D02*
X42478094Y-63466723D01*
X42478094Y-63466723D02*
X42525713Y-63276247D01*
X42525713Y-63276247D02*
X42525713Y-63133390D01*
X42525713Y-63133390D02*
X42478094Y-62942914D01*
X42478094Y-62942914D02*
X42430475Y-62847676D01*
X42430475Y-62847676D02*
X42335237Y-62752438D01*
X42335237Y-62752438D02*
X42192380Y-62704819D01*
X42192380Y-62704819D02*
X42097142Y-62704819D01*
X42097142Y-62704819D02*
X41954285Y-62752438D01*
X41954285Y-62752438D02*
X41906666Y-62800057D01*
X41001904Y-62704819D02*
X41478094Y-62704819D01*
X41478094Y-62704819D02*
X41525713Y-63181009D01*
X41525713Y-63181009D02*
X41478094Y-63133390D01*
X41478094Y-63133390D02*
X41382856Y-63085771D01*
X41382856Y-63085771D02*
X41144761Y-63085771D01*
X41144761Y-63085771D02*
X41049523Y-63133390D01*
X41049523Y-63133390D02*
X41001904Y-63181009D01*
X41001904Y-63181009D02*
X40954285Y-63276247D01*
X40954285Y-63276247D02*
X40954285Y-63514342D01*
X40954285Y-63514342D02*
X41001904Y-63609580D01*
X41001904Y-63609580D02*
X41049523Y-63657200D01*
X41049523Y-63657200D02*
X41144761Y-63704819D01*
X41144761Y-63704819D02*
X41382856Y-63704819D01*
X41382856Y-63704819D02*
X41478094Y-63657200D01*
X41478094Y-63657200D02*
X41525713Y-63609580D01*
X34608094Y-69994819D02*
X34608094Y-68994819D01*
X34608094Y-68994819D02*
X34369999Y-68994819D01*
X34369999Y-68994819D02*
X34227142Y-69042438D01*
X34227142Y-69042438D02*
X34131904Y-69137676D01*
X34131904Y-69137676D02*
X34084285Y-69232914D01*
X34084285Y-69232914D02*
X34036666Y-69423390D01*
X34036666Y-69423390D02*
X34036666Y-69566247D01*
X34036666Y-69566247D02*
X34084285Y-69756723D01*
X34084285Y-69756723D02*
X34131904Y-69851961D01*
X34131904Y-69851961D02*
X34227142Y-69947200D01*
X34227142Y-69947200D02*
X34369999Y-69994819D01*
X34369999Y-69994819D02*
X34608094Y-69994819D01*
X33084285Y-69994819D02*
X33655713Y-69994819D01*
X33369999Y-69994819D02*
X33369999Y-68994819D01*
X33369999Y-68994819D02*
X33465237Y-69137676D01*
X33465237Y-69137676D02*
X33560475Y-69232914D01*
X33560475Y-69232914D02*
X33655713Y-69280533D01*
X39604819Y-69480595D02*
X40414342Y-69480595D01*
X40414342Y-69480595D02*
X40509580Y-69528214D01*
X40509580Y-69528214D02*
X40557200Y-69575833D01*
X40557200Y-69575833D02*
X40604819Y-69671071D01*
X40604819Y-69671071D02*
X40604819Y-69861547D01*
X40604819Y-69861547D02*
X40557200Y-69956785D01*
X40557200Y-69956785D02*
X40509580Y-70004404D01*
X40509580Y-70004404D02*
X40414342Y-70052023D01*
X40414342Y-70052023D02*
X39604819Y-70052023D01*
X39604819Y-70432976D02*
X39604819Y-71052023D01*
X39604819Y-71052023D02*
X39985771Y-70718690D01*
X39985771Y-70718690D02*
X39985771Y-70861547D01*
X39985771Y-70861547D02*
X40033390Y-70956785D01*
X40033390Y-70956785D02*
X40081009Y-71004404D01*
X40081009Y-71004404D02*
X40176247Y-71052023D01*
X40176247Y-71052023D02*
X40414342Y-71052023D01*
X40414342Y-71052023D02*
X40509580Y-71004404D01*
X40509580Y-71004404D02*
X40557200Y-70956785D01*
X40557200Y-70956785D02*
X40604819Y-70861547D01*
X40604819Y-70861547D02*
X40604819Y-70575833D01*
X40604819Y-70575833D02*
X40557200Y-70480595D01*
X40557200Y-70480595D02*
X40509580Y-70432976D01*
X32446618Y-29684837D02*
X31946618Y-28818812D01*
X31946618Y-28818812D02*
X31740421Y-28937859D01*
X31740421Y-28937859D02*
X31640513Y-29050527D01*
X31640513Y-29050527D02*
X31605653Y-29180625D01*
X31605653Y-29180625D02*
X31612033Y-29286913D01*
X31612033Y-29286913D02*
X31666032Y-29475680D01*
X31666032Y-29475680D02*
X31737460Y-29599398D01*
X31737460Y-29599398D02*
X31873938Y-29740545D01*
X31873938Y-29740545D02*
X31962796Y-29799214D01*
X31962796Y-29799214D02*
X32092894Y-29834074D01*
X32092894Y-29834074D02*
X32240421Y-29803885D01*
X32240421Y-29803885D02*
X32446618Y-29684837D01*
X30876105Y-29821772D02*
X31209439Y-30399123D01*
X30891826Y-29372810D02*
X31455165Y-29872352D01*
X31455165Y-29872352D02*
X30919054Y-30181876D01*
X34196666Y-68464819D02*
X34529999Y-67988628D01*
X34768094Y-68464819D02*
X34768094Y-67464819D01*
X34768094Y-67464819D02*
X34387142Y-67464819D01*
X34387142Y-67464819D02*
X34291904Y-67512438D01*
X34291904Y-67512438D02*
X34244285Y-67560057D01*
X34244285Y-67560057D02*
X34196666Y-67655295D01*
X34196666Y-67655295D02*
X34196666Y-67798152D01*
X34196666Y-67798152D02*
X34244285Y-67893390D01*
X34244285Y-67893390D02*
X34291904Y-67941009D01*
X34291904Y-67941009D02*
X34387142Y-67988628D01*
X34387142Y-67988628D02*
X34768094Y-67988628D01*
X33339523Y-67464819D02*
X33529999Y-67464819D01*
X33529999Y-67464819D02*
X33625237Y-67512438D01*
X33625237Y-67512438D02*
X33672856Y-67560057D01*
X33672856Y-67560057D02*
X33768094Y-67702914D01*
X33768094Y-67702914D02*
X33815713Y-67893390D01*
X33815713Y-67893390D02*
X33815713Y-68274342D01*
X33815713Y-68274342D02*
X33768094Y-68369580D01*
X33768094Y-68369580D02*
X33720475Y-68417200D01*
X33720475Y-68417200D02*
X33625237Y-68464819D01*
X33625237Y-68464819D02*
X33434761Y-68464819D01*
X33434761Y-68464819D02*
X33339523Y-68417200D01*
X33339523Y-68417200D02*
X33291904Y-68369580D01*
X33291904Y-68369580D02*
X33244285Y-68274342D01*
X33244285Y-68274342D02*
X33244285Y-68036247D01*
X33244285Y-68036247D02*
X33291904Y-67941009D01*
X33291904Y-67941009D02*
X33339523Y-67893390D01*
X33339523Y-67893390D02*
X33434761Y-67845771D01*
X33434761Y-67845771D02*
X33625237Y-67845771D01*
X33625237Y-67845771D02*
X33720475Y-67893390D01*
X33720475Y-67893390D02*
X33768094Y-67941009D01*
X33768094Y-67941009D02*
X33815713Y-68036247D01*
X40124819Y-62411905D02*
X39124819Y-62411905D01*
X39124819Y-62411905D02*
X39124819Y-62650000D01*
X39124819Y-62650000D02*
X39172438Y-62792857D01*
X39172438Y-62792857D02*
X39267676Y-62888095D01*
X39267676Y-62888095D02*
X39362914Y-62935714D01*
X39362914Y-62935714D02*
X39553390Y-62983333D01*
X39553390Y-62983333D02*
X39696247Y-62983333D01*
X39696247Y-62983333D02*
X39886723Y-62935714D01*
X39886723Y-62935714D02*
X39981961Y-62888095D01*
X39981961Y-62888095D02*
X40077200Y-62792857D01*
X40077200Y-62792857D02*
X40124819Y-62650000D01*
X40124819Y-62650000D02*
X40124819Y-62411905D01*
X39220057Y-63364286D02*
X39172438Y-63411905D01*
X39172438Y-63411905D02*
X39124819Y-63507143D01*
X39124819Y-63507143D02*
X39124819Y-63745238D01*
X39124819Y-63745238D02*
X39172438Y-63840476D01*
X39172438Y-63840476D02*
X39220057Y-63888095D01*
X39220057Y-63888095D02*
X39315295Y-63935714D01*
X39315295Y-63935714D02*
X39410533Y-63935714D01*
X39410533Y-63935714D02*
X39553390Y-63888095D01*
X39553390Y-63888095D02*
X40124819Y-63316667D01*
X40124819Y-63316667D02*
X40124819Y-63935714D01*
X20804819Y-79693333D02*
X20328628Y-79360000D01*
X20804819Y-79121905D02*
X19804819Y-79121905D01*
X19804819Y-79121905D02*
X19804819Y-79502857D01*
X19804819Y-79502857D02*
X19852438Y-79598095D01*
X19852438Y-79598095D02*
X19900057Y-79645714D01*
X19900057Y-79645714D02*
X19995295Y-79693333D01*
X19995295Y-79693333D02*
X20138152Y-79693333D01*
X20138152Y-79693333D02*
X20233390Y-79645714D01*
X20233390Y-79645714D02*
X20281009Y-79598095D01*
X20281009Y-79598095D02*
X20328628Y-79502857D01*
X20328628Y-79502857D02*
X20328628Y-79121905D01*
X20804819Y-80645714D02*
X20804819Y-80074286D01*
X20804819Y-80360000D02*
X19804819Y-80360000D01*
X19804819Y-80360000D02*
X19947676Y-80264762D01*
X19947676Y-80264762D02*
X20042914Y-80169524D01*
X20042914Y-80169524D02*
X20090533Y-80074286D01*
X40546666Y-77069580D02*
X40594285Y-77117200D01*
X40594285Y-77117200D02*
X40737142Y-77164819D01*
X40737142Y-77164819D02*
X40832380Y-77164819D01*
X40832380Y-77164819D02*
X40975237Y-77117200D01*
X40975237Y-77117200D02*
X41070475Y-77021961D01*
X41070475Y-77021961D02*
X41118094Y-76926723D01*
X41118094Y-76926723D02*
X41165713Y-76736247D01*
X41165713Y-76736247D02*
X41165713Y-76593390D01*
X41165713Y-76593390D02*
X41118094Y-76402914D01*
X41118094Y-76402914D02*
X41070475Y-76307676D01*
X41070475Y-76307676D02*
X40975237Y-76212438D01*
X40975237Y-76212438D02*
X40832380Y-76164819D01*
X40832380Y-76164819D02*
X40737142Y-76164819D01*
X40737142Y-76164819D02*
X40594285Y-76212438D01*
X40594285Y-76212438D02*
X40546666Y-76260057D01*
X39689523Y-76498152D02*
X39689523Y-77164819D01*
X39927618Y-76117200D02*
X40165713Y-76831485D01*
X40165713Y-76831485D02*
X39546666Y-76831485D01*
X28132857Y-31234819D02*
X28466190Y-30758628D01*
X28704285Y-31234819D02*
X28704285Y-30234819D01*
X28704285Y-30234819D02*
X28323333Y-30234819D01*
X28323333Y-30234819D02*
X28228095Y-30282438D01*
X28228095Y-30282438D02*
X28180476Y-30330057D01*
X28180476Y-30330057D02*
X28132857Y-30425295D01*
X28132857Y-30425295D02*
X28132857Y-30568152D01*
X28132857Y-30568152D02*
X28180476Y-30663390D01*
X28180476Y-30663390D02*
X28228095Y-30711009D01*
X28228095Y-30711009D02*
X28323333Y-30758628D01*
X28323333Y-30758628D02*
X28704285Y-30758628D01*
X27180476Y-31234819D02*
X27751904Y-31234819D01*
X27466190Y-31234819D02*
X27466190Y-30234819D01*
X27466190Y-30234819D02*
X27561428Y-30377676D01*
X27561428Y-30377676D02*
X27656666Y-30472914D01*
X27656666Y-30472914D02*
X27751904Y-30520533D01*
X26561428Y-30234819D02*
X26466190Y-30234819D01*
X26466190Y-30234819D02*
X26370952Y-30282438D01*
X26370952Y-30282438D02*
X26323333Y-30330057D01*
X26323333Y-30330057D02*
X26275714Y-30425295D01*
X26275714Y-30425295D02*
X26228095Y-30615771D01*
X26228095Y-30615771D02*
X26228095Y-30853866D01*
X26228095Y-30853866D02*
X26275714Y-31044342D01*
X26275714Y-31044342D02*
X26323333Y-31139580D01*
X26323333Y-31139580D02*
X26370952Y-31187200D01*
X26370952Y-31187200D02*
X26466190Y-31234819D01*
X26466190Y-31234819D02*
X26561428Y-31234819D01*
X26561428Y-31234819D02*
X26656666Y-31187200D01*
X26656666Y-31187200D02*
X26704285Y-31139580D01*
X26704285Y-31139580D02*
X26751904Y-31044342D01*
X26751904Y-31044342D02*
X26799523Y-30853866D01*
X26799523Y-30853866D02*
X26799523Y-30615771D01*
X26799523Y-30615771D02*
X26751904Y-30425295D01*
X26751904Y-30425295D02*
X26704285Y-30330057D01*
X26704285Y-30330057D02*
X26656666Y-30282438D01*
X26656666Y-30282438D02*
X26561428Y-30234819D01*
X32624819Y-72443333D02*
X32148628Y-72110000D01*
X32624819Y-71871905D02*
X31624819Y-71871905D01*
X31624819Y-71871905D02*
X31624819Y-72252857D01*
X31624819Y-72252857D02*
X31672438Y-72348095D01*
X31672438Y-72348095D02*
X31720057Y-72395714D01*
X31720057Y-72395714D02*
X31815295Y-72443333D01*
X31815295Y-72443333D02*
X31958152Y-72443333D01*
X31958152Y-72443333D02*
X32053390Y-72395714D01*
X32053390Y-72395714D02*
X32101009Y-72348095D01*
X32101009Y-72348095D02*
X32148628Y-72252857D01*
X32148628Y-72252857D02*
X32148628Y-71871905D01*
X31624819Y-72776667D02*
X31624819Y-73395714D01*
X31624819Y-73395714D02*
X32005771Y-73062381D01*
X32005771Y-73062381D02*
X32005771Y-73205238D01*
X32005771Y-73205238D02*
X32053390Y-73300476D01*
X32053390Y-73300476D02*
X32101009Y-73348095D01*
X32101009Y-73348095D02*
X32196247Y-73395714D01*
X32196247Y-73395714D02*
X32434342Y-73395714D01*
X32434342Y-73395714D02*
X32529580Y-73348095D01*
X32529580Y-73348095D02*
X32577200Y-73300476D01*
X32577200Y-73300476D02*
X32624819Y-73205238D01*
X32624819Y-73205238D02*
X32624819Y-72919524D01*
X32624819Y-72919524D02*
X32577200Y-72824286D01*
X32577200Y-72824286D02*
X32529580Y-72776667D01*
X34208094Y-37584819D02*
X34208094Y-36584819D01*
X34208094Y-36584819D02*
X33969999Y-36584819D01*
X33969999Y-36584819D02*
X33827142Y-36632438D01*
X33827142Y-36632438D02*
X33731904Y-36727676D01*
X33731904Y-36727676D02*
X33684285Y-36822914D01*
X33684285Y-36822914D02*
X33636666Y-37013390D01*
X33636666Y-37013390D02*
X33636666Y-37156247D01*
X33636666Y-37156247D02*
X33684285Y-37346723D01*
X33684285Y-37346723D02*
X33731904Y-37441961D01*
X33731904Y-37441961D02*
X33827142Y-37537200D01*
X33827142Y-37537200D02*
X33969999Y-37584819D01*
X33969999Y-37584819D02*
X34208094Y-37584819D01*
X32779523Y-36584819D02*
X32969999Y-36584819D01*
X32969999Y-36584819D02*
X33065237Y-36632438D01*
X33065237Y-36632438D02*
X33112856Y-36680057D01*
X33112856Y-36680057D02*
X33208094Y-36822914D01*
X33208094Y-36822914D02*
X33255713Y-37013390D01*
X33255713Y-37013390D02*
X33255713Y-37394342D01*
X33255713Y-37394342D02*
X33208094Y-37489580D01*
X33208094Y-37489580D02*
X33160475Y-37537200D01*
X33160475Y-37537200D02*
X33065237Y-37584819D01*
X33065237Y-37584819D02*
X32874761Y-37584819D01*
X32874761Y-37584819D02*
X32779523Y-37537200D01*
X32779523Y-37537200D02*
X32731904Y-37489580D01*
X32731904Y-37489580D02*
X32684285Y-37394342D01*
X32684285Y-37394342D02*
X32684285Y-37156247D01*
X32684285Y-37156247D02*
X32731904Y-37061009D01*
X32731904Y-37061009D02*
X32779523Y-37013390D01*
X32779523Y-37013390D02*
X32874761Y-36965771D01*
X32874761Y-36965771D02*
X33065237Y-36965771D01*
X33065237Y-36965771D02*
X33160475Y-37013390D01*
X33160475Y-37013390D02*
X33208094Y-37061009D01*
X33208094Y-37061009D02*
X33255713Y-37156247D01*
X45826666Y-75609580D02*
X45874285Y-75657200D01*
X45874285Y-75657200D02*
X46017142Y-75704819D01*
X46017142Y-75704819D02*
X46112380Y-75704819D01*
X46112380Y-75704819D02*
X46255237Y-75657200D01*
X46255237Y-75657200D02*
X46350475Y-75561961D01*
X46350475Y-75561961D02*
X46398094Y-75466723D01*
X46398094Y-75466723D02*
X46445713Y-75276247D01*
X46445713Y-75276247D02*
X46445713Y-75133390D01*
X46445713Y-75133390D02*
X46398094Y-74942914D01*
X46398094Y-74942914D02*
X46350475Y-74847676D01*
X46350475Y-74847676D02*
X46255237Y-74752438D01*
X46255237Y-74752438D02*
X46112380Y-74704819D01*
X46112380Y-74704819D02*
X46017142Y-74704819D01*
X46017142Y-74704819D02*
X45874285Y-74752438D01*
X45874285Y-74752438D02*
X45826666Y-74800057D01*
X44969523Y-74704819D02*
X45159999Y-74704819D01*
X45159999Y-74704819D02*
X45255237Y-74752438D01*
X45255237Y-74752438D02*
X45302856Y-74800057D01*
X45302856Y-74800057D02*
X45398094Y-74942914D01*
X45398094Y-74942914D02*
X45445713Y-75133390D01*
X45445713Y-75133390D02*
X45445713Y-75514342D01*
X45445713Y-75514342D02*
X45398094Y-75609580D01*
X45398094Y-75609580D02*
X45350475Y-75657200D01*
X45350475Y-75657200D02*
X45255237Y-75704819D01*
X45255237Y-75704819D02*
X45064761Y-75704819D01*
X45064761Y-75704819D02*
X44969523Y-75657200D01*
X44969523Y-75657200D02*
X44921904Y-75609580D01*
X44921904Y-75609580D02*
X44874285Y-75514342D01*
X44874285Y-75514342D02*
X44874285Y-75276247D01*
X44874285Y-75276247D02*
X44921904Y-75181009D01*
X44921904Y-75181009D02*
X44969523Y-75133390D01*
X44969523Y-75133390D02*
X45064761Y-75085771D01*
X45064761Y-75085771D02*
X45255237Y-75085771D01*
X45255237Y-75085771D02*
X45350475Y-75133390D01*
X45350475Y-75133390D02*
X45398094Y-75181009D01*
X45398094Y-75181009D02*
X45445713Y-75276247D01*
X46707557Y-59454761D02*
X46659938Y-59359523D01*
X46659938Y-59359523D02*
X46564700Y-59264285D01*
X46564700Y-59264285D02*
X46421842Y-59121428D01*
X46421842Y-59121428D02*
X46374223Y-59026190D01*
X46374223Y-59026190D02*
X46374223Y-58930952D01*
X46612319Y-58978571D02*
X46564700Y-58883333D01*
X46564700Y-58883333D02*
X46469461Y-58788095D01*
X46469461Y-58788095D02*
X46278985Y-58740476D01*
X46278985Y-58740476D02*
X45945652Y-58740476D01*
X45945652Y-58740476D02*
X45755176Y-58788095D01*
X45755176Y-58788095D02*
X45659938Y-58883333D01*
X45659938Y-58883333D02*
X45612319Y-58978571D01*
X45612319Y-58978571D02*
X45612319Y-59169047D01*
X45612319Y-59169047D02*
X45659938Y-59264285D01*
X45659938Y-59264285D02*
X45755176Y-59359523D01*
X45755176Y-59359523D02*
X45945652Y-59407142D01*
X45945652Y-59407142D02*
X46278985Y-59407142D01*
X46278985Y-59407142D02*
X46469461Y-59359523D01*
X46469461Y-59359523D02*
X46564700Y-59264285D01*
X46564700Y-59264285D02*
X46612319Y-59169047D01*
X46612319Y-59169047D02*
X46612319Y-58978571D01*
X46612319Y-60359523D02*
X46612319Y-59788095D01*
X46612319Y-60073809D02*
X45612319Y-60073809D01*
X45612319Y-60073809D02*
X45755176Y-59978571D01*
X45755176Y-59978571D02*
X45850414Y-59883333D01*
X45850414Y-59883333D02*
X45898033Y-59788095D01*
X22566666Y-70414819D02*
X22899999Y-69938628D01*
X23138094Y-70414819D02*
X23138094Y-69414819D01*
X23138094Y-69414819D02*
X22757142Y-69414819D01*
X22757142Y-69414819D02*
X22661904Y-69462438D01*
X22661904Y-69462438D02*
X22614285Y-69510057D01*
X22614285Y-69510057D02*
X22566666Y-69605295D01*
X22566666Y-69605295D02*
X22566666Y-69748152D01*
X22566666Y-69748152D02*
X22614285Y-69843390D01*
X22614285Y-69843390D02*
X22661904Y-69891009D01*
X22661904Y-69891009D02*
X22757142Y-69938628D01*
X22757142Y-69938628D02*
X23138094Y-69938628D01*
X21709523Y-69748152D02*
X21709523Y-70414819D01*
X21947618Y-69367200D02*
X22185713Y-70081485D01*
X22185713Y-70081485D02*
X21566666Y-70081485D01*
X42216666Y-64904819D02*
X42549999Y-64428628D01*
X42788094Y-64904819D02*
X42788094Y-63904819D01*
X42788094Y-63904819D02*
X42407142Y-63904819D01*
X42407142Y-63904819D02*
X42311904Y-63952438D01*
X42311904Y-63952438D02*
X42264285Y-64000057D01*
X42264285Y-64000057D02*
X42216666Y-64095295D01*
X42216666Y-64095295D02*
X42216666Y-64238152D01*
X42216666Y-64238152D02*
X42264285Y-64333390D01*
X42264285Y-64333390D02*
X42311904Y-64381009D01*
X42311904Y-64381009D02*
X42407142Y-64428628D01*
X42407142Y-64428628D02*
X42788094Y-64428628D01*
X41883332Y-63904819D02*
X41216666Y-63904819D01*
X41216666Y-63904819D02*
X41645237Y-64904819D01*
X23830501Y-30589591D02*
X24172522Y-29649898D01*
X24172522Y-29649898D02*
X23948785Y-29568465D01*
X23948785Y-29568465D02*
X23798257Y-29564352D01*
X23798257Y-29564352D02*
X23676189Y-29621273D01*
X23676189Y-29621273D02*
X23598868Y-29694481D01*
X23598868Y-29694481D02*
X23488974Y-29857184D01*
X23488974Y-29857184D02*
X23440114Y-29991425D01*
X23440114Y-29991425D02*
X23419715Y-30186701D01*
X23419715Y-30186701D02*
X23431889Y-30292482D01*
X23431889Y-30292482D02*
X23488810Y-30414550D01*
X23488810Y-30414550D02*
X23606765Y-30508158D01*
X23606765Y-30508158D02*
X23830501Y-30589591D01*
X23322323Y-29340451D02*
X22740609Y-29128725D01*
X22740609Y-29128725D02*
X22923546Y-29600710D01*
X22923546Y-29600710D02*
X22789305Y-29551850D01*
X22789305Y-29551850D02*
X22683523Y-29564023D01*
X22683523Y-29564023D02*
X22622490Y-29592484D01*
X22622490Y-29592484D02*
X22545169Y-29665692D01*
X22545169Y-29665692D02*
X22463736Y-29889428D01*
X22463736Y-29889428D02*
X22475909Y-29995209D01*
X22475909Y-29995209D02*
X22504370Y-30056243D01*
X22504370Y-30056243D02*
X22577578Y-30133564D01*
X22577578Y-30133564D02*
X22846062Y-30231284D01*
X22846062Y-30231284D02*
X22951843Y-30219110D01*
X22951843Y-30219110D02*
X23012877Y-30190650D01*
X27876666Y-35624819D02*
X28209999Y-35148628D01*
X28448094Y-35624819D02*
X28448094Y-34624819D01*
X28448094Y-34624819D02*
X28067142Y-34624819D01*
X28067142Y-34624819D02*
X27971904Y-34672438D01*
X27971904Y-34672438D02*
X27924285Y-34720057D01*
X27924285Y-34720057D02*
X27876666Y-34815295D01*
X27876666Y-34815295D02*
X27876666Y-34958152D01*
X27876666Y-34958152D02*
X27924285Y-35053390D01*
X27924285Y-35053390D02*
X27971904Y-35101009D01*
X27971904Y-35101009D02*
X28067142Y-35148628D01*
X28067142Y-35148628D02*
X28448094Y-35148628D01*
X27400475Y-35624819D02*
X27209999Y-35624819D01*
X27209999Y-35624819D02*
X27114761Y-35577200D01*
X27114761Y-35577200D02*
X27067142Y-35529580D01*
X27067142Y-35529580D02*
X26971904Y-35386723D01*
X26971904Y-35386723D02*
X26924285Y-35196247D01*
X26924285Y-35196247D02*
X26924285Y-34815295D01*
X26924285Y-34815295D02*
X26971904Y-34720057D01*
X26971904Y-34720057D02*
X27019523Y-34672438D01*
X27019523Y-34672438D02*
X27114761Y-34624819D01*
X27114761Y-34624819D02*
X27305237Y-34624819D01*
X27305237Y-34624819D02*
X27400475Y-34672438D01*
X27400475Y-34672438D02*
X27448094Y-34720057D01*
X27448094Y-34720057D02*
X27495713Y-34815295D01*
X27495713Y-34815295D02*
X27495713Y-35053390D01*
X27495713Y-35053390D02*
X27448094Y-35148628D01*
X27448094Y-35148628D02*
X27400475Y-35196247D01*
X27400475Y-35196247D02*
X27305237Y-35243866D01*
X27305237Y-35243866D02*
X27114761Y-35243866D01*
X27114761Y-35243866D02*
X27019523Y-35196247D01*
X27019523Y-35196247D02*
X26971904Y-35148628D01*
X26971904Y-35148628D02*
X26924285Y-35053390D01*
D11*
%TO.C,U2*%
X36117500Y-72780000D02*
X36117500Y-73580000D01*
X36117500Y-74380000D02*
X36117500Y-73580000D01*
X39237500Y-72780000D02*
X39237500Y-73580000D01*
X39237500Y-74380000D02*
X39237500Y-73580000D01*
X36167500Y-72280000D02*
X35837500Y-72520000D01*
X35837500Y-72040000D01*
X36167500Y-72280000D01*
G36*
X36167500Y-72280000D02*
G01*
X35837500Y-72520000D01*
X35837500Y-72040000D01*
X36167500Y-72280000D01*
G37*
%TO.C,R11*%
X24397258Y-38777500D02*
X23922742Y-38777500D01*
X24397258Y-39822500D02*
X23922742Y-39822500D01*
%TO.C,U1*%
X26600000Y-70180000D02*
X26600000Y-70980000D01*
X26600000Y-71780000D02*
X26600000Y-70980000D01*
X29720000Y-70180000D02*
X29720000Y-70980000D01*
X29720000Y-71780000D02*
X29720000Y-70980000D01*
X26650000Y-69680000D02*
X26320000Y-69920000D01*
X26320000Y-69440000D01*
X26650000Y-69680000D01*
G36*
X26650000Y-69680000D02*
G01*
X26320000Y-69920000D01*
X26320000Y-69440000D01*
X26650000Y-69680000D01*
G37*
%TO.C,R2*%
X34597500Y-77202742D02*
X34597500Y-77677258D01*
X35642500Y-77202742D02*
X35642500Y-77677258D01*
%TO.C,J1*%
X32350000Y-79192500D02*
X32350000Y-77562500D01*
X23150000Y-79192500D02*
X23150000Y-77562500D01*
%TO.C,D5*%
X22425000Y-36005000D02*
X22425000Y-38275000D01*
X22425000Y-38275000D02*
X26310000Y-38275000D01*
X26310000Y-36005000D02*
X22425000Y-36005000D01*
%TO.C,R5*%
X24512742Y-70967500D02*
X24987258Y-70967500D01*
X24512742Y-72012500D02*
X24987258Y-72012500D01*
%TO.C,R12*%
X30462742Y-38777500D02*
X30937258Y-38777500D01*
X30462742Y-39822500D02*
X30937258Y-39822500D01*
%TO.C,C1*%
X28431252Y-73355000D02*
X27908748Y-73355000D01*
X28431252Y-74825000D02*
X27908748Y-74825000D01*
%TO.C,C2*%
X34095000Y-73621252D02*
X34095000Y-73098748D01*
X35565000Y-73621252D02*
X35565000Y-73098748D01*
%TO.C,C3*%
X37961252Y-75955000D02*
X37438748Y-75955000D01*
X37961252Y-77425000D02*
X37438748Y-77425000D01*
%TO.C,R8*%
X44302742Y-64997500D02*
X44777258Y-64997500D01*
X44302742Y-66042500D02*
X44777258Y-66042500D01*
%TO.C,C5*%
X41005000Y-61161252D02*
X41005000Y-60638748D01*
X42475000Y-61161252D02*
X42475000Y-60638748D01*
%TO.C,D1*%
X30035000Y-68815000D02*
X30035000Y-70285000D01*
X30035000Y-70285000D02*
X32320000Y-70285000D01*
X32320000Y-68815000D02*
X30035000Y-68815000D01*
%TO.C,U3*%
X40885000Y-68042500D02*
X40885000Y-70242500D01*
X40885000Y-72442500D02*
X40885000Y-70242500D01*
X46355000Y-68042500D02*
X46355000Y-70242500D01*
X46355000Y-72442500D02*
X46355000Y-70242500D01*
X46135000Y-74432500D02*
X45655000Y-74432500D01*
X45895000Y-74102500D01*
X46135000Y-74432500D01*
G36*
X46135000Y-74432500D02*
G01*
X45655000Y-74432500D01*
X45895000Y-74102500D01*
X46135000Y-74432500D01*
G37*
%TO.C,D4*%
X30053632Y-31409561D02*
X31188632Y-33375439D01*
X31188632Y-33375439D02*
X34553141Y-31432939D01*
X33418141Y-29467061D02*
X30053632Y-31409561D01*
%TO.C,R6*%
X31252742Y-67497500D02*
X31727258Y-67497500D01*
X31252742Y-68542500D02*
X31727258Y-68542500D01*
%TO.C,D2*%
X38985000Y-59245000D02*
X38985000Y-61530000D01*
X40455000Y-59245000D02*
X38985000Y-59245000D01*
X40455000Y-61530000D02*
X40455000Y-59245000D01*
%TO.C,R1*%
X19827500Y-77212742D02*
X19827500Y-77687258D01*
X20872500Y-77212742D02*
X20872500Y-77687258D01*
%TO.C,C4*%
X42818748Y-76015000D02*
X43341252Y-76015000D01*
X42818748Y-77485000D02*
X43341252Y-77485000D01*
%TO.C,R10*%
X27382742Y-32702500D02*
X27857258Y-32702500D01*
X27382742Y-31657500D02*
X27857258Y-31657500D01*
%TO.C,R3*%
X30257500Y-73377258D02*
X30257500Y-72902742D01*
X31302500Y-73377258D02*
X31302500Y-72902742D01*
%TO.C,D6*%
X28570000Y-38275000D02*
X32455000Y-38275000D01*
X32455000Y-36005000D02*
X28570000Y-36005000D01*
X32455000Y-38275000D02*
X32455000Y-36005000D01*
%TO.C,C6*%
X42949420Y-74450000D02*
X43230580Y-74450000D01*
X42949420Y-75470000D02*
X43230580Y-75470000D01*
%TO.C,Q1*%
X43070000Y-60490000D02*
X43070000Y-61140000D01*
X43070000Y-61790000D02*
X43070000Y-61140000D01*
X46190000Y-60490000D02*
X46190000Y-61140000D01*
X46190000Y-61790000D02*
X46190000Y-61140000D01*
X46470000Y-62542500D02*
X46140000Y-62302500D01*
X46470000Y-62062500D01*
X46470000Y-62542500D01*
G36*
X46470000Y-62542500D02*
G01*
X46140000Y-62302500D01*
X46470000Y-62062500D01*
X46470000Y-62542500D01*
G37*
%TO.C,R4*%
X24512742Y-69437500D02*
X24987258Y-69437500D01*
X24512742Y-70482500D02*
X24987258Y-70482500D01*
%TO.C,R7*%
X44302742Y-63437500D02*
X44777258Y-63437500D01*
X44302742Y-64482500D02*
X44777258Y-64482500D01*
%TO.C,D3*%
X20778299Y-32139319D02*
X24429005Y-33468067D01*
X24429005Y-33468067D02*
X25205391Y-31334965D01*
X25205391Y-31334965D02*
X21554685Y-30006217D01*
%TO.C,R9*%
X27857258Y-34262500D02*
X27382742Y-34262500D01*
X27857258Y-33217500D02*
X27382742Y-33217500D01*
%TD*%
M02*
