%TF.GenerationSoftware,KiCad,Pcbnew,8.0.4*%
%TF.CreationDate,2024-07-22T12:01:49+03:00*%
%TF.ProjectId,purrChash,70757272-4368-4617-9368-2e6b69636164,rev?*%
%TF.SameCoordinates,Original*%
%TF.FileFunction,Soldermask,Bot*%
%TF.FilePolarity,Negative*%
%FSLAX46Y46*%
G04 Gerber Fmt 4.6, Leading zero omitted, Abs format (unit mm)*
G04 Created by KiCad (PCBNEW 8.0.4) date 2024-07-22 12:01:49*
%MOMM*%
%LPD*%
G01*
G04 APERTURE LIST*
G04 Aperture macros list*
%AMRoundRect*
0 Rectangle with rounded corners*
0 $1 Rounding radius*
0 $2 $3 $4 $5 $6 $7 $8 $9 X,Y pos of 4 corners*
0 Add a 4 corners polygon primitive as box body*
4,1,4,$2,$3,$4,$5,$6,$7,$8,$9,$2,$3,0*
0 Add four circle primitives for the rounded corners*
1,1,$1+$1,$2,$3*
1,1,$1+$1,$4,$5*
1,1,$1+$1,$6,$7*
1,1,$1+$1,$8,$9*
0 Add four rect primitives between the rounded corners*
20,1,$1+$1,$2,$3,$4,$5,0*
20,1,$1+$1,$4,$5,$6,$7,0*
20,1,$1+$1,$6,$7,$8,$9,0*
20,1,$1+$1,$8,$9,$2,$3,0*%
%AMFreePoly0*
4,1,18,-0.925000,0.675000,-0.905970,0.770671,-0.851777,0.851777,-0.770671,0.905970,-0.675000,0.925000,0.675000,0.925000,0.770671,0.905970,0.851777,0.851777,0.905970,0.770671,0.925000,0.675000,0.925000,-0.675000,0.905970,-0.770671,0.851777,-0.851777,0.770671,-0.905970,0.675000,-0.925000,-0.555000,-0.925000,-0.925000,-0.555000,-0.925000,0.675000,-0.925000,0.675000,$1*%
%AMFreePoly1*
4,1,18,-0.925000,0.647500,-0.903877,0.753695,-0.843722,0.843722,-0.753695,0.903877,-0.647500,0.925000,0.647500,0.925000,0.753695,0.903877,0.843722,0.843722,0.903877,0.753695,0.925000,0.647500,0.925000,-0.647500,0.903877,-0.753695,0.843722,-0.843722,0.753695,-0.903877,0.647500,-0.925000,-0.370000,-0.925000,-0.925000,-0.370000,-0.925000,0.647500,-0.925000,0.647500,$1*%
G04 Aperture macros list end*
%ADD10C,0.050000*%
%ADD11C,2.000000*%
%ADD12RoundRect,0.250000X-0.375000X-0.625000X0.375000X-0.625000X0.375000X0.625000X-0.375000X0.625000X0*%
%ADD13RoundRect,0.250000X0.375000X0.625000X-0.375000X0.625000X-0.375000X-0.625000X0.375000X-0.625000X0*%
%ADD14RoundRect,0.250000X-0.012260X-0.728766X0.637260X-0.353766X0.012260X0.728766X-0.637260X0.353766X0*%
%ADD15RoundRect,0.250000X0.566147X0.459050X-0.138622X0.715565X-0.566147X-0.459050X0.138622X-0.715565X0*%
%ADD16RoundRect,0.250000X-0.675000X-0.675000X0.675000X-0.675000X0.675000X0.675000X-0.675000X0.675000X0*%
%ADD17FreePoly0,0.000000*%
%ADD18RoundRect,0.200000X-0.275000X0.200000X-0.275000X-0.200000X0.275000X-0.200000X0.275000X0.200000X0*%
%ADD19RoundRect,0.200000X0.200000X0.275000X-0.200000X0.275000X-0.200000X-0.275000X0.200000X-0.275000X0*%
%ADD20RoundRect,0.200000X0.275000X-0.200000X0.275000X0.200000X-0.275000X0.200000X-0.275000X-0.200000X0*%
%ADD21RoundRect,0.175000X0.175000X0.425000X-0.175000X0.425000X-0.175000X-0.425000X0.175000X-0.425000X0*%
%ADD22RoundRect,0.190000X-0.190000X-0.410000X0.190000X-0.410000X0.190000X0.410000X-0.190000X0.410000X0*%
%ADD23RoundRect,0.200000X-0.200000X-0.400000X0.200000X-0.400000X0.200000X0.400000X-0.200000X0.400000X0*%
%ADD24RoundRect,0.175000X-0.175000X-0.425000X0.175000X-0.425000X0.175000X0.425000X-0.175000X0.425000X0*%
%ADD25RoundRect,0.190000X0.190000X0.410000X-0.190000X0.410000X-0.190000X-0.410000X0.190000X-0.410000X0*%
%ADD26RoundRect,0.200000X0.200000X0.400000X-0.200000X0.400000X-0.200000X-0.400000X0.200000X-0.400000X0*%
%ADD27RoundRect,0.250000X0.650000X0.500000X-0.650000X0.500000X-0.650000X-0.500000X0.650000X-0.500000X0*%
%ADD28RoundRect,0.250000X0.650000X0.425000X-0.650000X0.425000X-0.650000X-0.425000X0.650000X-0.425000X0*%
%ADD29RoundRect,0.250000X0.675000X0.675000X-0.675000X0.675000X-0.675000X-0.675000X0.675000X-0.675000X0*%
%ADD30FreePoly1,180.000000*%
%ADD31RoundRect,0.250000X-0.250000X-0.475000X0.250000X-0.475000X0.250000X0.475000X-0.250000X0.475000X0*%
%ADD32RoundRect,0.250000X-0.475000X0.250000X-0.475000X-0.250000X0.475000X-0.250000X0.475000X0.250000X0*%
%ADD33RoundRect,0.250000X0.250000X0.475000X-0.250000X0.475000X-0.250000X-0.475000X0.250000X-0.475000X0*%
%ADD34RoundRect,0.150000X0.150000X-0.587500X0.150000X0.587500X-0.150000X0.587500X-0.150000X-0.587500X0*%
%ADD35RoundRect,0.225000X0.225000X0.250000X-0.225000X0.250000X-0.225000X-0.250000X0.225000X-0.250000X0*%
%ADD36RoundRect,0.218750X-0.218750X-0.256250X0.218750X-0.256250X0.218750X0.256250X-0.218750X0.256250X0*%
%ADD37RoundRect,0.218750X-0.256250X0.218750X-0.256250X-0.218750X0.256250X-0.218750X0.256250X0.218750X0*%
%ADD38RoundRect,0.150000X-0.150000X0.512500X-0.150000X-0.512500X0.150000X-0.512500X0.150000X0.512500X0*%
%ADD39RoundRect,0.100000X0.100000X-0.637500X0.100000X0.637500X-0.100000X0.637500X-0.100000X-0.637500X0*%
G04 APERTURE END LIST*
%TO.C,D6*%
D10*
X31560000Y-36170000D02*
X28660000Y-36170000D01*
X28660000Y-37970000D01*
X31560000Y-37970000D01*
X31560000Y-36170000D01*
G36*
X31560000Y-36170000D02*
G01*
X28660000Y-36170000D01*
X28660000Y-37970000D01*
X31560000Y-37970000D01*
X31560000Y-36170000D01*
G37*
X31560000Y-36170000D02*
X28660000Y-36170000D01*
X28660000Y-37970000D01*
X31560000Y-37970000D01*
X31560000Y-36170000D01*
G36*
X31560000Y-36170000D02*
G01*
X28660000Y-36170000D01*
X28660000Y-37970000D01*
X31560000Y-37970000D01*
X31560000Y-36170000D01*
G37*
%TO.C,D5*%
X23180000Y-38020000D02*
X26080000Y-38020000D01*
X26080000Y-36220000D01*
X23180000Y-36220000D01*
X23180000Y-38020000D01*
G36*
X23180000Y-38020000D02*
G01*
X26080000Y-38020000D01*
X26080000Y-36220000D01*
X23180000Y-36220000D01*
X23180000Y-38020000D01*
G37*
X23180000Y-38020000D02*
X26080000Y-38020000D01*
X26080000Y-36220000D01*
X23180000Y-36220000D01*
X23180000Y-38020000D01*
G36*
X23180000Y-38020000D02*
G01*
X26080000Y-38020000D01*
X26080000Y-36220000D01*
X23180000Y-36220000D01*
X23180000Y-38020000D01*
G37*
%TO.C,D4*%
X34435641Y-31229423D02*
X31924167Y-32679423D01*
X31024167Y-31120577D01*
X33535641Y-29670577D01*
X34435641Y-31229423D01*
G36*
X34435641Y-31229423D02*
G01*
X31924167Y-32679423D01*
X31024167Y-31120577D01*
X33535641Y-29670577D01*
X34435641Y-31229423D01*
G37*
X34435641Y-31229423D02*
X31924167Y-32679423D01*
X31024167Y-31120577D01*
X33535641Y-29670577D01*
X34435641Y-31229423D01*
G36*
X34435641Y-31229423D02*
G01*
X31924167Y-32679423D01*
X31024167Y-31120577D01*
X33535641Y-29670577D01*
X34435641Y-31229423D01*
G37*
%TO.C,D3*%
X24199419Y-31218903D02*
X23583782Y-32910350D01*
X20858674Y-31918491D01*
X21474310Y-30227044D01*
X24199419Y-31218903D01*
G36*
X24199419Y-31218903D02*
G01*
X23583782Y-32910350D01*
X20858674Y-31918491D01*
X21474310Y-30227044D01*
X24199419Y-31218903D01*
G37*
X24199419Y-31218903D02*
X23583782Y-32910350D01*
X20858674Y-31918491D01*
X21474310Y-30227044D01*
X24199419Y-31218903D01*
G36*
X24199419Y-31218903D02*
G01*
X23583782Y-32910350D01*
X20858674Y-31918491D01*
X21474310Y-30227044D01*
X24199419Y-31218903D01*
G37*
%TD*%
D11*
%TO.C,REF\u002A\u002A*%
X17490000Y-17120000D03*
%TD*%
D12*
%TO.C,D6*%
X28560000Y-37070000D03*
X31810000Y-37070000D03*
%TD*%
D13*
%TO.C,D5*%
X26180000Y-37120000D03*
X22930000Y-37120000D03*
%TD*%
D14*
%TO.C,D4*%
X31387564Y-31950000D03*
X34202147Y-30325000D03*
%TD*%
D15*
%TO.C,D3*%
X20931569Y-30987263D03*
X23985570Y-32098828D03*
%TD*%
D16*
%TO.C,M1*%
X48750000Y-57760000D03*
D17*
X44550000Y-57760000D03*
%TD*%
D18*
%TO.C,R9*%
X37160000Y-59155000D03*
X37160000Y-60805000D03*
%TD*%
D19*
%TO.C,R8*%
X49455000Y-65710000D03*
X47805000Y-65710000D03*
%TD*%
%TO.C,R7*%
X47825000Y-64280000D03*
X49475000Y-64280000D03*
%TD*%
D20*
%TO.C,R2*%
X34820000Y-76365000D03*
X34820000Y-78015000D03*
%TD*%
D21*
%TO.C,J1*%
X28250000Y-76320000D03*
D22*
X26230000Y-76320000D03*
D23*
X25000000Y-76320000D03*
D24*
X27250000Y-76320000D03*
D25*
X29270000Y-76320000D03*
D26*
X30500000Y-76320000D03*
D27*
X32875000Y-79955000D03*
D28*
X32875000Y-76375000D03*
D27*
X22625000Y-79955000D03*
D28*
X22625000Y-76375000D03*
%TD*%
D29*
%TO.C,BT1*%
X23490000Y-65570000D03*
D30*
X27690000Y-65570000D03*
%TD*%
D19*
%TO.C,R5*%
X25585000Y-71420000D03*
X23935000Y-71420000D03*
%TD*%
D31*
%TO.C,C1*%
X27220000Y-74090000D03*
X29120000Y-74090000D03*
%TD*%
D32*
%TO.C,C2*%
X34730000Y-72530000D03*
X34730000Y-74430000D03*
%TD*%
%TO.C,C5*%
X45980000Y-61830000D03*
X45980000Y-59930000D03*
%TD*%
D19*
%TO.C,R6*%
X32165000Y-67980000D03*
X30515000Y-67980000D03*
%TD*%
D20*
%TO.C,R1*%
X20590000Y-76365000D03*
X20590000Y-78015000D03*
%TD*%
D33*
%TO.C,C4*%
X42130000Y-76750000D03*
X44030000Y-76750000D03*
%TD*%
D18*
%TO.C,R3*%
X30780000Y-72315000D03*
X30780000Y-73965000D03*
%TD*%
D34*
%TO.C,Q1*%
X48662500Y-60392500D03*
X47712500Y-62267500D03*
X49612500Y-62267500D03*
%TD*%
D19*
%TO.C,R4*%
X25575000Y-69960000D03*
X23925000Y-69960000D03*
%TD*%
D31*
%TO.C,C3*%
X36730000Y-76680000D03*
X38630000Y-76680000D03*
%TD*%
D35*
%TO.C,C6*%
X42315000Y-75010000D03*
X43865000Y-75010000D03*
%TD*%
D36*
%TO.C,D1*%
X30582500Y-69510000D03*
X32157500Y-69510000D03*
%TD*%
D37*
%TO.C,D2*%
X43920000Y-61557500D03*
X43920000Y-59982500D03*
%TD*%
D18*
%TO.C,R10*%
X38640000Y-60785000D03*
X38640000Y-59135000D03*
%TD*%
%TO.C,R11*%
X40200000Y-60775000D03*
X40200000Y-59125000D03*
%TD*%
%TO.C,R12*%
X41640000Y-60775000D03*
X41640000Y-59125000D03*
%TD*%
D38*
%TO.C,U1*%
X27260000Y-69942500D03*
X28210000Y-69942500D03*
X29160000Y-69942500D03*
X29160000Y-72217500D03*
X28210000Y-72217500D03*
X27260000Y-72217500D03*
%TD*%
%TO.C,U2*%
X36730000Y-74767500D03*
X38630000Y-74767500D03*
X38630000Y-72492500D03*
X37680000Y-72492500D03*
X36730000Y-72492500D03*
%TD*%
D39*
%TO.C,U3*%
X45895000Y-73105000D03*
X45245000Y-73105000D03*
X44595000Y-73105000D03*
X43945000Y-73105000D03*
X43295000Y-73105000D03*
X42645000Y-73105000D03*
X41995000Y-73105000D03*
X41345000Y-73105000D03*
X41345000Y-67380000D03*
X41995000Y-67380000D03*
X42645000Y-67380000D03*
X43295000Y-67380000D03*
X43945000Y-67380000D03*
X44595000Y-67380000D03*
X45245000Y-67380000D03*
X45895000Y-67380000D03*
%TD*%
M02*
