%TF.GenerationSoftware,KiCad,Pcbnew,8.0.4*%
%TF.CreationDate,2024-07-22T12:01:49+03:00*%
%TF.ProjectId,purrChash,70757272-4368-4617-9368-2e6b69636164,rev?*%
%TF.SameCoordinates,Original*%
%TF.FileFunction,Profile,NP*%
%FSLAX46Y46*%
G04 Gerber Fmt 4.6, Leading zero omitted, Abs format (unit mm)*
G04 Created by KiCad (PCBNEW 8.0.4) date 2024-07-22 12:01:49*
%MOMM*%
%LPD*%
G01*
G04 APERTURE LIST*
%TA.AperFunction,Profile*%
%ADD10C,1.000000*%
%TD*%
G04 APERTURE END LIST*
D10*
X37969000Y-13937000D02*
X38105000Y-13998000D01*
X38231000Y-14074000D01*
X38347000Y-14162000D01*
X38454000Y-14262000D01*
X38553000Y-14373000D01*
X38644000Y-14492000D01*
X38728000Y-14619000D01*
X38807000Y-14753000D01*
X38879000Y-14893000D01*
X38947000Y-15036000D01*
X39011000Y-15183000D01*
X39072000Y-15331000D01*
X39129000Y-15480000D01*
X39185000Y-15628000D01*
X39239000Y-15773000D01*
X39292000Y-15916000D01*
X39346000Y-16054000D01*
X39400000Y-16186000D01*
X39483000Y-16600000D01*
X39562000Y-17086000D01*
X39624000Y-17574000D01*
X39670000Y-18064000D01*
X39702000Y-18556000D01*
X39720000Y-19050000D01*
X39727000Y-19544000D01*
X39724000Y-20039000D01*
X39712000Y-20534000D01*
X39692000Y-21029000D01*
X39666000Y-21524000D01*
X39636000Y-22018000D01*
X39602000Y-22511000D01*
X39566000Y-23002000D01*
X39529000Y-23492000D01*
X39521000Y-23656000D01*
X39493000Y-23928000D01*
X39451000Y-24197000D01*
X39395000Y-24463000D01*
X39327000Y-24727000D01*
X39251000Y-24988000D01*
X39166000Y-25248000D01*
X39077000Y-25507000D01*
X38983000Y-25764000D01*
X38888000Y-26021000D01*
X38794000Y-26278000D01*
X38701000Y-26535000D01*
X38613000Y-26792000D01*
X38531000Y-27051000D01*
X38456000Y-27311000D01*
X38392000Y-27572000D01*
X38340000Y-27836000D01*
X38302000Y-28102000D01*
X38279000Y-28371000D01*
X38274000Y-28643000D01*
X38297000Y-28722000D01*
X38376000Y-28987000D01*
X38456000Y-29252000D01*
X38536000Y-29519000D01*
X38616000Y-29787000D01*
X38693000Y-30056000D01*
X38767000Y-30326000D01*
X38837000Y-30598000D01*
X38901000Y-30869000D01*
X38959000Y-31142000D01*
X39010000Y-31415000D01*
X39051000Y-31689000D01*
X39083000Y-31964000D01*
X39103000Y-32238000D01*
X39112000Y-32513000D01*
X39107000Y-32788000D01*
X39088000Y-33063000D01*
X39053000Y-33338000D01*
X39002000Y-33613000D01*
X38933000Y-33888000D01*
X38845000Y-34162000D01*
X38830000Y-34232000D01*
X38753000Y-34552000D01*
X38659000Y-34864000D01*
X38550000Y-35168000D01*
X38427000Y-35465000D01*
X38292000Y-35757000D01*
X38145000Y-36043000D01*
X37989000Y-36324000D01*
X37825000Y-36601000D01*
X37653000Y-36874000D01*
X37476000Y-37144000D01*
X37294000Y-37411000D01*
X37109000Y-37677000D01*
X36922000Y-37941000D01*
X36735000Y-38205000D01*
X36549000Y-38468000D01*
X36365000Y-38733000D01*
X36591000Y-39041000D01*
X36872000Y-39430000D01*
X37148000Y-39823000D01*
X37420000Y-40221000D01*
X37685000Y-40623000D01*
X37944000Y-41030000D01*
X38194000Y-41441000D01*
X38436000Y-41858000D01*
X38668000Y-42280000D01*
X38889000Y-42707000D01*
X39097000Y-43140000D01*
X39294000Y-43579000D01*
X39476000Y-44024000D01*
X39643000Y-44475000D01*
X39794000Y-44932000D01*
X39929000Y-45395000D01*
X40046000Y-45865000D01*
X40046000Y-45864000D01*
X40095000Y-45832000D01*
X40212000Y-45771000D01*
X40338000Y-45725000D01*
X40472000Y-45692000D01*
X40612000Y-45671000D01*
X40756000Y-45660000D01*
X40902000Y-45659000D01*
X41050000Y-45665000D01*
X41197000Y-45679000D01*
X41341000Y-45698000D01*
X41481000Y-45721000D01*
X41615000Y-45748000D01*
X41618000Y-45715000D01*
X41651000Y-45414000D01*
X41702000Y-45116000D01*
X41770000Y-44822000D01*
X41853000Y-44532000D01*
X41952000Y-44247000D01*
X42066000Y-43968000D01*
X42195000Y-43695000D01*
X42338000Y-43429000D01*
X42493000Y-43170000D01*
X42662000Y-42919000D01*
X42843000Y-42677000D01*
X43036000Y-42443000D01*
X43240000Y-42220000D01*
X43454000Y-42007000D01*
X43678000Y-41805000D01*
X43913000Y-41614000D01*
X44155000Y-41436000D01*
X44407000Y-41270000D01*
X44666000Y-41118000D01*
X44933000Y-40979000D01*
X45206000Y-40855000D01*
X45486000Y-40747000D01*
X45771000Y-40654000D01*
X46061000Y-40577000D01*
X46356000Y-40517000D01*
X46655000Y-40475000D01*
X46957000Y-40451000D01*
X47263000Y-40445000D01*
X47570000Y-40459000D01*
X47696000Y-40465000D01*
X48023000Y-40492000D01*
X48345000Y-40538000D01*
X48659000Y-40602000D01*
X48967000Y-40682000D01*
X49268000Y-40779000D01*
X49562000Y-40892000D01*
X49848000Y-41021000D01*
X50127000Y-41164000D01*
X50397000Y-41321000D01*
X50659000Y-41492000D01*
X50912000Y-41675000D01*
X51157000Y-41871000D01*
X51392000Y-42079000D01*
X51618000Y-42297000D01*
X51834000Y-42527000D01*
X52040000Y-42766000D01*
X52236000Y-43014000D01*
X52421000Y-43271000D01*
X52596000Y-43537000D01*
X52759000Y-43809000D01*
X52911000Y-44089000D01*
X53051000Y-44375000D01*
X53180000Y-44667000D01*
X53296000Y-44964000D01*
X53400000Y-45265000D01*
X53491000Y-45570000D01*
X53569000Y-45879000D01*
X53634000Y-46190000D01*
X53686000Y-46504000D01*
X53723000Y-46818000D01*
X53747000Y-47134000D01*
X53756000Y-47450000D01*
X53750000Y-47766000D01*
X53730000Y-48081000D01*
X53695000Y-48395000D01*
X53644000Y-48706000D01*
X53577000Y-49015000D01*
X53494000Y-49320000D01*
X53395000Y-49622000D01*
X53280000Y-49919000D01*
X53147000Y-50211000D01*
X53121000Y-50275000D01*
X53031000Y-50464000D01*
X52927000Y-50641000D01*
X52810000Y-50804000D01*
X52679000Y-50955000D01*
X52538000Y-51093000D01*
X52386000Y-51217000D01*
X52225000Y-51328000D01*
X52055000Y-51425000D01*
X51878000Y-51509000D01*
X51694000Y-51578000D01*
X51505000Y-51633000D01*
X51312000Y-51674000D01*
X51115000Y-51699000D01*
X50916000Y-51710000D01*
X50716000Y-51706000D01*
X50515000Y-51687000D01*
X50315000Y-51653000D01*
X50116000Y-51602000D01*
X50055000Y-51564000D01*
X49918000Y-51469000D01*
X49782000Y-51366000D01*
X49648000Y-51253000D01*
X49516000Y-51133000D01*
X49389000Y-51005000D01*
X49265000Y-50869000D01*
X49146000Y-50728000D01*
X49033000Y-50581000D01*
X48926000Y-50428000D01*
X48826000Y-50271000D01*
X48733000Y-50110000D01*
X48649000Y-49945000D01*
X48574000Y-49777000D01*
X48508000Y-49607000D01*
X48452000Y-49436000D01*
X48407000Y-49263000D01*
X48374000Y-49090000D01*
X48354000Y-48917000D01*
X48346000Y-48744000D01*
X48352000Y-48573000D01*
X48372000Y-48404000D01*
X48407000Y-48237000D01*
X48458000Y-48073000D01*
X48526000Y-47912000D01*
X48610000Y-47756000D01*
X48712000Y-47605000D01*
X48833000Y-47459000D01*
X48841000Y-47451000D01*
X48934000Y-47369000D01*
X49026000Y-47305000D01*
X49117000Y-47259000D01*
X49207000Y-47228000D01*
X49295000Y-47212000D01*
X49383000Y-47208000D01*
X49469000Y-47217000D01*
X49555000Y-47236000D01*
X49641000Y-47264000D01*
X49725000Y-47300000D01*
X49810000Y-47342000D01*
X49894000Y-47389000D01*
X49977000Y-47440000D01*
X50061000Y-47494000D01*
X50144000Y-47548000D01*
X50228000Y-47602000D01*
X50311000Y-47654000D01*
X50395000Y-47703000D01*
X50480000Y-47748000D01*
X50565000Y-47787000D01*
X50650000Y-47819000D01*
X50736000Y-47842000D01*
X50823000Y-47856000D01*
X50911000Y-47859000D01*
X50962000Y-47789000D01*
X51030000Y-47674000D01*
X51079000Y-47559000D01*
X51112000Y-47443000D01*
X51127000Y-47328000D01*
X51127000Y-47214000D01*
X51112000Y-47102000D01*
X51083000Y-46991000D01*
X51042000Y-46882000D01*
X50989000Y-46777000D01*
X50924000Y-46674000D01*
X50850000Y-46576000D01*
X50766000Y-46482000D01*
X50675000Y-46392000D01*
X50576000Y-46308000D01*
X50470000Y-46230000D01*
X50360000Y-46158000D01*
X50245000Y-46092000D01*
X50126000Y-46034000D01*
X50005000Y-45983000D01*
X49882000Y-45941000D01*
X49759000Y-45907000D01*
X49635000Y-45883000D01*
X49513000Y-45868000D01*
X49393000Y-45863000D01*
X49276000Y-45868000D01*
X49215000Y-45869000D01*
X49031000Y-45882000D01*
X48858000Y-45911000D01*
X48696000Y-45954000D01*
X48544000Y-46011000D01*
X48402000Y-46082000D01*
X48271000Y-46165000D01*
X48149000Y-46260000D01*
X48037000Y-46365000D01*
X47935000Y-46481000D01*
X47842000Y-46606000D01*
X47758000Y-46739000D01*
X47683000Y-46880000D01*
X47618000Y-47028000D01*
X47561000Y-47181000D01*
X47512000Y-47340000D01*
X47472000Y-47503000D01*
X47440000Y-47670000D01*
X47416000Y-47840000D01*
X47400000Y-48012000D01*
X47392000Y-48184000D01*
X47391000Y-48358000D01*
X47398000Y-48531000D01*
X47412000Y-48702000D01*
X47433000Y-48872000D01*
X47460000Y-49039000D01*
X47495000Y-49202000D01*
X47536000Y-49361000D01*
X47583000Y-49514000D01*
X47636000Y-49662000D01*
X47696000Y-49803000D01*
X47838000Y-50066000D01*
X48024000Y-50378000D01*
X48222000Y-50683000D01*
X48430000Y-50981000D01*
X48647000Y-51272000D01*
X48873000Y-51557000D01*
X49105000Y-51838000D01*
X49344000Y-52114000D01*
X49587000Y-52388000D01*
X49834000Y-52659000D01*
X50083000Y-52928000D01*
X50333000Y-53197000D01*
X50583000Y-53466000D01*
X50832000Y-53735000D01*
X51079000Y-54006000D01*
X51322000Y-54280000D01*
X51560000Y-54557000D01*
X51793000Y-54838000D01*
X52018000Y-55124000D01*
X52235000Y-55416000D01*
X52443000Y-55714000D01*
X52640000Y-56019000D01*
X52826000Y-56333000D01*
X52999000Y-56655000D01*
X53157000Y-56988000D01*
X53300000Y-57331000D01*
X53418000Y-57578000D01*
X53577000Y-57946000D01*
X53718000Y-58318000D01*
X53842000Y-58694000D01*
X53950000Y-59074000D01*
X54042000Y-59456000D01*
X54121000Y-59842000D01*
X54186000Y-60231000D01*
X54238000Y-60621000D01*
X54279000Y-61014000D01*
X54310000Y-61409000D01*
X54331000Y-61804000D01*
X54343000Y-62201000D01*
X54347000Y-62599000D01*
X54344000Y-62997000D01*
X54335000Y-63395000D01*
X54321000Y-63794000D01*
X54303000Y-64191000D01*
X54281000Y-64588000D01*
X54257000Y-64984000D01*
X54232000Y-65378000D01*
X54206000Y-65771000D01*
X54119000Y-66293000D01*
X54012000Y-66860000D01*
X53892000Y-67426000D01*
X53759000Y-67990000D01*
X53613000Y-68552000D01*
X53455000Y-69112000D01*
X53283000Y-69668000D01*
X53099000Y-70221000D01*
X52902000Y-70770000D01*
X52692000Y-71314000D01*
X52470000Y-71854000D01*
X52235000Y-72388000D01*
X51987000Y-72916000D01*
X51727000Y-73438000D01*
X51454000Y-73953000D01*
X51169000Y-74461000D01*
X50871000Y-74961000D01*
X50561000Y-75453000D01*
X50238000Y-75937000D01*
X49903000Y-76411000D01*
X49556000Y-76876000D01*
X49196000Y-77330000D01*
X48824000Y-77774000D01*
X48440000Y-78207000D01*
X48043000Y-78629000D01*
X47635000Y-79039000D01*
X47214000Y-79436000D01*
X46781000Y-79821000D01*
X46336000Y-80192000D01*
X45879000Y-80549000D01*
X45410000Y-80892000D01*
X44929000Y-81221000D01*
X44436000Y-81534000D01*
X43931000Y-81832000D01*
X43811000Y-81896000D01*
X43501000Y-82057000D01*
X43185000Y-82214000D01*
X42865000Y-82368000D01*
X42540000Y-82517000D01*
X42211000Y-82661000D01*
X41878000Y-82800000D01*
X41541000Y-82933000D01*
X41201000Y-83059000D01*
X40858000Y-83178000D01*
X40513000Y-83289000D01*
X40165000Y-83392000D01*
X39815000Y-83486000D01*
X39464000Y-83570000D01*
X39111000Y-83645000D01*
X38757000Y-83709000D01*
X38403000Y-83762000D01*
X38048000Y-83803000D01*
X37693000Y-83832000D01*
X37339000Y-83848000D01*
X36985000Y-83851000D01*
X36632000Y-83839000D01*
X36280000Y-83814000D01*
X35930000Y-83773000D01*
X35582000Y-83717000D01*
X35235000Y-83644000D01*
X34892000Y-83555000D01*
X34551000Y-83448000D01*
X34214000Y-83323000D01*
X33880000Y-83180000D01*
X33549000Y-83018000D01*
X33357000Y-83042000D01*
X33149000Y-83080000D01*
X32941000Y-83127000D01*
X32734000Y-83182000D01*
X32527000Y-83243000D01*
X32320000Y-83307000D01*
X32112000Y-83372000D01*
X31904000Y-83437000D01*
X31695000Y-83499000D01*
X31485000Y-83556000D01*
X31274000Y-83605000D01*
X31061000Y-83646000D01*
X30847000Y-83675000D01*
X30630000Y-83691000D01*
X30411000Y-83691000D01*
X30190000Y-83674000D01*
X30169000Y-83677000D01*
X30000000Y-83692000D01*
X29832000Y-83695000D01*
X29664000Y-83686000D01*
X29497000Y-83667000D01*
X29331000Y-83639000D01*
X29166000Y-83604000D01*
X29001000Y-83563000D01*
X28836000Y-83517000D01*
X28672000Y-83468000D01*
X28509000Y-83417000D01*
X28346000Y-83365000D01*
X28183000Y-83315000D01*
X28020000Y-83266000D01*
X27858000Y-83221000D01*
X27696000Y-83181000D01*
X27534000Y-83147000D01*
X27373000Y-83121000D01*
X27211000Y-83104000D01*
X27050000Y-83097000D01*
X26888000Y-83102000D01*
X26727000Y-83120000D01*
X26565000Y-83153000D01*
X26403000Y-83202000D01*
X26241000Y-83268000D01*
X26079000Y-83352000D01*
X25919000Y-83378000D01*
X25543000Y-83425000D01*
X25167000Y-83454000D01*
X24789000Y-83468000D01*
X24411000Y-83468000D01*
X24031000Y-83456000D01*
X23652000Y-83434000D01*
X23272000Y-83403000D01*
X22891000Y-83366000D01*
X22511000Y-83323000D01*
X22131000Y-83277000D01*
X21752000Y-83230000D01*
X21373000Y-83183000D01*
X20995000Y-83139000D01*
X20618000Y-83098000D01*
X20242000Y-83063000D01*
X20115000Y-83054000D01*
X19946000Y-83032000D01*
X19778000Y-82998000D01*
X19612000Y-82954000D01*
X19450000Y-82900000D01*
X19291000Y-82836000D01*
X19137000Y-82762000D01*
X18988000Y-82679000D01*
X18846000Y-82587000D01*
X18711000Y-82486000D01*
X18583000Y-82378000D01*
X18465000Y-82262000D01*
X18356000Y-82138000D01*
X18258000Y-82008000D01*
X18172000Y-81871000D01*
X18097000Y-81727000D01*
X18036000Y-81578000D01*
X17988000Y-81423000D01*
X17955000Y-81263000D01*
X17938000Y-81099000D01*
X17937000Y-80930000D01*
X17954000Y-80757000D01*
X17988000Y-80581000D01*
X18042000Y-80401000D01*
X18053000Y-80315000D01*
X18073000Y-80219000D01*
X18101000Y-80122000D01*
X18136000Y-80026000D01*
X18176000Y-79930000D01*
X18221000Y-79834000D01*
X18269000Y-79739000D01*
X18319000Y-79644000D01*
X18370000Y-79550000D01*
X18422000Y-79456000D01*
X18472000Y-79363000D01*
X18520000Y-79271000D01*
X18564000Y-79180000D01*
X18604000Y-79090000D01*
X18639000Y-79001000D01*
X18667000Y-78914000D01*
X18687000Y-78827000D01*
X18698000Y-78743000D01*
X18699000Y-78660000D01*
X18690000Y-78578000D01*
X18668000Y-78498000D01*
X18633000Y-78420000D01*
X18584000Y-78344000D01*
X18519000Y-78270000D01*
X18437000Y-78198000D01*
X18338000Y-78129000D01*
X18221000Y-78062000D01*
X18160000Y-77982000D01*
X17904000Y-77636000D01*
X17659000Y-77281000D01*
X17423000Y-76918000D01*
X17197000Y-76547000D01*
X16983000Y-76169000D01*
X16780000Y-75783000D01*
X16589000Y-75391000D01*
X16412000Y-74994000D01*
X16248000Y-74590000D01*
X16097000Y-74182000D01*
X15962000Y-73768000D01*
X15842000Y-73351000D01*
X15737000Y-72930000D01*
X15649000Y-72506000D01*
X15579000Y-72078000D01*
X15525000Y-71649000D01*
X15490000Y-71218000D01*
X15474000Y-70785000D01*
X15477000Y-70351000D01*
X15452000Y-70067000D01*
X15434000Y-69671000D01*
X15434000Y-69277000D01*
X15453000Y-68885000D01*
X15490000Y-68495000D01*
X15543000Y-68108000D01*
X15613000Y-67724000D01*
X15699000Y-67343000D01*
X15800000Y-66965000D01*
X15916000Y-66591000D01*
X16045000Y-66221000D01*
X16188000Y-65855000D01*
X16344000Y-65494000D01*
X16511000Y-65138000D01*
X16691000Y-64787000D01*
X16881000Y-64442000D01*
X17081000Y-64103000D01*
X17139000Y-64029000D01*
X17269000Y-63861000D01*
X17397000Y-63690000D01*
X17522000Y-63516000D01*
X17644000Y-63338000D01*
X17760000Y-63156000D01*
X17872000Y-62972000D01*
X17976000Y-62784000D01*
X18074000Y-62594000D01*
X18162000Y-62401000D01*
X18242000Y-62205000D01*
X18311000Y-62006000D01*
X18368000Y-61805000D01*
X18414000Y-61601000D01*
X18446000Y-61395000D01*
X18464000Y-61187000D01*
X18467000Y-60977000D01*
X18453000Y-60765000D01*
X18423000Y-60551000D01*
X18374000Y-60335000D01*
X18307000Y-60117000D01*
X18270000Y-60026000D01*
X18122000Y-59654000D01*
X17977000Y-59280000D01*
X17836000Y-58905000D01*
X17702000Y-58528000D01*
X17576000Y-58149000D01*
X17461000Y-57767000D01*
X17358000Y-57382000D01*
X17268000Y-56992000D01*
X17194000Y-56598000D01*
X17138000Y-56200000D01*
X17095000Y-56143000D01*
X16931000Y-55921000D01*
X16766000Y-55697000D01*
X16604000Y-55470000D01*
X16444000Y-55241000D01*
X16288000Y-55008000D01*
X16138000Y-54772000D01*
X15996000Y-54532000D01*
X15861000Y-54288000D01*
X15736000Y-54040000D01*
X15622000Y-53787000D01*
X15520000Y-53528000D01*
X15432000Y-53265000D01*
X15358000Y-52995000D01*
X15301000Y-52720000D01*
X15261000Y-52437000D01*
X15251000Y-52397000D01*
X15218000Y-52210000D01*
X15200000Y-52024000D01*
X15195000Y-51839000D01*
X15204000Y-51655000D01*
X15223000Y-51472000D01*
X15253000Y-51289000D01*
X15291000Y-51106000D01*
X15336000Y-50925000D01*
X15387000Y-50743000D01*
X15442000Y-50562000D01*
X15501000Y-50382000D01*
X15561000Y-50202000D01*
X15622000Y-50022000D01*
X15682000Y-49843000D01*
X15739000Y-49664000D01*
X15793000Y-49485000D01*
X15841000Y-49306000D01*
X15883000Y-49127000D01*
X15918000Y-48948000D01*
X15943000Y-48770000D01*
X15958000Y-48591000D01*
X15961000Y-48412000D01*
X15951000Y-48233000D01*
X15926000Y-48054000D01*
X15885000Y-47875000D01*
X15827000Y-47695000D01*
X15750000Y-47515000D01*
X15732000Y-47431000D01*
X15670000Y-47077000D01*
X15626000Y-46723000D01*
X15602000Y-46369000D01*
X15595000Y-46016000D01*
X15605000Y-45664000D01*
X15633000Y-45313000D01*
X15676000Y-44963000D01*
X15736000Y-44616000D01*
X15810000Y-44270000D01*
X15899000Y-43928000D01*
X16001000Y-43588000D01*
X16116000Y-43251000D01*
X16245000Y-42918000D01*
X16385000Y-42589000D01*
X16536000Y-42264000D01*
X16698000Y-41943000D01*
X16870000Y-41628000D01*
X17052000Y-41318000D01*
X17243000Y-41013000D01*
X17442000Y-40714000D01*
X17649000Y-40421000D01*
X17862000Y-40135000D01*
X18083000Y-39856000D01*
X18309000Y-39584000D01*
X18540000Y-39320000D01*
X18776000Y-39064000D01*
X18667000Y-38954000D01*
X18410000Y-38688000D01*
X18158000Y-38417000D01*
X17912000Y-38141000D01*
X17672000Y-37860000D01*
X17440000Y-37572000D01*
X17217000Y-37277000D01*
X17004000Y-36976000D01*
X16802000Y-36668000D01*
X16612000Y-36352000D01*
X16436000Y-36029000D01*
X16274000Y-35697000D01*
X16128000Y-35357000D01*
X15998000Y-35008000D01*
X15959000Y-34927000D01*
X15835000Y-34642000D01*
X15730000Y-34355000D01*
X15643000Y-34065000D01*
X15573000Y-33773000D01*
X15520000Y-33480000D01*
X15482000Y-33185000D01*
X15460000Y-32889000D01*
X15451000Y-32593000D01*
X15457000Y-32295000D01*
X15474000Y-31998000D01*
X15504000Y-31700000D01*
X15545000Y-31403000D01*
X15597000Y-31106000D01*
X15658000Y-30811000D01*
X15728000Y-30516000D01*
X15806000Y-30223000D01*
X15891000Y-29932000D01*
X15983000Y-29642000D01*
X16081000Y-29355000D01*
X16184000Y-29071000D01*
X16292000Y-28789000D01*
X16403000Y-28511000D01*
X16516000Y-28236000D01*
X16466000Y-28130000D01*
X16245000Y-27638000D01*
X16043000Y-27138000D01*
X15858000Y-26633000D01*
X15690000Y-26122000D01*
X15538000Y-25606000D01*
X15402000Y-25086000D01*
X15282000Y-24562000D01*
X15176000Y-24034000D01*
X15085000Y-23503000D01*
X15007000Y-22970000D01*
X14943000Y-22435000D01*
X14891000Y-21899000D01*
X14851000Y-21361000D01*
X14823000Y-20823000D01*
X14806000Y-20285000D01*
X14800000Y-19747000D01*
X14806000Y-19628000D01*
X14817000Y-19387000D01*
X14827000Y-19143000D01*
X14839000Y-18896000D01*
X14851000Y-18646000D01*
X14865000Y-18394000D01*
X14882000Y-18140000D01*
X14902000Y-17886000D01*
X14926000Y-17632000D01*
X14955000Y-17378000D01*
X14989000Y-17126000D01*
X15029000Y-16875000D01*
X15076000Y-16627000D01*
X15130000Y-16381000D01*
X15193000Y-16140000D01*
X15265000Y-15902000D01*
X15346000Y-15669000D01*
X15437000Y-15442000D01*
X15540000Y-15221000D01*
X15654000Y-15007000D01*
X15781000Y-14800000D01*
X15920000Y-14601000D01*
X16074000Y-14411000D01*
X16242000Y-14230000D01*
X16425000Y-14059000D01*
X16625000Y-13898000D01*
X16793000Y-13903000D01*
X16976000Y-13925000D01*
X17155000Y-13964000D01*
X17331000Y-14018000D01*
X17503000Y-14084000D01*
X17673000Y-14162000D01*
X17839000Y-14250000D01*
X18004000Y-14346000D01*
X18167000Y-14448000D01*
X18327000Y-14556000D01*
X18486000Y-14666000D01*
X18644000Y-14778000D01*
X18801000Y-14889000D01*
X18958000Y-14999000D01*
X19114000Y-15105000D01*
X19270000Y-15206000D01*
X19426000Y-15301000D01*
X19474000Y-15338000D01*
X19843000Y-15629000D01*
X20209000Y-15925000D01*
X20572000Y-16228000D01*
X20931000Y-16538000D01*
X21285000Y-16854000D01*
X21633000Y-17178000D01*
X21974000Y-17509000D01*
X22307000Y-17847000D01*
X22632000Y-18193000D01*
X22948000Y-18547000D01*
X23253000Y-18909000D01*
X23547000Y-19279000D01*
X23828000Y-19658000D01*
X24097000Y-20045000D01*
X24352000Y-20442000D01*
X24592000Y-20848000D01*
X24817000Y-21263000D01*
X25024000Y-21687000D01*
X29279000Y-21687000D01*
X29316000Y-21680000D01*
X29416000Y-21648000D01*
X29507000Y-21602000D01*
X29588000Y-21542000D01*
X29662000Y-21470000D01*
X29729000Y-21388000D01*
X29790000Y-21295000D01*
X29847000Y-21195000D01*
X29899000Y-21088000D01*
X29949000Y-20975000D01*
X29996000Y-20858000D01*
X30043000Y-20739000D01*
X30090000Y-20618000D01*
X30138000Y-20497000D01*
X30188000Y-20377000D01*
X30241000Y-20259000D01*
X30298000Y-20146000D01*
X30360000Y-20037000D01*
X30428000Y-19935000D01*
X30503000Y-19841000D01*
X30586000Y-19757000D01*
X30678000Y-19683000D01*
X30773000Y-19575000D01*
X31024000Y-19292000D01*
X31276000Y-19006000D01*
X31529000Y-18719000D01*
X31784000Y-18431000D01*
X32042000Y-18144000D01*
X32302000Y-17858000D01*
X32565000Y-17574000D01*
X32832000Y-17293000D01*
X33102000Y-17016000D01*
X33376000Y-16743000D01*
X33655000Y-16476000D01*
X33938000Y-16216000D01*
X34227000Y-15962000D01*
X34521000Y-15717000D01*
X34822000Y-15481000D01*
X35128000Y-15254000D01*
X35441000Y-15038000D01*
X35762000Y-14834000D01*
X36089000Y-14642000D01*
X36425000Y-14463000D01*
X36768000Y-14298000D01*
X37120000Y-14149000D01*
X37481000Y-14015000D01*
X37851000Y-13898000D01*
X37969000Y-13937000D01*
M02*
