%TF.GenerationSoftware,KiCad,Pcbnew,8.0.4*%
%TF.CreationDate,2024-07-22T12:01:49+03:00*%
%TF.ProjectId,purrChash,70757272-4368-4617-9368-2e6b69636164,rev?*%
%TF.SameCoordinates,Original*%
%TF.FileFunction,Legend,Bot*%
%TF.FilePolarity,Positive*%
%FSLAX46Y46*%
G04 Gerber Fmt 4.6, Leading zero omitted, Abs format (unit mm)*
G04 Created by KiCad (PCBNEW 8.0.4) date 2024-07-22 12:01:49*
%MOMM*%
%LPD*%
G01*
G04 APERTURE LIST*
%ADD10C,0.150000*%
%ADD11C,0.120000*%
G04 APERTURE END LIST*
D10*
X18880000Y-41460000D02*
X35880000Y-41460000D01*
X35880000Y-63460000D01*
X18880000Y-63460000D01*
X18880000Y-41460000D01*
X46810000Y-51700000D02*
G75*
G02*
X36810000Y-51700000I-5000000J0D01*
G01*
X36810000Y-51700000D02*
G75*
G02*
X46810000Y-51700000I5000000J0D01*
G01*
X30698094Y-39344819D02*
X30698094Y-38344819D01*
X30698094Y-38344819D02*
X30459999Y-38344819D01*
X30459999Y-38344819D02*
X30317142Y-38392438D01*
X30317142Y-38392438D02*
X30221904Y-38487676D01*
X30221904Y-38487676D02*
X30174285Y-38582914D01*
X30174285Y-38582914D02*
X30126666Y-38773390D01*
X30126666Y-38773390D02*
X30126666Y-38916247D01*
X30126666Y-38916247D02*
X30174285Y-39106723D01*
X30174285Y-39106723D02*
X30221904Y-39201961D01*
X30221904Y-39201961D02*
X30317142Y-39297200D01*
X30317142Y-39297200D02*
X30459999Y-39344819D01*
X30459999Y-39344819D02*
X30698094Y-39344819D01*
X29269523Y-38344819D02*
X29459999Y-38344819D01*
X29459999Y-38344819D02*
X29555237Y-38392438D01*
X29555237Y-38392438D02*
X29602856Y-38440057D01*
X29602856Y-38440057D02*
X29698094Y-38582914D01*
X29698094Y-38582914D02*
X29745713Y-38773390D01*
X29745713Y-38773390D02*
X29745713Y-39154342D01*
X29745713Y-39154342D02*
X29698094Y-39249580D01*
X29698094Y-39249580D02*
X29650475Y-39297200D01*
X29650475Y-39297200D02*
X29555237Y-39344819D01*
X29555237Y-39344819D02*
X29364761Y-39344819D01*
X29364761Y-39344819D02*
X29269523Y-39297200D01*
X29269523Y-39297200D02*
X29221904Y-39249580D01*
X29221904Y-39249580D02*
X29174285Y-39154342D01*
X29174285Y-39154342D02*
X29174285Y-38916247D01*
X29174285Y-38916247D02*
X29221904Y-38821009D01*
X29221904Y-38821009D02*
X29269523Y-38773390D01*
X29269523Y-38773390D02*
X29364761Y-38725771D01*
X29364761Y-38725771D02*
X29555237Y-38725771D01*
X29555237Y-38725771D02*
X29650475Y-38773390D01*
X29650475Y-38773390D02*
X29698094Y-38821009D01*
X29698094Y-38821009D02*
X29745713Y-38916247D01*
X25518094Y-35754819D02*
X25518094Y-34754819D01*
X25518094Y-34754819D02*
X25279999Y-34754819D01*
X25279999Y-34754819D02*
X25137142Y-34802438D01*
X25137142Y-34802438D02*
X25041904Y-34897676D01*
X25041904Y-34897676D02*
X24994285Y-34992914D01*
X24994285Y-34992914D02*
X24946666Y-35183390D01*
X24946666Y-35183390D02*
X24946666Y-35326247D01*
X24946666Y-35326247D02*
X24994285Y-35516723D01*
X24994285Y-35516723D02*
X25041904Y-35611961D01*
X25041904Y-35611961D02*
X25137142Y-35707200D01*
X25137142Y-35707200D02*
X25279999Y-35754819D01*
X25279999Y-35754819D02*
X25518094Y-35754819D01*
X24041904Y-34754819D02*
X24518094Y-34754819D01*
X24518094Y-34754819D02*
X24565713Y-35231009D01*
X24565713Y-35231009D02*
X24518094Y-35183390D01*
X24518094Y-35183390D02*
X24422856Y-35135771D01*
X24422856Y-35135771D02*
X24184761Y-35135771D01*
X24184761Y-35135771D02*
X24089523Y-35183390D01*
X24089523Y-35183390D02*
X24041904Y-35231009D01*
X24041904Y-35231009D02*
X23994285Y-35326247D01*
X23994285Y-35326247D02*
X23994285Y-35564342D01*
X23994285Y-35564342D02*
X24041904Y-35659580D01*
X24041904Y-35659580D02*
X24089523Y-35707200D01*
X24089523Y-35707200D02*
X24184761Y-35754819D01*
X24184761Y-35754819D02*
X24422856Y-35754819D01*
X24422856Y-35754819D02*
X24518094Y-35707200D01*
X24518094Y-35707200D02*
X24565713Y-35659580D01*
X34376618Y-32851003D02*
X33876618Y-31984978D01*
X33876618Y-31984978D02*
X33670421Y-32104025D01*
X33670421Y-32104025D02*
X33570513Y-32216693D01*
X33570513Y-32216693D02*
X33535653Y-32346791D01*
X33535653Y-32346791D02*
X33542033Y-32453079D01*
X33542033Y-32453079D02*
X33596032Y-32641846D01*
X33596032Y-32641846D02*
X33667460Y-32765564D01*
X33667460Y-32765564D02*
X33803938Y-32906711D01*
X33803938Y-32906711D02*
X33892796Y-32965380D01*
X33892796Y-32965380D02*
X34022894Y-33000240D01*
X34022894Y-33000240D02*
X34170421Y-32970051D01*
X34170421Y-32970051D02*
X34376618Y-32851003D01*
X32806105Y-32987938D02*
X33139439Y-33565289D01*
X32821826Y-32538976D02*
X33385165Y-33038518D01*
X33385165Y-33038518D02*
X32849054Y-33348042D01*
X23830501Y-30589592D02*
X24172522Y-29649899D01*
X24172522Y-29649899D02*
X23948785Y-29568466D01*
X23948785Y-29568466D02*
X23798257Y-29564353D01*
X23798257Y-29564353D02*
X23676189Y-29621274D01*
X23676189Y-29621274D02*
X23598868Y-29694482D01*
X23598868Y-29694482D02*
X23488974Y-29857185D01*
X23488974Y-29857185D02*
X23440114Y-29991426D01*
X23440114Y-29991426D02*
X23419715Y-30186702D01*
X23419715Y-30186702D02*
X23431889Y-30292483D01*
X23431889Y-30292483D02*
X23488810Y-30414551D01*
X23488810Y-30414551D02*
X23606765Y-30508159D01*
X23606765Y-30508159D02*
X23830501Y-30589592D01*
X23322323Y-29340452D02*
X22740609Y-29128726D01*
X22740609Y-29128726D02*
X22923546Y-29600711D01*
X22923546Y-29600711D02*
X22789305Y-29551851D01*
X22789305Y-29551851D02*
X22683523Y-29564024D01*
X22683523Y-29564024D02*
X22622490Y-29592485D01*
X22622490Y-29592485D02*
X22545169Y-29665693D01*
X22545169Y-29665693D02*
X22463736Y-29889429D01*
X22463736Y-29889429D02*
X22475909Y-29995210D01*
X22475909Y-29995210D02*
X22504370Y-30056244D01*
X22504370Y-30056244D02*
X22577578Y-30133565D01*
X22577578Y-30133565D02*
X22846062Y-30231285D01*
X22846062Y-30231285D02*
X22951843Y-30219111D01*
X22951843Y-30219111D02*
X23012877Y-30190651D01*
X48809523Y-55924819D02*
X48809523Y-54924819D01*
X48809523Y-54924819D02*
X48476190Y-55639104D01*
X48476190Y-55639104D02*
X48142857Y-54924819D01*
X48142857Y-54924819D02*
X48142857Y-55924819D01*
X47142857Y-55924819D02*
X47714285Y-55924819D01*
X47428571Y-55924819D02*
X47428571Y-54924819D01*
X47428571Y-54924819D02*
X47523809Y-55067676D01*
X47523809Y-55067676D02*
X47619047Y-55162914D01*
X47619047Y-55162914D02*
X47714285Y-55210533D01*
X37694819Y-62263333D02*
X37218628Y-61930000D01*
X37694819Y-61691905D02*
X36694819Y-61691905D01*
X36694819Y-61691905D02*
X36694819Y-62072857D01*
X36694819Y-62072857D02*
X36742438Y-62168095D01*
X36742438Y-62168095D02*
X36790057Y-62215714D01*
X36790057Y-62215714D02*
X36885295Y-62263333D01*
X36885295Y-62263333D02*
X37028152Y-62263333D01*
X37028152Y-62263333D02*
X37123390Y-62215714D01*
X37123390Y-62215714D02*
X37171009Y-62168095D01*
X37171009Y-62168095D02*
X37218628Y-62072857D01*
X37218628Y-62072857D02*
X37218628Y-61691905D01*
X37694819Y-62739524D02*
X37694819Y-62930000D01*
X37694819Y-62930000D02*
X37647200Y-63025238D01*
X37647200Y-63025238D02*
X37599580Y-63072857D01*
X37599580Y-63072857D02*
X37456723Y-63168095D01*
X37456723Y-63168095D02*
X37266247Y-63215714D01*
X37266247Y-63215714D02*
X36885295Y-63215714D01*
X36885295Y-63215714D02*
X36790057Y-63168095D01*
X36790057Y-63168095D02*
X36742438Y-63120476D01*
X36742438Y-63120476D02*
X36694819Y-63025238D01*
X36694819Y-63025238D02*
X36694819Y-62834762D01*
X36694819Y-62834762D02*
X36742438Y-62739524D01*
X36742438Y-62739524D02*
X36790057Y-62691905D01*
X36790057Y-62691905D02*
X36885295Y-62644286D01*
X36885295Y-62644286D02*
X37123390Y-62644286D01*
X37123390Y-62644286D02*
X37218628Y-62691905D01*
X37218628Y-62691905D02*
X37266247Y-62739524D01*
X37266247Y-62739524D02*
X37313866Y-62834762D01*
X37313866Y-62834762D02*
X37313866Y-63025238D01*
X37313866Y-63025238D02*
X37266247Y-63120476D01*
X37266247Y-63120476D02*
X37218628Y-63168095D01*
X37218628Y-63168095D02*
X37123390Y-63215714D01*
X46246666Y-66204819D02*
X46579999Y-65728628D01*
X46818094Y-66204819D02*
X46818094Y-65204819D01*
X46818094Y-65204819D02*
X46437142Y-65204819D01*
X46437142Y-65204819D02*
X46341904Y-65252438D01*
X46341904Y-65252438D02*
X46294285Y-65300057D01*
X46294285Y-65300057D02*
X46246666Y-65395295D01*
X46246666Y-65395295D02*
X46246666Y-65538152D01*
X46246666Y-65538152D02*
X46294285Y-65633390D01*
X46294285Y-65633390D02*
X46341904Y-65681009D01*
X46341904Y-65681009D02*
X46437142Y-65728628D01*
X46437142Y-65728628D02*
X46818094Y-65728628D01*
X45675237Y-65633390D02*
X45770475Y-65585771D01*
X45770475Y-65585771D02*
X45818094Y-65538152D01*
X45818094Y-65538152D02*
X45865713Y-65442914D01*
X45865713Y-65442914D02*
X45865713Y-65395295D01*
X45865713Y-65395295D02*
X45818094Y-65300057D01*
X45818094Y-65300057D02*
X45770475Y-65252438D01*
X45770475Y-65252438D02*
X45675237Y-65204819D01*
X45675237Y-65204819D02*
X45484761Y-65204819D01*
X45484761Y-65204819D02*
X45389523Y-65252438D01*
X45389523Y-65252438D02*
X45341904Y-65300057D01*
X45341904Y-65300057D02*
X45294285Y-65395295D01*
X45294285Y-65395295D02*
X45294285Y-65442914D01*
X45294285Y-65442914D02*
X45341904Y-65538152D01*
X45341904Y-65538152D02*
X45389523Y-65585771D01*
X45389523Y-65585771D02*
X45484761Y-65633390D01*
X45484761Y-65633390D02*
X45675237Y-65633390D01*
X45675237Y-65633390D02*
X45770475Y-65681009D01*
X45770475Y-65681009D02*
X45818094Y-65728628D01*
X45818094Y-65728628D02*
X45865713Y-65823866D01*
X45865713Y-65823866D02*
X45865713Y-66014342D01*
X45865713Y-66014342D02*
X45818094Y-66109580D01*
X45818094Y-66109580D02*
X45770475Y-66157200D01*
X45770475Y-66157200D02*
X45675237Y-66204819D01*
X45675237Y-66204819D02*
X45484761Y-66204819D01*
X45484761Y-66204819D02*
X45389523Y-66157200D01*
X45389523Y-66157200D02*
X45341904Y-66109580D01*
X45341904Y-66109580D02*
X45294285Y-66014342D01*
X45294285Y-66014342D02*
X45294285Y-65823866D01*
X45294285Y-65823866D02*
X45341904Y-65728628D01*
X45341904Y-65728628D02*
X45389523Y-65681009D01*
X45389523Y-65681009D02*
X45484761Y-65633390D01*
X46206666Y-64934819D02*
X46539999Y-64458628D01*
X46778094Y-64934819D02*
X46778094Y-63934819D01*
X46778094Y-63934819D02*
X46397142Y-63934819D01*
X46397142Y-63934819D02*
X46301904Y-63982438D01*
X46301904Y-63982438D02*
X46254285Y-64030057D01*
X46254285Y-64030057D02*
X46206666Y-64125295D01*
X46206666Y-64125295D02*
X46206666Y-64268152D01*
X46206666Y-64268152D02*
X46254285Y-64363390D01*
X46254285Y-64363390D02*
X46301904Y-64411009D01*
X46301904Y-64411009D02*
X46397142Y-64458628D01*
X46397142Y-64458628D02*
X46778094Y-64458628D01*
X45873332Y-63934819D02*
X45206666Y-63934819D01*
X45206666Y-63934819D02*
X45635237Y-64934819D01*
X35294819Y-79403333D02*
X34818628Y-79070000D01*
X35294819Y-78831905D02*
X34294819Y-78831905D01*
X34294819Y-78831905D02*
X34294819Y-79212857D01*
X34294819Y-79212857D02*
X34342438Y-79308095D01*
X34342438Y-79308095D02*
X34390057Y-79355714D01*
X34390057Y-79355714D02*
X34485295Y-79403333D01*
X34485295Y-79403333D02*
X34628152Y-79403333D01*
X34628152Y-79403333D02*
X34723390Y-79355714D01*
X34723390Y-79355714D02*
X34771009Y-79308095D01*
X34771009Y-79308095D02*
X34818628Y-79212857D01*
X34818628Y-79212857D02*
X34818628Y-78831905D01*
X34390057Y-79784286D02*
X34342438Y-79831905D01*
X34342438Y-79831905D02*
X34294819Y-79927143D01*
X34294819Y-79927143D02*
X34294819Y-80165238D01*
X34294819Y-80165238D02*
X34342438Y-80260476D01*
X34342438Y-80260476D02*
X34390057Y-80308095D01*
X34390057Y-80308095D02*
X34485295Y-80355714D01*
X34485295Y-80355714D02*
X34580533Y-80355714D01*
X34580533Y-80355714D02*
X34723390Y-80308095D01*
X34723390Y-80308095D02*
X35294819Y-79736667D01*
X35294819Y-79736667D02*
X35294819Y-80355714D01*
X22493333Y-77564819D02*
X22493333Y-78279104D01*
X22493333Y-78279104D02*
X22540952Y-78421961D01*
X22540952Y-78421961D02*
X22636190Y-78517200D01*
X22636190Y-78517200D02*
X22779047Y-78564819D01*
X22779047Y-78564819D02*
X22874285Y-78564819D01*
X21493333Y-78564819D02*
X22064761Y-78564819D01*
X21779047Y-78564819D02*
X21779047Y-77564819D01*
X21779047Y-77564819D02*
X21874285Y-77707676D01*
X21874285Y-77707676D02*
X21969523Y-77802914D01*
X21969523Y-77802914D02*
X22064761Y-77850533D01*
X30905714Y-65131009D02*
X30762857Y-65178628D01*
X30762857Y-65178628D02*
X30715238Y-65226247D01*
X30715238Y-65226247D02*
X30667619Y-65321485D01*
X30667619Y-65321485D02*
X30667619Y-65464342D01*
X30667619Y-65464342D02*
X30715238Y-65559580D01*
X30715238Y-65559580D02*
X30762857Y-65607200D01*
X30762857Y-65607200D02*
X30858095Y-65654819D01*
X30858095Y-65654819D02*
X31239047Y-65654819D01*
X31239047Y-65654819D02*
X31239047Y-64654819D01*
X31239047Y-64654819D02*
X30905714Y-64654819D01*
X30905714Y-64654819D02*
X30810476Y-64702438D01*
X30810476Y-64702438D02*
X30762857Y-64750057D01*
X30762857Y-64750057D02*
X30715238Y-64845295D01*
X30715238Y-64845295D02*
X30715238Y-64940533D01*
X30715238Y-64940533D02*
X30762857Y-65035771D01*
X30762857Y-65035771D02*
X30810476Y-65083390D01*
X30810476Y-65083390D02*
X30905714Y-65131009D01*
X30905714Y-65131009D02*
X31239047Y-65131009D01*
X30381904Y-64654819D02*
X29810476Y-64654819D01*
X30096190Y-65654819D02*
X30096190Y-64654819D01*
X28953333Y-65654819D02*
X29524761Y-65654819D01*
X29239047Y-65654819D02*
X29239047Y-64654819D01*
X29239047Y-64654819D02*
X29334285Y-64797676D01*
X29334285Y-64797676D02*
X29429523Y-64892914D01*
X29429523Y-64892914D02*
X29524761Y-64940533D01*
X22576666Y-71888819D02*
X22909999Y-71412628D01*
X23148094Y-71888819D02*
X23148094Y-70888819D01*
X23148094Y-70888819D02*
X22767142Y-70888819D01*
X22767142Y-70888819D02*
X22671904Y-70936438D01*
X22671904Y-70936438D02*
X22624285Y-70984057D01*
X22624285Y-70984057D02*
X22576666Y-71079295D01*
X22576666Y-71079295D02*
X22576666Y-71222152D01*
X22576666Y-71222152D02*
X22624285Y-71317390D01*
X22624285Y-71317390D02*
X22671904Y-71365009D01*
X22671904Y-71365009D02*
X22767142Y-71412628D01*
X22767142Y-71412628D02*
X23148094Y-71412628D01*
X21671904Y-70888819D02*
X22148094Y-70888819D01*
X22148094Y-70888819D02*
X22195713Y-71365009D01*
X22195713Y-71365009D02*
X22148094Y-71317390D01*
X22148094Y-71317390D02*
X22052856Y-71269771D01*
X22052856Y-71269771D02*
X21814761Y-71269771D01*
X21814761Y-71269771D02*
X21719523Y-71317390D01*
X21719523Y-71317390D02*
X21671904Y-71365009D01*
X21671904Y-71365009D02*
X21624285Y-71460247D01*
X21624285Y-71460247D02*
X21624285Y-71698342D01*
X21624285Y-71698342D02*
X21671904Y-71793580D01*
X21671904Y-71793580D02*
X21719523Y-71841200D01*
X21719523Y-71841200D02*
X21814761Y-71888819D01*
X21814761Y-71888819D02*
X22052856Y-71888819D01*
X22052856Y-71888819D02*
X22148094Y-71841200D01*
X22148094Y-71841200D02*
X22195713Y-71793580D01*
X26269580Y-73943333D02*
X26317200Y-73895714D01*
X26317200Y-73895714D02*
X26364819Y-73752857D01*
X26364819Y-73752857D02*
X26364819Y-73657619D01*
X26364819Y-73657619D02*
X26317200Y-73514762D01*
X26317200Y-73514762D02*
X26221961Y-73419524D01*
X26221961Y-73419524D02*
X26126723Y-73371905D01*
X26126723Y-73371905D02*
X25936247Y-73324286D01*
X25936247Y-73324286D02*
X25793390Y-73324286D01*
X25793390Y-73324286D02*
X25602914Y-73371905D01*
X25602914Y-73371905D02*
X25507676Y-73419524D01*
X25507676Y-73419524D02*
X25412438Y-73514762D01*
X25412438Y-73514762D02*
X25364819Y-73657619D01*
X25364819Y-73657619D02*
X25364819Y-73752857D01*
X25364819Y-73752857D02*
X25412438Y-73895714D01*
X25412438Y-73895714D02*
X25460057Y-73943333D01*
X26364819Y-74895714D02*
X26364819Y-74324286D01*
X26364819Y-74610000D02*
X25364819Y-74610000D01*
X25364819Y-74610000D02*
X25507676Y-74514762D01*
X25507676Y-74514762D02*
X25602914Y-74419524D01*
X25602914Y-74419524D02*
X25650533Y-74324286D01*
X35026666Y-71509580D02*
X35074285Y-71557200D01*
X35074285Y-71557200D02*
X35217142Y-71604819D01*
X35217142Y-71604819D02*
X35312380Y-71604819D01*
X35312380Y-71604819D02*
X35455237Y-71557200D01*
X35455237Y-71557200D02*
X35550475Y-71461961D01*
X35550475Y-71461961D02*
X35598094Y-71366723D01*
X35598094Y-71366723D02*
X35645713Y-71176247D01*
X35645713Y-71176247D02*
X35645713Y-71033390D01*
X35645713Y-71033390D02*
X35598094Y-70842914D01*
X35598094Y-70842914D02*
X35550475Y-70747676D01*
X35550475Y-70747676D02*
X35455237Y-70652438D01*
X35455237Y-70652438D02*
X35312380Y-70604819D01*
X35312380Y-70604819D02*
X35217142Y-70604819D01*
X35217142Y-70604819D02*
X35074285Y-70652438D01*
X35074285Y-70652438D02*
X35026666Y-70700057D01*
X34645713Y-70700057D02*
X34598094Y-70652438D01*
X34598094Y-70652438D02*
X34502856Y-70604819D01*
X34502856Y-70604819D02*
X34264761Y-70604819D01*
X34264761Y-70604819D02*
X34169523Y-70652438D01*
X34169523Y-70652438D02*
X34121904Y-70700057D01*
X34121904Y-70700057D02*
X34074285Y-70795295D01*
X34074285Y-70795295D02*
X34074285Y-70890533D01*
X34074285Y-70890533D02*
X34121904Y-71033390D01*
X34121904Y-71033390D02*
X34693332Y-71604819D01*
X34693332Y-71604819D02*
X34074285Y-71604819D01*
X46146666Y-63589580D02*
X46194285Y-63637200D01*
X46194285Y-63637200D02*
X46337142Y-63684819D01*
X46337142Y-63684819D02*
X46432380Y-63684819D01*
X46432380Y-63684819D02*
X46575237Y-63637200D01*
X46575237Y-63637200D02*
X46670475Y-63541961D01*
X46670475Y-63541961D02*
X46718094Y-63446723D01*
X46718094Y-63446723D02*
X46765713Y-63256247D01*
X46765713Y-63256247D02*
X46765713Y-63113390D01*
X46765713Y-63113390D02*
X46718094Y-62922914D01*
X46718094Y-62922914D02*
X46670475Y-62827676D01*
X46670475Y-62827676D02*
X46575237Y-62732438D01*
X46575237Y-62732438D02*
X46432380Y-62684819D01*
X46432380Y-62684819D02*
X46337142Y-62684819D01*
X46337142Y-62684819D02*
X46194285Y-62732438D01*
X46194285Y-62732438D02*
X46146666Y-62780057D01*
X45241904Y-62684819D02*
X45718094Y-62684819D01*
X45718094Y-62684819D02*
X45765713Y-63161009D01*
X45765713Y-63161009D02*
X45718094Y-63113390D01*
X45718094Y-63113390D02*
X45622856Y-63065771D01*
X45622856Y-63065771D02*
X45384761Y-63065771D01*
X45384761Y-63065771D02*
X45289523Y-63113390D01*
X45289523Y-63113390D02*
X45241904Y-63161009D01*
X45241904Y-63161009D02*
X45194285Y-63256247D01*
X45194285Y-63256247D02*
X45194285Y-63494342D01*
X45194285Y-63494342D02*
X45241904Y-63589580D01*
X45241904Y-63589580D02*
X45289523Y-63637200D01*
X45289523Y-63637200D02*
X45384761Y-63684819D01*
X45384761Y-63684819D02*
X45622856Y-63684819D01*
X45622856Y-63684819D02*
X45718094Y-63637200D01*
X45718094Y-63637200D02*
X45765713Y-63589580D01*
X34046666Y-68424819D02*
X34379999Y-67948628D01*
X34618094Y-68424819D02*
X34618094Y-67424819D01*
X34618094Y-67424819D02*
X34237142Y-67424819D01*
X34237142Y-67424819D02*
X34141904Y-67472438D01*
X34141904Y-67472438D02*
X34094285Y-67520057D01*
X34094285Y-67520057D02*
X34046666Y-67615295D01*
X34046666Y-67615295D02*
X34046666Y-67758152D01*
X34046666Y-67758152D02*
X34094285Y-67853390D01*
X34094285Y-67853390D02*
X34141904Y-67901009D01*
X34141904Y-67901009D02*
X34237142Y-67948628D01*
X34237142Y-67948628D02*
X34618094Y-67948628D01*
X33189523Y-67424819D02*
X33379999Y-67424819D01*
X33379999Y-67424819D02*
X33475237Y-67472438D01*
X33475237Y-67472438D02*
X33522856Y-67520057D01*
X33522856Y-67520057D02*
X33618094Y-67662914D01*
X33618094Y-67662914D02*
X33665713Y-67853390D01*
X33665713Y-67853390D02*
X33665713Y-68234342D01*
X33665713Y-68234342D02*
X33618094Y-68329580D01*
X33618094Y-68329580D02*
X33570475Y-68377200D01*
X33570475Y-68377200D02*
X33475237Y-68424819D01*
X33475237Y-68424819D02*
X33284761Y-68424819D01*
X33284761Y-68424819D02*
X33189523Y-68377200D01*
X33189523Y-68377200D02*
X33141904Y-68329580D01*
X33141904Y-68329580D02*
X33094285Y-68234342D01*
X33094285Y-68234342D02*
X33094285Y-67996247D01*
X33094285Y-67996247D02*
X33141904Y-67901009D01*
X33141904Y-67901009D02*
X33189523Y-67853390D01*
X33189523Y-67853390D02*
X33284761Y-67805771D01*
X33284761Y-67805771D02*
X33475237Y-67805771D01*
X33475237Y-67805771D02*
X33570475Y-67853390D01*
X33570475Y-67853390D02*
X33618094Y-67901009D01*
X33618094Y-67901009D02*
X33665713Y-67996247D01*
X21044819Y-79433333D02*
X20568628Y-79100000D01*
X21044819Y-78861905D02*
X20044819Y-78861905D01*
X20044819Y-78861905D02*
X20044819Y-79242857D01*
X20044819Y-79242857D02*
X20092438Y-79338095D01*
X20092438Y-79338095D02*
X20140057Y-79385714D01*
X20140057Y-79385714D02*
X20235295Y-79433333D01*
X20235295Y-79433333D02*
X20378152Y-79433333D01*
X20378152Y-79433333D02*
X20473390Y-79385714D01*
X20473390Y-79385714D02*
X20521009Y-79338095D01*
X20521009Y-79338095D02*
X20568628Y-79242857D01*
X20568628Y-79242857D02*
X20568628Y-78861905D01*
X21044819Y-80385714D02*
X21044819Y-79814286D01*
X21044819Y-80100000D02*
X20044819Y-80100000D01*
X20044819Y-80100000D02*
X20187676Y-80004762D01*
X20187676Y-80004762D02*
X20282914Y-79909524D01*
X20282914Y-79909524D02*
X20330533Y-79814286D01*
X40546666Y-77069580D02*
X40594285Y-77117200D01*
X40594285Y-77117200D02*
X40737142Y-77164819D01*
X40737142Y-77164819D02*
X40832380Y-77164819D01*
X40832380Y-77164819D02*
X40975237Y-77117200D01*
X40975237Y-77117200D02*
X41070475Y-77021961D01*
X41070475Y-77021961D02*
X41118094Y-76926723D01*
X41118094Y-76926723D02*
X41165713Y-76736247D01*
X41165713Y-76736247D02*
X41165713Y-76593390D01*
X41165713Y-76593390D02*
X41118094Y-76402914D01*
X41118094Y-76402914D02*
X41070475Y-76307676D01*
X41070475Y-76307676D02*
X40975237Y-76212438D01*
X40975237Y-76212438D02*
X40832380Y-76164819D01*
X40832380Y-76164819D02*
X40737142Y-76164819D01*
X40737142Y-76164819D02*
X40594285Y-76212438D01*
X40594285Y-76212438D02*
X40546666Y-76260057D01*
X39689523Y-76498152D02*
X39689523Y-77164819D01*
X39927618Y-76117200D02*
X40165713Y-76831485D01*
X40165713Y-76831485D02*
X39546666Y-76831485D01*
X32624819Y-72443333D02*
X32148628Y-72110000D01*
X32624819Y-71871905D02*
X31624819Y-71871905D01*
X31624819Y-71871905D02*
X31624819Y-72252857D01*
X31624819Y-72252857D02*
X31672438Y-72348095D01*
X31672438Y-72348095D02*
X31720057Y-72395714D01*
X31720057Y-72395714D02*
X31815295Y-72443333D01*
X31815295Y-72443333D02*
X31958152Y-72443333D01*
X31958152Y-72443333D02*
X32053390Y-72395714D01*
X32053390Y-72395714D02*
X32101009Y-72348095D01*
X32101009Y-72348095D02*
X32148628Y-72252857D01*
X32148628Y-72252857D02*
X32148628Y-71871905D01*
X31624819Y-72776667D02*
X31624819Y-73395714D01*
X31624819Y-73395714D02*
X32005771Y-73062381D01*
X32005771Y-73062381D02*
X32005771Y-73205238D01*
X32005771Y-73205238D02*
X32053390Y-73300476D01*
X32053390Y-73300476D02*
X32101009Y-73348095D01*
X32101009Y-73348095D02*
X32196247Y-73395714D01*
X32196247Y-73395714D02*
X32434342Y-73395714D01*
X32434342Y-73395714D02*
X32529580Y-73348095D01*
X32529580Y-73348095D02*
X32577200Y-73300476D01*
X32577200Y-73300476D02*
X32624819Y-73205238D01*
X32624819Y-73205238D02*
X32624819Y-72919524D01*
X32624819Y-72919524D02*
X32577200Y-72824286D01*
X32577200Y-72824286D02*
X32529580Y-72776667D01*
X50740057Y-59644761D02*
X50692438Y-59549523D01*
X50692438Y-59549523D02*
X50597200Y-59454285D01*
X50597200Y-59454285D02*
X50454342Y-59311428D01*
X50454342Y-59311428D02*
X50406723Y-59216190D01*
X50406723Y-59216190D02*
X50406723Y-59120952D01*
X50644819Y-59168571D02*
X50597200Y-59073333D01*
X50597200Y-59073333D02*
X50501961Y-58978095D01*
X50501961Y-58978095D02*
X50311485Y-58930476D01*
X50311485Y-58930476D02*
X49978152Y-58930476D01*
X49978152Y-58930476D02*
X49787676Y-58978095D01*
X49787676Y-58978095D02*
X49692438Y-59073333D01*
X49692438Y-59073333D02*
X49644819Y-59168571D01*
X49644819Y-59168571D02*
X49644819Y-59359047D01*
X49644819Y-59359047D02*
X49692438Y-59454285D01*
X49692438Y-59454285D02*
X49787676Y-59549523D01*
X49787676Y-59549523D02*
X49978152Y-59597142D01*
X49978152Y-59597142D02*
X50311485Y-59597142D01*
X50311485Y-59597142D02*
X50501961Y-59549523D01*
X50501961Y-59549523D02*
X50597200Y-59454285D01*
X50597200Y-59454285D02*
X50644819Y-59359047D01*
X50644819Y-59359047D02*
X50644819Y-59168571D01*
X50644819Y-60549523D02*
X50644819Y-59978095D01*
X50644819Y-60263809D02*
X49644819Y-60263809D01*
X49644819Y-60263809D02*
X49787676Y-60168571D01*
X49787676Y-60168571D02*
X49882914Y-60073333D01*
X49882914Y-60073333D02*
X49930533Y-59978095D01*
X22566666Y-70414819D02*
X22899999Y-69938628D01*
X23138094Y-70414819D02*
X23138094Y-69414819D01*
X23138094Y-69414819D02*
X22757142Y-69414819D01*
X22757142Y-69414819D02*
X22661904Y-69462438D01*
X22661904Y-69462438D02*
X22614285Y-69510057D01*
X22614285Y-69510057D02*
X22566666Y-69605295D01*
X22566666Y-69605295D02*
X22566666Y-69748152D01*
X22566666Y-69748152D02*
X22614285Y-69843390D01*
X22614285Y-69843390D02*
X22661904Y-69891009D01*
X22661904Y-69891009D02*
X22757142Y-69938628D01*
X22757142Y-69938628D02*
X23138094Y-69938628D01*
X21709523Y-69748152D02*
X21709523Y-70414819D01*
X21947618Y-69367200D02*
X22185713Y-70081485D01*
X22185713Y-70081485D02*
X21566666Y-70081485D01*
X40526666Y-77009580D02*
X40574285Y-77057200D01*
X40574285Y-77057200D02*
X40717142Y-77104819D01*
X40717142Y-77104819D02*
X40812380Y-77104819D01*
X40812380Y-77104819D02*
X40955237Y-77057200D01*
X40955237Y-77057200D02*
X41050475Y-76961961D01*
X41050475Y-76961961D02*
X41098094Y-76866723D01*
X41098094Y-76866723D02*
X41145713Y-76676247D01*
X41145713Y-76676247D02*
X41145713Y-76533390D01*
X41145713Y-76533390D02*
X41098094Y-76342914D01*
X41098094Y-76342914D02*
X41050475Y-76247676D01*
X41050475Y-76247676D02*
X40955237Y-76152438D01*
X40955237Y-76152438D02*
X40812380Y-76104819D01*
X40812380Y-76104819D02*
X40717142Y-76104819D01*
X40717142Y-76104819D02*
X40574285Y-76152438D01*
X40574285Y-76152438D02*
X40526666Y-76200057D01*
X40193332Y-76104819D02*
X39574285Y-76104819D01*
X39574285Y-76104819D02*
X39907618Y-76485771D01*
X39907618Y-76485771D02*
X39764761Y-76485771D01*
X39764761Y-76485771D02*
X39669523Y-76533390D01*
X39669523Y-76533390D02*
X39621904Y-76581009D01*
X39621904Y-76581009D02*
X39574285Y-76676247D01*
X39574285Y-76676247D02*
X39574285Y-76914342D01*
X39574285Y-76914342D02*
X39621904Y-77009580D01*
X39621904Y-77009580D02*
X39669523Y-77057200D01*
X39669523Y-77057200D02*
X39764761Y-77104819D01*
X39764761Y-77104819D02*
X40050475Y-77104819D01*
X40050475Y-77104819D02*
X40145713Y-77057200D01*
X40145713Y-77057200D02*
X40193332Y-77009580D01*
X40466666Y-75349580D02*
X40514285Y-75397200D01*
X40514285Y-75397200D02*
X40657142Y-75444819D01*
X40657142Y-75444819D02*
X40752380Y-75444819D01*
X40752380Y-75444819D02*
X40895237Y-75397200D01*
X40895237Y-75397200D02*
X40990475Y-75301961D01*
X40990475Y-75301961D02*
X41038094Y-75206723D01*
X41038094Y-75206723D02*
X41085713Y-75016247D01*
X41085713Y-75016247D02*
X41085713Y-74873390D01*
X41085713Y-74873390D02*
X41038094Y-74682914D01*
X41038094Y-74682914D02*
X40990475Y-74587676D01*
X40990475Y-74587676D02*
X40895237Y-74492438D01*
X40895237Y-74492438D02*
X40752380Y-74444819D01*
X40752380Y-74444819D02*
X40657142Y-74444819D01*
X40657142Y-74444819D02*
X40514285Y-74492438D01*
X40514285Y-74492438D02*
X40466666Y-74540057D01*
X39609523Y-74444819D02*
X39799999Y-74444819D01*
X39799999Y-74444819D02*
X39895237Y-74492438D01*
X39895237Y-74492438D02*
X39942856Y-74540057D01*
X39942856Y-74540057D02*
X40038094Y-74682914D01*
X40038094Y-74682914D02*
X40085713Y-74873390D01*
X40085713Y-74873390D02*
X40085713Y-75254342D01*
X40085713Y-75254342D02*
X40038094Y-75349580D01*
X40038094Y-75349580D02*
X39990475Y-75397200D01*
X39990475Y-75397200D02*
X39895237Y-75444819D01*
X39895237Y-75444819D02*
X39704761Y-75444819D01*
X39704761Y-75444819D02*
X39609523Y-75397200D01*
X39609523Y-75397200D02*
X39561904Y-75349580D01*
X39561904Y-75349580D02*
X39514285Y-75254342D01*
X39514285Y-75254342D02*
X39514285Y-75016247D01*
X39514285Y-75016247D02*
X39561904Y-74921009D01*
X39561904Y-74921009D02*
X39609523Y-74873390D01*
X39609523Y-74873390D02*
X39704761Y-74825771D01*
X39704761Y-74825771D02*
X39895237Y-74825771D01*
X39895237Y-74825771D02*
X39990475Y-74873390D01*
X39990475Y-74873390D02*
X40038094Y-74921009D01*
X40038094Y-74921009D02*
X40085713Y-75016247D01*
X34458094Y-69954819D02*
X34458094Y-68954819D01*
X34458094Y-68954819D02*
X34219999Y-68954819D01*
X34219999Y-68954819D02*
X34077142Y-69002438D01*
X34077142Y-69002438D02*
X33981904Y-69097676D01*
X33981904Y-69097676D02*
X33934285Y-69192914D01*
X33934285Y-69192914D02*
X33886666Y-69383390D01*
X33886666Y-69383390D02*
X33886666Y-69526247D01*
X33886666Y-69526247D02*
X33934285Y-69716723D01*
X33934285Y-69716723D02*
X33981904Y-69811961D01*
X33981904Y-69811961D02*
X34077142Y-69907200D01*
X34077142Y-69907200D02*
X34219999Y-69954819D01*
X34219999Y-69954819D02*
X34458094Y-69954819D01*
X32934285Y-69954819D02*
X33505713Y-69954819D01*
X33219999Y-69954819D02*
X33219999Y-68954819D01*
X33219999Y-68954819D02*
X33315237Y-69097676D01*
X33315237Y-69097676D02*
X33410475Y-69192914D01*
X33410475Y-69192914D02*
X33505713Y-69240533D01*
X44354819Y-57421905D02*
X43354819Y-57421905D01*
X43354819Y-57421905D02*
X43354819Y-57660000D01*
X43354819Y-57660000D02*
X43402438Y-57802857D01*
X43402438Y-57802857D02*
X43497676Y-57898095D01*
X43497676Y-57898095D02*
X43592914Y-57945714D01*
X43592914Y-57945714D02*
X43783390Y-57993333D01*
X43783390Y-57993333D02*
X43926247Y-57993333D01*
X43926247Y-57993333D02*
X44116723Y-57945714D01*
X44116723Y-57945714D02*
X44211961Y-57898095D01*
X44211961Y-57898095D02*
X44307200Y-57802857D01*
X44307200Y-57802857D02*
X44354819Y-57660000D01*
X44354819Y-57660000D02*
X44354819Y-57421905D01*
X43450057Y-58374286D02*
X43402438Y-58421905D01*
X43402438Y-58421905D02*
X43354819Y-58517143D01*
X43354819Y-58517143D02*
X43354819Y-58755238D01*
X43354819Y-58755238D02*
X43402438Y-58850476D01*
X43402438Y-58850476D02*
X43450057Y-58898095D01*
X43450057Y-58898095D02*
X43545295Y-58945714D01*
X43545295Y-58945714D02*
X43640533Y-58945714D01*
X43640533Y-58945714D02*
X43783390Y-58898095D01*
X43783390Y-58898095D02*
X44354819Y-58326667D01*
X44354819Y-58326667D02*
X44354819Y-58945714D01*
X39134819Y-62237142D02*
X38658628Y-61903809D01*
X39134819Y-61665714D02*
X38134819Y-61665714D01*
X38134819Y-61665714D02*
X38134819Y-62046666D01*
X38134819Y-62046666D02*
X38182438Y-62141904D01*
X38182438Y-62141904D02*
X38230057Y-62189523D01*
X38230057Y-62189523D02*
X38325295Y-62237142D01*
X38325295Y-62237142D02*
X38468152Y-62237142D01*
X38468152Y-62237142D02*
X38563390Y-62189523D01*
X38563390Y-62189523D02*
X38611009Y-62141904D01*
X38611009Y-62141904D02*
X38658628Y-62046666D01*
X38658628Y-62046666D02*
X38658628Y-61665714D01*
X39134819Y-63189523D02*
X39134819Y-62618095D01*
X39134819Y-62903809D02*
X38134819Y-62903809D01*
X38134819Y-62903809D02*
X38277676Y-62808571D01*
X38277676Y-62808571D02*
X38372914Y-62713333D01*
X38372914Y-62713333D02*
X38420533Y-62618095D01*
X38134819Y-63808571D02*
X38134819Y-63903809D01*
X38134819Y-63903809D02*
X38182438Y-63999047D01*
X38182438Y-63999047D02*
X38230057Y-64046666D01*
X38230057Y-64046666D02*
X38325295Y-64094285D01*
X38325295Y-64094285D02*
X38515771Y-64141904D01*
X38515771Y-64141904D02*
X38753866Y-64141904D01*
X38753866Y-64141904D02*
X38944342Y-64094285D01*
X38944342Y-64094285D02*
X39039580Y-64046666D01*
X39039580Y-64046666D02*
X39087200Y-63999047D01*
X39087200Y-63999047D02*
X39134819Y-63903809D01*
X39134819Y-63903809D02*
X39134819Y-63808571D01*
X39134819Y-63808571D02*
X39087200Y-63713333D01*
X39087200Y-63713333D02*
X39039580Y-63665714D01*
X39039580Y-63665714D02*
X38944342Y-63618095D01*
X38944342Y-63618095D02*
X38753866Y-63570476D01*
X38753866Y-63570476D02*
X38515771Y-63570476D01*
X38515771Y-63570476D02*
X38325295Y-63618095D01*
X38325295Y-63618095D02*
X38230057Y-63665714D01*
X38230057Y-63665714D02*
X38182438Y-63713333D01*
X38182438Y-63713333D02*
X38134819Y-63808571D01*
X40634819Y-62237142D02*
X40158628Y-61903809D01*
X40634819Y-61665714D02*
X39634819Y-61665714D01*
X39634819Y-61665714D02*
X39634819Y-62046666D01*
X39634819Y-62046666D02*
X39682438Y-62141904D01*
X39682438Y-62141904D02*
X39730057Y-62189523D01*
X39730057Y-62189523D02*
X39825295Y-62237142D01*
X39825295Y-62237142D02*
X39968152Y-62237142D01*
X39968152Y-62237142D02*
X40063390Y-62189523D01*
X40063390Y-62189523D02*
X40111009Y-62141904D01*
X40111009Y-62141904D02*
X40158628Y-62046666D01*
X40158628Y-62046666D02*
X40158628Y-61665714D01*
X40634819Y-63189523D02*
X40634819Y-62618095D01*
X40634819Y-62903809D02*
X39634819Y-62903809D01*
X39634819Y-62903809D02*
X39777676Y-62808571D01*
X39777676Y-62808571D02*
X39872914Y-62713333D01*
X39872914Y-62713333D02*
X39920533Y-62618095D01*
X40634819Y-64141904D02*
X40634819Y-63570476D01*
X40634819Y-63856190D02*
X39634819Y-63856190D01*
X39634819Y-63856190D02*
X39777676Y-63760952D01*
X39777676Y-63760952D02*
X39872914Y-63665714D01*
X39872914Y-63665714D02*
X39920533Y-63570476D01*
X42094819Y-62227142D02*
X41618628Y-61893809D01*
X42094819Y-61655714D02*
X41094819Y-61655714D01*
X41094819Y-61655714D02*
X41094819Y-62036666D01*
X41094819Y-62036666D02*
X41142438Y-62131904D01*
X41142438Y-62131904D02*
X41190057Y-62179523D01*
X41190057Y-62179523D02*
X41285295Y-62227142D01*
X41285295Y-62227142D02*
X41428152Y-62227142D01*
X41428152Y-62227142D02*
X41523390Y-62179523D01*
X41523390Y-62179523D02*
X41571009Y-62131904D01*
X41571009Y-62131904D02*
X41618628Y-62036666D01*
X41618628Y-62036666D02*
X41618628Y-61655714D01*
X42094819Y-63179523D02*
X42094819Y-62608095D01*
X42094819Y-62893809D02*
X41094819Y-62893809D01*
X41094819Y-62893809D02*
X41237676Y-62798571D01*
X41237676Y-62798571D02*
X41332914Y-62703333D01*
X41332914Y-62703333D02*
X41380533Y-62608095D01*
X41190057Y-63560476D02*
X41142438Y-63608095D01*
X41142438Y-63608095D02*
X41094819Y-63703333D01*
X41094819Y-63703333D02*
X41094819Y-63941428D01*
X41094819Y-63941428D02*
X41142438Y-64036666D01*
X41142438Y-64036666D02*
X41190057Y-64084285D01*
X41190057Y-64084285D02*
X41285295Y-64131904D01*
X41285295Y-64131904D02*
X41380533Y-64131904D01*
X41380533Y-64131904D02*
X41523390Y-64084285D01*
X41523390Y-64084285D02*
X42094819Y-63512857D01*
X42094819Y-63512857D02*
X42094819Y-64131904D01*
X28851904Y-67974819D02*
X28851904Y-68784342D01*
X28851904Y-68784342D02*
X28804285Y-68879580D01*
X28804285Y-68879580D02*
X28756666Y-68927200D01*
X28756666Y-68927200D02*
X28661428Y-68974819D01*
X28661428Y-68974819D02*
X28470952Y-68974819D01*
X28470952Y-68974819D02*
X28375714Y-68927200D01*
X28375714Y-68927200D02*
X28328095Y-68879580D01*
X28328095Y-68879580D02*
X28280476Y-68784342D01*
X28280476Y-68784342D02*
X28280476Y-67974819D01*
X27280476Y-68974819D02*
X27851904Y-68974819D01*
X27566190Y-68974819D02*
X27566190Y-67974819D01*
X27566190Y-67974819D02*
X27661428Y-68117676D01*
X27661428Y-68117676D02*
X27756666Y-68212914D01*
X27756666Y-68212914D02*
X27851904Y-68260533D01*
X39474819Y-72818095D02*
X40284342Y-72818095D01*
X40284342Y-72818095D02*
X40379580Y-72865714D01*
X40379580Y-72865714D02*
X40427200Y-72913333D01*
X40427200Y-72913333D02*
X40474819Y-73008571D01*
X40474819Y-73008571D02*
X40474819Y-73199047D01*
X40474819Y-73199047D02*
X40427200Y-73294285D01*
X40427200Y-73294285D02*
X40379580Y-73341904D01*
X40379580Y-73341904D02*
X40284342Y-73389523D01*
X40284342Y-73389523D02*
X39474819Y-73389523D01*
X39570057Y-73818095D02*
X39522438Y-73865714D01*
X39522438Y-73865714D02*
X39474819Y-73960952D01*
X39474819Y-73960952D02*
X39474819Y-74199047D01*
X39474819Y-74199047D02*
X39522438Y-74294285D01*
X39522438Y-74294285D02*
X39570057Y-74341904D01*
X39570057Y-74341904D02*
X39665295Y-74389523D01*
X39665295Y-74389523D02*
X39760533Y-74389523D01*
X39760533Y-74389523D02*
X39903390Y-74341904D01*
X39903390Y-74341904D02*
X40474819Y-73770476D01*
X40474819Y-73770476D02*
X40474819Y-74389523D01*
X46524819Y-69480595D02*
X47334342Y-69480595D01*
X47334342Y-69480595D02*
X47429580Y-69528214D01*
X47429580Y-69528214D02*
X47477200Y-69575833D01*
X47477200Y-69575833D02*
X47524819Y-69671071D01*
X47524819Y-69671071D02*
X47524819Y-69861547D01*
X47524819Y-69861547D02*
X47477200Y-69956785D01*
X47477200Y-69956785D02*
X47429580Y-70004404D01*
X47429580Y-70004404D02*
X47334342Y-70052023D01*
X47334342Y-70052023D02*
X46524819Y-70052023D01*
X46524819Y-70432976D02*
X46524819Y-71052023D01*
X46524819Y-71052023D02*
X46905771Y-70718690D01*
X46905771Y-70718690D02*
X46905771Y-70861547D01*
X46905771Y-70861547D02*
X46953390Y-70956785D01*
X46953390Y-70956785D02*
X47001009Y-71004404D01*
X47001009Y-71004404D02*
X47096247Y-71052023D01*
X47096247Y-71052023D02*
X47334342Y-71052023D01*
X47334342Y-71052023D02*
X47429580Y-71004404D01*
X47429580Y-71004404D02*
X47477200Y-70956785D01*
X47477200Y-70956785D02*
X47524819Y-70861547D01*
X47524819Y-70861547D02*
X47524819Y-70575833D01*
X47524819Y-70575833D02*
X47477200Y-70480595D01*
X47477200Y-70480595D02*
X47429580Y-70432976D01*
D11*
%TO.C,D6*%
X27675000Y-35935000D02*
X27675000Y-38205000D01*
X31560000Y-35935000D02*
X27675000Y-35935000D01*
X27675000Y-38205000D02*
X31560000Y-38205000D01*
%TO.C,D5*%
X27065000Y-38255000D02*
X27065000Y-35985000D01*
X23180000Y-38255000D02*
X27065000Y-38255000D01*
X27065000Y-35985000D02*
X23180000Y-35985000D01*
%TO.C,D4*%
X30053632Y-31409561D02*
X31188632Y-33375439D01*
X33418141Y-29467061D02*
X30053632Y-31409561D01*
X31188632Y-33375439D02*
X34553141Y-31432939D01*
%TO.C,D3*%
X25205391Y-31334965D02*
X21554685Y-30006217D01*
X20778299Y-32139319D02*
X24429005Y-33468067D01*
X24429005Y-33468067D02*
X25205391Y-31334965D01*
%TO.C,R9*%
X36637500Y-60217258D02*
X36637500Y-59742742D01*
X37682500Y-60217258D02*
X37682500Y-59742742D01*
%TO.C,R8*%
X48392742Y-65187500D02*
X48867258Y-65187500D01*
X48392742Y-66232500D02*
X48867258Y-66232500D01*
%TO.C,R7*%
X48412742Y-64802500D02*
X48887258Y-64802500D01*
X48412742Y-63757500D02*
X48887258Y-63757500D01*
%TO.C,R2*%
X34297500Y-76952742D02*
X34297500Y-77427258D01*
X35342500Y-76952742D02*
X35342500Y-77427258D01*
%TO.C,J1*%
X23150000Y-78942500D02*
X23150000Y-77312500D01*
X32350000Y-78942500D02*
X32350000Y-77312500D01*
%TO.C,R5*%
X24522742Y-70897500D02*
X24997258Y-70897500D01*
X24522742Y-71942500D02*
X24997258Y-71942500D01*
%TO.C,C1*%
X28431252Y-73355000D02*
X27908748Y-73355000D01*
X28431252Y-74825000D02*
X27908748Y-74825000D01*
%TO.C,C2*%
X33995000Y-73741252D02*
X33995000Y-73218748D01*
X35465000Y-73741252D02*
X35465000Y-73218748D01*
%TO.C,C5*%
X46715000Y-61141252D02*
X46715000Y-60618748D01*
X45245000Y-61141252D02*
X45245000Y-60618748D01*
%TO.C,R6*%
X31102742Y-68502500D02*
X31577258Y-68502500D01*
X31102742Y-67457500D02*
X31577258Y-67457500D01*
%TO.C,R1*%
X21112500Y-76952742D02*
X21112500Y-77427258D01*
X20067500Y-76952742D02*
X20067500Y-77427258D01*
%TO.C,C4*%
X42818748Y-77485000D02*
X43341252Y-77485000D01*
X42818748Y-76015000D02*
X43341252Y-76015000D01*
%TO.C,R3*%
X30257500Y-73377258D02*
X30257500Y-72902742D01*
X31302500Y-73377258D02*
X31302500Y-72902742D01*
%TO.C,Q1*%
X50502500Y-62732500D02*
X50172500Y-62492500D01*
X50502500Y-62252500D01*
X50502500Y-62732500D01*
G36*
X50502500Y-62732500D02*
G01*
X50172500Y-62492500D01*
X50502500Y-62252500D01*
X50502500Y-62732500D01*
G37*
X50222500Y-61980000D02*
X50222500Y-61330000D01*
X50222500Y-60680000D02*
X50222500Y-61330000D01*
X47102500Y-61980000D02*
X47102500Y-61330000D01*
X47102500Y-60680000D02*
X47102500Y-61330000D01*
%TO.C,R4*%
X24512742Y-69437500D02*
X24987258Y-69437500D01*
X24512742Y-70482500D02*
X24987258Y-70482500D01*
%TO.C,C3*%
X37941252Y-77415000D02*
X37418748Y-77415000D01*
X37941252Y-75945000D02*
X37418748Y-75945000D01*
%TO.C,C6*%
X42949420Y-75520000D02*
X43230580Y-75520000D01*
X42949420Y-74500000D02*
X43230580Y-74500000D01*
%TO.C,D1*%
X29885000Y-68775000D02*
X29885000Y-70245000D01*
X32170000Y-68775000D02*
X29885000Y-68775000D01*
X29885000Y-70245000D02*
X32170000Y-70245000D01*
%TO.C,D2*%
X43185000Y-59285000D02*
X43185000Y-61570000D01*
X44655000Y-61570000D02*
X44655000Y-59285000D01*
X44655000Y-59285000D02*
X43185000Y-59285000D01*
%TO.C,R10*%
X39162500Y-60197258D02*
X39162500Y-59722742D01*
X38117500Y-60197258D02*
X38117500Y-59722742D01*
%TO.C,R11*%
X40722500Y-60187258D02*
X40722500Y-59712742D01*
X39677500Y-60187258D02*
X39677500Y-59712742D01*
%TO.C,R12*%
X42162500Y-60187258D02*
X42162500Y-59712742D01*
X41117500Y-60187258D02*
X41117500Y-59712742D01*
%TO.C,U1*%
X26650000Y-70280000D02*
X26650000Y-71080000D01*
X26650000Y-71880000D02*
X26650000Y-71080000D01*
X29770000Y-70280000D02*
X29770000Y-71080000D01*
X29770000Y-71880000D02*
X29770000Y-71080000D01*
X26700000Y-69780000D02*
X26370000Y-70020000D01*
X26370000Y-69540000D01*
X26700000Y-69780000D01*
G36*
X26700000Y-69780000D02*
G01*
X26370000Y-70020000D01*
X26370000Y-69540000D01*
X26700000Y-69780000D01*
G37*
%TO.C,U2*%
X36170000Y-72330000D02*
X35840000Y-72570000D01*
X35840000Y-72090000D01*
X36170000Y-72330000D01*
G36*
X36170000Y-72330000D02*
G01*
X35840000Y-72570000D01*
X35840000Y-72090000D01*
X36170000Y-72330000D01*
G37*
X39240000Y-74430000D02*
X39240000Y-73630000D01*
X39240000Y-72830000D02*
X39240000Y-73630000D01*
X36120000Y-74430000D02*
X36120000Y-73630000D01*
X36120000Y-72830000D02*
X36120000Y-73630000D01*
%TO.C,U3*%
X46355000Y-72442500D02*
X46355000Y-70242500D01*
X46355000Y-68042500D02*
X46355000Y-70242500D01*
X40885000Y-72442500D02*
X40885000Y-70242500D01*
X40885000Y-68042500D02*
X40885000Y-70242500D01*
X46135000Y-74432500D02*
X45655000Y-74432500D01*
X45895000Y-74102500D01*
X46135000Y-74432500D01*
G36*
X46135000Y-74432500D02*
G01*
X45655000Y-74432500D01*
X45895000Y-74102500D01*
X46135000Y-74432500D01*
G37*
%TD*%
M02*
