M48
; DRILL file {KiCad 8.0.4} date 2024-07-30T00:22:02+0300
; FORMAT={-:-/ absolute / metric / decimal}
; #@! TF.CreationDate,2024-07-30T00:22:02+03:00
; #@! TF.GenerationSoftware,Kicad,Pcbnew,8.0.4
; #@! TF.FileFunction,MixedPlating,1,2
FMAT,2
METRIC
; #@! TA.AperFunction,Plated,PTH,ViaDrill
T1C0.400
; #@! TA.AperFunction,NonPlated,NPTH,ComponentDrill
T2C0.600
; #@! TA.AperFunction,NonPlated,NPTH,ComponentDrill
T3C2.000
%
G90
G05
T1
X28.92Y-61.36
X28.97Y-49.67
X29.08Y-58.3
X29.35Y-46.7
T2
X13.2Y-7.6
X13.2Y-8.45
X13.2Y-9.3
X13.2Y-10.15
X13.2Y-11.0
X13.2Y-11.85
X13.2Y-85.9
X13.2Y-86.75
X13.2Y-87.6
X13.2Y-88.45
X13.2Y-89.3
X13.2Y-90.15
X20.55Y-83.45
X21.35Y-83.55
X22.15Y-83.65
X22.95Y-83.7
X23.75Y-83.75
X25.55Y-21.35
X26.35Y-21.3
X27.15Y-21.3
X27.95Y-21.3
X28.75Y-21.35
X54.6Y-60.95
X54.6Y-61.75
X54.6Y-62.55
X54.6Y-63.35
X54.6Y-64.15
X56.0Y-7.6
X56.0Y-8.45
X56.0Y-9.3
X56.0Y-10.15
X56.0Y-11.0
X56.0Y-11.85
X56.05Y-85.9
X56.05Y-86.75
X56.05Y-87.6
X56.05Y-88.45
X56.05Y-89.3
X56.05Y-90.15
T3
X11.15Y-87.85
X11.3Y-9.9
X17.3Y-16.7
X57.9Y-9.75
X57.9Y-87.85
M30
