%TF.GenerationSoftware,KiCad,Pcbnew,8.0.4*%
%TF.CreationDate,2024-07-30T22:23:39+03:00*%
%TF.ProjectId,purrChash,70757272-4368-4617-9368-2e6b69636164,rev?*%
%TF.SameCoordinates,Original*%
%TF.FileFunction,Profile,NP*%
%FSLAX46Y46*%
G04 Gerber Fmt 4.6, Leading zero omitted, Abs format (unit mm)*
G04 Created by KiCad (PCBNEW 8.0.4) date 2024-07-30 22:23:39*
%MOMM*%
%LPD*%
G01*
G04 APERTURE LIST*
%TA.AperFunction,Profile*%
%ADD10C,0.012243*%
%TD*%
G04 APERTURE END LIST*
D10*
X38497031Y-14312549D02*
X38437458Y-14249483D01*
X17716260Y-63216516D02*
X17563976Y-63446186D01*
X26073268Y-83350685D02*
X26200704Y-83282722D01*
X43755211Y-41734442D02*
X43547465Y-41914189D01*
X55996366Y-64599910D02*
X55996366Y-85505069D01*
X49371865Y-47207007D02*
X49306013Y-47208802D01*
X41736684Y-44931724D02*
X41680326Y-45200463D01*
X29764702Y-21326692D02*
X29723288Y-21387190D01*
X51065197Y-47581704D02*
X51023906Y-47673985D01*
X15415081Y-53226229D02*
X15497140Y-53478628D01*
X15255588Y-52436129D02*
X15293161Y-52705265D01*
X38564495Y-35113443D02*
X38672338Y-34803698D01*
X20186072Y-83059009D02*
X20156506Y-85381505D01*
X18476677Y-78234212D02*
X18538796Y-78295381D01*
X51475418Y-51637675D02*
X51692161Y-51575566D01*
X20152470Y-85487442D02*
X20151581Y-85489356D01*
X20132300Y-85504693D02*
X20129490Y-85505228D01*
X15190687Y-51803993D02*
X15191415Y-51961173D01*
X38442296Y-35416159D02*
X38564495Y-35113443D01*
X23307355Y-18981085D02*
X22963261Y-18569641D01*
X53853341Y-58747561D02*
X53789025Y-58541407D01*
X34817894Y-83533214D02*
X35143609Y-83621752D01*
X53481201Y-57728291D02*
X53390862Y-57528140D01*
X16375771Y-74919794D02*
X16588018Y-75398627D01*
X52293835Y-51278095D02*
X52385042Y-51212691D01*
X33857677Y-83171343D02*
X34174652Y-83308491D01*
X18347032Y-60255142D02*
X18384462Y-60393606D01*
X38670535Y-29994034D02*
X38268868Y-28641822D01*
X49209610Y-50809856D02*
X49420984Y-51042217D01*
X29655782Y-83684492D02*
X29787280Y-83692512D01*
X17148674Y-37189470D02*
X17332778Y-37438392D01*
X47497594Y-49234447D02*
X47435484Y-48923518D01*
X54235140Y-60638532D02*
X54178633Y-60217170D01*
X16456697Y-42417842D02*
X16223283Y-42956386D01*
X14941192Y-22470104D02*
X15007432Y-23012352D01*
X15191415Y-51961173D02*
X15201917Y-52118904D01*
X39698796Y-20745313D02*
X39721172Y-19825748D01*
X55996366Y-12250000D02*
X55996366Y-60615692D01*
X18581538Y-79128906D02*
X18508304Y-79281597D01*
X49556801Y-45871058D02*
X49654891Y-45885428D01*
X50421879Y-46199143D02*
X50508354Y-46259477D01*
X18680048Y-78833458D02*
X18663050Y-78905932D01*
X48967828Y-47338504D02*
X48898098Y-47392606D01*
X15223029Y-52277214D02*
X15255588Y-52436129D01*
X40686102Y-45662316D02*
X40583770Y-45672138D01*
X17332053Y-76779538D02*
X17612388Y-77218639D01*
X49398743Y-52181553D02*
X49014472Y-51734774D01*
X20134908Y-85503971D02*
X20132300Y-85504693D01*
X18508304Y-79281597D02*
X18426058Y-79436977D01*
X50773623Y-47848972D02*
X50708479Y-47835687D01*
X16212757Y-54897882D02*
X16358555Y-55121235D01*
X59567069Y-90521417D02*
X9579309Y-90521417D01*
X9579309Y-7233662D01*
X59567069Y-7233662D01*
X59567069Y-90521417D01*
X39492265Y-83561403D02*
X40158057Y-83391001D01*
X26200704Y-83282722D02*
X26327985Y-83226422D01*
X52473152Y-51142862D02*
X52557974Y-51068645D01*
X15710416Y-26204084D02*
X15883721Y-26720876D01*
X20149438Y-85493041D02*
X20148169Y-85494786D01*
X52922300Y-56517297D02*
X52779573Y-56259447D01*
X14794688Y-19746061D02*
X14818586Y-20836151D01*
X39710843Y-18907675D02*
X39690643Y-18449900D01*
X38064819Y-41233541D02*
X37521401Y-40379664D01*
X48343464Y-48842331D02*
X48355807Y-48990601D01*
X20061845Y-85505069D02*
X20060857Y-85505362D01*
X49581864Y-40901477D02*
X49201446Y-40756556D01*
X39658942Y-17993341D02*
X39614633Y-17538280D01*
X48808967Y-40638448D02*
X48405016Y-40548452D01*
X30295098Y-83683563D02*
X30404876Y-83689950D01*
X16039603Y-29458836D02*
X15902040Y-29878568D01*
X40040350Y-45863151D02*
X39917457Y-45370590D01*
X15215212Y-51491174D02*
X15198898Y-51647336D01*
X53562394Y-49050448D02*
X53648115Y-48651214D01*
X15562936Y-33748403D02*
X15668224Y-34172500D01*
X15697730Y-53968692D02*
X15813973Y-54206928D01*
X18457249Y-61209091D02*
X18446413Y-61342185D01*
X48340882Y-48694726D02*
X48343464Y-48842331D01*
X38268868Y-28641822D02*
X38269633Y-28474760D01*
X37113824Y-37660952D02*
X37485064Y-37120367D01*
X47678241Y-46878101D02*
X47748760Y-46744493D01*
X40158057Y-83391001D02*
X40816731Y-83188558D01*
X17381149Y-14036290D02*
X17289353Y-14004006D01*
X49694611Y-47287199D02*
X49630785Y-47261184D01*
X37285366Y-14081794D02*
X37013208Y-14188719D01*
X50875879Y-46614166D02*
X50933062Y-46693970D01*
X55996366Y-85505069D02*
X24073106Y-85505069D01*
X24073106Y-83456972D02*
X24073106Y-85505069D01*
X18084672Y-80156938D02*
X18062717Y-80237862D01*
X18386144Y-39487105D02*
X18014997Y-39932399D01*
X42103892Y-82702973D02*
X42727961Y-82427542D01*
X19111500Y-82750056D02*
X19223563Y-82806074D01*
X54241875Y-65137679D02*
X54280270Y-64506884D01*
X30398808Y-19967425D02*
X30354147Y-20036162D01*
X18351163Y-82136911D02*
X18429868Y-82228223D01*
X27597186Y-83158999D02*
X27851392Y-83219173D01*
X49105063Y-47260184D02*
X49036801Y-47294555D01*
X18770868Y-39062520D02*
X18386144Y-39487105D01*
X18384462Y-60393606D02*
X18414247Y-60531390D01*
X33335999Y-83043363D02*
X33544166Y-83017027D01*
X16816019Y-13903626D02*
X16718193Y-13897467D01*
X19223563Y-82806074D02*
X19338301Y-82857019D01*
X46458327Y-40498483D02*
X46188513Y-40546437D01*
X15550079Y-71908347D02*
X15629224Y-72422728D01*
X39394969Y-16184892D02*
X39268388Y-15864947D01*
X53161779Y-44635165D02*
X52991747Y-44259730D01*
X41680326Y-45200463D02*
X41637884Y-45472184D01*
X18142745Y-79995239D02*
X18111566Y-80076044D01*
X20123239Y-85505685D02*
X20098446Y-85505686D01*
X18096306Y-81735632D02*
X18150362Y-81841062D01*
X33449682Y-16665420D02*
X33031520Y-17080493D01*
X15810721Y-34592193D02*
X15896658Y-34800113D01*
X50515444Y-47766093D02*
X50451750Y-47734896D01*
X29723288Y-21387190D02*
X29679266Y-21443465D01*
X15595606Y-46353771D02*
X15613987Y-46643741D01*
X20078674Y-85505569D02*
X20060857Y-85505362D01*
X48436732Y-48118378D02*
X48395986Y-48259612D01*
X40816731Y-83188558D02*
X41466079Y-82957930D01*
X20098446Y-85505686D02*
X20078674Y-85505569D01*
X53043765Y-50429317D02*
X53095465Y-50321306D01*
X16169125Y-14298127D02*
X16038567Y-14444634D01*
X17311203Y-57209849D02*
X17372052Y-57458144D01*
X16309182Y-14157728D02*
X16169125Y-14298127D01*
X29343941Y-21670236D02*
X29273448Y-21685852D01*
X29679266Y-21443465D02*
X29632344Y-21495120D01*
X48617967Y-45977867D02*
X48766931Y-45930057D01*
X15668224Y-34172500D02*
X15734674Y-34382952D01*
X27089673Y-83096401D02*
X27216495Y-83103175D01*
X18211078Y-81943184D02*
X18278123Y-82041849D01*
X36949901Y-39546125D02*
X36359466Y-38731322D01*
X53789025Y-58541407D02*
X53719802Y-58336353D01*
X15872709Y-66706007D02*
X15756974Y-67098122D01*
X49271070Y-45867032D02*
X49364412Y-45861612D01*
X17008388Y-13930594D02*
X16912737Y-13914750D01*
X39652578Y-21664119D02*
X39698796Y-20745313D01*
X50224516Y-51631669D02*
X50338555Y-51657252D01*
X49654891Y-45885428D02*
X49753605Y-45905898D01*
X22963261Y-18569641D02*
X22605808Y-18168624D01*
X20143483Y-85499478D02*
X20141604Y-85500816D01*
X50643764Y-47817063D02*
X50579434Y-47793674D01*
X19338301Y-82857019D02*
X19455383Y-82902744D01*
X39613590Y-44405383D02*
X39435120Y-43933207D01*
X17915271Y-14294930D02*
X17740128Y-14197976D01*
X17332778Y-37438392D02*
X17523516Y-37682678D01*
X49306013Y-47208802D02*
X49239625Y-47217881D01*
X20252902Y-15964385D02*
X19420288Y-15299201D01*
X30446437Y-19901995D02*
X30398808Y-19967425D01*
X19090795Y-15092017D02*
X18760660Y-14862672D01*
X47007023Y-40447069D02*
X46731301Y-40465211D01*
X15591737Y-53726021D02*
X15697730Y-53968692D01*
X53310011Y-49830755D02*
X53449888Y-49444060D01*
X24824296Y-83466072D02*
X25075087Y-83457456D01*
X39690643Y-18449900D02*
X39658942Y-17993341D01*
X15509451Y-68296986D02*
X15462525Y-68702978D01*
X48723026Y-47582355D02*
X48632099Y-47711282D01*
X18402499Y-78174591D02*
X18476677Y-78234212D01*
X39500258Y-23825917D02*
X39524078Y-23490457D01*
X39524078Y-23490457D02*
X39652578Y-21664119D01*
X47435484Y-48923518D02*
X47397762Y-48601578D01*
X47565052Y-40457979D02*
X47285078Y-40444509D01*
X17405095Y-63670362D02*
X17075537Y-64101310D01*
X50179919Y-76012128D02*
X50853445Y-74980201D01*
X48898098Y-47392606D02*
X48827569Y-47457433D01*
X36802075Y-83845494D02*
X37474258Y-83841810D01*
X47615710Y-47017829D02*
X47678241Y-46878101D01*
X18315607Y-78116576D02*
X18402499Y-78174591D01*
X16511058Y-28234820D02*
X16188527Y-29044381D01*
X53708343Y-68169348D02*
X53983416Y-66972364D01*
X18113551Y-62496851D02*
X17993047Y-62741617D01*
X39721172Y-19825748D02*
X39710843Y-18907675D01*
X46188513Y-40546437D02*
X45922273Y-40608622D01*
X48548944Y-49728947D02*
X48610857Y-49873419D01*
X20156492Y-85467299D02*
X20156323Y-85470445D01*
X43547465Y-41914189D02*
X43347844Y-42103219D01*
X30132084Y-20495849D02*
X30006237Y-20818254D01*
X15756974Y-67098122D02*
X15657382Y-67494217D01*
X15917153Y-14596934D02*
X15804526Y-14754711D01*
X47514032Y-47312918D02*
X47561023Y-47162996D01*
X36359466Y-38731322D02*
X37113824Y-37660952D01*
X30199318Y-20336260D02*
X30132084Y-20495849D01*
X50600397Y-53488622D02*
X49794442Y-52620517D01*
X16188527Y-29044381D02*
X16039603Y-29458836D01*
X41806544Y-44666416D02*
X41736684Y-44931724D01*
X15454588Y-32890518D02*
X15492507Y-33320782D01*
X38637641Y-26701313D02*
X38863705Y-26071682D01*
X15941529Y-48733375D02*
X15922301Y-48885359D01*
X16358555Y-55121235D02*
X16508881Y-55341582D01*
X16912737Y-13914750D02*
X16816019Y-13903626D01*
X29524727Y-83670238D02*
X29655782Y-83684492D01*
X31473387Y-83555947D02*
X31682269Y-83499534D01*
X38553867Y-14378990D02*
X38497031Y-14312549D01*
X52801997Y-43894243D02*
X52593120Y-43540001D01*
X31682269Y-83499534D02*
X31890108Y-83438117D01*
X47442563Y-47624297D02*
X47474594Y-47466912D01*
X36226566Y-14562265D02*
X35725376Y-14851468D01*
X38997333Y-31372946D02*
X38930677Y-31026403D01*
X53707641Y-48247658D02*
X53741562Y-47841075D01*
X28106134Y-83291528D02*
X28617935Y-83451567D01*
X20061845Y-85505069D02*
X13150000Y-85505069D01*
X15745097Y-47514071D02*
X15811506Y-47667077D01*
X15611743Y-45486865D02*
X15594819Y-45775148D01*
X51392876Y-54366322D02*
X51000787Y-53924570D01*
X18460234Y-60940370D02*
X18461939Y-61075143D01*
X38947759Y-33812480D02*
X39026193Y-33463879D01*
X49875191Y-51440723D02*
X50111170Y-51600934D01*
X50567958Y-51693104D02*
X50797862Y-51708781D01*
X15727764Y-44628342D02*
X15639765Y-45199513D01*
X15896130Y-49037338D02*
X15826302Y-49341399D01*
X17009811Y-41377779D02*
X16719767Y-41891148D01*
X49201446Y-40756556D02*
X48808967Y-40638448D01*
X38093649Y-13993568D02*
X38014718Y-13956030D01*
X54280270Y-64506884D02*
X55996366Y-64599910D01*
X49364412Y-45861612D02*
X49459815Y-45863036D01*
X18219465Y-62247515D02*
X18113551Y-62496851D01*
X37837597Y-36569422D02*
X38003392Y-36288478D01*
X20150573Y-85491226D02*
X20149438Y-85493041D01*
X39086805Y-32068486D02*
X39050140Y-31720373D01*
X26962852Y-83096650D02*
X27089673Y-83096401D01*
X51023906Y-47673985D02*
X50970790Y-47765911D01*
X48299945Y-50804157D02*
X47979554Y-50313510D01*
X24524319Y-20737253D02*
X24246573Y-20281041D01*
X50743754Y-46462680D02*
X50812616Y-46536987D01*
X38535046Y-27017612D02*
X38637641Y-26701313D01*
X24573112Y-83468498D02*
X24824296Y-83466072D01*
X43347844Y-42103219D02*
X43156761Y-42301079D01*
X16074557Y-27231944D02*
X16283483Y-27736766D01*
X50388310Y-47700654D02*
X50262012Y-47625335D01*
X14874169Y-18171716D02*
X14829615Y-18973112D01*
X15856136Y-44063113D02*
X15727764Y-44628342D01*
X34772936Y-15512592D02*
X34319093Y-15878425D01*
X49950993Y-45964147D02*
X50048709Y-46001429D01*
X51282424Y-41982874D02*
X50971146Y-41723347D01*
X17438428Y-57704893D02*
X17585861Y-58194278D01*
X50669770Y-46391494D02*
X50743754Y-46462680D01*
X25141381Y-21685852D02*
X25019068Y-21685852D01*
X43336078Y-82135492D02*
X43926036Y-81830680D01*
X16802976Y-36676898D02*
X16971857Y-36935707D01*
X29471234Y-21618407D02*
X29409772Y-21647622D01*
X30272556Y-20181974D02*
X30199318Y-20336260D01*
X15992778Y-35006603D02*
X16100382Y-35299991D01*
X51027275Y-46860456D02*
X51063348Y-46946642D01*
X52716999Y-50907192D02*
X52790822Y-50820029D01*
X16309709Y-65556958D02*
X16149783Y-65935084D01*
X18255454Y-79753936D02*
X18177555Y-79914580D01*
X23950303Y-19836480D02*
X23636800Y-19403263D01*
X20146758Y-85496450D02*
X20145199Y-85498018D01*
X39077022Y-33114983D02*
X39102539Y-32765988D01*
X51122906Y-47305212D02*
X51114218Y-47397069D01*
X17660106Y-40396928D02*
X17324150Y-40879214D01*
X36133814Y-83797860D02*
X36802075Y-83845494D01*
X41637884Y-45472184D02*
X41609771Y-45746436D01*
X15177151Y-16176259D02*
X15083269Y-16564338D01*
X17324150Y-40879214D02*
X17009811Y-41377779D01*
X19455383Y-82902744D02*
X19574476Y-82943101D01*
X48226279Y-46192147D02*
X48347786Y-46109594D01*
X50853445Y-74980201D02*
X51471024Y-73911395D01*
X20126473Y-85505563D02*
X20123239Y-85505685D01*
X25141381Y-21685852D02*
X25110317Y-12250000D01*
X38672338Y-34803698D02*
X38764443Y-34486292D01*
X16719767Y-41891148D02*
X16456697Y-42417842D01*
X53967845Y-59162965D02*
X53912898Y-58954764D01*
X53294872Y-57329342D02*
X53180566Y-57051819D01*
X52199720Y-51339038D02*
X52293835Y-51278095D01*
X54178633Y-60217170D02*
X54106513Y-59793051D01*
X32715844Y-83184148D02*
X32922080Y-83129010D01*
X50136200Y-47544726D02*
X50010522Y-47463417D01*
X47400137Y-47946507D02*
X47442563Y-47624297D01*
X19255458Y-15199356D02*
X19090795Y-15092017D01*
X52385042Y-51212691D02*
X52473152Y-51142862D01*
X17964304Y-80662122D02*
X17943475Y-80790716D01*
X41415651Y-45709502D02*
X41314347Y-45693563D01*
X38839427Y-34160589D02*
X38947759Y-33812480D01*
X18461939Y-61075143D02*
X18457249Y-61209091D01*
X39556606Y-17084997D02*
X39483754Y-16633774D01*
X25075087Y-83457456D02*
X25325434Y-83442129D01*
X47990181Y-40487863D02*
X47565052Y-40457979D01*
X21466217Y-17025083D02*
X21068248Y-16662720D01*
X30404876Y-83689950D02*
X30622595Y-83689845D01*
X20156539Y-85464609D02*
X20156492Y-85467299D01*
X26836010Y-83104583D02*
X26962852Y-83096650D01*
X39105036Y-32417090D02*
X39086805Y-32068486D01*
X16642682Y-36412838D02*
X16802976Y-36676898D01*
X48478300Y-46037940D02*
X48617967Y-45977867D01*
X18760660Y-14862672D02*
X18427256Y-14626797D01*
X16668811Y-64817080D02*
X16482954Y-65184176D01*
X17256355Y-56959880D02*
X17311203Y-57209849D01*
X15344778Y-50870924D02*
X15268805Y-51180225D01*
X50812616Y-46536987D02*
X50875879Y-46614166D01*
X15904268Y-47972442D02*
X15932293Y-48124857D01*
X51578108Y-42261431D02*
X51282424Y-41982874D01*
X40386714Y-45708806D02*
X40293229Y-45736573D01*
X15083269Y-16564338D02*
X15008877Y-16960447D01*
X53440338Y-45410688D02*
X53311506Y-45019250D01*
X18513904Y-82315638D02*
X18602941Y-82399009D01*
X47979554Y-50313510D02*
X47830734Y-50060362D01*
X33128718Y-83081386D02*
X33335999Y-83043363D01*
X20153247Y-85485498D02*
X20152470Y-85487442D01*
X30006237Y-20818254D02*
X29942928Y-20974729D01*
X50239791Y-46091065D02*
X50332199Y-46142923D01*
X52991747Y-44259730D02*
X52801997Y-43894243D01*
X48679532Y-50015958D02*
X48835458Y-50293759D01*
X15883721Y-26720876D02*
X16074557Y-27231944D01*
X15198898Y-51647336D02*
X15190687Y-51803993D01*
X48494221Y-49582916D02*
X48548944Y-49728947D01*
X39102539Y-32765988D02*
X39105036Y-32417090D01*
X18896729Y-82623387D02*
X19002445Y-82689111D01*
X38845243Y-14834389D02*
X38756640Y-14673456D01*
X49643986Y-51253495D02*
X49875191Y-51440723D01*
X37013208Y-14188719D02*
X36746130Y-14304693D01*
X15939321Y-54441015D02*
X16072631Y-54671238D01*
X35241264Y-15169258D02*
X34772936Y-15512592D01*
X18014997Y-39932399D02*
X17660106Y-40396928D01*
X18613140Y-79053715D02*
X18581538Y-79128906D01*
X38444157Y-27335829D02*
X38535046Y-27017612D01*
X32922080Y-83129010D02*
X33128718Y-83081386D01*
X15778187Y-30302697D02*
X15670395Y-30730343D01*
X30610070Y-19729514D02*
X30551775Y-19782643D01*
X42727961Y-82427542D02*
X43336078Y-82135492D01*
X20156506Y-85461017D02*
X20156539Y-85464609D01*
X38437458Y-14249483D02*
X38375009Y-14190042D01*
X49502135Y-47222971D02*
X49437225Y-47211921D01*
X29273448Y-21685852D02*
X29204968Y-21685852D01*
X18046354Y-80318758D02*
X18036238Y-80399566D01*
X25325434Y-83442129D02*
X25575282Y-83419572D01*
X17995114Y-80531690D02*
X17964304Y-80662122D01*
X20156506Y-85381505D02*
X20156506Y-85461017D01*
X18429868Y-82228223D02*
X18513904Y-82315638D01*
X16818836Y-75868731D02*
X17067191Y-76329301D01*
X13150000Y-85505069D02*
X13150000Y-12250000D01*
X53645522Y-58132448D02*
X53566038Y-57929744D01*
X25019068Y-21685852D02*
X24782247Y-21205422D01*
X15644806Y-46933904D02*
X15688397Y-47224075D01*
X50933062Y-46693970D02*
X50983687Y-46776149D01*
X53449888Y-49444060D02*
X53562394Y-49050448D01*
X21068248Y-16662720D02*
X20663379Y-16309256D01*
X48113634Y-46284915D02*
X48226279Y-46192147D01*
X32221805Y-17938578D02*
X30672508Y-19681278D01*
X14888010Y-21926307D02*
X14941192Y-22470104D01*
X38240921Y-14083044D02*
X38169003Y-14035990D01*
X50508354Y-46259477D02*
X50591144Y-46323677D01*
X48827569Y-47457433D02*
X48723026Y-47582355D01*
X15290097Y-24624583D02*
X15414163Y-25155416D01*
X52365703Y-43198302D02*
X52120337Y-42870442D01*
X54106513Y-59793051D02*
X54018331Y-59372113D01*
X17907163Y-77645802D02*
X18215348Y-78060226D01*
X42093001Y-43895584D02*
X41985116Y-44147896D01*
X49014472Y-51734774D02*
X48646562Y-51276777D01*
X52132421Y-55280852D02*
X51771732Y-54817281D01*
X35725376Y-14851468D02*
X35241264Y-15169258D01*
X18036238Y-80399566D02*
X17995114Y-80531690D01*
X53912898Y-58954764D02*
X53853341Y-58747561D01*
X38148157Y-83790663D02*
X38821562Y-83695909D01*
X53734940Y-47024022D02*
X53695576Y-46616146D01*
X15007432Y-23012352D02*
X15087291Y-23552530D01*
X38003392Y-36288478D02*
X38160362Y-36003043D01*
X47748760Y-46744493D02*
X47827414Y-46617687D01*
X22236289Y-17777729D02*
X21855995Y-17396651D01*
X38807285Y-42555992D02*
X38571009Y-42109357D01*
X19002445Y-82689111D02*
X19111500Y-82750056D01*
X47385592Y-48274088D02*
X47400137Y-47946507D01*
X39774750Y-44884444D02*
X39613590Y-44405383D01*
X18690872Y-78762007D02*
X18680048Y-78833458D01*
X34319093Y-15878425D02*
X33878441Y-16263716D01*
X14847328Y-21381482D02*
X14888010Y-21926307D01*
X45490007Y-80830443D02*
X45984467Y-80463447D01*
X38659887Y-14520985D02*
X38553867Y-14378990D01*
X44982087Y-81181017D02*
X45490007Y-80830443D01*
X51771732Y-54817281D02*
X51392876Y-54366322D01*
X39093866Y-25441358D02*
X39201581Y-25124193D01*
X38863705Y-26071682D02*
X39093866Y-25441358D01*
X15640108Y-49950700D02*
X15436444Y-50563051D01*
X20064321Y-83047915D02*
X20186072Y-83059009D01*
X15864284Y-47819858D02*
X15904268Y-47972442D01*
X17563976Y-63446186D02*
X17405095Y-63670362D01*
X48632099Y-47711282D02*
X48554360Y-47843842D01*
X53648115Y-48651214D02*
X53707641Y-48247658D01*
X29942928Y-20974729D02*
X29876232Y-21123823D01*
X16022202Y-43505302D02*
X15856136Y-44063113D01*
X47397762Y-48601578D02*
X47385592Y-48274088D01*
X38852463Y-30680938D02*
X38670535Y-29994034D01*
X49450772Y-77002745D02*
X50179919Y-76012128D01*
X54235140Y-60638532D02*
X55996366Y-60615692D01*
X44193421Y-41404591D02*
X43970667Y-41564426D01*
X48447118Y-49435694D02*
X48494221Y-49582916D01*
X15446830Y-32458490D02*
X15454588Y-32890518D01*
X41889492Y-44404991D02*
X41806544Y-44666416D01*
X50145135Y-46043817D02*
X50239791Y-46091065D01*
X15734674Y-34382952D02*
X15810721Y-34592193D01*
X38571009Y-42109357D02*
X38323139Y-41668607D01*
X15466881Y-32025578D02*
X15446830Y-32458490D01*
X18429681Y-61474397D02*
X18379528Y-61736057D01*
X44901329Y-40990674D02*
X44659166Y-41117265D01*
X52003525Y-51447397D02*
X52102887Y-51395484D01*
X15738733Y-49645779D02*
X15640108Y-49950700D01*
X15860775Y-73438927D02*
X16011117Y-73939142D01*
X17930431Y-81041799D02*
X17937552Y-81163995D01*
X39002477Y-15173589D02*
X38926816Y-15001772D01*
X39435120Y-43933207D02*
X39240484Y-43467717D01*
X34174652Y-83308491D02*
X34494817Y-83428954D01*
X48408062Y-49287654D02*
X48447118Y-49435694D01*
X18049242Y-81627041D02*
X18096306Y-81735632D01*
X32622660Y-17505894D02*
X32221805Y-17938578D01*
X15613987Y-46643741D02*
X15644806Y-46933904D01*
X18602941Y-82399009D02*
X18696645Y-82478189D01*
X48666328Y-77947618D02*
X49450772Y-77002745D01*
X49949632Y-41071914D02*
X49581864Y-40901477D01*
X17926158Y-59160230D02*
X18301708Y-60116026D01*
X41985116Y-44147896D02*
X41889492Y-44404991D01*
X15470214Y-70871033D02*
X15496732Y-71390849D01*
X15639765Y-45199513D02*
X15611743Y-45486865D01*
X15201917Y-52118904D02*
X15223029Y-52277214D01*
X29409772Y-21647622D02*
X29343941Y-21670236D01*
X47914347Y-46498368D02*
X48009705Y-46387216D01*
X15496732Y-71390849D02*
X15550079Y-71908347D01*
X40293229Y-45736573D02*
X40203931Y-45771244D01*
X17993047Y-62741617D02*
X17859950Y-62981582D01*
X18150362Y-81841062D02*
X18211078Y-81943184D01*
X19695249Y-82977944D02*
X19817368Y-83007125D01*
X26709125Y-83120864D02*
X26836010Y-83104583D01*
X48405016Y-40548452D02*
X47990181Y-40487863D01*
X16491625Y-36143322D02*
X16642682Y-36412838D01*
X27216495Y-83103175D02*
X27343339Y-83116307D01*
X18589509Y-78358040D02*
X18629469Y-78422131D01*
X18111566Y-80076044D02*
X18084672Y-80156938D01*
X38307124Y-35712481D02*
X38442296Y-35416159D01*
X40483768Y-45687480D02*
X40386714Y-45708806D01*
X15512392Y-31592663D02*
X15466881Y-32025578D01*
X15492507Y-33320782D02*
X15562936Y-33748403D01*
X46465429Y-80080582D02*
X46932851Y-79682402D01*
X15293161Y-52705265D02*
X15346707Y-52968536D01*
X15594819Y-45775148D02*
X15589328Y-46064178D01*
X50970790Y-47765911D02*
X50905370Y-47857232D01*
X18427256Y-14626797D02*
X18258507Y-14511295D01*
X38375009Y-14190042D02*
X38309543Y-14134479D01*
X15952978Y-48581361D02*
X15941529Y-48733375D01*
X52102887Y-51395484D02*
X52199720Y-51339038D01*
X52790822Y-50820029D02*
X52860600Y-50728623D01*
X18087955Y-14400021D02*
X17915271Y-14294930D01*
X39050140Y-31720373D02*
X38997333Y-31372946D01*
X15414163Y-25155416D02*
X15554083Y-25682090D01*
X49459815Y-45863036D02*
X49556801Y-45871058D01*
X37521401Y-40379664D02*
X36949901Y-39546125D01*
X15515811Y-15257752D02*
X15434774Y-15434284D01*
X24246573Y-20281041D02*
X23950303Y-19836480D01*
X50839238Y-47856345D02*
X50773623Y-47848972D01*
X38368534Y-27656661D02*
X38444157Y-27335829D01*
X49437225Y-47211921D02*
X49371865Y-47207007D01*
X51000787Y-53924570D02*
X50600397Y-53488622D01*
X15932293Y-48124857D02*
X15949196Y-48277130D01*
X52032332Y-72810145D02*
X52537042Y-71680882D01*
X29787280Y-83692512D02*
X29919246Y-83693634D01*
X50010522Y-47463417D02*
X49884627Y-47385997D01*
X50905370Y-47857232D02*
X50839238Y-47856345D01*
X33878441Y-16263716D02*
X33449682Y-16665420D01*
X17196655Y-13975466D02*
X17103014Y-13950914D01*
X22605808Y-18168624D02*
X22236289Y-17777729D01*
X41466079Y-82957930D02*
X42103892Y-82702973D01*
X34494817Y-83428954D02*
X34817894Y-83533214D01*
X15426281Y-69522471D02*
X15438376Y-69935290D01*
X50338555Y-51657252D02*
X50567958Y-51693104D01*
X48766931Y-45930057D02*
X48925340Y-45895193D01*
X43926036Y-81830680D02*
X44460750Y-81514614D01*
X29394096Y-83650412D02*
X29524727Y-83670238D01*
X16003880Y-66318214D02*
X15872709Y-66706007D01*
X37562766Y-13984298D02*
X37285366Y-14081794D01*
X48646562Y-51276777D02*
X48299945Y-50804157D01*
X16283483Y-27736766D02*
X16511058Y-28234820D01*
X15949196Y-48277130D02*
X15955813Y-48429289D01*
X17720240Y-37922533D02*
X17922298Y-38158163D01*
X15826302Y-49341399D02*
X15738733Y-49645779D01*
X15268805Y-51180225D02*
X15215212Y-51491174D01*
X39140541Y-15522477D02*
X39002477Y-15173589D01*
X15008877Y-16960447D02*
X14951128Y-17362062D01*
X51063348Y-46946642D02*
X51091427Y-47034459D01*
X47285078Y-40444509D02*
X47007023Y-40447069D01*
X52470012Y-55760439D02*
X52132421Y-55280852D01*
X50971146Y-41723347D02*
X50644862Y-41484146D01*
X17977420Y-81400959D02*
X18009503Y-81515434D01*
X26582173Y-83146156D02*
X26709125Y-83120864D01*
X31263219Y-83605271D02*
X31473387Y-83555947D01*
X15346707Y-52968536D02*
X15415081Y-53226229D01*
X15554083Y-25682090D02*
X15710416Y-26204084D01*
X42974631Y-42507321D02*
X42801865Y-42721494D01*
X18379528Y-61736057D02*
X18308790Y-61993840D01*
X53180566Y-57051819D02*
X53056170Y-56781280D01*
X14951128Y-17362062D02*
X14907174Y-17766659D01*
X52120337Y-42870442D02*
X51857609Y-42557719D01*
X47830734Y-50060362D02*
X47690321Y-49801432D01*
X30672508Y-19681278D02*
X30610070Y-19729514D01*
X51095141Y-47489316D02*
X51065197Y-47581704D01*
X17749704Y-58679043D02*
X17926158Y-59160230D01*
X16866575Y-64456011D02*
X16668811Y-64817080D01*
X35143609Y-83621752D02*
X35471684Y-83695052D01*
X39299638Y-24804764D02*
X39384477Y-24482373D01*
X16350456Y-35868146D02*
X16491625Y-36143322D01*
X44460750Y-81514614D02*
X44982087Y-81181017D01*
X17103014Y-13950914D02*
X17008388Y-13930594D01*
X37845570Y-13896612D02*
X37562766Y-13984298D01*
X24321590Y-83465254D02*
X24573112Y-83468498D01*
X40119439Y-45813278D02*
X40079189Y-45837200D01*
X20137324Y-85503076D02*
X20134908Y-85503971D01*
X30497328Y-19840269D02*
X30446437Y-19901995D01*
X50591144Y-46323677D02*
X50669770Y-46391494D01*
X52639320Y-50990076D02*
X52716999Y-50907192D01*
X16072631Y-54671238D02*
X16212757Y-54897882D01*
X15087291Y-23552530D02*
X15181326Y-24090114D01*
X17585861Y-58194278D02*
X17749704Y-58679043D01*
X47582928Y-49528905D02*
X47497594Y-49234447D01*
X30184666Y-83672535D02*
X30295098Y-83683563D01*
X52779573Y-56259447D02*
X52470012Y-55760439D01*
X37932072Y-13923627D02*
X37845570Y-13896612D01*
X49753605Y-45905898D02*
X49852466Y-45932221D01*
X15688397Y-47224075D02*
X15745097Y-47514071D01*
X40790144Y-45657556D02*
X40686102Y-45662316D01*
X49852466Y-45932221D02*
X49950993Y-45964147D01*
X15434566Y-69111586D02*
X15426281Y-69522471D01*
X17953326Y-81283764D02*
X17977420Y-81400959D01*
X18301708Y-60116026D02*
X18347032Y-60255142D01*
X15438376Y-69935290D02*
X15471557Y-70349703D01*
X48348490Y-48548157D02*
X48340882Y-48694726D01*
X16971857Y-36935707D02*
X17148674Y-37189470D01*
X26327985Y-83226422D02*
X26455134Y-83181121D01*
X20155974Y-85473943D02*
X20155384Y-85477687D01*
X20148169Y-85494786D02*
X20146758Y-85496450D01*
X53566038Y-57929744D02*
X53481201Y-57728291D01*
X39030825Y-43008712D02*
X38807285Y-42555992D01*
X27343339Y-83116307D02*
X27597186Y-83158999D01*
X17932295Y-80917324D02*
X17930431Y-81041799D01*
X38930677Y-31026403D02*
X38852463Y-30680938D01*
X15700330Y-14917650D02*
X15604210Y-15085435D01*
X17612388Y-77218639D02*
X17907163Y-77645802D01*
X45922273Y-40608622D02*
X45660021Y-40684588D01*
X20141604Y-85500816D02*
X20139553Y-85502020D01*
X51253109Y-51680775D02*
X51475418Y-51637675D01*
X48610857Y-49873419D02*
X48679532Y-50015958D01*
X20151581Y-85489356D02*
X20150573Y-85491226D01*
X15589328Y-46064178D02*
X15595606Y-46353771D01*
X25575282Y-83419572D02*
X25824578Y-83389264D01*
X52537042Y-71680882D02*
X52984831Y-70528039D01*
X49420984Y-51042217D02*
X49643986Y-51253495D01*
X53695576Y-46616146D02*
X53632962Y-46210433D01*
X16100382Y-35299991D02*
X16219825Y-35587104D01*
X42343900Y-43407103D02*
X42212733Y-43648503D01*
X29919246Y-83693634D02*
X30051701Y-83687196D01*
X14829615Y-18973112D02*
X14794688Y-19746061D01*
X51026751Y-51704574D02*
X51253109Y-51680775D01*
X17943475Y-80790716D02*
X17932295Y-80917324D01*
X51121685Y-47213992D02*
X51122906Y-47305212D01*
X19817368Y-83007125D02*
X19940503Y-83030498D01*
X44423059Y-41255387D02*
X44193421Y-41404591D01*
X17166562Y-56454398D02*
X17207983Y-56708106D01*
X30622595Y-83689845D02*
X30838064Y-83674306D01*
X18062717Y-80237862D02*
X18046354Y-80318758D01*
X42638879Y-42943149D02*
X42486086Y-43171836D01*
X38014718Y-13956030D02*
X37932072Y-13923627D01*
X17523516Y-37682678D02*
X17720240Y-37922533D01*
X18663050Y-78905932D02*
X18640529Y-78979371D01*
X53719802Y-58336353D02*
X53645522Y-58132448D01*
X38926816Y-15001772D02*
X38845243Y-14834389D01*
X47826913Y-78842314D02*
X48666328Y-77947618D01*
X51111032Y-47123658D02*
X51121685Y-47213992D01*
X43156761Y-42301079D02*
X42974631Y-42507321D01*
X15670395Y-30730343D02*
X15581013Y-31160625D01*
X39614633Y-17538280D02*
X39556606Y-17084997D01*
X49630785Y-47261184D02*
X49566640Y-47239583D01*
X29632344Y-21495120D02*
X29582226Y-21541760D01*
X20153919Y-85483538D02*
X20153247Y-85485498D01*
X53632962Y-46210433D02*
X53547686Y-45808181D01*
X17372052Y-57458144D02*
X17438428Y-57704893D01*
X49758165Y-47317056D02*
X49694611Y-47287199D01*
X53095465Y-50321306D02*
X53142171Y-50209234D01*
X18339816Y-38617564D02*
X18770868Y-39062520D01*
X18308790Y-61993840D02*
X18219465Y-62247515D01*
X33031520Y-17080493D02*
X32622660Y-17505894D01*
X15657382Y-67494217D02*
X15574639Y-67893952D01*
X42486086Y-43171836D02*
X42343900Y-43407103D01*
X48355807Y-48990601D02*
X48377483Y-49139166D01*
X16038567Y-14444634D02*
X15917153Y-14596934D01*
X38309543Y-14134479D02*
X38240921Y-14083044D01*
X50451750Y-47734896D02*
X50388310Y-47700654D01*
X50644862Y-41484146D02*
X50304161Y-41266569D01*
X15497140Y-53478628D02*
X15591737Y-53726021D01*
X45660021Y-40684588D02*
X45402171Y-40773885D01*
X25824578Y-83389264D02*
X26073268Y-83350685D01*
X38311738Y-27980806D02*
X38368534Y-27656661D01*
X49093338Y-45873957D02*
X49271070Y-45867032D01*
X18451883Y-60804801D02*
X18460234Y-60940370D01*
X33544166Y-83017027D02*
X33857677Y-83171343D01*
X15471557Y-70349703D02*
X15470214Y-70871033D01*
X44659166Y-41117265D02*
X44423059Y-41255387D01*
X40895278Y-45657398D02*
X40790144Y-45657556D01*
X41000885Y-45661379D02*
X40895278Y-45657398D01*
X52987261Y-50533231D02*
X53043765Y-50429317D01*
X51857609Y-42557719D02*
X51578108Y-42261431D01*
X52557974Y-51068645D02*
X52639320Y-50990076D01*
X48925340Y-45895193D02*
X49093338Y-45873957D01*
X54200267Y-65769532D02*
X54241875Y-65137679D01*
X46932851Y-79682402D02*
X47386692Y-79269461D01*
X24782247Y-21205422D02*
X24524319Y-20737253D01*
X17740128Y-14197976D02*
X17562197Y-14111111D01*
X49172656Y-47234817D02*
X49105063Y-47260184D01*
X18009503Y-81515434D02*
X18049242Y-81627041D01*
X17922298Y-38158163D02*
X18339816Y-38617564D01*
X37474258Y-83841810D02*
X38148157Y-83790663D01*
X30838064Y-83674306D02*
X31051525Y-83645419D01*
X16588018Y-75398627D02*
X16818836Y-75868731D01*
X53547686Y-45808181D02*
X53440338Y-45410688D01*
X30051701Y-83687196D02*
X30184666Y-83672535D01*
X42801865Y-42721494D02*
X42638879Y-42943149D01*
X45402171Y-40773885D02*
X45149136Y-40876064D01*
X29803801Y-21262367D02*
X29764702Y-21326692D01*
X16459095Y-14023753D02*
X16309182Y-14157728D01*
X48347786Y-46109594D02*
X48478300Y-46037940D01*
X41609771Y-45746436D02*
X41415651Y-45709502D01*
X35471684Y-83695052D02*
X36133814Y-83797860D01*
X47827414Y-46617687D02*
X47914347Y-46498368D01*
X29528621Y-21582988D02*
X29471234Y-21618407D01*
X17562197Y-14111111D02*
X17381149Y-14036290D01*
X48554360Y-47843842D02*
X48489381Y-47979665D01*
X15955813Y-48429289D02*
X15952978Y-48581361D01*
X16718193Y-13897467D02*
X16619218Y-13896517D01*
X51692161Y-51575566D02*
X51901823Y-51494738D01*
X52593120Y-43540001D02*
X52365703Y-43198302D01*
X15434774Y-15434284D02*
X15293370Y-15798733D01*
X39452537Y-24156323D02*
X39500258Y-23825917D01*
X41314347Y-45693563D02*
X41211038Y-45679922D01*
X39201581Y-25124193D02*
X39299638Y-24804764D01*
X51114218Y-47397069D02*
X51095141Y-47489316D01*
X15436444Y-50563051D02*
X15344778Y-50870924D01*
X18278123Y-82041849D02*
X18351163Y-82136911D01*
X18640529Y-78979371D02*
X18613140Y-79053715D01*
X53741562Y-47841075D02*
X53750465Y-47432764D01*
X18629469Y-78422131D02*
X18659331Y-78487594D01*
X49036801Y-47294555D02*
X48967828Y-47338504D01*
X19940503Y-83030498D02*
X20064321Y-83047915D01*
X18426058Y-79436977D02*
X18255454Y-79753936D01*
X31890108Y-83438117D02*
X32715844Y-83184148D01*
X42212733Y-43648503D02*
X42093001Y-43895584D01*
X51901823Y-51494738D02*
X52003525Y-51447397D01*
X20155384Y-85477687D02*
X20154495Y-85481574D01*
X39026193Y-33463879D02*
X39077022Y-33114983D01*
X39483754Y-16633774D02*
X39394969Y-16184892D01*
X48395986Y-48259612D02*
X48366715Y-48402996D01*
X18659331Y-78487594D02*
X18679749Y-78554371D01*
X47561023Y-47162996D02*
X47615710Y-47017829D01*
X20129490Y-85505228D02*
X20126473Y-85505563D01*
X48489381Y-47979665D02*
X48436732Y-48118378D01*
X17207983Y-56708106D02*
X17256355Y-56959880D01*
X17289353Y-14004006D02*
X17196655Y-13975466D01*
X51091427Y-47034459D02*
X51111032Y-47123658D01*
X18436638Y-60668465D02*
X18451883Y-60804801D01*
X38756640Y-14673456D02*
X38659887Y-14520985D01*
X49239625Y-47217881D02*
X49172656Y-47234817D01*
X45149136Y-40876064D02*
X44901329Y-40990674D01*
X53750465Y-47432764D02*
X53734940Y-47024022D01*
X53375373Y-69356050D02*
X53708343Y-68169348D01*
X50708479Y-47835687D02*
X50643764Y-47817063D01*
X17937552Y-81163995D02*
X17953326Y-81283764D01*
X28617935Y-83451567D02*
X28875350Y-83528647D01*
X49794442Y-52620517D02*
X49398743Y-52181553D01*
X18696645Y-82478189D02*
X18794686Y-82553030D01*
X29876232Y-21123823D02*
X29803801Y-21262367D01*
X20663379Y-16309256D02*
X20252902Y-15964385D01*
X15813973Y-54206928D02*
X15939321Y-54441015D01*
X30551775Y-19782643D02*
X30497328Y-19840269D01*
X39268388Y-15864947D02*
X39140541Y-15522477D01*
X54018331Y-59372113D02*
X53967845Y-59162965D01*
X18414247Y-60531390D02*
X18436638Y-60668465D01*
X15181326Y-24090114D02*
X15290097Y-24624583D01*
X38169003Y-14035990D02*
X38093649Y-13993568D01*
X28875350Y-83528647D02*
X29134011Y-83596696D01*
X18177555Y-79914580D02*
X18142745Y-79995239D01*
X49566640Y-47239583D02*
X49502135Y-47222971D01*
X24073106Y-83456972D02*
X24321590Y-83465254D01*
X16619218Y-13896517D02*
X16459095Y-14023753D01*
X48366715Y-48402996D02*
X48348490Y-48548157D01*
X18794686Y-82553030D02*
X18896729Y-82623387D01*
X20139553Y-85502020D02*
X20137324Y-85503076D01*
X17859950Y-62981582D02*
X17716260Y-63216516D01*
X50111170Y-51600934D02*
X50224516Y-51631669D01*
X50304161Y-41266569D02*
X49949632Y-41071914D01*
X15293370Y-15798733D02*
X15177151Y-16176259D01*
X16219825Y-35587104D02*
X16350456Y-35868146D01*
X50797862Y-51708781D02*
X51026751Y-51704574D01*
X41211038Y-45679922D02*
X41106344Y-45669041D01*
X27851392Y-83219173D02*
X28106134Y-83291528D01*
X38269633Y-28474760D02*
X38277329Y-28308961D01*
X15629224Y-72422728D02*
X15733133Y-72933188D01*
X18538796Y-78295381D02*
X18589509Y-78358040D01*
X15581013Y-31160625D02*
X15512392Y-31592663D01*
X18258507Y-14511295D02*
X18087955Y-14400021D01*
X19574476Y-82943101D02*
X19695249Y-82977944D01*
X16508881Y-55341582D02*
X16818537Y-55774400D01*
X23636800Y-19403263D02*
X23307355Y-18981085D01*
X13150000Y-12250000D02*
X25110317Y-12250000D01*
X40583770Y-45672138D02*
X40483768Y-45687480D01*
X17067191Y-76329301D02*
X17332053Y-76779538D01*
X20156323Y-85470445D02*
X20155974Y-85473943D01*
X15804526Y-14754711D02*
X15700330Y-14917650D01*
X17132567Y-56198624D02*
X17166562Y-56454398D01*
X52926143Y-50633012D02*
X52987261Y-50533231D01*
X50332199Y-46142923D02*
X50421879Y-46199143D01*
X49884627Y-47385997D02*
X49758165Y-47317056D01*
X53056170Y-56781280D02*
X52922300Y-56517297D01*
X18679749Y-78554371D02*
X18691376Y-78622405D01*
X37485064Y-37120367D02*
X37664361Y-36846507D01*
X48377483Y-49139166D02*
X48408062Y-49287654D01*
X29582226Y-21541760D02*
X29528621Y-21582988D01*
X18694865Y-78691636D02*
X18690872Y-78762007D01*
X51471024Y-73911395D02*
X52032332Y-72810145D01*
X43970667Y-41564426D02*
X43755211Y-41734442D01*
X47474594Y-47466912D02*
X47514032Y-47312918D01*
X16183126Y-74433031D02*
X16375771Y-74919794D01*
X53390862Y-57528140D02*
X53294872Y-57329342D01*
X39240484Y-43467717D02*
X39030825Y-43008712D01*
X15462525Y-68702978D02*
X15434566Y-69111586D01*
X15922301Y-48885359D02*
X15896130Y-49037338D01*
X15896658Y-34800113D02*
X15992778Y-35006603D01*
X47386692Y-79269461D02*
X47826913Y-78842314D01*
X52860600Y-50728623D02*
X52926143Y-50633012D01*
X16482954Y-65184176D02*
X16309709Y-65556958D01*
X20145199Y-85498018D02*
X20143483Y-85499478D01*
X50262012Y-47625335D02*
X50136200Y-47544726D01*
X40203931Y-45771244D02*
X40119439Y-45813278D01*
X48835458Y-50293759D02*
X49013293Y-50559380D01*
X15733133Y-72933188D02*
X15860775Y-73438927D01*
X18446413Y-61342185D02*
X18429681Y-61474397D01*
X53311506Y-45019250D02*
X53161779Y-44635165D01*
X31051525Y-83645419D02*
X31263219Y-83605271D01*
X16818537Y-55774400D02*
X17132567Y-56198624D01*
X15902040Y-29878568D02*
X15778187Y-30302697D01*
X39917457Y-45370590D02*
X39774750Y-44884444D01*
X21855995Y-17396651D02*
X21466217Y-17025083D01*
X38277329Y-28308961D02*
X38311738Y-27980806D01*
X29204968Y-21685852D02*
X29173905Y-12250000D01*
X16011117Y-73939142D02*
X16183126Y-74433031D01*
X50983687Y-46776149D02*
X51027275Y-46860456D01*
X14907174Y-17766659D02*
X14874169Y-18171716D01*
X47690321Y-49801432D02*
X47582928Y-49528905D01*
X53142171Y-50209234D02*
X53310011Y-49830755D01*
X16223283Y-42956386D02*
X16022202Y-43505302D01*
X14818586Y-20836151D02*
X14847328Y-21381482D01*
X15574639Y-67893952D02*
X15509451Y-68296986D01*
X36746130Y-14304693D02*
X36226566Y-14562265D01*
X38821562Y-83695909D02*
X39492265Y-83561403D01*
X19420288Y-15299201D02*
X19255458Y-15199356D01*
X20154495Y-85481574D02*
X20153919Y-85483538D01*
X45984467Y-80463447D02*
X46465429Y-80080582D01*
X50579434Y-47793674D02*
X50515444Y-47766093D01*
X40079189Y-45837200D02*
X40040350Y-45863151D01*
X38160362Y-36003043D02*
X38307124Y-35712481D01*
X46731301Y-40465211D02*
X46458327Y-40498483D01*
X18691376Y-78622405D02*
X18694865Y-78691636D01*
X50048709Y-46001429D02*
X50145135Y-46043817D01*
X53983416Y-66972364D02*
X54200267Y-65769532D01*
X38323139Y-41668607D02*
X38064819Y-41233541D01*
X52984831Y-70528039D02*
X53375373Y-69356050D01*
X15604210Y-15085435D02*
X15515811Y-15257752D01*
X41106344Y-45669041D02*
X41000885Y-45661379D01*
X17075537Y-64101310D02*
X16866575Y-64456011D01*
X48009705Y-46387216D02*
X48113634Y-46284915D01*
X29134011Y-83596696D02*
X29394096Y-83650412D01*
X26455134Y-83181121D02*
X26582173Y-83146156D01*
X29173905Y-12250000D02*
X55996366Y-12250000D01*
X15811506Y-47667077D02*
X15864284Y-47819858D01*
X16149783Y-65935084D02*
X16003880Y-66318214D01*
X49013293Y-50559380D02*
X49209610Y-50809856D01*
X38764443Y-34486292D02*
X38839427Y-34160589D01*
X37664361Y-36846507D02*
X37837597Y-36569422D01*
X39384477Y-24482373D02*
X39452537Y-24156323D01*
X18215348Y-78060226D02*
X18315607Y-78116576D01*
X30354147Y-20036162D02*
X30272556Y-20181974D01*
M02*
