%TF.GenerationSoftware,KiCad,Pcbnew,(6.0.4)*%
%TF.CreationDate,2022-09-08T21:09:09+03:00*%
%TF.ProjectId,purrCat2032,70757272-4361-4743-9230-33322e6b6963,rev?*%
%TF.SameCoordinates,Original*%
%TF.FileFunction,Copper,L1,Top*%
%TF.FilePolarity,Positive*%
%FSLAX46Y46*%
G04 Gerber Fmt 4.6, Leading zero omitted, Abs format (unit mm)*
G04 Created by KiCad (PCBNEW (6.0.4)) date 2022-09-08 21:09:09*
%MOMM*%
%LPD*%
G01*
G04 APERTURE LIST*
%TA.AperFunction,EtchedComponent*%
%ADD10C,0.010000*%
%TD*%
%TA.AperFunction,ViaPad*%
%ADD11C,0.400000*%
%TD*%
%TA.AperFunction,Conductor*%
%ADD12C,0.250000*%
%TD*%
G04 APERTURE END LIST*
%TO.C,Ref\u002A\u002A*%
G36*
X33989773Y-41673506D02*
G01*
X34148112Y-41698269D01*
X34301812Y-41744299D01*
X34467445Y-41815490D01*
X34487553Y-41825244D01*
X34577943Y-41872935D01*
X34656095Y-41923539D01*
X34733700Y-41985863D01*
X34822453Y-42068717D01*
X34859712Y-42105594D01*
X34952094Y-42201166D01*
X35020753Y-42281317D01*
X35074485Y-42357728D01*
X35122087Y-42442082D01*
X35139960Y-42477753D01*
X35184121Y-42574887D01*
X35224378Y-42675416D01*
X35253821Y-42761728D01*
X35259743Y-42783122D01*
X35300788Y-43027167D01*
X35301680Y-43268380D01*
X35264583Y-43502836D01*
X35191665Y-43726606D01*
X35085090Y-43935764D01*
X34947023Y-44126383D01*
X34779632Y-44294535D01*
X34585081Y-44436293D01*
X34365535Y-44547730D01*
X34266346Y-44584563D01*
X34122804Y-44620841D01*
X33958057Y-44643902D01*
X33787537Y-44652868D01*
X33626673Y-44646861D01*
X33503303Y-44628017D01*
X33256231Y-44550210D01*
X33031324Y-44437796D01*
X32831223Y-44293161D01*
X32658571Y-44118694D01*
X32516007Y-43916783D01*
X32406173Y-43689817D01*
X32377673Y-43610170D01*
X32352757Y-43527994D01*
X32336290Y-43453608D01*
X32326521Y-43373780D01*
X32321698Y-43275278D01*
X32320239Y-43176253D01*
X32322349Y-43022132D01*
X32331566Y-42900808D01*
X32348670Y-42803222D01*
X32354256Y-42781526D01*
X32440621Y-42544664D01*
X32562382Y-42327989D01*
X32716428Y-42135238D01*
X32899648Y-41970146D01*
X33108929Y-41836449D01*
X33164637Y-41808520D01*
X33336885Y-41736940D01*
X33502686Y-41692006D01*
X33679077Y-41669957D01*
X33810220Y-41666117D01*
X33989773Y-41673506D01*
G37*
D10*
X33989773Y-41673506D02*
X34148112Y-41698269D01*
X34301812Y-41744299D01*
X34467445Y-41815490D01*
X34487553Y-41825244D01*
X34577943Y-41872935D01*
X34656095Y-41923539D01*
X34733700Y-41985863D01*
X34822453Y-42068717D01*
X34859712Y-42105594D01*
X34952094Y-42201166D01*
X35020753Y-42281317D01*
X35074485Y-42357728D01*
X35122087Y-42442082D01*
X35139960Y-42477753D01*
X35184121Y-42574887D01*
X35224378Y-42675416D01*
X35253821Y-42761728D01*
X35259743Y-42783122D01*
X35300788Y-43027167D01*
X35301680Y-43268380D01*
X35264583Y-43502836D01*
X35191665Y-43726606D01*
X35085090Y-43935764D01*
X34947023Y-44126383D01*
X34779632Y-44294535D01*
X34585081Y-44436293D01*
X34365535Y-44547730D01*
X34266346Y-44584563D01*
X34122804Y-44620841D01*
X33958057Y-44643902D01*
X33787537Y-44652868D01*
X33626673Y-44646861D01*
X33503303Y-44628017D01*
X33256231Y-44550210D01*
X33031324Y-44437796D01*
X32831223Y-44293161D01*
X32658571Y-44118694D01*
X32516007Y-43916783D01*
X32406173Y-43689817D01*
X32377673Y-43610170D01*
X32352757Y-43527994D01*
X32336290Y-43453608D01*
X32326521Y-43373780D01*
X32321698Y-43275278D01*
X32320239Y-43176253D01*
X32322349Y-43022132D01*
X32331566Y-42900808D01*
X32348670Y-42803222D01*
X32354256Y-42781526D01*
X32440621Y-42544664D01*
X32562382Y-42327989D01*
X32716428Y-42135238D01*
X32899648Y-41970146D01*
X33108929Y-41836449D01*
X33164637Y-41808520D01*
X33336885Y-41736940D01*
X33502686Y-41692006D01*
X33679077Y-41669957D01*
X33810220Y-41666117D01*
X33989773Y-41673506D01*
G36*
X34010141Y-36801192D02*
G01*
X34037557Y-36804564D01*
X34288295Y-36857738D01*
X34518946Y-36946209D01*
X34726895Y-37067167D01*
X34909525Y-37217799D01*
X35064222Y-37395293D01*
X35188369Y-37596838D01*
X35279350Y-37819622D01*
X35334551Y-38060832D01*
X35349488Y-38214857D01*
X35350045Y-38414783D01*
X35328339Y-38592346D01*
X35281134Y-38763000D01*
X35205192Y-38942201D01*
X35191161Y-38970696D01*
X35137073Y-39071760D01*
X35081860Y-39156507D01*
X35015440Y-39238529D01*
X34927733Y-39331413D01*
X34911409Y-39347833D01*
X34820564Y-39435700D01*
X34743926Y-39500853D01*
X34668347Y-39552887D01*
X34580679Y-39601398D01*
X34528856Y-39627016D01*
X34286855Y-39722391D01*
X34043176Y-39775569D01*
X33796806Y-39786684D01*
X33546736Y-39755867D01*
X33545637Y-39755641D01*
X33459867Y-39732222D01*
X33354084Y-39695000D01*
X33245521Y-39650296D01*
X33196387Y-39627506D01*
X33101838Y-39579181D01*
X33025185Y-39532672D01*
X32954397Y-39479070D01*
X32877445Y-39409468D01*
X32804011Y-39336934D01*
X32711757Y-39240635D01*
X32643179Y-39159779D01*
X32589501Y-39082621D01*
X32541948Y-38997417D01*
X32525402Y-38964086D01*
X32480948Y-38864451D01*
X32440110Y-38758948D01*
X32410057Y-38666486D01*
X32404486Y-38645234D01*
X32380216Y-38496269D01*
X32371186Y-38325117D01*
X32377204Y-38149013D01*
X32398077Y-37985189D01*
X32412553Y-37918945D01*
X32491735Y-37690216D01*
X32605027Y-37481087D01*
X32748345Y-37294357D01*
X32917606Y-37132828D01*
X33108726Y-36999300D01*
X33317623Y-36896572D01*
X33540214Y-36827444D01*
X33772414Y-36794718D01*
X34010141Y-36801192D01*
G37*
X34010141Y-36801192D02*
X34037557Y-36804564D01*
X34288295Y-36857738D01*
X34518946Y-36946209D01*
X34726895Y-37067167D01*
X34909525Y-37217799D01*
X35064222Y-37395293D01*
X35188369Y-37596838D01*
X35279350Y-37819622D01*
X35334551Y-38060832D01*
X35349488Y-38214857D01*
X35350045Y-38414783D01*
X35328339Y-38592346D01*
X35281134Y-38763000D01*
X35205192Y-38942201D01*
X35191161Y-38970696D01*
X35137073Y-39071760D01*
X35081860Y-39156507D01*
X35015440Y-39238529D01*
X34927733Y-39331413D01*
X34911409Y-39347833D01*
X34820564Y-39435700D01*
X34743926Y-39500853D01*
X34668347Y-39552887D01*
X34580679Y-39601398D01*
X34528856Y-39627016D01*
X34286855Y-39722391D01*
X34043176Y-39775569D01*
X33796806Y-39786684D01*
X33546736Y-39755867D01*
X33545637Y-39755641D01*
X33459867Y-39732222D01*
X33354084Y-39695000D01*
X33245521Y-39650296D01*
X33196387Y-39627506D01*
X33101838Y-39579181D01*
X33025185Y-39532672D01*
X32954397Y-39479070D01*
X32877445Y-39409468D01*
X32804011Y-39336934D01*
X32711757Y-39240635D01*
X32643179Y-39159779D01*
X32589501Y-39082621D01*
X32541948Y-38997417D01*
X32525402Y-38964086D01*
X32480948Y-38864451D01*
X32440110Y-38758948D01*
X32410057Y-38666486D01*
X32404486Y-38645234D01*
X32380216Y-38496269D01*
X32371186Y-38325117D01*
X32377204Y-38149013D01*
X32398077Y-37985189D01*
X32412553Y-37918945D01*
X32491735Y-37690216D01*
X32605027Y-37481087D01*
X32748345Y-37294357D01*
X32917606Y-37132828D01*
X33108726Y-36999300D01*
X33317623Y-36896572D01*
X33540214Y-36827444D01*
X33772414Y-36794718D01*
X34010141Y-36801192D01*
G36*
X21851224Y-40331520D02*
G01*
X21865650Y-40308170D01*
X21927808Y-40208151D01*
X22009682Y-40077216D01*
X22108249Y-39920157D01*
X22220489Y-39741768D01*
X22343379Y-39546841D01*
X22473900Y-39340169D01*
X22609029Y-39126546D01*
X22745746Y-38910764D01*
X22859663Y-38731253D01*
X23061553Y-38412946D01*
X23242225Y-38127145D01*
X23403516Y-37870854D01*
X23547264Y-37641073D01*
X23675305Y-37434806D01*
X23789476Y-37249055D01*
X23891614Y-37080821D01*
X23983556Y-36927106D01*
X24067140Y-36784914D01*
X24144202Y-36651245D01*
X24216579Y-36523103D01*
X24253981Y-36455836D01*
X24347819Y-36282656D01*
X24443020Y-36100542D01*
X24536261Y-35916352D01*
X24624219Y-35736944D01*
X24703569Y-35569173D01*
X24770989Y-35419898D01*
X24823156Y-35295975D01*
X24848145Y-35229901D01*
X24907070Y-35062299D01*
X24881492Y-34647818D01*
X24866838Y-34441517D01*
X24849174Y-34266430D01*
X24826175Y-34111446D01*
X24795519Y-33965451D01*
X24754882Y-33817332D01*
X24701939Y-33655976D01*
X24636386Y-33475655D01*
X24582015Y-33332188D01*
X24530806Y-33201404D01*
X24480630Y-33079252D01*
X24429358Y-32961680D01*
X24374862Y-32844639D01*
X24315012Y-32724076D01*
X24247681Y-32595942D01*
X24170739Y-32456186D01*
X24082058Y-32300755D01*
X23979509Y-32125601D01*
X23860964Y-31926671D01*
X23724293Y-31699915D01*
X23567369Y-31441282D01*
X23567232Y-31441057D01*
X23457556Y-31259777D01*
X23343551Y-31069729D01*
X23229763Y-30878606D01*
X23120742Y-30694100D01*
X23021036Y-30523903D01*
X22935193Y-30375707D01*
X22877869Y-30275170D01*
X22726963Y-30007734D01*
X22665223Y-29898499D01*
X25948199Y-29898499D01*
X25957387Y-29998650D01*
X25982014Y-30067576D01*
X26024622Y-30110191D01*
X26087754Y-30131406D01*
X26145489Y-30136154D01*
X26183477Y-30132935D01*
X26219439Y-30117682D01*
X26261820Y-30084502D01*
X26319064Y-30027507D01*
X26352896Y-29991472D01*
X26420849Y-29916455D01*
X26504773Y-29821044D01*
X26593872Y-29717640D01*
X26675244Y-29621175D01*
X26766908Y-29515371D01*
X26855469Y-29423871D01*
X26951900Y-29336446D01*
X27067178Y-29242865D01*
X27145171Y-29183115D01*
X27242812Y-29109043D01*
X27331202Y-29041326D01*
X27403638Y-28985149D01*
X27453419Y-28945697D01*
X27470803Y-28931164D01*
X27523572Y-28898818D01*
X27609078Y-28863462D01*
X27718100Y-28827709D01*
X27841419Y-28794167D01*
X27969812Y-28765448D01*
X28094058Y-28744161D01*
X28158720Y-28736428D01*
X28321634Y-28726019D01*
X28502099Y-28723411D01*
X28687237Y-28728121D01*
X28864172Y-28739667D01*
X29020026Y-28757567D01*
X29100637Y-28771690D01*
X29264874Y-28813837D01*
X29399777Y-28868250D01*
X29517943Y-28941386D01*
X29631969Y-29039702D01*
X29641221Y-29048781D01*
X29708195Y-29113368D01*
X29753269Y-29151340D01*
X29783370Y-29167083D01*
X29805427Y-29164983D01*
X29815184Y-29158929D01*
X29833742Y-29140780D01*
X29837933Y-29116993D01*
X29826784Y-29076152D01*
X29802985Y-29015753D01*
X29749660Y-28902164D01*
X29679542Y-28776408D01*
X29599135Y-28648210D01*
X29514942Y-28527295D01*
X29433465Y-28423391D01*
X29361209Y-28346221D01*
X29346699Y-28333377D01*
X29228745Y-28251341D01*
X29087504Y-28185581D01*
X28960786Y-28147735D01*
X32393310Y-28147735D01*
X32394625Y-28197464D01*
X32404865Y-28226957D01*
X32424517Y-28246309D01*
X32491773Y-28271667D01*
X32573243Y-28267947D01*
X32646895Y-28239305D01*
X32691041Y-28200845D01*
X32720679Y-28140408D01*
X32732726Y-28097225D01*
X32764322Y-27997099D01*
X32816011Y-27870049D01*
X32883647Y-27723858D01*
X32963082Y-27566310D01*
X33050170Y-27405188D01*
X33140766Y-27248274D01*
X33230721Y-27103352D01*
X33315891Y-26978204D01*
X33360322Y-26919189D01*
X33456422Y-26804628D01*
X33556169Y-26698300D01*
X33653634Y-26605554D01*
X33742885Y-26531739D01*
X33817993Y-26482204D01*
X33865815Y-26463271D01*
X33908890Y-26459700D01*
X33987380Y-26457644D01*
X34094390Y-26457105D01*
X34223029Y-26458083D01*
X34366403Y-26460580D01*
X34470193Y-26463184D01*
X34995022Y-26478022D01*
X35164798Y-26573497D01*
X35279984Y-26633962D01*
X35369598Y-26669640D01*
X35441193Y-26682105D01*
X35502324Y-26672927D01*
X35545812Y-26652808D01*
X35625209Y-26584763D01*
X35669782Y-26497817D01*
X35678207Y-26398948D01*
X35649159Y-26295138D01*
X35622720Y-26247449D01*
X35583795Y-26205758D01*
X35514873Y-26150012D01*
X35423677Y-26085374D01*
X35317931Y-26017008D01*
X35205357Y-25950076D01*
X35093680Y-25889742D01*
X35069637Y-25877688D01*
X34955628Y-25836788D01*
X34801544Y-25806579D01*
X34608298Y-25787177D01*
X34376806Y-25778699D01*
X34285036Y-25778340D01*
X34117025Y-25779788D01*
X33984088Y-25783686D01*
X33878977Y-25791438D01*
X33794445Y-25804452D01*
X33723246Y-25824134D01*
X33658132Y-25851890D01*
X33591857Y-25889127D01*
X33538381Y-25923235D01*
X33442551Y-25991804D01*
X33349656Y-26071181D01*
X33253825Y-26167360D01*
X33149184Y-26286335D01*
X33029864Y-26434097D01*
X32998795Y-26473987D01*
X32844508Y-26705173D01*
X32713170Y-26969872D01*
X32606032Y-27265249D01*
X32539709Y-27516701D01*
X32515131Y-27616413D01*
X32487139Y-27715266D01*
X32460986Y-27794969D01*
X32455938Y-27808277D01*
X32431372Y-27888070D01*
X32410442Y-27986573D01*
X32399403Y-28066927D01*
X32393310Y-28147735D01*
X28960786Y-28147735D01*
X28920168Y-28135604D01*
X28723932Y-28100916D01*
X28495989Y-28081026D01*
X28233532Y-28075439D01*
X27933756Y-28083664D01*
X27926835Y-28083991D01*
X27536201Y-28102598D01*
X27238919Y-28249762D01*
X27103153Y-28319201D01*
X26994912Y-28380636D01*
X26902366Y-28441664D01*
X26813686Y-28509882D01*
X26750462Y-28563465D01*
X26660248Y-28644095D01*
X26581659Y-28719911D01*
X26508977Y-28797733D01*
X26436484Y-28884385D01*
X26358460Y-28986689D01*
X26269189Y-29111467D01*
X26167148Y-29259388D01*
X25964159Y-29556821D01*
X25951905Y-29762212D01*
X25948199Y-29898499D01*
X22665223Y-29898499D01*
X22593126Y-29770940D01*
X22473702Y-29560456D01*
X22366034Y-29371948D01*
X22267464Y-29201085D01*
X22175335Y-29043534D01*
X22086991Y-28894962D01*
X21999774Y-28751037D01*
X21911027Y-28607427D01*
X21818092Y-28459798D01*
X21718314Y-28303819D01*
X21609035Y-28135157D01*
X21487597Y-27949479D01*
X21351344Y-27742452D01*
X21197618Y-27509746D01*
X21023763Y-27247026D01*
X20982594Y-27184836D01*
X20788596Y-26891330D01*
X20616392Y-26629698D01*
X20464017Y-26396776D01*
X20329505Y-26189399D01*
X20210893Y-26004404D01*
X20106215Y-25838626D01*
X20013507Y-25688903D01*
X19930803Y-25552068D01*
X19856138Y-25424960D01*
X19787548Y-25304413D01*
X19723068Y-25187264D01*
X19660733Y-25070348D01*
X19615544Y-24983503D01*
X19486077Y-24725416D01*
X19348643Y-24438682D01*
X19206503Y-24130905D01*
X19062920Y-23809685D01*
X18921157Y-23482625D01*
X18784474Y-23157328D01*
X18656134Y-22841394D01*
X18539400Y-22542427D01*
X18437534Y-22268029D01*
X18380289Y-22104836D01*
X18292021Y-21832968D01*
X18210853Y-21557435D01*
X18138344Y-21284948D01*
X18076052Y-21022219D01*
X18025534Y-20775958D01*
X17988350Y-20552876D01*
X17966056Y-20359684D01*
X17962267Y-20304293D01*
X17958471Y-20183804D01*
X17963640Y-20097953D01*
X17979790Y-20039623D01*
X18008937Y-20001692D01*
X18053097Y-19977040D01*
X18055142Y-19976253D01*
X18110458Y-19968149D01*
X18199971Y-19970447D01*
X18317167Y-19981953D01*
X18455529Y-20001474D01*
X18608543Y-20027815D01*
X18769691Y-20059781D01*
X18932458Y-20096178D01*
X19090329Y-20135813D01*
X19236788Y-20177490D01*
X19344388Y-20212559D01*
X19578314Y-20299436D01*
X19841743Y-20405980D01*
X20128406Y-20529229D01*
X20432029Y-20666218D01*
X20746341Y-20813984D01*
X21065070Y-20969564D01*
X21381943Y-21129995D01*
X21690690Y-21292312D01*
X21985038Y-21453553D01*
X22058129Y-21494760D01*
X22347037Y-21659620D01*
X22641084Y-21829204D01*
X22935957Y-22000931D01*
X23227342Y-22172220D01*
X23510925Y-22340488D01*
X23782392Y-22503153D01*
X24037431Y-22657634D01*
X24271727Y-22801348D01*
X24480967Y-22931715D01*
X24660836Y-23046151D01*
X24777401Y-23122314D01*
X24915310Y-23213713D01*
X25023415Y-23283879D01*
X25107334Y-23334759D01*
X25172689Y-23368298D01*
X25225098Y-23386442D01*
X25270180Y-23391137D01*
X25313556Y-23384329D01*
X25360846Y-23367964D01*
X25417637Y-23344000D01*
X25459029Y-23322015D01*
X25529259Y-23279959D01*
X25622241Y-23221682D01*
X25731887Y-23151036D01*
X25852109Y-23071872D01*
X25926865Y-23021834D01*
X26054981Y-22936231D01*
X26180245Y-22853792D01*
X26295535Y-22779110D01*
X26393729Y-22716778D01*
X26467705Y-22671388D01*
X26493756Y-22656274D01*
X26636086Y-22576679D01*
X26591358Y-22510091D01*
X26549012Y-22438988D01*
X26493357Y-22332864D01*
X26426445Y-22196146D01*
X26350326Y-22033262D01*
X26267052Y-21848639D01*
X26178673Y-21646703D01*
X26087242Y-21431883D01*
X26045674Y-21332253D01*
X25979212Y-21172768D01*
X25911837Y-21012562D01*
X25847005Y-20859746D01*
X25788172Y-20722431D01*
X25738794Y-20608729D01*
X25704784Y-20532163D01*
X25638005Y-20377916D01*
X25589820Y-20246487D01*
X25557378Y-20124643D01*
X25537825Y-19999150D01*
X25528312Y-19856778D01*
X25525977Y-19702420D01*
X25526643Y-19636690D01*
X26603775Y-19636690D01*
X26609329Y-19843849D01*
X26656813Y-20049202D01*
X26676788Y-20103914D01*
X26771190Y-20289127D01*
X26896132Y-20450065D01*
X27046542Y-20584091D01*
X27217347Y-20688565D01*
X27403475Y-20760848D01*
X27599853Y-20798302D01*
X27801410Y-20798288D01*
X27958481Y-20770692D01*
X28125538Y-20715999D01*
X28269103Y-20640703D01*
X28403331Y-20536604D01*
X28465998Y-20476625D01*
X28602986Y-20318376D01*
X28700765Y-20156793D01*
X28762299Y-19984867D01*
X28790554Y-19795593D01*
X28793202Y-19703264D01*
X28774890Y-19490044D01*
X28720199Y-19296683D01*
X28627314Y-19118597D01*
X28495984Y-18952873D01*
X28338867Y-18813426D01*
X28165991Y-18710272D01*
X27982122Y-18642676D01*
X27792025Y-18609908D01*
X27600467Y-18611234D01*
X27412214Y-18645922D01*
X27232032Y-18713239D01*
X27064686Y-18812452D01*
X26914943Y-18942829D01*
X26787568Y-19103637D01*
X26718028Y-19226170D01*
X26640045Y-19430030D01*
X26603775Y-19636690D01*
X25526643Y-19636690D01*
X25527418Y-19560391D01*
X25532712Y-19448122D01*
X25543032Y-19353126D01*
X25559552Y-19262915D01*
X25572488Y-19207659D01*
X25663070Y-18924634D01*
X25786363Y-18664962D01*
X25939125Y-18429896D01*
X26118116Y-18220685D01*
X26320096Y-18038581D01*
X26541822Y-17884835D01*
X26780054Y-17760698D01*
X27031551Y-17667420D01*
X27293072Y-17606253D01*
X27561377Y-17578448D01*
X27833224Y-17585256D01*
X28105372Y-17627928D01*
X28374581Y-17707715D01*
X28637609Y-17825868D01*
X28838568Y-17946933D01*
X29063525Y-18122500D01*
X29259938Y-18326250D01*
X29429493Y-18560353D01*
X29573880Y-18826975D01*
X29637082Y-18972962D01*
X29662690Y-19035592D01*
X29702837Y-19132240D01*
X29755452Y-19257982D01*
X29818463Y-19407899D01*
X29889799Y-19577067D01*
X29967387Y-19760567D01*
X30049156Y-19953476D01*
X30125539Y-20133255D01*
X30205723Y-20322141D01*
X30280613Y-20499286D01*
X30348612Y-20660861D01*
X30408121Y-20803033D01*
X30457543Y-20921972D01*
X30495281Y-21013846D01*
X30519735Y-21074824D01*
X30529309Y-21101075D01*
X30529386Y-21101630D01*
X30530030Y-21110962D01*
X30536151Y-21116662D01*
X30554039Y-21118280D01*
X30589980Y-21115367D01*
X30650263Y-21107473D01*
X30741175Y-21094149D01*
X30838508Y-21079530D01*
X30960749Y-21063160D01*
X31109119Y-21046380D01*
X31267466Y-21030851D01*
X31419637Y-21018234D01*
X31467008Y-21014909D01*
X31699563Y-20995274D01*
X31894479Y-20968139D01*
X32056169Y-20930883D01*
X32189045Y-20880886D01*
X32297521Y-20815528D01*
X32386008Y-20732190D01*
X32458918Y-20628250D01*
X32520665Y-20501089D01*
X32572296Y-20358586D01*
X32595152Y-20297259D01*
X32634938Y-20201427D01*
X32690013Y-20074625D01*
X32758735Y-19920390D01*
X32839461Y-19742258D01*
X32930550Y-19543766D01*
X33030358Y-19328448D01*
X33137245Y-19099841D01*
X33249568Y-18861482D01*
X33365685Y-18616906D01*
X33483954Y-18369650D01*
X33602732Y-18123249D01*
X33720378Y-17881240D01*
X33766567Y-17786836D01*
X33940493Y-17435696D01*
X34101705Y-17118294D01*
X34253284Y-16829091D01*
X34398310Y-16562549D01*
X34539865Y-16313129D01*
X34681029Y-16075293D01*
X34824884Y-15843501D01*
X34974509Y-15612217D01*
X34985157Y-15596086D01*
X35160600Y-15337574D01*
X35320427Y-15117264D01*
X35465790Y-14934486D01*
X35597838Y-14788568D01*
X35717722Y-14678842D01*
X35826591Y-14604637D01*
X35925596Y-14565282D01*
X36015886Y-14560108D01*
X36098613Y-14588444D01*
X36174926Y-14649619D01*
X36245975Y-14742964D01*
X36295814Y-14832306D01*
X36332143Y-14911319D01*
X36371843Y-15010331D01*
X36415950Y-15132517D01*
X36465504Y-15281052D01*
X36521542Y-15459112D01*
X36585101Y-15669873D01*
X36657220Y-15916511D01*
X36708020Y-16093503D01*
X36756461Y-16262318D01*
X36806052Y-16433412D01*
X36854232Y-16598067D01*
X36898436Y-16747566D01*
X36936103Y-16873192D01*
X36963139Y-16961336D01*
X36989048Y-17045027D01*
X37012377Y-17123226D01*
X37033530Y-17198928D01*
X37052911Y-17275131D01*
X37070922Y-17354828D01*
X37087967Y-17441017D01*
X37104451Y-17536693D01*
X37120776Y-17644851D01*
X37137346Y-17768488D01*
X37154565Y-17910599D01*
X37172837Y-18074179D01*
X37192564Y-18262225D01*
X37214151Y-18477732D01*
X37238001Y-18723697D01*
X37264518Y-19003114D01*
X37294106Y-19318979D01*
X37323906Y-19639193D01*
X37354389Y-19969216D01*
X37380808Y-20260329D01*
X37403332Y-20515741D01*
X37422132Y-20738663D01*
X37437377Y-20932306D01*
X37449237Y-21099879D01*
X37457883Y-21244594D01*
X37463483Y-21369660D01*
X37466209Y-21478287D01*
X37466229Y-21573687D01*
X37463714Y-21659070D01*
X37458833Y-21737645D01*
X37451757Y-21812623D01*
X37442807Y-21886074D01*
X37429876Y-21994674D01*
X37421653Y-22097182D01*
X37418936Y-22197487D01*
X37422525Y-22299483D01*
X37433216Y-22407060D01*
X37451808Y-22524111D01*
X37479100Y-22654527D01*
X37515890Y-22802200D01*
X37562976Y-22971020D01*
X37621156Y-23164881D01*
X37691229Y-23387674D01*
X37773993Y-23643289D01*
X37851761Y-23879729D01*
X37983425Y-24281799D01*
X38112801Y-24683973D01*
X38238587Y-25081926D01*
X38359484Y-25471332D01*
X38474188Y-25847866D01*
X38581400Y-26207202D01*
X38679818Y-26545016D01*
X38768141Y-26856982D01*
X38845068Y-27138774D01*
X38909297Y-27386067D01*
X38922440Y-27438836D01*
X39027880Y-27892827D01*
X39118866Y-28343627D01*
X39196649Y-28799603D01*
X39262484Y-29269124D01*
X39317625Y-29760559D01*
X39363325Y-30282275D01*
X39377508Y-30476253D01*
X39388123Y-30661190D01*
X39396980Y-30881700D01*
X39404053Y-31131060D01*
X39409314Y-31402544D01*
X39412737Y-31689429D01*
X39414294Y-31984990D01*
X39413959Y-32282503D01*
X39411705Y-32575243D01*
X39407504Y-32856486D01*
X39401329Y-33119508D01*
X39393153Y-33357584D01*
X39389440Y-33441710D01*
X39378632Y-33688625D01*
X39371590Y-33897781D01*
X39368415Y-34073594D01*
X39369210Y-34220480D01*
X39374074Y-34342853D01*
X39383109Y-34445131D01*
X39396417Y-34531728D01*
X39414099Y-34607059D01*
X39416342Y-34614939D01*
X39463979Y-34737154D01*
X39528332Y-34841500D01*
X39603687Y-34921649D01*
X39684333Y-34971275D01*
X39750232Y-34984753D01*
X39817797Y-34976554D01*
X39880677Y-34948707D01*
X39945301Y-34896336D01*
X40018096Y-34814564D01*
X40078359Y-34735859D01*
X40138940Y-34658144D01*
X40197146Y-34591456D01*
X40244726Y-34544875D01*
X40265385Y-34530015D01*
X40363303Y-34495321D01*
X40500025Y-34471878D01*
X40673483Y-34459905D01*
X40881609Y-34459620D01*
X40919133Y-34460712D01*
X41112186Y-34472050D01*
X41274335Y-34494155D01*
X41416321Y-34530178D01*
X41548881Y-34583270D01*
X41682756Y-34656583D01*
X41763575Y-34708498D01*
X41875455Y-34788292D01*
X42003827Y-34887716D01*
X42139563Y-34998983D01*
X42273537Y-35114310D01*
X42396622Y-35225913D01*
X42499691Y-35326006D01*
X42549483Y-35378809D01*
X42718424Y-35590651D01*
X42879704Y-35838783D01*
X43031010Y-36117502D01*
X43170028Y-36421103D01*
X43294444Y-36743882D01*
X43401946Y-37080135D01*
X43490220Y-37424159D01*
X43556951Y-37770249D01*
X43577957Y-37914538D01*
X43604386Y-38160824D01*
X43624111Y-38441529D01*
X43636911Y-38749239D01*
X43642560Y-39076537D01*
X43640837Y-39416009D01*
X43632651Y-39729877D01*
X43619670Y-40058043D01*
X43605620Y-40348329D01*
X43589866Y-40605188D01*
X43571774Y-40833070D01*
X43550709Y-41036427D01*
X43526036Y-41219711D01*
X43497120Y-41387374D01*
X43463327Y-41543866D01*
X43424021Y-41693640D01*
X43378569Y-41841147D01*
X43326336Y-41990839D01*
X43300380Y-42060282D01*
X43212999Y-42280843D01*
X43114881Y-42512691D01*
X43009412Y-42748830D01*
X42899976Y-42982260D01*
X42789958Y-43205983D01*
X42682745Y-43413001D01*
X42581721Y-43596315D01*
X42490272Y-43748928D01*
X42463617Y-43790086D01*
X42337288Y-43959851D01*
X42175785Y-44142358D01*
X41982911Y-44333828D01*
X41762467Y-44530479D01*
X41525520Y-44722895D01*
X41313194Y-44891844D01*
X41136118Y-45041544D01*
X40992678Y-45173555D01*
X40881257Y-45289436D01*
X40800241Y-45390747D01*
X40753165Y-45468383D01*
X40701007Y-45608245D01*
X40687565Y-45743351D01*
X40713461Y-45875080D01*
X40779316Y-46004809D01*
X40885752Y-46133918D01*
X41033392Y-46263784D01*
X41150296Y-46348273D01*
X41314691Y-46450452D01*
X41459838Y-46519493D01*
X41591369Y-46556506D01*
X41714919Y-46562603D01*
X41836121Y-46538894D01*
X41929577Y-46501887D01*
X41987527Y-46470807D01*
X42072389Y-46420454D01*
X42176317Y-46355723D01*
X42291465Y-46281508D01*
X42409988Y-46202703D01*
X42419395Y-46196337D01*
X42650312Y-46044936D01*
X42858448Y-45920178D01*
X43050959Y-45818775D01*
X43235003Y-45737441D01*
X43417739Y-45672890D01*
X43606323Y-45621834D01*
X43726803Y-45596009D01*
X43843617Y-45579237D01*
X43993121Y-45567071D01*
X44165925Y-45559508D01*
X44352637Y-45556545D01*
X44543866Y-45558178D01*
X44730222Y-45564405D01*
X44902312Y-45575222D01*
X45050746Y-45590627D01*
X45091299Y-45596460D01*
X45513143Y-45679328D01*
X45904306Y-45791316D01*
X46264865Y-45932460D01*
X46594898Y-46102794D01*
X46894481Y-46302354D01*
X47161962Y-46529517D01*
X47255611Y-46623052D01*
X47337815Y-46715207D01*
X47411010Y-46810859D01*
X47477631Y-46914886D01*
X47540116Y-47032164D01*
X47600900Y-47167570D01*
X47662419Y-47325983D01*
X47727108Y-47512278D01*
X47797405Y-47731334D01*
X47853376Y-47913787D01*
X47917171Y-48125823D01*
X47969036Y-48302615D01*
X48009729Y-48449304D01*
X48040011Y-48571032D01*
X48060641Y-48672941D01*
X48072378Y-48760172D01*
X48075984Y-48837868D01*
X48072216Y-48911169D01*
X48061835Y-48985219D01*
X48045600Y-49065158D01*
X48032092Y-49123453D01*
X48011237Y-49216093D01*
X48001089Y-49278701D01*
X48000966Y-49322017D01*
X48010184Y-49356783D01*
X48016364Y-49370765D01*
X48060017Y-49420893D01*
X48123835Y-49438314D01*
X48202912Y-49424434D01*
X48292343Y-49380657D01*
X48387222Y-49308387D01*
X48449528Y-49246757D01*
X48496372Y-49187319D01*
X48552589Y-49103180D01*
X48609421Y-49007895D01*
X48638512Y-48954220D01*
X48755855Y-48765860D01*
X48907718Y-48587276D01*
X49095798Y-48417023D01*
X49321792Y-48253661D01*
X49587398Y-48095745D01*
X49744958Y-48013690D01*
X50026368Y-47889741D01*
X50301800Y-47800973D01*
X50568576Y-47747611D01*
X50824017Y-47729882D01*
X51065443Y-47748011D01*
X51290175Y-47802224D01*
X51452637Y-47869948D01*
X51548594Y-47932345D01*
X51658588Y-48027268D01*
X51778458Y-48149018D01*
X51904041Y-48291899D01*
X52031175Y-48450214D01*
X52155698Y-48618266D01*
X52273449Y-48790358D01*
X52380264Y-48960794D01*
X52471982Y-49123877D01*
X52544441Y-49273909D01*
X52593478Y-49405193D01*
X52604573Y-49446670D01*
X52633628Y-49633223D01*
X52642161Y-49846338D01*
X52630666Y-50075826D01*
X52599636Y-50311499D01*
X52551919Y-50534134D01*
X52533562Y-50601288D01*
X52512455Y-50669876D01*
X52487105Y-50743257D01*
X52456022Y-50824791D01*
X52417714Y-50917836D01*
X52370689Y-51025752D01*
X52313455Y-51151898D01*
X52244521Y-51299635D01*
X52162395Y-51472321D01*
X52065585Y-51673316D01*
X51952600Y-51905979D01*
X51843413Y-52129753D01*
X51743954Y-52333300D01*
X51654990Y-52515438D01*
X51574568Y-52680212D01*
X51500736Y-52831662D01*
X51431539Y-52973832D01*
X51365026Y-53110764D01*
X51299243Y-53246500D01*
X51232238Y-53385085D01*
X51162056Y-53530559D01*
X51086747Y-53686966D01*
X51004355Y-53858349D01*
X50912930Y-54048749D01*
X50810517Y-54262210D01*
X50695163Y-54502774D01*
X50564916Y-54774484D01*
X50457865Y-54997836D01*
X50347998Y-55226932D01*
X50248982Y-55433310D01*
X50159545Y-55619917D01*
X50078413Y-55789701D01*
X50004314Y-55945607D01*
X49935977Y-56090584D01*
X49872127Y-56227579D01*
X49811494Y-56359538D01*
X49752804Y-56489409D01*
X49694785Y-56620138D01*
X49636165Y-56754674D01*
X49575670Y-56895963D01*
X49512029Y-57046952D01*
X49443969Y-57210589D01*
X49370218Y-57389819D01*
X49289503Y-57587592D01*
X49200551Y-57806853D01*
X49102091Y-58050550D01*
X48992849Y-58321630D01*
X48871553Y-58623040D01*
X48736931Y-58957727D01*
X48587711Y-59328639D01*
X48584345Y-59337003D01*
X48411579Y-59766382D01*
X48253902Y-60158305D01*
X48110539Y-60514563D01*
X47980718Y-60836949D01*
X47863663Y-61127256D01*
X47758602Y-61387275D01*
X47664761Y-61618799D01*
X47581365Y-61823621D01*
X47507640Y-62003532D01*
X47442814Y-62160325D01*
X47386111Y-62295792D01*
X47336759Y-62411726D01*
X47293983Y-62509919D01*
X47257009Y-62592164D01*
X47225064Y-62660252D01*
X47197373Y-62715976D01*
X47173164Y-62761129D01*
X47151661Y-62797502D01*
X47132092Y-62826889D01*
X47113682Y-62851080D01*
X47095657Y-62871870D01*
X47077244Y-62891050D01*
X47057668Y-62910412D01*
X47036157Y-62931749D01*
X47029270Y-62938742D01*
X46959221Y-63005069D01*
X46891056Y-63055060D01*
X46815799Y-63092298D01*
X46724473Y-63120368D01*
X46608100Y-63142854D01*
X46470624Y-63161759D01*
X46344604Y-63172677D01*
X46237040Y-63169345D01*
X46140134Y-63148523D01*
X46046088Y-63106971D01*
X45947105Y-63041450D01*
X45835386Y-62948719D01*
X45735214Y-62856200D01*
X45630415Y-62750343D01*
X45548466Y-62650371D01*
X45481856Y-62544349D01*
X45423072Y-62420340D01*
X45365260Y-62268266D01*
X45313561Y-62125834D01*
X45270811Y-62019195D01*
X45234378Y-61943427D01*
X45201626Y-61893603D01*
X45169921Y-61864801D01*
X45143402Y-61853551D01*
X45070055Y-61856322D01*
X44981454Y-61896201D01*
X44879171Y-61971452D01*
X44764778Y-62080338D01*
X44639846Y-62221121D01*
X44505948Y-62392065D01*
X44364655Y-62591433D01*
X44217539Y-62817488D01*
X44107088Y-62998836D01*
X44030684Y-63125462D01*
X43941468Y-63269894D01*
X43850249Y-63414809D01*
X43767836Y-63542882D01*
X43763723Y-63549170D01*
X43641138Y-63733906D01*
X43528689Y-63896777D01*
X43421903Y-64042507D01*
X43316307Y-64175818D01*
X43207426Y-64301433D01*
X43090788Y-64424075D01*
X42961918Y-64548467D01*
X42816342Y-64679331D01*
X42649588Y-64821391D01*
X42457182Y-64979370D01*
X42255720Y-65141191D01*
X42120778Y-65249803D01*
X41995305Y-65352646D01*
X41883488Y-65446145D01*
X41789516Y-65526724D01*
X41717576Y-65590807D01*
X41671858Y-65634820D01*
X41657762Y-65651666D01*
X41626640Y-65727308D01*
X41628185Y-65801753D01*
X41662974Y-65887566D01*
X41669097Y-65898670D01*
X41684395Y-65923157D01*
X41703793Y-65946295D01*
X41731457Y-65970561D01*
X41771550Y-65998430D01*
X41828238Y-66032380D01*
X41905685Y-66074886D01*
X42008054Y-66128426D01*
X42139511Y-66195475D01*
X42304220Y-66278511D01*
X42327584Y-66290253D01*
X42518972Y-66387868D01*
X42695662Y-66480824D01*
X42852511Y-66566284D01*
X42984378Y-66641410D01*
X43086118Y-66703366D01*
X43131513Y-66733709D01*
X43234695Y-66813468D01*
X43357687Y-66919590D01*
X43493778Y-67045439D01*
X43636259Y-67184381D01*
X43778420Y-67329782D01*
X43913552Y-67475005D01*
X44034943Y-67613417D01*
X44095843Y-67687253D01*
X44307322Y-67965510D01*
X44487852Y-68236557D01*
X44639843Y-68506733D01*
X44765704Y-68782382D01*
X44867846Y-69069844D01*
X44948679Y-69375461D01*
X45010612Y-69705575D01*
X45056057Y-70066526D01*
X45073227Y-70259003D01*
X45081559Y-70388052D01*
X45088451Y-70541389D01*
X45093900Y-70713099D01*
X45097899Y-70897270D01*
X45100443Y-71087988D01*
X45101528Y-71279340D01*
X45101149Y-71465411D01*
X45099300Y-71640289D01*
X45095976Y-71798061D01*
X45091173Y-71932811D01*
X45084884Y-72038628D01*
X45077106Y-72109597D01*
X45074826Y-72121670D01*
X45013071Y-72353520D01*
X44924736Y-72609682D01*
X44812311Y-72883689D01*
X44678282Y-73169073D01*
X44651451Y-73222336D01*
X44591628Y-73331996D01*
X44511010Y-73468173D01*
X44414341Y-73623622D01*
X44306365Y-73791099D01*
X44191825Y-73963358D01*
X44075466Y-74133155D01*
X43962031Y-74293246D01*
X43857909Y-74434217D01*
X43745114Y-74578933D01*
X43611828Y-74743176D01*
X43463380Y-74920884D01*
X43305103Y-75105998D01*
X43142325Y-75292455D01*
X42980379Y-75474194D01*
X42824595Y-75645155D01*
X42680302Y-75799276D01*
X42552833Y-75930497D01*
X42473595Y-76008222D01*
X42362069Y-76111679D01*
X42224571Y-76234757D01*
X42068571Y-76371125D01*
X41901541Y-76514452D01*
X41730954Y-76658405D01*
X41564280Y-76796653D01*
X41408991Y-76922864D01*
X41272558Y-77030706D01*
X41215048Y-77074778D01*
X41006878Y-77225997D01*
X40802638Y-77360765D01*
X40596698Y-77481541D01*
X40383426Y-77590784D01*
X40157190Y-77690953D01*
X39912359Y-77784507D01*
X39643301Y-77873905D01*
X39344384Y-77961608D01*
X39009978Y-78050072D01*
X38943137Y-78066877D01*
X38577361Y-78154559D01*
X38226318Y-78230783D01*
X37883267Y-78296425D01*
X37541468Y-78352357D01*
X37194178Y-78399453D01*
X36834659Y-78438587D01*
X36456168Y-78470633D01*
X36051965Y-78496464D01*
X35615310Y-78516954D01*
X35412836Y-78524445D01*
X35227877Y-78530732D01*
X35076721Y-78535524D01*
X34950862Y-78538817D01*
X34841795Y-78540602D01*
X34741016Y-78540875D01*
X34640020Y-78539629D01*
X34530303Y-78536857D01*
X34403358Y-78532554D01*
X34250681Y-78526713D01*
X34170053Y-78523531D01*
X33753246Y-78500283D01*
X33365512Y-78463693D01*
X32995152Y-78411810D01*
X32630470Y-78342683D01*
X32259765Y-78254361D01*
X31871340Y-78144895D01*
X31837011Y-78134516D01*
X31597841Y-78054180D01*
X31372502Y-77961484D01*
X31154594Y-77852650D01*
X30937714Y-77723897D01*
X30715461Y-77571447D01*
X30481436Y-77391519D01*
X30247194Y-77195851D01*
X30074557Y-77037319D01*
X29934260Y-76885686D01*
X29819221Y-76732426D01*
X29722356Y-76569010D01*
X29715204Y-76555287D01*
X29607218Y-76322088D01*
X29525819Y-76088699D01*
X29468990Y-75846067D01*
X29434712Y-75585139D01*
X29420968Y-75296862D01*
X29420502Y-75233170D01*
X29420847Y-75096882D01*
X29423017Y-74992225D01*
X29428162Y-74908502D01*
X29437429Y-74835015D01*
X29451967Y-74761068D01*
X29472925Y-74675963D01*
X29485361Y-74628908D01*
X29573563Y-74351081D01*
X29689824Y-74076546D01*
X29837231Y-73799103D01*
X30018872Y-73512550D01*
X30096677Y-73401152D01*
X30256616Y-73197798D01*
X30446991Y-72989693D01*
X30658225Y-72785912D01*
X30880744Y-72595534D01*
X31104972Y-72427636D01*
X31169679Y-72383968D01*
X31296923Y-72305352D01*
X31418247Y-72242580D01*
X31541069Y-72193783D01*
X31672804Y-72157090D01*
X31820867Y-72130632D01*
X31992676Y-72112539D01*
X32195646Y-72100941D01*
X32307387Y-72097100D01*
X32459057Y-72093325D01*
X32576175Y-72092139D01*
X32666462Y-72093878D01*
X32737637Y-72098879D01*
X32797423Y-72107479D01*
X32853539Y-72120015D01*
X32857720Y-72121098D01*
X32977512Y-72159292D01*
X33091833Y-72208175D01*
X33191931Y-72262905D01*
X33269051Y-72318637D01*
X33314441Y-72370526D01*
X33316826Y-72375165D01*
X33329063Y-72404553D01*
X33333945Y-72433669D01*
X33329861Y-72470687D01*
X33315200Y-72523779D01*
X33288350Y-72601117D01*
X33253920Y-72694218D01*
X33181371Y-72903439D01*
X33129452Y-73086433D01*
X33098981Y-73239938D01*
X33090553Y-73345993D01*
X33106104Y-73472120D01*
X33149431Y-73615148D01*
X33215545Y-73765173D01*
X33299457Y-73912289D01*
X33396178Y-74046593D01*
X33498742Y-74156378D01*
X33596075Y-74238344D01*
X33711350Y-74324551D01*
X33834056Y-74408070D01*
X33953681Y-74481974D01*
X34059713Y-74539336D01*
X34120230Y-74565941D01*
X34196079Y-74592388D01*
X34270525Y-74613016D01*
X34349694Y-74628318D01*
X34439709Y-74638788D01*
X34546698Y-74644919D01*
X34676783Y-74647203D01*
X34836090Y-74646133D01*
X35030744Y-74642203D01*
X35059053Y-74641506D01*
X35394532Y-74629817D01*
X35694536Y-74611693D01*
X35965609Y-74585861D01*
X36214293Y-74551054D01*
X36447130Y-74506002D01*
X36670662Y-74449434D01*
X36891434Y-74380081D01*
X37115986Y-74296674D01*
X37350862Y-74197943D01*
X37355637Y-74195835D01*
X37619421Y-74071414D01*
X37903049Y-73923506D01*
X38196174Y-73758297D01*
X38488447Y-73581973D01*
X38769518Y-73400721D01*
X39029041Y-73220726D01*
X39197320Y-73094933D01*
X39319133Y-72993267D01*
X39444469Y-72876062D01*
X39565276Y-72751875D01*
X39673501Y-72629262D01*
X39761090Y-72516777D01*
X39806080Y-72448189D01*
X39887953Y-72287418D01*
X39966273Y-72093933D01*
X40038566Y-71877339D01*
X40102357Y-71647243D01*
X40155171Y-71413250D01*
X40194531Y-71184966D01*
X40217963Y-70971996D01*
X40223595Y-70827984D01*
X40211044Y-70629712D01*
X40175265Y-70409797D01*
X40119470Y-70177996D01*
X40046873Y-69944063D01*
X39960687Y-69717753D01*
X39864123Y-69508822D01*
X39760395Y-69327024D01*
X39701198Y-69241793D01*
X39465714Y-68961357D01*
X39199087Y-68700764D01*
X38911067Y-68469222D01*
X38805300Y-68395607D01*
X38624254Y-68282572D01*
X38432872Y-68179396D01*
X38226777Y-68084537D01*
X38001590Y-67996453D01*
X37752931Y-67913603D01*
X37476423Y-67834445D01*
X37167685Y-67757436D01*
X36822341Y-67681034D01*
X36710053Y-67657820D01*
X36381159Y-67592821D01*
X36072793Y-67536480D01*
X35778035Y-67488044D01*
X35489964Y-67446758D01*
X35201660Y-67411867D01*
X34906202Y-67382617D01*
X34596670Y-67358254D01*
X34266143Y-67338023D01*
X33907702Y-67321169D01*
X33514425Y-67306939D01*
X33482137Y-67305919D01*
X33120351Y-67293145D01*
X32789245Y-67278062D01*
X32479558Y-67259841D01*
X32182029Y-67237649D01*
X31887395Y-67210657D01*
X31586397Y-67178031D01*
X31269773Y-67138941D01*
X30928262Y-67092556D01*
X30636928Y-67050523D01*
X30262504Y-66992828D01*
X29923588Y-66934755D01*
X29613379Y-66874569D01*
X29325074Y-66810534D01*
X29051870Y-66740914D01*
X28786966Y-66663973D01*
X28523558Y-66577975D01*
X28254844Y-66481185D01*
X27974022Y-66371866D01*
X27968220Y-66369534D01*
X27682868Y-66250862D01*
X27373745Y-66115297D01*
X27049244Y-65966923D01*
X26717757Y-65809826D01*
X26387677Y-65648089D01*
X26067398Y-65485797D01*
X25765311Y-65327035D01*
X25489810Y-65175888D01*
X25343553Y-65092181D01*
X25181626Y-64995735D01*
X25008621Y-64889083D01*
X24831405Y-64776747D01*
X24656845Y-64663244D01*
X24491807Y-64553094D01*
X24343158Y-64450817D01*
X24217764Y-64360930D01*
X24126470Y-64291161D01*
X23963804Y-64154402D01*
X23778932Y-63988304D01*
X23575662Y-63796921D01*
X23357802Y-63584311D01*
X23129159Y-63354530D01*
X22893542Y-63111635D01*
X22654758Y-62859684D01*
X22416615Y-62602732D01*
X22182921Y-62344837D01*
X21957484Y-62090055D01*
X21744111Y-61842443D01*
X21546611Y-61606058D01*
X21368791Y-61384956D01*
X21234604Y-61210253D01*
X21023437Y-60915833D01*
X20805845Y-60589713D01*
X20585042Y-60237947D01*
X20364240Y-59866588D01*
X20146653Y-59481690D01*
X19935494Y-59089307D01*
X19733976Y-58695491D01*
X19545313Y-58306298D01*
X19372717Y-57927780D01*
X19219403Y-57565991D01*
X19088582Y-57226984D01*
X19026902Y-57051003D01*
X18848662Y-56481004D01*
X18704059Y-55930708D01*
X18592042Y-55395555D01*
X18511559Y-54870981D01*
X18497742Y-54754420D01*
X18481954Y-54609034D01*
X18468185Y-54470578D01*
X18456306Y-54335063D01*
X18446187Y-54198500D01*
X18437700Y-54056901D01*
X18430715Y-53906279D01*
X18425104Y-53742644D01*
X18420737Y-53562009D01*
X18417486Y-53360386D01*
X18415220Y-53133786D01*
X18413812Y-52878221D01*
X18413132Y-52589703D01*
X18413051Y-52264244D01*
X18413140Y-52140336D01*
X18414430Y-51669913D01*
X18417552Y-51238876D01*
X18422743Y-50844307D01*
X18430243Y-50483288D01*
X18440291Y-50152903D01*
X18453124Y-49850232D01*
X18468982Y-49572359D01*
X18488103Y-49316367D01*
X18510725Y-49079336D01*
X18537088Y-48858351D01*
X18567429Y-48650493D01*
X18601988Y-48452844D01*
X18641002Y-48262487D01*
X18684711Y-48076505D01*
X18733354Y-47891979D01*
X18771432Y-47758836D01*
X18801956Y-47658629D01*
X18844697Y-47523315D01*
X18898015Y-47357786D01*
X18960268Y-47166936D01*
X19029815Y-46955658D01*
X19105015Y-46728845D01*
X19184227Y-46491391D01*
X19265809Y-46248188D01*
X19348120Y-46004129D01*
X19429519Y-45764108D01*
X19508365Y-45533018D01*
X19583017Y-45315751D01*
X19651833Y-45117202D01*
X19713173Y-44942263D01*
X19763236Y-44801813D01*
X19930396Y-44343113D01*
X20088496Y-43920584D01*
X20239710Y-43529581D01*
X20386211Y-43165458D01*
X20530172Y-42823570D01*
X20673767Y-42499272D01*
X20819169Y-42187919D01*
X20968550Y-41884866D01*
X21124085Y-41585468D01*
X21287947Y-41285079D01*
X21462308Y-40979055D01*
X21540169Y-40847379D01*
X27630187Y-40847379D01*
X27632578Y-40952909D01*
X27634335Y-41006254D01*
X27644622Y-41303003D01*
X27804541Y-41620503D01*
X27881473Y-41771053D01*
X27946114Y-41890177D01*
X28003978Y-41984854D01*
X28060579Y-42062064D01*
X28121432Y-42128788D01*
X28192050Y-42192005D01*
X28277947Y-42258696D01*
X28350221Y-42311256D01*
X28524759Y-42434713D01*
X28675201Y-42536854D01*
X28810381Y-42622969D01*
X28939132Y-42698346D01*
X29070286Y-42768275D01*
X29212677Y-42838044D01*
X29291137Y-42874655D01*
X29403811Y-42927649D01*
X29504714Y-42977147D01*
X29586790Y-43019528D01*
X29642984Y-43051168D01*
X29664667Y-43066420D01*
X29689688Y-43106243D01*
X29716900Y-43170577D01*
X29732902Y-43219928D01*
X29746679Y-43273003D01*
X29753926Y-43319675D01*
X29754365Y-43370545D01*
X29747719Y-43436213D01*
X29733709Y-43527278D01*
X29723215Y-43589396D01*
X29688247Y-43760681D01*
X29643195Y-43913410D01*
X29584125Y-44064304D01*
X29515418Y-44228980D01*
X29463484Y-44368111D01*
X29425426Y-44493639D01*
X29398345Y-44617506D01*
X29379342Y-44751651D01*
X29365518Y-44908017D01*
X29360387Y-44986003D01*
X29338345Y-45345836D01*
X29416397Y-45621003D01*
X29460608Y-45765407D01*
X29518832Y-45938498D01*
X29587364Y-46130518D01*
X29662499Y-46331707D01*
X29740532Y-46532307D01*
X29817757Y-46722556D01*
X29890470Y-46892698D01*
X29942789Y-47007536D01*
X29986745Y-47095504D01*
X30037561Y-47186860D01*
X30098804Y-47287147D01*
X30174040Y-47401908D01*
X30266835Y-47536687D01*
X30380757Y-47697028D01*
X30432936Y-47769420D01*
X30547289Y-47927488D01*
X30639564Y-48054613D01*
X30712474Y-48154164D01*
X30768732Y-48229511D01*
X30811051Y-48284026D01*
X30842144Y-48321079D01*
X30864724Y-48344041D01*
X30881504Y-48356282D01*
X30895197Y-48361173D01*
X30908516Y-48362084D01*
X30909977Y-48362086D01*
X30946171Y-48354201D01*
X30979444Y-48327715D01*
X31011867Y-48278383D01*
X31045510Y-48201958D01*
X31082440Y-48094195D01*
X31124728Y-47950848D01*
X31143527Y-47882887D01*
X31193412Y-47702326D01*
X31242456Y-47529002D01*
X31289188Y-47367784D01*
X31332137Y-47223542D01*
X31369833Y-47101144D01*
X31400805Y-47005461D01*
X31423584Y-46941362D01*
X31435940Y-46914600D01*
X31567010Y-46750187D01*
X31715429Y-46576829D01*
X31874078Y-46401985D01*
X32035841Y-46233117D01*
X32193601Y-46077684D01*
X32340241Y-45943147D01*
X32450593Y-45850975D01*
X32530467Y-45792421D01*
X32636503Y-45720757D01*
X32757685Y-45643116D01*
X32882994Y-45566629D01*
X32952451Y-45526050D01*
X33075341Y-45456361D01*
X33171628Y-45404379D01*
X33250982Y-45365989D01*
X33323073Y-45337071D01*
X33397572Y-45313510D01*
X33484149Y-45291187D01*
X33528911Y-45280616D01*
X33609755Y-45262315D01*
X33679841Y-45248320D01*
X33746771Y-45238059D01*
X33818147Y-45230957D01*
X33901574Y-45226440D01*
X34004653Y-45223936D01*
X34134988Y-45222871D01*
X34297053Y-45222670D01*
X34815637Y-45222772D01*
X35143720Y-45323394D01*
X35268082Y-45361914D01*
X35364804Y-45393827D01*
X35443927Y-45423883D01*
X35515491Y-45456831D01*
X35589536Y-45497419D01*
X35676102Y-45550396D01*
X35785230Y-45620511D01*
X35821053Y-45643768D01*
X35911604Y-45701500D01*
X35978738Y-45739942D01*
X36033961Y-45763731D01*
X36088776Y-45777505D01*
X36154690Y-45785903D01*
X36179183Y-45788141D01*
X36254578Y-45796147D01*
X36311785Y-45808203D01*
X36363746Y-45829672D01*
X36423406Y-45865921D01*
X36503709Y-45922314D01*
X36504815Y-45923109D01*
X36673675Y-46064739D01*
X36820857Y-46228584D01*
X36938210Y-46404870D01*
X36985179Y-46499209D01*
X37038933Y-46643817D01*
X37089205Y-46821370D01*
X37134001Y-47022510D01*
X37171321Y-47237873D01*
X37199170Y-47458101D01*
X37206477Y-47536586D01*
X37215821Y-47690314D01*
X37220673Y-47866217D01*
X37221258Y-48054273D01*
X37217805Y-48244461D01*
X37210540Y-48426760D01*
X37199689Y-48591150D01*
X37185479Y-48727609D01*
X37178454Y-48774836D01*
X37161823Y-48897216D01*
X37146433Y-49055633D01*
X37132555Y-49243801D01*
X37120457Y-49455435D01*
X37110411Y-49684250D01*
X37102684Y-49923959D01*
X37097547Y-50168278D01*
X37095268Y-50410921D01*
X37096119Y-50645603D01*
X37096591Y-50684067D01*
X37101098Y-50963972D01*
X37107297Y-51272303D01*
X37114984Y-51602639D01*
X37123955Y-51948559D01*
X37134008Y-52303644D01*
X37144939Y-52661473D01*
X37156545Y-53015625D01*
X37168622Y-53359681D01*
X37180966Y-53687219D01*
X37193376Y-53991820D01*
X37205646Y-54267063D01*
X37217574Y-54506528D01*
X37217813Y-54511003D01*
X37227383Y-54696889D01*
X37238085Y-54916578D01*
X37249539Y-55161566D01*
X37261367Y-55423350D01*
X37273189Y-55693425D01*
X37284625Y-55963289D01*
X37295296Y-56224437D01*
X37302821Y-56416003D01*
X37317136Y-56767156D01*
X37331586Y-57078939D01*
X37346345Y-57354312D01*
X37361589Y-57596240D01*
X37377494Y-57807683D01*
X37394235Y-57991604D01*
X37398744Y-58035253D01*
X37412757Y-58174363D01*
X37424672Y-58309883D01*
X37434798Y-58448007D01*
X37443441Y-58594931D01*
X37450909Y-58756853D01*
X37457508Y-58939966D01*
X37463548Y-59150468D01*
X37469333Y-59394554D01*
X37471715Y-59506336D01*
X37476836Y-59724634D01*
X37483110Y-59945912D01*
X37490266Y-60163187D01*
X37498033Y-60369480D01*
X37506140Y-60557809D01*
X37514315Y-60721194D01*
X37522287Y-60852655D01*
X37526039Y-60903336D01*
X37536146Y-61039153D01*
X37544062Y-61166291D01*
X37549395Y-61276548D01*
X37551755Y-61361724D01*
X37550749Y-61413616D01*
X37550503Y-61416167D01*
X37547431Y-61454904D01*
X37551105Y-61486362D01*
X37566359Y-61517956D01*
X37598027Y-61557103D01*
X37650943Y-61611219D01*
X37723414Y-61681435D01*
X37818052Y-61768498D01*
X37931281Y-61866547D01*
X38047179Y-61962052D01*
X38127595Y-62024870D01*
X38220929Y-62094556D01*
X38291806Y-62143599D01*
X38351068Y-62177494D01*
X38409560Y-62201734D01*
X38478124Y-62221814D01*
X38550928Y-62239368D01*
X38636995Y-62259435D01*
X38705592Y-62275590D01*
X38747665Y-62285689D01*
X38756471Y-62287977D01*
X38777698Y-62286682D01*
X38835059Y-62282076D01*
X38922527Y-62274671D01*
X39034076Y-62264983D01*
X39163681Y-62253524D01*
X39232721Y-62247350D01*
X39391511Y-62231586D01*
X39556134Y-62212597D01*
X39714948Y-62191912D01*
X39856314Y-62171057D01*
X39968594Y-62151561D01*
X39980303Y-62149235D01*
X40091139Y-62127875D01*
X40194483Y-62109899D01*
X40279375Y-62097089D01*
X40334857Y-62091225D01*
X40338131Y-62091096D01*
X40420793Y-62088670D01*
X40648452Y-61580670D01*
X40725800Y-61411783D01*
X40813520Y-61226418D01*
X40905409Y-61037283D01*
X40995265Y-60857085D01*
X41076886Y-60698533D01*
X41102987Y-60649336D01*
X41218347Y-60431668D01*
X41335013Y-60207037D01*
X41450354Y-59980812D01*
X41561738Y-59758360D01*
X41666535Y-59545048D01*
X41762113Y-59346242D01*
X41845842Y-59167312D01*
X41915089Y-59013623D01*
X41967225Y-58890544D01*
X41976020Y-58868405D01*
X42053773Y-58640193D01*
X42122368Y-58379850D01*
X42180044Y-58096929D01*
X42225036Y-57800982D01*
X42255582Y-57501562D01*
X42267666Y-57288470D01*
X42271897Y-57161266D01*
X42274004Y-57055315D01*
X42273445Y-56961572D01*
X42269675Y-56870990D01*
X42262152Y-56774522D01*
X42250332Y-56663122D01*
X42233672Y-56527744D01*
X42212051Y-56362527D01*
X42142009Y-55834116D01*
X42202106Y-55708379D01*
X42238742Y-55637531D01*
X42273563Y-55592483D01*
X42320474Y-55559727D01*
X42387492Y-55528305D01*
X42512782Y-55473968D01*
X42635521Y-55568413D01*
X42703347Y-55624051D01*
X42744855Y-55669898D01*
X42769592Y-55718655D01*
X42782759Y-55764264D01*
X42800731Y-55825731D01*
X42826995Y-55900486D01*
X42857342Y-55978312D01*
X42887563Y-56048994D01*
X42913447Y-56102316D01*
X42930787Y-56128062D01*
X42933053Y-56129011D01*
X42956309Y-56117632D01*
X42982040Y-56099792D01*
X42994568Y-56086396D01*
X43004664Y-56063849D01*
X43012934Y-56026892D01*
X43019982Y-55970270D01*
X43026412Y-55888726D01*
X43032829Y-55777002D01*
X43039837Y-55629843D01*
X43042207Y-55576590D01*
X43049641Y-55329733D01*
X43050913Y-55076972D01*
X43046360Y-54826227D01*
X43036318Y-54585417D01*
X43021124Y-54362462D01*
X43001114Y-54165280D01*
X42976626Y-54001791D01*
X42974868Y-53992420D01*
X42935566Y-53825607D01*
X42875134Y-53625547D01*
X42794561Y-53395087D01*
X42694835Y-53137075D01*
X42591317Y-52887851D01*
X42541531Y-52772163D01*
X42500145Y-52679986D01*
X42462222Y-52603282D01*
X42422824Y-52534015D01*
X42377013Y-52464146D01*
X42319853Y-52385640D01*
X42246406Y-52290459D01*
X42151733Y-52170566D01*
X42146942Y-52164520D01*
X42061815Y-52055746D01*
X41986392Y-51956755D01*
X41924465Y-51872740D01*
X41879826Y-51808897D01*
X41856268Y-51770417D01*
X41853553Y-51762695D01*
X41861639Y-51711977D01*
X41880816Y-51673946D01*
X41897187Y-51664086D01*
X41917522Y-51676817D01*
X41966788Y-51712913D01*
X42040908Y-51769233D01*
X42135808Y-51842635D01*
X42247410Y-51929974D01*
X42371641Y-52028111D01*
X42445346Y-52086723D01*
X42576264Y-52190746D01*
X42698024Y-52286863D01*
X42806308Y-52371712D01*
X42896795Y-52441932D01*
X42965165Y-52494163D01*
X43007099Y-52525043D01*
X43017087Y-52531581D01*
X43052153Y-52541200D01*
X43080580Y-52519208D01*
X43091377Y-52503790D01*
X43136571Y-52456228D01*
X43179350Y-52428625D01*
X43213504Y-52416860D01*
X43242125Y-52422478D01*
X43277188Y-52450927D01*
X43314561Y-52490136D01*
X43394568Y-52576800D01*
X43408150Y-52496151D01*
X43410801Y-52444019D01*
X43408043Y-52361258D01*
X43400508Y-52259139D01*
X43388829Y-52148934D01*
X43388490Y-52146174D01*
X43370902Y-52022444D01*
X43349054Y-51912872D01*
X43319817Y-51808777D01*
X43280059Y-51701478D01*
X43226650Y-51582294D01*
X43156458Y-51442543D01*
X43088669Y-51314836D01*
X42943997Y-51056352D01*
X42806075Y-50831883D01*
X42670203Y-50634691D01*
X42531682Y-50458035D01*
X42385811Y-50295176D01*
X42356262Y-50264608D01*
X42273875Y-50179328D01*
X42203016Y-50103966D01*
X42148579Y-50043894D01*
X42115460Y-50004480D01*
X42107553Y-49991752D01*
X42125828Y-49961709D01*
X42170501Y-49932284D01*
X42226346Y-49911812D01*
X42261913Y-49907253D01*
X42315701Y-49922012D01*
X42398962Y-49966025D01*
X42510954Y-50038894D01*
X42521757Y-50046394D01*
X42631022Y-50118648D01*
X42712481Y-50162837D01*
X42766591Y-50178043D01*
X42793813Y-50163349D01*
X42794605Y-50117838D01*
X42769427Y-50040591D01*
X42718738Y-49930691D01*
X42647440Y-49795330D01*
X42593566Y-49699516D01*
X42539037Y-49609063D01*
X42480513Y-49519650D01*
X42414652Y-49426954D01*
X42338111Y-49326654D01*
X42247550Y-49214429D01*
X42139626Y-49085955D01*
X42010999Y-48936911D01*
X41858327Y-48762976D01*
X41786061Y-48681270D01*
X41637976Y-48514828D01*
X41512802Y-48375970D01*
X41406011Y-48260044D01*
X41313073Y-48162398D01*
X41229458Y-48078383D01*
X41150638Y-48003345D01*
X41072082Y-47932635D01*
X40989262Y-47861600D01*
X40981629Y-47855188D01*
X40897801Y-47781809D01*
X40821995Y-47709911D01*
X40762634Y-47647836D01*
X40728507Y-47604528D01*
X40692972Y-47549674D01*
X40641999Y-47475050D01*
X40585356Y-47394897D01*
X40573031Y-47377836D01*
X40515080Y-47291768D01*
X40442116Y-47173488D01*
X40357462Y-47028940D01*
X40264445Y-46864067D01*
X40166389Y-46684814D01*
X40066619Y-46497122D01*
X39968459Y-46306937D01*
X39918961Y-46208636D01*
X39852415Y-46078165D01*
X39778997Y-45939013D01*
X39706171Y-45805038D01*
X39641397Y-45690097D01*
X39620467Y-45654326D01*
X39568369Y-45564709D01*
X39525320Y-45487136D01*
X39495483Y-45429366D01*
X39483018Y-45399157D01*
X39482887Y-45397852D01*
X39475038Y-45370010D01*
X39453568Y-45311387D01*
X39421592Y-45230089D01*
X39382223Y-45134217D01*
X39374609Y-45116078D01*
X39281354Y-44893095D01*
X39204116Y-44704626D01*
X39141421Y-44546632D01*
X39091796Y-44415077D01*
X39053767Y-44305923D01*
X39025861Y-44215131D01*
X39006605Y-44138665D01*
X38995014Y-44075836D01*
X38986913Y-43991587D01*
X38981544Y-43872023D01*
X38978740Y-43724064D01*
X38978332Y-43554628D01*
X38980153Y-43370636D01*
X38984035Y-43179006D01*
X38989811Y-42986658D01*
X38997313Y-42800510D01*
X39006373Y-42627482D01*
X39016824Y-42474494D01*
X39028498Y-42348465D01*
X39038756Y-42270766D01*
X39079296Y-42087013D01*
X39139190Y-41934527D01*
X39224098Y-41804731D01*
X39339679Y-41689048D01*
X39491593Y-41578901D01*
X39497945Y-41574845D01*
X39603762Y-41504106D01*
X39717532Y-41422327D01*
X39829120Y-41337301D01*
X39928392Y-41256822D01*
X40005213Y-41188683D01*
X40023224Y-41170937D01*
X40082992Y-41101170D01*
X40156273Y-41002397D01*
X40237448Y-40883376D01*
X40320892Y-40752861D01*
X40400984Y-40619609D01*
X40472101Y-40492376D01*
X40521809Y-40394424D01*
X40572297Y-40279481D01*
X40617525Y-40159998D01*
X40655900Y-40042361D01*
X40685831Y-39932959D01*
X40705728Y-39838178D01*
X40713999Y-39764406D01*
X40709054Y-39718031D01*
X40693574Y-39704920D01*
X40675994Y-39721691D01*
X40641404Y-39767141D01*
X40595105Y-39833968D01*
X40551408Y-39900711D01*
X40413219Y-40090493D01*
X40236209Y-40289231D01*
X40022474Y-40495030D01*
X39774111Y-40705999D01*
X39493218Y-40920243D01*
X39186553Y-41132783D01*
X38933445Y-41298310D01*
X38708987Y-41439985D01*
X38508620Y-41560212D01*
X38327790Y-41661399D01*
X38161938Y-41745950D01*
X38006509Y-41816272D01*
X37856947Y-41874771D01*
X37708694Y-41923851D01*
X37662553Y-41937455D01*
X37444816Y-41990369D01*
X37219025Y-42027932D01*
X36995821Y-42049242D01*
X36785844Y-42053399D01*
X36599734Y-42039503D01*
X36549899Y-42031634D01*
X36448232Y-42002906D01*
X36325312Y-41952112D01*
X36192013Y-41884755D01*
X36059207Y-41806338D01*
X35937765Y-41722365D01*
X35935419Y-41720585D01*
X35819106Y-41612120D01*
X35706361Y-41469075D01*
X35601957Y-41299186D01*
X35510666Y-41110191D01*
X35439310Y-40916417D01*
X35414662Y-40822062D01*
X35397157Y-40716284D01*
X35386623Y-40593783D01*
X35382891Y-40449262D01*
X35385787Y-40277420D01*
X35395140Y-40072960D01*
X35406263Y-39895420D01*
X35431847Y-39596711D01*
X35467407Y-39323819D01*
X35515385Y-39068005D01*
X35578224Y-38820534D01*
X35658367Y-38572667D01*
X35758258Y-38315668D01*
X35880338Y-38040800D01*
X35986236Y-37821086D01*
X36049455Y-37693427D01*
X36106329Y-37578656D01*
X36154199Y-37482132D01*
X36190406Y-37409215D01*
X36212290Y-37365263D01*
X36217626Y-37354672D01*
X36203641Y-37339556D01*
X36161093Y-37309581D01*
X36098372Y-37270537D01*
X36080594Y-37260080D01*
X36004909Y-37214749D01*
X35906994Y-37154251D01*
X35799941Y-37086754D01*
X35704399Y-37025344D01*
X35520255Y-36912262D01*
X35316416Y-36798479D01*
X35102631Y-36688700D01*
X34888655Y-36587630D01*
X34684238Y-36499975D01*
X34499132Y-36430439D01*
X34415771Y-36403608D01*
X34245963Y-36354736D01*
X34104939Y-36319830D01*
X33981878Y-36297910D01*
X33865957Y-36287993D01*
X33746354Y-36289098D01*
X33612248Y-36300244D01*
X33471062Y-36317932D01*
X33240057Y-36355797D01*
X33040320Y-36403460D01*
X32861197Y-36464828D01*
X32692037Y-36543811D01*
X32522184Y-36644316D01*
X32450125Y-36692477D01*
X32381825Y-36740065D01*
X32293874Y-36802258D01*
X32192502Y-36874556D01*
X32083939Y-36952458D01*
X31974412Y-37031461D01*
X31870151Y-37107065D01*
X31777386Y-37174768D01*
X31702346Y-37230071D01*
X31651258Y-37268470D01*
X31633176Y-37282805D01*
X31638145Y-37303539D01*
X31656689Y-37356703D01*
X31686305Y-37435569D01*
X31724488Y-37533405D01*
X31752225Y-37602769D01*
X31808876Y-37747233D01*
X31859185Y-37885455D01*
X31905302Y-38024831D01*
X31949377Y-38172758D01*
X31993559Y-38336632D01*
X32040000Y-38523849D01*
X32090849Y-38741806D01*
X32117170Y-38858253D01*
X32194359Y-39235566D01*
X32248811Y-39578347D01*
X32280569Y-39887743D01*
X32289675Y-40164903D01*
X32276172Y-40410978D01*
X32240103Y-40627114D01*
X32189143Y-40795003D01*
X32113179Y-40962714D01*
X32008686Y-41146736D01*
X31881348Y-41338447D01*
X31736846Y-41529226D01*
X31598303Y-41691367D01*
X31515158Y-41782346D01*
X31451716Y-41848314D01*
X31399482Y-41895831D01*
X31349962Y-41931462D01*
X31294660Y-41961767D01*
X31225080Y-41993309D01*
X31185553Y-42010205D01*
X31082396Y-42050364D01*
X30955070Y-42094506D01*
X30820623Y-42136963D01*
X30709303Y-42168600D01*
X30367203Y-42242660D01*
X30043313Y-42278546D01*
X29737507Y-42276239D01*
X29449660Y-42235724D01*
X29179648Y-42156982D01*
X28927345Y-42039997D01*
X28698470Y-41889242D01*
X28457973Y-41693234D01*
X28256421Y-41502631D01*
X28091280Y-41314366D01*
X27960018Y-41125372D01*
X27860102Y-40932582D01*
X27816688Y-40821214D01*
X27777953Y-40727977D01*
X27739387Y-40675241D01*
X27698965Y-40661227D01*
X27657534Y-40681714D01*
X27644173Y-40698487D01*
X27635491Y-40727081D01*
X27630994Y-40774407D01*
X27630187Y-40847379D01*
X21540169Y-40847379D01*
X21649343Y-40662750D01*
X21851224Y-40331520D01*
G37*
X21851224Y-40331520D02*
X21865650Y-40308170D01*
X21927808Y-40208151D01*
X22009682Y-40077216D01*
X22108249Y-39920157D01*
X22220489Y-39741768D01*
X22343379Y-39546841D01*
X22473900Y-39340169D01*
X22609029Y-39126546D01*
X22745746Y-38910764D01*
X22859663Y-38731253D01*
X23061553Y-38412946D01*
X23242225Y-38127145D01*
X23403516Y-37870854D01*
X23547264Y-37641073D01*
X23675305Y-37434806D01*
X23789476Y-37249055D01*
X23891614Y-37080821D01*
X23983556Y-36927106D01*
X24067140Y-36784914D01*
X24144202Y-36651245D01*
X24216579Y-36523103D01*
X24253981Y-36455836D01*
X24347819Y-36282656D01*
X24443020Y-36100542D01*
X24536261Y-35916352D01*
X24624219Y-35736944D01*
X24703569Y-35569173D01*
X24770989Y-35419898D01*
X24823156Y-35295975D01*
X24848145Y-35229901D01*
X24907070Y-35062299D01*
X24881492Y-34647818D01*
X24866838Y-34441517D01*
X24849174Y-34266430D01*
X24826175Y-34111446D01*
X24795519Y-33965451D01*
X24754882Y-33817332D01*
X24701939Y-33655976D01*
X24636386Y-33475655D01*
X24582015Y-33332188D01*
X24530806Y-33201404D01*
X24480630Y-33079252D01*
X24429358Y-32961680D01*
X24374862Y-32844639D01*
X24315012Y-32724076D01*
X24247681Y-32595942D01*
X24170739Y-32456186D01*
X24082058Y-32300755D01*
X23979509Y-32125601D01*
X23860964Y-31926671D01*
X23724293Y-31699915D01*
X23567369Y-31441282D01*
X23567232Y-31441057D01*
X23457556Y-31259777D01*
X23343551Y-31069729D01*
X23229763Y-30878606D01*
X23120742Y-30694100D01*
X23021036Y-30523903D01*
X22935193Y-30375707D01*
X22877869Y-30275170D01*
X22726963Y-30007734D01*
X22665223Y-29898499D01*
X25948199Y-29898499D01*
X25957387Y-29998650D01*
X25982014Y-30067576D01*
X26024622Y-30110191D01*
X26087754Y-30131406D01*
X26145489Y-30136154D01*
X26183477Y-30132935D01*
X26219439Y-30117682D01*
X26261820Y-30084502D01*
X26319064Y-30027507D01*
X26352896Y-29991472D01*
X26420849Y-29916455D01*
X26504773Y-29821044D01*
X26593872Y-29717640D01*
X26675244Y-29621175D01*
X26766908Y-29515371D01*
X26855469Y-29423871D01*
X26951900Y-29336446D01*
X27067178Y-29242865D01*
X27145171Y-29183115D01*
X27242812Y-29109043D01*
X27331202Y-29041326D01*
X27403638Y-28985149D01*
X27453419Y-28945697D01*
X27470803Y-28931164D01*
X27523572Y-28898818D01*
X27609078Y-28863462D01*
X27718100Y-28827709D01*
X27841419Y-28794167D01*
X27969812Y-28765448D01*
X28094058Y-28744161D01*
X28158720Y-28736428D01*
X28321634Y-28726019D01*
X28502099Y-28723411D01*
X28687237Y-28728121D01*
X28864172Y-28739667D01*
X29020026Y-28757567D01*
X29100637Y-28771690D01*
X29264874Y-28813837D01*
X29399777Y-28868250D01*
X29517943Y-28941386D01*
X29631969Y-29039702D01*
X29641221Y-29048781D01*
X29708195Y-29113368D01*
X29753269Y-29151340D01*
X29783370Y-29167083D01*
X29805427Y-29164983D01*
X29815184Y-29158929D01*
X29833742Y-29140780D01*
X29837933Y-29116993D01*
X29826784Y-29076152D01*
X29802985Y-29015753D01*
X29749660Y-28902164D01*
X29679542Y-28776408D01*
X29599135Y-28648210D01*
X29514942Y-28527295D01*
X29433465Y-28423391D01*
X29361209Y-28346221D01*
X29346699Y-28333377D01*
X29228745Y-28251341D01*
X29087504Y-28185581D01*
X28960786Y-28147735D01*
X32393310Y-28147735D01*
X32394625Y-28197464D01*
X32404865Y-28226957D01*
X32424517Y-28246309D01*
X32491773Y-28271667D01*
X32573243Y-28267947D01*
X32646895Y-28239305D01*
X32691041Y-28200845D01*
X32720679Y-28140408D01*
X32732726Y-28097225D01*
X32764322Y-27997099D01*
X32816011Y-27870049D01*
X32883647Y-27723858D01*
X32963082Y-27566310D01*
X33050170Y-27405188D01*
X33140766Y-27248274D01*
X33230721Y-27103352D01*
X33315891Y-26978204D01*
X33360322Y-26919189D01*
X33456422Y-26804628D01*
X33556169Y-26698300D01*
X33653634Y-26605554D01*
X33742885Y-26531739D01*
X33817993Y-26482204D01*
X33865815Y-26463271D01*
X33908890Y-26459700D01*
X33987380Y-26457644D01*
X34094390Y-26457105D01*
X34223029Y-26458083D01*
X34366403Y-26460580D01*
X34470193Y-26463184D01*
X34995022Y-26478022D01*
X35164798Y-26573497D01*
X35279984Y-26633962D01*
X35369598Y-26669640D01*
X35441193Y-26682105D01*
X35502324Y-26672927D01*
X35545812Y-26652808D01*
X35625209Y-26584763D01*
X35669782Y-26497817D01*
X35678207Y-26398948D01*
X35649159Y-26295138D01*
X35622720Y-26247449D01*
X35583795Y-26205758D01*
X35514873Y-26150012D01*
X35423677Y-26085374D01*
X35317931Y-26017008D01*
X35205357Y-25950076D01*
X35093680Y-25889742D01*
X35069637Y-25877688D01*
X34955628Y-25836788D01*
X34801544Y-25806579D01*
X34608298Y-25787177D01*
X34376806Y-25778699D01*
X34285036Y-25778340D01*
X34117025Y-25779788D01*
X33984088Y-25783686D01*
X33878977Y-25791438D01*
X33794445Y-25804452D01*
X33723246Y-25824134D01*
X33658132Y-25851890D01*
X33591857Y-25889127D01*
X33538381Y-25923235D01*
X33442551Y-25991804D01*
X33349656Y-26071181D01*
X33253825Y-26167360D01*
X33149184Y-26286335D01*
X33029864Y-26434097D01*
X32998795Y-26473987D01*
X32844508Y-26705173D01*
X32713170Y-26969872D01*
X32606032Y-27265249D01*
X32539709Y-27516701D01*
X32515131Y-27616413D01*
X32487139Y-27715266D01*
X32460986Y-27794969D01*
X32455938Y-27808277D01*
X32431372Y-27888070D01*
X32410442Y-27986573D01*
X32399403Y-28066927D01*
X32393310Y-28147735D01*
X28960786Y-28147735D01*
X28920168Y-28135604D01*
X28723932Y-28100916D01*
X28495989Y-28081026D01*
X28233532Y-28075439D01*
X27933756Y-28083664D01*
X27926835Y-28083991D01*
X27536201Y-28102598D01*
X27238919Y-28249762D01*
X27103153Y-28319201D01*
X26994912Y-28380636D01*
X26902366Y-28441664D01*
X26813686Y-28509882D01*
X26750462Y-28563465D01*
X26660248Y-28644095D01*
X26581659Y-28719911D01*
X26508977Y-28797733D01*
X26436484Y-28884385D01*
X26358460Y-28986689D01*
X26269189Y-29111467D01*
X26167148Y-29259388D01*
X25964159Y-29556821D01*
X25951905Y-29762212D01*
X25948199Y-29898499D01*
X22665223Y-29898499D01*
X22593126Y-29770940D01*
X22473702Y-29560456D01*
X22366034Y-29371948D01*
X22267464Y-29201085D01*
X22175335Y-29043534D01*
X22086991Y-28894962D01*
X21999774Y-28751037D01*
X21911027Y-28607427D01*
X21818092Y-28459798D01*
X21718314Y-28303819D01*
X21609035Y-28135157D01*
X21487597Y-27949479D01*
X21351344Y-27742452D01*
X21197618Y-27509746D01*
X21023763Y-27247026D01*
X20982594Y-27184836D01*
X20788596Y-26891330D01*
X20616392Y-26629698D01*
X20464017Y-26396776D01*
X20329505Y-26189399D01*
X20210893Y-26004404D01*
X20106215Y-25838626D01*
X20013507Y-25688903D01*
X19930803Y-25552068D01*
X19856138Y-25424960D01*
X19787548Y-25304413D01*
X19723068Y-25187264D01*
X19660733Y-25070348D01*
X19615544Y-24983503D01*
X19486077Y-24725416D01*
X19348643Y-24438682D01*
X19206503Y-24130905D01*
X19062920Y-23809685D01*
X18921157Y-23482625D01*
X18784474Y-23157328D01*
X18656134Y-22841394D01*
X18539400Y-22542427D01*
X18437534Y-22268029D01*
X18380289Y-22104836D01*
X18292021Y-21832968D01*
X18210853Y-21557435D01*
X18138344Y-21284948D01*
X18076052Y-21022219D01*
X18025534Y-20775958D01*
X17988350Y-20552876D01*
X17966056Y-20359684D01*
X17962267Y-20304293D01*
X17958471Y-20183804D01*
X17963640Y-20097953D01*
X17979790Y-20039623D01*
X18008937Y-20001692D01*
X18053097Y-19977040D01*
X18055142Y-19976253D01*
X18110458Y-19968149D01*
X18199971Y-19970447D01*
X18317167Y-19981953D01*
X18455529Y-20001474D01*
X18608543Y-20027815D01*
X18769691Y-20059781D01*
X18932458Y-20096178D01*
X19090329Y-20135813D01*
X19236788Y-20177490D01*
X19344388Y-20212559D01*
X19578314Y-20299436D01*
X19841743Y-20405980D01*
X20128406Y-20529229D01*
X20432029Y-20666218D01*
X20746341Y-20813984D01*
X21065070Y-20969564D01*
X21381943Y-21129995D01*
X21690690Y-21292312D01*
X21985038Y-21453553D01*
X22058129Y-21494760D01*
X22347037Y-21659620D01*
X22641084Y-21829204D01*
X22935957Y-22000931D01*
X23227342Y-22172220D01*
X23510925Y-22340488D01*
X23782392Y-22503153D01*
X24037431Y-22657634D01*
X24271727Y-22801348D01*
X24480967Y-22931715D01*
X24660836Y-23046151D01*
X24777401Y-23122314D01*
X24915310Y-23213713D01*
X25023415Y-23283879D01*
X25107334Y-23334759D01*
X25172689Y-23368298D01*
X25225098Y-23386442D01*
X25270180Y-23391137D01*
X25313556Y-23384329D01*
X25360846Y-23367964D01*
X25417637Y-23344000D01*
X25459029Y-23322015D01*
X25529259Y-23279959D01*
X25622241Y-23221682D01*
X25731887Y-23151036D01*
X25852109Y-23071872D01*
X25926865Y-23021834D01*
X26054981Y-22936231D01*
X26180245Y-22853792D01*
X26295535Y-22779110D01*
X26393729Y-22716778D01*
X26467705Y-22671388D01*
X26493756Y-22656274D01*
X26636086Y-22576679D01*
X26591358Y-22510091D01*
X26549012Y-22438988D01*
X26493357Y-22332864D01*
X26426445Y-22196146D01*
X26350326Y-22033262D01*
X26267052Y-21848639D01*
X26178673Y-21646703D01*
X26087242Y-21431883D01*
X26045674Y-21332253D01*
X25979212Y-21172768D01*
X25911837Y-21012562D01*
X25847005Y-20859746D01*
X25788172Y-20722431D01*
X25738794Y-20608729D01*
X25704784Y-20532163D01*
X25638005Y-20377916D01*
X25589820Y-20246487D01*
X25557378Y-20124643D01*
X25537825Y-19999150D01*
X25528312Y-19856778D01*
X25525977Y-19702420D01*
X25526643Y-19636690D01*
X26603775Y-19636690D01*
X26609329Y-19843849D01*
X26656813Y-20049202D01*
X26676788Y-20103914D01*
X26771190Y-20289127D01*
X26896132Y-20450065D01*
X27046542Y-20584091D01*
X27217347Y-20688565D01*
X27403475Y-20760848D01*
X27599853Y-20798302D01*
X27801410Y-20798288D01*
X27958481Y-20770692D01*
X28125538Y-20715999D01*
X28269103Y-20640703D01*
X28403331Y-20536604D01*
X28465998Y-20476625D01*
X28602986Y-20318376D01*
X28700765Y-20156793D01*
X28762299Y-19984867D01*
X28790554Y-19795593D01*
X28793202Y-19703264D01*
X28774890Y-19490044D01*
X28720199Y-19296683D01*
X28627314Y-19118597D01*
X28495984Y-18952873D01*
X28338867Y-18813426D01*
X28165991Y-18710272D01*
X27982122Y-18642676D01*
X27792025Y-18609908D01*
X27600467Y-18611234D01*
X27412214Y-18645922D01*
X27232032Y-18713239D01*
X27064686Y-18812452D01*
X26914943Y-18942829D01*
X26787568Y-19103637D01*
X26718028Y-19226170D01*
X26640045Y-19430030D01*
X26603775Y-19636690D01*
X25526643Y-19636690D01*
X25527418Y-19560391D01*
X25532712Y-19448122D01*
X25543032Y-19353126D01*
X25559552Y-19262915D01*
X25572488Y-19207659D01*
X25663070Y-18924634D01*
X25786363Y-18664962D01*
X25939125Y-18429896D01*
X26118116Y-18220685D01*
X26320096Y-18038581D01*
X26541822Y-17884835D01*
X26780054Y-17760698D01*
X27031551Y-17667420D01*
X27293072Y-17606253D01*
X27561377Y-17578448D01*
X27833224Y-17585256D01*
X28105372Y-17627928D01*
X28374581Y-17707715D01*
X28637609Y-17825868D01*
X28838568Y-17946933D01*
X29063525Y-18122500D01*
X29259938Y-18326250D01*
X29429493Y-18560353D01*
X29573880Y-18826975D01*
X29637082Y-18972962D01*
X29662690Y-19035592D01*
X29702837Y-19132240D01*
X29755452Y-19257982D01*
X29818463Y-19407899D01*
X29889799Y-19577067D01*
X29967387Y-19760567D01*
X30049156Y-19953476D01*
X30125539Y-20133255D01*
X30205723Y-20322141D01*
X30280613Y-20499286D01*
X30348612Y-20660861D01*
X30408121Y-20803033D01*
X30457543Y-20921972D01*
X30495281Y-21013846D01*
X30519735Y-21074824D01*
X30529309Y-21101075D01*
X30529386Y-21101630D01*
X30530030Y-21110962D01*
X30536151Y-21116662D01*
X30554039Y-21118280D01*
X30589980Y-21115367D01*
X30650263Y-21107473D01*
X30741175Y-21094149D01*
X30838508Y-21079530D01*
X30960749Y-21063160D01*
X31109119Y-21046380D01*
X31267466Y-21030851D01*
X31419637Y-21018234D01*
X31467008Y-21014909D01*
X31699563Y-20995274D01*
X31894479Y-20968139D01*
X32056169Y-20930883D01*
X32189045Y-20880886D01*
X32297521Y-20815528D01*
X32386008Y-20732190D01*
X32458918Y-20628250D01*
X32520665Y-20501089D01*
X32572296Y-20358586D01*
X32595152Y-20297259D01*
X32634938Y-20201427D01*
X32690013Y-20074625D01*
X32758735Y-19920390D01*
X32839461Y-19742258D01*
X32930550Y-19543766D01*
X33030358Y-19328448D01*
X33137245Y-19099841D01*
X33249568Y-18861482D01*
X33365685Y-18616906D01*
X33483954Y-18369650D01*
X33602732Y-18123249D01*
X33720378Y-17881240D01*
X33766567Y-17786836D01*
X33940493Y-17435696D01*
X34101705Y-17118294D01*
X34253284Y-16829091D01*
X34398310Y-16562549D01*
X34539865Y-16313129D01*
X34681029Y-16075293D01*
X34824884Y-15843501D01*
X34974509Y-15612217D01*
X34985157Y-15596086D01*
X35160600Y-15337574D01*
X35320427Y-15117264D01*
X35465790Y-14934486D01*
X35597838Y-14788568D01*
X35717722Y-14678842D01*
X35826591Y-14604637D01*
X35925596Y-14565282D01*
X36015886Y-14560108D01*
X36098613Y-14588444D01*
X36174926Y-14649619D01*
X36245975Y-14742964D01*
X36295814Y-14832306D01*
X36332143Y-14911319D01*
X36371843Y-15010331D01*
X36415950Y-15132517D01*
X36465504Y-15281052D01*
X36521542Y-15459112D01*
X36585101Y-15669873D01*
X36657220Y-15916511D01*
X36708020Y-16093503D01*
X36756461Y-16262318D01*
X36806052Y-16433412D01*
X36854232Y-16598067D01*
X36898436Y-16747566D01*
X36936103Y-16873192D01*
X36963139Y-16961336D01*
X36989048Y-17045027D01*
X37012377Y-17123226D01*
X37033530Y-17198928D01*
X37052911Y-17275131D01*
X37070922Y-17354828D01*
X37087967Y-17441017D01*
X37104451Y-17536693D01*
X37120776Y-17644851D01*
X37137346Y-17768488D01*
X37154565Y-17910599D01*
X37172837Y-18074179D01*
X37192564Y-18262225D01*
X37214151Y-18477732D01*
X37238001Y-18723697D01*
X37264518Y-19003114D01*
X37294106Y-19318979D01*
X37323906Y-19639193D01*
X37354389Y-19969216D01*
X37380808Y-20260329D01*
X37403332Y-20515741D01*
X37422132Y-20738663D01*
X37437377Y-20932306D01*
X37449237Y-21099879D01*
X37457883Y-21244594D01*
X37463483Y-21369660D01*
X37466209Y-21478287D01*
X37466229Y-21573687D01*
X37463714Y-21659070D01*
X37458833Y-21737645D01*
X37451757Y-21812623D01*
X37442807Y-21886074D01*
X37429876Y-21994674D01*
X37421653Y-22097182D01*
X37418936Y-22197487D01*
X37422525Y-22299483D01*
X37433216Y-22407060D01*
X37451808Y-22524111D01*
X37479100Y-22654527D01*
X37515890Y-22802200D01*
X37562976Y-22971020D01*
X37621156Y-23164881D01*
X37691229Y-23387674D01*
X37773993Y-23643289D01*
X37851761Y-23879729D01*
X37983425Y-24281799D01*
X38112801Y-24683973D01*
X38238587Y-25081926D01*
X38359484Y-25471332D01*
X38474188Y-25847866D01*
X38581400Y-26207202D01*
X38679818Y-26545016D01*
X38768141Y-26856982D01*
X38845068Y-27138774D01*
X38909297Y-27386067D01*
X38922440Y-27438836D01*
X39027880Y-27892827D01*
X39118866Y-28343627D01*
X39196649Y-28799603D01*
X39262484Y-29269124D01*
X39317625Y-29760559D01*
X39363325Y-30282275D01*
X39377508Y-30476253D01*
X39388123Y-30661190D01*
X39396980Y-30881700D01*
X39404053Y-31131060D01*
X39409314Y-31402544D01*
X39412737Y-31689429D01*
X39414294Y-31984990D01*
X39413959Y-32282503D01*
X39411705Y-32575243D01*
X39407504Y-32856486D01*
X39401329Y-33119508D01*
X39393153Y-33357584D01*
X39389440Y-33441710D01*
X39378632Y-33688625D01*
X39371590Y-33897781D01*
X39368415Y-34073594D01*
X39369210Y-34220480D01*
X39374074Y-34342853D01*
X39383109Y-34445131D01*
X39396417Y-34531728D01*
X39414099Y-34607059D01*
X39416342Y-34614939D01*
X39463979Y-34737154D01*
X39528332Y-34841500D01*
X39603687Y-34921649D01*
X39684333Y-34971275D01*
X39750232Y-34984753D01*
X39817797Y-34976554D01*
X39880677Y-34948707D01*
X39945301Y-34896336D01*
X40018096Y-34814564D01*
X40078359Y-34735859D01*
X40138940Y-34658144D01*
X40197146Y-34591456D01*
X40244726Y-34544875D01*
X40265385Y-34530015D01*
X40363303Y-34495321D01*
X40500025Y-34471878D01*
X40673483Y-34459905D01*
X40881609Y-34459620D01*
X40919133Y-34460712D01*
X41112186Y-34472050D01*
X41274335Y-34494155D01*
X41416321Y-34530178D01*
X41548881Y-34583270D01*
X41682756Y-34656583D01*
X41763575Y-34708498D01*
X41875455Y-34788292D01*
X42003827Y-34887716D01*
X42139563Y-34998983D01*
X42273537Y-35114310D01*
X42396622Y-35225913D01*
X42499691Y-35326006D01*
X42549483Y-35378809D01*
X42718424Y-35590651D01*
X42879704Y-35838783D01*
X43031010Y-36117502D01*
X43170028Y-36421103D01*
X43294444Y-36743882D01*
X43401946Y-37080135D01*
X43490220Y-37424159D01*
X43556951Y-37770249D01*
X43577957Y-37914538D01*
X43604386Y-38160824D01*
X43624111Y-38441529D01*
X43636911Y-38749239D01*
X43642560Y-39076537D01*
X43640837Y-39416009D01*
X43632651Y-39729877D01*
X43619670Y-40058043D01*
X43605620Y-40348329D01*
X43589866Y-40605188D01*
X43571774Y-40833070D01*
X43550709Y-41036427D01*
X43526036Y-41219711D01*
X43497120Y-41387374D01*
X43463327Y-41543866D01*
X43424021Y-41693640D01*
X43378569Y-41841147D01*
X43326336Y-41990839D01*
X43300380Y-42060282D01*
X43212999Y-42280843D01*
X43114881Y-42512691D01*
X43009412Y-42748830D01*
X42899976Y-42982260D01*
X42789958Y-43205983D01*
X42682745Y-43413001D01*
X42581721Y-43596315D01*
X42490272Y-43748928D01*
X42463617Y-43790086D01*
X42337288Y-43959851D01*
X42175785Y-44142358D01*
X41982911Y-44333828D01*
X41762467Y-44530479D01*
X41525520Y-44722895D01*
X41313194Y-44891844D01*
X41136118Y-45041544D01*
X40992678Y-45173555D01*
X40881257Y-45289436D01*
X40800241Y-45390747D01*
X40753165Y-45468383D01*
X40701007Y-45608245D01*
X40687565Y-45743351D01*
X40713461Y-45875080D01*
X40779316Y-46004809D01*
X40885752Y-46133918D01*
X41033392Y-46263784D01*
X41150296Y-46348273D01*
X41314691Y-46450452D01*
X41459838Y-46519493D01*
X41591369Y-46556506D01*
X41714919Y-46562603D01*
X41836121Y-46538894D01*
X41929577Y-46501887D01*
X41987527Y-46470807D01*
X42072389Y-46420454D01*
X42176317Y-46355723D01*
X42291465Y-46281508D01*
X42409988Y-46202703D01*
X42419395Y-46196337D01*
X42650312Y-46044936D01*
X42858448Y-45920178D01*
X43050959Y-45818775D01*
X43235003Y-45737441D01*
X43417739Y-45672890D01*
X43606323Y-45621834D01*
X43726803Y-45596009D01*
X43843617Y-45579237D01*
X43993121Y-45567071D01*
X44165925Y-45559508D01*
X44352637Y-45556545D01*
X44543866Y-45558178D01*
X44730222Y-45564405D01*
X44902312Y-45575222D01*
X45050746Y-45590627D01*
X45091299Y-45596460D01*
X45513143Y-45679328D01*
X45904306Y-45791316D01*
X46264865Y-45932460D01*
X46594898Y-46102794D01*
X46894481Y-46302354D01*
X47161962Y-46529517D01*
X47255611Y-46623052D01*
X47337815Y-46715207D01*
X47411010Y-46810859D01*
X47477631Y-46914886D01*
X47540116Y-47032164D01*
X47600900Y-47167570D01*
X47662419Y-47325983D01*
X47727108Y-47512278D01*
X47797405Y-47731334D01*
X47853376Y-47913787D01*
X47917171Y-48125823D01*
X47969036Y-48302615D01*
X48009729Y-48449304D01*
X48040011Y-48571032D01*
X48060641Y-48672941D01*
X48072378Y-48760172D01*
X48075984Y-48837868D01*
X48072216Y-48911169D01*
X48061835Y-48985219D01*
X48045600Y-49065158D01*
X48032092Y-49123453D01*
X48011237Y-49216093D01*
X48001089Y-49278701D01*
X48000966Y-49322017D01*
X48010184Y-49356783D01*
X48016364Y-49370765D01*
X48060017Y-49420893D01*
X48123835Y-49438314D01*
X48202912Y-49424434D01*
X48292343Y-49380657D01*
X48387222Y-49308387D01*
X48449528Y-49246757D01*
X48496372Y-49187319D01*
X48552589Y-49103180D01*
X48609421Y-49007895D01*
X48638512Y-48954220D01*
X48755855Y-48765860D01*
X48907718Y-48587276D01*
X49095798Y-48417023D01*
X49321792Y-48253661D01*
X49587398Y-48095745D01*
X49744958Y-48013690D01*
X50026368Y-47889741D01*
X50301800Y-47800973D01*
X50568576Y-47747611D01*
X50824017Y-47729882D01*
X51065443Y-47748011D01*
X51290175Y-47802224D01*
X51452637Y-47869948D01*
X51548594Y-47932345D01*
X51658588Y-48027268D01*
X51778458Y-48149018D01*
X51904041Y-48291899D01*
X52031175Y-48450214D01*
X52155698Y-48618266D01*
X52273449Y-48790358D01*
X52380264Y-48960794D01*
X52471982Y-49123877D01*
X52544441Y-49273909D01*
X52593478Y-49405193D01*
X52604573Y-49446670D01*
X52633628Y-49633223D01*
X52642161Y-49846338D01*
X52630666Y-50075826D01*
X52599636Y-50311499D01*
X52551919Y-50534134D01*
X52533562Y-50601288D01*
X52512455Y-50669876D01*
X52487105Y-50743257D01*
X52456022Y-50824791D01*
X52417714Y-50917836D01*
X52370689Y-51025752D01*
X52313455Y-51151898D01*
X52244521Y-51299635D01*
X52162395Y-51472321D01*
X52065585Y-51673316D01*
X51952600Y-51905979D01*
X51843413Y-52129753D01*
X51743954Y-52333300D01*
X51654990Y-52515438D01*
X51574568Y-52680212D01*
X51500736Y-52831662D01*
X51431539Y-52973832D01*
X51365026Y-53110764D01*
X51299243Y-53246500D01*
X51232238Y-53385085D01*
X51162056Y-53530559D01*
X51086747Y-53686966D01*
X51004355Y-53858349D01*
X50912930Y-54048749D01*
X50810517Y-54262210D01*
X50695163Y-54502774D01*
X50564916Y-54774484D01*
X50457865Y-54997836D01*
X50347998Y-55226932D01*
X50248982Y-55433310D01*
X50159545Y-55619917D01*
X50078413Y-55789701D01*
X50004314Y-55945607D01*
X49935977Y-56090584D01*
X49872127Y-56227579D01*
X49811494Y-56359538D01*
X49752804Y-56489409D01*
X49694785Y-56620138D01*
X49636165Y-56754674D01*
X49575670Y-56895963D01*
X49512029Y-57046952D01*
X49443969Y-57210589D01*
X49370218Y-57389819D01*
X49289503Y-57587592D01*
X49200551Y-57806853D01*
X49102091Y-58050550D01*
X48992849Y-58321630D01*
X48871553Y-58623040D01*
X48736931Y-58957727D01*
X48587711Y-59328639D01*
X48584345Y-59337003D01*
X48411579Y-59766382D01*
X48253902Y-60158305D01*
X48110539Y-60514563D01*
X47980718Y-60836949D01*
X47863663Y-61127256D01*
X47758602Y-61387275D01*
X47664761Y-61618799D01*
X47581365Y-61823621D01*
X47507640Y-62003532D01*
X47442814Y-62160325D01*
X47386111Y-62295792D01*
X47336759Y-62411726D01*
X47293983Y-62509919D01*
X47257009Y-62592164D01*
X47225064Y-62660252D01*
X47197373Y-62715976D01*
X47173164Y-62761129D01*
X47151661Y-62797502D01*
X47132092Y-62826889D01*
X47113682Y-62851080D01*
X47095657Y-62871870D01*
X47077244Y-62891050D01*
X47057668Y-62910412D01*
X47036157Y-62931749D01*
X47029270Y-62938742D01*
X46959221Y-63005069D01*
X46891056Y-63055060D01*
X46815799Y-63092298D01*
X46724473Y-63120368D01*
X46608100Y-63142854D01*
X46470624Y-63161759D01*
X46344604Y-63172677D01*
X46237040Y-63169345D01*
X46140134Y-63148523D01*
X46046088Y-63106971D01*
X45947105Y-63041450D01*
X45835386Y-62948719D01*
X45735214Y-62856200D01*
X45630415Y-62750343D01*
X45548466Y-62650371D01*
X45481856Y-62544349D01*
X45423072Y-62420340D01*
X45365260Y-62268266D01*
X45313561Y-62125834D01*
X45270811Y-62019195D01*
X45234378Y-61943427D01*
X45201626Y-61893603D01*
X45169921Y-61864801D01*
X45143402Y-61853551D01*
X45070055Y-61856322D01*
X44981454Y-61896201D01*
X44879171Y-61971452D01*
X44764778Y-62080338D01*
X44639846Y-62221121D01*
X44505948Y-62392065D01*
X44364655Y-62591433D01*
X44217539Y-62817488D01*
X44107088Y-62998836D01*
X44030684Y-63125462D01*
X43941468Y-63269894D01*
X43850249Y-63414809D01*
X43767836Y-63542882D01*
X43763723Y-63549170D01*
X43641138Y-63733906D01*
X43528689Y-63896777D01*
X43421903Y-64042507D01*
X43316307Y-64175818D01*
X43207426Y-64301433D01*
X43090788Y-64424075D01*
X42961918Y-64548467D01*
X42816342Y-64679331D01*
X42649588Y-64821391D01*
X42457182Y-64979370D01*
X42255720Y-65141191D01*
X42120778Y-65249803D01*
X41995305Y-65352646D01*
X41883488Y-65446145D01*
X41789516Y-65526724D01*
X41717576Y-65590807D01*
X41671858Y-65634820D01*
X41657762Y-65651666D01*
X41626640Y-65727308D01*
X41628185Y-65801753D01*
X41662974Y-65887566D01*
X41669097Y-65898670D01*
X41684395Y-65923157D01*
X41703793Y-65946295D01*
X41731457Y-65970561D01*
X41771550Y-65998430D01*
X41828238Y-66032380D01*
X41905685Y-66074886D01*
X42008054Y-66128426D01*
X42139511Y-66195475D01*
X42304220Y-66278511D01*
X42327584Y-66290253D01*
X42518972Y-66387868D01*
X42695662Y-66480824D01*
X42852511Y-66566284D01*
X42984378Y-66641410D01*
X43086118Y-66703366D01*
X43131513Y-66733709D01*
X43234695Y-66813468D01*
X43357687Y-66919590D01*
X43493778Y-67045439D01*
X43636259Y-67184381D01*
X43778420Y-67329782D01*
X43913552Y-67475005D01*
X44034943Y-67613417D01*
X44095843Y-67687253D01*
X44307322Y-67965510D01*
X44487852Y-68236557D01*
X44639843Y-68506733D01*
X44765704Y-68782382D01*
X44867846Y-69069844D01*
X44948679Y-69375461D01*
X45010612Y-69705575D01*
X45056057Y-70066526D01*
X45073227Y-70259003D01*
X45081559Y-70388052D01*
X45088451Y-70541389D01*
X45093900Y-70713099D01*
X45097899Y-70897270D01*
X45100443Y-71087988D01*
X45101528Y-71279340D01*
X45101149Y-71465411D01*
X45099300Y-71640289D01*
X45095976Y-71798061D01*
X45091173Y-71932811D01*
X45084884Y-72038628D01*
X45077106Y-72109597D01*
X45074826Y-72121670D01*
X45013071Y-72353520D01*
X44924736Y-72609682D01*
X44812311Y-72883689D01*
X44678282Y-73169073D01*
X44651451Y-73222336D01*
X44591628Y-73331996D01*
X44511010Y-73468173D01*
X44414341Y-73623622D01*
X44306365Y-73791099D01*
X44191825Y-73963358D01*
X44075466Y-74133155D01*
X43962031Y-74293246D01*
X43857909Y-74434217D01*
X43745114Y-74578933D01*
X43611828Y-74743176D01*
X43463380Y-74920884D01*
X43305103Y-75105998D01*
X43142325Y-75292455D01*
X42980379Y-75474194D01*
X42824595Y-75645155D01*
X42680302Y-75799276D01*
X42552833Y-75930497D01*
X42473595Y-76008222D01*
X42362069Y-76111679D01*
X42224571Y-76234757D01*
X42068571Y-76371125D01*
X41901541Y-76514452D01*
X41730954Y-76658405D01*
X41564280Y-76796653D01*
X41408991Y-76922864D01*
X41272558Y-77030706D01*
X41215048Y-77074778D01*
X41006878Y-77225997D01*
X40802638Y-77360765D01*
X40596698Y-77481541D01*
X40383426Y-77590784D01*
X40157190Y-77690953D01*
X39912359Y-77784507D01*
X39643301Y-77873905D01*
X39344384Y-77961608D01*
X39009978Y-78050072D01*
X38943137Y-78066877D01*
X38577361Y-78154559D01*
X38226318Y-78230783D01*
X37883267Y-78296425D01*
X37541468Y-78352357D01*
X37194178Y-78399453D01*
X36834659Y-78438587D01*
X36456168Y-78470633D01*
X36051965Y-78496464D01*
X35615310Y-78516954D01*
X35412836Y-78524445D01*
X35227877Y-78530732D01*
X35076721Y-78535524D01*
X34950862Y-78538817D01*
X34841795Y-78540602D01*
X34741016Y-78540875D01*
X34640020Y-78539629D01*
X34530303Y-78536857D01*
X34403358Y-78532554D01*
X34250681Y-78526713D01*
X34170053Y-78523531D01*
X33753246Y-78500283D01*
X33365512Y-78463693D01*
X32995152Y-78411810D01*
X32630470Y-78342683D01*
X32259765Y-78254361D01*
X31871340Y-78144895D01*
X31837011Y-78134516D01*
X31597841Y-78054180D01*
X31372502Y-77961484D01*
X31154594Y-77852650D01*
X30937714Y-77723897D01*
X30715461Y-77571447D01*
X30481436Y-77391519D01*
X30247194Y-77195851D01*
X30074557Y-77037319D01*
X29934260Y-76885686D01*
X29819221Y-76732426D01*
X29722356Y-76569010D01*
X29715204Y-76555287D01*
X29607218Y-76322088D01*
X29525819Y-76088699D01*
X29468990Y-75846067D01*
X29434712Y-75585139D01*
X29420968Y-75296862D01*
X29420502Y-75233170D01*
X29420847Y-75096882D01*
X29423017Y-74992225D01*
X29428162Y-74908502D01*
X29437429Y-74835015D01*
X29451967Y-74761068D01*
X29472925Y-74675963D01*
X29485361Y-74628908D01*
X29573563Y-74351081D01*
X29689824Y-74076546D01*
X29837231Y-73799103D01*
X30018872Y-73512550D01*
X30096677Y-73401152D01*
X30256616Y-73197798D01*
X30446991Y-72989693D01*
X30658225Y-72785912D01*
X30880744Y-72595534D01*
X31104972Y-72427636D01*
X31169679Y-72383968D01*
X31296923Y-72305352D01*
X31418247Y-72242580D01*
X31541069Y-72193783D01*
X31672804Y-72157090D01*
X31820867Y-72130632D01*
X31992676Y-72112539D01*
X32195646Y-72100941D01*
X32307387Y-72097100D01*
X32459057Y-72093325D01*
X32576175Y-72092139D01*
X32666462Y-72093878D01*
X32737637Y-72098879D01*
X32797423Y-72107479D01*
X32853539Y-72120015D01*
X32857720Y-72121098D01*
X32977512Y-72159292D01*
X33091833Y-72208175D01*
X33191931Y-72262905D01*
X33269051Y-72318637D01*
X33314441Y-72370526D01*
X33316826Y-72375165D01*
X33329063Y-72404553D01*
X33333945Y-72433669D01*
X33329861Y-72470687D01*
X33315200Y-72523779D01*
X33288350Y-72601117D01*
X33253920Y-72694218D01*
X33181371Y-72903439D01*
X33129452Y-73086433D01*
X33098981Y-73239938D01*
X33090553Y-73345993D01*
X33106104Y-73472120D01*
X33149431Y-73615148D01*
X33215545Y-73765173D01*
X33299457Y-73912289D01*
X33396178Y-74046593D01*
X33498742Y-74156378D01*
X33596075Y-74238344D01*
X33711350Y-74324551D01*
X33834056Y-74408070D01*
X33953681Y-74481974D01*
X34059713Y-74539336D01*
X34120230Y-74565941D01*
X34196079Y-74592388D01*
X34270525Y-74613016D01*
X34349694Y-74628318D01*
X34439709Y-74638788D01*
X34546698Y-74644919D01*
X34676783Y-74647203D01*
X34836090Y-74646133D01*
X35030744Y-74642203D01*
X35059053Y-74641506D01*
X35394532Y-74629817D01*
X35694536Y-74611693D01*
X35965609Y-74585861D01*
X36214293Y-74551054D01*
X36447130Y-74506002D01*
X36670662Y-74449434D01*
X36891434Y-74380081D01*
X37115986Y-74296674D01*
X37350862Y-74197943D01*
X37355637Y-74195835D01*
X37619421Y-74071414D01*
X37903049Y-73923506D01*
X38196174Y-73758297D01*
X38488447Y-73581973D01*
X38769518Y-73400721D01*
X39029041Y-73220726D01*
X39197320Y-73094933D01*
X39319133Y-72993267D01*
X39444469Y-72876062D01*
X39565276Y-72751875D01*
X39673501Y-72629262D01*
X39761090Y-72516777D01*
X39806080Y-72448189D01*
X39887953Y-72287418D01*
X39966273Y-72093933D01*
X40038566Y-71877339D01*
X40102357Y-71647243D01*
X40155171Y-71413250D01*
X40194531Y-71184966D01*
X40217963Y-70971996D01*
X40223595Y-70827984D01*
X40211044Y-70629712D01*
X40175265Y-70409797D01*
X40119470Y-70177996D01*
X40046873Y-69944063D01*
X39960687Y-69717753D01*
X39864123Y-69508822D01*
X39760395Y-69327024D01*
X39701198Y-69241793D01*
X39465714Y-68961357D01*
X39199087Y-68700764D01*
X38911067Y-68469222D01*
X38805300Y-68395607D01*
X38624254Y-68282572D01*
X38432872Y-68179396D01*
X38226777Y-68084537D01*
X38001590Y-67996453D01*
X37752931Y-67913603D01*
X37476423Y-67834445D01*
X37167685Y-67757436D01*
X36822341Y-67681034D01*
X36710053Y-67657820D01*
X36381159Y-67592821D01*
X36072793Y-67536480D01*
X35778035Y-67488044D01*
X35489964Y-67446758D01*
X35201660Y-67411867D01*
X34906202Y-67382617D01*
X34596670Y-67358254D01*
X34266143Y-67338023D01*
X33907702Y-67321169D01*
X33514425Y-67306939D01*
X33482137Y-67305919D01*
X33120351Y-67293145D01*
X32789245Y-67278062D01*
X32479558Y-67259841D01*
X32182029Y-67237649D01*
X31887395Y-67210657D01*
X31586397Y-67178031D01*
X31269773Y-67138941D01*
X30928262Y-67092556D01*
X30636928Y-67050523D01*
X30262504Y-66992828D01*
X29923588Y-66934755D01*
X29613379Y-66874569D01*
X29325074Y-66810534D01*
X29051870Y-66740914D01*
X28786966Y-66663973D01*
X28523558Y-66577975D01*
X28254844Y-66481185D01*
X27974022Y-66371866D01*
X27968220Y-66369534D01*
X27682868Y-66250862D01*
X27373745Y-66115297D01*
X27049244Y-65966923D01*
X26717757Y-65809826D01*
X26387677Y-65648089D01*
X26067398Y-65485797D01*
X25765311Y-65327035D01*
X25489810Y-65175888D01*
X25343553Y-65092181D01*
X25181626Y-64995735D01*
X25008621Y-64889083D01*
X24831405Y-64776747D01*
X24656845Y-64663244D01*
X24491807Y-64553094D01*
X24343158Y-64450817D01*
X24217764Y-64360930D01*
X24126470Y-64291161D01*
X23963804Y-64154402D01*
X23778932Y-63988304D01*
X23575662Y-63796921D01*
X23357802Y-63584311D01*
X23129159Y-63354530D01*
X22893542Y-63111635D01*
X22654758Y-62859684D01*
X22416615Y-62602732D01*
X22182921Y-62344837D01*
X21957484Y-62090055D01*
X21744111Y-61842443D01*
X21546611Y-61606058D01*
X21368791Y-61384956D01*
X21234604Y-61210253D01*
X21023437Y-60915833D01*
X20805845Y-60589713D01*
X20585042Y-60237947D01*
X20364240Y-59866588D01*
X20146653Y-59481690D01*
X19935494Y-59089307D01*
X19733976Y-58695491D01*
X19545313Y-58306298D01*
X19372717Y-57927780D01*
X19219403Y-57565991D01*
X19088582Y-57226984D01*
X19026902Y-57051003D01*
X18848662Y-56481004D01*
X18704059Y-55930708D01*
X18592042Y-55395555D01*
X18511559Y-54870981D01*
X18497742Y-54754420D01*
X18481954Y-54609034D01*
X18468185Y-54470578D01*
X18456306Y-54335063D01*
X18446187Y-54198500D01*
X18437700Y-54056901D01*
X18430715Y-53906279D01*
X18425104Y-53742644D01*
X18420737Y-53562009D01*
X18417486Y-53360386D01*
X18415220Y-53133786D01*
X18413812Y-52878221D01*
X18413132Y-52589703D01*
X18413051Y-52264244D01*
X18413140Y-52140336D01*
X18414430Y-51669913D01*
X18417552Y-51238876D01*
X18422743Y-50844307D01*
X18430243Y-50483288D01*
X18440291Y-50152903D01*
X18453124Y-49850232D01*
X18468982Y-49572359D01*
X18488103Y-49316367D01*
X18510725Y-49079336D01*
X18537088Y-48858351D01*
X18567429Y-48650493D01*
X18601988Y-48452844D01*
X18641002Y-48262487D01*
X18684711Y-48076505D01*
X18733354Y-47891979D01*
X18771432Y-47758836D01*
X18801956Y-47658629D01*
X18844697Y-47523315D01*
X18898015Y-47357786D01*
X18960268Y-47166936D01*
X19029815Y-46955658D01*
X19105015Y-46728845D01*
X19184227Y-46491391D01*
X19265809Y-46248188D01*
X19348120Y-46004129D01*
X19429519Y-45764108D01*
X19508365Y-45533018D01*
X19583017Y-45315751D01*
X19651833Y-45117202D01*
X19713173Y-44942263D01*
X19763236Y-44801813D01*
X19930396Y-44343113D01*
X20088496Y-43920584D01*
X20239710Y-43529581D01*
X20386211Y-43165458D01*
X20530172Y-42823570D01*
X20673767Y-42499272D01*
X20819169Y-42187919D01*
X20968550Y-41884866D01*
X21124085Y-41585468D01*
X21287947Y-41285079D01*
X21462308Y-40979055D01*
X21540169Y-40847379D01*
X27630187Y-40847379D01*
X27632578Y-40952909D01*
X27634335Y-41006254D01*
X27644622Y-41303003D01*
X27804541Y-41620503D01*
X27881473Y-41771053D01*
X27946114Y-41890177D01*
X28003978Y-41984854D01*
X28060579Y-42062064D01*
X28121432Y-42128788D01*
X28192050Y-42192005D01*
X28277947Y-42258696D01*
X28350221Y-42311256D01*
X28524759Y-42434713D01*
X28675201Y-42536854D01*
X28810381Y-42622969D01*
X28939132Y-42698346D01*
X29070286Y-42768275D01*
X29212677Y-42838044D01*
X29291137Y-42874655D01*
X29403811Y-42927649D01*
X29504714Y-42977147D01*
X29586790Y-43019528D01*
X29642984Y-43051168D01*
X29664667Y-43066420D01*
X29689688Y-43106243D01*
X29716900Y-43170577D01*
X29732902Y-43219928D01*
X29746679Y-43273003D01*
X29753926Y-43319675D01*
X29754365Y-43370545D01*
X29747719Y-43436213D01*
X29733709Y-43527278D01*
X29723215Y-43589396D01*
X29688247Y-43760681D01*
X29643195Y-43913410D01*
X29584125Y-44064304D01*
X29515418Y-44228980D01*
X29463484Y-44368111D01*
X29425426Y-44493639D01*
X29398345Y-44617506D01*
X29379342Y-44751651D01*
X29365518Y-44908017D01*
X29360387Y-44986003D01*
X29338345Y-45345836D01*
X29416397Y-45621003D01*
X29460608Y-45765407D01*
X29518832Y-45938498D01*
X29587364Y-46130518D01*
X29662499Y-46331707D01*
X29740532Y-46532307D01*
X29817757Y-46722556D01*
X29890470Y-46892698D01*
X29942789Y-47007536D01*
X29986745Y-47095504D01*
X30037561Y-47186860D01*
X30098804Y-47287147D01*
X30174040Y-47401908D01*
X30266835Y-47536687D01*
X30380757Y-47697028D01*
X30432936Y-47769420D01*
X30547289Y-47927488D01*
X30639564Y-48054613D01*
X30712474Y-48154164D01*
X30768732Y-48229511D01*
X30811051Y-48284026D01*
X30842144Y-48321079D01*
X30864724Y-48344041D01*
X30881504Y-48356282D01*
X30895197Y-48361173D01*
X30908516Y-48362084D01*
X30909977Y-48362086D01*
X30946171Y-48354201D01*
X30979444Y-48327715D01*
X31011867Y-48278383D01*
X31045510Y-48201958D01*
X31082440Y-48094195D01*
X31124728Y-47950848D01*
X31143527Y-47882887D01*
X31193412Y-47702326D01*
X31242456Y-47529002D01*
X31289188Y-47367784D01*
X31332137Y-47223542D01*
X31369833Y-47101144D01*
X31400805Y-47005461D01*
X31423584Y-46941362D01*
X31435940Y-46914600D01*
X31567010Y-46750187D01*
X31715429Y-46576829D01*
X31874078Y-46401985D01*
X32035841Y-46233117D01*
X32193601Y-46077684D01*
X32340241Y-45943147D01*
X32450593Y-45850975D01*
X32530467Y-45792421D01*
X32636503Y-45720757D01*
X32757685Y-45643116D01*
X32882994Y-45566629D01*
X32952451Y-45526050D01*
X33075341Y-45456361D01*
X33171628Y-45404379D01*
X33250982Y-45365989D01*
X33323073Y-45337071D01*
X33397572Y-45313510D01*
X33484149Y-45291187D01*
X33528911Y-45280616D01*
X33609755Y-45262315D01*
X33679841Y-45248320D01*
X33746771Y-45238059D01*
X33818147Y-45230957D01*
X33901574Y-45226440D01*
X34004653Y-45223936D01*
X34134988Y-45222871D01*
X34297053Y-45222670D01*
X34815637Y-45222772D01*
X35143720Y-45323394D01*
X35268082Y-45361914D01*
X35364804Y-45393827D01*
X35443927Y-45423883D01*
X35515491Y-45456831D01*
X35589536Y-45497419D01*
X35676102Y-45550396D01*
X35785230Y-45620511D01*
X35821053Y-45643768D01*
X35911604Y-45701500D01*
X35978738Y-45739942D01*
X36033961Y-45763731D01*
X36088776Y-45777505D01*
X36154690Y-45785903D01*
X36179183Y-45788141D01*
X36254578Y-45796147D01*
X36311785Y-45808203D01*
X36363746Y-45829672D01*
X36423406Y-45865921D01*
X36503709Y-45922314D01*
X36504815Y-45923109D01*
X36673675Y-46064739D01*
X36820857Y-46228584D01*
X36938210Y-46404870D01*
X36985179Y-46499209D01*
X37038933Y-46643817D01*
X37089205Y-46821370D01*
X37134001Y-47022510D01*
X37171321Y-47237873D01*
X37199170Y-47458101D01*
X37206477Y-47536586D01*
X37215821Y-47690314D01*
X37220673Y-47866217D01*
X37221258Y-48054273D01*
X37217805Y-48244461D01*
X37210540Y-48426760D01*
X37199689Y-48591150D01*
X37185479Y-48727609D01*
X37178454Y-48774836D01*
X37161823Y-48897216D01*
X37146433Y-49055633D01*
X37132555Y-49243801D01*
X37120457Y-49455435D01*
X37110411Y-49684250D01*
X37102684Y-49923959D01*
X37097547Y-50168278D01*
X37095268Y-50410921D01*
X37096119Y-50645603D01*
X37096591Y-50684067D01*
X37101098Y-50963972D01*
X37107297Y-51272303D01*
X37114984Y-51602639D01*
X37123955Y-51948559D01*
X37134008Y-52303644D01*
X37144939Y-52661473D01*
X37156545Y-53015625D01*
X37168622Y-53359681D01*
X37180966Y-53687219D01*
X37193376Y-53991820D01*
X37205646Y-54267063D01*
X37217574Y-54506528D01*
X37217813Y-54511003D01*
X37227383Y-54696889D01*
X37238085Y-54916578D01*
X37249539Y-55161566D01*
X37261367Y-55423350D01*
X37273189Y-55693425D01*
X37284625Y-55963289D01*
X37295296Y-56224437D01*
X37302821Y-56416003D01*
X37317136Y-56767156D01*
X37331586Y-57078939D01*
X37346345Y-57354312D01*
X37361589Y-57596240D01*
X37377494Y-57807683D01*
X37394235Y-57991604D01*
X37398744Y-58035253D01*
X37412757Y-58174363D01*
X37424672Y-58309883D01*
X37434798Y-58448007D01*
X37443441Y-58594931D01*
X37450909Y-58756853D01*
X37457508Y-58939966D01*
X37463548Y-59150468D01*
X37469333Y-59394554D01*
X37471715Y-59506336D01*
X37476836Y-59724634D01*
X37483110Y-59945912D01*
X37490266Y-60163187D01*
X37498033Y-60369480D01*
X37506140Y-60557809D01*
X37514315Y-60721194D01*
X37522287Y-60852655D01*
X37526039Y-60903336D01*
X37536146Y-61039153D01*
X37544062Y-61166291D01*
X37549395Y-61276548D01*
X37551755Y-61361724D01*
X37550749Y-61413616D01*
X37550503Y-61416167D01*
X37547431Y-61454904D01*
X37551105Y-61486362D01*
X37566359Y-61517956D01*
X37598027Y-61557103D01*
X37650943Y-61611219D01*
X37723414Y-61681435D01*
X37818052Y-61768498D01*
X37931281Y-61866547D01*
X38047179Y-61962052D01*
X38127595Y-62024870D01*
X38220929Y-62094556D01*
X38291806Y-62143599D01*
X38351068Y-62177494D01*
X38409560Y-62201734D01*
X38478124Y-62221814D01*
X38550928Y-62239368D01*
X38636995Y-62259435D01*
X38705592Y-62275590D01*
X38747665Y-62285689D01*
X38756471Y-62287977D01*
X38777698Y-62286682D01*
X38835059Y-62282076D01*
X38922527Y-62274671D01*
X39034076Y-62264983D01*
X39163681Y-62253524D01*
X39232721Y-62247350D01*
X39391511Y-62231586D01*
X39556134Y-62212597D01*
X39714948Y-62191912D01*
X39856314Y-62171057D01*
X39968594Y-62151561D01*
X39980303Y-62149235D01*
X40091139Y-62127875D01*
X40194483Y-62109899D01*
X40279375Y-62097089D01*
X40334857Y-62091225D01*
X40338131Y-62091096D01*
X40420793Y-62088670D01*
X40648452Y-61580670D01*
X40725800Y-61411783D01*
X40813520Y-61226418D01*
X40905409Y-61037283D01*
X40995265Y-60857085D01*
X41076886Y-60698533D01*
X41102987Y-60649336D01*
X41218347Y-60431668D01*
X41335013Y-60207037D01*
X41450354Y-59980812D01*
X41561738Y-59758360D01*
X41666535Y-59545048D01*
X41762113Y-59346242D01*
X41845842Y-59167312D01*
X41915089Y-59013623D01*
X41967225Y-58890544D01*
X41976020Y-58868405D01*
X42053773Y-58640193D01*
X42122368Y-58379850D01*
X42180044Y-58096929D01*
X42225036Y-57800982D01*
X42255582Y-57501562D01*
X42267666Y-57288470D01*
X42271897Y-57161266D01*
X42274004Y-57055315D01*
X42273445Y-56961572D01*
X42269675Y-56870990D01*
X42262152Y-56774522D01*
X42250332Y-56663122D01*
X42233672Y-56527744D01*
X42212051Y-56362527D01*
X42142009Y-55834116D01*
X42202106Y-55708379D01*
X42238742Y-55637531D01*
X42273563Y-55592483D01*
X42320474Y-55559727D01*
X42387492Y-55528305D01*
X42512782Y-55473968D01*
X42635521Y-55568413D01*
X42703347Y-55624051D01*
X42744855Y-55669898D01*
X42769592Y-55718655D01*
X42782759Y-55764264D01*
X42800731Y-55825731D01*
X42826995Y-55900486D01*
X42857342Y-55978312D01*
X42887563Y-56048994D01*
X42913447Y-56102316D01*
X42930787Y-56128062D01*
X42933053Y-56129011D01*
X42956309Y-56117632D01*
X42982040Y-56099792D01*
X42994568Y-56086396D01*
X43004664Y-56063849D01*
X43012934Y-56026892D01*
X43019982Y-55970270D01*
X43026412Y-55888726D01*
X43032829Y-55777002D01*
X43039837Y-55629843D01*
X43042207Y-55576590D01*
X43049641Y-55329733D01*
X43050913Y-55076972D01*
X43046360Y-54826227D01*
X43036318Y-54585417D01*
X43021124Y-54362462D01*
X43001114Y-54165280D01*
X42976626Y-54001791D01*
X42974868Y-53992420D01*
X42935566Y-53825607D01*
X42875134Y-53625547D01*
X42794561Y-53395087D01*
X42694835Y-53137075D01*
X42591317Y-52887851D01*
X42541531Y-52772163D01*
X42500145Y-52679986D01*
X42462222Y-52603282D01*
X42422824Y-52534015D01*
X42377013Y-52464146D01*
X42319853Y-52385640D01*
X42246406Y-52290459D01*
X42151733Y-52170566D01*
X42146942Y-52164520D01*
X42061815Y-52055746D01*
X41986392Y-51956755D01*
X41924465Y-51872740D01*
X41879826Y-51808897D01*
X41856268Y-51770417D01*
X41853553Y-51762695D01*
X41861639Y-51711977D01*
X41880816Y-51673946D01*
X41897187Y-51664086D01*
X41917522Y-51676817D01*
X41966788Y-51712913D01*
X42040908Y-51769233D01*
X42135808Y-51842635D01*
X42247410Y-51929974D01*
X42371641Y-52028111D01*
X42445346Y-52086723D01*
X42576264Y-52190746D01*
X42698024Y-52286863D01*
X42806308Y-52371712D01*
X42896795Y-52441932D01*
X42965165Y-52494163D01*
X43007099Y-52525043D01*
X43017087Y-52531581D01*
X43052153Y-52541200D01*
X43080580Y-52519208D01*
X43091377Y-52503790D01*
X43136571Y-52456228D01*
X43179350Y-52428625D01*
X43213504Y-52416860D01*
X43242125Y-52422478D01*
X43277188Y-52450927D01*
X43314561Y-52490136D01*
X43394568Y-52576800D01*
X43408150Y-52496151D01*
X43410801Y-52444019D01*
X43408043Y-52361258D01*
X43400508Y-52259139D01*
X43388829Y-52148934D01*
X43388490Y-52146174D01*
X43370902Y-52022444D01*
X43349054Y-51912872D01*
X43319817Y-51808777D01*
X43280059Y-51701478D01*
X43226650Y-51582294D01*
X43156458Y-51442543D01*
X43088669Y-51314836D01*
X42943997Y-51056352D01*
X42806075Y-50831883D01*
X42670203Y-50634691D01*
X42531682Y-50458035D01*
X42385811Y-50295176D01*
X42356262Y-50264608D01*
X42273875Y-50179328D01*
X42203016Y-50103966D01*
X42148579Y-50043894D01*
X42115460Y-50004480D01*
X42107553Y-49991752D01*
X42125828Y-49961709D01*
X42170501Y-49932284D01*
X42226346Y-49911812D01*
X42261913Y-49907253D01*
X42315701Y-49922012D01*
X42398962Y-49966025D01*
X42510954Y-50038894D01*
X42521757Y-50046394D01*
X42631022Y-50118648D01*
X42712481Y-50162837D01*
X42766591Y-50178043D01*
X42793813Y-50163349D01*
X42794605Y-50117838D01*
X42769427Y-50040591D01*
X42718738Y-49930691D01*
X42647440Y-49795330D01*
X42593566Y-49699516D01*
X42539037Y-49609063D01*
X42480513Y-49519650D01*
X42414652Y-49426954D01*
X42338111Y-49326654D01*
X42247550Y-49214429D01*
X42139626Y-49085955D01*
X42010999Y-48936911D01*
X41858327Y-48762976D01*
X41786061Y-48681270D01*
X41637976Y-48514828D01*
X41512802Y-48375970D01*
X41406011Y-48260044D01*
X41313073Y-48162398D01*
X41229458Y-48078383D01*
X41150638Y-48003345D01*
X41072082Y-47932635D01*
X40989262Y-47861600D01*
X40981629Y-47855188D01*
X40897801Y-47781809D01*
X40821995Y-47709911D01*
X40762634Y-47647836D01*
X40728507Y-47604528D01*
X40692972Y-47549674D01*
X40641999Y-47475050D01*
X40585356Y-47394897D01*
X40573031Y-47377836D01*
X40515080Y-47291768D01*
X40442116Y-47173488D01*
X40357462Y-47028940D01*
X40264445Y-46864067D01*
X40166389Y-46684814D01*
X40066619Y-46497122D01*
X39968459Y-46306937D01*
X39918961Y-46208636D01*
X39852415Y-46078165D01*
X39778997Y-45939013D01*
X39706171Y-45805038D01*
X39641397Y-45690097D01*
X39620467Y-45654326D01*
X39568369Y-45564709D01*
X39525320Y-45487136D01*
X39495483Y-45429366D01*
X39483018Y-45399157D01*
X39482887Y-45397852D01*
X39475038Y-45370010D01*
X39453568Y-45311387D01*
X39421592Y-45230089D01*
X39382223Y-45134217D01*
X39374609Y-45116078D01*
X39281354Y-44893095D01*
X39204116Y-44704626D01*
X39141421Y-44546632D01*
X39091796Y-44415077D01*
X39053767Y-44305923D01*
X39025861Y-44215131D01*
X39006605Y-44138665D01*
X38995014Y-44075836D01*
X38986913Y-43991587D01*
X38981544Y-43872023D01*
X38978740Y-43724064D01*
X38978332Y-43554628D01*
X38980153Y-43370636D01*
X38984035Y-43179006D01*
X38989811Y-42986658D01*
X38997313Y-42800510D01*
X39006373Y-42627482D01*
X39016824Y-42474494D01*
X39028498Y-42348465D01*
X39038756Y-42270766D01*
X39079296Y-42087013D01*
X39139190Y-41934527D01*
X39224098Y-41804731D01*
X39339679Y-41689048D01*
X39491593Y-41578901D01*
X39497945Y-41574845D01*
X39603762Y-41504106D01*
X39717532Y-41422327D01*
X39829120Y-41337301D01*
X39928392Y-41256822D01*
X40005213Y-41188683D01*
X40023224Y-41170937D01*
X40082992Y-41101170D01*
X40156273Y-41002397D01*
X40237448Y-40883376D01*
X40320892Y-40752861D01*
X40400984Y-40619609D01*
X40472101Y-40492376D01*
X40521809Y-40394424D01*
X40572297Y-40279481D01*
X40617525Y-40159998D01*
X40655900Y-40042361D01*
X40685831Y-39932959D01*
X40705728Y-39838178D01*
X40713999Y-39764406D01*
X40709054Y-39718031D01*
X40693574Y-39704920D01*
X40675994Y-39721691D01*
X40641404Y-39767141D01*
X40595105Y-39833968D01*
X40551408Y-39900711D01*
X40413219Y-40090493D01*
X40236209Y-40289231D01*
X40022474Y-40495030D01*
X39774111Y-40705999D01*
X39493218Y-40920243D01*
X39186553Y-41132783D01*
X38933445Y-41298310D01*
X38708987Y-41439985D01*
X38508620Y-41560212D01*
X38327790Y-41661399D01*
X38161938Y-41745950D01*
X38006509Y-41816272D01*
X37856947Y-41874771D01*
X37708694Y-41923851D01*
X37662553Y-41937455D01*
X37444816Y-41990369D01*
X37219025Y-42027932D01*
X36995821Y-42049242D01*
X36785844Y-42053399D01*
X36599734Y-42039503D01*
X36549899Y-42031634D01*
X36448232Y-42002906D01*
X36325312Y-41952112D01*
X36192013Y-41884755D01*
X36059207Y-41806338D01*
X35937765Y-41722365D01*
X35935419Y-41720585D01*
X35819106Y-41612120D01*
X35706361Y-41469075D01*
X35601957Y-41299186D01*
X35510666Y-41110191D01*
X35439310Y-40916417D01*
X35414662Y-40822062D01*
X35397157Y-40716284D01*
X35386623Y-40593783D01*
X35382891Y-40449262D01*
X35385787Y-40277420D01*
X35395140Y-40072960D01*
X35406263Y-39895420D01*
X35431847Y-39596711D01*
X35467407Y-39323819D01*
X35515385Y-39068005D01*
X35578224Y-38820534D01*
X35658367Y-38572667D01*
X35758258Y-38315668D01*
X35880338Y-38040800D01*
X35986236Y-37821086D01*
X36049455Y-37693427D01*
X36106329Y-37578656D01*
X36154199Y-37482132D01*
X36190406Y-37409215D01*
X36212290Y-37365263D01*
X36217626Y-37354672D01*
X36203641Y-37339556D01*
X36161093Y-37309581D01*
X36098372Y-37270537D01*
X36080594Y-37260080D01*
X36004909Y-37214749D01*
X35906994Y-37154251D01*
X35799941Y-37086754D01*
X35704399Y-37025344D01*
X35520255Y-36912262D01*
X35316416Y-36798479D01*
X35102631Y-36688700D01*
X34888655Y-36587630D01*
X34684238Y-36499975D01*
X34499132Y-36430439D01*
X34415771Y-36403608D01*
X34245963Y-36354736D01*
X34104939Y-36319830D01*
X33981878Y-36297910D01*
X33865957Y-36287993D01*
X33746354Y-36289098D01*
X33612248Y-36300244D01*
X33471062Y-36317932D01*
X33240057Y-36355797D01*
X33040320Y-36403460D01*
X32861197Y-36464828D01*
X32692037Y-36543811D01*
X32522184Y-36644316D01*
X32450125Y-36692477D01*
X32381825Y-36740065D01*
X32293874Y-36802258D01*
X32192502Y-36874556D01*
X32083939Y-36952458D01*
X31974412Y-37031461D01*
X31870151Y-37107065D01*
X31777386Y-37174768D01*
X31702346Y-37230071D01*
X31651258Y-37268470D01*
X31633176Y-37282805D01*
X31638145Y-37303539D01*
X31656689Y-37356703D01*
X31686305Y-37435569D01*
X31724488Y-37533405D01*
X31752225Y-37602769D01*
X31808876Y-37747233D01*
X31859185Y-37885455D01*
X31905302Y-38024831D01*
X31949377Y-38172758D01*
X31993559Y-38336632D01*
X32040000Y-38523849D01*
X32090849Y-38741806D01*
X32117170Y-38858253D01*
X32194359Y-39235566D01*
X32248811Y-39578347D01*
X32280569Y-39887743D01*
X32289675Y-40164903D01*
X32276172Y-40410978D01*
X32240103Y-40627114D01*
X32189143Y-40795003D01*
X32113179Y-40962714D01*
X32008686Y-41146736D01*
X31881348Y-41338447D01*
X31736846Y-41529226D01*
X31598303Y-41691367D01*
X31515158Y-41782346D01*
X31451716Y-41848314D01*
X31399482Y-41895831D01*
X31349962Y-41931462D01*
X31294660Y-41961767D01*
X31225080Y-41993309D01*
X31185553Y-42010205D01*
X31082396Y-42050364D01*
X30955070Y-42094506D01*
X30820623Y-42136963D01*
X30709303Y-42168600D01*
X30367203Y-42242660D01*
X30043313Y-42278546D01*
X29737507Y-42276239D01*
X29449660Y-42235724D01*
X29179648Y-42156982D01*
X28927345Y-42039997D01*
X28698470Y-41889242D01*
X28457973Y-41693234D01*
X28256421Y-41502631D01*
X28091280Y-41314366D01*
X27960018Y-41125372D01*
X27860102Y-40932582D01*
X27816688Y-40821214D01*
X27777953Y-40727977D01*
X27739387Y-40675241D01*
X27698965Y-40661227D01*
X27657534Y-40681714D01*
X27644173Y-40698487D01*
X27635491Y-40727081D01*
X27630994Y-40774407D01*
X27630187Y-40847379D01*
X21540169Y-40847379D01*
X21649343Y-40662750D01*
X21851224Y-40331520D01*
G36*
X39274136Y-47563773D02*
G01*
X39435244Y-47582988D01*
X39509221Y-47598701D01*
X39741822Y-47679552D01*
X39956005Y-47796847D01*
X40147616Y-47947175D01*
X40312497Y-48127119D01*
X40446493Y-48333268D01*
X40477249Y-48393836D01*
X40555975Y-48584281D01*
X40603676Y-48768199D01*
X40624315Y-48962894D01*
X40625887Y-49042678D01*
X40606057Y-49292582D01*
X40548574Y-49528242D01*
X40456442Y-49746657D01*
X40332668Y-49944825D01*
X40180258Y-50119746D01*
X40002218Y-50268419D01*
X39801554Y-50387842D01*
X39581272Y-50475015D01*
X39344378Y-50526937D01*
X39124959Y-50541087D01*
X38945494Y-50530811D01*
X38783139Y-50503626D01*
X38763220Y-50498684D01*
X38529756Y-50416912D01*
X38315297Y-50299673D01*
X38123526Y-50150691D01*
X37958125Y-49973691D01*
X37822775Y-49772399D01*
X37721159Y-49550540D01*
X37675145Y-49397901D01*
X37654204Y-49272100D01*
X37643907Y-49121840D01*
X37644275Y-48963639D01*
X37655327Y-48814015D01*
X37674327Y-48700753D01*
X37718293Y-48560342D01*
X37784560Y-48406644D01*
X37865121Y-48255928D01*
X37951971Y-48124461D01*
X37968549Y-48102968D01*
X38109213Y-47954596D01*
X38280394Y-47820600D01*
X38470922Y-47707993D01*
X38669626Y-47623791D01*
X38784387Y-47590694D01*
X38931210Y-47567433D01*
X39100292Y-47558524D01*
X39274136Y-47563773D01*
G37*
X39274136Y-47563773D02*
X39435244Y-47582988D01*
X39509221Y-47598701D01*
X39741822Y-47679552D01*
X39956005Y-47796847D01*
X40147616Y-47947175D01*
X40312497Y-48127119D01*
X40446493Y-48333268D01*
X40477249Y-48393836D01*
X40555975Y-48584281D01*
X40603676Y-48768199D01*
X40624315Y-48962894D01*
X40625887Y-49042678D01*
X40606057Y-49292582D01*
X40548574Y-49528242D01*
X40456442Y-49746657D01*
X40332668Y-49944825D01*
X40180258Y-50119746D01*
X40002218Y-50268419D01*
X39801554Y-50387842D01*
X39581272Y-50475015D01*
X39344378Y-50526937D01*
X39124959Y-50541087D01*
X38945494Y-50530811D01*
X38783139Y-50503626D01*
X38763220Y-50498684D01*
X38529756Y-50416912D01*
X38315297Y-50299673D01*
X38123526Y-50150691D01*
X37958125Y-49973691D01*
X37822775Y-49772399D01*
X37721159Y-49550540D01*
X37675145Y-49397901D01*
X37654204Y-49272100D01*
X37643907Y-49121840D01*
X37644275Y-48963639D01*
X37655327Y-48814015D01*
X37674327Y-48700753D01*
X37718293Y-48560342D01*
X37784560Y-48406644D01*
X37865121Y-48255928D01*
X37951971Y-48124461D01*
X37968549Y-48102968D01*
X38109213Y-47954596D01*
X38280394Y-47820600D01*
X38470922Y-47707993D01*
X38669626Y-47623791D01*
X38784387Y-47590694D01*
X38931210Y-47567433D01*
X39100292Y-47558524D01*
X39274136Y-47563773D01*
G36*
X39637738Y-56925260D02*
G01*
X39729638Y-56928510D01*
X39801459Y-56935548D01*
X39864322Y-56947797D01*
X39929349Y-56966682D01*
X39980303Y-56983978D01*
X40207861Y-57084685D01*
X40412744Y-57217706D01*
X40592074Y-57379079D01*
X40742971Y-57564840D01*
X40862557Y-57771030D01*
X40947956Y-57993685D01*
X40996287Y-58228845D01*
X41006519Y-58396490D01*
X40986861Y-58643093D01*
X40928695Y-58878482D01*
X40834959Y-59098886D01*
X40708592Y-59300537D01*
X40552532Y-59479664D01*
X40369718Y-59632499D01*
X40163089Y-59755270D01*
X39935583Y-59844209D01*
X39862534Y-59864014D01*
X39725563Y-59886661D01*
X39564956Y-59896342D01*
X39397319Y-59893237D01*
X39239254Y-59877531D01*
X39130716Y-59855979D01*
X38907811Y-59777004D01*
X38697804Y-59662536D01*
X38507467Y-59517650D01*
X38343569Y-59347422D01*
X38224026Y-59176338D01*
X38116239Y-58953181D01*
X38047459Y-58722295D01*
X38016496Y-58487960D01*
X38022161Y-58254456D01*
X38063264Y-58026064D01*
X38138617Y-57807064D01*
X38247030Y-57601738D01*
X38387313Y-57414365D01*
X38558276Y-57249227D01*
X38758732Y-57110603D01*
X38805181Y-57084880D01*
X38937325Y-57020219D01*
X39059059Y-56974686D01*
X39182952Y-56945437D01*
X39321571Y-56929629D01*
X39487486Y-56924418D01*
X39514637Y-56924374D01*
X39637738Y-56925260D01*
G37*
X39637738Y-56925260D02*
X39729638Y-56928510D01*
X39801459Y-56935548D01*
X39864322Y-56947797D01*
X39929349Y-56966682D01*
X39980303Y-56983978D01*
X40207861Y-57084685D01*
X40412744Y-57217706D01*
X40592074Y-57379079D01*
X40742971Y-57564840D01*
X40862557Y-57771030D01*
X40947956Y-57993685D01*
X40996287Y-58228845D01*
X41006519Y-58396490D01*
X40986861Y-58643093D01*
X40928695Y-58878482D01*
X40834959Y-59098886D01*
X40708592Y-59300537D01*
X40552532Y-59479664D01*
X40369718Y-59632499D01*
X40163089Y-59755270D01*
X39935583Y-59844209D01*
X39862534Y-59864014D01*
X39725563Y-59886661D01*
X39564956Y-59896342D01*
X39397319Y-59893237D01*
X39239254Y-59877531D01*
X39130716Y-59855979D01*
X38907811Y-59777004D01*
X38697804Y-59662536D01*
X38507467Y-59517650D01*
X38343569Y-59347422D01*
X38224026Y-59176338D01*
X38116239Y-58953181D01*
X38047459Y-58722295D01*
X38016496Y-58487960D01*
X38022161Y-58254456D01*
X38063264Y-58026064D01*
X38138617Y-57807064D01*
X38247030Y-57601738D01*
X38387313Y-57414365D01*
X38558276Y-57249227D01*
X38758732Y-57110603D01*
X38805181Y-57084880D01*
X38937325Y-57020219D01*
X39059059Y-56974686D01*
X39182952Y-56945437D01*
X39321571Y-56929629D01*
X39487486Y-56924418D01*
X39514637Y-56924374D01*
X39637738Y-56925260D01*
%TD*%
D11*
%TO.N,Net-(TP4-Pad1)*%
X37760000Y-55820000D03*
%TO.N,Net-(TP3-Pad1)*%
X37650000Y-50730000D03*
%TO.N,Net-(TP2-Pad1)*%
X32610000Y-41820000D03*
%TO.N,Net-(TP1-Pad1)*%
X32400000Y-37338000D03*
%TD*%
D12*
%TO.N,Net-(TP1-Pad1)*%
X32878000Y-37338000D02*
X33840000Y-38300000D01*
X32400000Y-37338000D02*
X32878000Y-37338000D01*
%TO.N,Net-(TP4-Pad1)*%
X37760000Y-55820000D02*
X39550000Y-58440000D01*
%TO.N,Net-(TP3-Pad1)*%
X37650000Y-50730000D02*
X39140000Y-49220000D01*
%TO.N,Net-(TP2-Pad1)*%
X33530000Y-42710000D02*
X32610000Y-41820000D01*
%TD*%
M02*
