%FSLAX45Y45*%
G04 Gerber Fmt 4.5, Leading zero omitted, Abs format (unit mm)*
G04 Created by KiCad (PCBNEW (6.0.4)) date 2022-09-08 21:09:34*
%MOMM*%
%LPD*%
G01*
G04 APERTURE LIST*
%ADD10C,0.200000*%
%ADD11C,0.220000*%
G04 APERTURE END LIST*
D10*
D11*
X2659034Y-1859307D02*
X2879034Y-2079307D01*
X2879034Y-1859307D02*
X2659034Y-2079307D01*
D10*
X257619Y-310476D02*
X257619Y-110476D01*
X305238Y-110476D01*
X333810Y-120000D01*
X352857Y-139048D01*
X362381Y-158095D01*
X371905Y-196190D01*
X371905Y-224762D01*
X362381Y-262857D01*
X352857Y-281905D01*
X333810Y-300952D01*
X305238Y-310476D01*
X257619Y-310476D01*
X457619Y-310476D02*
X457619Y-177143D01*
X457619Y-215238D02*
X467143Y-196190D01*
X476667Y-186667D01*
X495714Y-177143D01*
X514762Y-177143D01*
X581429Y-310476D02*
X581429Y-177143D01*
X581429Y-110476D02*
X571905Y-120000D01*
X581429Y-129524D01*
X590952Y-120000D01*
X581429Y-110476D01*
X581429Y-129524D01*
X705238Y-310476D02*
X686190Y-300952D01*
X676667Y-281905D01*
X676667Y-110476D01*
X810000Y-310476D02*
X790952Y-300952D01*
X781428Y-281905D01*
X781428Y-110476D01*
X1038571Y-310476D02*
X1038571Y-110476D01*
X1105238Y-253333D01*
X1171905Y-110476D01*
X1171905Y-310476D01*
X1352857Y-310476D02*
X1352857Y-205714D01*
X1343333Y-186667D01*
X1324286Y-177143D01*
X1286190Y-177143D01*
X1267143Y-186667D01*
X1352857Y-300952D02*
X1333810Y-310476D01*
X1286190Y-310476D01*
X1267143Y-300952D01*
X1257619Y-281905D01*
X1257619Y-262857D01*
X1267143Y-243809D01*
X1286190Y-234286D01*
X1333810Y-234286D01*
X1352857Y-224762D01*
X1448095Y-177143D02*
X1448095Y-377143D01*
X1448095Y-186667D02*
X1467143Y-177143D01*
X1505238Y-177143D01*
X1524286Y-186667D01*
X1533809Y-196190D01*
X1543333Y-215238D01*
X1543333Y-272381D01*
X1533809Y-291429D01*
X1524286Y-300952D01*
X1505238Y-310476D01*
X1467143Y-310476D01*
X1448095Y-300952D01*
X1629048Y-291429D02*
X1638571Y-300952D01*
X1629048Y-310476D01*
X1619524Y-300952D01*
X1629048Y-291429D01*
X1629048Y-310476D01*
X1629048Y-186667D02*
X1638571Y-196190D01*
X1629048Y-205714D01*
X1619524Y-196190D01*
X1629048Y-186667D01*
X1629048Y-205714D01*
X-200000Y-540000D02*
X0Y-740000D01*
X0Y-540000D02*
X-200000Y-740000D01*
X248095Y-549524D02*
X257619Y-540000D01*
X276667Y-530476D01*
X324286Y-530476D01*
X343333Y-540000D01*
X352857Y-549524D01*
X362381Y-568571D01*
X362381Y-587619D01*
X352857Y-616190D01*
X238571Y-730476D01*
X362381Y-730476D01*
X448095Y-711428D02*
X457619Y-720952D01*
X448095Y-730476D01*
X438571Y-720952D01*
X448095Y-711428D01*
X448095Y-730476D01*
X533810Y-549524D02*
X543333Y-540000D01*
X562381Y-530476D01*
X610000Y-530476D01*
X629048Y-540000D01*
X638571Y-549524D01*
X648095Y-568571D01*
X648095Y-587619D01*
X638571Y-616190D01*
X524286Y-730476D01*
X648095Y-730476D01*
X771905Y-530476D02*
X790952Y-530476D01*
X810000Y-540000D01*
X819524Y-549524D01*
X829048Y-568571D01*
X838571Y-606667D01*
X838571Y-654286D01*
X829048Y-692381D01*
X819524Y-711428D01*
X810000Y-720952D01*
X790952Y-730476D01*
X771905Y-730476D01*
X752857Y-720952D01*
X743333Y-711428D01*
X733809Y-692381D01*
X724286Y-654286D01*
X724286Y-606667D01*
X733809Y-568571D01*
X743333Y-549524D01*
X752857Y-540000D01*
X771905Y-530476D01*
X962381Y-530476D02*
X981428Y-530476D01*
X1000476Y-540000D01*
X1010000Y-549524D01*
X1019524Y-568571D01*
X1029048Y-606667D01*
X1029048Y-654286D01*
X1019524Y-692381D01*
X1010000Y-711428D01*
X1000476Y-720952D01*
X981428Y-730476D01*
X962381Y-730476D01*
X943333Y-720952D01*
X933809Y-711428D01*
X924286Y-692381D01*
X914762Y-654286D01*
X914762Y-606667D01*
X924286Y-568571D01*
X933809Y-549524D01*
X943333Y-540000D01*
X962381Y-530476D01*
X1114762Y-730476D02*
X1114762Y-597143D01*
X1114762Y-616190D02*
X1124286Y-606667D01*
X1143333Y-597143D01*
X1171905Y-597143D01*
X1190952Y-606667D01*
X1200476Y-625714D01*
X1200476Y-730476D01*
X1200476Y-625714D02*
X1210000Y-606667D01*
X1229048Y-597143D01*
X1257619Y-597143D01*
X1276667Y-606667D01*
X1286190Y-625714D01*
X1286190Y-730476D01*
X1381429Y-730476D02*
X1381429Y-597143D01*
X1381429Y-616190D02*
X1390952Y-606667D01*
X1410000Y-597143D01*
X1438571Y-597143D01*
X1457619Y-606667D01*
X1467143Y-625714D01*
X1467143Y-730476D01*
X1467143Y-625714D02*
X1476667Y-606667D01*
X1495714Y-597143D01*
X1524286Y-597143D01*
X1543333Y-606667D01*
X1552857Y-625714D01*
X1552857Y-730476D01*
X1943333Y-520952D02*
X1771905Y-778095D01*
X2200476Y-530476D02*
X2219524Y-530476D01*
X2238571Y-540000D01*
X2248095Y-549524D01*
X2257619Y-568571D01*
X2267143Y-606667D01*
X2267143Y-654286D01*
X2257619Y-692381D01*
X2248095Y-711428D01*
X2238571Y-720952D01*
X2219524Y-730476D01*
X2200476Y-730476D01*
X2181429Y-720952D01*
X2171905Y-711428D01*
X2162381Y-692381D01*
X2152857Y-654286D01*
X2152857Y-606667D01*
X2162381Y-568571D01*
X2171905Y-549524D01*
X2181429Y-540000D01*
X2200476Y-530476D01*
X2352857Y-711428D02*
X2362381Y-720952D01*
X2352857Y-730476D01*
X2343333Y-720952D01*
X2352857Y-711428D01*
X2352857Y-730476D01*
X2486190Y-530476D02*
X2505238Y-530476D01*
X2524286Y-540000D01*
X2533810Y-549524D01*
X2543333Y-568571D01*
X2552857Y-606667D01*
X2552857Y-654286D01*
X2543333Y-692381D01*
X2533810Y-711428D01*
X2524286Y-720952D01*
X2505238Y-730476D01*
X2486190Y-730476D01*
X2467143Y-720952D01*
X2457619Y-711428D01*
X2448095Y-692381D01*
X2438571Y-654286D01*
X2438571Y-606667D01*
X2448095Y-568571D01*
X2457619Y-549524D01*
X2467143Y-540000D01*
X2486190Y-530476D01*
X2667143Y-616190D02*
X2648095Y-606667D01*
X2638571Y-597143D01*
X2629048Y-578095D01*
X2629048Y-568571D01*
X2638571Y-549524D01*
X2648095Y-540000D01*
X2667143Y-530476D01*
X2705238Y-530476D01*
X2724286Y-540000D01*
X2733810Y-549524D01*
X2743333Y-568571D01*
X2743333Y-578095D01*
X2733810Y-597143D01*
X2724286Y-606667D01*
X2705238Y-616190D01*
X2667143Y-616190D01*
X2648095Y-625714D01*
X2638571Y-635238D01*
X2629048Y-654286D01*
X2629048Y-692381D01*
X2638571Y-711428D01*
X2648095Y-720952D01*
X2667143Y-730476D01*
X2705238Y-730476D01*
X2724286Y-720952D01*
X2733810Y-711428D01*
X2743333Y-692381D01*
X2743333Y-654286D01*
X2733810Y-635238D01*
X2724286Y-625714D01*
X2705238Y-616190D01*
X2914762Y-530476D02*
X2876667Y-530476D01*
X2857619Y-540000D01*
X2848095Y-549524D01*
X2829048Y-578095D01*
X2819524Y-616190D01*
X2819524Y-692381D01*
X2829048Y-711428D01*
X2838571Y-720952D01*
X2857619Y-730476D01*
X2895714Y-730476D01*
X2914762Y-720952D01*
X2924286Y-711428D01*
X2933809Y-692381D01*
X2933809Y-644762D01*
X2924286Y-625714D01*
X2914762Y-616190D01*
X2895714Y-606667D01*
X2857619Y-606667D01*
X2838571Y-616190D01*
X2829048Y-625714D01*
X2819524Y-644762D01*
X3105238Y-530476D02*
X3067143Y-530476D01*
X3048095Y-540000D01*
X3038571Y-549524D01*
X3019524Y-578095D01*
X3010000Y-616190D01*
X3010000Y-692381D01*
X3019524Y-711428D01*
X3029048Y-720952D01*
X3048095Y-730476D01*
X3086190Y-730476D01*
X3105238Y-720952D01*
X3114762Y-711428D01*
X3124286Y-692381D01*
X3124286Y-644762D01*
X3114762Y-625714D01*
X3105238Y-616190D01*
X3086190Y-606667D01*
X3048095Y-606667D01*
X3029048Y-616190D01*
X3019524Y-625714D01*
X3010000Y-644762D01*
X3200476Y-530476D02*
X3200476Y-568571D01*
X3276667Y-530476D02*
X3276667Y-568571D01*
X3571905Y-806667D02*
X3562381Y-797143D01*
X3543333Y-768571D01*
X3533809Y-749524D01*
X3524286Y-720952D01*
X3514762Y-673333D01*
X3514762Y-635238D01*
X3524286Y-587619D01*
X3533809Y-559048D01*
X3543333Y-540000D01*
X3562381Y-511428D01*
X3571905Y-501905D01*
X3752857Y-730476D02*
X3638571Y-730476D01*
X3695714Y-730476D02*
X3695714Y-530476D01*
X3676667Y-559048D01*
X3657619Y-578095D01*
X3638571Y-587619D01*
X3990952Y-730476D02*
X3990952Y-530476D01*
X4076667Y-730476D02*
X4076667Y-625714D01*
X4067143Y-606667D01*
X4048095Y-597143D01*
X4019524Y-597143D01*
X4000476Y-606667D01*
X3990952Y-616190D01*
X4200476Y-730476D02*
X4181428Y-720952D01*
X4171905Y-711428D01*
X4162381Y-692381D01*
X4162381Y-635238D01*
X4171905Y-616190D01*
X4181428Y-606667D01*
X4200476Y-597143D01*
X4229048Y-597143D01*
X4248095Y-606667D01*
X4257619Y-616190D01*
X4267143Y-635238D01*
X4267143Y-692381D01*
X4257619Y-711428D01*
X4248095Y-720952D01*
X4229048Y-730476D01*
X4200476Y-730476D01*
X4381429Y-730476D02*
X4362381Y-720952D01*
X4352857Y-701905D01*
X4352857Y-530476D01*
X4533810Y-720952D02*
X4514762Y-730476D01*
X4476667Y-730476D01*
X4457619Y-720952D01*
X4448095Y-701905D01*
X4448095Y-625714D01*
X4457619Y-606667D01*
X4476667Y-597143D01*
X4514762Y-597143D01*
X4533810Y-606667D01*
X4543333Y-625714D01*
X4543333Y-644762D01*
X4448095Y-663810D01*
X4610000Y-806667D02*
X4619524Y-797143D01*
X4638571Y-768571D01*
X4648095Y-749524D01*
X4657619Y-720952D01*
X4667143Y-673333D01*
X4667143Y-635238D01*
X4657619Y-587619D01*
X4648095Y-559048D01*
X4638571Y-540000D01*
X4619524Y-511428D01*
X4610000Y-501905D01*
X4971905Y-806667D02*
X4962381Y-797143D01*
X4943333Y-768571D01*
X4933810Y-749524D01*
X4924286Y-720952D01*
X4914762Y-673333D01*
X4914762Y-635238D01*
X4924286Y-587619D01*
X4933810Y-559048D01*
X4943333Y-540000D01*
X4962381Y-511428D01*
X4971905Y-501905D01*
X5048095Y-597143D02*
X5048095Y-730476D01*
X5048095Y-616190D02*
X5057619Y-606667D01*
X5076667Y-597143D01*
X5105238Y-597143D01*
X5124286Y-606667D01*
X5133810Y-625714D01*
X5133810Y-730476D01*
X5257619Y-730476D02*
X5238571Y-720952D01*
X5229048Y-711428D01*
X5219524Y-692381D01*
X5219524Y-635238D01*
X5229048Y-616190D01*
X5238571Y-606667D01*
X5257619Y-597143D01*
X5286190Y-597143D01*
X5305238Y-606667D01*
X5314762Y-616190D01*
X5324286Y-635238D01*
X5324286Y-692381D01*
X5314762Y-711428D01*
X5305238Y-720952D01*
X5286190Y-730476D01*
X5257619Y-730476D01*
X5381429Y-597143D02*
X5457619Y-597143D01*
X5410000Y-530476D02*
X5410000Y-701905D01*
X5419524Y-720952D01*
X5438571Y-730476D01*
X5457619Y-730476D01*
X5676667Y-597143D02*
X5676667Y-797143D01*
X5676667Y-606667D02*
X5695714Y-597143D01*
X5733809Y-597143D01*
X5752857Y-606667D01*
X5762381Y-616190D01*
X5771905Y-635238D01*
X5771905Y-692381D01*
X5762381Y-711428D01*
X5752857Y-720952D01*
X5733809Y-730476D01*
X5695714Y-730476D01*
X5676667Y-720952D01*
X5886190Y-730476D02*
X5867143Y-720952D01*
X5857619Y-701905D01*
X5857619Y-530476D01*
X6048095Y-730476D02*
X6048095Y-625714D01*
X6038571Y-606667D01*
X6019524Y-597143D01*
X5981428Y-597143D01*
X5962381Y-606667D01*
X6048095Y-720952D02*
X6029048Y-730476D01*
X5981428Y-730476D01*
X5962381Y-720952D01*
X5952857Y-701905D01*
X5952857Y-682857D01*
X5962381Y-663810D01*
X5981428Y-654286D01*
X6029048Y-654286D01*
X6048095Y-644762D01*
X6114762Y-597143D02*
X6190952Y-597143D01*
X6143333Y-530476D02*
X6143333Y-701905D01*
X6152857Y-720952D01*
X6171905Y-730476D01*
X6190952Y-730476D01*
X6333809Y-720952D02*
X6314762Y-730476D01*
X6276667Y-730476D01*
X6257619Y-720952D01*
X6248095Y-701905D01*
X6248095Y-625714D01*
X6257619Y-606667D01*
X6276667Y-597143D01*
X6314762Y-597143D01*
X6333809Y-606667D01*
X6343333Y-625714D01*
X6343333Y-644762D01*
X6248095Y-663810D01*
X6514762Y-730476D02*
X6514762Y-530476D01*
X6514762Y-720952D02*
X6495714Y-730476D01*
X6457619Y-730476D01*
X6438571Y-720952D01*
X6429048Y-711428D01*
X6419524Y-692381D01*
X6419524Y-635238D01*
X6429048Y-616190D01*
X6438571Y-606667D01*
X6457619Y-597143D01*
X6495714Y-597143D01*
X6514762Y-606667D01*
X6590952Y-806667D02*
X6600476Y-797143D01*
X6619524Y-768571D01*
X6629048Y-749524D01*
X6638571Y-720952D01*
X6648095Y-673333D01*
X6648095Y-635238D01*
X6638571Y-587619D01*
X6629048Y-559048D01*
X6619524Y-540000D01*
X6600476Y-511428D01*
X6590952Y-501905D01*
M02*
