%TF.GenerationSoftware,KiCad,Pcbnew,(6.0.4)*%
%TF.CreationDate,2022-09-08T21:09:09+03:00*%
%TF.ProjectId,purrCat2032,70757272-4361-4743-9230-33322e6b6963,rev?*%
%TF.SameCoordinates,Original*%
%TF.FileFunction,Paste,Bot*%
%TF.FilePolarity,Positive*%
%FSLAX46Y46*%
G04 Gerber Fmt 4.6, Leading zero omitted, Abs format (unit mm)*
G04 Created by KiCad (PCBNEW (6.0.4)) date 2022-09-08 21:09:09*
%MOMM*%
%LPD*%
G01*
G04 APERTURE LIST*
G04 Aperture macros list*
%AMRoundRect*
0 Rectangle with rounded corners*
0 $1 Rounding radius*
0 $2 $3 $4 $5 $6 $7 $8 $9 X,Y pos of 4 corners*
0 Add a 4 corners polygon primitive as box body*
4,1,4,$2,$3,$4,$5,$6,$7,$8,$9,$2,$3,0*
0 Add four circle primitives for the rounded corners*
1,1,$1+$1,$2,$3*
1,1,$1+$1,$4,$5*
1,1,$1+$1,$6,$7*
1,1,$1+$1,$8,$9*
0 Add four rect primitives between the rounded corners*
20,1,$1+$1,$2,$3,$4,$5,0*
20,1,$1+$1,$4,$5,$6,$7,0*
20,1,$1+$1,$6,$7,$8,$9,0*
20,1,$1+$1,$8,$9,$2,$3,0*%
%AMRotRect*
0 Rectangle, with rotation*
0 The origin of the aperture is its center*
0 $1 length*
0 $2 width*
0 $3 Rotation angle, in degrees counterclockwise*
0 Add horizontal line*
21,1,$1,$2,0,0,$3*%
G04 Aperture macros list end*
%ADD10RoundRect,0.150000X-0.150000X0.587500X-0.150000X-0.587500X0.150000X-0.587500X0.150000X0.587500X0*%
%ADD11RoundRect,0.300000X-0.300000X0.600000X-0.300000X-0.600000X0.300000X-0.600000X0.300000X0.600000X0*%
%ADD12RoundRect,0.225000X0.309574X0.131488X-0.098265X0.321666X-0.309574X-0.131488X0.098265X-0.321666X0*%
%ADD13RoundRect,0.243750X-0.494975X-0.150260X-0.150260X-0.494975X0.494975X0.150260X0.150260X0.494975X0*%
%ADD14RoundRect,0.250000X0.250000X0.475000X-0.250000X0.475000X-0.250000X-0.475000X0.250000X-0.475000X0*%
%ADD15RoundRect,0.250000X0.427321X0.324842X-0.025833X0.536151X-0.427321X-0.324842X0.025833X-0.536151X0*%
%ADD16RoundRect,0.200000X-0.275000X0.200000X-0.275000X-0.200000X0.275000X-0.200000X0.275000X0.200000X0*%
%ADD17RotRect,1.600000X5.080000X157.000000*%
%ADD18RoundRect,0.218750X0.218750X0.256250X-0.218750X0.256250X-0.218750X-0.256250X0.218750X-0.256250X0*%
%ADD19RoundRect,0.243750X-0.475758X0.203058X-0.433270X-0.282587X0.475758X-0.203058X0.433270X0.282587X0*%
%ADD20RoundRect,0.200000X0.275000X-0.200000X0.275000X0.200000X-0.275000X0.200000X-0.275000X-0.200000X0*%
%ADD21RoundRect,0.100000X-0.178788X-0.620033X0.360050X0.535509X0.178788X0.620033X-0.360050X-0.535509X0*%
G04 APERTURE END LIST*
D10*
%TO.C,Q1*%
X32324000Y-31796586D03*
X34224000Y-31796586D03*
D11*
X33400000Y-33850000D03*
%TD*%
D12*
%TO.C,C3*%
X25616609Y-43951615D03*
X24211831Y-43296557D03*
%TD*%
D13*
%TO.C,D3*%
X32528504Y-26028370D03*
X33854330Y-27354196D03*
%TD*%
D14*
%TO.C,C2*%
X37964220Y-31750000D03*
X36064220Y-31750000D03*
%TD*%
D15*
%TO.C,C1*%
X23955212Y-45605573D03*
X22233228Y-44802599D03*
%TD*%
D16*
%TO.C,R1*%
X30231318Y-33439564D03*
X30231318Y-31789564D03*
%TD*%
D17*
%TO.C,BT1*%
X42914951Y-60104191D03*
X22295643Y-51351813D03*
%TD*%
D18*
%TO.C,D1*%
X37691720Y-29870000D03*
X36116720Y-29870000D03*
%TD*%
D16*
%TO.C,R4*%
X28690151Y-33435840D03*
X28690151Y-31785840D03*
%TD*%
D19*
%TO.C,D2*%
X28142511Y-27460153D03*
X28305929Y-29328019D03*
%TD*%
D20*
%TO.C,R2*%
X25804220Y-27459086D03*
X25804220Y-25809086D03*
%TD*%
%TO.C,R3*%
X30174220Y-26029086D03*
X30174220Y-24379086D03*
%TD*%
D21*
%TO.C,U1*%
X28966325Y-43059849D03*
X28377225Y-42785147D03*
X27788125Y-42510445D03*
X27199025Y-42235743D03*
X26609925Y-41961041D03*
X26020825Y-41686339D03*
X25431725Y-41411637D03*
X24842625Y-41136935D03*
X27262115Y-35948323D03*
X27851215Y-36223025D03*
X28440315Y-36497727D03*
X29029415Y-36772429D03*
X29618515Y-37047131D03*
X30207615Y-37321833D03*
X30796715Y-37596535D03*
X31385815Y-37871237D03*
%TD*%
M02*
