%TF.GenerationSoftware,KiCad,Pcbnew,(6.0.4)*%
%TF.CreationDate,2022-09-08T21:09:09+03:00*%
%TF.ProjectId,purrCat2032,70757272-4361-4743-9230-33322e6b6963,rev?*%
%TF.SameCoordinates,Original*%
%TF.FileFunction,Soldermask,Bot*%
%TF.FilePolarity,Negative*%
%FSLAX46Y46*%
G04 Gerber Fmt 4.6, Leading zero omitted, Abs format (unit mm)*
G04 Created by KiCad (PCBNEW (6.0.4)) date 2022-09-08 21:09:09*
%MOMM*%
%LPD*%
G01*
G04 APERTURE LIST*
G04 Aperture macros list*
%AMRoundRect*
0 Rectangle with rounded corners*
0 $1 Rounding radius*
0 $2 $3 $4 $5 $6 $7 $8 $9 X,Y pos of 4 corners*
0 Add a 4 corners polygon primitive as box body*
4,1,4,$2,$3,$4,$5,$6,$7,$8,$9,$2,$3,0*
0 Add four circle primitives for the rounded corners*
1,1,$1+$1,$2,$3*
1,1,$1+$1,$4,$5*
1,1,$1+$1,$6,$7*
1,1,$1+$1,$8,$9*
0 Add four rect primitives between the rounded corners*
20,1,$1+$1,$2,$3,$4,$5,0*
20,1,$1+$1,$4,$5,$6,$7,0*
20,1,$1+$1,$6,$7,$8,$9,0*
20,1,$1+$1,$8,$9,$2,$3,0*%
%AMRotRect*
0 Rectangle, with rotation*
0 The origin of the aperture is its center*
0 $1 length*
0 $2 width*
0 $3 Rotation angle, in degrees counterclockwise*
0 Add horizontal line*
21,1,$1,$2,0,0,$3*%
G04 Aperture macros list end*
%ADD10C,0.150000*%
%ADD11C,0.010000*%
%ADD12RoundRect,0.150000X-0.150000X0.587500X-0.150000X-0.587500X0.150000X-0.587500X0.150000X0.587500X0*%
%ADD13RoundRect,0.300000X-0.300000X0.600000X-0.300000X-0.600000X0.300000X-0.600000X0.300000X0.600000X0*%
%ADD14C,2.200000*%
%ADD15RoundRect,0.225000X0.309574X0.131488X-0.098265X0.321666X-0.309574X-0.131488X0.098265X-0.321666X0*%
%ADD16RoundRect,0.243750X-0.494975X-0.150260X-0.150260X-0.494975X0.494975X0.150260X0.150260X0.494975X0*%
%ADD17RotRect,0.750000X0.750000X155.000000*%
%ADD18RoundRect,0.250000X0.250000X0.475000X-0.250000X0.475000X-0.250000X-0.475000X0.250000X-0.475000X0*%
%ADD19RoundRect,0.250000X0.427321X0.324842X-0.025833X0.536151X-0.427321X-0.324842X0.025833X-0.536151X0*%
%ADD20RoundRect,0.200000X-0.275000X0.200000X-0.275000X-0.200000X0.275000X-0.200000X0.275000X0.200000X0*%
%ADD21RotRect,1.600000X5.080000X157.000000*%
%ADD22RoundRect,0.750000X0.983427X0.397330X-0.397330X0.983427X-0.983427X-0.397330X0.397330X-0.983427X0*%
%ADD23RoundRect,0.218750X0.218750X0.256250X-0.218750X0.256250X-0.218750X-0.256250X0.218750X-0.256250X0*%
%ADD24RoundRect,0.243750X-0.475758X0.203058X-0.433270X-0.282587X0.475758X-0.203058X0.433270X0.282587X0*%
%ADD25RoundRect,0.200000X0.275000X-0.200000X0.275000X0.200000X-0.275000X0.200000X-0.275000X-0.200000X0*%
%ADD26RoundRect,0.100000X-0.178788X-0.620033X0.360050X0.535509X0.178788X0.620033X-0.360050X-0.535509X0*%
G04 APERTURE END LIST*
D10*
G36*
X33980000Y-46180000D02*
G01*
X36000000Y-46690000D01*
X37520000Y-47400000D01*
X39950000Y-49470000D01*
X40860000Y-50790000D01*
X41630000Y-52290000D01*
X42230000Y-55290000D01*
X41600000Y-59310000D01*
X39480000Y-62580000D01*
X36210000Y-64730000D01*
X32240000Y-65360000D01*
X28980000Y-64720000D01*
X26470000Y-63200000D01*
X24430000Y-60940000D01*
X23350000Y-58560000D01*
X23320000Y-55570000D01*
X23590000Y-52290000D01*
X25620000Y-49150000D01*
X27610000Y-47540000D01*
X29440000Y-46660000D01*
X30620000Y-46370000D01*
X31090000Y-47710000D01*
X32180000Y-49270000D01*
X35220000Y-53600000D01*
X37030000Y-56010000D01*
X37110000Y-56260000D01*
X37410000Y-56500000D01*
X37640000Y-56550000D01*
X37890000Y-56570000D01*
X38100000Y-56490000D01*
X38240000Y-56410000D01*
X38350000Y-56260000D01*
X38430000Y-56110000D01*
X38490000Y-55940000D01*
X38520000Y-55750000D01*
X38450000Y-55500000D01*
X38385000Y-55385000D01*
X38320000Y-55280000D01*
X38190000Y-55190000D01*
X36120000Y-52310000D01*
X35530000Y-51430000D01*
X36280000Y-51450000D01*
X36890000Y-51450000D01*
X37270000Y-51440000D01*
X37560000Y-51530000D01*
X37920000Y-51490000D01*
X38180000Y-51320000D01*
X38300000Y-51140000D01*
X38410000Y-50940000D01*
X38440000Y-50600000D01*
X38360000Y-50350000D01*
X38200000Y-50160000D01*
X37970000Y-50010000D01*
X37780000Y-49950000D01*
X37520000Y-49950000D01*
X37440000Y-49975000D01*
X37280000Y-50020000D01*
X35570000Y-50020000D01*
X34250000Y-48280000D01*
X33470000Y-47200000D01*
X33010000Y-46590000D01*
X32830000Y-46120000D01*
X33980000Y-46180000D01*
G37*
X33980000Y-46180000D02*
X36000000Y-46690000D01*
X37520000Y-47400000D01*
X39950000Y-49470000D01*
X40860000Y-50790000D01*
X41630000Y-52290000D01*
X42230000Y-55290000D01*
X41600000Y-59310000D01*
X39480000Y-62580000D01*
X36210000Y-64730000D01*
X32240000Y-65360000D01*
X28980000Y-64720000D01*
X26470000Y-63200000D01*
X24430000Y-60940000D01*
X23350000Y-58560000D01*
X23320000Y-55570000D01*
X23590000Y-52290000D01*
X25620000Y-49150000D01*
X27610000Y-47540000D01*
X29440000Y-46660000D01*
X30620000Y-46370000D01*
X31090000Y-47710000D01*
X32180000Y-49270000D01*
X35220000Y-53600000D01*
X37030000Y-56010000D01*
X37110000Y-56260000D01*
X37410000Y-56500000D01*
X37640000Y-56550000D01*
X37890000Y-56570000D01*
X38100000Y-56490000D01*
X38240000Y-56410000D01*
X38350000Y-56260000D01*
X38430000Y-56110000D01*
X38490000Y-55940000D01*
X38520000Y-55750000D01*
X38450000Y-55500000D01*
X38385000Y-55385000D01*
X38320000Y-55280000D01*
X38190000Y-55190000D01*
X36120000Y-52310000D01*
X35530000Y-51430000D01*
X36280000Y-51450000D01*
X36890000Y-51450000D01*
X37270000Y-51440000D01*
X37560000Y-51530000D01*
X37920000Y-51490000D01*
X38180000Y-51320000D01*
X38300000Y-51140000D01*
X38410000Y-50940000D01*
X38440000Y-50600000D01*
X38360000Y-50350000D01*
X38200000Y-50160000D01*
X37970000Y-50010000D01*
X37780000Y-49950000D01*
X37520000Y-49950000D01*
X37440000Y-49975000D01*
X37280000Y-50020000D01*
X35570000Y-50020000D01*
X34250000Y-48280000D01*
X33470000Y-47200000D01*
X33010000Y-46590000D01*
X32830000Y-46120000D01*
X33980000Y-46180000D01*
%TO.C,Ref\u002A\u002A*%
G36*
X27856978Y-18617176D02*
G01*
X28045495Y-18661688D01*
X28226165Y-18741275D01*
X28394225Y-18856671D01*
X28495984Y-18952873D01*
X28628462Y-19120355D01*
X28720948Y-19298573D01*
X28775258Y-19492114D01*
X28793202Y-19703264D01*
X28778902Y-19902590D01*
X28732652Y-20081426D01*
X28651486Y-20246778D01*
X28532440Y-20405655D01*
X28465998Y-20476625D01*
X28299060Y-20616757D01*
X28115778Y-20718391D01*
X27919179Y-20780669D01*
X27712289Y-20802736D01*
X27498135Y-20783734D01*
X27431308Y-20769506D01*
X27239825Y-20701974D01*
X27063634Y-20598152D01*
X26908302Y-20462949D01*
X26779393Y-20301275D01*
X26682475Y-20118041D01*
X26676788Y-20103914D01*
X26617990Y-19899442D01*
X26601151Y-19692543D01*
X26626165Y-19485522D01*
X26692922Y-19280680D01*
X26718028Y-19226170D01*
X26828016Y-19045665D01*
X26963521Y-18895108D01*
X27119776Y-18775231D01*
X27292015Y-18686767D01*
X27475472Y-18630448D01*
X27665382Y-18607006D01*
X27856978Y-18617176D01*
G37*
D11*
X27856978Y-18617176D02*
X28045495Y-18661688D01*
X28226165Y-18741275D01*
X28394225Y-18856671D01*
X28495984Y-18952873D01*
X28628462Y-19120355D01*
X28720948Y-19298573D01*
X28775258Y-19492114D01*
X28793202Y-19703264D01*
X28778902Y-19902590D01*
X28732652Y-20081426D01*
X28651486Y-20246778D01*
X28532440Y-20405655D01*
X28465998Y-20476625D01*
X28299060Y-20616757D01*
X28115778Y-20718391D01*
X27919179Y-20780669D01*
X27712289Y-20802736D01*
X27498135Y-20783734D01*
X27431308Y-20769506D01*
X27239825Y-20701974D01*
X27063634Y-20598152D01*
X26908302Y-20462949D01*
X26779393Y-20301275D01*
X26682475Y-20118041D01*
X26676788Y-20103914D01*
X26617990Y-19899442D01*
X26601151Y-19692543D01*
X26626165Y-19485522D01*
X26692922Y-19280680D01*
X26718028Y-19226170D01*
X26828016Y-19045665D01*
X26963521Y-18895108D01*
X27119776Y-18775231D01*
X27292015Y-18686767D01*
X27475472Y-18630448D01*
X27665382Y-18607006D01*
X27856978Y-18617176D01*
G36*
X28622065Y-28035201D02*
G01*
X28804107Y-28056782D01*
X28959187Y-28091490D01*
X29090959Y-28139446D01*
X29178787Y-28191722D01*
X29280522Y-28272986D01*
X29388947Y-28375535D01*
X29496847Y-28491671D01*
X29597006Y-28613692D01*
X29682208Y-28733898D01*
X29738071Y-28830058D01*
X29799493Y-28962823D01*
X29833874Y-29065098D01*
X29841144Y-29136386D01*
X29821232Y-29176191D01*
X29788794Y-29185086D01*
X29756996Y-29171392D01*
X29703656Y-29134590D01*
X29637566Y-29081098D01*
X29596999Y-29045086D01*
X29481986Y-28948554D01*
X29368977Y-28875497D01*
X29244193Y-28818669D01*
X29093855Y-28770826D01*
X29056405Y-28760896D01*
X28834577Y-28720190D01*
X28589950Y-28704191D01*
X28333476Y-28712055D01*
X28076107Y-28742932D01*
X27828794Y-28795978D01*
X27602489Y-28870343D01*
X27593276Y-28874055D01*
X27446079Y-28945665D01*
X27297489Y-29042446D01*
X27144340Y-29167196D01*
X26983467Y-29322711D01*
X26811705Y-29511788D01*
X26648143Y-29709274D01*
X26547343Y-29833051D01*
X26465872Y-29926622D01*
X26398553Y-29994298D01*
X26340205Y-30040391D01*
X26285652Y-30069212D01*
X26229714Y-30085073D01*
X26190299Y-30090462D01*
X26123782Y-30093729D01*
X26079767Y-30083229D01*
X26039106Y-30052769D01*
X26021858Y-30035981D01*
X25985692Y-29995319D01*
X25966291Y-29955463D01*
X25958570Y-29900873D01*
X25957387Y-29838942D01*
X25972883Y-29671457D01*
X26016288Y-29489563D01*
X26082976Y-29305936D01*
X26168320Y-29133252D01*
X26267694Y-28984186D01*
X26270763Y-28980313D01*
X26461933Y-28757187D01*
X26653227Y-28569689D01*
X26851941Y-28411723D01*
X27065376Y-28277198D01*
X27193155Y-28210271D01*
X27290465Y-28163778D01*
X27376268Y-28126908D01*
X27457679Y-28098328D01*
X27541813Y-28076703D01*
X27635783Y-28060700D01*
X27746705Y-28048985D01*
X27881691Y-28040225D01*
X28047857Y-28033085D01*
X28158720Y-28029246D01*
X28408467Y-28026203D01*
X28622065Y-28035201D01*
G37*
X28622065Y-28035201D02*
X28804107Y-28056782D01*
X28959187Y-28091490D01*
X29090959Y-28139446D01*
X29178787Y-28191722D01*
X29280522Y-28272986D01*
X29388947Y-28375535D01*
X29496847Y-28491671D01*
X29597006Y-28613692D01*
X29682208Y-28733898D01*
X29738071Y-28830058D01*
X29799493Y-28962823D01*
X29833874Y-29065098D01*
X29841144Y-29136386D01*
X29821232Y-29176191D01*
X29788794Y-29185086D01*
X29756996Y-29171392D01*
X29703656Y-29134590D01*
X29637566Y-29081098D01*
X29596999Y-29045086D01*
X29481986Y-28948554D01*
X29368977Y-28875497D01*
X29244193Y-28818669D01*
X29093855Y-28770826D01*
X29056405Y-28760896D01*
X28834577Y-28720190D01*
X28589950Y-28704191D01*
X28333476Y-28712055D01*
X28076107Y-28742932D01*
X27828794Y-28795978D01*
X27602489Y-28870343D01*
X27593276Y-28874055D01*
X27446079Y-28945665D01*
X27297489Y-29042446D01*
X27144340Y-29167196D01*
X26983467Y-29322711D01*
X26811705Y-29511788D01*
X26648143Y-29709274D01*
X26547343Y-29833051D01*
X26465872Y-29926622D01*
X26398553Y-29994298D01*
X26340205Y-30040391D01*
X26285652Y-30069212D01*
X26229714Y-30085073D01*
X26190299Y-30090462D01*
X26123782Y-30093729D01*
X26079767Y-30083229D01*
X26039106Y-30052769D01*
X26021858Y-30035981D01*
X25985692Y-29995319D01*
X25966291Y-29955463D01*
X25958570Y-29900873D01*
X25957387Y-29838942D01*
X25972883Y-29671457D01*
X26016288Y-29489563D01*
X26082976Y-29305936D01*
X26168320Y-29133252D01*
X26267694Y-28984186D01*
X26270763Y-28980313D01*
X26461933Y-28757187D01*
X26653227Y-28569689D01*
X26851941Y-28411723D01*
X27065376Y-28277198D01*
X27193155Y-28210271D01*
X27290465Y-28163778D01*
X27376268Y-28126908D01*
X27457679Y-28098328D01*
X27541813Y-28076703D01*
X27635783Y-28060700D01*
X27746705Y-28048985D01*
X27881691Y-28040225D01*
X28047857Y-28033085D01*
X28158720Y-28029246D01*
X28408467Y-28026203D01*
X28622065Y-28035201D01*
G36*
X34587381Y-25753536D02*
G01*
X34600524Y-25754631D01*
X34856029Y-25786119D01*
X35073928Y-25834527D01*
X35255672Y-25900449D01*
X35402714Y-25984479D01*
X35516506Y-26087212D01*
X35563464Y-26148892D01*
X35631453Y-26267699D01*
X35664231Y-26368995D01*
X35662134Y-26458260D01*
X35625495Y-26540976D01*
X35590137Y-26586341D01*
X35542279Y-26631351D01*
X35494479Y-26649400D01*
X35442944Y-26650821D01*
X35382836Y-26640641D01*
X35300011Y-26616670D01*
X35209863Y-26583538D01*
X35186076Y-26573541D01*
X35060577Y-26522934D01*
X34949066Y-26488218D01*
X34839085Y-26467402D01*
X34718179Y-26458496D01*
X34573890Y-26459509D01*
X34493598Y-26462889D01*
X34286697Y-26474800D01*
X34115939Y-26489432D01*
X33975139Y-26508885D01*
X33858111Y-26535260D01*
X33758669Y-26570658D01*
X33670629Y-26617183D01*
X33587805Y-26676934D01*
X33504011Y-26752013D01*
X33433567Y-26823016D01*
X33249403Y-27026757D01*
X33099216Y-27220745D01*
X32978356Y-27412544D01*
X32882172Y-27609723D01*
X32806014Y-27819845D01*
X32791987Y-27866815D01*
X32753213Y-27997566D01*
X32720979Y-28092880D01*
X32691278Y-28158319D01*
X32660102Y-28199444D01*
X32623442Y-28221817D01*
X32577291Y-28230999D01*
X32528393Y-28232586D01*
X32466247Y-28221533D01*
X32423540Y-28182123D01*
X32420509Y-28177613D01*
X32402671Y-28144970D01*
X32395014Y-28109490D01*
X32397029Y-28059090D01*
X32408207Y-27981689D01*
X32411439Y-27962253D01*
X32436466Y-27836581D01*
X32472926Y-27684041D01*
X32517325Y-27517380D01*
X32566167Y-27349345D01*
X32615958Y-27192681D01*
X32646653Y-27104418D01*
X32703878Y-26973214D01*
X32785230Y-26822954D01*
X32884883Y-26661743D01*
X32997008Y-26497687D01*
X33115778Y-26338891D01*
X33235368Y-26193462D01*
X33349948Y-26069504D01*
X33453693Y-25975123D01*
X33464731Y-25966481D01*
X33599153Y-25879042D01*
X33748382Y-25813552D01*
X33917118Y-25769133D01*
X34110062Y-25744908D01*
X34331916Y-25740002D01*
X34587381Y-25753536D01*
G37*
X34587381Y-25753536D02*
X34600524Y-25754631D01*
X34856029Y-25786119D01*
X35073928Y-25834527D01*
X35255672Y-25900449D01*
X35402714Y-25984479D01*
X35516506Y-26087212D01*
X35563464Y-26148892D01*
X35631453Y-26267699D01*
X35664231Y-26368995D01*
X35662134Y-26458260D01*
X35625495Y-26540976D01*
X35590137Y-26586341D01*
X35542279Y-26631351D01*
X35494479Y-26649400D01*
X35442944Y-26650821D01*
X35382836Y-26640641D01*
X35300011Y-26616670D01*
X35209863Y-26583538D01*
X35186076Y-26573541D01*
X35060577Y-26522934D01*
X34949066Y-26488218D01*
X34839085Y-26467402D01*
X34718179Y-26458496D01*
X34573890Y-26459509D01*
X34493598Y-26462889D01*
X34286697Y-26474800D01*
X34115939Y-26489432D01*
X33975139Y-26508885D01*
X33858111Y-26535260D01*
X33758669Y-26570658D01*
X33670629Y-26617183D01*
X33587805Y-26676934D01*
X33504011Y-26752013D01*
X33433567Y-26823016D01*
X33249403Y-27026757D01*
X33099216Y-27220745D01*
X32978356Y-27412544D01*
X32882172Y-27609723D01*
X32806014Y-27819845D01*
X32791987Y-27866815D01*
X32753213Y-27997566D01*
X32720979Y-28092880D01*
X32691278Y-28158319D01*
X32660102Y-28199444D01*
X32623442Y-28221817D01*
X32577291Y-28230999D01*
X32528393Y-28232586D01*
X32466247Y-28221533D01*
X32423540Y-28182123D01*
X32420509Y-28177613D01*
X32402671Y-28144970D01*
X32395014Y-28109490D01*
X32397029Y-28059090D01*
X32408207Y-27981689D01*
X32411439Y-27962253D01*
X32436466Y-27836581D01*
X32472926Y-27684041D01*
X32517325Y-27517380D01*
X32566167Y-27349345D01*
X32615958Y-27192681D01*
X32646653Y-27104418D01*
X32703878Y-26973214D01*
X32785230Y-26822954D01*
X32884883Y-26661743D01*
X32997008Y-26497687D01*
X33115778Y-26338891D01*
X33235368Y-26193462D01*
X33349948Y-26069504D01*
X33453693Y-25975123D01*
X33464731Y-25966481D01*
X33599153Y-25879042D01*
X33748382Y-25813552D01*
X33917118Y-25769133D01*
X34110062Y-25744908D01*
X34331916Y-25740002D01*
X34587381Y-25753536D01*
%TD*%
D12*
%TO.C,Q1*%
X32324000Y-31796586D03*
X34224000Y-31796586D03*
D13*
X33400000Y-33850000D03*
%TD*%
D14*
%TO.C,Ref\u002A\u002A*%
X27690342Y-19693069D03*
%TD*%
D15*
%TO.C,C3*%
X25616609Y-43951615D03*
X24211831Y-43296557D03*
%TD*%
D16*
%TO.C,D3*%
X32528504Y-26028370D03*
X33854330Y-27354196D03*
%TD*%
D17*
%TO.C,REF\u002A\u002A*%
X25639952Y-37295046D03*
X24794715Y-39107662D03*
X23949479Y-40920277D03*
%TD*%
D18*
%TO.C,C2*%
X37964220Y-31750000D03*
X36064220Y-31750000D03*
%TD*%
D19*
%TO.C,C1*%
X23955212Y-45605573D03*
X22233228Y-44802599D03*
%TD*%
D20*
%TO.C,R1*%
X30231318Y-33439564D03*
X30231318Y-31789564D03*
%TD*%
D21*
%TO.C,BT1*%
X42914951Y-60104191D03*
X22295643Y-51351813D03*
D22*
X32605297Y-55728002D03*
%TD*%
D23*
%TO.C,D1*%
X37691720Y-29870000D03*
X36116720Y-29870000D03*
%TD*%
D20*
%TO.C,R4*%
X28690151Y-33435840D03*
X28690151Y-31785840D03*
%TD*%
D24*
%TO.C,D2*%
X28142511Y-27460153D03*
X28305929Y-29328019D03*
%TD*%
D25*
%TO.C,R2*%
X25804220Y-27459086D03*
X25804220Y-25809086D03*
%TD*%
%TO.C,R3*%
X30174220Y-26029086D03*
X30174220Y-24379086D03*
%TD*%
D26*
%TO.C,U1*%
X28966325Y-43059849D03*
X28377225Y-42785147D03*
X27788125Y-42510445D03*
X27199025Y-42235743D03*
X26609925Y-41961041D03*
X26020825Y-41686339D03*
X25431725Y-41411637D03*
X24842625Y-41136935D03*
X27262115Y-35948323D03*
X27851215Y-36223025D03*
X28440315Y-36497727D03*
X29029415Y-36772429D03*
X29618515Y-37047131D03*
X30207615Y-37321833D03*
X30796715Y-37596535D03*
X31385815Y-37871237D03*
%TD*%
M02*
